<svg xmlns="http://www.w3.org/2000/svg" xmlns:xlink="http://www.w3.org/1999/xlink" width="839" height="173.951" viewBox="0 0 839 173.951">
  <defs>
    <filter id="Trazado_720474" x="0" y="0" width="839" height="173.951" filterUnits="userSpaceOnUse">
      <feOffset dy="3" input="SourceAlpha"/>
      <feGaussianBlur stdDeviation="3" result="blur"/>
      <feFlood flood-opacity="0.161"/>
      <feComposite operator="in" in2="blur"/>
      <feComposite in="SourceGraphic"/>
    </filter>
  </defs>
  <g id="Grupo_1008293" data-name="Grupo 1008293" transform="translate(-380.5 -6101.39)">
    <g transform="matrix(1, 0, 0, 1, 380.5, 6101.39)" filter="url(#Trazado_720474)">
      <path id="Trazado_720474-2" data-name="Trazado 720474" d="M0,0H820V154.951H0Z" transform="translate(9.5 6.5)" fill="#fff" stroke="#12263f" stroke-width="1"/>
    </g>
    <path id="Trazado_720475" data-name="Trazado 720475" d="M0,0H820" transform="translate(390 6140.249)" fill="none" stroke="#12263f" stroke-width="1"/>
    <path id="Trazado_720476" data-name="Trazado 720476" d="M0,0H820" transform="translate(390 6180.997)" fill="none" stroke="#12263f" stroke-width="1"/>
    <path id="Trazado_720477" data-name="Trazado 720477" d="M0,0H820" transform="translate(390 6220.991)" fill="none" stroke="#12263f" stroke-width="1"/>
    <path id="Trazado_707690" data-name="Trazado 707690" d="M0,0H820V32.359H0Z" transform="translate(390 6107.89)" fill="#e8e8e8" stroke="#12263f" stroke-width="1"/>
    <path id="Trazado_720478" data-name="Trazado 720478" d="M-19.53-2.468l2.256-7.485h2.283L-18.457,0H-20.6l-3.452-9.953h2.276Zm8.449,2.6a3.631,3.631,0,0,1-2.649-1,3.548,3.548,0,0,1-1.022-2.659v-.191A4.468,4.468,0,0,1-14.321-5.7,3.161,3.161,0,0,1-13.1-7.058a3.425,3.425,0,0,1,1.8-.475,3.07,3.07,0,0,1,2.389.957,3.889,3.889,0,0,1,.872,2.714v.807h-4.71a1.835,1.835,0,0,0,.578,1.162,1.746,1.746,0,0,0,1.22.438,2.132,2.132,0,0,0,1.784-.827L-8.2-1.2a2.966,2.966,0,0,1-1.2.981A3.947,3.947,0,0,1-11.081.137Zm-.226-6.077a1.234,1.234,0,0,0-.954.4,2.062,2.062,0,0,0-.468,1.14H-9.98V-4.56a1.471,1.471,0,0,0-.355-1.02A1.274,1.274,0,0,0-11.307-5.94Zm8.545.4A5.367,5.367,0,0,0-3.473-5.6a1.447,1.447,0,0,0-1.47.759V0H-6.918V-7.4h1.866L-5-6.515A1.831,1.831,0,0,1-3.35-7.533a2.07,2.07,0,0,1,.615.089Zm4.956,3.5a.637.637,0,0,0-.359-.571A4.077,4.077,0,0,0,.684-2.987q-2.639-.554-2.639-2.242a2.032,2.032,0,0,1,.817-1.644A3.3,3.3,0,0,1,1-7.533,3.547,3.547,0,0,1,3.25-6.87a2.09,2.09,0,0,1,.844,1.723H2.119a.956.956,0,0,0-.273-.7,1.157,1.157,0,0,0-.854-.277A1.182,1.182,0,0,0,.219-5.9a.712.712,0,0,0-.273.574.609.609,0,0,0,.311.53,3.2,3.2,0,0,0,1.049.349,8.571,8.571,0,0,1,1.244.332A2.044,2.044,0,0,1,4.115-2.126,1.929,1.929,0,0,1,3.247-.489,3.745,3.745,0,0,1,1,.137,3.912,3.912,0,0,1-.646-.195,2.77,2.77,0,0,1-1.777-1.1a2.113,2.113,0,0,1-.41-1.248H-.314a1.031,1.031,0,0,0,.39.807,1.546,1.546,0,0,0,.971.28A1.43,1.43,0,0,0,1.9-1.48.67.67,0,0,0,2.194-2.044ZM7.472,0H5.489V-7.4H7.472Zm-2.1-9.311a.973.973,0,0,1,.3-.731,1.117,1.117,0,0,1,.81-.287,1.12,1.12,0,0,1,.807.287.967.967,0,0,1,.3.731.97.97,0,0,1-.3.738,1.122,1.122,0,0,1-.8.287,1.122,1.122,0,0,1-.8-.287A.97.97,0,0,1,5.373-9.311ZM8.791-3.767a4.387,4.387,0,0,1,.424-1.962,3.1,3.1,0,0,1,1.22-1.333,3.56,3.56,0,0,1,1.849-.472,3.368,3.368,0,0,1,2.444.916,3.676,3.676,0,0,1,1.056,2.488l.014.506a3.866,3.866,0,0,1-.95,2.731A3.3,3.3,0,0,1,12.3.137,3.319,3.319,0,0,1,9.745-.889a3.934,3.934,0,0,1-.954-2.789Zm1.976.14a2.765,2.765,0,0,0,.4,1.612,1.308,1.308,0,0,0,1.135.558,1.311,1.311,0,0,0,1.121-.551,3.025,3.025,0,0,0,.4-1.763,2.737,2.737,0,0,0-.4-1.6,1.311,1.311,0,0,0-1.135-.568,1.29,1.29,0,0,0-1.121.565A3.076,3.076,0,0,0,10.767-3.626ZM12.674-10.5h2.153L12.934-8.381H11.327Zm6.159,3.1.062.854a2.582,2.582,0,0,1,2.126-.991,2.146,2.146,0,0,1,1.75.69,3.221,3.221,0,0,1,.588,2.064V0H21.383V-4.741a1.287,1.287,0,0,0-.273-.915A1.222,1.222,0,0,0,20.2-5.94a1.359,1.359,0,0,0-1.251.713V0H16.974V-7.4Z" transform="translate(455 6128.724)" fill="#12263f"/>
    <path id="Trazado_720479" data-name="Trazado 720479" d="M-11.99-4.067h-3.937V0h-2.051V-9.953h6.48v1.661h-4.43v2.57h3.938Zm4.813,4.2a3.631,3.631,0,0,1-2.649-1,3.548,3.548,0,0,1-1.022-2.659v-.191A4.468,4.468,0,0,1-10.418-5.7,3.161,3.161,0,0,1-9.2-7.058a3.425,3.425,0,0,1,1.8-.475,3.07,3.07,0,0,1,2.389.957,3.889,3.889,0,0,1,.872,2.714v.807h-4.71a1.835,1.835,0,0,0,.578,1.162,1.746,1.746,0,0,0,1.22.438,2.132,2.132,0,0,0,1.784-.827L-4.293-1.2a2.966,2.966,0,0,1-1.2.981A3.947,3.947,0,0,1-7.178.137ZM-7.4-5.94a1.234,1.234,0,0,0-.954.4A2.062,2.062,0,0,0-8.825-4.4h2.748V-4.56a1.471,1.471,0,0,0-.355-1.02A1.274,1.274,0,0,0-7.4-5.94ZM.062-1.456a1.3,1.3,0,0,0,.889-.3,1.054,1.054,0,0,0,.355-.8H3.158a2.534,2.534,0,0,1-.41,1.377,2.706,2.706,0,0,1-1.1.971A3.455,3.455,0,0,1,.1.137a3.211,3.211,0,0,1-2.5-1.008,3.99,3.99,0,0,1-.916-2.786v-.13a3.944,3.944,0,0,1,.909-2.728,3.174,3.174,0,0,1,2.5-1.019,3.111,3.111,0,0,1,2.225.79,2.8,2.8,0,0,1,.851,2.1H1.306A1.358,1.358,0,0,0,.95-5.58a1.185,1.185,0,0,0-.9-.361,1.19,1.19,0,0,0-1.042.5A2.916,2.916,0,0,0-1.347-3.8V-3.6A2.953,2.953,0,0,0-1-1.956,1.2,1.2,0,0,0,.062-1.456ZM6.214-6.59a2.466,2.466,0,0,1,1.976-.943q2.406,0,2.44,2.8V0H8.654V-4.693a1.38,1.38,0,0,0-.273-.942,1.171,1.171,0,0,0-.909-.3,1.344,1.344,0,0,0-1.258.671V0H4.238V-10.5H6.214ZM16.406,0a2.194,2.194,0,0,1-.2-.663,2.39,2.39,0,0,1-1.866.8,2.626,2.626,0,0,1-1.8-.629,2.023,2.023,0,0,1-.714-1.586,2.09,2.09,0,0,1,.872-1.8,4.3,4.3,0,0,1,2.519-.636h.909v-.424a1.219,1.219,0,0,0-.263-.82,1.035,1.035,0,0,0-.831-.308,1.177,1.177,0,0,0-.783.239.813.813,0,0,0-.284.656H11.99a1.984,1.984,0,0,1,.4-1.189,2.621,2.621,0,0,1,1.121-.858,4.086,4.086,0,0,1,1.627-.311,3.228,3.228,0,0,1,2.17.687,2.4,2.4,0,0,1,.8,1.931v3.206A3.536,3.536,0,0,0,18.4-.116V0ZM14.772-1.374a1.7,1.7,0,0,0,.807-.195,1.28,1.28,0,0,0,.547-.523V-3.363h-.738q-1.483,0-1.579,1.025l-.007.116a.791.791,0,0,0,.26.608A1.009,1.009,0,0,0,14.772-1.374Z" transform="translate(583 6128.724)" fill="#12263f"/>
    <path id="Trazado_720480" data-name="Trazado 720480" d="M-79.037,0V-9.953h3.063a4.651,4.651,0,0,1,2.348.591A4.123,4.123,0,0,1-72.01-7.68,5.187,5.187,0,0,1-71.429-5.2v.458A5.2,5.2,0,0,1-72-2.276,4.088,4.088,0,0,1-73.609-.6a4.686,4.686,0,0,1-2.345.6Zm2.051-8.292v6.645H-76a2.227,2.227,0,0,0,1.839-.786,3.552,3.552,0,0,0,.649-2.249v-.526a3.609,3.609,0,0,0-.629-2.3,2.219,2.219,0,0,0-1.839-.783ZM-66.664.137a3.631,3.631,0,0,1-2.649-1,3.548,3.548,0,0,1-1.022-2.659v-.191A4.468,4.468,0,0,1-69.9-5.7a3.161,3.161,0,0,1,1.22-1.354,3.425,3.425,0,0,1,1.8-.475,3.07,3.07,0,0,1,2.389.957,3.889,3.889,0,0,1,.872,2.714v.807h-4.71a1.835,1.835,0,0,0,.578,1.162,1.746,1.746,0,0,0,1.22.438,2.132,2.132,0,0,0,1.784-.827l.971,1.087a2.966,2.966,0,0,1-1.2.981A3.947,3.947,0,0,1-66.664.137ZM-66.89-5.94a1.234,1.234,0,0,0-.954.4,2.062,2.062,0,0,0-.468,1.14h2.748V-4.56a1.471,1.471,0,0,0-.355-1.02A1.274,1.274,0,0,0-66.89-5.94Zm8.395,3.9a.637.637,0,0,0-.359-.571,4.077,4.077,0,0,0-1.152-.373q-2.639-.554-2.639-2.242a2.032,2.032,0,0,1,.817-1.644,3.3,3.3,0,0,1,2.136-.66,3.547,3.547,0,0,1,2.252.663,2.09,2.09,0,0,1,.844,1.723H-58.57a.956.956,0,0,0-.273-.7,1.157,1.157,0,0,0-.854-.277,1.182,1.182,0,0,0-.772.226.712.712,0,0,0-.273.574.609.609,0,0,0,.311.53,3.2,3.2,0,0,0,1.049.349,8.571,8.571,0,0,1,1.244.332,2.044,2.044,0,0,1,1.565,1.989,1.929,1.929,0,0,1-.868,1.637,3.745,3.745,0,0,1-2.242.625,3.912,3.912,0,0,1-1.651-.332A2.77,2.77,0,0,1-62.467-1.1a2.113,2.113,0,0,1-.41-1.248H-61a1.031,1.031,0,0,0,.39.807,1.546,1.546,0,0,0,.971.28,1.43,1.43,0,0,0,.858-.215A.67.67,0,0,0-58.5-2.044Zm6.269.588a1.3,1.3,0,0,0,.889-.3,1.054,1.054,0,0,0,.355-.8h1.853a2.534,2.534,0,0,1-.41,1.377,2.706,2.706,0,0,1-1.1.971,3.455,3.455,0,0,1-1.548.345,3.211,3.211,0,0,1-2.5-1.008,3.99,3.99,0,0,1-.916-2.786v-.13A3.944,3.944,0,0,1-54.7-6.515a3.174,3.174,0,0,1,2.5-1.019,3.111,3.111,0,0,1,2.225.79,2.8,2.8,0,0,1,.851,2.1h-1.853a1.358,1.358,0,0,0-.355-.938,1.185,1.185,0,0,0-.9-.361,1.19,1.19,0,0,0-1.042.5A2.916,2.916,0,0,0-53.635-3.8V-3.6a2.953,2.953,0,0,0,.349,1.643A1.2,1.2,0,0,0-52.227-1.456Zm8.381-4.088a5.367,5.367,0,0,0-.711-.055,1.447,1.447,0,0,0-1.47.759V0H-48V-7.4h1.866l.055.882a1.831,1.831,0,0,1,1.647-1.019,2.07,2.07,0,0,1,.615.089ZM-40.811,0h-1.982V-7.4h1.982Zm-2.1-9.311a.973.973,0,0,1,.3-.731,1.117,1.117,0,0,1,.81-.287,1.12,1.12,0,0,1,.807.287.967.967,0,0,1,.3.731.97.97,0,0,1-.3.738,1.122,1.122,0,0,1-.8.287,1.122,1.122,0,0,1-.8-.287A.97.97,0,0,1-42.909-9.311ZM-32.525-3.63A4.436,4.436,0,0,1-33.3-.892,2.488,2.488,0,0,1-35.4.137a2.3,2.3,0,0,1-1.812-.779V2.844h-1.976V-7.4h1.832l.068.725a2.322,2.322,0,0,1,1.873-.861,2.5,2.5,0,0,1,2.126,1.012,4.556,4.556,0,0,1,.759,2.789ZM-34.5-3.78a2.927,2.927,0,0,0-.366-1.6A1.19,1.19,0,0,0-35.93-5.94a1.293,1.293,0,0,0-1.278.713V-2.19a1.315,1.315,0,0,0,1.292.734Q-34.5-1.456-34.5-3.78Zm6.275,2.324a1.3,1.3,0,0,0,.889-.3,1.054,1.054,0,0,0,.355-.8h1.853a2.534,2.534,0,0,1-.41,1.377,2.706,2.706,0,0,1-1.1.971,3.455,3.455,0,0,1-1.548.345,3.211,3.211,0,0,1-2.5-1.008,3.99,3.99,0,0,1-.916-2.786v-.13A3.944,3.944,0,0,1-30.7-6.515a3.174,3.174,0,0,1,2.5-1.019,3.111,3.111,0,0,1,2.225.79,2.8,2.8,0,0,1,.851,2.1h-1.853a1.358,1.358,0,0,0-.355-.938,1.185,1.185,0,0,0-.9-.361,1.19,1.19,0,0,0-1.042.5A2.916,2.916,0,0,0-29.634-3.8V-3.6a2.953,2.953,0,0,0,.349,1.643A1.2,1.2,0,0,0-28.226-1.456ZM-21.916,0H-23.9V-7.4h1.982Zm-2.1-9.311a.973.973,0,0,1,.3-.731,1.117,1.117,0,0,1,.81-.287,1.12,1.12,0,0,1,.807.287.967.967,0,0,1,.3.731.97.97,0,0,1-.3.738,1.122,1.122,0,0,1-.8.287,1.122,1.122,0,0,1-.8-.287A.97.97,0,0,1-24.015-9.311ZM-20.6-3.767a4.387,4.387,0,0,1,.424-1.962,3.1,3.1,0,0,1,1.22-1.333A3.56,3.56,0,0,1-17.1-7.533a3.368,3.368,0,0,1,2.444.916A3.676,3.676,0,0,1-13.6-4.129l.014.506a3.866,3.866,0,0,1-.95,2.731A3.3,3.3,0,0,1-17.09.137,3.319,3.319,0,0,1-19.643-.889,3.934,3.934,0,0,1-20.6-3.678Zm1.976.14a2.765,2.765,0,0,0,.4,1.612,1.308,1.308,0,0,0,1.135.558,1.311,1.311,0,0,0,1.121-.551,3.025,3.025,0,0,0,.4-1.763,2.737,2.737,0,0,0-.4-1.6A1.311,1.311,0,0,0-17.1-5.94a1.29,1.29,0,0,0-1.121.565A3.076,3.076,0,0,0-18.621-3.626Zm1.907-6.874h2.153l-1.894,2.119h-1.606Zm6.159,3.1.062.854a2.582,2.582,0,0,1,2.126-.991,2.146,2.146,0,0,1,1.75.69,3.221,3.221,0,0,1,.588,2.064V0H-8V-4.741a1.287,1.287,0,0,0-.273-.915,1.222,1.222,0,0,0-.909-.284,1.359,1.359,0,0,0-1.251.713V0h-1.976V-7.4ZM.807-7.4l.062.827a2.6,2.6,0,0,1,2.126-.964A1.973,1.973,0,0,1,4.956-6.405,2.54,2.54,0,0,1,7.178-7.533a2.206,2.206,0,0,1,1.791.7,3.221,3.221,0,0,1,.588,2.109V0H7.574V-4.728a1.414,1.414,0,0,0-.246-.922A1.089,1.089,0,0,0,6.46-5.94a1.233,1.233,0,0,0-1.23.85L5.236,0H3.261V-4.721a1.4,1.4,0,0,0-.253-.932,1.1,1.1,0,0,0-.861-.288,1.28,1.28,0,0,0-1.217.7V0H-1.046V-7.4Zm9.96,3.63a4.387,4.387,0,0,1,.424-1.962,3.1,3.1,0,0,1,1.22-1.333,3.56,3.56,0,0,1,1.849-.472,3.368,3.368,0,0,1,2.444.916A3.676,3.676,0,0,1,17.76-4.129l.014.506a3.866,3.866,0,0,1-.95,2.731A3.3,3.3,0,0,1,14.273.137,3.319,3.319,0,0,1,11.72-.889a3.934,3.934,0,0,1-.954-2.789Zm1.976.14a2.765,2.765,0,0,0,.4,1.612,1.308,1.308,0,0,0,1.135.558,1.311,1.311,0,0,0,1.121-.551,3.025,3.025,0,0,0,.4-1.763,2.737,2.737,0,0,0-.4-1.6A1.311,1.311,0,0,0,14.26-5.94a1.29,1.29,0,0,0-1.121.565A3.076,3.076,0,0,0,12.742-3.626Zm5.94-.127a4.457,4.457,0,0,1,.776-2.755,2.517,2.517,0,0,1,2.123-1.025,2.265,2.265,0,0,1,1.784.807V-10.5h1.982V0H23.563l-.1-.786a2.325,2.325,0,0,1-1.9.923,2.511,2.511,0,0,1-2.1-1.029A4.6,4.6,0,0,1,18.683-3.753Zm1.976.141a2.936,2.936,0,0,0,.362,1.6,1.179,1.179,0,0,0,1.053.556,1.321,1.321,0,0,0,1.292-.776V-5.164a1.3,1.3,0,0,0-1.278-.776Q20.658-5.94,20.658-3.612ZM28.964,0H26.981V-7.4h1.982Zm-2.1-9.311a.973.973,0,0,1,.3-.731,1.117,1.117,0,0,1,.81-.287,1.12,1.12,0,0,1,.807.287.967.967,0,0,1,.3.731.97.97,0,0,1-.3.738,1.122,1.122,0,0,1-.8.287,1.122,1.122,0,0,1-.8-.287A.97.97,0,0,1,26.865-9.311ZM31.069,0V-5.947h-1.1V-7.4h1.1v-.342a2.774,2.774,0,0,1,.858-2.15,3.452,3.452,0,0,1,2.382-.755,7.9,7.9,0,0,1,2.242.4l-.287,1.634a8.748,8.748,0,0,0-1.039-.256,5.105,5.105,0,0,0-.793-.058q-1.381,0-1.381,1.224v.3h1.456v1.449H33.052V0Zm6.405,0H35.492V-7.4h1.982Zm4.71-1.456a1.3,1.3,0,0,0,.889-.3,1.054,1.054,0,0,0,.355-.8h1.853a2.534,2.534,0,0,1-.41,1.377,2.706,2.706,0,0,1-1.1.971,3.455,3.455,0,0,1-1.548.345,3.211,3.211,0,0,1-2.5-1.008A3.99,3.99,0,0,1,38.8-3.657v-.13a3.944,3.944,0,0,1,.909-2.728,3.174,3.174,0,0,1,2.5-1.019,3.111,3.111,0,0,1,2.225.79,2.8,2.8,0,0,1,.851,2.1H43.429a1.358,1.358,0,0,0-.355-.938,1.185,1.185,0,0,0-.9-.361,1.19,1.19,0,0,0-1.042.5A2.916,2.916,0,0,0,40.776-3.8V-3.6a2.953,2.953,0,0,0,.349,1.643A1.2,1.2,0,0,0,42.185-1.456ZM50.7,0a2.194,2.194,0,0,1-.2-.663,2.39,2.39,0,0,1-1.866.8,2.626,2.626,0,0,1-1.8-.629,2.023,2.023,0,0,1-.714-1.586,2.09,2.09,0,0,1,.872-1.8,4.3,4.3,0,0,1,2.519-.636h.909v-.424a1.219,1.219,0,0,0-.263-.82,1.035,1.035,0,0,0-.831-.308,1.177,1.177,0,0,0-.783.239.813.813,0,0,0-.284.656H46.279a1.984,1.984,0,0,1,.4-1.189A2.621,2.621,0,0,1,47.8-7.222a4.086,4.086,0,0,1,1.627-.311,3.228,3.228,0,0,1,2.17.687,2.4,2.4,0,0,1,.8,1.931v3.206a3.536,3.536,0,0,0,.294,1.593V0ZM49.062-1.374a1.7,1.7,0,0,0,.807-.195,1.28,1.28,0,0,0,.547-.523V-3.363h-.738q-1.483,0-1.579,1.025l-.007.116a.791.791,0,0,0,.26.608A1.009,1.009,0,0,0,49.062-1.374Zm7.93-.082a1.3,1.3,0,0,0,.889-.3,1.054,1.054,0,0,0,.355-.8h1.853a2.534,2.534,0,0,1-.41,1.377,2.706,2.706,0,0,1-1.1.971,3.455,3.455,0,0,1-1.548.345,3.211,3.211,0,0,1-2.5-1.008,3.99,3.99,0,0,1-.916-2.786v-.13a3.944,3.944,0,0,1,.909-2.728,3.174,3.174,0,0,1,2.5-1.019,3.111,3.111,0,0,1,2.225.79,2.8,2.8,0,0,1,.851,2.1H58.235a1.358,1.358,0,0,0-.355-.938,1.185,1.185,0,0,0-.9-.361,1.19,1.19,0,0,0-1.042.5A2.916,2.916,0,0,0,55.583-3.8V-3.6a2.953,2.953,0,0,0,.349,1.643A1.2,1.2,0,0,0,56.991-1.456ZM63.3,0H61.318V-7.4H63.3ZM61.2-9.311a.973.973,0,0,1,.3-.731,1.117,1.117,0,0,1,.81-.287,1.12,1.12,0,0,1,.807.287.967.967,0,0,1,.3.731.97.97,0,0,1-.3.738,1.122,1.122,0,0,1-.8.287,1.122,1.122,0,0,1-.8-.287A.97.97,0,0,1,61.2-9.311ZM64.62-3.767a4.387,4.387,0,0,1,.424-1.962,3.1,3.1,0,0,1,1.22-1.333,3.56,3.56,0,0,1,1.849-.472,3.368,3.368,0,0,1,2.444.916,3.676,3.676,0,0,1,1.056,2.488l.014.506a3.866,3.866,0,0,1-.95,2.731A3.3,3.3,0,0,1,68.127.137,3.319,3.319,0,0,1,65.574-.889a3.934,3.934,0,0,1-.954-2.789Zm1.976.14a2.765,2.765,0,0,0,.4,1.612,1.308,1.308,0,0,0,1.135.558,1.311,1.311,0,0,0,1.121-.551,3.025,3.025,0,0,0,.4-1.763,2.737,2.737,0,0,0-.4-1.6,1.311,1.311,0,0,0-1.135-.568,1.29,1.29,0,0,0-1.121.565A3.076,3.076,0,0,0,66.6-3.626ZM68.5-10.5h2.153L68.763-8.381H67.156Zm6.159,3.1.062.854a2.582,2.582,0,0,1,2.126-.991,2.146,2.146,0,0,1,1.75.69,3.221,3.221,0,0,1,.588,2.064V0H77.212V-4.741a1.287,1.287,0,0,0-.273-.915,1.222,1.222,0,0,0-.909-.284,1.359,1.359,0,0,0-1.251.713V0H72.8V-7.4Z" transform="translate(929 6128.724)" fill="#12263f"/>
    <path id="Trazado_720481" data-name="Trazado 720481" d="M0,0V154.951" transform="translate(519 6107.89)" fill="none" stroke="#12263f" stroke-width="1"/>
    <path id="Trazado_720482" data-name="Trazado 720482" d="M0,0V154.951" transform="translate(648 6107.89)" fill="none" stroke="#12263f" stroke-width="1"/>
  </g>
</svg>
