<svg xmlns="http://www.w3.org/2000/svg" xmlns:xlink="http://www.w3.org/1999/xlink" width="112" height="104" viewBox="0 0 112 104">
  <defs>
    <clipPath id="clip-path">
      <rect id="Rect치ngulo_350899" data-name="Rect치ngulo 350899" width="104" height="104" fill="none"/>
    </clipPath>
  </defs>
  <g id="Grupo_1008282" data-name="Grupo 1008282" transform="translate(-1002 -4138)">
    <rect id="Rect치ngulo_346201" data-name="Rect치ngulo 346201" width="112" height="104" transform="translate(1002 4138)" fill="none"/>
    <g id="Grupo_1008272" data-name="Grupo 1008272" transform="translate(1006 4138)">
      <g id="Grupo_1008269" data-name="Grupo 1008269">
        <g id="Grupo_1008268" data-name="Grupo 1008268" clip-path="url(#clip-path)">
          <path id="Trazado_720220" data-name="Trazado 720220" d="M60.1,5.077,56.51,9a43.25,43.25,0,0,1,38.306,37l4.107,3.759,3.9-3.568A51.161,51.161,0,0,0,56.409,1.04Z" fill="#fddf7f"/>
          <path id="Trazado_720221" data-name="Trazado 720221" d="M5.077,43.9,9,47.49A43.249,43.249,0,0,1,46.007,9.185l3.759-4.108L46.2,1.178A51.162,51.162,0,0,0,1.04,47.591Z" fill="#81d4fa"/>
          <path id="Trazado_720222" data-name="Trazado 720222" d="M43.9,98.923,47.49,95A43.249,43.249,0,0,1,9.185,57.993L5.077,54.234,1.178,57.8A51.161,51.161,0,0,0,47.591,102.96Z" fill="#fddf7f"/>
          <path id="Trazado_720223" data-name="Trazado 720223" d="M98.923,60.1,95,56.51A43.251,43.251,0,0,1,57.993,94.816l-3.759,4.107,3.568,3.9A51.162,51.162,0,0,0,102.96,56.409Z" fill="#81d4fa"/>
          <path id="Trazado_720224" data-name="Trazado 720224" d="M87.217,52A35.217,35.217,0,1,1,52,16.783,35.218,35.218,0,0,1,87.217,52" fill="#aab1ba"/>
          <path id="Trazado_720225" data-name="Trazado 720225" d="M80.193,52A28.193,28.193,0,1,1,52,23.807,28.192,28.192,0,0,1,80.193,52" fill="#81d4fa"/>
          <path id="Trazado_720226" data-name="Trazado 720226" d="M62.882,60.236H41.118A5.261,5.261,0,0,0,35.857,65.5v9.618a28.2,28.2,0,0,0,32.286,0V65.5a5.261,5.261,0,0,0-5.261-5.261" fill="#ecf4f7"/>
          <path id="Trazado_720227" data-name="Trazado 720227" d="M49.81,60.236,49.152,80.05a28.432,28.432,0,0,0,5.7,0L54.19,60.236Z" fill="#81d4fa"/>
        </g>
      </g>
      <g id="Grupo_1008271" data-name="Grupo 1008271">
        <g id="Grupo_1008270" data-name="Grupo 1008270" clip-path="url(#clip-path)">
          <path id="Trazado_720228" data-name="Trazado 720228" d="M64.9,47.331A12.9,12.9,0,1,1,52,34.427a12.9,12.9,0,0,1,12.9,12.9" fill="#fddf7f"/>
          <path id="Trazado_720229" data-name="Trazado 720229" d="M9.215,4.939a1.04,1.04,0,0,1,1.04-1.04h1.214V2.686a1.04,1.04,0,1,1,2.08,0V3.9h1.213a1.04,1.04,0,0,1,0,2.08H13.549V7.193a1.04,1.04,0,0,1-2.08,0V5.979H10.255a1.04,1.04,0,0,1-1.04-1.04M93.744,98.022H92.53V96.808a1.04,1.04,0,1,0-2.079,0v1.214H89.237a1.039,1.039,0,1,0,0,2.079h1.214v1.213a1.04,1.04,0,1,0,2.079,0V100.1h1.214a1.039,1.039,0,1,0,0-2.079M88.256,52A36.256,36.256,0,1,1,52,15.743,36.3,36.3,0,0,1,88.256,52m-2.08,0A34.177,34.177,0,1,0,52,86.177,34.215,34.215,0,0,0,86.176,52m-4.943,0A29.234,29.234,0,1,1,52,22.767,29.266,29.266,0,0,1,81.233,52m-2.08,0A27.153,27.153,0,1,0,52,79.153,27.184,27.184,0,0,0,79.153,52M42.675,66.5a1.04,1.04,0,0,0-1.04,1.04v6.814a1.04,1.04,0,0,0,2.08,0V67.544a1.04,1.04,0,0,0-1.04-1.04m18.648,0a1.04,1.04,0,0,0-1.04,1.04v6.814a1.04,1.04,0,1,0,2.08,0V67.544a1.04,1.04,0,0,0-1.04-1.04M69.182,65.5v4.718a1.04,1.04,0,0,1-2.08,0V65.5a4.226,4.226,0,0,0-4.22-4.221H55.265l.5,14.975a1.039,1.039,0,0,1-1,1.074h-.036a1.039,1.039,0,0,1-1.038-1.006l-.5-15.044H50.816l-.5,15.044a1.04,1.04,0,1,1-2.078-.069l.5-14.975H41.119A4.227,4.227,0,0,0,36.9,65.5v4.718a1.039,1.039,0,1,1-2.079,0V65.5a6.308,6.308,0,0,1,6.3-6.3h3.565a13.944,13.944,0,1,1,14.633,0h3.565a6.308,6.308,0,0,1,6.3,6.3M52,59.2A11.864,11.864,0,1,0,40.135,47.331,11.878,11.878,0,0,0,52,59.2M56.319,2.077a50.174,50.174,0,0,1,45.407,43.714l-2.8,2.565-3.131-2.865A44.29,44.29,0,0,0,56.617,7.968a1.041,1.041,0,1,0-.214,2.07A42.036,42.036,0,0,1,93.785,46.149a1.034,1.034,0,0,0,.328.625l4.107,3.76a1.043,1.043,0,0,0,1.4,0l3.9-3.569a1.04,1.04,0,0,0,.331-.883A52.26,52.26,0,0,0,56.5,0a1.04,1.04,0,0,0-.178,2.073M.951,48.628c.03,0,.06,0,.09,0a1.04,1.04,0,0,0,1.035-.951A50.176,50.176,0,0,1,45.791,2.274l2.565,2.8L45.49,8.209A44.285,44.285,0,0,0,7.968,47.383a1.04,1.04,0,1,0,2.069.214A42.038,42.038,0,0,1,46.149,10.214a1.033,1.033,0,0,0,.624-.327L50.532,5.78a1.042,1.042,0,0,0,0-1.406L46.965.476a1.034,1.034,0,0,0-.884-.331A52.259,52.259,0,0,0,0,47.5a1.039,1.039,0,0,0,.947,1.125m46.729,53.3A50.176,50.176,0,0,1,2.273,58.209l2.8-2.564,3.13,2.864A44.293,44.293,0,0,0,47.383,96.032a1.04,1.04,0,0,0,.214-2.069A42.037,42.037,0,0,1,10.214,57.851a1.034,1.034,0,0,0-.328-.625L5.778,53.467a1.039,1.039,0,0,0-1.4,0l-3.9,3.568a1.038,1.038,0,0,0-.331.883A52.26,52.26,0,0,0,47.5,104c.03,0,.06,0,.089,0a1.04,1.04,0,0,0,.088-2.076m55.369-46.551a1.036,1.036,0,0,0-1.125.947,50.176,50.176,0,0,1-43.715,45.406l-2.565-2.8,2.865-3.131A44.288,44.288,0,0,0,96.031,56.617a1.04,1.04,0,1,0-2.068-.214A42.039,42.039,0,0,1,57.85,93.786a1.033,1.033,0,0,0-.624.327l-3.759,4.108a1.039,1.039,0,0,0,0,1.4l3.568,3.9a1.035,1.035,0,0,0,.767.337,1.113,1.113,0,0,0,.116-.006A52.258,52.258,0,0,0,104,56.5a1.037,1.037,0,0,0-.946-1.124m-94.042-5.4a1.041,1.041,0,0,0-1.04,1.04v.717a1.04,1.04,0,1,0,2.08,0v-.717a1.04,1.04,0,0,0-1.04-1.04M52.584,2.08h.388a1.04,1.04,0,1,0,0-2.08h-.388a1.04,1.04,0,1,0,0,2.08M102.96,51.433a1.039,1.039,0,0,0-1.04,1.04v.48a1.04,1.04,0,0,0,2.08,0v-.48a1.04,1.04,0,0,0-1.04-1.04m-50.9,50.487h-.449a1.04,1.04,0,0,0,0,2.08h.449a1.04,1.04,0,1,0,0-2.08" fill="#1c1d21"/>
        </g>
      </g>
    </g>
  </g>
</svg>
