<svg id="Grupo_1007351" data-name="Grupo 1007351" xmlns="http://www.w3.org/2000/svg" xmlns:xlink="http://www.w3.org/1999/xlink" width="158.365" height="147.938" viewBox="0 0 158.365 147.938">
  <defs>
    <clipPath id="clip-path">
      <rect id="Rectángulo_348723" data-name="Rectángulo 348723" width="158.365" height="147.937" fill="none"/>
    </clipPath>
    <clipPath id="clip-path-3">
      <rect id="Rectángulo_348713" data-name="Rectángulo 348713" width="37.23" height="45.399" fill="none"/>
    </clipPath>
    <clipPath id="clip-path-4">
      <rect id="Rectángulo_348715" data-name="Rectángulo 348715" width="2.259" height="5.842" fill="none"/>
    </clipPath>
    <clipPath id="clip-path-5">
      <rect id="Rectángulo_348716" data-name="Rectángulo 348716" width="1.91" height="1.47" fill="none"/>
    </clipPath>
    <clipPath id="clip-path-6">
      <rect id="Rectángulo_348717" data-name="Rectángulo 348717" width="8.798" height="0.945" fill="none"/>
    </clipPath>
    <clipPath id="clip-path-7">
      <rect id="Rectángulo_348718" data-name="Rectángulo 348718" width="1.67" height="2.354" fill="none"/>
    </clipPath>
    <clipPath id="clip-path-8">
      <rect id="Rectángulo_348719" data-name="Rectángulo 348719" width="6.828" height="5.691" fill="none"/>
    </clipPath>
    <clipPath id="clip-path-9">
      <rect id="Rectángulo_348720" data-name="Rectángulo 348720" width="5.646" height="11.412" fill="none"/>
    </clipPath>
    <clipPath id="clip-path-10">
      <rect id="Rectángulo_348721" data-name="Rectángulo 348721" width="25.03" height="28.623" fill="none"/>
    </clipPath>
  </defs>
  <g id="Grupo_1007350" data-name="Grupo 1007350" clip-path="url(#clip-path)">
    <g id="Grupo_1007349" data-name="Grupo 1007349">
      <g id="Grupo_1007348" data-name="Grupo 1007348" clip-path="url(#clip-path)">
        <path id="Trazado_714778" data-name="Trazado 714778" d="M2.911,230.746v9.1h2.1a12.769,12.769,0,0,1,0-2.885c.2-1.074,2.483-3.839,2.416-6.213Z" transform="translate(-1.17 -92.711)" fill="#ececec"/>
        <path id="Trazado_714779" data-name="Trazado 714779" d="M31.01,230.746v9.1h2.1a12.769,12.769,0,0,1,0-2.885c.2-1.074,2.483-3.839,2.416-6.213Z" transform="translate(-12.459 -92.711)" fill="#e1e1e1"/>
        <path id="Trazado_714780" data-name="Trazado 714780" d="M55.476,230.746v9.1h-2.1a12.769,12.769,0,0,0,0-2.885c-.2-1.074-2.483-3.839-2.416-6.213Z" transform="translate(-20.474 -92.711)" fill="#ececec"/>
        <path id="Trazado_714781" data-name="Trazado 714781" d="M79.8,230.746v9.1H77.7a12.768,12.768,0,0,0,0-2.885c-.2-1.074-2.483-3.839-2.416-6.213Z" transform="translate(-30.246 -92.711)" fill="#e1e1e1"/>
        <rect id="Rectángulo_348709" data-name="Rectángulo 348709" width="50.341" height="45.208" transform="translate(0.312 93.121)" fill="#f5f5f5"/>
        <path id="Trazado_714782" data-name="Trazado 714782" d="M62,155.665l.374,45.208H75.565V155.663Z" transform="translate(-24.912 -62.544)" fill="#e1e1e1"/>
        <rect id="Rectángulo_348710" data-name="Rectángulo 348710" width="32.32" height="11.503" transform="translate(2.578 96.447)" fill="#ececec"/>
        <rect id="Rectángulo_348711" data-name="Rectángulo 348711" width="32.32" height="11.503" transform="translate(2.578 110.243)" fill="#ececec"/>
        <rect id="Rectángulo_348712" data-name="Rectángulo 348712" width="32.32" height="11.503" transform="translate(2.578 124.04)" fill="#ececec"/>
        <path id="Trazado_714783" data-name="Trazado 714783" d="M24.084,133.951,22.69,146.888H40.551l1.481-12.937Z" transform="translate(-9.117 -53.82)" fill="#e1e1e1"/>
        <path id="Trazado_714784" data-name="Trazado 714784" d="M25.337,135.5,23.98,146.825H40.1L41.4,135.5Z" transform="translate(-9.635 -54.444)" fill="#fff"/>
        <path id="Trazado_714785" data-name="Trazado 714785" d="M30.222,138.687l-.835,7.512H39.56l.522-7.512Z" transform="translate(-11.807 -55.723)" fill="#ececec"/>
        <path id="Trazado_714786" data-name="Trazado 714786" d="M53.391,143.265l3.689,7.417-4.533-.052Z" transform="translate(-21.113 -57.562)" fill="#ececec"/>
        <path id="Trazado_714787" data-name="Trazado 714787" d="M31.711,171.051a1.182,1.182,0,1,1-1.182-1.182,1.182,1.182,0,0,1,1.182,1.182" transform="translate(-11.791 -68.251)" fill="#e1e1e1"/>
        <path id="Trazado_714788" data-name="Trazado 714788" d="M31.711,194.342a1.182,1.182,0,1,1-1.182-1.182,1.182,1.182,0,0,1,1.182,1.182" transform="translate(-11.791 -77.609)" fill="#e1e1e1"/>
        <path id="Trazado_714789" data-name="Trazado 714789" d="M31.711,217.634a1.182,1.182,0,1,1-1.182-1.182,1.182,1.182,0,0,1,1.182,1.182" transform="translate(-11.791 -86.968)" fill="#e1e1e1"/>
        <path id="Trazado_714790" data-name="Trazado 714790" d="M39.081,32.633l-28.544-.278.8,37.2,28.54.105Z" transform="translate(-4.234 -13)" fill="#e1e1e1"/>
        <path id="Trazado_714791" data-name="Trazado 714791" d="M38.392,35.157l-24.987-.649.723,33.737,24.98.307Z" transform="translate(-5.386 -13.865)" fill="#fafafa"/>
        <path id="Trazado_714792" data-name="Trazado 714792" d="M36.91,43.832l-16.578-.276.505,23.581L37.4,66.783Z" transform="translate(-8.169 -17.5)" fill="#ececec"/>
        <path id="Trazado_714793" data-name="Trazado 714793" d="M20.837,67.137l16.3-12.469L20.331,43.556Z" transform="translate(-8.169 -17.5)" fill="#f5f5f5"/>
        <path id="Trazado_714794" data-name="Trazado 714794" d="M246.749.244,221.709,0l.7,32.633,25.037.092Z" transform="translate(-89.08 0)" fill="#e1e1e1"/>
        <path id="Trazado_714795" data-name="Trazado 714795" d="M246.145,2.458l-21.92-.569.634,29.6,21.913.27Z" transform="translate(-90.091 -0.759)" fill="#fafafa"/>
        <path id="Trazado_714796" data-name="Trazado 714796" d="M244.845,10.069,230.3,9.828l.443,20.686,14.531-.311Z" transform="translate(-92.532 -3.949)" fill="#ececec"/>
        <path id="Trazado_714797" data-name="Trazado 714797" d="M230.744,30.514l14.3-10.939L230.3,9.827Z" transform="translate(-92.532 -3.948)" fill="#f5f5f5"/>
        <path id="Trazado_714798" data-name="Trazado 714798" d="M216.675,205.512c-.106.32,3.629,14.517,3.629,14.517l2.562-.534-3.522-13.983Z" transform="translate(-87.057 -82.572)" fill="#ececec"/>
        <path id="Trazado_714799" data-name="Trazado 714799" d="M246.424,202.122,241.3,218.667h2.989l4.91-15.37Z" transform="translate(-96.951 -81.21)" fill="#f5f5f5"/>
        <path id="Trazado_714800" data-name="Trazado 714800" d="M253.773,197.84,247.9,216.947h2.989l5.657-17.933Z" transform="translate(-99.604 -79.489)" fill="#ececec"/>
        <path id="Trazado_714801" data-name="Trazado 714801" d="M219.71,227.816,222.7,238.17h15.05l2.775-10.354Z" transform="translate(-88.277 -91.534)" fill="#e1e1e1"/>
        <path id="Trazado_714802" data-name="Trazado 714802" d="M227.667,213.469a.5.5,0,0,1-.033-.106l-.08-.316-.29-1.223-1.034-4.522c-.861-3.841-2.05-9.151-3.378-15.078l.092.074h-2.636l.092-.115c1.336,5.932,2.533,11.246,3.4,15.091.422,1.91.762,3.455,1,4.534l.262,1.231.063.32a.528.528,0,0,1,.016.111.515.515,0,0,1-.033-.106c-.021-.081-.048-.185-.081-.316-.071-.291-.169-.7-.3-1.223l-1.058-4.521c-.88-3.841-2.1-9.151-3.455-15.078l-.027-.115h2.83l.016.074c1.305,5.932,2.474,11.246,3.321,15.091.411,1.91.744,3.455.976,4.534l.256,1.231c.025.133.046.238.062.32a.494.494,0,0,1,.015.111" transform="translate(-88.47 -77.187)" fill="#e1e1e1"/>
        <path id="Trazado_714803" data-name="Trazado 714803" d="M153.9,245.785c0,.052-34.455.095-76.948.095S0,245.837,0,245.785s34.448-.095,76.956-.095,76.948.042,76.948.095" transform="translate(0 -98.715)" fill="#1a2e35"/>
        <path id="Trazado_714804" data-name="Trazado 714804" d="M224.452,80.173a1.429,1.429,0,0,0-.257-.079,1.8,1.8,0,0,0-.787.011,2.848,2.848,0,0,0-1.144.587,6.085,6.085,0,0,0-1.161,1.353,24.306,24.306,0,0,0-2.011,4.551,66.71,66.71,0,0,0-2.047,6.4l0,.008,0,0a1.884,1.884,0,0,1-.423.524.835.835,0,0,1-.66.211,1.223,1.223,0,0,1-.608-.351c-.169-.157-.328-.324-.489-.493a11.136,11.136,0,0,0-1.006-.981,1.855,1.855,0,0,0-1.272-.52,1.718,1.718,0,0,0-1.166.777,2.919,2.919,0,0,0-.4,1.441,14.485,14.485,0,0,0,.42,3.172l.621,3.334.321,1.725q.081.435.163.876a1.138,1.138,0,0,1-.1.929.458.458,0,0,1-.485.165,1.216,1.216,0,0,1-.429-.224l-.736-.552a16.525,16.525,0,0,0-1.538-1.035,5.833,5.833,0,0,0-1.72-.716,2.02,2.02,0,0,0-.915.006,1.354,1.354,0,0,0-.746.5,3.076,3.076,0,0,0-.489,1.813,10.173,10.173,0,0,0,.19,1.967,25.122,25.122,0,0,0,1.106,3.912,5.168,5.168,0,0,1,.317,1.009.733.733,0,0,1-.134.559.654.654,0,0,1-.105.106.351.351,0,0,1-.141.083.435.435,0,0,1-.316-.069,5.412,5.412,0,0,1-.839-.668l-.778-.721a11.534,11.534,0,0,0-1.65-1.329,3.467,3.467,0,0,0-.952-.434,1.182,1.182,0,0,0-.97.12,1.407,1.407,0,0,0-.549.841,4.266,4.266,0,0,0-.129,1.062,8.945,8.945,0,0,0,.273,2.167,18.811,18.811,0,0,0,1.576,4.171,31.6,31.6,0,0,0,2.349,3.9,22.393,22.393,0,0,0,1.414,1.825l1.473,1.805.017.02-.087-.033,2.307-.336a21.252,21.252,0,0,0,2.276-.392,31.615,31.615,0,0,0,4.365-1.309,18.871,18.871,0,0,0,3.973-2.028,8.959,8.959,0,0,0,1.661-1.421,4.28,4.28,0,0,0,.619-.873,1.412,1.412,0,0,0,.16-.992,1.181,1.181,0,0,0-.637-.742,3.447,3.447,0,0,0-1-.319,11.478,11.478,0,0,0-2.116-.126l-1.061.011a5.467,5.467,0,0,1-1.071-.07.434.434,0,0,1-.281-.162.354.354,0,0,1-.048-.157.685.685,0,0,1-.007-.149.736.736,0,0,1,.278-.5,5.2,5.2,0,0,1,.913-.534,25.1,25.1,0,0,0,3.45-2.152,10.2,10.2,0,0,0,1.463-1.329,3.071,3.071,0,0,0,.856-1.671,1.356,1.356,0,0,0-.217-.872,2.026,2.026,0,0,0-.675-.619,5.879,5.879,0,0,0-1.755-.626,16.627,16.627,0,0,0-1.834-.267l-.916-.087a1.222,1.222,0,0,1-.468-.124.457.457,0,0,1-.244-.45,1.145,1.145,0,0,1,.55-.756l.71-.539,1.4-1.061,2.7-2.05a14.49,14.49,0,0,0,2.443-2.066,2.927,2.927,0,0,0,.671-1.337,1.72,1.72,0,0,0-.342-1.359,1.251,1.251,0,0,0-.594-.354,2.862,2.862,0,0,0-.7-.115,11.173,11.173,0,0,0-1.4.05c-.231.017-.461.034-.692.036a1.225,1.225,0,0,1-.686-.15.838.838,0,0,1-.346-.6,1.875,1.875,0,0,1,.039-.672l0-.005,0-.008a66.371,66.371,0,0,0,2.782-6.1,24.981,24.981,0,0,0,1.577-4.709,6.152,6.152,0,0,0,.072-1.779,2.874,2.874,0,0,0-.422-1.213,1.737,1.737,0,0,0-.562-.549,1.336,1.336,0,0,0-.242-.117.967.967,0,0,1,.249.1,1.708,1.708,0,0,1,.58.544,2.89,2.89,0,0,1,.442,1.225,6.13,6.13,0,0,1-.057,1.8,24.774,24.774,0,0,1-1.555,4.732A65.692,65.692,0,0,1,221.3,94.68l.005-.013a1.759,1.759,0,0,0-.034.626.717.717,0,0,0,.3.518,1.109,1.109,0,0,0,.619.127c.225,0,.453-.02.684-.038a11.44,11.44,0,0,1,1.42-.054,3.042,3.042,0,0,1,.729.118,1.381,1.381,0,0,1,.652.389,1.844,1.844,0,0,1,.378,1.468,3.053,3.053,0,0,1-.7,1.4,14.581,14.581,0,0,1-2.465,2.1l-2.695,2.054-1.394,1.062-.709.54a1.646,1.646,0,0,0-.322.284.727.727,0,0,0-.167.363.3.3,0,0,0,.165.3,1.077,1.077,0,0,0,.409.1l.913.086a16.613,16.613,0,0,1,1.853.267,6,6,0,0,1,1.807.643,2.188,2.188,0,0,1,.73.671,1.529,1.529,0,0,1,.245.975,3.227,3.227,0,0,1-.9,1.772,10.311,10.311,0,0,1-1.487,1.354,25.221,25.221,0,0,1-3.472,2.172,5.109,5.109,0,0,0-.878.51.56.56,0,0,0-.218.382.5.5,0,0,0,.005.112c0,.029.015.1.026.092a.311.311,0,0,0,.169.078,5.355,5.355,0,0,0,1.028.064l1.059-.012a11.684,11.684,0,0,1,2.15.128,3.621,3.621,0,0,1,1.051.338,1.366,1.366,0,0,1,.728.859,1.6,1.6,0,0,1-.173,1.118,4.467,4.467,0,0,1-.645.913A9.177,9.177,0,0,1,220.471,120a19.039,19.039,0,0,1-4.012,2.05,31.839,31.839,0,0,1-4.392,1.318,21.553,21.553,0,0,1-2.285.394l-2.31.336-.053.007-.034-.041-.017-.021-1.475-1.808a22.426,22.426,0,0,1-1.419-1.832,31.638,31.638,0,0,1-2.363-3.928,19.014,19.014,0,0,1-1.589-4.214,9.115,9.115,0,0,1-.277-2.212,4.416,4.416,0,0,1,.137-1.11,1.588,1.588,0,0,1,.624-.943,1.365,1.365,0,0,1,1.116-.145,3.642,3.642,0,0,1,1,.456,11.718,11.718,0,0,1,1.677,1.351l.776.721a5.376,5.376,0,0,0,.8.644.315.315,0,0,0,.178.056c0,.012.057-.032.08-.05a.448.448,0,0,0,.079-.079.556.556,0,0,0,.1-.429,5.136,5.136,0,0,0-.306-.968,25.213,25.213,0,0,1-1.11-3.941,10.354,10.354,0,0,1-.191-2,3.236,3.236,0,0,1,.527-1.914,1.524,1.524,0,0,1,.836-.559,2.191,2.191,0,0,1,.991-.007,6,6,0,0,1,1.77.738,16.715,16.715,0,0,1,1.551,1.048l.733.551a1.074,1.074,0,0,0,.373.2.294.294,0,0,0,.323-.106.723.723,0,0,0,.122-.38,1.628,1.628,0,0,0-.047-.427q-.081-.441-.162-.876l-.318-1.724-.614-3.333a14.639,14.639,0,0,1-.416-3.209A3.057,3.057,0,0,1,211.3,92.1a1.847,1.847,0,0,1,1.266-.833,1.378,1.378,0,0,1,.745.149,2.991,2.991,0,0,1,.619.4,11.271,11.271,0,0,1,1.015,1c.159.169.317.335.481.489a1.114,1.114,0,0,0,.544.322.717.717,0,0,0,.568-.184,1.758,1.758,0,0,0,.4-.486l0,.013a66.008,66.008,0,0,1,2.075-6.4,24.1,24.1,0,0,1,2.043-4.553,6.079,6.079,0,0,1,1.183-1.356,2.853,2.853,0,0,1,1.167-.582,1.762,1.762,0,0,1,.8,0,1,1,0,0,1,.254.095" transform="translate(-80.455 -32.156)" fill="#1a2e35"/>
        <path id="Trazado_714805" data-name="Trazado 714805" d="M225.947,88.521a.626.626,0,0,1-.036.118l-.125.341-.5,1.305c-.44,1.143-1.07,2.777-1.846,4.792l-6.028,15.836c-2.346,6.19-4.491,11.785-6.081,15.82-.794,2.018-1.444,3.648-1.9,4.771L208.9,132.8l-.142.334a.062.062,0,1,1-.018-.007l.125-.341.5-1.3,1.846-4.792,6.029-15.839c2.344-6.187,4.49-11.782,6.079-15.817.794-2.018,1.444-3.648,1.9-4.771l.531-1.292.142-.334a.6.6,0,0,1,.054-.111" transform="translate(-83.854 -35.567)" fill="#1a2e35"/>
        <path id="Trazado_714806" data-name="Trazado 714806" d="M233.595,109.455a6.341,6.341,0,0,1-.908.539l-2.222,1.237c-.869.483-1.661.913-2.244,1.205a4.846,4.846,0,0,1-.97.422,7.6,7.6,0,0,1,.906-.54l2.215-1.253c.869-.483,1.667-.9,2.253-1.19a5.454,5.454,0,0,1,.97-.421" transform="translate(-91.306 -43.977)" fill="#1a2e35"/>
        <path id="Trazado_714807" data-name="Trazado 714807" d="M224.282,109.782c-.047.023-.91-1.624-1.927-3.678s-1.8-3.739-1.758-3.763.91,1.624,1.927,3.678,1.8,3.739,1.758,3.762" transform="translate(-88.632 -41.12)" fill="#1a2e35"/>
        <path id="Trazado_714808" data-name="Trazado 714808" d="M218.268,127.172a5.6,5.6,0,0,1-.8-.727c-.47-.472-1.1-1.142-1.759-1.919s-1.216-1.51-1.6-2.053a5.507,5.507,0,0,1-.584-.907,6.9,6.9,0,0,1,.692.827c.412.521.983,1.239,1.639,2.012s1.267,1.455,1.711,1.949a6.8,6.8,0,0,1,.7.819" transform="translate(-85.791 -48.843)" fill="#1a2e35"/>
        <path id="Trazado_714809" data-name="Trazado 714809" d="M228.1,128.327a5.2,5.2,0,0,1-.957.281c-.6.15-1.423.343-2.339.546s-1.747.376-2.351.492a5.289,5.289,0,0,1-.985.15,5.155,5.155,0,0,1,.957-.281c.6-.15,1.423-.343,2.339-.546s1.747-.376,2.35-.492a5.2,5.2,0,0,1,.986-.15" transform="translate(-88.982 -51.558)" fill="#1a2e35"/>
        <path id="Trazado_714810" data-name="Trazado 714810" d="M223.961,143.188a8.54,8.54,0,0,1-1.234.329c-.767.18-1.829.415-3.005.664s-2.243.463-3.017.61a8.5,8.5,0,0,1-1.262.2,8.631,8.631,0,0,1,1.234-.329c.767-.179,1.829-.415,3.005-.663s2.243-.464,3.018-.61a8.449,8.449,0,0,1,1.261-.2" transform="translate(-86.562 -57.529)" fill="#1a2e35"/>
        <path id="Trazado_714811" data-name="Trazado 714811" d="M211.85,141.146a1.363,1.363,0,0,1-.273-.248c-.167-.168-.4-.416-.687-.727-.569-.624-1.337-1.5-2.142-2.511s-1.5-1.947-1.982-2.64c-.242-.346-.432-.63-.559-.829a1.366,1.366,0,0,1-.182-.321,1.405,1.405,0,0,1,.242.278l.608.793c.51.672,1.217,1.6,2.021,2.6s1.552,1.9,2.094,2.542a10.791,10.791,0,0,1,.859,1.063" transform="translate(-82.778 -53.787)" fill="#1a2e35"/>
        <path id="Trazado_714812" data-name="Trazado 714812" d="M205.219,157.08c-6.3-5.078-7.214-13.765-6.423-21.462a8.393,8.393,0,0,1,.773-3.741,2.629,2.629,0,0,1,3.288-1.14c.926.516,1.266,1.657,1.738,2.614a7.543,7.543,0,0,0,2.822,3.092,2.877,2.877,0,0,0,2.628.421c1.153-.537,1.389-2.063,1.469-3.345q.223-3.582.446-7.165a11.98,11.98,0,0,1,.648-3.778,3.981,3.981,0,0,1,2.681-2.515,2.416,2.416,0,0,1,2.872,1.82,11.743,11.743,0,0,1-.073,1.6,1.35,1.35,0,0,0,.7,1.322,1.553,1.553,0,0,0,1.447-.491,17.081,17.081,0,0,0,3.374-4.406,23.7,23.7,0,0,1,3.179-4.569,6.943,6.943,0,0,1,4.874-2.31,4.157,4.157,0,0,1,4.058,3.121c.341,1.838-.838,3.6-2.085,4.981a28.665,28.665,0,0,1-6.343,5.267,2.357,2.357,0,0,0-1.069,1c-.337.835.414,1.738,1.238,2.077a14.86,14.86,0,0,0,2.967.542,2.887,2.887,0,0,1,2.356,1.671c.435,1.345-.754,2.642-1.893,3.467a24.559,24.559,0,0,1-7.536,3.687,8.3,8.3,0,0,0-2.783,1.125,2.378,2.378,0,0,0-.946,2.663,2.42,2.42,0,0,0,2.556,1.189,17.145,17.145,0,0,0,2.885-.881c1.806-.544,4.071-.266,5.094,1.332a4.065,4.065,0,0,1,.185,3.614,9.371,9.371,0,0,1-2.159,3.032,24.688,24.688,0,0,1-11.024,6.669c-4.18,1.135-7.99,1.259-11.947-.5" transform="translate(-79.777 -45.412)" fill="#00bcd4"/>
        <g id="Grupo_1007326" data-name="Grupo 1007326" transform="translate(118.778 67.612)" opacity="0.1">
          <g id="Grupo_1007325" data-name="Grupo 1007325">
            <g id="Grupo_1007324" data-name="Grupo 1007324" clip-path="url(#clip-path-3)">
              <path id="Trazado_714813" data-name="Trazado 714813" d="M205.219,157.08c-6.3-5.078-7.214-13.765-6.423-21.462a8.393,8.393,0,0,1,.773-3.741,2.629,2.629,0,0,1,3.288-1.14c.926.516,1.266,1.657,1.738,2.614a7.543,7.543,0,0,0,2.822,3.092,2.877,2.877,0,0,0,2.628.421c1.153-.537,1.389-2.063,1.469-3.345q.223-3.582.446-7.165a11.98,11.98,0,0,1,.648-3.778,3.981,3.981,0,0,1,2.681-2.515,2.416,2.416,0,0,1,2.872,1.82,11.743,11.743,0,0,1-.073,1.6,1.35,1.35,0,0,0,.7,1.322,1.553,1.553,0,0,0,1.447-.491,17.081,17.081,0,0,0,3.374-4.406,23.7,23.7,0,0,1,3.179-4.569,6.943,6.943,0,0,1,4.874-2.31,4.157,4.157,0,0,1,4.058,3.121c.341,1.838-.838,3.6-2.085,4.981a28.665,28.665,0,0,1-6.343,5.267,2.357,2.357,0,0,0-1.069,1c-.337.835.414,1.738,1.238,2.077a14.86,14.86,0,0,0,2.967.542,2.887,2.887,0,0,1,2.356,1.671c.435,1.345-.754,2.642-1.893,3.467a24.559,24.559,0,0,1-7.536,3.687,8.3,8.3,0,0,0-2.783,1.125,2.378,2.378,0,0,0-.946,2.663,2.42,2.42,0,0,0,2.556,1.189,17.145,17.145,0,0,0,2.885-.881c1.806-.544,4.071-.266,5.094,1.332a4.065,4.065,0,0,1,.185,3.614,9.371,9.371,0,0,1-2.159,3.032,24.688,24.688,0,0,1-11.024,6.669c-4.18,1.135-7.99,1.259-11.947-.5" transform="translate(-198.554 -113.024)"/>
            </g>
          </g>
        </g>
        <path id="Trazado_714814" data-name="Trazado 714814" d="M208.87,163.624a56.375,56.375,0,0,1,2.817-10.413,115.055,115.055,0,0,1,5.4-12.045l1.579-3.084c.52-1.011,1.037-2.014,1.6-2.964a57.438,57.438,0,0,1,3.562-5.271c1.214-1.622,2.425-3.116,3.567-4.506s2.239-2.66,3.284-3.778a45.532,45.532,0,0,1,5.32-4.9c.671-.528,1.2-.92,1.57-1.181l.418-.294a.891.891,0,0,1,.147-.093.953.953,0,0,1-.132.113l-.4.313c-.356.273-.881.677-1.542,1.215a48.2,48.2,0,0,0-5.255,4.945c-1.035,1.122-2.117,2.4-3.255,3.789s-2.339,2.891-3.545,4.512a58.112,58.112,0,0,0-3.536,5.258c-.561.945-1.071,1.939-1.592,2.953s-1.044,2.042-1.577,3.083a117.97,117.97,0,0,0-5.41,12.013,57.365,57.365,0,0,0-2.856,10.364" transform="translate(-83.921 -46.243)" fill="#1a2e35"/>
        <path id="Trazado_714815" data-name="Trazado 714815" d="M227.432,139.01a2.612,2.612,0,0,1-.087-.555c-.043-.358-.089-.879-.135-1.523-.093-1.288-.162-3.071-.23-5.036s-.162-3.744-.275-5.027c-.055-.641-.1-1.161-.144-1.518a2.569,2.569,0,0,1-.033-.561,2.56,2.56,0,0,1,.124.548c.067.355.142.872.218,1.514.156,1.283.277,3.066.345,5.035.062,1.94.118,3.7.162,5.036.023.605.043,1.116.059,1.525a2.548,2.548,0,0,1,0,.562" transform="translate(-91.013 -50.139)" fill="#1a2e35"/>
        <path id="Trazado_714816" data-name="Trazado 714816" d="M244.722,145.246a3.581,3.581,0,0,1-.662.034c-.425.009-1.04.018-1.8.054-1.519.059-3.616.215-5.921.488s-4.381.616-5.875.905c-.748.139-1.351.268-1.768.355a3.5,3.5,0,0,1-.654.113,3.587,3.587,0,0,1,.632-.2c.412-.114,1.01-.269,1.757-.43,1.49-.332,3.568-.7,5.88-.977a58.4,58.4,0,0,1,5.944-.419c.763-.014,1.379,0,1.806.023a3.522,3.522,0,0,1,.66.059" transform="translate(-91.624 -58.323)" fill="#1a2e35"/>
        <path id="Trazado_714817" data-name="Trazado 714817" d="M209.351,163.821a.851.851,0,0,1-.1-.209l-.24-.615c-.207-.535-.486-1.317-.818-2.288-.665-1.941-1.5-4.652-2.38-7.655s-1.689-5.719-2.313-7.671c-.306-.949-.558-1.73-.745-2.31l-.2-.63a.854.854,0,0,1-.054-.225.839.839,0,0,1,.1.209l.241.615c.206.535.485,1.317.817,2.288.665,1.941,1.5,4.652,2.38,7.656s1.689,5.717,2.312,7.67l.745,2.31.2.631a.854.854,0,0,1,.054.225" transform="translate(-81.362 -57.142)" fill="#1a2e35"/>
        <path id="Trazado_714818" data-name="Trazado 714818" d="M236.32,169.047a.894.894,0,0,1-.223.075l-.651.169-2.4.6c-2.023.506-4.808,1.237-7.885,2.048s-5.873,1.518-7.907,1.982c-1.016.233-1.841.412-2.414.525l-.66.126a.118.118,0,1,1-.01-.047l.65-.169,2.4-.6c2.023-.505,4.808-1.237,7.886-2.049s5.871-1.518,7.9-1.982c1.017-.233,1.842-.412,2.414-.525l.66-.126a.865.865,0,0,1,.234-.028" transform="translate(-85.963 -67.92)" fill="#1a2e35"/>
        <rect id="Rectángulo_348714" data-name="Rectángulo 348714" width="88.007" height="120.594" transform="translate(38.901 11.489)" fill="#375a64"/>
        <path id="Trazado_714819" data-name="Trazado 714819" d="M154.479,135.9h-77.2V27.353h77.2V135.9Z" transform="translate(-31.05 -10.99)" fill="#e1e1e1"/>
        <path id="Trazado_714820" data-name="Trazado 714820" d="M152.907,132.923H76.4V24.954h76.5V132.923Z" transform="translate(-30.698 -10.026)" fill="#ececec"/>
        <path id="Trazado_714821" data-name="Trazado 714821" d="M143.727,124.7l-8.812,7.175h-60.9V25.411h77.2v93.223Z" transform="translate(-29.738 -10.21)" fill="#fafafa"/>
        <path id="Trazado_714822" data-name="Trazado 714822" d="M143.664,124.641s.156-.133.471-.391l1.411-1.155,5.587-4.548-.011.023c-.009-15.314-.029-49.339-.055-93.223l.085.086-76.526.009h-.674l.095-.095c-.007,40.026-.013,76.952-.019,106.468l-.076-.075,60.9.043-.02.007,6.617-5.368,1.658-1.34c.369-.3.556-.442.556-.442s-.18.154-.546.455l-1.647,1.353-6.6,5.392-.009.007h-.011l-60.9.044h-.075v-.076c-.005-29.516-.012-66.442-.019-106.468v-.095h.769l76.526.009h.086v.086c-.026,43.884-.046,77.909-.055,93.223v.014l-.011.009-5.605,4.525-1.421,1.143c-.318.254-.48.379-.48.379" transform="translate(-29.675 -10.146)" fill="#1a2e35"/>
        <path id="Trazado_714823" data-name="Trazado 714823" d="M143.774,23.8h-31.6V18.329a5.355,5.355,0,0,1,5.355-5.355h21.1a5.136,5.136,0,0,1,5.137,5.136Z" transform="translate(-45.072 -5.213)" fill="#00bcd4"/>
        <path id="Trazado_714824" data-name="Trazado 714824" d="M124.339,9.049l-1.155-5.843h18.192l-1.011,5.843Z" transform="translate(-49.494 -1.288)" fill="#00bcd4"/>
        <path id="Trazado_714825" data-name="Trazado 714825" d="M100.519,66.773H87.513V53.767h13.006ZM87.876,66.41h12.28V54.13H87.876Z" transform="translate(-35.162 -21.603)" fill="#00bcd4"/>
        <path id="Trazado_714826" data-name="Trazado 714826" d="M158.922,58.953c0,.052-9.053.095-20.218.095s-20.22-.042-20.22-.095,9.052-.095,20.22-.095,20.218.042,20.218.095" transform="translate(-47.605 -23.648)" fill="#1a2e35"/>
        <path id="Trazado_714827" data-name="Trazado 714827" d="M158.922,63.471c0,.052-9.053.095-20.218.095s-20.22-.042-20.22-.095,9.052-.095,20.22-.095,20.218.042,20.218.095" transform="translate(-47.605 -25.464)" fill="#1a2e35"/>
        <path id="Trazado_714828" data-name="Trazado 714828" d="M158.922,67.989c0,.052-9.053.095-20.218.095s-20.22-.042-20.22-.095,9.052-.095,20.22-.095,20.218.042,20.218.095" transform="translate(-47.605 -27.279)" fill="#1a2e35"/>
        <path id="Trazado_714829" data-name="Trazado 714829" d="M158.922,72.507c0,.052-9.053.095-20.218.095s-20.22-.042-20.22-.095,9.052-.095,20.22-.095,20.218.042,20.218.095" transform="translate(-47.605 -29.094)" fill="#1a2e35"/>
        <path id="Trazado_714830" data-name="Trazado 714830" d="M100.519,100.279H87.513V87.273h13.006Zm-12.643-.363h12.28V87.636H87.876Z" transform="translate(-35.162 -35.065)" fill="#00bcd4"/>
        <path id="Trazado_714831" data-name="Trazado 714831" d="M91.837,94.6l1.726-1.854,2.878,2.3,6.586-6.395,1.578,1.86-8.292,8.18Z" transform="translate(-36.899 -35.618)" fill="#00bcd4"/>
        <path id="Trazado_714832" data-name="Trazado 714832" d="M158.922,92.46c0,.053-9.053.1-20.218.1s-20.22-.042-20.22-.1,9.052-.094,20.22-.094,20.218.042,20.218.094" transform="translate(-47.605 -37.111)" fill="#1a2e35"/>
        <path id="Trazado_714833" data-name="Trazado 714833" d="M158.922,96.978c0,.052-9.053.095-20.218.095s-20.22-.042-20.22-.095,9.052-.095,20.22-.095,20.218.042,20.218.095" transform="translate(-47.605 -38.926)" fill="#1a2e35"/>
        <path id="Trazado_714834" data-name="Trazado 714834" d="M158.922,101.5c0,.052-9.053.095-20.218.095s-20.22-.042-20.22-.095,9.052-.095,20.22-.095,20.218.042,20.218.095" transform="translate(-47.605 -40.742)" fill="#1a2e35"/>
        <path id="Trazado_714835" data-name="Trazado 714835" d="M158.922,106.014c0,.052-9.053.095-20.218.095s-20.22-.042-20.22-.095,9.052-.095,20.22-.095,20.218.042,20.218.095" transform="translate(-47.605 -42.557)" fill="#1a2e35"/>
        <path id="Trazado_714836" data-name="Trazado 714836" d="M100.519,132.7H87.513V119.7h13.006Zm-12.643-.363h12.28V120.06H87.876Z" transform="translate(-35.162 -48.093)" fill="#00bcd4"/>
        <path id="Trazado_714837" data-name="Trazado 714837" d="M91.837,127.021l1.726-1.854,2.878,2.3,6.586-6.395,1.578,1.86-8.292,8.18Z" transform="translate(-36.899 -48.646)" fill="#00bcd4"/>
        <path id="Trazado_714838" data-name="Trazado 714838" d="M158.922,124.885c0,.052-9.053.095-20.218.095s-20.22-.042-20.22-.095,9.052-.095,20.22-.095,20.218.042,20.218.095" transform="translate(-47.605 -50.139)" fill="#1a2e35"/>
        <path id="Trazado_714839" data-name="Trazado 714839" d="M158.922,129.4c0,.052-9.053.095-20.218.095s-20.22-.042-20.22-.095,9.052-.095,20.22-.095,20.218.042,20.218.095" transform="translate(-47.605 -51.954)" fill="#1a2e35"/>
        <path id="Trazado_714840" data-name="Trazado 714840" d="M158.922,133.92c0,.052-9.053.095-20.218.095s-20.22-.042-20.22-.095,9.052-.095,20.22-.095,20.218.042,20.218.095" transform="translate(-47.605 -53.769)" fill="#1a2e35"/>
        <path id="Trazado_714841" data-name="Trazado 714841" d="M158.922,138.438c0,.052-9.053.095-20.218.095s-20.22-.042-20.22-.095,9.052-.095,20.22-.095,20.218.042,20.218.095" transform="translate(-47.605 -55.584)" fill="#1a2e35"/>
        <path id="Trazado_714842" data-name="Trazado 714842" d="M100.519,164.01H87.513V151h13.006Zm-12.643-.363h12.28v-12.28H87.876Z" transform="translate(-35.162 -60.671)" fill="#00bcd4"/>
        <path id="Trazado_714843" data-name="Trazado 714843" d="M91.837,158.327l1.726-1.854,2.878,2.3,6.586-6.395,1.578,1.86-8.292,8.18Z" transform="translate(-36.899 -61.224)" fill="#00bcd4"/>
        <path id="Trazado_714844" data-name="Trazado 714844" d="M158.922,156.191c0,.052-9.053.095-20.218.095s-20.22-.042-20.22-.095,9.052-.095,20.22-.095,20.218.042,20.218.095" transform="translate(-47.605 -62.717)" fill="#1a2e35"/>
        <path id="Trazado_714845" data-name="Trazado 714845" d="M158.922,160.709c0,.052-9.053.095-20.218.095s-20.22-.042-20.22-.095,9.052-.095,20.22-.095,20.218.042,20.218.095" transform="translate(-47.605 -64.533)" fill="#1a2e35"/>
        <path id="Trazado_714846" data-name="Trazado 714846" d="M158.922,165.227c0,.052-9.053.095-20.218.095s-20.22-.042-20.22-.095,9.052-.094,20.22-.094,20.218.042,20.218.094" transform="translate(-47.605 -66.348)" fill="#1a2e35"/>
        <path id="Trazado_714847" data-name="Trazado 714847" d="M158.922,169.744c0,.053-9.053.094-20.218.094s-20.22-.042-20.22-.094,9.052-.095,20.22-.095,20.218.042,20.218.095" transform="translate(-47.605 -68.163)" fill="#1a2e35"/>
        <path id="Trazado_714848" data-name="Trazado 714848" d="M174.181,173.922l-8.464,17.529h6.043Z" transform="translate(-66.583 -69.879)" fill="#e1e1e1"/>
        <path id="Trazado_714849" data-name="Trazado 714849" d="M175.819,191.615l2.421-17.529,13.879,4.284Z" transform="translate(-70.642 -69.946)" fill="#fafafa"/>
        <path id="Trazado_714850" data-name="Trazado 714850" d="M175.819,191.537l4.667-3.842,11.574-9.475.031.16-5.358-1.652-8.52-2.635.114-.073c-.725,5.091-1.347,9.453-1.789,12.553-.437,3.014-.663,4.57-.72,4.963a.665.665,0,0,1,.008-.078c.008-.063.018-.142.031-.242.03-.227.072-.546.125-.955l.477-3.613c.418-3.125,1.006-7.521,1.692-12.653l.014-.1.1.031,8.523,2.624,5.357,1.656.166.051-.135.108-11.715,9.449-3.421,2.749-.912.732-.234.186c-.052.041-.078.06-.077.058" transform="translate(-70.642 -69.868)" fill="#1a2e35"/>
        <g id="Grupo_1007329" data-name="Grupo 1007329" transform="translate(89.622 1.918)" opacity="0.3">
          <g id="Grupo_1007328" data-name="Grupo 1007328">
            <g id="Grupo_1007327" data-name="Grupo 1007327" clip-path="url(#clip-path-4)">
              <path id="Trazado_714851" data-name="Trazado 714851" d="M150.82,3.206l-1,5.843h1.249l1.011-5.843h-1.591" transform="translate(-149.817 -3.207)"/>
            </g>
          </g>
        </g>
        <path id="Trazado_714852" data-name="Trazado 714852" d="M60.569,93.167h0a3.264,3.264,0,0,0,3.512-3.13c.069-1.777.128-3.574.128-3.574A3.207,3.207,0,0,0,67.1,83.546c.2-2.665.106-8.817.106-8.817a9.286,9.286,0,0,0-9.385.6l.166,9.379v5.046c.017,1.693.9,3.28,2.585,3.41" transform="translate(-23.231 -29.626)" fill="#ffc09d"/>
        <path id="Trazado_714853" data-name="Trazado 714853" d="M63.511,78.792a1.366,1.366,0,0,0-1.821-.4,1.55,1.55,0,0,0-.516,1.937,2.041,2.041,0,0,0,1.308.988,1.024,1.024,0,0,1,.8,1.1,3.408,3.408,0,0,1-.936,1.856,4.917,4.917,0,0,1-3.084,1.461,3.271,3.271,0,0,1-3.1-1.036,4.222,4.222,0,0,1-.532-2.4l-.122-5.895a8.421,8.421,0,0,1,.134-2.115,2.841,2.841,0,0,1,1.116-1.749,8.707,8.707,0,0,1,2.208-.7,18.312,18.312,0,0,0,2.571-1.353,3.157,3.157,0,0,1,2.789-.27c.622.312,1.04.933,1.644,1.277.862.491,2.035.379,2.453,1.646a2.153,2.153,0,0,1-.014,1.356,3.132,3.132,0,0,1-4.257,1.674,4.225,4.225,0,0,1-.05,1.865c-.1.294-.133.744-.594.753" transform="translate(-22.301 -28.125)" fill="#1a2e35"/>
        <path id="Trazado_714854" data-name="Trazado 714854" d="M53.556,71.572a9.063,9.063,0,0,0,.856-2.677,3.07,3.07,0,0,0-.84-2.587,2.524,2.524,0,0,0-1.756-.622,2.97,2.97,0,0,0-2.679,2.122,3.2,3.2,0,0,0,1.077,3.278,3.469,3.469,0,0,0,3.453.45" transform="translate(-19.699 -26.391)" fill="#1a2e35"/>
        <path id="Trazado_714855" data-name="Trazado 714855" d="M56.623,73.9a1.312,1.312,0,0,1-1.263,1.234c-.013-.054.39-.161.738-.508s.471-.739.525-.726" transform="translate(-22.243 -29.692)" fill="#00bcd4"/>
        <path id="Trazado_714856" data-name="Trazado 714856" d="M53.967,73.362a2.524,2.524,0,0,1-.724.529,2.09,2.09,0,0,1-.954.27,1.329,1.329,0,0,1-1.113-.5,1.484,1.484,0,0,1-.2-1.2,2.34,2.34,0,0,1,.448-.882,2.767,2.767,0,0,1,.631-.636,8.277,8.277,0,0,1-.522.714,2.4,2.4,0,0,0-.386.842,1.345,1.345,0,0,0,.179,1.055,1.179,1.179,0,0,0,.96.437,2.092,2.092,0,0,0,.895-.215c.485-.235.765-.438.783-.41" transform="translate(-20.464 -28.502)" fill="#1a2e35"/>
        <path id="Trazado_714857" data-name="Trazado 714857" d="M48.431,78.21a1.135,1.135,0,0,1,.13.3,3.052,3.052,0,0,0,.392.759,1.1,1.1,0,0,0,1.044.48,1.431,1.431,0,0,0,1-1.011,10.363,10.363,0,0,0,.272-1.548,2.4,2.4,0,0,1,.509-1.221,1.314,1.314,0,0,1,.776-.443.513.513,0,0,1,.327.028c0,.018-.118-.005-.313.044a1.32,1.32,0,0,0-.688.457,2.354,2.354,0,0,0-.438,1.162,9.229,9.229,0,0,1-.266,1.581,1.587,1.587,0,0,1-1.153,1.122,1.065,1.065,0,0,1-.723-.14,1.508,1.508,0,0,1-.459-.432,2.621,2.621,0,0,1-.355-.816,1.009,1.009,0,0,1-.06-.318" transform="translate(-19.457 -30.34)" fill="#1a2e35"/>
        <path id="Trazado_714858" data-name="Trazado 714858" d="M45.838,117.447s-1.359,9.951,0,11.212a2.84,2.84,0,0,0,2.666.843l2.587-2.163.509-9.892Z" transform="translate(-18.175 -47.189)" fill="#ffc09d"/>
        <path id="Trazado_714859" data-name="Trazado 714859" d="M93.232,66.757,94.958,64.9l2.878,2.3,6.586-6.395L106,62.669l-8.292,8.18Z" transform="translate(-37.459 -24.432)" fill="#00bcd4"/>
        <path id="Trazado_714860" data-name="Trazado 714860" d="M96.909,71.595,94.4,73.2c-.112-.989-.868-1.971-.83-1.473s0,3.077,0,3.077l-4.466,9.4a4.45,4.45,0,0,1-2.755,2.645l-4.169,1.24L83.82,93.6l5.794-1.921a5,5,0,0,0,3.175-3.184l3.993-12.166a18.925,18.925,0,0,0,.645-2.4,4.565,4.565,0,0,0-.518-2.334" transform="translate(-33.023 -28.766)" fill="#ffc09d"/>
        <path id="Trazado_714861" data-name="Trazado 714861" d="M68.95,241.51l-.062-2.786-5.22.084.048,4.077.324.016c1.442.057,7.334.188,8.292-.12,1.068-.343-3.382-1.271-3.382-1.271" transform="translate(-25.581 -95.916)" fill="#00bcd4"/>
        <g id="Grupo_1007332" data-name="Grupo 1007332" transform="translate(38.117 145.427)" opacity="0.5">
          <g id="Grupo_1007331" data-name="Grupo 1007331">
            <g id="Grupo_1007330" data-name="Grupo 1007330" clip-path="url(#clip-path-5)">
              <path id="Trazado_714862" data-name="Trazado 714862" d="M65.628,244.573a1.812,1.812,0,0,0-.684-1.1,1.761,1.761,0,0,0-1.226-.36l.022,1.458Z" transform="translate(-63.718 -243.103)" fill="#fff"/>
            </g>
          </g>
        </g>
        <g id="Grupo_1007335" data-name="Grupo 1007335" transform="translate(38.135 146.125)" opacity="0.4">
          <g id="Grupo_1007334" data-name="Grupo 1007334">
            <g id="Grupo_1007333" data-name="Grupo 1007333" clip-path="url(#clip-path-6)">
              <path id="Trazado_714863" data-name="Trazado 714863" d="M71.159,244.269s1.561.424,1.372.683-6.15.351-8.782.161l.007-.117,6.952-.047s.147-.662.451-.68" transform="translate(-63.749 -244.269)" fill="#fff"/>
            </g>
          </g>
        </g>
        <path id="Trazado_714864" data-name="Trazado 714864" d="M63.623,245.393a.485.485,0,0,0,.09.008l.258.011.949.026c.8.017,1.91.025,3.133.007s2.331-.059,3.132-.1l.948-.054.257-.019a.465.465,0,0,0,.09-.011.546.546,0,0,0-.09,0l-.258.007-.949.033c-.8.029-1.908.062-3.132.08s-2.33.017-3.132.011l-.949-.006h-.258a.461.461,0,0,0-.09,0" transform="translate(-25.563 -98.543)" fill="#1a2e35"/>
        <path id="Trazado_714865" data-name="Trazado 714865" d="M75.375,244.986a2.113,2.113,0,0,1,.17-.456,2.141,2.141,0,0,1,.318-.368.845.845,0,0,0-.488.824" transform="translate(-30.281 -98.101)" fill="#1a2e35"/>
        <path id="Trazado_714866" data-name="Trazado 714866" d="M72.785,243.978c.015.009.087-.081.162-.2s.123-.227.108-.236-.087.081-.162.2-.123.227-.108.236" transform="translate(-29.243 -97.851)" fill="#1a2e35"/>
        <path id="Trazado_714867" data-name="Trazado 714867" d="M72.074,243.71c.012.013.093-.044.182-.126s.151-.159.139-.172-.093.044-.182.126-.151.16-.139.172" transform="translate(-28.958 -97.799)" fill="#1a2e35"/>
        <path id="Trazado_714868" data-name="Trazado 714868" d="M71.615,243.072a1.19,1.19,0,1,0,.273-.033.617.617,0,0,0-.273.033" transform="translate(-28.774 -97.65)" fill="#1a2e35"/>
        <path id="Trazado_714869" data-name="Trazado 714869" d="M71.453,242.512a.767.767,0,0,0,.619.037,1.68,1.68,0,0,0-.309-.017,1.737,1.737,0,0,0-.309-.02" transform="translate(-28.709 -97.436)" fill="#1a2e35"/>
        <path id="Trazado_714870" data-name="Trazado 714870" d="M73.071,243.186a.964.964,0,0,0,.336-.007,2.018,2.018,0,0,0,.356-.084.983.983,0,0,0,.2-.087.181.181,0,0,0,.081-.105.132.132,0,0,0-.053-.133.615.615,0,0,0-.758.191.6.6,0,0,0-.106.226c-.013.057-.011.09-.007.091a.926.926,0,0,1,.148-.288.6.6,0,0,1,.284-.191.52.52,0,0,1,.4.021c.054.039.034.1-.025.138a1,1,0,0,1-.188.083,2.286,2.286,0,0,1-.344.1c-.2.039-.328.041-.328.051" transform="translate(-29.359 -97.516)" fill="#1a2e35"/>
        <path id="Trazado_714871" data-name="Trazado 714871" d="M72.918,243.1a.33.33,0,0,0,.035-.233.557.557,0,0,0-.1-.244.337.337,0,0,0-.282-.166.133.133,0,0,0-.1.156.368.368,0,0,0,.059.149,1.047,1.047,0,0,0,.162.2.491.491,0,0,0,.194.133c.005-.008-.068-.059-.162-.164a1.209,1.209,0,0,1-.144-.2c-.047-.071-.08-.2,0-.214s.17.072.223.139a.55.55,0,0,1,.1.217,1.267,1.267,0,0,1,.009.226" transform="translate(-29.118 -97.416)" fill="#1a2e35"/>
        <path id="Trazado_714872" data-name="Trazado 714872" d="M63.764,243.064c0,.012.15-.017.386.008a1.636,1.636,0,0,1,1.384,1.068c.083.223.093.373.1.371a.289.289,0,0,0,0-.105,1.376,1.376,0,0,0-.061-.281,1.587,1.587,0,0,0-1.423-1.1,1.38,1.38,0,0,0-.287.012.313.313,0,0,0-.1.025" transform="translate(-25.62 -97.644)" fill="#1a2e35"/>
        <path id="Trazado_714873" data-name="Trazado 714873" d="M64.594,239.446a18.168,18.168,0,0,0,.006,2.146,9.277,9.277,0,0,0,.029-1.073,9.184,9.184,0,0,0-.035-1.073" transform="translate(-25.941 -96.206)" fill="#1a2e35"/>
        <path id="Trazado_714874" data-name="Trazado 714874" d="M68,244.683a4.282,4.282,0,0,0,1.525-.009c0-.019-.342.008-.763.01s-.761-.019-.763,0" transform="translate(-27.32 -98.304)" fill="#1a2e35"/>
        <path id="Trazado_714875" data-name="Trazado 714875" d="M66.284,244.715c-.013.013.029.072.065.15s.056.147.074.145.026-.083-.017-.172-.111-.135-.122-.123" transform="translate(-26.631 -98.322)" fill="#1a2e35"/>
        <path id="Trazado_714876" data-name="Trazado 714876" d="M65.627,243.922c-.013.013.022.066.077.12s.109.087.121.075-.022-.066-.077-.12-.109-.087-.121-.075" transform="translate(-26.367 -98.004)" fill="#1a2e35"/>
        <path id="Trazado_714877" data-name="Trazado 714877" d="M64.7,243.551c0,.018.073.016.15.042s.133.066.147.054-.031-.084-.127-.114-.175,0-.17.019" transform="translate(-25.996 -97.843)" fill="#1a2e35"/>
        <path id="Trazado_714878" data-name="Trazado 714878" d="M64.041,243.4c-.006.016.025.042.068.059s.084.016.09,0-.025-.043-.068-.059-.084-.016-.09,0" transform="translate(-25.731 -97.79)" fill="#1a2e35"/>
        <path id="Trazado_714879" data-name="Trazado 714879" d="M38.44,238.2l1.77-2.153L36.2,232.708l-2.623,3.122.235.223c1.056.983,5.437,4.926,6.364,5.318,1.034.437-1.735-3.169-1.735-3.169" transform="translate(-13.49 -93.499)" fill="#00bcd4"/>
        <g id="Grupo_1007338" data-name="Grupo 1007338" transform="translate(20.137 141.157)" opacity="0.5">
          <g id="Grupo_1007337" data-name="Grupo 1007337">
            <g id="Grupo_1007336" data-name="Grupo 1007336" clip-path="url(#clip-path-7)">
              <path id="Trazado_714880" data-name="Trazado 714880" d="M35.092,238.319a1.811,1.811,0,0,0,.2-1.281,1.758,1.758,0,0,0-.695-1.073l-.934,1.12Z" transform="translate(-33.663 -235.965)" fill="#fff"/>
            </g>
          </g>
        </g>
        <g id="Grupo_1007341" data-name="Grupo 1007341" transform="translate(20.085 142.247)" opacity="0.4">
          <g id="Grupo_1007340" data-name="Grupo 1007340">
            <g id="Grupo_1007339" data-name="Grupo 1007339" clip-path="url(#clip-path-8)">
              <path id="Trazado_714881" data-name="Trazado 714881" d="M39.744,242.064s.907,1.339.595,1.412-4.89-3.745-6.762-5.605l.081-.084,5.3,4.5s.543-.406.785-.221" transform="translate(-33.576 -237.787)" fill="#fff"/>
            </g>
          </g>
        </g>
        <path id="Trazado_714882" data-name="Trazado 714882" d="M33.61,237.695a.422.422,0,0,0,.063.065l.187.177.7.639c.6.535,1.433,1.264,2.371,2.048s1.8,1.476,2.439,1.968l.753.577.208.154a.539.539,0,0,0,.075.05.44.44,0,0,0-.068-.06l-.2-.163-.742-.593c-.625-.5-1.487-1.2-2.426-1.982s-1.777-1.507-2.381-2.033l-.715-.624-.2-.168a.52.52,0,0,0-.071-.056" transform="translate(-13.504 -95.503)" fill="#1a2e35"/>
        <path id="Trazado_714883" data-name="Trazado 714883" d="M42.484,245.177a1.377,1.377,0,0,1,.907-.306.844.844,0,0,0-.907.306" transform="translate(-17.069 -98.371)" fill="#1a2e35"/>
        <path id="Trazado_714884" data-name="Trazado 714884" d="M41.344,242.647a.545.545,0,0,0,.255-.048c.135-.043.24-.092.235-.109a.565.565,0,0,0-.255.048c-.135.044-.24.092-.235.109" transform="translate(-16.611 -97.427)" fill="#1a2e35"/>
        <path id="Trazado_714885" data-name="Trazado 714885" d="M41.041,241.99c0,.017.1.028.22.023s.218-.022.217-.039-.1-.028-.22-.023-.218.022-.218.039" transform="translate(-16.49 -97.212)" fill="#1a2e35"/>
        <path id="Trazado_714886" data-name="Trazado 714886" d="M41.224,241.1c-.011.013.072.1.187.2s.217.166.229.153-.072-.1-.187-.2-.217-.166-.228-.153" transform="translate(-16.563 -96.869)" fill="#1a2e35"/>
        <path id="Trazado_714887" data-name="Trazado 714887" d="M41.478,240.554a.769.769,0,0,0,.444.431c.01-.016-.1-.1-.224-.214s-.205-.227-.221-.217" transform="translate(-16.664 -96.651)" fill="#1a2e35"/>
        <path id="Trazado_714888" data-name="Trazado 714888" d="M42.046,242.308a.953.953,0,0,0,.259.213,1.983,1.983,0,0,0,.325.169.956.956,0,0,0,.211.066.184.184,0,0,0,.131-.026.133.133,0,0,0,.047-.136.615.615,0,0,0-.7-.349.609.609,0,0,0-.228.1c-.047.035-.067.061-.065.064a.941.941,0,0,1,.3-.122.6.6,0,0,1,.339.041.518.518,0,0,1,.29.277c.016.064-.04.1-.108.088a1.016,1.016,0,0,1-.2-.059,2.381,2.381,0,0,1-.322-.152c-.177-.1-.276-.183-.282-.175" transform="translate(-16.885 -97.324)" fill="#1a2e35"/>
        <path id="Trazado_714889" data-name="Trazado 714889" d="M42.1,241.986c0,.006.094-.028.179-.154a.546.546,0,0,0,.087-.246.339.339,0,0,0-.105-.31.134.134,0,0,0-.178.053.376.376,0,0,0-.053.152,1.03,1.03,0,0,0-.008.257.479.479,0,0,0,.06.227c.01,0-.013-.089-.016-.23a1.2,1.2,0,0,1,.021-.245c.01-.084.068-.2.142-.16s.082.166.079.251a.547.547,0,0,1-.067.229,1.2,1.2,0,0,1-.141.177" transform="translate(-16.881 -96.934)" fill="#1a2e35"/>
        <path id="Trazado_714890" data-name="Trazado 714890" d="M35.276,235.975c-.007.01.123.085.287.257a1.634,1.634,0,0,1,.352,1.713c-.081.223-.172.343-.163.35s.029-.025.068-.081a1.454,1.454,0,0,0,.137-.253,1.586,1.586,0,0,0-.363-1.76,1.359,1.359,0,0,0-.226-.178.3.3,0,0,0-.093-.048" transform="translate(-14.173 -94.811)" fill="#1a2e35"/>
        <path id="Trazado_714891" data-name="Trazado 714891" d="M37.359,233.765a18.222,18.222,0,0,0-1.4,1.63,9.1,9.1,0,0,0,.721-.794,9.1,9.1,0,0,0,.674-.836" transform="translate(-14.45 -93.924)" fill="#1a2e35"/>
        <path id="Trazado_714892" data-name="Trazado 714892" d="M37.439,239.949a4.28,4.28,0,0,0,1.162.988c.011-.016-.264-.218-.584-.491s-.565-.51-.578-.5" transform="translate(-15.042 -96.408)" fill="#1a2e35"/>
        <path id="Trazado_714893" data-name="Trazado 714893" d="M36.066,238.852c-.018,0-.025.074-.048.156s-.053.148-.038.159.074-.046.1-.141,0-.175-.013-.173" transform="translate(-14.455 -95.968)" fill="#1a2e35"/>
        <path id="Trazado_714894" data-name="Trazado 714894" d="M36.131,237.823c-.017,0-.026.065-.02.141s.026.138.043.136.026-.065.02-.142-.026-.137-.043-.136" transform="translate(-14.508 -95.554)" fill="#1a2e35"/>
        <path id="Trazado_714895" data-name="Trazado 714895" d="M35.671,236.948c-.008.016.045.06.087.13s.058.136.076.136.031-.084-.022-.169-.135-.112-.141-.1" transform="translate(-14.332 -95.201)" fill="#1a2e35"/>
        <path id="Trazado_714896" data-name="Trazado 714896" d="M35.273,236.4c-.016.008-.01.048.013.089s.053.066.068.058.01-.048-.013-.089-.053-.066-.068-.058" transform="translate(-14.169 -94.981)" fill="#1a2e35"/>
        <path id="Trazado_714897" data-name="Trazado 714897" d="M49.6,144.2S47.86,151.55,48.352,153s3.675,2.3,3.675,2.3l-.107,20.136L34.31,197.2l6.5,5.321s19.063-21.808,20.744-25.757-1.071-32.9-1.071-32.9Z" transform="translate(-13.785 -57.806)" fill="#1a2e35"/>
        <path id="Trazado_714898" data-name="Trazado 714898" d="M65.019,139.4l.861,61.159-8.958.045-4.5-49.811c-.951-.907-2.287-2.46-2.1-5.925l.218-4.025Z" transform="translate(-20.212 -56.01)" fill="#1a2e35"/>
        <path id="Trazado_714899" data-name="Trazado 714899" d="M59.111,185.36a.357.357,0,0,1,.052-.09l.17-.251.666-.942,2.431-3.364-.015.046c-.2-2.122-.432-4.7-.687-7.472-.325-3.638-.589-6.933-.744-9.322-.079-1.194-.131-2.161-.16-2.83-.011-.319-.02-.576-.026-.771a1.408,1.408,0,0,1,0-.269,1.462,1.462,0,0,1,.034.267c.016.194.036.449.062.768.054.687.129,1.647.22,2.824.189,2.384.473,5.678.8,9.315.244,2.785.494,5.355.654,7.488l0,.024-.017.023-2.484,3.325-.7.917-.188.238c-.044.053-.068.079-.071.077" transform="translate(-23.75 -64.324)" fill="#375a64"/>
        <path id="Trazado_714900" data-name="Trazado 714900" d="M60.561,159.428a12.268,12.268,0,0,1-2.372-.353,12.259,12.259,0,0,1-2.314-.631,20.266,20.266,0,0,1,2.353.446,20.341,20.341,0,0,1,2.333.538" transform="translate(-22.45 -63.658)" fill="#375a64"/>
        <path id="Trazado_714901" data-name="Trazado 714901" d="M70.669,194.438a9.127,9.127,0,0,0-2.419-.631,9.1,9.1,0,0,0-2.489.242,2.03,2.03,0,0,1,.7-.273,5.492,5.492,0,0,1,3.563.282,2.034,2.034,0,0,1,.647.38" transform="translate(-26.422 -77.787)" fill="#375a64"/>
        <path id="Trazado_714902" data-name="Trazado 714902" d="M71.586,199.737c.041.032-2.478,3.414-5.628,7.554s-5.737,7.472-5.778,7.44,2.478-3.413,5.628-7.554,5.737-7.471,5.778-7.439" transform="translate(-24.179 -80.252)" fill="#375a64"/>
        <path id="Trazado_714903" data-name="Trazado 714903" d="M74.187,146.678a1.5,1.5,0,0,1-.5.665,2.5,2.5,0,0,1-3.651-.385,1.5,1.5,0,0,1-.354-.756,7.8,7.8,0,0,0,.458.672,2.488,2.488,0,0,0,3.464.365,7.7,7.7,0,0,0,.588-.561" transform="translate(-27.994 -58.742)" fill="#375a64"/>
        <path id="Trazado_714904" data-name="Trazado 714904" d="M55.123,87.077a7.813,7.813,0,0,1-.424-10.9" transform="translate(-21.17 -30.609)" fill="#1a2e35"/>
        <path id="Trazado_714905" data-name="Trazado 714905" d="M46.768,103.932s-1.947,2.2-2.35,10.608c0,0,5.543,1.052,5.645.75s-3.294-11.357-3.294-11.357" transform="translate(-17.847 -41.759)" fill="#00bcd4"/>
        <g id="Grupo_1007344" data-name="Grupo 1007344" transform="translate(26.572 62.173)" opacity="0.3">
          <g id="Grupo_1007343" data-name="Grupo 1007343">
            <g id="Grupo_1007342" data-name="Grupo 1007342" clip-path="url(#clip-path-9)">
              <path id="Trazado_714906" data-name="Trazado 714906" d="M46.768,103.932s-1.947,2.2-2.35,10.608c0,0,5.543,1.052,5.645.75s-3.294-11.357-3.294-11.357" transform="translate(-44.419 -103.932)"/>
            </g>
          </g>
        </g>
        <path id="Trazado_714907" data-name="Trazado 714907" d="M48.835,125.646H65.851l-.275-2.658s-1.944-10.113-1.93-10.246l.306-.644a6.419,6.419,0,0,0,.075-5.352l8.332-2.849-2.04-6.875c-3.781.638-9.5,1.35-9.5,1.35l-.851.072s-5.9.307-6.026.322c-2.468.3-5.339.488-6.389,3.129-.561,1.412-.028,3.532.888,5.718l2.181,6.713c.871,3.689-.519,3.514-1.282,7.228-.115.562-.522,3.576-.51,4.091" transform="translate(-19.016 -38.983)" fill="#00bcd4"/>
        <g id="Grupo_1007347" data-name="Grupo 1007347" transform="translate(28.312 58.04)" opacity="0.3">
          <g id="Grupo_1007346" data-name="Grupo 1007346">
            <g id="Grupo_1007345" data-name="Grupo 1007345" clip-path="url(#clip-path-10)">
              <path id="Trazado_714908" data-name="Trazado 714908" d="M48.835,125.646H65.851l-.275-2.658s-1.944-10.113-1.93-10.246l.306-.644a6.419,6.419,0,0,0,.075-5.352l8.332-2.849-2.04-6.875c-3.781.638-9.5,1.35-9.5,1.35l-.851.072s-5.9.307-6.026.322c-2.468.3-5.339.488-6.389,3.129-.561,1.412-.028,3.532.888,5.718l2.181,6.713c.871,3.689-.519,3.514-1.282,7.228-.115.562-.522,3.576-.51,4.091" transform="translate(-47.328 -97.023)"/>
            </g>
          </g>
        </g>
        <path id="Trazado_714909" data-name="Trazado 714909" d="M82.615,108.7a1.64,1.64,0,0,1-.37.156c-.242.088-.593.21-1.03.357-.871.294-2.081.684-3.416,1.111s-2.53.852-3.378,1.2c-.425.172-.763.325-1,.426a1.625,1.625,0,0,1-.373.147,1.637,1.637,0,0,1,.34-.213c.227-.121.559-.294.98-.482a32.343,32.343,0,0,1,3.372-1.259c1.338-.427,2.553-.8,3.434-1.059.441-.13.8-.233,1.047-.3a1.619,1.619,0,0,1,.392-.086" transform="translate(-29.35 -43.673)" fill="#1a2e35"/>
        <path id="Trazado_714910" data-name="Trazado 714910" d="M72.294,102.52c0,.052-5.031.095-11.236.095s-11.236-.042-11.236-.095,5.03-.095,11.236-.095,11.236.042,11.236.095" transform="translate(-20.018 -41.153)" fill="#fafafa"/>
        <path id="Trazado_714911" data-name="Trazado 714911" d="M71.458,108.106c0,.053-5.6.095-12.5.095s-12.5-.042-12.5-.095,5.6-.094,12.5-.094,12.5.042,12.5.094" transform="translate(-18.663 -43.398)" fill="#fafafa"/>
        <path id="Trazado_714912" data-name="Trazado 714912" d="M47.378,114.464a2.959,2.959,0,0,1-1.042.095,2.959,2.959,0,0,1-1.042-.095,2.959,2.959,0,0,1,1.042-.095,2.959,2.959,0,0,1,1.042.095" transform="translate(-18.199 -45.952)" fill="#fafafa"/>
        <path id="Trazado_714913" data-name="Trazado 714913" d="M65.133,114.656c0,.052-3.662.095-8.177.095s-8.178-.042-8.178-.095,3.66-.095,8.178-.095,8.177.042,8.177.095" transform="translate(-19.598 -46.029)" fill="#fafafa"/>
        <path id="Trazado_714914" data-name="Trazado 714914" d="M65.656,121.206c0,.052-3.286.095-7.339.095s-7.339-.042-7.339-.095,3.285-.095,7.339-.095,7.339.042,7.339.095" transform="translate(-20.482 -48.661)" fill="#fafafa"/>
        <path id="Trazado_714915" data-name="Trazado 714915" d="M66.4,127.274c0,.052-2.979.095-6.652.095s-6.652-.042-6.652-.095,2.978-.095,6.652-.095,6.652.042,6.652.095" transform="translate(-21.334 -51.099)" fill="#fafafa"/>
        <path id="Trazado_714916" data-name="Trazado 714916" d="M66.751,132.187c0,.052-3.186.095-7.116.095s-7.116-.042-7.116-.095,3.185-.095,7.116-.095,7.116.042,7.116.095" transform="translate(-21.101 -53.073)" fill="#fafafa"/>
        <path id="Trazado_714917" data-name="Trazado 714917" d="M66.976,138.447c0,.053-3.625.1-8.1.1s-8.1-.042-8.1-.1,3.624-.094,8.1-.094,8.1.042,8.1.094" transform="translate(-20.405 -55.588)" fill="#fafafa"/>
        <path id="Trazado_714918" data-name="Trazado 714918" d="M50.652,119.523a1.383,1.383,0,0,1-.151-.334l-.357-.928c-.3-.785-.721-1.867-1.159-3.074s-.8-2.312-1.031-3.123c-.114-.406-.2-.736-.248-.966a1.372,1.372,0,0,1-.059-.363,13.454,13.454,0,0,1,.435,1.289c.261.8.641,1.893,1.08,3.1s.84,2.294,1.108,3.092c.135.4.237.724.3.95a1.36,1.36,0,0,1,.081.358" transform="translate(-19.142 -44.492)" fill="#1a2e35"/>
      </g>
    </g>
  </g>
</svg>
