<svg xmlns="http://www.w3.org/2000/svg" xmlns:xlink="http://www.w3.org/1999/xlink" width="1030" height="398" viewBox="0 0 1030 398">
  <defs>
    <radialGradient id="radial-gradient" cx="0.5" cy="0.5" r="0.478" gradientTransform="translate(0 -0.808) scale(1 2.615)" gradientUnits="objectBoundingBox">
      <stop offset="0" stop-color="#fff"/>
      <stop offset="1" stop-color="#81d4fa"/>
    </radialGradient>
    <clipPath id="clip-path">
      <rect id="Rectángulo_348790" data-name="Rectángulo 348790" width="508.12" height="279.344" fill="none"/>
    </clipPath>
    <clipPath id="clip-path-2">
      <rect id="Rectángulo_348792" data-name="Rectángulo 348792" width="987.07" height="336.709" fill="none"/>
    </clipPath>
  </defs>
  <g id="Grupo_1007389" data-name="Grupo 1007389" transform="translate(-285 -3403)">
    <rect id="Rectángulo_346049" data-name="Rectángulo 346049" width="1030" height="398" rx="15" transform="translate(285 3403)" opacity="0.15" fill="url(#radial-gradient)"/>
    <g id="Grupo_1007386" data-name="Grupo 1007386" transform="translate(-116 -13)">
      <g id="Grupo_1007384" data-name="Grupo 1007384" transform="translate(687.88 3461)">
        <g id="Grupo_1007383" data-name="Grupo 1007383" clip-path="url(#clip-path)">
          <path id="Trazado_715284" data-name="Trazado 715284" d="M68.59,34.7c-1.192-.492-10.724-1.144-11.348,10.475V108.9c.012,8.093-.659,8.541-9.044,11.895,8.385,3.354,9.056,3.8,9.044,11.895v63.725c.624,11.619,10.156,10.967,11.348,10.475" fill="none" stroke="#b5b5b5" stroke-miterlimit="10" stroke-width="1"/>
          <path id="Trazado_715285" data-name="Trazado 715285" d="M127.965,263.266c-.3.731-.7,6.582,6.429,6.965h9.112c4.967-.007,5.242.4,7.3,5.551,2.059-5.147,2.333-5.558,7.3-5.551h9.111c7.132-.383,6.731-6.234,6.429-6.965" fill="none" stroke="#b5b5b5" stroke-miterlimit="10" stroke-width="1"/>
          <path id="Trazado_715286" data-name="Trazado 715286" d="M.5,279.344v-7.912l116.548-11.484" fill="none" stroke="#b5b5b5" stroke-miterlimit="10" stroke-width="1"/>
          <path id="Trazado_715287" data-name="Trazado 715287" d="M117.175,262.58a2.632,2.632,0,1,0-2.877-2.361,2.632,2.632,0,0,0,2.877,2.361" fill="#b5b5b5"/>
          <path id="Trazado_715288" data-name="Trazado 715288" d="M302.259,279.344v-7.912L185.712,259.948" fill="none" stroke="#b5b5b5" stroke-miterlimit="10" stroke-width="1"/>
          <path id="Trazado_715289" data-name="Trazado 715289" d="M186.1,257.342a2.632,2.632,0,1,0,2.361,2.877,2.632,2.632,0,0,0-2.361-2.877" fill="#b5b5b5"/>
          <path id="Trazado_715290" data-name="Trazado 715290" d="M79.5,37.537l93.842,169.352V37.537L268.5,206.889V37.537l92.969,169.352V37.537l49.758,84.676" fill="none" stroke="#7e5ee3" stroke-miterlimit="10" stroke-width="2"/>
          <line id="Línea_395" data-name="Línea 395" x2="4" transform="translate(79.502 206.889)" fill="none" stroke="#9e9e9e" stroke-miterlimit="10" stroke-width="1"/>
          <line id="Línea_396" data-name="Línea 396" x2="366.63" transform="translate(91.56 206.889)" fill="none" stroke="#9e9e9e" stroke-miterlimit="10" stroke-width="1" stroke-dasharray="8.058 8.058"/>
          <line id="Línea_397" data-name="Línea 397" x2="4" transform="translate(462.219 206.889)" fill="none" stroke="#9e9e9e" stroke-miterlimit="10" stroke-width="1"/>
          <line id="Línea_398" data-name="Línea 398" x2="4" transform="translate(79.502 123.086)" fill="none" stroke="#9e9e9e" stroke-miterlimit="10" stroke-width="1"/>
          <line id="Línea_399" data-name="Línea 399" x2="366.63" transform="translate(91.56 123.086)" fill="none" stroke="#9e9e9e" stroke-miterlimit="10" stroke-width="1" stroke-dasharray="8.058 8.058"/>
          <line id="Línea_400" data-name="Línea 400" x2="4" transform="translate(462.219 123.086)" fill="none" stroke="#9e9e9e" stroke-miterlimit="10" stroke-width="1"/>
          <path id="Trazado_715291" data-name="Trazado 715291" d="M79.5,9.885V250.537H498.236" fill="none" stroke="#00bcd4" stroke-miterlimit="10" stroke-width="2"/>
          <path id="Trazado_715292" data-name="Trazado 715292" d="M79.5,0,73.81,13.929l5.692-3.3,5.69,3.3Z" fill="#00bcd4"/>
          <path id="Trazado_715293" data-name="Trazado 715293" d="M508.12,250.537l-13.929,5.691,3.3-5.691-3.3-5.69Z" fill="#00bcd4"/>
          <line id="Línea_401" data-name="Línea 401" y2="137.49" transform="translate(127.833 122.213)" fill="none" stroke="#9e9e9e" stroke-miterlimit="10" stroke-width="1" stroke-dasharray="8 8"/>
          <line id="Línea_402" data-name="Línea 402" y2="52.813" transform="translate(173.344 206.889)" fill="none" stroke="#9e9e9e" stroke-miterlimit="10" stroke-width="1" stroke-dasharray="8 8"/>
        </g>
      </g>
      <text id="Existencias" transform="translate(657 3452)" fill="#12263f" font-size="16" font-family="Roboto-Bold, Roboto" font-weight="700"><tspan x="-41.008" y="15">Existencias</tspan></text>
      <text id="Tiempo" transform="translate(1129 3729)" fill="#12263f" font-size="16" font-family="Roboto-Bold, Roboto" font-weight="700"><tspan x="-27.348" y="15">Tiempo</tspan></text>
      <text id="Punto_de_pedido" data-name="Punto
de pedido" transform="translate(1152 3569)" fill="#12263f" font-size="13" font-family="Roboto-Regular, Roboto"><tspan x="-17.037" y="12">Punto</tspan><tspan x="-28.425" y="27">de pedido</tspan></text>
      <text id="Stock_de_seguridad" data-name="Stock de
seguridad" transform="translate(1152 3653)" fill="#12263f" font-size="13" font-family="Roboto-Italic, Roboto" font-style="italic"><tspan x="-24.692" y="14">Stock </tspan><tspan y="14" font-family="Roboto-Regular, Roboto" font-style="normal">de</tspan><tspan font-family="Roboto-Regular, Roboto" font-style="normal"><tspan x="-28.669" y="29">seguridad</tspan></tspan></text>
      <text id="Emisión_de_pedido" data-name="Emisión
de pedido" transform="translate(647 3749)" fill="#12263f" font-size="13" font-family="Roboto-Regular, Roboto"><tspan x="-23.191" y="12">Emisión</tspan><tspan x="-28.425" y="27">de pedido</tspan></text>
      <text id="Plazo_de_aprovisionamiento" data-name="Plazo de aprovisionamiento" transform="translate(779 3749)" fill="#12263f" font-size="13" font-family="Roboto-Regular, Roboto"><tspan x="-24.81" y="12">Plazo de </tspan><tspan x="-53.533" y="27">aprovisionamiento</tspan></text>
      <text id="Recepción_física_del_pedido" data-name="Recepción física
del pedido" transform="translate(930 3749)" fill="#12263f" font-size="13" font-family="Roboto-Regular, Roboto"><tspan x="-47.55" y="12">Recepción física</tspan><tspan x="-30.002" y="27">del pedido</tspan></text>
      <g id="Grupo_1007385" data-name="Grupo 1007385">
        <path id="Trazado_720460" data-name="Trazado 720460" d="M18.173,8.382V12H16.954V2.758h3.409a3.425,3.425,0,0,1,2.377.774,2.625,2.625,0,0,1,.86,2.05,2.591,2.591,0,0,1-.841,2.073,3.578,3.578,0,0,1-2.409.727Zm0-1h2.19a2.19,2.19,0,0,0,1.5-.461,1.686,1.686,0,0,0,.521-1.332,1.742,1.742,0,0,0-.521-1.323,2.051,2.051,0,0,0-1.428-.515h-2.26Zm9.566,4.742a3,3,0,0,1-2.272-.917,3.4,3.4,0,0,1-.876-2.453V8.541a4.121,4.121,0,0,1,.39-1.825,3.045,3.045,0,0,1,1.092-1.257A2.745,2.745,0,0,1,27.593,5a2.572,2.572,0,0,1,2.082.882,3.82,3.82,0,0,1,.743,2.526V8.9H25.764a2.441,2.441,0,0,0,.594,1.641,1.866,1.866,0,0,0,1.444.625,2.045,2.045,0,0,0,1.054-.254,2.648,2.648,0,0,0,.755-.673l.717.559A2.884,2.884,0,0,1,27.739,12.127ZM27.593,5.97a1.566,1.566,0,0,0-1.193.517,2.515,2.515,0,0,0-.6,1.45h3.44V7.849a2.237,2.237,0,0,0-.482-1.387A1.475,1.475,0,0,0,27.593,5.97Zm3.9,2.539a4.023,4.023,0,0,1,.749-2.542,2.548,2.548,0,0,1,3.872-.136V2.25h1.174V12H36.206l-.057-.736a2.391,2.391,0,0,1-1.961.863,2.346,2.346,0,0,1-1.946-.978A4.069,4.069,0,0,1,31.49,8.6Zm1.174.133a3.046,3.046,0,0,0,.482,1.828,1.56,1.56,0,0,0,1.333.66,1.713,1.713,0,0,0,1.631-1V6.973A1.726,1.726,0,0,0,34.492,6a1.567,1.567,0,0,0-1.346.667A3.354,3.354,0,0,0,32.664,8.642ZM40.383,12H39.209V5.132h1.174Zm-1.27-8.69a.7.7,0,0,1,.175-.482.655.655,0,0,1,.517-.2.666.666,0,0,1,.521.2.694.694,0,0,1,.178.482.671.671,0,0,1-.178.476.678.678,0,0,1-.521.19.667.667,0,0,1-.517-.19A.678.678,0,0,1,39.114,3.31Zm2.863,5.2a4.023,4.023,0,0,1,.749-2.542A2.548,2.548,0,0,1,46.6,5.83V2.25h1.174V12H46.693l-.057-.736a2.391,2.391,0,0,1-1.961.863,2.346,2.346,0,0,1-1.946-.978A4.069,4.069,0,0,1,41.976,8.6Zm1.174.133a3.046,3.046,0,0,0,.482,1.828,1.56,1.56,0,0,0,1.333.66,1.713,1.713,0,0,0,1.631-1V6.973A1.726,1.726,0,0,0,44.979,6a1.567,1.567,0,0,0-1.346.667A3.354,3.354,0,0,0,43.151,8.642Zm6.132-.14a4.057,4.057,0,0,1,.4-1.815,2.96,2.96,0,0,1,1.1-1.244A3.007,3.007,0,0,1,52.4,5a2.9,2.9,0,0,1,2.269.971,3.736,3.736,0,0,1,.866,2.583v.083a4.092,4.092,0,0,1-.384,1.8,2.916,2.916,0,0,1-1.1,1.241,3.041,3.041,0,0,1-1.641.444,2.889,2.889,0,0,1-2.263-.971,3.718,3.718,0,0,1-.866-2.571Zm1.181.14a2.938,2.938,0,0,0,.53,1.834,1.8,1.8,0,0,0,2.841-.01A3.213,3.213,0,0,0,54.361,8.5a2.933,2.933,0,0,0-.536-1.831,1.705,1.705,0,0,0-1.425-.7,1.686,1.686,0,0,0-1.4.692A3.189,3.189,0,0,0,50.463,8.642ZM16.119,23.5a4.057,4.057,0,0,1,.4-1.815,2.96,2.96,0,0,1,1.1-1.244A3.007,3.007,0,0,1,19.236,20a2.9,2.9,0,0,1,2.269.971,3.736,3.736,0,0,1,.866,2.583v.083a4.092,4.092,0,0,1-.384,1.8,2.916,2.916,0,0,1-1.1,1.241,3.041,3.041,0,0,1-1.641.444,2.889,2.889,0,0,1-2.263-.971,3.718,3.718,0,0,1-.866-2.571Zm1.181.14a2.938,2.938,0,0,0,.53,1.834,1.8,1.8,0,0,0,2.841-.01A3.213,3.213,0,0,0,21.2,23.5a2.933,2.933,0,0,0-.536-1.831,1.705,1.705,0,0,0-1.425-.7,1.686,1.686,0,0,0-1.4.692A3.189,3.189,0,0,0,17.3,23.642Zm2.469-6.379h1.422l-1.7,1.866-.946,0Zm9.877,6.379a4.113,4.113,0,0,1-.717,2.526,2.3,2.3,0,0,1-1.942.958,2.519,2.519,0,0,1-1.968-.793v3.307H23.844V20.132h1.073l.057.762A2.419,2.419,0,0,1,26.967,20a2.342,2.342,0,0,1,1.958.933,4.157,4.157,0,0,1,.72,2.6Zm-1.174-.133a3.035,3.035,0,0,0-.5-1.834A1.6,1.6,0,0,0,26.618,21a1.726,1.726,0,0,0-1.6.946v3.282a1.73,1.73,0,0,0,1.612.939,1.587,1.587,0,0,0,1.343-.67A3.312,3.312,0,0,0,28.472,23.509Zm4.259-5.04v1.663h1.282v.908H32.731V25.3a.953.953,0,0,0,.171.62.721.721,0,0,0,.584.207,2.843,2.843,0,0,0,.559-.076V27a3.424,3.424,0,0,1-.9.126,1.462,1.462,0,0,1-1.187-.476,2.045,2.045,0,0,1-.4-1.352V21.04h-1.25v-.908h1.25V18.469ZM36.66,27H35.486V20.132H36.66Zm-1.27-8.69a.7.7,0,0,1,.175-.482.655.655,0,0,1,.517-.2.666.666,0,0,1,.521.2.694.694,0,0,1,.178.482.671.671,0,0,1-.178.476.678.678,0,0,1-.521.19.667.667,0,0,1-.517-.19A.678.678,0,0,1,35.391,18.31Zm4.253,1.822.032.762A2.536,2.536,0,0,1,41.713,20a1.964,1.964,0,0,1,1.961,1.1,2.6,2.6,0,0,1,.892-.8,2.634,2.634,0,0,1,1.3-.3q2.26,0,2.3,2.393V27H46.988V22.468a1.577,1.577,0,0,0-.336-1.1A1.482,1.482,0,0,0,45.521,21a1.557,1.557,0,0,0-1.085.39,1.584,1.584,0,0,0-.5,1.051V27H42.754V22.5A1.31,1.31,0,0,0,41.288,21a1.571,1.571,0,0,0-1.581.984V27H38.533V20.132ZM49.622,23.5a4.057,4.057,0,0,1,.4-1.815,2.96,2.96,0,0,1,1.1-1.244A3.007,3.007,0,0,1,52.739,20a2.9,2.9,0,0,1,2.269.971,3.736,3.736,0,0,1,.866,2.583v.083a4.092,4.092,0,0,1-.384,1.8,2.916,2.916,0,0,1-1.1,1.241,3.041,3.041,0,0,1-1.641.444,2.889,2.889,0,0,1-2.263-.971,3.718,3.718,0,0,1-.866-2.571Zm1.181.14a2.938,2.938,0,0,0,.53,1.834,1.8,1.8,0,0,0,2.841-.01A3.213,3.213,0,0,0,54.7,23.5a2.933,2.933,0,0,0-.536-1.831,1.705,1.705,0,0,0-1.425-.7,1.686,1.686,0,0,0-1.4.692A3.189,3.189,0,0,0,50.8,23.642Z" transform="translate(612 3565)" fill="#12263f"/>
        <path id="Trazado_720459" data-name="Trazado 720459" d="M21.648,7.062H16.177V5.767h5.472Zm0,2.679H16.177V8.464h5.472Zm12.4-2.12A5.7,5.7,0,0,1,33.636,9.9a3.707,3.707,0,0,1-1.165,1.527l1.587,1.238-1.041.939-1.968-1.555a3.986,3.986,0,0,1-.832.083,3.69,3.69,0,0,1-2-.549,3.606,3.606,0,0,1-1.358-1.565,5.493,5.493,0,0,1-.486-2.342V7.15a5.622,5.622,0,0,1,.479-2.387A3.6,3.6,0,0,1,28.209,3.18a3.67,3.67,0,0,1,2-.549,3.737,3.737,0,0,1,2.015.543,3.556,3.556,0,0,1,1.349,1.562,5.61,5.61,0,0,1,.482,2.371Zm-1.612-.482a4.013,4.013,0,0,0-.584-2.368,1.918,1.918,0,0,0-1.65-.806,1.888,1.888,0,0,0-1.622.816,3.95,3.95,0,0,0-.6,2.3v.54a4.054,4.054,0,0,0,.587,2.342,2.052,2.052,0,0,0,3.294.032,4.1,4.1,0,0,0,.574-2.374Z" transform="translate(657 3573)" fill="#12263f"/>
        <path id="Trazado_720458" data-name="Trazado 720458" d="M10.235,5.827,8.3,5.269,8.648,4.2l1.917.742-.1-2.181h1.136l-.1,2.219L13.4,4.248l.343,1.091L11.771,5.9l1.27,1.688-.92.673L10.978,6.43,9.848,8.2l-.927-.647Z" transform="translate(685 3573)" fill="#12263f"/>
      </g>
    </g>
    <g id="Grupo_1007388" data-name="Grupo 1007388" transform="translate(306 3434)">
      <g id="Grupo_1007387" data-name="Grupo 1007387" clip-path="url(#clip-path-2)">
        <path id="Trazado_715294" data-name="Trazado 715294" d="M925.772,177.545a.365.365,0,0,1-.359-.308,11.408,11.408,0,0,1,2.06-8.373,6.927,6.927,0,0,1,5.4-2.7c4.332,0,8.395,1.315,8.8,10.855a.364.364,0,0,1-.727.03c-.359-8.459-3.355-10.158-8.073-10.158a6.1,6.1,0,0,0-4.841,2.433,10.6,10.6,0,0,0-1.9,7.8.363.363,0,0,1-.3.414.276.276,0,0,1-.056,0" transform="translate(-29.272 -5.257)"/>
        <path id="Trazado_715295" data-name="Trazado 715295" d="M954.51,181.964v26.153a2.624,2.624,0,0,1-2.541,2.472H914.5a3.112,3.112,0,0,1-2.905-3.106l.182-25.87a2.767,2.767,0,0,1,2.541-2.629l37.2-.077a3.128,3.128,0,0,1,3,3.057" transform="translate(-28.839 -5.66)" fill="#fff"/>
        <path id="Trazado_715296" data-name="Trazado 715296" d="M951.956,210.94H914.484a3.485,3.485,0,0,1-3.268-3.47L911.4,181.6a3.111,3.111,0,0,1,2.905-2.99l37.2-.077a3.481,3.481,0,0,1,3.36,3.42V208.1a2.985,2.985,0,0,1-2.905,2.835m-.454-31.682-37.2.077a2.411,2.411,0,0,0-2.178,2.265l-.182,25.873a2.755,2.755,0,0,0,2.541,2.74h37.472a2.259,2.259,0,0,0,2.178-2.108V181.951a2.769,2.769,0,0,0-2.632-2.693" transform="translate(-28.827 -5.648)"/>
        <path id="Trazado_715297" data-name="Trazado 715297" d="M956.541,176.256v17.715a2.881,2.881,0,0,1-2.79,2.714H912.612a3.417,3.417,0,0,1-3.189-3.411l.2-17.4a3.038,3.038,0,0,1,2.79-2.888l40.84-.085a3.435,3.435,0,0,1,3.289,3.357" transform="translate(-28.77 -5.47)" fill="#fff"/>
        <path id="Trazado_715298" data-name="Trazado 715298" d="M953.74,197.038H912.6a3.79,3.79,0,0,1-3.553-3.774l.2-17.408a3.378,3.378,0,0,1,3.154-3.247l40.838-.085a3.786,3.786,0,0,1,3.654,3.72V193.96a3.241,3.241,0,0,1-3.153,3.078m-.5-23.787-40.839.085a2.686,2.686,0,0,0-2.427,2.524l-.2,17.408c0,1.025.853,3.043,2.826,3.043H953.74a2.517,2.517,0,0,0,2.426-2.351V176.244a3.078,3.078,0,0,0-2.925-2.993" transform="translate(-28.758 -5.458)"/>
        <path id="Trazado_715299" data-name="Trazado 715299" d="M936,201.444h-4.89c-.362,0-.75-.218-.75-.487v-7.185c0-.371.579-.557.941-.557l4.8.035c.362,0,.8.218.8.487l.023,7.133c0,.269-.385.574-.927.574" transform="translate(-29.433 -6.112)" fill="#acd4f7"/>
        <path id="Trazado_715300" data-name="Trazado 715300" d="M935.99,201.8H931.1c-.537,0-1.114-.342-1.114-.85V193.76c0-.635.764-.921,1.305-.921l4.807.035c.558,0,1.158.342,1.158.851l.023,7.131c0,.519-.579.939-1.29.939m-5.276-.87a.555.555,0,0,0,.385.142h4.89a.65.65,0,0,0,.565-.226l-.025-7.088a.693.693,0,0,0-.434-.153l-4.806-.035a.834.834,0,0,0-.577.2Zm5.815-7.2h0Z" transform="translate(-29.421 -6.101)"/>
        <path id="Trazado_715301" data-name="Trazado 715301" d="M933.846,199.237a.12.12,0,0,1-.121-.12l-.021-3.608a.123.123,0,0,1,.121-.122h0a.122.122,0,0,1,.121.12l.02,3.608a.121.121,0,0,1-.12.122Z" transform="translate(-29.538 -6.181)"/>
        <path id="Trazado_715302" data-name="Trazado 715302" d="M914.845,194.058a2.785,2.785,0,0,1-1.683-.539,3.592,3.592,0,0,1-.584-2.1c-.121-3.655.055-8.433.21-12.65.076-2.08.149-4.044.185-5.789a.122.122,0,0,1,.122-.119h0a.123.123,0,0,1,.119.124c-.037,1.747-.108,3.712-.186,5.793-.155,4.212-.33,8.986-.21,12.632a3.377,3.377,0,0,0,.535,1.961,2.657,2.657,0,0,0,1.49.444h0c2.308,0,4.433-.016,6.488-.031,2.02-.015,3.929-.027,5.862-.027a.121.121,0,0,1,0,.242c-1.932,0-3.84.014-5.86.027-2.056.015-4.181.029-6.489.031Z" transform="translate(-28.869 -5.469)"/>
        <path id="Trazado_715303" data-name="Trazado 715303" d="M952.26,194.058h0c-2.308,0-4.433-.016-6.489-.031-2.02-.014-3.928-.027-5.859-.027a.121.121,0,1,1,0-.242c1.933,0,3.841.013,5.861.027,2.055.015,4.18.029,6.488.031h0a2.654,2.654,0,0,0,1.49-.444,3.377,3.377,0,0,0,.534-1.961c.12-3.647-.055-8.423-.211-12.636-.076-2.079-.148-4.043-.185-5.789a.123.123,0,0,1,.119-.124h0a.121.121,0,0,1,.121.119c.037,1.744.108,3.706.186,5.784.155,4.218.331,9,.21,12.655a3.6,3.6,0,0,1-.583,2.1,2.79,2.79,0,0,1-1.684.539" transform="translate(-29.731 -5.469)"/>
        <path id="Trazado_715304" data-name="Trazado 715304" d="M793.511,19.231c-1.05-.827-1.842-.862-2.709-1.5-.07-1.058-.322-2.869-.435-3.933.994-.909,1.511-1.132,2.373-1.9a.823.823,0,0,0-.172-.425c-.209-.335-.419-.671-.639-1a19.445,19.445,0,0,0-2.795-3.319c-.98.92-1.791,1.818-2.6,2.716a13.385,13.385,0,0,0-3.71-.863A29.366,29.366,0,0,0,782.2,5.4a15.975,15.975,0,0,0-4.949,1.573,18.3,18.3,0,0,0,.913,2.842,28.6,28.6,0,0,0-2.782,2.829c-1.145-.643-2.094-.948-3.166-1.565a10.764,10.764,0,0,0-1.989,5.756c1.227.152,1.947.1,3.072.171a14.581,14.581,0,0,0,1.057,3.882c-.92.88-1.433,1.659-2.236,2.333a9.315,9.315,0,0,0,2.969,3.852c.807-.874,1.319-1.415,2.054-2.175a15.924,15.924,0,0,0,3.579,1.132,12.685,12.685,0,0,1,.509,2.867,13.432,13.432,0,0,0,5.336-.29,24.006,24.006,0,0,0-.28-3.055,12.709,12.709,0,0,0,2.725-2.731,15.928,15.928,0,0,1,2.628.757,11.523,11.523,0,0,0,1.867-4.346M783.434,20.88c-.781.291-1.565.545-3.582-.771-.793-.517-2.5-2.706-.357-5.46a3.182,3.182,0,0,1,2.9-1.24,4.735,4.735,0,0,1,2.523.986A3.747,3.747,0,0,1,786,18.027a4.172,4.172,0,0,1-2.562,2.853" transform="translate(-24.367 -0.171)" fill="#fff"/>
        <path id="Trazado_715305" data-name="Trazado 715305" d="M783.128,29.395a12.51,12.51,0,0,1-1.962-.152.364.364,0,0,1-.3-.322l-.016-.156a11.992,11.992,0,0,0-.414-2.421,15.773,15.773,0,0,1-3.09-.987l-.114-.045c-.6.619-1.1,1.153-1.88,1.994a.362.362,0,0,1-.487.042,9.652,9.652,0,0,1-3.085-4,.364.364,0,0,1,.1-.416,10.877,10.877,0,0,0,1.132-1.161c.278-.315.564-.638.909-.983a14.909,14.909,0,0,1-.951-3.447c-.3-.015-.576-.022-.845-.029a18.152,18.152,0,0,1-1.949-.127.365.365,0,0,1-.319-.365,11.023,11.023,0,0,1,2.05-5.953.363.363,0,0,1,.484-.114c.527.3,1.021.528,1.543.765.432.2.875.4,1.352.652a26.852,26.852,0,0,1,2.24-2.271l.205-.193a17.457,17.457,0,0,1-.842-2.664.363.363,0,0,1,.185-.4,16.326,16.326,0,0,1,5.062-1.611.364.364,0,0,1,.412.276,29.593,29.593,0,0,1,.593,3.36,13.715,13.715,0,0,1,3.279.768c.75-.831,1.534-1.687,2.456-2.554a.364.364,0,0,1,.5,0,19.8,19.8,0,0,1,2.848,3.38c.223.334.438.677.645,1.009a1.139,1.139,0,0,1,.228.627.363.363,0,0,1-.122.262,13.55,13.55,0,0,1-1.084.859,13.884,13.884,0,0,0-1.149.915c.037.339.086.738.137,1.155.1.825.213,1.751.266,2.433a5.941,5.941,0,0,0,.968.5,6.733,6.733,0,0,1,1.616.918.366.366,0,0,1,.131.361,11.808,11.808,0,0,1-1.926,4.481.364.364,0,0,1-.406.137c-.288-.091-.532-.175-.76-.255a10.209,10.209,0,0,0-1.6-.451,13.178,13.178,0,0,1-2.478,2.485,9.152,9.152,0,0,1,.151,1.576c.014.39.027.8.084,1.285a.365.365,0,0,1-.274.4,14.548,14.548,0,0,1-3.518.447m-1.572-.83a13.02,13.02,0,0,0,4.608-.25c-.034-.383-.046-.719-.056-1.023a7.73,7.73,0,0,0-.183-1.668.363.363,0,0,1,.139-.38,12.411,12.411,0,0,0,2.643-2.648.365.365,0,0,1,.357-.147,10.647,10.647,0,0,1,1.936.521c.152.052.312.107.486.166a11.071,11.071,0,0,0,1.607-3.767,6.407,6.407,0,0,0-1.276-.688,5.989,5.989,0,0,1-1.243-.67.365.365,0,0,1-.147-.269c-.045-.674-.167-1.68-.275-2.568-.061-.5-.119-.973-.159-1.351a.363.363,0,0,1,.116-.306,14.249,14.249,0,0,1,1.347-1.087c.281-.206.548-.4.858-.666-.021-.039-.046-.078-.066-.109-.205-.328-.417-.667-.634-.992a19.125,19.125,0,0,0-2.494-3.016c-.861.83-1.607,1.656-2.33,2.457a.362.362,0,0,1-.4.095,13.014,13.014,0,0,0-3.609-.84.363.363,0,0,1-.33-.323,29.054,29.054,0,0,0-.535-3.233,15.562,15.562,0,0,0-4.253,1.352,17.827,17.827,0,0,0,.781,2.38l.053.138a.367.367,0,0,1-.09.4l-.385.36a23.832,23.832,0,0,0-2.363,2.431.363.363,0,0,1-.462.09c-.552-.311-1.066-.544-1.565-.77-.42-.192-.853-.389-1.3-.629a10.335,10.335,0,0,0-1.735,4.949c.583.059,1.055.072,1.548.084.363.01.738.019,1.173.048a.364.364,0,0,1,.337.321,14.124,14.124,0,0,0,1.033,3.782.365.365,0,0,1-.084.4c-.407.389-.731.756-1.045,1.113a12.965,12.965,0,0,1-1.005,1.057,8.921,8.921,0,0,0,2.492,3.259c.722-.781,1.215-1.3,1.831-1.934a.364.364,0,0,1,.394-.085l.341.136a13.933,13.933,0,0,0,3.147.973.362.362,0,0,1,.306.256,12.068,12.068,0,0,1,.495,2.654m.8-7.1a5.1,5.1,0,0,1-2.712-1.062,3.8,3.8,0,0,1-1.509-2.459,4.459,4.459,0,0,1,1.062-3.529,3.526,3.526,0,0,1,3.239-1.374,4.983,4.983,0,0,1,2.707,1.071,4.117,4.117,0,0,1,1.2,3.991,4.506,4.506,0,0,1-2.789,3.107,3.319,3.319,0,0,1-1.194.255m1.068-.6h0Zm-1.435-7.135a2.9,2.9,0,0,0-2.218,1.127,3.769,3.769,0,0,0-.92,2.962,3.137,3.137,0,0,0,1.189,1.971c1.9,1.238,2.557.994,3.257.734a3.825,3.825,0,0,0,2.336-2.6,3.378,3.378,0,0,0-.969-3.272,4.351,4.351,0,0,0-2.338-.9,2.292,2.292,0,0,0-.337-.025" transform="translate(-24.355 -0.159)"/>
        <path id="Trazado_715306" data-name="Trazado 715306" d="M58.941,245.014c-1.05-.827-1.841-.862-2.709-1.5-.069-1.058-.322-2.869-.434-3.933.993-.91,1.51-1.132,2.373-1.9a.84.84,0,0,0-.172-.425c-.209-.335-.419-.671-.639-1a19.48,19.48,0,0,0-2.8-3.318c-.979.92-1.791,1.818-2.6,2.716a13.336,13.336,0,0,0-3.709-.863,29.529,29.529,0,0,0-.619-3.61,15.975,15.975,0,0,0-4.949,1.573A18.309,18.309,0,0,0,43.6,235.6a28.476,28.476,0,0,0-2.781,2.829c-1.145-.643-2.094-.948-3.167-1.565a10.777,10.777,0,0,0-1.989,5.756c1.228.152,1.948.1,3.072.171a14.621,14.621,0,0,0,1.058,3.882c-.92.88-1.434,1.659-2.236,2.333a9.322,9.322,0,0,0,2.968,3.852c.807-.874,1.321-1.415,2.055-2.175a15.908,15.908,0,0,0,3.579,1.132,12.811,12.811,0,0,1,.51,2.867A13.441,13.441,0,0,0,52,254.39a24.016,24.016,0,0,0-.28-3.056,12.713,12.713,0,0,0,2.726-2.731,15.9,15.9,0,0,1,2.628.757,11.536,11.536,0,0,0,1.866-4.346m-10.077,1.649c-.782.29-1.565.545-3.582-.771-.793-.517-2.5-2.706-.357-5.46a3.182,3.182,0,0,1,2.9-1.24,4.732,4.732,0,0,1,2.522.986,3.747,3.747,0,0,1,1.083,3.631,4.176,4.176,0,0,1-2.562,2.853" transform="translate(-1.128 -7.314)" fill="#fff"/>
        <path id="Trazado_715307" data-name="Trazado 715307" d="M48.559,255.177a12.507,12.507,0,0,1-1.962-.152.363.363,0,0,1-.305-.322l-.015-.159a12.057,12.057,0,0,0-.415-2.418,15.838,15.838,0,0,1-3.088-.986l-.115-.046c-.683.708-1.178,1.233-1.88,1.994a.364.364,0,0,1-.487.043,9.657,9.657,0,0,1-3.086-4,.364.364,0,0,1,.1-.416,10.776,10.776,0,0,0,1.132-1.16c.278-.315.564-.639.91-.984a14.9,14.9,0,0,1-.952-3.446c-.3-.016-.576-.023-.845-.03a18.123,18.123,0,0,1-1.948-.127.365.365,0,0,1-.32-.365,11.031,11.031,0,0,1,2.05-5.953.364.364,0,0,1,.484-.114c.528.3,1.021.528,1.544.765.431.2.875.4,1.351.652a26.917,26.917,0,0,1,2.237-2.268l.209-.2a17.427,17.427,0,0,1-.842-2.664.364.364,0,0,1,.184-.4,16.323,16.323,0,0,1,5.063-1.61.362.362,0,0,1,.411.275,29.667,29.667,0,0,1,.594,3.36,13.742,13.742,0,0,1,3.278.768c.753-.833,1.536-1.688,2.457-2.553a.362.362,0,0,1,.5,0,19.874,19.874,0,0,1,2.847,3.38c.223.334.438.677.646,1.009a1.137,1.137,0,0,1,.228.627.367.367,0,0,1-.122.263,13.735,13.735,0,0,1-1.084.858,14.058,14.058,0,0,0-1.15.915c.038.342.087.743.138,1.163.1.822.212,1.745.265,2.427a5.925,5.925,0,0,0,.967.495,6.713,6.713,0,0,1,1.616.918.364.364,0,0,1,.131.361,11.8,11.8,0,0,1-1.925,4.481.365.365,0,0,1-.406.137c-.288-.09-.531-.175-.76-.255a10.116,10.116,0,0,0-1.6-.45,13.2,13.2,0,0,1-2.478,2.484,9.144,9.144,0,0,1,.15,1.577c.014.39.028.8.084,1.286a.363.363,0,0,1-.273.394,14.56,14.56,0,0,1-3.518.447m-1.572-.83a13.02,13.02,0,0,0,4.608-.25c-.034-.383-.046-.719-.056-1.023a7.732,7.732,0,0,0-.184-1.668.365.365,0,0,1,.14-.38,12.414,12.414,0,0,0,2.643-2.648.365.365,0,0,1,.357-.147,10.679,10.679,0,0,1,1.937.521c.152.052.311.107.485.166a11.069,11.069,0,0,0,1.606-3.767,6.38,6.38,0,0,0-1.276-.688,6.04,6.04,0,0,1-1.243-.67.37.37,0,0,1-.147-.269c-.044-.671-.166-1.675-.274-2.56-.061-.5-.119-.978-.159-1.359a.363.363,0,0,1,.116-.306,14.241,14.241,0,0,1,1.347-1.087c.281-.206.548-.4.858-.666-.022-.038-.046-.078-.066-.108-.205-.329-.417-.668-.634-.993a19.176,19.176,0,0,0-2.495-3.016c-.86.829-1.6,1.653-2.326,2.453a.371.371,0,0,1-.406.1,13.03,13.03,0,0,0-3.609-.84.363.363,0,0,1-.33-.322,29.1,29.1,0,0,0-.536-3.234,15.594,15.594,0,0,0-4.253,1.352,17.976,17.976,0,0,0,.783,2.383l.051.135a.367.367,0,0,1-.09.4l-.387.363a23.767,23.767,0,0,0-2.36,2.428.363.363,0,0,1-.463.09c-.552-.31-1.066-.544-1.564-.771-.421-.191-.854-.388-1.3-.628a10.341,10.341,0,0,0-1.735,4.949c.584.06,1.055.072,1.549.084.362.01.737.019,1.173.048a.364.364,0,0,1,.337.322,14.115,14.115,0,0,0,1.032,3.783.361.361,0,0,1-.084.4c-.406.389-.73.757-1.045,1.113a12.8,12.8,0,0,1-1.005,1.057,8.924,8.924,0,0,0,2.493,3.259c.645-.7,1.135-1.212,1.831-1.933a.363.363,0,0,1,.394-.086l.344.136a13.853,13.853,0,0,0,3.145.973.365.365,0,0,1,.306.256,12.133,12.133,0,0,1,.495,2.654m.8-7.1a5.1,5.1,0,0,1-2.712-1.061,3.81,3.81,0,0,1-1.509-2.459,4.46,4.46,0,0,1,1.063-3.529,3.523,3.523,0,0,1,3.238-1.375,4.991,4.991,0,0,1,2.708,1.072,4.12,4.12,0,0,1,1.2,3.991,4.507,4.507,0,0,1-2.789,3.107,3.329,3.329,0,0,1-1.195.255m1.068-.6h0Zm-1.434-7.135a2.9,2.9,0,0,0-2.218,1.127,3.767,3.767,0,0,0-.92,2.962,3.13,3.13,0,0,0,1.188,1.971c1.9,1.239,2.558.994,3.257.734a3.823,3.823,0,0,0,2.336-2.6,3.378,3.378,0,0,0-.969-3.273,4.345,4.345,0,0,0-2.337-.9,2.176,2.176,0,0,0-.337-.025" transform="translate(-1.116 -7.302)"/>
        <path id="Trazado_715308" data-name="Trazado 715308" d="M69.895,272.363c-.2,7.675-.264,16.705-.3,24.382-10.539.1-21.009.072-31.479.045.256-7.367.173-16.938.129-24.3,10.425-.1,20.851-.2,31.654-.129" transform="translate(-1.206 -8.616)" fill="#fff"/>
        <path id="Trazado_715309" data-name="Trazado 715309" d="M52.652,297.167c-4.887,0-9.743-.013-14.524-.025H38.1a.364.364,0,0,1-.363-.377c.238-6.853.183-15.66.138-22.736l-.01-1.546a.364.364,0,0,1,.36-.366c10.253-.1,20.854-.2,31.66-.129a.364.364,0,0,1,.361.373c-.2,7.774-.267,17.11-.3,24.375a.364.364,0,0,1-.36.362c-5.636.053-11.3.07-16.93.07m-14.176-.751c10.059.026,20.45.052,30.741-.043.037-7.1.1-16.084.292-23.66-10.544-.067-20.894.031-30.915.127l.008,1.184c.044,6.955.1,15.579-.126,22.391" transform="translate(-1.194 -8.604)"/>
        <path id="Trazado_715310" data-name="Trazado 715310" d="M60.965,283.767c-.082,1.993-.11,4.337-.127,6.331-4.405.025-8.781.018-13.156.012.107-1.913.073-4.4.053-6.31,4.358-.025,8.715-.051,13.23-.033" transform="translate(-1.508 -8.977)" fill="#fff"/>
        <path id="Trazado_715311" data-name="Trazado 715311" d="M53.751,290.233c-2.044,0-4.074,0-6.073-.007a.121.121,0,0,1-.121-.128c.1-1.777.077-4.062.058-5.9l0-.4a.124.124,0,0,1,.121-.123c4.284-.025,8.715-.052,13.231-.033a.123.123,0,0,1,.087.037.122.122,0,0,1,.033.089c-.082,2-.11,4.321-.127,6.327a.121.121,0,0,1-.12.12c-2.359.014-4.73.018-7.085.018m-5.945-.249c4.224.007,8.586.014,12.908-.012.016-1.938.045-4.154.121-6.089-4.427-.017-8.774.008-12.981.033l0,.281c.018,1.8.041,4.021-.051,5.787" transform="translate(-1.504 -8.973)"/>
        <path id="Trazado_715312" data-name="Trazado 715312" d="M50.188,274.532q-.048,2.545-.095,5.09l7.846-.06a1.191,1.191,0,0,0,.577-.1.372.372,0,0,0,.156-.361q-.009-2.324-.016-4.648c-2.8.135-5.62.168-8.467.077" transform="translate(-1.585 -8.683)" fill="#acd4f7"/>
        <path id="Trazado_715313" data-name="Trazado 715313" d="M50.08,279.973a.362.362,0,0,1-.363-.37l.095-5.091a.364.364,0,0,1,.376-.356c2.734.087,5.574.061,8.438-.077a.364.364,0,0,1,.381.361l.016,4.649a.73.73,0,0,1-.327.672,1.473,1.473,0,0,1-.766.152l-7.847.06Zm.452-5.079-.081,4.349,7.473-.057a1.425,1.425,0,0,0,.37-.035c0-.013,0-.031,0-.059l-.015-4.27c-2.627.118-5.231.142-7.749.072" transform="translate(-1.573 -8.671)"/>
        <path id="Trazado_715314" data-name="Trazado 715314" d="M71.331,271.218,36.577,271.2l.009,5.118,34.781.03Z" transform="translate(-1.157 -8.58)" fill="#fff"/>
        <path id="Trazado_715315" data-name="Trazado 715315" d="M71.355,276.7h0l-34.781-.029a.364.364,0,0,1-.363-.363L36.2,271.19a.365.365,0,0,1,.364-.364l34.753.016a.364.364,0,0,1,.363.361l.036,5.131a.362.362,0,0,1-.363.366m-34.418-.756,34.052.029-.031-4.4-34.028-.016Z" transform="translate(-1.145 -8.568)"/>
        <path id="Trazado_715316" data-name="Trazado 715316" d="M83.846,298.684c-.294,11.35-.4,24.7-.456,36.053-15.824.147-31.544.107-47.265.067.384-10.894.26-25.045.194-35.93,15.654-.148,31.307-.3,47.527-.19" transform="translate(-1.143 -9.448)" fill="#fff"/>
        <path id="Trazado_715317" data-name="Trazado 715317" d="M57.949,335.192c-7.337,0-14.628-.018-21.807-.037h-.03a.364.364,0,0,1-.362-.377c.358-10.134.275-23.153.208-33.615l-.015-2.3a.364.364,0,0,1,.36-.366c15.408-.145,31.317-.3,47.533-.19a.362.362,0,0,1,.259.111.358.358,0,0,1,.1.262c-.3,11.5-.4,25.305-.456,36.045a.363.363,0,0,1-.36.361c-8.466.079-16.98.1-25.433.1m-21.459-.763c15.223.039,30.951.078,46.527-.064.055-10.576.157-24.025.444-35.332-15.962-.1-31.629.046-46.788.189l.013,1.938c.066,10.339.147,23.176-.2,33.269" transform="translate(-1.131 -9.436)"/>
        <path id="Trazado_715318" data-name="Trazado 715318" d="M70.439,315.546c-.123,2.948-.167,6.414-.191,9.361-6.613.039-13.183.028-19.754.017.161-2.829.108-6.5.08-9.329,6.542-.039,13.085-.077,19.864-.049" transform="translate(-1.597 -9.982)" fill="#fff"/>
        <path id="Trazado_715319" data-name="Trazado 715319" d="M59.629,325.052c-3.075,0-6.13,0-9.137-.01a.121.121,0,0,1-.121-.128c.149-2.628.114-6.007.087-8.721l-.007-.6a.122.122,0,0,1,.121-.123c6.427-.038,13.073-.076,19.865-.048a.123.123,0,0,1,.087.037.122.122,0,0,1,.033.089c-.124,2.984-.168,6.568-.191,9.357a.12.12,0,0,1-.12.12c-3.535.02-7.088.027-10.617.027m-9.01-.252c6.382.011,12.976.02,19.506-.016.023-2.734.066-6.2.185-9.121-6.7-.026-13.266.012-19.615.049l0,.478c.027,2.675.061,5.992-.08,8.61" transform="translate(-1.593 -9.978)"/>
        <path id="Trazado_715320" data-name="Trazado 715320" d="M54.257,302.8q-.071,2.976-.143,5.953l11.781-.07a2.252,2.252,0,0,0,.867-.115.4.4,0,0,0,.233-.422q-.012-2.718-.024-5.436c-4.209.158-8.439.2-12.714.091" transform="translate(-1.712 -9.576)" fill="#acd4f7"/>
        <path id="Trazado_715321" data-name="Trazado 715321" d="M54.1,309.1a.362.362,0,0,1-.26-.108.368.368,0,0,1-.1-.263l.143-5.953a.365.365,0,0,1,.113-.255.359.359,0,0,1,.26-.1c4.112.1,8.381.072,12.69-.091a.365.365,0,0,1,.378.362l.024,5.436a.762.762,0,0,1-.439.751,2.469,2.469,0,0,1-1.024.151l-11.78.07Zm.5-5.944-.126,5.215,11.406-.068a2.227,2.227,0,0,0,.712-.078.118.118,0,0,0,.028-.017h0v-.076L66.6,303.07c-4.071.146-8.1.175-12,.086" transform="translate(-1.7 -9.564)"/>
        <path id="Trazado_715322" data-name="Trazado 715322" d="M86,296.991l-52.181-.024.013,7.568,52.223.044Z" transform="translate(-1.07 -9.395)" fill="#fff"/>
        <path id="Trazado_715323" data-name="Trazado 715323" d="M86.046,304.931h0l-52.222-.044a.365.365,0,0,1-.364-.363l-.012-7.568a.364.364,0,0,1,.364-.364l52.181.024a.363.363,0,0,1,.363.36l.053,7.588a.364.364,0,0,1-.363.366m-51.86-.771,51.494.044-.048-6.86-51.457-.024Z" transform="translate(-1.058 -9.383)"/>
        <path id="Trazado_715324" data-name="Trazado 715324" d="M228.8,209.368H218.57a.121.121,0,1,1,0-.242H228.8a.121.121,0,1,1,0,.242" transform="translate(-6.911 -6.616)"/>
        <path id="Trazado_715325" data-name="Trazado 715325" d="M227.054,212.043h-6.62a.121.121,0,1,1,0-.242h6.62a.121.121,0,1,1,0,.242" transform="translate(-6.97 -6.7)"/>
        <path id="Trazado_715326" data-name="Trazado 715326" d="M157.014,181.386a17.518,17.518,0,0,0-16.581,5.04,18.012,18.012,0,0,0-4.193,16.051c1.421,6.368,7.966,11.228,13.016,11.806,8.2.938,14.932-2.734,17.026-5.094a17.577,17.577,0,0,0,4.177-15.839c-1.428-5.478-6.182-10.139-13.444-11.965" transform="translate(-4.296 -5.724)" fill="#fff"/>
        <path id="Trazado_715327" data-name="Trazado 715327" d="M151.854,214.783a23.329,23.329,0,0,1-2.65-.151c-5.27-.6-11.883-5.6-13.33-12.087a18.454,18.454,0,0,1,4.281-16.377,17.82,17.82,0,0,1,16.937-5.146c7.05,1.772,12.173,6.343,13.706,12.226a17.986,17.986,0,0,1-4.256,16.172c-2.135,2.407-7.863,5.364-14.688,5.364m1.314-33.511a17.278,17.278,0,0,0-12.479,5.39,17.717,17.717,0,0,0-4.1,15.724c1.379,6.182,7.681,10.949,12.7,11.524a23.192,23.192,0,0,0,2.642.151c7.129,0,12.455-3.3,14.07-5.125a17.252,17.252,0,0,0,4.1-15.505c-1.466-5.621-6.393-10-13.181-11.7a15.345,15.345,0,0,0-3.746-.455" transform="translate(-4.285 -5.712)"/>
        <rect id="Rectángulo_348791" data-name="Rectángulo 348791" width="33.464" height="0.242" transform="matrix(0.02, -1, 1, 0.02, 148.642, 208.678)"/>
        <path id="Trazado_715328" data-name="Trazado 715328" d="M170.616,194.425l-33.343-.613,0-.242,33.342.613Z" transform="translate(-4.343 -6.124)"/>
        <path id="Trazado_715329" data-name="Trazado 715329" d="M169.745,204.184l-33.343-.613,0-.242,33.342.613Z" transform="translate(-4.315 -6.432)"/>
        <path id="Trazado_715330" data-name="Trazado 715330" d="M153.761,214.3a.129.129,0,0,1-.039-.006c-3.771-1.262-6.645-4.113-8.541-8.473a20.608,20.608,0,0,1-1.1-14.118,17.7,17.7,0,0,1,9.609-10.922.118.118,0,0,1,.107,0c6.441,3.42,9.572,8.493,9.572,15.506,0,10.929-3.216,14.635-9.548,18a.134.134,0,0,1-.057.014m-.029-33.274a17.463,17.463,0,0,0-9.422,10.747,20.368,20.368,0,0,0,1.094,13.951c1.859,4.276,4.667,7.076,8.346,8.323,6.217-3.309,9.374-6.977,9.374-17.757,0-6.9-3.073-11.891-9.392-15.264" transform="translate(-4.533 -5.719)"/>
        <path id="Trazado_715331" data-name="Trazado 715331" d="M88.85,76.4l-.134,40.044,65.9-.031.134-39.8Z" transform="translate(-2.807 -2.417)" fill="#fff"/>
        <path id="Trazado_715332" data-name="Trazado 715332" d="M88.705,116.793a.364.364,0,0,1-.364-.364l.134-40.044a.364.364,0,0,1,.364-.362h0l65.9.209a.361.361,0,0,1,.257.107.366.366,0,0,1,.106.258l-.134,39.8a.363.363,0,0,1-.363.362Zm.5-40.042-.132,39.315,65.178-.03.131-39.077Z" transform="translate(-2.795 -2.405)"/>
        <path id="Trazado_715333" data-name="Trazado 715333" d="M112.715,85.641c-.023,1.609.083,3.356.059,4.966,2.033-.184,4.072-.052,6.113-.107-.1-1.615-.068-3.294-.167-4.909-1.934.12-4.128-.084-6.006.049" transform="translate(-3.566 -2.708)" fill="#fff"/>
        <path id="Trazado_715334" data-name="Trazado 715334" d="M112.77,90.724a.12.12,0,0,1-.121-.123c.012-.8-.01-1.654-.03-2.478s-.042-1.68-.03-2.488a.122.122,0,0,1,.112-.119c.963-.069,2.024-.048,3.05-.029.99.018,2.013.038,2.956-.02a.116.116,0,0,1,.088.03.121.121,0,0,1,.041.083c.049.811.067,1.65.083,2.462s.034,1.643.083,2.447a.121.121,0,0,1-.032.089.122.122,0,0,1-.086.04c-.759.02-1.53.015-2.276.01-1.257-.009-2.556-.018-3.829.1h-.011m.06-4.974c-.009.77.012,1.58.031,2.367s.04,1.586.031,2.354c1.241-.1,2.5-.095,3.719-.087.7,0,1.426.011,2.142-.006-.044-.77-.06-1.563-.076-2.332s-.032-1.562-.076-2.331c-.919.05-1.9.032-2.854.015-.982-.019-2-.038-2.918.02" transform="translate(-3.562 -2.704)"/>
        <path id="Trazado_715335" data-name="Trazado 715335" d="M123.147,85.641c-.023,1.609.083,3.356.059,4.966,2.033-.184,4.072-.052,6.112-.107-.1-1.615-.067-3.294-.166-4.909-1.934.12-4.128-.084-6.006.049" transform="translate(-3.896 -2.708)" fill="#fff"/>
        <path id="Trazado_715336" data-name="Trazado 715336" d="M123.2,90.724a.121.121,0,0,1-.121-.123c.012-.8-.01-1.654-.03-2.478s-.042-1.68-.03-2.488a.122.122,0,0,1,.112-.119c.963-.069,2.024-.048,3.05-.029.99.018,2.013.038,2.956-.02a.116.116,0,0,1,.088.03.121.121,0,0,1,.041.083c.049.811.067,1.65.083,2.462s.034,1.643.083,2.447a.121.121,0,0,1-.032.089.122.122,0,0,1-.086.04c-.759.02-1.53.015-2.276.01-1.257-.009-2.556-.018-3.829.1H123.2m.06-4.974c-.009.77.012,1.58.031,2.367s.04,1.586.032,2.354c1.24-.1,2.5-.095,3.719-.087.7,0,1.427.011,2.142-.006-.044-.77-.06-1.563-.076-2.332s-.032-1.562-.076-2.331c-.919.05-1.9.032-2.855.015-.982-.019-2-.038-2.918.02" transform="translate(-3.892 -2.704)"/>
        <path id="Trazado_715337" data-name="Trazado 715337" d="M133.58,85.641c-.023,1.609.083,3.356.059,4.966,2.033-.184,4.072-.052,6.113-.107-.1-1.615-.068-3.294-.167-4.909-1.934.12-4.128-.084-6.006.049" transform="translate(-4.226 -2.708)" fill="#acd4f7"/>
        <path id="Trazado_715338" data-name="Trazado 715338" d="M133.636,90.724a.121.121,0,0,1-.121-.123c.012-.8-.01-1.654-.03-2.478s-.042-1.68-.03-2.488a.122.122,0,0,1,.112-.119c.963-.069,2.024-.048,3.05-.029.99.018,2.013.038,2.956-.02a.116.116,0,0,1,.088.03.121.121,0,0,1,.041.083c.049.811.067,1.65.083,2.462s.034,1.643.083,2.447a.121.121,0,0,1-.032.089.122.122,0,0,1-.086.04c-.76.02-1.53.015-2.276.01-1.257-.009-2.556-.018-3.829.1h-.011m.06-4.974c-.009.77.012,1.58.031,2.367s.04,1.586.031,2.354c1.241-.1,2.5-.095,3.719-.087.7,0,1.426.011,2.142-.006-.044-.77-.06-1.563-.076-2.332s-.032-1.562-.076-2.331c-.92.05-1.9.032-2.855.015-.982-.019-2-.038-2.918.02" transform="translate(-4.222 -2.704)"/>
        <path id="Trazado_715339" data-name="Trazado 715339" d="M112.715,95.546c-.023,1.609.083,3.356.059,4.966,2.033-.184,4.072-.052,6.113-.107-.1-1.615-.068-3.293-.167-4.909-1.934.12-4.128-.084-6.006.049" transform="translate(-3.566 -3.021)" fill="#fff"/>
        <path id="Trazado_715340" data-name="Trazado 715340" d="M112.77,100.629a.12.12,0,0,1-.121-.123c.012-.8-.01-1.654-.03-2.478s-.042-1.68-.03-2.488a.122.122,0,0,1,.112-.119c.963-.068,2.024-.048,3.05-.029.99.018,2.013.039,2.956-.02a.121.121,0,0,1,.129.113c.049.811.067,1.65.083,2.462s.034,1.643.083,2.447a.121.121,0,0,1-.032.089.122.122,0,0,1-.086.04c-.759.02-1.53.015-2.276.01-1.257-.01-2.556-.018-3.829.1h-.011m.06-4.974c-.009.77.012,1.58.031,2.367s.04,1.586.031,2.353c1.241-.1,2.5-.094,3.719-.086.7,0,1.426.011,2.142-.006-.044-.77-.06-1.563-.076-2.332s-.032-1.562-.076-2.331c-.919.05-1.9.032-2.854.015-.982-.019-2-.038-2.918.02" transform="translate(-3.562 -3.017)"/>
        <path id="Trazado_715341" data-name="Trazado 715341" d="M123.147,95.546c-.023,1.609.083,3.356.059,4.966,2.033-.184,4.072-.052,6.112-.107-.1-1.615-.067-3.293-.166-4.909-1.934.12-4.128-.084-6.006.049" transform="translate(-3.896 -3.021)" fill="#acd4f7"/>
        <path id="Trazado_715342" data-name="Trazado 715342" d="M123.2,100.629a.121.121,0,0,1-.121-.123c.012-.8-.01-1.654-.03-2.478s-.042-1.68-.03-2.488a.122.122,0,0,1,.112-.119c.963-.068,2.024-.048,3.05-.029.99.018,2.013.039,2.956-.02a.121.121,0,0,1,.129.113c.049.811.067,1.65.083,2.462s.034,1.643.083,2.447a.121.121,0,0,1-.032.089.122.122,0,0,1-.086.04c-.759.02-1.53.015-2.276.01-1.257-.01-2.556-.018-3.829.1H123.2m.06-4.974c-.009.77.012,1.58.031,2.367s.04,1.586.032,2.353c1.24-.1,2.5-.094,3.719-.086.7,0,1.427.011,2.142-.006-.044-.77-.06-1.563-.076-2.332s-.032-1.562-.076-2.331c-.919.05-1.9.032-2.855.015-.982-.019-2-.038-2.918.02" transform="translate(-3.892 -3.017)"/>
        <path id="Trazado_715343" data-name="Trazado 715343" d="M133.58,95.546c-.023,1.609.083,3.356.059,4.966,2.033-.184,4.072-.052,6.113-.107-.1-1.615-.068-3.293-.167-4.909-1.934.12-4.128-.084-6.006.049" transform="translate(-4.226 -3.021)" fill="#fff"/>
        <path id="Trazado_715344" data-name="Trazado 715344" d="M133.636,100.629a.121.121,0,0,1-.121-.123c.012-.8-.01-1.654-.03-2.478s-.042-1.68-.03-2.488a.122.122,0,0,1,.112-.119c.963-.068,2.024-.048,3.05-.029.99.018,2.013.039,2.956-.02a.121.121,0,0,1,.129.113c.049.811.067,1.65.083,2.462s.034,1.643.083,2.447a.121.121,0,0,1-.032.089.122.122,0,0,1-.086.04c-.76.02-1.53.015-2.276.01-1.257-.01-2.556-.018-3.829.1h-.011m.06-4.974c-.009.77.012,1.58.031,2.367s.04,1.586.031,2.353c1.241-.1,2.5-.094,3.719-.086.7,0,1.426.011,2.142-.006-.044-.77-.06-1.563-.076-2.332s-.032-1.562-.076-2.331c-.92.05-1.9.032-2.855.015-.982-.019-2-.038-2.918.02" transform="translate(-4.222 -3.017)"/>
        <path id="Trazado_715345" data-name="Trazado 715345" d="M112.715,105.451c-.023,1.609.083,3.356.059,4.966,2.033-.184,4.072-.052,6.113-.107-.1-1.615-.068-3.293-.167-4.909-1.934.12-4.128-.084-6.006.049" transform="translate(-3.566 -3.334)" fill="#fff"/>
        <path id="Trazado_715346" data-name="Trazado 715346" d="M112.77,110.534a.12.12,0,0,1-.121-.123c.012-.8-.01-1.654-.03-2.478s-.042-1.68-.03-2.488a.122.122,0,0,1,.112-.119c.963-.069,2.024-.048,3.05-.029.99.018,2.013.039,2.956-.02a.121.121,0,0,1,.129.113c.049.811.067,1.65.083,2.462s.034,1.643.083,2.447a.121.121,0,0,1-.032.089.122.122,0,0,1-.086.04c-.759.02-1.53.015-2.276.01-1.257-.009-2.556-.018-3.829.1h-.011m.06-4.974c-.009.77.012,1.58.031,2.367s.04,1.586.031,2.353c1.241-.1,2.5-.094,3.719-.086.7,0,1.426.011,2.142-.006-.044-.77-.06-1.563-.076-2.332s-.032-1.562-.076-2.331c-.919.05-1.9.032-2.854.015-.982-.019-2-.038-2.918.02" transform="translate(-3.562 -3.33)"/>
        <path id="Trazado_715347" data-name="Trazado 715347" d="M123.147,105.451c-.023,1.609.083,3.356.059,4.966,2.033-.184,4.072-.052,6.112-.107-.1-1.615-.067-3.293-.166-4.909-1.934.12-4.128-.084-6.006.049" transform="translate(-3.896 -3.334)" fill="#fff"/>
        <path id="Trazado_715348" data-name="Trazado 715348" d="M123.2,110.534a.121.121,0,0,1-.121-.123c.012-.8-.01-1.654-.03-2.478s-.042-1.68-.03-2.488a.122.122,0,0,1,.112-.119c.963-.069,2.024-.048,3.05-.029.99.018,2.013.039,2.956-.02a.121.121,0,0,1,.129.113c.049.811.067,1.65.083,2.462s.034,1.643.083,2.447a.121.121,0,0,1-.032.089.122.122,0,0,1-.086.04c-.759.02-1.53.015-2.276.01-1.257-.009-2.556-.018-3.829.1H123.2m.06-4.974c-.009.77.012,1.58.031,2.367s.04,1.586.032,2.353c1.24-.1,2.5-.094,3.719-.086.7,0,1.427.011,2.142-.006-.044-.77-.06-1.563-.076-2.332s-.032-1.562-.076-2.331c-.919.05-1.9.032-2.855.015-.982-.019-2-.038-2.918.02" transform="translate(-3.892 -3.33)"/>
        <path id="Trazado_715349" data-name="Trazado 715349" d="M133.58,105.451c-.023,1.609.083,3.356.059,4.966,2.033-.184,4.072-.052,6.113-.107-.1-1.615-.068-3.293-.167-4.909-1.934.12-4.128-.084-6.006.049" transform="translate(-4.226 -3.334)" fill="#fff"/>
        <path id="Trazado_715350" data-name="Trazado 715350" d="M133.636,110.534a.121.121,0,0,1-.121-.123c.012-.8-.01-1.654-.03-2.478s-.042-1.68-.03-2.488a.122.122,0,0,1,.112-.119c.963-.069,2.024-.048,3.05-.029.99.018,2.013.039,2.956-.02a.121.121,0,0,1,.129.113c.049.811.067,1.65.083,2.462s.034,1.643.083,2.447a.121.121,0,0,1-.032.089.122.122,0,0,1-.086.04c-.76.02-1.53.015-2.276.01-1.257-.009-2.556-.018-3.829.1h-.011m.06-4.974c-.009.77.012,1.58.031,2.367s.04,1.586.031,2.353c1.241-.1,2.5-.094,3.719-.086.7,0,1.426.011,2.142-.006-.044-.77-.06-1.563-.076-2.332s-.032-1.562-.076-2.331c-.92.05-1.9.032-2.855.015-.982-.019-2-.038-2.918.02" transform="translate(-4.222 -3.33)"/>
        <path id="Trazado_715351" data-name="Trazado 715351" d="M144.093,85.641c-.023,1.609.083,3.356.059,4.966,2.033-.184,4.072-.052,6.113-.107-.1-1.615-.068-3.294-.167-4.909-1.934.12-4.128-.084-6.006.049" transform="translate(-4.558 -2.708)" fill="#acd4f7"/>
        <path id="Trazado_715352" data-name="Trazado 715352" d="M144.149,90.724a.121.121,0,0,1-.121-.123c.012-.8-.01-1.654-.03-2.478s-.042-1.68-.03-2.488a.122.122,0,0,1,.113-.119c.962-.069,2.023-.048,3.049-.029.99.018,2.013.038,2.956-.02a.117.117,0,0,1,.088.03.121.121,0,0,1,.041.083c.049.811.067,1.65.083,2.462s.034,1.643.083,2.447a.121.121,0,0,1-.032.089.122.122,0,0,1-.086.04c-.759.02-1.53.015-2.276.01-1.257-.009-2.556-.018-3.829.1h-.011m.06-4.974c-.009.77.012,1.58.031,2.367s.04,1.586.032,2.354c1.24-.1,2.5-.095,3.719-.087.7,0,1.427.011,2.142-.006-.044-.77-.06-1.563-.076-2.332s-.032-1.562-.076-2.331c-.92.05-1.9.032-2.855.015-.982-.019-2-.038-2.918.02" transform="translate(-4.554 -2.704)"/>
        <path id="Trazado_715353" data-name="Trazado 715353" d="M144.093,95.546c-.023,1.609.083,3.356.059,4.966,2.033-.184,4.072-.052,6.113-.107-.1-1.615-.068-3.293-.167-4.909-1.934.12-4.128-.084-6.006.049" transform="translate(-4.558 -3.021)" fill="#fff"/>
        <path id="Trazado_715354" data-name="Trazado 715354" d="M144.149,100.629a.121.121,0,0,1-.121-.123c.012-.8-.01-1.654-.03-2.478s-.042-1.68-.03-2.488a.122.122,0,0,1,.113-.119c.962-.068,2.023-.048,3.049-.029.99.018,2.013.039,2.956-.02a.121.121,0,0,1,.129.113c.049.811.067,1.65.083,2.462s.034,1.643.083,2.447a.121.121,0,0,1-.032.089.122.122,0,0,1-.086.04c-.759.02-1.53.015-2.276.01-1.257-.01-2.556-.018-3.829.1h-.011m.06-4.974c-.009.77.012,1.58.031,2.367s.04,1.586.032,2.353c1.24-.1,2.5-.094,3.719-.086.7,0,1.427.011,2.142-.006-.044-.77-.06-1.563-.076-2.332s-.032-1.562-.076-2.331c-.92.05-1.9.032-2.855.015-.982-.019-2-.038-2.918.02" transform="translate(-4.554 -3.017)"/>
        <path id="Trazado_715355" data-name="Trazado 715355" d="M144.093,105.451c-.023,1.609.083,3.356.059,4.966,2.033-.184,4.072-.052,6.113-.107-.1-1.615-.068-3.293-.167-4.909-1.934.12-4.128-.084-6.006.049" transform="translate(-4.558 -3.334)" fill="#fff"/>
        <path id="Trazado_715356" data-name="Trazado 715356" d="M144.149,110.534a.121.121,0,0,1-.121-.123c.012-.8-.01-1.654-.03-2.478s-.042-1.68-.03-2.488a.122.122,0,0,1,.113-.119c.962-.069,2.023-.048,3.049-.029.99.018,2.013.039,2.956-.02a.121.121,0,0,1,.129.113c.049.811.067,1.65.083,2.462s.034,1.643.083,2.447a.122.122,0,0,1-.118.129c-.759.02-1.53.015-2.276.01-1.257-.009-2.556-.018-3.829.1h-.011m.06-4.974c-.009.77.012,1.58.031,2.367s.04,1.586.032,2.353c1.24-.1,2.5-.094,3.719-.086.7,0,1.427.011,2.142-.006-.044-.77-.06-1.563-.076-2.332s-.032-1.562-.076-2.331c-.92.05-1.9.032-2.855.015-.982-.019-2-.038-2.918.02" transform="translate(-4.554 -3.33)"/>
        <path id="Trazado_715357" data-name="Trazado 715357" d="M100.731,94.491a.363.363,0,0,1-.363-.351c-.092-2.557-.156-5.13-.213-7.65a6.269,6.269,0,0,1-3.027,2.6.363.363,0,1,1-.262-.678,5.7,5.7,0,0,0,3.269-3.651.364.364,0,0,1,.712.1c.067,3.024.137,6.151.249,9.251a.365.365,0,0,1-.351.377h-.014" transform="translate(-3.057 -2.673)"/>
        <path id="Trazado_715358" data-name="Trazado 715358" d="M96.654,100.05a.364.364,0,0,1,0-.727l7.783-.031h0a.364.364,0,0,1,0,.727l-7.783.031Z" transform="translate(-3.046 -3.141)"/>
        <path id="Trazado_715359" data-name="Trazado 715359" d="M88.717,73.164l.123,6.376,65.915-.076V73.073Z" transform="translate(-2.807 -2.312)" fill="#acd4f7"/>
        <path id="Trazado_715360" data-name="Trazado 715360" d="M88.828,79.891a.363.363,0,0,1-.364-.356l-.122-6.376a.361.361,0,0,1,.1-.261.367.367,0,0,1,.26-.109l66.037-.091h0a.364.364,0,0,1,.363.364v6.391a.363.363,0,0,1-.363.364Zm.248-6.376.108,5.648,65.194-.075V73.425Z" transform="translate(-2.795 -2.3)"/>
        <path id="Trazado_715361" data-name="Trazado 715361" d="M106.714,76.278a.363.363,0,0,1-.313-.548c3.541-5.993,8.048-11.517,12.407-16.859l.628-.77c.887-1.087,1.944-2.247,3.264-2.247h.006c1.534,0,2.457,1.109,3.434,2.279q.153.183.311.371c3.473,4.094,8.71,11.367,12.361,16.758a.364.364,0,0,1-.6.408c-3.64-5.374-8.859-12.622-12.313-16.695-.107-.127-.212-.252-.316-.376-.939-1.125-1.682-2.014-2.877-2.017h0c-1,0-1.919,1.022-2.7,1.979l-.628.77c-4.341,5.321-8.831,10.823-12.345,16.768a.362.362,0,0,1-.313.179" transform="translate(-3.364 -1.767)"/>
        <path id="Trazado_715362" data-name="Trazado 715362" d="M55.29,215.255a.363.363,0,0,1-.363-.359l-.03-2.909a.363.363,0,0,1,.359-.367h0a.364.364,0,0,1,.364.359l.03,2.909a.363.363,0,0,1-.36.367Zm-.06-5.817a.364.364,0,0,1-.364-.359l-.03-2.909a.364.364,0,0,1,.727-.008l.03,2.909a.363.363,0,0,1-.359.367Zm-.061-5.817a.364.364,0,0,1-.363-.36l-.031-2.908a.364.364,0,0,1,.36-.367h0a.362.362,0,0,1,.363.359l.031,2.909a.364.364,0,0,1-.36.367Zm.864-5.6a.363.363,0,0,1-.284-.591,7.482,7.482,0,0,1,2.386-1.882.364.364,0,0,1,.336.645,6.779,6.779,0,0,0-2.155,1.692.361.361,0,0,1-.284.137m71.9-2.727h0l-2.909-.008a.364.364,0,0,1,0-.727h0l2.909.008a.364.364,0,0,1,0,.727m-66.892-.013a.363.363,0,0,1-.068-.72,8.738,8.738,0,0,1,1.638-.164h0l1.331,0a.363.363,0,0,1,0,.726h0l-1.329,0h0a8,8,0,0,0-1.5.15.34.34,0,0,1-.07.007m61.074,0h0l-2.909-.008a.364.364,0,0,1,0-.727h0l2.909.008a.364.364,0,0,1,0,.727m-5.817-.016h0l-2.909-.007a.364.364,0,0,1,0-.727h0l2.909.008a.363.363,0,0,1,0,.726m-5.818-.015h0l-2.908-.008a.364.364,0,0,1,0-.727h0l2.909.008a.364.364,0,1,1,0,.727m-5.817-.015h0l-2.909-.008a.364.364,0,0,1,0-.727h0l2.909.008a.364.364,0,0,1,0,.727m-5.818-.016h0l-2.908-.008a.364.364,0,0,1,0-.727l2.909.008a.364.364,0,1,1,0,.727m-5.817-.015h0l-2.909-.007a.364.364,0,0,1,0-.727h0l2.909.007a.364.364,0,0,1,0,.727m-5.818-.015h0L84.3,195.18a.364.364,0,1,1,0-.727h0l2.908.008a.364.364,0,0,1,0,.727m-5.817-.016h0l-2.909-.008a.364.364,0,0,1,0-.727h0l2.909.008a.364.364,0,1,1,0,.727m-5.817-.015h0l-2.909-.008a.364.364,0,0,1,0-.727h0l2.909.008a.364.364,0,0,1,0,.727m-5.818-.015h0l-2.909-.008a.364.364,0,0,1,0-.727h0l2.909.008a.364.364,0,0,1,0,.727" transform="translate(-1.733 -6.15)"/>
        <path id="Trazado_715363" data-name="Trazado 715363" d="M1014.337,294.41v0l-.022-2.431a.364.364,0,0,0-.727,0v0l.022,2.431a.364.364,0,0,0,.727,0m-.049-5.339v0l-.026-2.909a.364.364,0,0,0-.727,0v0l.027,2.909a.363.363,0,0,0,.726,0m-.052-5.817v0l-.027-2.909a.364.364,0,0,0-.367-.36.36.36,0,0,0-.36.367l.027,2.908a.364.364,0,0,0,.727,0m-.053-5.817v0l-.026-2.908a.364.364,0,0,0-.727,0v0l.026,2.909a.364.364,0,0,0,.727,0m-.053-5.817v0l-.026-2.909a.364.364,0,0,0-.727,0v0l.026,2.909a.364.364,0,0,0,.727,0m-.053-5.818v0l-.026-2.909a.364.364,0,0,0-.727,0v0l.027,2.909a.363.363,0,0,0,.726,0m-.052-5.817v0l-.026-2.909a.364.364,0,0,0-.727,0v0l.026,2.908a.364.364,0,0,0,.727,0m-.053-5.817v0l-.026-2.908a.364.364,0,0,0-.727,0v0l.026,2.909a.364.364,0,0,0,.727,0m-.053-5.817v0l-.026-2.909a.364.364,0,0,0-.727,0v0l.026,2.909a.364.364,0,0,0,.727,0m-.052-5.818v0l-.027-2.909a.364.364,0,0,0-.727,0v0l.027,2.909a.364.364,0,0,0,.727,0m-.053-5.817v0l-.026-2.909a.364.364,0,0,0-.728,0v0l.027,2.909a.364.364,0,0,0,.727,0m-.053-5.817v0l-.026-2.908a.364.364,0,0,0-.727,0v0l.026,2.908a.364.364,0,0,0,.727,0m-.052-5.817v0l-.027-2.908a.364.364,0,0,0-.727,0v0l.027,2.908a.364.364,0,0,0,.727,0m-.053-5.818v0l-.026-2.908a.364.364,0,0,0-.728,0v0l.027,2.909a.364.364,0,0,0,.727,0m-.053-5.817v0l-.026-2.909a.364.364,0,0,0-.727,0v0l.026,2.909a.364.364,0,0,0,.727,0m-.053-5.817v0l-.016-1.721c0-.41-.022-.818-.055-1.213a.363.363,0,1,0-.724.059c.031.379.048.769.052,1.161l.015,1.72a.364.364,0,0,0,.727,0m-.611-5.76a.369.369,0,0,0-.016-.11,8.744,8.744,0,0,0-1.371-2.689.364.364,0,1,0-.576.444,8.014,8.014,0,0,1,1.254,2.466.363.363,0,0,0,.71-.11m-3.524-4.424a.363.363,0,0,0-.2-.324,8.281,8.281,0,0,0-2.905-.831.364.364,0,0,0-.077.723,7.558,7.558,0,0,1,2.651.755.363.363,0,0,0,.529-.323m-5.68-.785a.364.364,0,0,0-.361-.364l-2.908-.023a.363.363,0,0,0-.366.361v0a.363.363,0,0,0,.36.363l2.908.023a.364.364,0,0,0,.367-.36Zm-5.817-.046a.364.364,0,0,0-.361-.364l-2.909-.023a.364.364,0,0,0-.366.361v0a.363.363,0,0,0,.36.363l2.909.023a.363.363,0,0,0,.367-.36Zm-5.818-.046a.363.363,0,0,0-.36-.363l-2.909-.023a.363.363,0,0,0-.366.36v0a.364.364,0,0,0,.36.364l2.909.023a.364.364,0,0,0,.366-.361Zm-5.817-.046a.364.364,0,0,0-.361-.363l-2.908-.023a.363.363,0,0,0-.366.36v0a.364.364,0,0,0,.36.364l2.909.023a.363.363,0,0,0,.366-.361Zm-5.817-.046a.363.363,0,0,0-.361-.363l-2.908-.023a.364.364,0,0,0-.367.361v0a.364.364,0,0,0,.361.364l2.908.023a.364.364,0,0,0,.367-.361Zm-5.817-.046a.364.364,0,0,0-.361-.364l-2.909-.023a.364.364,0,0,0-.366.361v0a.363.363,0,0,0,.36.363l2.909.023a.364.364,0,0,0,.367-.361Zm-5.818-.046a.364.364,0,0,0-.36-.364L965.558,196a.363.363,0,0,0-.366.361v0a.363.363,0,0,0,.36.363l2.909.023a.363.363,0,0,0,.366-.36Zm-5.817-.046a.364.364,0,0,0-.36-.364l-2.909-.022a.363.363,0,0,0-.367.36v0a.364.364,0,0,0,.361.364l2.909.022a.363.363,0,0,0,.366-.36Z" transform="translate(-30.35 -6.199)"/>
        <path id="Trazado_715364" data-name="Trazado 715364" d="M43.44,128.136a.364.364,0,0,1-.364-.359l-.032-2.909a.362.362,0,0,1,.359-.367h0a.364.364,0,0,1,.364.359l.032,2.908a.363.363,0,0,1-.359.368Zm-.066-5.817a.363.363,0,0,1-.363-.359l-.033-2.909a.364.364,0,0,1,.727-.008l.033,2.908a.364.364,0,0,1-.359.368Zm-.065-5.817a.365.365,0,0,1-.364-.359l-.033-2.909a.365.365,0,0,1,.36-.368h0a.364.364,0,0,1,.363.36l.033,2.908a.365.365,0,0,1-.359.368Zm-.066-5.817a.364.364,0,0,1-.363-.36l-.033-2.908a.365.365,0,0,1,.359-.368.373.373,0,0,1,.368.359l.033,2.909a.365.365,0,0,1-.36.368Zm.035-5.815a.307.307,0,0,1-.042,0,.363.363,0,0,1-.32-.4,8.622,8.622,0,0,1,.809-2.911.364.364,0,0,1,.65.326,7.9,7.9,0,0,0-.736,2.666.363.363,0,0,1-.361.322m2.684-4.927a.363.363,0,0,1-.195-.67,7.2,7.2,0,0,1,2.868-1,.364.364,0,0,1,.1.72,6.492,6.492,0,0,0-2.581.889.357.357,0,0,1-.195.056m35.057-.791h0l-.343,0a.365.365,0,0,1-.361-.367.356.356,0,0,1,.367-.36l.343,0a.363.363,0,0,1,0,.726m-3.252-.025h0L74.856,99.1a.364.364,0,0,1-.361-.367.355.355,0,0,1,.366-.36l2.909.023a.364.364,0,0,1,0,.727m-5.817-.047h0l-2.909-.023a.363.363,0,0,1-.36-.366.356.356,0,0,1,.366-.361l2.909.023a.364.364,0,0,1,0,.727m-5.817-.046h0l-2.909-.023a.365.365,0,0,1-.361-.366.355.355,0,0,1,.367-.361l2.908.023a.364.364,0,0,1,0,.727m-5.818-.046h0L57.4,98.963a.364.364,0,0,1-.361-.366.37.37,0,0,1,.367-.361l2.908.023a.364.364,0,0,1,0,.727M54.5,98.939h0l-2.909-.023a.364.364,0,0,1-.36-.367.37.37,0,0,1,.366-.36l2.909.023a.364.364,0,0,1,0,.727" transform="translate(-1.355 -3.106)"/>
        <path id="Trazado_715365" data-name="Trazado 715365" d="M11.13,14.977A11.225,11.225,0,0,0,.741,22.962,11.243,11.243,0,0,0,5.5,35.172a11.263,11.263,0,0,0,13.061-1.121A11.281,11.281,0,0,0,21.2,21.207c-1.987-4.243-6.85-6.266-10.071-6.23" transform="translate(-0.012 -0.474)" fill="#fff"/>
        <path id="Trazado_715366" data-name="Trazado 715366" d="M11.188,37.091A11.166,11.166,0,0,1,5.3,35.469,11.653,11.653,0,0,1,.379,22.852,11.629,11.629,0,0,1,11.114,14.6h.092a11.987,11.987,0,0,1,10.312,6.44A11.7,11.7,0,0,1,18.792,34.31a11.492,11.492,0,0,1-7.6,2.781m.021-21.763h-.087A10.879,10.879,0,0,0,1.08,23.047a10.9,10.9,0,0,0,4.6,11.8,10.93,10.93,0,0,0,12.628-1.084A10.952,10.952,0,0,0,20.86,21.349a11.218,11.218,0,0,0-9.651-6.02m-.091-.363h0Z" transform="translate(0 -0.462)"/>
        <path id="Trazado_715367" data-name="Trazado 715367" d="M11.26,31.572a5.23,5.23,0,0,1-1.906-.334,2.615,2.615,0,0,1-1.766-1.913.364.364,0,0,1,.721-.1,1.935,1.935,0,0,0,1.312,1.333,4.979,4.979,0,0,0,2.5.219,3.28,3.28,0,0,0,2.421-1.294,1.664,1.664,0,0,0-.468-1.927,5.955,5.955,0,0,0-2.514-1.333c-.186-.056-.377-.11-.568-.165a5.853,5.853,0,0,1-2.5-1.138,1.915,1.915,0,0,1-.566-1.8,2.643,2.643,0,0,1,1.7-1.87,4.282,4.282,0,0,1,4.562,1.13.364.364,0,0,1-.575.446,3.546,3.546,0,0,0-3.73-.9,1.914,1.914,0,0,0-1.247,1.334A1.188,1.188,0,0,0,8.99,24.4a5.389,5.389,0,0,0,2.2.964c.2.055.391.11.583.168a6.565,6.565,0,0,1,2.819,1.517,2.365,2.365,0,0,1,.59,2.784A3.926,3.926,0,0,1,12.225,31.5a6.7,6.7,0,0,1-.965.072" transform="translate(-0.24 -0.665)"/>
        <path id="Trazado_715368" data-name="Trazado 715368" d="M11.136,21.6a.363.363,0,0,1-.363-.352l-.067-2.133a.364.364,0,0,1,.727-.023l.067,2.134a.365.365,0,0,1-.352.375h-.012" transform="translate(-0.339 -0.593)"/>
        <path id="Trazado_715369" data-name="Trazado 715369" d="M11.813,34.169a.363.363,0,0,1-.363-.354L11.4,31.68a.364.364,0,0,1,.354-.373h.01a.363.363,0,0,1,.363.354l.051,2.135a.364.364,0,0,1-.355.372Z" transform="translate(-0.361 -0.99)"/>
        <path id="Trazado_715370" data-name="Trazado 715370" d="M157.222,302.742a2.668,2.668,0,0,1-.648-.077c-1.5-.371-2.032-1.9-2.3-3.022-1.185-4.932-2.191-9.963-2.99-14.951a.364.364,0,0,1,.719-.115c.8,4.971,1.8,9.982,2.979,14.9.243,1.014.664,2.213,1.767,2.486A2.435,2.435,0,0,0,158,301.9a3.753,3.753,0,0,0,2.29-2.076,8.981,8.981,0,0,0,.64-3.047,116.656,116.656,0,0,0,.441-15.593c-.039-.888-.18-1.547-.744-1.884a3.278,3.278,0,0,0-1.771-.23,5.28,5.28,0,0,0-2.557.549c-1.042.682-1.108,2.023-1.088,3.227a121.828,121.828,0,0,0,1.484,13.283.364.364,0,0,1-.7.183,119.663,119.663,0,0,1-1.508-13.453c-.024-1.5.131-3.006,1.418-3.847a5.822,5.822,0,0,1,2.922-.668,3.84,3.84,0,0,1,2.178.333,2.844,2.844,0,0,1,1.1,2.478,117.29,117.29,0,0,1-.443,15.689,9.876,9.876,0,0,1-.7,3.287,4.482,4.482,0,0,1-2.743,2.468,3.493,3.493,0,0,1-.982.149" transform="translate(-4.786 -8.805)"/>
        <path id="Trazado_715371" data-name="Trazado 715371" d="M299.967,243.946a2.342,2.342,0,1,1,2.342,2.342,2.342,2.342,0,0,1-2.342-2.342" transform="translate(-9.49 -7.643)" fill="#fff"/>
        <path id="Trazado_715372" data-name="Trazado 715372" d="M302.3,246.641A2.706,2.706,0,1,1,305,243.935a2.709,2.709,0,0,1-2.707,2.707m0-4.685a1.979,1.979,0,1,0,1.979,1.978,1.981,1.981,0,0,0-1.979-1.978" transform="translate(-9.478 -7.631)"/>
        <path id="Trazado_715373" data-name="Trazado 715373" d="M968.871,128.664a2.342,2.342,0,1,1,2.343,2.342,2.342,2.342,0,0,1-2.343-2.342" transform="translate(-30.651 -3.996)" fill="#fff"/>
        <path id="Trazado_715374" data-name="Trazado 715374" d="M971.2,131.359a2.706,2.706,0,1,1,2.706-2.707,2.709,2.709,0,0,1-2.706,2.707m0-4.685a1.979,1.979,0,1,0,1.978,1.978,1.982,1.982,0,0,0-1.978-1.978" transform="translate(-30.639 -3.984)"/>
        <path id="Trazado_715375" data-name="Trazado 715375" d="M15.908,133.761q.154,12.788.309,25.575a73.892,73.892,0,0,1-.834,14.963s50.769.482,50.8.258c3.867-3.467,2.217-17.978,1.935-41.295Z" transform="translate(-0.487 -4.216)" fill="#fff"/>
        <path id="Trazado_715376" data-name="Trazado 715376" d="M61.414,174.967c-.932,0-2,0-3.194,0-4.216-.012-10.091-.046-17.463-.1-12.552-.092-25.263-.212-25.39-.213a.363.363,0,0,1-.353-.433,73.754,73.754,0,0,0,.827-14.89l-.309-25.575a.364.364,0,0,1,.36-.368l52.211-.5h0a.363.363,0,0,1,.363.359c.067,5.535.212,10.61.34,15.089.418,14.651.673,23.552-2.307,26.4-.079.213-.4.215-2.521.228-.69,0-1.549.006-2.569.006m4.5-.68a.349.349,0,0,0-.1.2.366.366,0,0,1,.1-.2m-50.108-.36c16.894.16,48.128.413,50.2.274,2.739-2.632,2.474-11.894,2.075-25.847-.125-4.383-.266-9.338-.335-14.739l-51.484.492.3,25.211a76.545,76.545,0,0,1-.76,14.608" transform="translate(-0.475 -4.204)"/>
        <path id="Trazado_715377" data-name="Trazado 715377" d="M25.7,146.472H25.7a.366.366,0,0,1-.306-.178l-2.085-3.511a.364.364,0,1,1,.626-.372l1.786,3.008,1.939-3a.363.363,0,1,1,.61.4L26.008,146.3a.361.361,0,0,1-.305.167" transform="translate(-0.736 -4.5)"/>
        <path id="Trazado_715378" data-name="Trazado 715378" d="M25.7,156.1H25.7a.366.366,0,0,1-.306-.178l-2.085-3.511a.364.364,0,1,1,.626-.372l1.786,3.008,1.939-3a.363.363,0,1,1,.61.4l-2.257,3.492a.361.361,0,0,1-.305.167" transform="translate(-0.736 -4.804)"/>
        <path id="Trazado_715379" data-name="Trazado 715379" d="M25.7,165.742H25.7a.366.366,0,0,1-.306-.178l-2.085-3.511a.364.364,0,1,1,.626-.372l1.786,3.008,1.939-3a.363.363,0,1,1,.61.4l-2.257,3.492a.361.361,0,0,1-.305.167" transform="translate(-0.736 -5.109)"/>
        <path id="Trazado_715380" data-name="Trazado 715380" d="M35.64,130.378a26.4,26.4,0,0,1,.088,5.863,71.04,71.04,0,0,0,14.784.122c.7-1.544.441-4.708.224-6.018Z" transform="translate(-1.127 -4.124)" fill="#acd4f7"/>
        <path id="Trazado_715381" data-name="Trazado 715381" d="M43.694,137.041a71.485,71.485,0,0,1-8.018-.45.363.363,0,0,1-.321-.4,25.946,25.946,0,0,0-.087-5.784.366.366,0,0,1,.088-.286.361.361,0,0,1,.272-.123l15.1-.033h0a.364.364,0,0,1,.358.3c.192,1.156.519,4.529-.251,6.229a.367.367,0,0,1-.3.212c-2.272.218-4.557.327-6.841.327m-7.583-1.134a70.8,70.8,0,0,0,14.136.1,13.427,13.427,0,0,0,.166-5.312l-14.375.031a26.71,26.71,0,0,1,.074,5.179" transform="translate(-1.116 -4.112)"/>
        <path id="Trazado_715382" data-name="Trazado 715382" d="M58.1,144.717H33.633a.121.121,0,1,1,0-.242H58.1a.121.121,0,1,1,0,.242" transform="translate(-1.06 -4.571)"/>
        <path id="Trazado_715383" data-name="Trazado 715383" d="M58.1,154.171H33.633a.121.121,0,0,1,0-.242H58.1a.121.121,0,1,1,0,.242" transform="translate(-1.06 -4.87)"/>
        <path id="Trazado_715384" data-name="Trazado 715384" d="M58.1,163.808H33.633a.121.121,0,0,1,0-.242H58.1a.121.121,0,1,1,0,.242" transform="translate(-1.06 -5.175)"/>
        <path id="Trazado_715385" data-name="Trazado 715385" d="M214.934,246.814a4.97,4.97,0,1,1,4.97,4.97,4.969,4.969,0,0,1-4.97-4.97" transform="translate(-6.8 -7.651)" fill="#fff"/>
        <path id="Trazado_715386" data-name="Trazado 715386" d="M219.892,252.137a5.334,5.334,0,1,1,5.334-5.334,5.34,5.34,0,0,1-5.334,5.334m0-9.94A4.607,4.607,0,1,0,224.5,246.8a4.612,4.612,0,0,0-4.607-4.607" transform="translate(-6.788 -7.639)"/>
        <path id="Trazado_715387" data-name="Trazado 715387" d="M220.173,249.551h0a.123.123,0,0,1-.108-.072l-1.789-4a.121.121,0,0,1,.108-.171l3.709-.052h0a.122.122,0,0,1,.1.056.123.123,0,0,1,.008.117l-1.92,4.05a.122.122,0,0,1-.109.07m-1.6-4,1.606,3.59L221.9,245.5Z" transform="translate(-6.905 -7.759)"/>
        <path id="Trazado_715388" data-name="Trazado 715388" d="M980.719,149.7a4.97,4.97,0,1,1,4.97,4.97,4.969,4.969,0,0,1-4.97-4.97" transform="translate(-31.026 -4.579)" fill="#fff"/>
        <path id="Trazado_715389" data-name="Trazado 715389" d="M985.678,155.018a5.334,5.334,0,1,1,5.334-5.334,5.34,5.34,0,0,1-5.334,5.334m0-9.94a4.607,4.607,0,1,0,4.607,4.607,4.612,4.612,0,0,0-4.607-4.607" transform="translate(-31.014 -4.567)"/>
        <path id="Trazado_715390" data-name="Trazado 715390" d="M985.958,152.432h0a.123.123,0,0,1-.109-.072l-1.789-4a.122.122,0,0,1,.108-.171l3.709-.052a.112.112,0,0,1,.1.055.125.125,0,0,1,.008.118l-1.92,4.05a.122.122,0,0,1-.109.07m-1.6-4,1.606,3.589,1.724-3.636Z" transform="translate(-31.131 -4.686)"/>
        <path id="Trazado_715391" data-name="Trazado 715391" d="M971.482,301.357c11.129-.491,23.006-.529,34.046-.077,0,13.151.262,21.576-.92,34.235-.3,3.232-1.766,10.35-10.275,10.35-8.569-.139-16.956-1.275-25.7-1.707,4.157-14.09,2.559-28.341,2.852-42.8" transform="translate(-30.643 -9.521)" fill="#fff"/>
        <path id="Trazado_715392" data-name="Trazado 715392" d="M994.32,346.215c-4.983-.08-10-.505-14.848-.916-3.539-.3-7.2-.61-10.873-.791a.364.364,0,0,1-.33-.467c3.112-10.549,2.985-20.965,2.851-31.992-.043-3.5-.086-7.127-.015-10.712a.363.363,0,0,1,.348-.355c11.317-.5,23.1-.526,34.078-.078a.365.365,0,0,1,.349.364c0,2.106.007,4.091.014,5.991a266.735,266.735,0,0,1-.935,28.276c-.373,3.989-2.25,10.68-10.637,10.68m-25.225-2.41c3.53.184,7.04.481,10.439.769,4.837.411,9.84.834,14.792.914,7.806,0,9.559-6.278,9.907-10.021a266.069,266.069,0,0,0,.933-28.206c-.007-1.8-.013-3.667-.014-5.646-10.746-.428-22.254-.4-33.326.077-.063,3.462-.02,6.961.021,10.347.128,10.449.258,21.249-2.752,31.764" transform="translate(-30.631 -9.509)"/>
        <path id="Trazado_715393" data-name="Trazado 715393" d="M958.408,337.569c10.756-.188,21.515-.11,32.074.048-1.7,5.817,1.669,9.52,3.51,9.4-10.051-.092-19.789,0-30.039,0-1.893-.249-4.388-1.07-5.42-3.681a7.366,7.366,0,0,1-.126-5.77" transform="translate(-30.303 -10.676)" fill="#fff"/>
        <path id="Trazado_715394" data-name="Trazado 715394" d="M993.895,347.373c-.042,0-.085,0-.128,0-6.585-.059-12.91-.039-19.6-.018-3.371.01-6.769.02-10.224.02l-.047,0c-2.874-.378-4.849-1.729-5.711-3.907a7.793,7.793,0,0,1-.12-6.052.365.365,0,0,1,.325-.215c9.229-.161,19.124-.146,32.087.048a.364.364,0,0,1,.344.466,8.441,8.441,0,0,0,1.031,7.628,3.216,3.216,0,0,0,1.938,1.306l.2,0a.364.364,0,0,1,.019.726l-.108,0m-35.257-9.456a7.193,7.193,0,0,0,.222,5.277c.955,2.413,3.3,3.209,5.106,3.451,3.446,0,6.835-.011,10.2-.021,6.131-.019,11.954-.037,17.951,0a5.4,5.4,0,0,1-.83-.839A9,9,0,0,1,990,337.962c-12.614-.187-22.317-.2-31.359-.046" transform="translate(-30.291 -10.664)"/>
        <path id="Trazado_715395" data-name="Trazado 715395" d="M978.254,320.158a1.889,1.889,0,0,0-1.716,1.129,1.65,1.65,0,0,0,1,2.239,1.869,1.869,0,0,0,2.227-1.228,1.753,1.753,0,0,0-1.509-2.14" transform="translate(-30.888 -10.128)" fill="#acd4f7"/>
        <path id="Trazado_715396" data-name="Trazado 715396" d="M977.974,323.943a1.9,1.9,0,0,1-.555-.08,2.025,2.025,0,0,1-1.255-1.166,1.864,1.864,0,0,1,.041-1.592,2.264,2.264,0,0,1,2.042-1.322,1.892,1.892,0,0,1,1.476.812,2.115,2.115,0,0,1,.376,1.794,2.185,2.185,0,0,1-1.066,1.278,2.234,2.234,0,0,1-1.058.275m.238-3.433a1.561,1.561,0,0,0-1.365.936,1.136,1.136,0,0,0-.012.969,1.293,1.293,0,0,0,.792.75,1.4,1.4,0,0,0,1.058-.138,1.454,1.454,0,0,0,.716-.843,1.4,1.4,0,0,0-.265-1.158,1.168,1.168,0,0,0-.9-.517s-.016,0-.023,0" transform="translate(-30.877 -10.117)"/>
        <path id="Trazado_715397" data-name="Trazado 715397" d="M978.254,310.865a1.889,1.889,0,0,0-1.716,1.129,1.65,1.65,0,0,0,1,2.239,1.869,1.869,0,0,0,2.227-1.228,1.753,1.753,0,0,0-1.509-2.14" transform="translate(-30.888 -9.834)" fill="#acd4f7"/>
        <path id="Trazado_715398" data-name="Trazado 715398" d="M977.975,314.649a1.943,1.943,0,0,1-.556-.079,2.023,2.023,0,0,1-1.254-1.167,1.857,1.857,0,0,1,.04-1.592,2.233,2.233,0,0,1,2.042-1.322h0a1.889,1.889,0,0,1,1.474.813,2.106,2.106,0,0,1,.377,1.793,2.179,2.179,0,0,1-1.066,1.278,2.228,2.228,0,0,1-1.057.275m.237-3.433a1.564,1.564,0,0,0-1.365.936,1.134,1.134,0,0,0-.011.97,1.29,1.29,0,0,0,.791.75,1.4,1.4,0,0,0,1.058-.138,1.451,1.451,0,0,0,.716-.843,1.4,1.4,0,0,0-.264-1.158,1.17,1.17,0,0,0-.9-.517h-.024" transform="translate(-30.877 -9.823)"/>
        <path id="Trazado_715399" data-name="Trazado 715399" d="M978.254,329.281a1.889,1.889,0,0,0-1.716,1.129,1.65,1.65,0,0,0,1,2.239,1.869,1.869,0,0,0,2.227-1.228,1.753,1.753,0,0,0-1.509-2.14" transform="translate(-30.888 -10.417)" fill="#acd4f7"/>
        <path id="Trazado_715400" data-name="Trazado 715400" d="M977.974,333.066a1.936,1.936,0,0,1-.555-.079,2.026,2.026,0,0,1-1.255-1.167,1.864,1.864,0,0,1,.041-1.592,2.25,2.25,0,0,1,2.007-1.322h.035a1.892,1.892,0,0,1,1.476.812,2.115,2.115,0,0,1,.376,1.794,2.185,2.185,0,0,1-1.066,1.278,2.234,2.234,0,0,1-1.058.275m.238-3.433a1.561,1.561,0,0,0-1.365.936,1.135,1.135,0,0,0-.012.969,1.293,1.293,0,0,0,.792.75,1.4,1.4,0,0,0,1.058-.138,1.451,1.451,0,0,0,.716-.843,1.4,1.4,0,0,0-.265-1.158,1.168,1.168,0,0,0-.9-.517s-.016,0-.023,0" transform="translate(-30.877 -10.405)"/>
        <path id="Trazado_715401" data-name="Trazado 715401" d="M998.374,312.755H983.24a.121.121,0,1,1,0-.242h15.134a.121.121,0,1,1,0,.242" transform="translate(-31.102 -9.887)"/>
        <path id="Trazado_715402" data-name="Trazado 715402" d="M998.374,322.048H983.24a.121.121,0,1,1,0-.242h15.134a.121.121,0,1,1,0,.242" transform="translate(-31.102 -10.181)"/>
        <path id="Trazado_715403" data-name="Trazado 715403" d="M998.374,331.171H983.24a.121.121,0,1,1,0-.242h15.134a.121.121,0,1,1,0,.242" transform="translate(-31.102 -10.469)"/>
        <path id="Trazado_715404" data-name="Trazado 715404" d="M992.289,306.63a12.907,12.907,0,1,1,12.9,12.651,12.779,12.779,0,0,1-12.9-12.651" transform="translate(-31.392 -9.3)" fill="#fff"/>
        <path id="Trazado_715405" data-name="Trazado 715405" d="M1005.182,319.634a13.017,13.017,0,1,1,13.269-13.015,13.158,13.158,0,0,1-13.269,13.015m0-25.3a12.29,12.29,0,1,0,12.541,12.288,12.43,12.43,0,0,0-12.541-12.288" transform="translate(-31.38 -9.288)"/>
        <path id="Trazado_715406" data-name="Trazado 715406" d="M1005.706,309.353h-.009a.365.365,0,0,1-.27-.131l-4.313-5.175a.363.363,0,0,1,.559-.465l4.046,4.854,5.641-6.159a.364.364,0,0,1,.536.491l-5.922,6.466a.363.363,0,0,1-.268.118" transform="translate(-31.668 -9.559)"/>
        <path id="Trazado_715407" data-name="Trazado 715407" d="M1005.611,297.161a.121.121,0,0,1-.121-.121v-1.818a.121.121,0,1,1,.242,0v1.818a.121.121,0,0,1-.121.121" transform="translate(-31.809 -9.336)"/>
        <path id="Trazado_715408" data-name="Trazado 715408" d="M1005.611,318.918a.121.121,0,0,1-.121-.121v-1.818a.121.121,0,1,1,.242,0V318.8a.121.121,0,0,1-.121.121" transform="translate(-31.809 -10.024)"/>
        <path id="Trazado_715409" data-name="Trazado 715409" d="M1017.6,307.161h-1.853a.121.121,0,1,1,0-.242h1.853a.121.121,0,1,1,0,.242" transform="translate(-32.13 -9.71)"/>
        <path id="Trazado_715410" data-name="Trazado 715410" d="M995.412,307.161h-1.853a.121.121,0,1,1,0-.242h1.853a.121.121,0,0,1,0,.242" transform="translate(-31.428 -9.71)"/>
        <path id="Trazado_715411" data-name="Trazado 715411" d="M889.575,317.695c1.451.324,4.955-.015,6.229-1.923a6.443,6.443,0,0,0,.043-6.942,72.261,72.261,0,0,1,7.486-3.392c-.118.741,1.617,2.991,3.688,3.746a6.607,6.607,0,0,0,8.207-2.541,52.556,52.556,0,0,1,6.377,5.873,6.356,6.356,0,0,0-1.73,6.65,6.874,6.874,0,0,0,5.575,4.339,30.8,30.8,0,0,1-2.264,7.357c-1.7-.5-3.59-.981-5.19-.22a4.759,4.759,0,0,0-2.4,3.195,17.534,17.534,0,0,0-.264,4.19,43.94,43.94,0,0,1-7.461,1.78,6.1,6.1,0,0,0-2.413-3.835,3.916,3.916,0,0,0-2.33-.828,5.287,5.287,0,0,0-2.262.738,5.969,5.969,0,0,0-2.792,2.455,26.736,26.736,0,0,1-5.614-4.2,7.518,7.518,0,0,0,2.09-4.694,3.491,3.491,0,0,0-.237-1.693,3.927,3.927,0,0,0-2.447-1.822,12.327,12.327,0,0,0-3.526-.627,35.994,35.994,0,0,1,1.235-7.6" transform="translate(-28.103 -9.663)" fill="#fff"/>
        <path id="Trazado_715412" data-name="Trazado 715412" d="M907.858,340.157a.364.364,0,0,1-.357-.3,5.721,5.721,0,0,0-2.268-3.6,3.564,3.564,0,0,0-2.109-.758,4.954,4.954,0,0,0-2.1.7,5.626,5.626,0,0,0-2.635,2.3.365.365,0,0,1-.507.15,27.1,27.1,0,0,1-5.689-4.26.364.364,0,0,1,0-.509,7.191,7.191,0,0,0,1.988-4.464,3.094,3.094,0,0,0-.2-1.517,3.484,3.484,0,0,0-2.233-1.629,11.994,11.994,0,0,0-3.422-.608.364.364,0,0,1-.351-.382,36.4,36.4,0,0,1,1.247-7.681.362.362,0,0,1,.43-.26c1.379.308,4.69-.038,5.846-1.771A6.16,6.16,0,0,0,895.52,309a.364.364,0,0,1,.12-.493,44.9,44.9,0,0,1,5.482-2.549c.675-.284,1.366-.573,2.055-.869a.363.363,0,0,1,.5.39c-.075.47,1.423,2.608,3.452,3.347a6.223,6.223,0,0,0,7.778-2.4.366.366,0,0,1,.53-.088,52.529,52.529,0,0,1,6.42,5.915.36.36,0,0,1,.095.262.365.365,0,0,1-.119.253,5.991,5.991,0,0,0-1.631,6.26,6.513,6.513,0,0,0,5.28,4.1.365.365,0,0,1,.31.424A31.27,31.27,0,0,1,923.5,331a.364.364,0,0,1-.433.2c-1.775-.519-3.488-.928-4.932-.241a4.356,4.356,0,0,0-2.2,2.955,13.432,13.432,0,0,0-.254,3.344q0,.376,0,.759a.363.363,0,0,1-.251.344,44.226,44.226,0,0,1-7.523,1.794.315.315,0,0,1-.052,0m-4.68-5.391a4.293,4.293,0,0,1,2.481.9,6.459,6.459,0,0,1,2.486,3.719,43.513,43.513,0,0,0,6.812-1.634c0-.165,0-.328,0-.49a13.949,13.949,0,0,1,.276-3.526,5.075,5.075,0,0,1,2.593-3.434c1.583-.752,3.4-.384,5.145.111a30.627,30.627,0,0,0,2.042-6.619,7.232,7.232,0,0,1-5.495-4.521,6.75,6.75,0,0,1,1.566-6.785,51.754,51.754,0,0,0-5.792-5.333,6.979,6.979,0,0,1-8.408,2.359,7.269,7.269,0,0,1-3.845-3.57c-.548.233-1.1.463-1.634.689a52.325,52.325,0,0,0-5.083,2.318,6.787,6.787,0,0,1-.228,7.013c-1.265,1.894-4.544,2.369-6.265,2.136a35.712,35.712,0,0,0-1.116,6.843,12.574,12.574,0,0,1,3.258.628,4.142,4.142,0,0,1,2.661,2.013,3.773,3.773,0,0,1,.27,1.869,7.944,7.944,0,0,1-1.948,4.659,26.414,26.414,0,0,0,4.973,3.712,6.638,6.638,0,0,1,2.76-2.277,5.637,5.637,0,0,1,2.421-.779h.071" transform="translate(-28.091 -9.651)"/>
        <path id="Trazado_715413" data-name="Trazado 715413" d="M906.348,314.952a7.876,7.876,0,0,0-5.627,4.623,8.3,8.3,0,0,0,.384,7.719,8.108,8.108,0,0,0,6.771,3.817,8.345,8.345,0,0,0,6.054-2.692,8.535,8.535,0,0,0,1.934-6.13c-.021-1.131-.955-5.118-4.159-6.69a8.58,8.58,0,0,0-5.356-.647" transform="translate(-28.471 -9.958)" fill="#acd4f7"/>
        <path id="Trazado_715414" data-name="Trazado 715414" d="M907.884,331.228h-.013A8.229,8.229,0,0,1,901,327.352a8.381,8.381,0,0,1-.39-7.832,8.041,8.041,0,0,1,5.71-4.69,8.729,8.729,0,0,1,5.436.656c3.4,1.669,4.209,5.852,4.227,6.8a8.062,8.062,0,0,1-8.1,8.945m.107-16.333a7.387,7.387,0,0,0-1.62.171,7.712,7.712,0,0,0-5.545,4.556,8.133,8.133,0,0,0,.378,7.6,7.982,7.982,0,0,0,6.667,3.76h.013a7.823,7.823,0,0,0,7.854-8.7c-.023-1.234-1.036-5.085-4.091-6.585a8.529,8.529,0,0,0-3.656-.809m-1.647.053h0Z" transform="translate(-28.466 -9.954)"/>
        <path id="Trazado_715415" data-name="Trazado 715415" d="M909.534,317.655a4.839,4.839,0,0,0-4.635.923,6.61,6.61,0,0,0-2.2,4.25,4.834,4.834,0,0,0,.1,1.983,4.229,4.229,0,0,0,1.023,1.7,5.646,5.646,0,0,0,6.3,1.173,5.4,5.4,0,0,0,3-5.579,5.777,5.777,0,0,0-3.582-4.451" transform="translate(-28.556 -10.041)" fill="#fff"/>
        <path id="Trazado_715416" data-name="Trazado 715416" d="M907.831,328.531a5.959,5.959,0,0,1-4.288-1.781,4.609,4.609,0,0,1-1.108-1.85,5.152,5.152,0,0,1-.111-2.132,7,7,0,0,1,2.331-4.483,5.184,5.184,0,0,1,4.992-.985,6.119,6.119,0,0,1,3.815,4.733,5.793,5.793,0,0,1-3.2,5.966,5.717,5.717,0,0,1-2.432.531m.239-10.777a4.674,4.674,0,0,0-2.951,1.09,6.271,6.271,0,0,0-2.075,4.017,4.461,4.461,0,0,0,.088,1.835,3.9,3.9,0,0,0,.936,1.552,5.318,5.318,0,0,0,5.884,1.094,5.044,5.044,0,0,0,2.792-5.191,5.38,5.38,0,0,0-3.349-4.168,3.822,3.822,0,0,0-1.326-.229" transform="translate(-28.544 -10.029)"/>
        <path id="Trazado_715417" data-name="Trazado 715417" d="M950.07,305.361a2.342,2.342,0,1,1,2.342,2.342,2.342,2.342,0,0,1-2.342-2.342" transform="translate(-30.056 -9.586)" fill="#fff"/>
        <path id="Trazado_715418" data-name="Trazado 715418" d="M952.4,308.055a2.706,2.706,0,1,1,2.706-2.706,2.709,2.709,0,0,1-2.706,2.706m0-4.685a1.979,1.979,0,1,0,1.978,1.979,1.982,1.982,0,0,0-1.978-1.979" transform="translate(-30.044 -9.574)"/>
        <path id="Trazado_715419" data-name="Trazado 715419" d="M937.8,333.77a4.97,4.97,0,1,1,4.97,4.97,4.969,4.969,0,0,1-4.97-4.97" transform="translate(-29.668 -10.402)" fill="#fff"/>
        <path id="Trazado_715420" data-name="Trazado 715420" d="M942.756,339.091a5.334,5.334,0,1,1,5.334-5.334,5.34,5.34,0,0,1-5.334,5.334m0-9.94a4.607,4.607,0,1,0,4.607,4.607,4.612,4.612,0,0,0-4.607-4.607" transform="translate(-29.656 -10.39)"/>
        <path id="Trazado_715421" data-name="Trazado 715421" d="M943.036,336.506h0a.121.121,0,0,1-.108-.072l-1.789-4a.122.122,0,0,1,.108-.171l3.709-.052a.107.107,0,0,1,.1.055.125.125,0,0,1,.008.118l-1.92,4.05a.122.122,0,0,1-.109.07m-1.6-4,1.606,3.589,1.724-3.636Z" transform="translate(-29.773 -10.51)"/>
        <path id="Trazado_715422" data-name="Trazado 715422" d="M96.542,265.464a.364.364,0,0,1-.363-.358l-.246-17.563a.364.364,0,0,1,.349-.369l4.827-.191-9.821-11.351-9.546,11.578,5.306.064a.363.363,0,0,1,.359.363v9.426a.364.364,0,1,1-.727,0V248l-5.706-.069a.363.363,0,0,1-.276-.595L91,234.838a.359.359,0,0,1,.276-.133.368.368,0,0,1,.279.126l10.6,12.247a.363.363,0,0,1-.26.6l-5.227.207.241,17.209a.364.364,0,0,1-.359.369Z" transform="translate(-2.55 -7.425)"/>
        <path id="Trazado_715423" data-name="Trazado 715423" d="M97.129,275.521a.364.364,0,0,1-.363-.344c-.087-1.613-.127-3.252-.115-4.87a.363.363,0,0,1,.363-.361h0a.364.364,0,0,1,.361.366c-.012,1.6.027,3.227.114,4.825a.363.363,0,0,1-.344.382h-.019" transform="translate(-3.058 -8.54)"/>
        <path id="Trazado_715424" data-name="Trazado 715424" d="M97.251,283.46a.364.364,0,0,1-.363-.346l-.178-3.552a.364.364,0,0,1,.726-.037l.178,3.553a.362.362,0,0,1-.345.381h-.018" transform="translate(-3.059 -8.832)"/>
        <path id="Trazado_715425" data-name="Trazado 715425" d="M97.36,205.8a1.333,1.333,0,0,0-1.472.846,1.537,1.537,0,0,0,.51,1.623,1.42,1.42,0,0,0,1.791.1,1.6,1.6,0,0,0,.384-.651,1.433,1.433,0,0,0,.059-1.079,1.744,1.744,0,0,0-1.272-.839" transform="translate(-3.031 -6.51)" fill="#fff"/>
        <path id="Trazado_715426" data-name="Trazado 715426" d="M97.418,209a2.012,2.012,0,0,1-1.266-.462,1.887,1.887,0,0,1-.619-2.018,1.69,1.69,0,0,1,1.891-1.085,2.084,2.084,0,0,1,1.528,1.043,1.792,1.792,0,0,1-.048,1.355,1.95,1.95,0,0,1-.479.793,1.456,1.456,0,0,1-1.007.374m-.3-2.869a.981.981,0,0,0-.894.626,1.171,1.171,0,0,0,.4,1.227,1.064,1.064,0,0,0,1.308.109,1.288,1.288,0,0,0,.29-.508,1.084,1.084,0,0,0,.071-.8,1.408,1.408,0,0,0-1.018-.634.731.731,0,0,0-.159-.016" transform="translate(-3.019 -6.498)"/>
        <path id="Trazado_715427" data-name="Trazado 715427" d="M67.462,257.468a1.333,1.333,0,0,0-1.472.846,1.535,1.535,0,0,0,.51,1.623,1.419,1.419,0,0,0,1.791.1,1.611,1.611,0,0,0,.384-.651,1.438,1.438,0,0,0,.059-1.079,1.75,1.75,0,0,0-1.272-.839" transform="translate(-2.085 -8.144)" fill="#fff"/>
        <path id="Trazado_715428" data-name="Trazado 715428" d="M67.519,260.665a2.012,2.012,0,0,1-1.266-.462,1.886,1.886,0,0,1-.619-2.018,1.687,1.687,0,0,1,1.891-1.084,2.078,2.078,0,0,1,1.528,1.042A1.792,1.792,0,0,1,69,259.5a1.948,1.948,0,0,1-.479.793,1.456,1.456,0,0,1-1.007.374m-.3-2.869a.983.983,0,0,0-.895.626,1.174,1.174,0,0,0,.4,1.227,1.064,1.064,0,0,0,1.308.109,1.3,1.3,0,0,0,.29-.508,1.084,1.084,0,0,0,.071-.8,1.408,1.408,0,0,0-1.019-.634.718.718,0,0,0-.158-.016" transform="translate(-2.074 -8.133)"/>
        <path id="Trazado_715429" data-name="Trazado 715429" d="M924.172,103.443c-1.05-.827-1.841-.862-2.709-1.5-.07-1.058-.322-2.869-.435-3.934.994-.909,1.511-1.132,2.374-1.9a.823.823,0,0,0-.172-.425c-.209-.335-.419-.671-.639-1a19.444,19.444,0,0,0-2.795-3.319c-.98.92-1.791,1.818-2.6,2.716a13.351,13.351,0,0,0-3.71-.863,29.347,29.347,0,0,0-.619-3.61,15.975,15.975,0,0,0-4.949,1.573,18.3,18.3,0,0,0,.913,2.842,28.485,28.485,0,0,0-2.782,2.829c-1.145-.643-2.094-.948-3.166-1.565a10.761,10.761,0,0,0-1.989,5.756c1.227.152,1.947.1,3.072.171a14.579,14.579,0,0,0,1.057,3.882c-.92.88-1.433,1.659-2.236,2.333a9.315,9.315,0,0,0,2.969,3.852c.807-.874,1.32-1.415,2.054-2.175a15.923,15.923,0,0,0,3.579,1.132,12.7,12.7,0,0,1,.509,2.867,13.45,13.45,0,0,0,5.336-.289,24.017,24.017,0,0,0-.28-3.056,12.708,12.708,0,0,0,2.725-2.731,15.93,15.93,0,0,1,2.628.757,11.524,11.524,0,0,0,1.867-4.346m-10.078,1.649c-.781.291-1.565.545-3.582-.771-.793-.517-2.5-2.706-.357-5.46a3.182,3.182,0,0,1,2.9-1.24,4.732,4.732,0,0,1,2.523.986,3.745,3.745,0,0,1,1.083,3.631,4.172,4.172,0,0,1-2.562,2.853" transform="translate(-28.5 -2.835)" fill="#fff"/>
        <path id="Trazado_715430" data-name="Trazado 715430" d="M913.789,113.607a12.511,12.511,0,0,1-1.962-.152.366.366,0,0,1-.305-.322l-.016-.159a12.052,12.052,0,0,0-.414-2.418A15.848,15.848,0,0,1,908,109.57l-.115-.046c-.6.62-1.1,1.153-1.88,1.994a.364.364,0,0,1-.487.043,9.653,9.653,0,0,1-3.085-4,.363.363,0,0,1,.1-.416,10.8,10.8,0,0,0,1.133-1.161c.277-.315.563-.639.909-.983a14.972,14.972,0,0,1-.952-3.446c-.3-.016-.576-.023-.846-.03a18.39,18.39,0,0,1-1.947-.127.364.364,0,0,1-.319-.365,11.023,11.023,0,0,1,2.05-5.953.363.363,0,0,1,.484-.114c.527.3,1.021.528,1.543.765.432.2.875.4,1.352.652a26.853,26.853,0,0,1,2.24-2.271l.205-.193a17.423,17.423,0,0,1-.841-2.664.363.363,0,0,1,.185-.4,16.326,16.326,0,0,1,5.062-1.611.364.364,0,0,1,.411.276,29.367,29.367,0,0,1,.594,3.36,13.762,13.762,0,0,1,3.279.768c.75-.83,1.532-1.686,2.456-2.553a.363.363,0,0,1,.5,0,19.873,19.873,0,0,1,2.847,3.38c.23.345.45.7.645,1.01a1.128,1.128,0,0,1,.228.626.364.364,0,0,1-.122.262,13.558,13.558,0,0,1-1.084.859,14.049,14.049,0,0,0-1.149.915c.038.342.086.743.137,1.163.1.822.212,1.745.265,2.426a5.932,5.932,0,0,0,.967.5,6.7,6.7,0,0,1,1.616.918.362.362,0,0,1,.131.361,11.8,11.8,0,0,1-1.925,4.481.363.363,0,0,1-.406.137c-.287-.091-.531-.175-.759-.255a10.126,10.126,0,0,0-1.6-.45,13.173,13.173,0,0,1-2.478,2.484,9.14,9.14,0,0,1,.15,1.576c.014.39.028.8.084,1.286a.363.363,0,0,1-.273.394,14.553,14.553,0,0,1-3.518.447m-1.572-.83a13.02,13.02,0,0,0,4.608-.25c-.034-.383-.046-.719-.056-1.024a7.722,7.722,0,0,0-.183-1.667.363.363,0,0,1,.139-.38,12.434,12.434,0,0,0,2.643-2.648.365.365,0,0,1,.357-.147,10.659,10.659,0,0,1,1.937.521c.152.052.311.107.485.166a11.06,11.06,0,0,0,1.606-3.767,6.354,6.354,0,0,0-1.276-.688,6.008,6.008,0,0,1-1.242-.67.363.363,0,0,1-.147-.269c-.045-.671-.167-1.675-.274-2.56-.062-.5-.119-.978-.16-1.359a.363.363,0,0,1,.116-.306,14.373,14.373,0,0,1,1.347-1.087c.281-.206.548-.4.858-.666-.022-.039-.046-.078-.067-.109-.192-.308-.41-.657-.633-.992a19.125,19.125,0,0,0-2.495-3.016c-.862.831-1.607,1.656-2.33,2.457a.362.362,0,0,1-.4.095,13.014,13.014,0,0,0-3.609-.84.363.363,0,0,1-.33-.323,28.845,28.845,0,0,0-.535-3.233,15.576,15.576,0,0,0-4.252,1.352,17.825,17.825,0,0,0,.782,2.383l.051.135a.361.361,0,0,1-.09.394l-.383.361a23.747,23.747,0,0,0-2.364,2.431.362.362,0,0,1-.462.09c-.552-.311-1.067-.544-1.565-.771-.421-.191-.854-.388-1.3-.628a10.339,10.339,0,0,0-1.736,4.949c.583.059,1.055.072,1.548.084.363.01.738.019,1.174.048a.364.364,0,0,1,.337.322,14.137,14.137,0,0,0,1.032,3.783.361.361,0,0,1-.084.4c-.406.389-.73.756-1.044,1.113a12.956,12.956,0,0,1-1.006,1.057,8.935,8.935,0,0,0,2.494,3.259c.722-.781,1.215-1.3,1.83-1.933a.364.364,0,0,1,.4-.086l.343.136a13.9,13.9,0,0,0,3.145.973.362.362,0,0,1,.306.256,12.075,12.075,0,0,1,.495,2.654m.8-7.1a5.1,5.1,0,0,1-2.712-1.061,3.807,3.807,0,0,1-1.51-2.459,4.458,4.458,0,0,1,1.063-3.529,3.523,3.523,0,0,1,3.238-1.375,4.984,4.984,0,0,1,2.708,1.071,4.12,4.12,0,0,1,1.2,3.992,4.509,4.509,0,0,1-2.789,3.107,3.323,3.323,0,0,1-1.194.255m1.067-.6h0Zm-1.434-7.135a2.9,2.9,0,0,0-2.218,1.127,3.769,3.769,0,0,0-.92,2.962,3.13,3.13,0,0,0,1.189,1.971c1.9,1.239,2.557.994,3.257.734a3.827,3.827,0,0,0,2.336-2.6,3.38,3.38,0,0,0-.969-3.273,4.351,4.351,0,0,0-2.338-.9,2.167,2.167,0,0,0-.337-.025" transform="translate(-28.488 -2.823)"/>
        <path id="Trazado_715431" data-name="Trazado 715431" d="M932.6,62.228l.341-22.773-9.24-.16-.322,22.933-5.867.132,10.582,15.195,10.583-15.132Z" transform="translate(-29.026 -1.243)" fill="#acd4f7"/>
        <path id="Trazado_715432" data-name="Trazado 715432" d="M928.082,77.906h0a.365.365,0,0,1-.3-.156L917.2,62.556a.363.363,0,0,1,.291-.571l5.517-.123.316-22.582a.364.364,0,0,1,.363-.359h.006l9.241.16a.363.363,0,0,1,.357.369l-.335,22.416,5.719.184a.363.363,0,0,1,.287.571L928.381,77.751a.367.367,0,0,1-.3.155m-9.9-15.21,9.9,14.211,9.9-14.154-5.405-.173a.364.364,0,0,1-.352-.369L932.56,39.8l-8.514-.146-.315,22.568a.363.363,0,0,1-.356.358Z" transform="translate(-29.014 -1.231)"/>
        <path id="Trazado_715433" data-name="Trazado 715433" d="M980.418,5.6v44.71a4.486,4.486,0,0,1-4.344,4.225H912.013c-3.3,0-4.966-3.265-4.966-5.309L907.358,5A4.729,4.729,0,0,1,911.7.508L975.3.375A5.349,5.349,0,0,1,980.418,5.6" transform="translate(-28.695 -0.012)" fill="#fff"/>
        <path id="Trazado_715434" data-name="Trazado 715434" d="M976.063,54.889H912c-3.432,0-5.33-3.354-5.33-5.673l.311-44.228A5.117,5.117,0,0,1,911.691.133L975.284,0a5.686,5.686,0,0,1,5.486,5.589V50.3a4.834,4.834,0,0,1-4.707,4.589M975.285.727,911.692.86a4.34,4.34,0,0,0-3.982,4.13L907.4,49.219c0,1.668,1.39,4.943,4.6,4.943h64.061a4.133,4.133,0,0,0,3.98-3.862V5.589A5,5,0,0,0,975.285.727" transform="translate(-28.683)"/>
        <path id="Trazado_715435" data-name="Trazado 715435" d="M907.337,8.475a.364.364,0,0,1,0-.727L980.415,7.5h0a.364.364,0,0,1,0,.727l-73.08.249Z" transform="translate(-28.693 -0.237)"/>
        <path id="Trazado_715436" data-name="Trazado 715436" d="M947.147,16.007q-12.711-.4-25.433-.319a152.227,152.227,0,0,0-.229,20.023c8.79.021,16.711.332,25.439.374,0-6.807.115-13.443.224-20.078" transform="translate(-29.144 -0.496)" fill="#fff"/>
        <path id="Trazado_715437" data-name="Trazado 715437" d="M946.91,36.437h0c-4.207-.02-8.292-.1-12.243-.185-4.248-.088-8.642-.178-13.195-.189a.364.364,0,0,1-.362-.339,154.588,154.588,0,0,1,.23-20.07.363.363,0,0,1,.36-.341c8.445-.055,17,.052,25.447.319a.364.364,0,0,1,.352.37l-.019,1.227c-.1,6.126-.2,12.461-.2,18.844a.365.365,0,0,1-.364.364m-25.1-1.1c4.438.015,8.722.1,12.868.188,3.834.078,7.794.16,11.867.183,0-6.266.106-12.478.2-18.491l.015-.87c-8.2-.255-16.515-.358-24.722-.309a153.7,153.7,0,0,0-.23,19.3" transform="translate(-29.132 -0.484)"/>
        <path id="Trazado_715438" data-name="Trazado 715438" d="M968.072,24.287q-12.711-.4-25.433-.319a152.229,152.229,0,0,0-.229,20.023c8.79.021,16.711.332,25.439.374,0-6.807.116-13.443.224-20.078" transform="translate(-29.806 -0.758)" fill="#fff"/>
        <path id="Trazado_715439" data-name="Trazado 715439" d="M967.836,44.717h0c-4.207-.02-8.292-.1-12.243-.186-4.248-.087-8.642-.177-13.195-.188a.365.365,0,0,1-.362-.34,154.766,154.766,0,0,1,.23-20.07.363.363,0,0,1,.36-.34c8.445-.054,17,.052,25.447.319a.363.363,0,0,1,.352.37l-.019,1.227c-.1,6.126-.2,12.461-.2,18.844a.364.364,0,0,1-.363.364m-25.1-1.1c4.438.015,8.722.1,12.868.188,3.834.078,7.794.16,11.867.183,0-6.266.106-12.478.2-18.491l.015-.87c-8.2-.255-16.517-.358-24.722-.309a153.727,153.727,0,0,0-.23,19.3" transform="translate(-29.794 -0.746)"/>
        <path id="Trazado_715440" data-name="Trazado 715440" d="M955.648,28.573c-3.1,0-6.195-.079-9.267-.237a.121.121,0,0,1-.115-.127.118.118,0,0,1,.128-.115c5.563.287,11.207.314,16.771.08a.118.118,0,0,1,.126.116.12.12,0,0,1-.116.126c-2.5.1-5.011.157-7.526.157" transform="translate(-29.936 -0.889)"/>
        <path id="Trazado_715441" data-name="Trazado 715441" d="M960.331,32h-.006c-4.588-.206-9.241-.21-13.829-.014a.12.12,0,0,1-.127-.115.122.122,0,0,1,.116-.127c4.6-.2,9.256-.194,13.852.014a.121.121,0,0,1-.006.242" transform="translate(-29.939 -1)"/>
        <path id="Trazado_715442" data-name="Trazado 715442" d="M952.765,35.562h-.009A51.42,51.42,0,0,0,946.4,35.5a.115.115,0,0,1-.127-.115.121.121,0,0,1,.114-.128,51.907,51.907,0,0,1,6.389.067.121.121,0,0,1-.009.242" transform="translate(-29.936 -1.113)"/>
        <path id="Trazado_715443" data-name="Trazado 715443" d="M956.783,39.7c-3.428,0-6.863-.077-10.267-.232a.122.122,0,0,1-.116-.127.115.115,0,0,1,.127-.116c5.387.246,10.852.3,16.244.153h0a.122.122,0,0,1,0,.243q-2.986.08-6,.079" transform="translate(-29.94 -1.241)"/>
        <path id="Trazado_715444" data-name="Trazado 715444" d="M942.034,20.477h0L924.9,20.412a.121.121,0,0,1,0-.242l17.132.065a.121.121,0,0,1,0,.242" transform="translate(-29.256 -0.638)"/>
        <path id="Trazado_715445" data-name="Trazado 715445" d="M925.922,23.814a.121.121,0,0,1,0-.242l7.135-.064h0a.121.121,0,0,1,0,.242l-7.135.064Z" transform="translate(-29.288 -0.744)"/>
        <path id="Trazado_715446" data-name="Trazado 715446" d="M925.751,27.845a.121.121,0,0,1,0-.242l9.432-.181h0a.121.121,0,0,1,0,.242l-9.432.181Z" transform="translate(-29.283 -0.868)"/>
        <path id="Trazado_715447" data-name="Trazado 715447" d="M934.157,31.97c-2.922,0-5.85-.086-8.75-.26a.121.121,0,0,1-.114-.128.123.123,0,0,1,.129-.114c4.444.265,8.953.327,13.4.185a.114.114,0,0,1,.125.117.121.121,0,0,1-.117.125q-2.33.074-4.675.075" transform="translate(-29.272 -0.996)"/>
        <path id="Trazado_715448" data-name="Trazado 715448" d="M975.348,3.479a.778.778,0,0,0-.776.351.7.7,0,0,0-.035.689.739.739,0,0,0,.622.377.725.725,0,0,0,.731-.664.8.8,0,0,0-.542-.751" transform="translate(-30.828 -0.11)"/>
        <path id="Trazado_715449" data-name="Trazado 715449" d="M968.37,3.479a.778.778,0,0,0-.776.351.7.7,0,0,0-.035.689.739.739,0,0,0,.622.377.725.725,0,0,0,.731-.664.8.8,0,0,0-.542-.751" transform="translate(-30.607 -0.11)"/>
        <path id="Trazado_715450" data-name="Trazado 715450" d="M960.942,3.479a.778.778,0,0,0-.776.351.7.7,0,0,0-.035.689.739.739,0,0,0,.622.377.725.725,0,0,0,.731-.664.8.8,0,0,0-.542-.751" transform="translate(-30.372 -0.11)"/>
        <path id="Trazado_715451" data-name="Trazado 715451" d="M1001.283,7.818a3.623,3.623,0,1,1,3.623,3.623,3.623,3.623,0,0,1-3.623-3.623" transform="translate(-31.676 -0.133)" fill="#fff"/>
        <path id="Trazado_715452" data-name="Trazado 715452" d="M1004.894,11.792a3.986,3.986,0,1,1,3.987-3.986,3.991,3.991,0,0,1-3.987,3.986m0-7.245a3.259,3.259,0,1,0,3.26,3.26,3.262,3.262,0,0,0-3.26-3.26" transform="translate(-31.664 -0.121)"/>
        <path id="Trazado_715453" data-name="Trazado 715453" d="M1001.713,37.045a1.333,1.333,0,0,0-1.472.846,1.535,1.535,0,0,0,.51,1.623,1.42,1.42,0,0,0,1.791.1,1.6,1.6,0,0,0,.384-.651,1.438,1.438,0,0,0,.059-1.079,1.747,1.747,0,0,0-1.272-.839" transform="translate(-31.641 -1.171)" fill="#fff"/>
        <path id="Trazado_715454" data-name="Trazado 715454" d="M1001.77,40.243a2.013,2.013,0,0,1-1.266-.462,1.886,1.886,0,0,1-.619-2.018,1.689,1.689,0,0,1,1.891-1.084,2.079,2.079,0,0,1,1.528,1.043,1.79,1.79,0,0,1-.048,1.354,1.95,1.95,0,0,1-.479.793,1.456,1.456,0,0,1-1.007.374m-.3-2.869a.982.982,0,0,0-.894.626,1.171,1.171,0,0,0,.4,1.227,1.064,1.064,0,0,0,1.308.109,1.288,1.288,0,0,0,.29-.508,1.085,1.085,0,0,0,.071-.8,1.408,1.408,0,0,0-1.018-.634.8.8,0,0,0-.159-.016" transform="translate(-31.629 -1.159)"/>
      </g>
    </g>
  </g>
</svg>
