<svg xmlns="http://www.w3.org/2000/svg" xmlns:xlink="http://www.w3.org/1999/xlink" width="295" height="139" viewBox="0 0 295 139">
  <defs>
    <radialGradient id="radial-gradient" cx="0.5" cy="0.5" r="0.5" gradientTransform="translate(0 -0.525) scale(1 2.05)" gradientUnits="objectBoundingBox">
      <stop offset="0" stop-color="#fff"/>
      <stop offset="1" stop-color="#d2e1f1"/>
    </radialGradient>
    <clipPath id="clip-path">
      <rect id="Rectángulo_348754" data-name="Rectángulo 348754" width="137.62" height="80.823" fill="none"/>
    </clipPath>
    <clipPath id="clip-path-3">
      <rect id="Rectángulo_348731" data-name="Rectángulo 348731" width="10.166" height="11.553" fill="none"/>
    </clipPath>
    <clipPath id="clip-path-4">
      <rect id="Rectángulo_348732" data-name="Rectángulo 348732" width="13.539" height="2.432" fill="none"/>
    </clipPath>
    <clipPath id="clip-path-5">
      <rect id="Rectángulo_348746" data-name="Rectángulo 348746" width="12.816" height="14.564" fill="none"/>
    </clipPath>
    <clipPath id="clip-path-6">
      <rect id="Rectángulo_348752" data-name="Rectángulo 348752" width="10.108" height="11.487" fill="none"/>
    </clipPath>
  </defs>
  <g id="Grupo_1008289" data-name="Grupo 1008289" transform="translate(-810 -2049)">
    <path id="Trazado_720456" data-name="Trazado 720456" d="M11,0H284a11,11,0,0,1,11,11V128a11,11,0,0,1-11,11H11A11,11,0,0,1,0,128V11A11,11,0,0,1,11,0Z" transform="translate(810 2049)" fill="url(#radial-gradient)"/>
    <path id="Trazado_720457" data-name="Trazado 720457" d="M91.8,14.609H87.572L86.833,17h-3.3L88.231,4.2h2.9L95.86,17H92.546ZM88.31,12.228h2.751l-1.38-4.438Zm17.174.1a5.8,5.8,0,0,1-.967,3.595,3.238,3.238,0,0,1-2.725,1.257,2.81,2.81,0,0,1-2.338-1.151L99.332,17H96.677V3.5h2.962V8.255a2.711,2.711,0,0,1,2.136-.94,3.239,3.239,0,0,1,2.742,1.274,5.826,5.826,0,0,1,.967,3.586Zm-2.971-.189a3.866,3.866,0,0,0-.365-1.952,1.229,1.229,0,0,0-1.121-.584,1.418,1.418,0,0,0-1.389.763v3.773a1.426,1.426,0,0,0,1.406.755,1.258,1.258,0,0,0,1.327-1.018A7.309,7.309,0,0,0,102.513,12.135ZM112.146,17a3.344,3.344,0,0,1-.281-.853,2.754,2.754,0,0,1-2.285,1.028,3.374,3.374,0,0,1-2.285-.813,2.588,2.588,0,0,1-.94-2.043,2.66,2.66,0,0,1,1.143-2.338,5.821,5.821,0,0,1,3.322-.791h.914v-.5q0-1.316-1.134-1.316a.927.927,0,0,0-1.055,1.042h-2.962a2.655,2.655,0,0,1,1.173-2.239,4.931,4.931,0,0,1,2.993-.86,4.323,4.323,0,0,1,2.874.888,3.086,3.086,0,0,1,1.081,2.435v4.21a4.311,4.311,0,0,0,.4,2V17Zm-1.854-1.934a1.652,1.652,0,0,0,.918-.237,1.487,1.487,0,0,0,.523-.536V12.772h-.861q-1.547,0-1.547,1.389a.848.848,0,0,0,.272.655A.986.986,0,0,0,110.292,15.066Zm11.03-.738a.684.684,0,0,0-.4-.606,6.016,6.016,0,0,0-1.5-.475A6.853,6.853,0,0,1,117.6,12.6a3.062,3.062,0,0,1-1.1-.971,2.319,2.319,0,0,1-.378-1.31A2.628,2.628,0,0,1,117.2,8.163a4.453,4.453,0,0,1,2.83-.848,4.934,4.934,0,0,1,3.023.853,2.666,2.666,0,0,1,1.143,2.241h-2.971q0-1.143-1.2-1.143a1.194,1.194,0,0,0-.782.259.8.8,0,0,0-.316.646.737.737,0,0,0,.387.642,3.654,3.654,0,0,0,1.235.4,10.671,10.671,0,0,1,1.49.378,2.706,2.706,0,0,1,2.145,2.646,2.491,2.491,0,0,1-1.156,2.118,5.068,5.068,0,0,1-2.993.817,5.172,5.172,0,0,1-2.18-.439,3.645,3.645,0,0,1-1.494-1.2,2.707,2.707,0,0,1-.536-1.591h2.769a1.145,1.145,0,0,0,.439.962,1.808,1.808,0,0,0,1.081.3,1.422,1.422,0,0,0,.91-.246A.787.787,0,0,0,121.322,14.328Zm7.69-9.2V7.49h1.564V9.547h-1.564V13.9a1.111,1.111,0,0,0,.193.747,1.037,1.037,0,0,0,.765.211,4.345,4.345,0,0,0,.738-.053v2.118a5.466,5.466,0,0,1-1.67.255,3.1,3.1,0,0,1-2.259-.721,2.954,2.954,0,0,1-.729-2.188V9.547h-1.213V7.49h1.213V5.126Zm7.33,12.05a4.889,4.889,0,0,1-3.542-1.305,4.507,4.507,0,0,1-1.354-3.4v-.246a5.84,5.84,0,0,1,.541-2.575,3.955,3.955,0,0,1,1.578-1.727,4.763,4.763,0,0,1,2.461-.611,4.117,4.117,0,0,1,3.164,1.244,4.887,4.887,0,0,1,1.16,3.467v1.151h-5.889a2.135,2.135,0,0,0,.694,1.257,2.066,2.066,0,0,0,1.389.457,2.662,2.662,0,0,0,2.2-.984l1.354,1.6a3.784,3.784,0,0,1-1.569,1.217A5.3,5.3,0,0,1,136.342,17.176ZM136.008,9.6q-1.3,0-1.547,1.723h2.988v-.229a1.467,1.467,0,0,0-.36-1.1A1.434,1.434,0,0,0,136.008,9.6Zm9.554,5.291a1.317,1.317,0,0,0,.967-.338,1.241,1.241,0,0,0,.334-.945h2.777a3.288,3.288,0,0,1-1.121,2.566,4.168,4.168,0,0,1-2.887,1,4.22,4.22,0,0,1-3.27-1.3,5.125,5.125,0,0,1-1.2-3.6v-.123A5.792,5.792,0,0,1,141.7,9.6a3.872,3.872,0,0,1,1.534-1.7,4.573,4.573,0,0,1,2.373-.593,4.116,4.116,0,0,1,2.944,1.028,3.647,3.647,0,0,1,1.09,2.786h-2.777A1.626,1.626,0,0,0,146.5,10a1.244,1.244,0,0,0-.967-.4q-1.151,0-1.345,1.468a10.357,10.357,0,0,0-.062,1.283,4.068,4.068,0,0,0,.343,1.986A1.187,1.187,0,0,0,145.562,14.891ZM154.017,17h-2.971V7.49h2.971ZM150.871,5.029a1.334,1.334,0,0,1,.457-1.043,1.934,1.934,0,0,1,2.373,0,1.334,1.334,0,0,1,.457,1.043,1.334,1.334,0,0,1-.457,1.043,1.934,1.934,0,0,1-2.373,0A1.334,1.334,0,0,1,150.871,5.029Zm7.77,2.461.1,1.116a3.27,3.27,0,0,1,2.716-1.292,2.407,2.407,0,0,1,2.435,1.433,3.165,3.165,0,0,1,2.795-1.433q2.892,0,2.971,3.5V17h-2.971V11a1.813,1.813,0,0,0-.246-1.063,1.048,1.048,0,0,0-.9-.334,1.4,1.4,0,0,0-1.31.782l.009.123V17h-2.971V11.015a1.906,1.906,0,0,0-.237-1.081,1.045,1.045,0,0,0-.905-.334,1.42,1.42,0,0,0-1.3.782V17h-2.962V7.49ZM174.469,17H171.5V7.49h2.971ZM171.323,5.029a1.334,1.334,0,0,1,.457-1.043,1.934,1.934,0,0,1,2.373,0,1.334,1.334,0,0,1,.457,1.043,1.334,1.334,0,0,1-.457,1.043,1.934,1.934,0,0,1-2.373,0A1.334,1.334,0,0,1,171.323,5.029Zm9.571,12.146a4.889,4.889,0,0,1-3.542-1.305,4.507,4.507,0,0,1-1.354-3.4v-.246a5.84,5.84,0,0,1,.541-2.575,3.955,3.955,0,0,1,1.578-1.727,4.763,4.763,0,0,1,2.461-.611,4.117,4.117,0,0,1,3.164,1.244,4.887,4.887,0,0,1,1.16,3.467v1.151h-5.889a2.135,2.135,0,0,0,.694,1.257,2.066,2.066,0,0,0,1.389.457,2.662,2.662,0,0,0,2.2-.984l1.354,1.6a3.784,3.784,0,0,1-1.569,1.217A5.3,5.3,0,0,1,180.894,17.176ZM180.56,9.6q-1.3,0-1.547,1.723H182v-.229a1.467,1.467,0,0,0-.36-1.1A1.434,1.434,0,0,0,180.56,9.6Zm8.253-2.109.1,1.116a3.225,3.225,0,0,1,2.716-1.292,2.713,2.713,0,0,1,2.219.888,4.226,4.226,0,0,1,.76,2.672V17h-2.971V11a1.6,1.6,0,0,0-.29-1.059A1.342,1.342,0,0,0,190.29,9.6a1.413,1.413,0,0,0-1.292.686V17h-2.962V7.49Zm10.881-2.364V7.49h1.564V9.547h-1.564V13.9a1.111,1.111,0,0,0,.193.747,1.037,1.037,0,0,0,.765.211,4.345,4.345,0,0,0,.738-.053v2.118a5.466,5.466,0,0,1-1.67.255,3.1,3.1,0,0,1-2.259-.721,2.954,2.954,0,0,1-.729-2.188V9.547h-1.213V7.49h1.213V5.126Zm2.092,7.031a5.613,5.613,0,0,1,.554-2.536,3.96,3.96,0,0,1,1.591-1.709,4.791,4.791,0,0,1,2.435-.6,4.373,4.373,0,0,1,3.366,1.323,5.076,5.076,0,0,1,1.23,3.6v.105a4.925,4.925,0,0,1-1.235,3.529,4.384,4.384,0,0,1-3.344,1.305,4.434,4.434,0,0,1-3.261-1.217,4.761,4.761,0,0,1-1.327-3.3Zm2.962.185a3.538,3.538,0,0,0,.413,1.934,1.376,1.376,0,0,0,1.222.615q1.582,0,1.617-2.435v-.3Q208,9.6,206.365,9.6q-1.485,0-1.608,2.206Z" transform="translate(810 2154)" fill="#12263f"/>
    <g id="Grupo_1007368" data-name="Grupo 1007368" transform="translate(0 3)">
      <rect id="Rectángulo_348755" data-name="Rectángulo 348755" width="138" height="82" transform="translate(889 2061)" fill="none"/>
      <g id="Grupo_1007367" data-name="Grupo 1007367" transform="translate(889 2061)">
        <g id="Grupo_1007366" data-name="Grupo 1007366" clip-path="url(#clip-path)">
          <rect id="Rectángulo_348724" data-name="Rectángulo 348724" width="36.064" height="20.492" transform="translate(26.001 59.318)" fill="#f5f5f5"/>
          <rect id="Rectángulo_348725" data-name="Rectángulo 348725" width="18.032" height="20.492" transform="translate(26.001 59.318)" fill="#e1e1e1"/>
          <path id="Trazado_714919" data-name="Trazado 714919" d="M102.751,118.339v6.714h2.913v-6.759Z" transform="translate(-51.227 -58.976)" fill="#fff"/>
          <path id="Trazado_714920" data-name="Trazado 714920" d="M68.764,125.053v-6.759l-2.913.045v6.714" transform="translate(-32.83 -58.976)" fill="#e1e1e1"/>
          <rect id="Rectángulo_348726" data-name="Rectángulo 348726" width="6.619" height="4.586" transform="translate(45.311 74.253)" fill="#fff"/>
          <g id="Grupo_1007365" data-name="Grupo 1007365">
            <g id="Grupo_1007364" data-name="Grupo 1007364" clip-path="url(#clip-path)">
              <path id="Trazado_714921" data-name="Trazado 714921" d="M96.953,152.64s0-.115,0-.328,0-.531,0-.924c0-.8-.006-1.947-.009-3.334l.018.018-6.618,0c-.006,0,.041-.042.021-.022v1.211q0,.6,0,1.174c0,.767,0,1.5,0,2.2l-.02-.02,4.767.01,1.362.006c.316,0,.489,0,.489,0s-.166,0-.48,0l-1.357.006-4.781.01h-.02v-.02c0-.7,0-1.433,0-2.2q0-.576,0-1.174v-1.211l.023-.023,6.618,0h.018v.018c0,1.391-.007,2.537-.009,3.345,0,.392,0,.7,0,.921s0,.32,0,.32" transform="translate(-45.024 -73.802)" fill="#e1e1e1"/>
              <path id="Trazado_714922" data-name="Trazado 714922" d="M96.951,152.638s0-.091,0-.258,0-.421,0-.729c0-.639-.006-1.541-.009-2.641l.017.018-5.745,0,.022-.022h0v.951q0,.47,0,.926c0,.607,0,1.192,0,1.75l-.021-.02,4.132.01,1.186.006c.276,0,.427.005.427.005s-.145,0-.419.005l-1.181.006-4.145.01h-.02v-.02c0-.558,0-1.143,0-1.75q0-.455,0-.926v-.951h0l.022-.022,5.745,0h.018v.017c0,1.1-.007,2.01-.009,2.652,0,.306,0,.549,0,.725s0,.252,0,.252" transform="translate(-45.458 -74.278)" fill="#e1e1e1"/>
              <rect id="Rectángulo_348727" data-name="Rectángulo 348727" width="1.706" height="1.757" transform="translate(49.387 76.155)" fill="#e1e1e1"/>
              <path id="Trazado_714923" data-name="Trazado 714923" d="M95.059,154.455c0,.012-.61.022-1.361.022s-1.361-.01-1.361-.022.609-.022,1.361-.022,1.361.01,1.361.022" transform="translate(-46.034 -76.993)" fill="#e1e1e1"/>
              <path id="Trazado_714924" data-name="Trazado 714924" d="M95.059,152.007c0,.012-.61.022-1.361.022s-1.361-.01-1.361-.022.609-.022,1.361-.022,1.361.01,1.361.022" transform="translate(-46.034 -75.773)" fill="#e1e1e1"/>
              <path id="Trazado_714925" data-name="Trazado 714925" d="M95.059,151.066c0,.012-.61.022-1.361.022s-1.361-.01-1.361-.022.609-.022,1.361-.022,1.361.01,1.361.022" transform="translate(-46.034 -75.304)" fill="#e1e1e1"/>
              <path id="Trazado_714926" data-name="Trazado 714926" d="M95.059,150.154c0,.012-.61.022-1.361.022s-1.361-.01-1.361-.022.609-.022,1.361-.022,1.361.01,1.361.022" transform="translate(-46.034 -74.849)" fill="#e1e1e1"/>
              <path id="Trazado_714927" data-name="Trazado 714927" d="M95.059,155.352c0,.012-.61.022-1.361.022s-1.361-.01-1.361-.022.609-.022,1.361-.022,1.361.01,1.361.022" transform="translate(-46.034 -77.44)" fill="#e1e1e1"/>
              <rect id="Rectángulo_348728" data-name="Rectángulo 348728" width="4.492" height="4.586" transform="translate(53.017 74.253)" fill="#fff"/>
              <path id="Trazado_714928" data-name="Trazado 714928" d="M110.194,152.64s0-.118,0-.334,0-.54-.005-.934c0-.812-.006-1.953-.01-3.318l.019.019-4.492,0,.022-.022h0v1.236q0,.608,0,1.186c0,.77,0,1.5,0,2.162l-.019-.019,3.251.01.915,0c.212,0,.326,0,.326,0s-.109,0-.319,0l-.91,0-3.263.01h-.019v-.019c0-.666,0-1.392,0-2.162q0-.578,0-1.186v-1.236h0l.022-.023,4.492,0h.019v.019c0,1.369-.008,2.515-.01,3.33,0,.393,0,.705-.005.93s0,.326,0,.326" transform="translate(-52.684 -73.802)" fill="#e1e1e1"/>
              <path id="Trazado_714929" data-name="Trazado 714929" d="M107.442,150.453l.558-.908.564.9h-.315v2.212h-.5v-2.2Z" transform="translate(-53.566 -74.556)" fill="#e1e1e1"/>
              <path id="Trazado_714930" data-name="Trazado 714930" d="M110.77,150.453l.558-.908.564.9h-.315v2.212h-.5v-2.2Z" transform="translate(-55.225 -74.556)" fill="#e1e1e1"/>
              <path id="Trazado_714931" data-name="Trazado 714931" d="M7.487,110.032a8.579,8.579,0,0,0-3.671-1.264,2.446,2.446,0,0,0-1.737.319.357.357,0,0,0-.179.317.389.389,0,0,0,.17.217,5.249,5.249,0,0,0,5.417.41" transform="translate(-0.946 -54.213)" fill="#e1e1e1"/>
              <path id="Trazado_714932" data-name="Trazado 714932" d="M8.978,105.387A17.96,17.96,0,0,1,6.606,103.3a6,6,0,0,1-1.486-2.749,1.109,1.109,0,0,1,.117-.92,9.227,9.227,0,0,1,3.74,5.756" transform="translate(-2.531 -49.671)" fill="#e1e1e1"/>
              <path id="Trazado_714933" data-name="Trazado 714933" d="M12.886,105.638a8.567,8.567,0,0,1,.044-3.113,4.208,4.208,0,0,1,1.658-2.569,3.676,3.676,0,0,1-.044,2.441,11.852,11.852,0,0,1-1.644,3.462" transform="translate(-6.364 -49.833)" fill="#e1e1e1"/>
              <path id="Trazado_714934" data-name="Trazado 714934" d="M12.1,117.908a5.423,5.423,0,0,0-2.944,1.49,5.571,5.571,0,0,0-1.684,2.891,3.973,3.973,0,0,0,2.718-1.718c.678-.873,1.149-1.83,1.894-2.646" transform="translate(-3.725 -58.784)" fill="#e1e1e1"/>
              <path id="Trazado_714935" data-name="Trazado 714935" d="M17,112.138a7.26,7.26,0,0,1,.838-6.868A8.743,8.743,0,0,1,17,112.138" transform="translate(-8.223 -52.483)" fill="#e1e1e1"/>
              <path id="Trazado_714936" data-name="Trazado 714936" d="M17.319,124.77a5.25,5.25,0,0,0-5.02,2.89c-.062.124-.117.282-.034.394a.375.375,0,0,0,.333.1,4.369,4.369,0,0,0,2.59-1.337,24.753,24.753,0,0,1,2.154-2.047" transform="translate(-6.093 -62.2)" fill="#e1e1e1"/>
              <path id="Trazado_714937" data-name="Trazado 714937" d="M21.812,117.548a9.351,9.351,0,0,1-.093-5.223,2.545,2.545,0,0,1,1.115-1.7.218.218,0,0,1,.17-.03.226.226,0,0,1,.108.125,3.149,3.149,0,0,1,.263,1.5,9.426,9.426,0,0,1-.235,1.517,8.075,8.075,0,0,1-.809,2.723,5.537,5.537,0,0,0-.323.6c-.1.2-.1.275-.186.436" transform="translate(-10.665 -55.136)" fill="#e1e1e1"/>
              <path id="Trazado_714938" data-name="Trazado 714938" d="M34.974,120.668a6.736,6.736,0,0,1,1.18-5.537c.085-.11.2-.228.335-.216.212.02.267.3.257.515a10,10,0,0,1-1.773,5.238" transform="translate(-17.347 -57.291)" fill="#e1e1e1"/>
              <path id="Trazado_714939" data-name="Trazado 714939" d="M36.318,125.282a8.055,8.055,0,0,0,6.61-1.344,5.353,5.353,0,0,0-3.578-.439,5.107,5.107,0,0,0-3.031,1.784" transform="translate(-18.106 -61.506)" fill="#e1e1e1"/>
              <path id="Trazado_714940" data-name="Trazado 714940" d="M37.3,121.313a7.639,7.639,0,0,1,6-3.468,3.7,3.7,0,0,1-1.962,2.169,10.885,10.885,0,0,1-2.879.842,2.03,2.03,0,0,0-1.157.457" transform="translate(-18.597 -58.752)" fill="#e1e1e1"/>
              <path id="Trazado_714941" data-name="Trazado 714941" d="M34.542,106.046a17.419,17.419,0,0,0,.767-3.513,5.851,5.851,0,0,0-.7-3.475,7.65,7.65,0,0,0-.1,7.109" transform="translate(-16.792 -49.386)" fill="#e1e1e1"/>
              <path id="Trazado_714942" data-name="Trazado 714942" d="M43.193,104.368a9.414,9.414,0,0,1,6.929-4.714,7.72,7.72,0,0,1-6.929,4.714" transform="translate(-21.534 -49.683)" fill="#e1e1e1"/>
              <path id="Trazado_714943" data-name="Trazado 714943" d="M41.49,109.617c2.024.308,3.749,1.6,5.641,2.385a2.529,2.529,0,0,0,1.276.245,1,1,0,0,0,.625-1.766,2.733,2.733,0,0,0-.926-.562,10.3,10.3,0,0,0-6.441-.359" transform="translate(-20.685 -54.448)" fill="#e1e1e1"/>
              <path id="Trazado_714944" data-name="Trazado 714944" d="M39.153,112.754a2.393,2.393,0,0,1,.978.677,10.543,10.543,0,0,0,4.278,2.2c.163.041.378.057.459-.091.07-.129-.019-.285-.111-.4a5.889,5.889,0,0,0-2.583-1.754,6.587,6.587,0,0,0-3.021-.716" transform="translate(-19.52 -56.165)" fill="#e1e1e1"/>
              <path id="Trazado_714945" data-name="Trazado 714945" d="M36.517,95.531a8.1,8.1,0,0,0,6.206,2.112.426.426,0,0,0,.283-.1c.156-.17-.032-.432-.214-.574a7.149,7.149,0,0,0-6.276-1.436" transform="translate(-18.206 -47.518)" fill="#e1e1e1"/>
              <path id="Trazado_714946" data-name="Trazado 714946" d="M39.643,92.929a8.651,8.651,0,0,1,7.745-1.278,6.149,6.149,0,0,1-3.691,1.62,11.694,11.694,0,0,1-4.054-.342" transform="translate(-19.764 -45.49)" fill="#e1e1e1"/>
              <path id="Trazado_714947" data-name="Trazado 714947" d="M37.361,81.3c-.18-1.821-.063-3.259-.19-5.089-.01-.146-.041-.322-.178-.375-.191-.073-.349.161-.411.355a5.831,5.831,0,0,0,.777,5.069" transform="translate(-18.105 -37.802)" fill="#e1e1e1"/>
              <path id="Trazado_714948" data-name="Trazado 714948" d="M38.139,81.456a10.706,10.706,0,0,0,3.017-2.932,4.01,4.01,0,0,0,.963-2.793,2.886,2.886,0,0,0-2.176,1.081,6.07,6.07,0,0,0-1.11,2.232c-.242.8-.411,1.625-.694,2.412" transform="translate(-19.014 -37.756)" fill="#e1e1e1"/>
              <path id="Trazado_714949" data-name="Trazado 714949" d="M44.012,80.971a24.327,24.327,0,0,0,7.425-4.378,3.791,3.791,0,0,0-2.789.215,8.793,8.793,0,0,0-4.674,4.144" transform="translate(-21.923 -38.094)" fill="#e1e1e1"/>
              <path id="Trazado_714950" data-name="Trazado 714950" d="M39.8,87a15.1,15.1,0,0,0,4.123.02,17.493,17.493,0,0,0,3.849-1.279.452.452,0,0,0,.262-.2.3.3,0,0,0-.094-.329.8.8,0,0,0-.328-.154,7.125,7.125,0,0,0-4.159.249A19.287,19.287,0,0,0,39.8,87" transform="translate(-19.843 -42.303)" fill="#e1e1e1"/>
              <path id="Trazado_714951" data-name="Trazado 714951" d="M23.511,89.872a7.293,7.293,0,0,1-.067-6.036,4.609,4.609,0,0,1,.534,3c-.1,1.031-.418,2.093-.438,3.129" transform="translate(-11.379 -41.797)" fill="#e1e1e1"/>
              <path id="Trazado_714952" data-name="Trazado 714952" d="M10.525,92.115a8.419,8.419,0,0,0-6.256,2.665,5.847,5.847,0,0,0,3.425-.635A17.413,17.413,0,0,0,10.63,92.18" transform="translate(-2.128 -45.923)" fill="#e1e1e1"/>
              <path id="Trazado_714953" data-name="Trazado 714953" d="M5.884,90.331a8.724,8.724,0,0,0-3.339.1A4.005,4.005,0,0,0,0,92.592,6.034,6.034,0,0,0,3.131,92a18.008,18.008,0,0,0,2.754-1.669" transform="translate(0 -44.98)" fill="#e1e1e1"/>
              <path id="Trazado_714954" data-name="Trazado 714954" d="M12.494,88.774a10.529,10.529,0,0,0-3.279-1.638,3.573,3.573,0,0,0-3.417.829,6.388,6.388,0,0,0,3.266.635,11.286,11.286,0,0,1,3.558.361" transform="translate(-2.891 -43.384)" fill="#e1e1e1"/>
              <path id="Trazado_714955" data-name="Trazado 714955" d="M17.181,83.486A7.624,7.624,0,0,1,15.465,76.3a10.942,10.942,0,0,1,1.716,7.182" transform="translate(-7.572 -38.042)" fill="#e1e1e1"/>
              <path id="Trazado_714956" data-name="Trazado 714956" d="M28.8,75.244c.331-.77.564-1.579.861-2.362A6.793,6.793,0,0,1,30.886,70.7a3.236,3.236,0,0,1,2.176-1.127,8.763,8.763,0,0,1-4.222,5.68" transform="translate(-14.356 -34.687)" fill="#e1e1e1"/>
              <path id="Trazado_714957" data-name="Trazado 714957" d="M22.535,79.832A11.286,11.286,0,0,0,20.61,77.49a3.22,3.22,0,0,0-2.619-.687,6.1,6.1,0,0,0,4.544,3.03" transform="translate(-8.969 -38.257)" fill="#e1e1e1"/>
              <path id="Trazado_714958" data-name="Trazado 714958" d="M26.477,75.378a12.968,12.968,0,0,1-.867-2.806,4.373,4.373,0,0,1,.439-2.854,6.476,6.476,0,0,1,.477,5.68" transform="translate(-12.737 -34.758)" fill="#e1e1e1"/>
              <path id="Trazado_714959" data-name="Trazado 714959" d="M28.814,65.876A6.121,6.121,0,0,1,32.8,62.128a1.488,1.488,0,0,1,.7-.1.605.605,0,0,1,.515.43c.065.307-.189.583-.427.787a13.574,13.574,0,0,1-4.774,2.636" transform="translate(-14.365 -30.917)" fill="#e1e1e1"/>
              <path id="Trazado_714960" data-name="Trazado 714960" d="M28.825,60.732a12.949,12.949,0,0,1,.521-3.451,4.362,4.362,0,0,1,2.172-2.622,5.118,5.118,0,0,1-.964,3.36,15.406,15.406,0,0,0-1.757,3.1" transform="translate(-14.356 -27.25)" fill="#e1e1e1"/>
              <path id="Trazado_714961" data-name="Trazado 714961" d="M25.427,62.072c-.451-1.317-.5-2.99-1.287-4.137-.551-.8-1.434-1.348-1.909-2.2a3.341,3.341,0,0,0,.111,2.495A7.222,7.222,0,0,0,23.8,60.321c.584.623,1.083,1.092,1.626,1.751" transform="translate(-10.988 -27.788)" fill="#e1e1e1"/>
              <path id="Trazado_714962" data-name="Trazado 714962" d="M28.747,106.693c-.035,0-.066-8.785-.068-19.619s.024-19.621.059-19.621.066,8.783.068,19.621-.024,19.619-.059,19.619" transform="translate(-14.298 -33.629)" fill="#e1e1e1"/>
              <path id="Trazado_714963" data-name="Trazado 714963" d="M36.479,93.229a1.862,1.862,0,0,1-.33.124l-.909.307c-.767.261-1.819.639-2.962,1.107a12,12,0,0,0-2.806,1.406,2.061,2.061,0,0,0-.564.746c-.087.206-.1.332-.114.33a.257.257,0,0,1,0-.092,1.4,1.4,0,0,1,.064-.256,1.984,1.984,0,0,1,.551-.8,4.938,4.938,0,0,1,1.218-.756c.487-.227,1.027-.464,1.6-.7,1.146-.47,2.207-.835,2.982-1.075.388-.121.7-.21.923-.269a1.89,1.89,0,0,1,.344-.077" transform="translate(-14.354 -46.479)" fill="#e1e1e1"/>
              <path id="Trazado_714964" data-name="Trazado 714964" d="M39.6,80.9a.533.533,0,0,1-.093.1l-.282.265-1.052.956-3.5,3.118C33.3,86.559,32.118,87.722,31.3,88.6c-.41.437-.733.8-.953,1.053l-.255.29a.542.542,0,0,1-.095.1.529.529,0,0,1,.075-.113c.053-.071.13-.176.236-.306.209-.263.523-.635.925-1.082a44.419,44.419,0,0,1,3.349-3.289c1.372-1.214,2.621-2.3,3.528-3.091l1.079-.926.3-.247a.515.515,0,0,1,.109-.08" transform="translate(-14.955 -40.335)" fill="#e1e1e1"/>
              <path id="Trazado_714965" data-name="Trazado 714965" d="M36.364,89.2c-.036-.016.25-.675.535-1.509s.422-1.538.459-1.532a5.159,5.159,0,0,1-.339,1.573,10.182,10.182,0,0,1-.425,1.056,1.645,1.645,0,0,1-.229.413" transform="translate(-18.128 -42.954)" fill="#e1e1e1"/>
              <path id="Trazado_714966" data-name="Trazado 714966" d="M23.768,96.448a1.555,1.555,0,0,1-.211-.245l-.541-.692c-.453-.586-1.08-1.4-1.782-2.28s-1.349-1.68-1.816-2.254l-.552-.683a1.517,1.517,0,0,1-.19-.261,1.636,1.636,0,0,1,.227.229c.141.152.34.377.583.657.486.561,1.144,1.346,1.847,2.233s1.32,1.7,1.755,2.306c.218.3.391.545.507.717a1.619,1.619,0,0,1,.171.274" transform="translate(-9.311 -44.887)" fill="#e1e1e1"/>
              <path id="Trazado_714967" data-name="Trazado 714967" d="M24.6,95.877a3.1,3.1,0,0,1-.705-1.32,3.766,3.766,0,0,1-.16-1.331l.056,0c-.025.1-.044.155-.054.154s-.011-.058,0-.163l.056,0a6.085,6.085,0,0,0,.225,1.295,9.906,9.906,0,0,0,.584,1.356" transform="translate(-11.831 -46.476)" fill="#e1e1e1"/>
              <path id="Trazado_714968" data-name="Trazado 714968" d="M17.359,92.528a2.279,2.279,0,0,0-.492-.286,3.289,3.289,0,0,0-1.367-.109,8.424,8.424,0,0,0-1.376.222,4.188,4.188,0,0,1-.566.136,1.965,1.965,0,0,1,.542-.223,6.31,6.31,0,0,1,1.391-.262,2.983,2.983,0,0,1,1.41.152.872.872,0,0,1,.459.369" transform="translate(-6.759 -45.861)" fill="#e1e1e1"/>
              <path id="Trazado_714969" data-name="Trazado 714969" d="M14.8,90.941c-.01.02-.287-.115-.754-.275a7.6,7.6,0,0,0-3.8-.29c-.486.087-.78.179-.787.157a.7.7,0,0,1,.2-.085,4.662,4.662,0,0,1,.57-.16,6.7,6.7,0,0,1,3.85.293,4.853,4.853,0,0,1,.539.244.71.71,0,0,1,.185.115" transform="translate(-4.715 -44.936)" fill="#e1e1e1"/>
              <path id="Trazado_714970" data-name="Trazado 714970" d="M27.821,82.327a15.592,15.592,0,0,1-.55-1.911,15.737,15.737,0,0,1-.427-1.943,15.584,15.584,0,0,1,.55,1.911,15.63,15.63,0,0,1,.427,1.942" transform="translate(-13.381 -39.123)" fill="#e1e1e1"/>
              <path id="Trazado_714971" data-name="Trazado 714971" d="M27.367,84.1a9.145,9.145,0,0,0-.61-1.144,5.027,5.027,0,0,0-.9-.926.829.829,0,0,1,.346.179,2.782,2.782,0,0,1,.655.674,2.539,2.539,0,0,1,.506,1.217" transform="translate(-12.893 -40.894)" fill="#e1e1e1"/>
              <path id="Trazado_714972" data-name="Trazado 714972" d="M20.812,123.62c-.014,0-.04-.211-.138-.584a8.317,8.317,0,0,0-.587-1.521,21.042,21.042,0,0,0-3.114-4.388c-.7-.794-1.37-1.544-1.943-2.262a15.927,15.927,0,0,1-1.39-2,9.676,9.676,0,0,1-.7-1.487c-.065-.184-.112-.326-.138-.425a.744.744,0,0,1-.036-.152c.012,0,.075.2.22.559a10.846,10.846,0,0,0,.733,1.459,16.808,16.808,0,0,0,1.4,1.976c.575.71,1.251,1.456,1.947,2.251a19.934,19.934,0,0,1,3.1,4.432,7.575,7.575,0,0,1,.554,1.548,4.132,4.132,0,0,1,.078.441.683.683,0,0,1,.013.155" transform="translate(-6.364 -55.239)" fill="#e1e1e1"/>
              <path id="Trazado_714973" data-name="Trazado 714973" d="M35.749,120.741a3.12,3.12,0,0,1-.364.2,7.956,7.956,0,0,0-.943.623A10.824,10.824,0,0,0,33.2,122.7c-.435.459-.883.992-1.34,1.564-.914,1.147-1.768,2.161-2.28,2.971-.26.4-.449.741-.573.978a3.24,3.24,0,0,1-.2.366.341.341,0,0,1,.034-.1c.027-.066.064-.163.122-.285a9.324,9.324,0,0,1,.541-1,32.663,32.663,0,0,1,2.257-3c.458-.573.911-1.107,1.354-1.566a10.11,10.11,0,0,1,1.269-1.12,6.6,6.6,0,0,1,.974-.6c.12-.061.219-.1.284-.126a.349.349,0,0,1,.1-.035" transform="translate(-14.364 -60.196)" fill="#e1e1e1"/>
              <path id="Trazado_714974" data-name="Trazado 714974" d="M38.151,125.8a5.3,5.3,0,0,1-.768.112,10.141,10.141,0,0,0-1.823.359,5.494,5.494,0,0,0-1.632.856c-.376.291-.554.531-.571.517a.6.6,0,0,1,.114-.177,2.906,2.906,0,0,1,.4-.41,4.945,4.945,0,0,1,1.649-.908,8.259,8.259,0,0,1,1.853-.327,4.232,4.232,0,0,1,.777-.022" transform="translate(-16.63 -62.714)" fill="#e1e1e1"/>
              <path id="Trazado_714975" data-name="Trazado 714975" d="M33.8,126.343c-.04-.023.306-.552.575-1.263.252-.718.311-1.347.357-1.34a1.215,1.215,0,0,1-.013.412,4.385,4.385,0,0,1-.224.971,4.677,4.677,0,0,1-.445.891,1.247,1.247,0,0,1-.249.329" transform="translate(-16.851 -61.691)" fill="#e1e1e1"/>
              <path id="Trazado_714976" data-name="Trazado 714976" d="M38,107.132a.57.57,0,0,1-.123.065l-.361.164c-.158.068-.351.153-.567.268s-.47.227-.734.386l-.419.239c-.145.083-.289.183-.442.278-.309.188-.619.419-.949.654a16.253,16.253,0,0,0-3.655,3.782c-.225.338-.445.655-.621.971-.091.156-.185.3-.264.451l-.224.427c-.149.269-.256.526-.361.747s-.186.415-.248.575l-.152.367a.555.555,0,0,1-.061.125.6.6,0,0,1,.037-.133l.13-.376c.056-.163.128-.362.229-.586s.2-.485.345-.759l.218-.434c.077-.15.169-.3.259-.458.174-.32.392-.641.616-.984a15.694,15.694,0,0,1,3.682-3.81c.335-.235.649-.464.962-.649.155-.095.3-.192.449-.274l.426-.233c.268-.154.526-.265.747-.371s.416-.188.578-.249l.371-.142a.586.586,0,0,1,.132-.042" transform="translate(-14.367 -53.411)" fill="#e1e1e1"/>
              <path id="Trazado_714977" data-name="Trazado 714977" d="M36.178,113.557a.886.886,0,0,1,.3-.45,1.907,1.907,0,0,1,1.217-.466,3.326,3.326,0,0,1,1.28.25,1.828,1.828,0,0,1,.484.235,2.929,2.929,0,0,1-.513-.15,3.856,3.856,0,0,0-1.246-.208,1.979,1.979,0,0,0-1.162.408,3.55,3.55,0,0,0-.361.382" transform="translate(-18.036 -56.157)" fill="#e1e1e1"/>
              <path id="Trazado_714978" data-name="Trazado 714978" d="M34.54,113.873a3.244,3.244,0,0,0,.268-2.3.737.737,0,0,1,.143.327,2.324,2.324,0,0,1-.2,1.684c-.107.195-.2.295-.214.286" transform="translate(-17.219 -55.627)" fill="#e1e1e1"/>
              <path id="Trazado_714979" data-name="Trazado 714979" d="M16.714,138.878A29.082,29.082,0,0,0,19.471,149.1h6.767a29.392,29.392,0,0,0,2.593-10.223Z" transform="translate(-8.333 -69.238)" fill="#e1e1e1"/>
              <path id="Trazado_714980" data-name="Trazado 714980" d="M28.8,149.648c0,.035-2.228.064-4.975.064s-4.976-.029-4.976-.064,2.227-.064,4.976-.064,4.975.029,4.975.064" transform="translate(-9.395 -74.576)" fill="#fafafa"/>
              <path id="Trazado_714981" data-name="Trazado 714981" d="M29.113,152.074c0,.035-2.089.064-4.664.064s-4.665-.029-4.665-.064,2.088-.064,4.665-.064,4.664.029,4.664.064" transform="translate(-9.863 -75.785)" fill="#fafafa"/>
              <path id="Trazado_714982" data-name="Trazado 714982" d="M22.367,143.274a19.1,19.1,0,0,1,0,3.117,19.1,19.1,0,0,1,0-3.117" transform="translate(-11.119 -71.43)" fill="#fafafa"/>
              <path id="Trazado_714983" data-name="Trazado 714983" d="M29.6,143.274a20.488,20.488,0,0,1,0,3.228,20.489,20.489,0,0,1,0-3.228" transform="translate(-14.724 -71.43)" fill="#fafafa"/>
              <path id="Trazado_714984" data-name="Trazado 714984" d="M36.384,143.219a21.309,21.309,0,0,1,0,3.293,21.31,21.31,0,0,1,0-3.293" transform="translate(-18.107 -71.402)" fill="#fafafa"/>
              <path id="Trazado_714985" data-name="Trazado 714985" d="M28.844,143.211c0,.035-2.613.064-5.836.064s-5.836-.029-5.836-.064,2.613-.064,5.836-.064,5.836.029,5.836.064" transform="translate(-8.561 -71.367)" fill="#fafafa"/>
              <path id="Trazado_714986" data-name="Trazado 714986" d="M223.474,68.542s-1.666-.12-1.512,3.617a43.205,43.205,0,0,0,.535,5.728s-.049.829-.691.666-1.849-.969-2.445-.366c-.618.625-.4,1.584.422,2.714s2.526,3.67,2.68,3.9.211.65-.244.609-3.526-1.082-3.932.405,2.4,4.258,2.7,4.567.316.5.195.69-1.121-.26-2.006-.521-1.958-.407-2.121.47,1.071,3.445,5.693,6.144l2.223,1.11,2.1-1.342c4.329-3.148,5.3-5.825,5.051-6.682s-1.3-.6-2.157-.256-1.8.893-1.945.719-.143-.369.125-.707,2.779-3.375,2.226-4.813-3.5-.1-3.953-.01-.431-.342-.3-.582,1.573-2.943,2.277-4.148.826-2.182.148-2.742c-.653-.54-1.774.383-2.4.609s-.754-.593-.754-.593a43.34,43.34,0,0,0-.041-5.753c-.221-3.734-1.907-3.432-1.907-3.432" transform="translate(-108.204 -34.169)" fill="#ececec"/>
              <path id="Trazado_714987" data-name="Trazado 714987" d="M230.136,75.223s0,.026.009.078.01.132.018.23c.014.206.034.5.06.883.051.766.116,1.876.192,3.247.152,2.743.33,6.533.513,10.72s.352,7.98.488,10.723c.07,1.368.126,2.477.165,3.248.019.381.034.677.044.883,0,.1.007.174.01.23s0,.078,0,.078,0-.026-.009-.078-.011-.131-.018-.23c-.014-.206-.034-.5-.06-.882-.051-.767-.117-1.876-.193-3.247-.152-2.743-.33-6.534-.513-10.722s-.352-7.978-.488-10.721c-.07-1.368-.126-2.478-.165-3.248-.019-.381-.034-.677-.044-.884,0-.1-.007-.174-.009-.23s0-.079,0-.079" transform="translate(-114.735 -37.503)" fill="#e1e1e1"/>
              <path id="Trazado_714988" data-name="Trazado 714988" d="M224.948,90.167a.749.749,0,0,1,.138.115c.086.077.206.194.353.338.293.291.688.7,1.115,1.166l1.088,1.19.331.359a.769.769,0,0,1,.116.137.72.72,0,0,1-.139-.114c-.085-.078-.206-.195-.351-.341-.291-.294-.68-.711-1.107-1.174l-1.1-1.181-.333-.358a.757.757,0,0,1-.115-.138" transform="translate(-112.148 -44.953)" fill="#e1e1e1"/>
              <path id="Trazado_714989" data-name="Trazado 714989" d="M231.651,92.892c-.017-.017.8-.868,1.816-1.9s1.86-1.858,1.877-1.842-.8.868-1.816,1.9-1.86,1.858-1.877,1.842" transform="translate(-115.49 -44.445)" fill="#e1e1e1"/>
              <path id="Trazado_714990" data-name="Trazado 714990" d="M231.632,107.047a.785.785,0,0,1,.155-.1l.435-.244c.367-.207.873-.493,1.42-.829s1.033-.655,1.383-.89l.415-.277a.735.735,0,0,1,.158-.093.782.782,0,0,1-.139.12c-.093.073-.229.176-.4.3-.341.247-.823.576-1.373.912s-1.061.616-1.436.809c-.188.1-.34.171-.448.221a.77.77,0,0,1-.17.069" transform="translate(-115.481 -52.156)" fill="#e1e1e1"/>
              <path id="Trazado_714991" data-name="Trazado 714991" d="M224.286,104.966a.665.665,0,0,1,.154.072c.1.051.234.128.4.224.338.192.8.463,1.313.767s.97.583,1.3.788c.165.1.3.187.389.247a.64.64,0,0,1,.137.1.639.639,0,0,1-.154-.072c-.1-.051-.234-.127-.4-.224-.338-.193-.8-.463-1.314-.767s-.97-.583-1.3-.788c-.165-.1-.3-.188-.389-.247a.652.652,0,0,1-.137-.1" transform="translate(-111.819 -52.331)" fill="#e1e1e1"/>
              <path id="Trazado_714992" data-name="Trazado 714992" d="M222.829,116.309a1.09,1.09,0,0,1,.2.095l.518.285c.435.244,1.033.587,1.691.97s1.252.734,1.679.991l.5.309a1.066,1.066,0,0,1,.178.123,1.065,1.065,0,0,1-.2-.095l-.517-.285c-.435-.244-1.033-.587-1.691-.97s-1.251-.734-1.678-.991l-.5-.309a1.061,1.061,0,0,1-.179-.123" transform="translate(-111.092 -57.986)" fill="#e1e1e1"/>
              <path id="Trazado_714993" data-name="Trazado 714993" d="M232.143,118.44a1.2,1.2,0,0,1,.194-.129l.54-.329c.456-.278,1.085-.664,1.768-1.109s1.291-.862,1.729-1.168l.519-.361a1.182,1.182,0,0,1,.2-.124,1.233,1.233,0,0,1-.177.151c-.117.093-.289.225-.5.384-.43.318-1.034.745-1.718,1.19s-1.318.824-1.783,1.09c-.233.132-.422.237-.555.306a1.234,1.234,0,0,1-.21.1" transform="translate(-115.736 -57.443)" fill="#e1e1e1"/>
              <path id="Trazado_714994" data-name="Trazado 714994" d="M232.692,129.3H226.54l2.008,15.2h2.136Z" transform="translate(-112.942 -64.461)" fill="#e1e1e1"/>
              <path id="Trazado_714995" data-name="Trazado 714995" d="M227.177,132.4s.007.022.033.054a.393.393,0,0,0,.148.106.746.746,0,0,0,.65-.08,4.933,4.933,0,0,1,.8-.526,1.748,1.748,0,0,1,1.131.023,4.833,4.833,0,0,1,1.053.51,7.374,7.374,0,0,0,.857.46,2.381,2.381,0,0,0,.631.183,1.214,1.214,0,0,0,.178.012c.041,0,.063,0,.063-.005a3.231,3.231,0,0,1-.844-.255,8.4,8.4,0,0,1-.838-.474,4.675,4.675,0,0,0-1.071-.527,1.8,1.8,0,0,0-1.194-.013,1.583,1.583,0,0,0-.449.278,3.523,3.523,0,0,1-.352.273.724.724,0,0,1-.6.1.61.61,0,0,1-.2-.124" transform="translate(-113.26 -65.695)" fill="#f5f5f5"/>
              <path id="Trazado_714996" data-name="Trazado 714996" d="M227.624,137.495c.008.005.049-.063.145-.163a1.369,1.369,0,0,1,.491-.312,2.2,2.2,0,0,1,.855-.129,9.007,9.007,0,0,1,1.07.146,3.684,3.684,0,0,0,1.1.046,3.009,3.009,0,0,0,.862-.246,2.753,2.753,0,0,0,.518-.308.759.759,0,0,0,.164-.148,5.473,5.473,0,0,1-.712.391,3.151,3.151,0,0,1-.845.22,3.789,3.789,0,0,1-1.069-.053,8,8,0,0,0-1.084-.139,2.172,2.172,0,0,0-.885.155,1.3,1.3,0,0,0-.494.351.9.9,0,0,0-.093.136c-.018.034-.026.051-.023.053" transform="translate(-113.483 -67.992)" fill="#f5f5f5"/>
              <path id="Trazado_714997" data-name="Trazado 714997" d="M232.881,141.17a.52.52,0,0,0-.169-.088,1.832,1.832,0,0,0-.51-.109,3.291,3.291,0,0,0-.771.044c-.287.047-.594.126-.917.195a3.882,3.882,0,0,1-.916.1,2,2,0,0,1-.727-.157,1.67,1.67,0,0,1-.552-.411.491.491,0,0,0,.1.161,1.3,1.3,0,0,0,.418.314,1.953,1.953,0,0,0,.753.185,3.694,3.694,0,0,0,.941-.1c.326-.07.632-.151.913-.2a3.508,3.508,0,0,1,.751-.064,2.819,2.819,0,0,1,.683.126" transform="translate(-113.829 -70.169)" fill="#f5f5f5"/>
              <path id="Trazado_714998" data-name="Trazado 714998" d="M228.709,145.441a1,1,0,0,1,.6-.06,2.868,2.868,0,0,1,.625.233,2.369,2.369,0,0,0,.811.224,2.429,2.429,0,0,0,1.471-.341,2.1,2.1,0,0,0,.367-.282c.075-.079.113-.125.108-.13a5.548,5.548,0,0,1-.51.35,2.523,2.523,0,0,1-1.427.3,11.686,11.686,0,0,1-1.434-.427.923.923,0,0,0-.464.04.305.305,0,0,0-.145.09" transform="translate(-114.024 -72.332)" fill="#f5f5f5"/>
              <path id="Trazado_714999" data-name="Trazado 714999" d="M229.392,150.768a1.183,1.183,0,0,0,.513-.1c.309-.1.692-.34,1.139-.518a1.84,1.84,0,0,1,.654-.137,1.2,1.2,0,0,1,.526.12,1.175,1.175,0,0,1,.38.328.278.278,0,0,0-.059-.13.841.841,0,0,0-.288-.261,1.208,1.208,0,0,0-.558-.15,1.834,1.834,0,0,0-.69.136c-.463.185-.834.429-1.129.546s-.489.152-.487.168" transform="translate(-114.364 -74.742)" fill="#f5f5f5"/>
              <path id="Trazado_715000" data-name="Trazado 715000" d="M229.993,154.315a1.425,1.425,0,0,0,.39.126,6.952,6.952,0,0,0,.973.164,7.037,7.037,0,0,0,.987.029,1.423,1.423,0,0,0,.407-.048c0-.03-.623,0-1.384-.08s-1.365-.22-1.373-.191" transform="translate(-114.664 -76.933)" fill="#f5f5f5"/>
              <path id="Trazado_715001" data-name="Trazado 715001" d="M138.068,159.211c0,.03-30.709.055-68.581.055S.9,159.241.9,159.211s30.7-.055,68.588-.055,68.581.025,68.581.055" transform="translate(-0.448 -79.348)" fill="#1a2e35"/>
              <path id="Trazado_715002" data-name="Trazado 715002" d="M90.627,65.772l5.694,19.22a2.01,2.01,0,0,0,1.927,1.439l23.1.064a2.136,2.136,0,1,0,.006-4.272h-8.834L105.447,62.51H93.063a2.54,2.54,0,0,0-2.436,3.262" transform="translate(-45.13 -31.165)" fill="#375a64"/>
              <path id="Trazado_715003" data-name="Trazado 715003" d="M119.25,104.889c0,.045-2.355.081-5.261.081s-5.261-.036-5.261-.081,2.355-.081,5.261-.081,5.261.036,5.261.081" transform="translate(-54.207 -52.252)" fill="#1a2e35"/>
              <path id="Trazado_715004" data-name="Trazado 715004" d="M94.12,63.727c.043-.014,1.616,4.588,3.513,10.277s3.4,10.315,3.359,10.329-1.616-4.586-3.514-10.278-3.4-10.315-3.359-10.329" transform="translate(-46.924 -31.771)" fill="#1a2e35"/>
              <path id="Trazado_715005" data-name="Trazado 715005" d="M120.58,134.757h5.849l-5.849-2.033V110.214h-1.408v22.48h-.088l-5.761,2.063h7.257Z" transform="translate(-56.498 -54.947)" fill="#375a64"/>
              <path id="Trazado_715006" data-name="Trazado 715006" d="M124.889,10.446a3.387,3.387,0,0,1,3.005.249,5.618,5.618,0,0,1,1.362,2.694,10.287,10.287,0,0,1,.5,2.021,13.663,13.663,0,0,1,.012,1.8,5.7,5.7,0,0,0,.725,3.376,9.67,9.67,0,0,1,1.2,1.642c.251.62-1.567,3.543-1.567,3.543l-4.308-2.3Z" transform="translate(-62.264 -5.094)" fill="#1a2e35"/>
              <path id="Trazado_715007" data-name="Trazado 715007" d="M131.982,128.864l-3.371,10.63,4.064.408,3.817-9.235Z" transform="translate(-64.12 -64.246)" fill="#ffc09d"/>
              <path id="Trazado_715008" data-name="Trazado 715008" d="M133.887,140.919l-1.936,4.8s4.229,3.58,3.957,4.5l-9.441-3.419,2.709-7.6Z" transform="translate(-63.051 -69.398)" fill="#00bcd4"/>
              <path id="Trazado_715009" data-name="Trazado 715009" d="M131.451,149.275a.41.41,0,0,0-.426.344.394.394,0,0,0,.336.425.433.433,0,0,0,.449-.366c0-.2-.2-.432-.4-.4" transform="translate(-65.322 -74.42)" fill="#e1e1e1"/>
              <path id="Trazado_715010" data-name="Trazado 715010" d="M126.467,153.6l.273-.767,8.969,3.572s.354.335.2.614Z" transform="translate(-63.051 -76.195)" fill="#e1e1e1"/>
              <path id="Trazado_715011" data-name="Trazado 715011" d="M136.7,152.079c-.018.046-.256-.017-.537.049s-.471.216-.507.183.129-.275.47-.349.6.079.574.117" transform="translate(-67.629 -75.751)" fill="#1a2e35"/>
              <path id="Trazado_715012" data-name="Trazado 715012" d="M138.561,153.692c-.006.049-.234.055-.461.193s-.347.328-.392.309.02-.29.305-.457.563-.09.548-.046" transform="translate(-68.648 -76.595)" fill="#1a2e35"/>
              <path id="Trazado_715013" data-name="Trazado 715013" d="M139.668,155.847c-.046-.006-.026-.259.184-.468s.462-.232.467-.187-.176.132-.346.307-.257.36-.3.348" transform="translate(-69.622 -77.362)" fill="#1a2e35"/>
              <path id="Trazado_715014" data-name="Trazado 715014" d="M137.387,149.555c-.035.035-.223-.105-.49-.182s-.5-.068-.509-.116.245-.142.558-.047.477.317.441.346" transform="translate(-67.996 -74.369)" fill="#1a2e35"/>
              <path id="Trazado_715015" data-name="Trazado 715015" d="M137.881,146.789a.942.942,0,0,1-.472-.174,2.319,2.319,0,0,1-.659-.574.608.608,0,0,1-.1-.163.213.213,0,0,1,.068-.253.269.269,0,0,1,.24-.033.67.67,0,0,1,.168.089,1.794,1.794,0,0,1,.257.208,1.766,1.766,0,0,1,.332.444.835.835,0,0,1,.139.485c-.026.008-.081-.176-.243-.424a2.028,2.028,0,0,0-.336-.39,1.892,1.892,0,0,0-.241-.182c-.091-.063-.176-.094-.217-.059-.016.014-.019.02-.009.057a.512.512,0,0,0,.076.119,2.641,2.641,0,0,0,.2.233,2.742,2.742,0,0,0,.394.34,3.454,3.454,0,0,1,.407.275" transform="translate(-68.118 -72.579)" fill="#1a2e35"/>
              <path id="Trazado_715016" data-name="Trazado 715016" d="M138.936,146.709a.8.8,0,0,1,.041-.5,1.629,1.629,0,0,1,.476-.738.415.415,0,0,1,.388-.129.235.235,0,0,1,.15.2.671.671,0,0,1-.015.191,1.117,1.117,0,0,1-.115.318,1.149,1.149,0,0,1-.379.415c-.273.178-.485.163-.483.146a4.078,4.078,0,0,0,.412-.244,1.157,1.157,0,0,0,.31-.39,1.021,1.021,0,0,0,.09-.276c.022-.105.014-.2-.028-.2a.287.287,0,0,0-.221.1,1.62,1.62,0,0,0-.21.214,1.823,1.823,0,0,0-.263.439c-.113.272-.126.463-.154.461" transform="translate(-69.257 -72.454)" fill="#1a2e35"/>
              <path id="Trazado_715017" data-name="Trazado 715017" d="M162.269,108.209l5.395,8.511,3.752-2.406-5.052-8.877Z" transform="translate(-80.9 -52.565)" fill="#ffc09d"/>
              <path id="Trazado_715018" data-name="Trazado 715018" d="M173.672,117.974l2.6,4.476s5.422-1.138,5.983-.358l-8.5,5.35-4.335-6.808Z" transform="translate(-84.466 -58.816)" fill="#00bcd4"/>
              <path id="Trazado_715019" data-name="Trazado 715019" d="M177.279,129.348a.41.41,0,0,0,.01.547.394.394,0,0,0,.542,0,.433.433,0,0,0-.013-.579.409.409,0,0,0-.564.067" transform="translate(-88.333 -64.428)" fill="#e1e1e1"/>
              <path id="Trazado_715020" data-name="Trazado 715020" d="M177.658,131.31l-.41-.7,8.3-4.867s.482-.074.607.22Z" transform="translate(-88.368 -62.684)" fill="#e1e1e1"/>
              <path id="Trazado_715021" data-name="Trazado 715021" d="M182.776,126.632c.025.042-.171.192-.291.454s-.119.5-.168.512-.137-.271.014-.586.43-.424.445-.381" transform="translate(-90.861 -63.128)" fill="#1a2e35"/>
              <path id="Trazado_715022" data-name="Trazado 715022" d="M185.236,126.252c.035.034-.1.218-.131.482s.046.475,0,.5-.217-.194-.173-.522.274-.5.3-.46" transform="translate(-92.197 -62.94)" fill="#1a2e35"/>
              <path id="Trazado_715023" data-name="Trazado 715023" d="M187.628,126.836c-.032.033-.221-.138-.257-.433s.1-.507.14-.483,0,.221.029.462.126.424.088.454" transform="translate(-93.411 -62.777)" fill="#1a2e35"/>
              <path id="Trazado_715024" data-name="Trazado 715024" d="M181.039,124.711c.007.049-.22.111-.444.275s-.361.353-.405.331.039-.281.306-.47.544-.182.544-.136" transform="translate(-89.829 -62.161)" fill="#1a2e35"/>
              <path id="Trazado_715025" data-name="Trazado 715025" d="M179.191,122.782c.012.017-.136.146-.427.266a2.244,2.244,0,0,1-.532.143,2.335,2.335,0,0,1-.326.025.633.633,0,0,1-.192-.02.213.213,0,0,1-.158-.209.269.269,0,0,1,.122-.209.658.658,0,0,1,.173-.079,1.8,1.8,0,0,1,.322-.076,1.765,1.765,0,0,1,.555.011.838.838,0,0,1,.468.188c-.011.026-.188-.044-.483-.069a2.013,2.013,0,0,0-.514.026,1.914,1.914,0,0,0-.292.078c-.1.033-.182.081-.18.135,0,.021,0,.027.039.042a.5.5,0,0,0,.141.014,2.618,2.618,0,0,0,.305-.013,2.763,2.763,0,0,0,.511-.1,3.441,3.441,0,0,1,.467-.152" transform="translate(-88.521 -61.126)" fill="#1a2e35"/>
              <path id="Trazado_715026" data-name="Trazado 715026" d="M180.125,121.563c-.011.016-.187-.081-.371-.34a1.626,1.626,0,0,1-.289-.829.414.414,0,0,1,.136-.386.236.236,0,0,1,.253.007.69.69,0,0,1,.142.128,1.135,1.135,0,0,1,.181.286,1.16,1.16,0,0,1,.1.554c-.028.325-.169.483-.182.472a4.04,4.04,0,0,0,.061-.475,1.158,1.158,0,0,0-.117-.485,1.033,1.033,0,0,0-.162-.241c-.07-.082-.15-.134-.178-.1a.288.288,0,0,0-.061.233,1.681,1.681,0,0,0,.04.3,1.792,1.792,0,0,0,.185.477c.145.257.287.384.269.4" transform="translate(-89.472 -59.814)" fill="#1a2e35"/>
              <path id="Trazado_715027" data-name="Trazado 715027" d="M122.888,83.154c.074.333,8.312,7.921,8.312,7.921l-4.784,15.895,6.748,2.113,7.346-19.844L127.6,76.577l-5.894,2.481Z" transform="translate(-60.678 -38.178)" fill="#1a2e35"/>
              <path id="Trazado_715028" data-name="Trazado 715028" d="M130.271,85.778,124.6,89.415a16.876,16.876,0,0,1-8.736,2.763l-.608.02a5.775,5.775,0,0,1-5.507-5.143,14.528,14.528,0,0,1,.943-6.79l.272-.688,4.257.518,1.681.845s15.05-2.875,16.362-2.587c2.343.514,10.936,19.256,10.936,19.256l-6.008,3.552-7.958-15.447" transform="translate(-54.681 -39.053)" fill="#1a2e35"/>
              <path id="Trazado_715029" data-name="Trazado 715029" d="M155.75,102.923a.442.442,0,0,1-.066-.092l-.168-.276c-.146-.24-.347-.594-.593-1.031-.489-.878-1.143-2.1-1.836-3.469s-1.3-2.614-1.735-3.521c-.216-.454-.388-.822-.5-1.078l-.13-.3a.057.057,0,1,1,.021-.01l.149.287.536,1.062L153.186,98c.693,1.366,1.335,2.6,1.806,3.483l.562,1.048.15.286a.43.43,0,0,1,.046.1" transform="translate(-75.121 -46.391)" fill="#375a64"/>
              <path id="Trazado_715030" data-name="Trazado 715030" d="M141.811,99.97a2.624,2.624,0,0,1-.2.506c-.139.306-.337.725-.563,1.184s-.436.874-.593,1.171a2.657,2.657,0,0,1-.276.471,2.607,2.607,0,0,1,.2-.5c.139-.306.338-.726.564-1.186s.436-.875.593-1.171a2.653,2.653,0,0,1,.275-.47" transform="translate(-69.884 -49.84)" fill="#375a64"/>
              <path id="Trazado_715031" data-name="Trazado 715031" d="M141.144,91.386a.693.693,0,0,1-.115.088l-.341.235-1.268.846c-1.076.707-2.552,1.7-4.216,2.744a32.673,32.673,0,0,1-4.429,2.387c-.591.257-1.083.432-1.424.548l-.4.123a.653.653,0,0,1-.14.036.764.764,0,0,1,.133-.057l.389-.142c.336-.128.822-.314,1.407-.579a36.1,36.1,0,0,0,4.4-2.41c1.661-1.046,3.145-2.026,4.232-2.715l1.287-.817.353-.217a.668.668,0,0,1,.127-.069" transform="translate(-64.221 -45.561)" fill="#375a64"/>
              <path id="Trazado_715032" data-name="Trazado 715032" d="M130.12,80.33c.006.03-2.616.583-5.853,1.237s-5.869,1.158-5.875,1.129,2.614-.584,5.853-1.237,5.868-1.159,5.875-1.129" transform="translate(-59.025 -40.048)" fill="#375a64"/>
              <path id="Trazado_715033" data-name="Trazado 715033" d="M138.616,103.675c-.025.022-.459-.44-1.045-.956s-1.1-.894-1.076-.921a7.4,7.4,0,0,1,2.121,1.877" transform="translate(-68.05 -50.751)" fill="#375a64"/>
              <path id="Trazado_715034" data-name="Trazado 715034" d="M162.92,38.229a15.076,15.076,0,0,1,1.064-1.965,11.01,11.01,0,0,1,2.377-.885c.172.052,2.6.43,2.322.721s-1.965,0-1.965,0l-.225.117a10.33,10.33,0,0,1,1.77.384c.285.159.193.506-.074.482s-1.537-.251-1.611-.2,1.382.321,1.539.412c.212.121.239.494-.027.48-.157-.009-1.531-.342-1.531-.342a11.841,11.841,0,0,1,1.193.5c.166.153.04.392-.2.343-.162-.033-.934-.388-1.151-.432,0,0-.2.057-.379.468a7.91,7.91,0,0,1-1.215,1.38l-.709.585-1.642-1.61Z" transform="translate(-80.996 -17.637)" fill="#ffc09d"/>
              <path id="Trazado_715035" data-name="Trazado 715035" d="M164.481,39.768a.482.482,0,0,0,.562-.009c.171-.106.3-.267.463-.386.487-.354,1.2-.281,1.666-.658.066-.053.13-.138.092-.213s-.129-.076-.207-.073l-1.991.076" transform="translate(-82.003 -19.159)" fill="#ffc09d"/>
              <path id="Trazado_715036" data-name="Trazado 715036" d="M165.065,38.451a.8.8,0,0,1,.215-.031c.138-.012.338-.026.586-.041l.87-.046.252-.012a.394.394,0,0,1,.293.057.168.168,0,0,1,.036.185.349.349,0,0,1-.1.13,1.274,1.274,0,0,1-.248.157,7.663,7.663,0,0,1-1.027.31,1.484,1.484,0,0,0-.406.192c-.115.081-.21.178-.307.258a.7.7,0,0,1-.557.206c-.148-.027-.2-.105-.193-.106a.594.594,0,0,0,.2.062.678.678,0,0,0,.5-.223c.091-.081.183-.183.305-.274a1.541,1.541,0,0,1,.428-.215,8.927,8.927,0,0,0,1.011-.313,1.227,1.227,0,0,0,.225-.141c.064-.053.094-.123.059-.15s-.126-.032-.211-.028l-.252.008-.871.021c-.248,0-.449.007-.588.005a.785.785,0,0,1-.216-.014" transform="translate(-82.002 -19.104)" fill="#ff9b6c"/>
              <path id="Trazado_715037" data-name="Trazado 715037" d="M171.877,36.75a1.116,1.116,0,0,1-.439.128,2.614,2.614,0,0,1-.5.028c-.185-.018-.387-.044-.6-.07l-.452-.06.027,0a6.527,6.527,0,0,1-1.039.342,6.558,6.558,0,0,1,1-.444l.012-.005.016,0,.448.054.594.078a3.178,3.178,0,0,0,.483,0c.275-.023.444-.065.448-.048" transform="translate(-84.194 -18.28)" fill="#ff9b6c"/>
              <path id="Trazado_715038" data-name="Trazado 715038" d="M134.526,38.418l-7.039,4.2-5.95-5.249a4.861,4.861,0,0,0-2.433-1.152l-1.629-.266-5.674.074-3.218,2.621c-.359.058-1.134,3.537-1.506,3.928l3.49,10.948-1.89,6.9,13.857-2.212L120.836,52s.979-4.078,1.148-5.448a4.136,4.136,0,0,0-.219-1.708l2.49,1.77a4.55,4.55,0,0,0,6.114.095l6.709-5.96Z" transform="translate(-53.384 -17.924)" fill="#00bcd4"/>
              <path id="Trazado_715039" data-name="Trazado 715039" d="M133.679,44.685c.011,0,.014.15.044.419a5.814,5.814,0,0,0,.25,1.116c.143.463.369.994.614,1.589a9.32,9.32,0,0,1,.628,2,5.69,5.69,0,0,1,.079,1.088,7.348,7.348,0,0,1-.084,1.011,12.136,12.136,0,0,1-.378,1.67c-.138.467-.265.84-.355,1.1l-.107.294a.394.394,0,0,1-.045.1.411.411,0,0,1,.024-.107l.088-.3c.078-.26.193-.636.32-1.1a13.136,13.136,0,0,0,.353-1.663,7.54,7.54,0,0,0,.076-1,5.686,5.686,0,0,0-.08-1.069,9.52,9.52,0,0,0-.614-1.982c-.239-.6-.46-1.134-.595-1.6a5.26,5.26,0,0,1-.218-1.135,2.971,2.971,0,0,1-.009-.314.4.4,0,0,1,.007-.109" transform="translate(-66.642 -22.278)" fill="#1a2e35"/>
              <rect id="Rectángulo_348729" data-name="Rectángulo 348729" width="20.333" height="11.553" transform="translate(73.984 24.673)" fill="#00bcd4"/>
              <g id="Grupo_1007354" data-name="Grupo 1007354" transform="translate(73.984 24.673)" opacity="0.3">
                <g id="Grupo_1007353" data-name="Grupo 1007353">
                  <g id="Grupo_1007352" data-name="Grupo 1007352" clip-path="url(#clip-path-3)">
                    <rect id="Rectángulo_348730" data-name="Rectángulo 348730" width="10.166" height="11.553" transform="translate(0 0.001)"/>
                  </g>
                </g>
              </g>
              <path id="Trazado_715040" data-name="Trazado 715040" d="M167.816,46.954l5.21-2.264h9.242l-4.285,2.264Z" transform="translate(-83.665 -22.281)" fill="#00bcd4"/>
              <path id="Trazado_715041" data-name="Trazado 715041" d="M154.355,46.787l-3.349-2.432h-10.19l3.373,2.432Z" transform="translate(-70.204 -22.114)" fill="#00bcd4"/>
              <g id="Grupo_1007357" data-name="Grupo 1007357" transform="translate(70.612 22.242)" opacity="0.3">
                <g id="Grupo_1007356" data-name="Grupo 1007356">
                  <g id="Grupo_1007355" data-name="Grupo 1007355" clip-path="url(#clip-path-4)">
                    <path id="Trazado_715042" data-name="Trazado 715042" d="M154.355,46.787l-3.349-2.432h-10.19l3.373,2.432Z" transform="translate(-140.816 -44.355)"/>
                  </g>
                </g>
              </g>
              <path id="Trazado_715043" data-name="Trazado 715043" d="M157.684,49.2c0,.03-2.281.055-5.095.055s-5.1-.025-5.1-.055,2.281-.055,5.1-.055,5.095.025,5.095.055" transform="translate(-73.534 -24.502)" fill="#1a2e35"/>
              <path id="Trazado_715044" data-name="Trazado 715044" d="M177.982,49.161c0,.031-2.276.061-5.083.068s-5.084-.013-5.084-.042,2.276-.061,5.084-.068,5.083.013,5.083.042" transform="translate(-83.665 -24.488)" fill="#1a2e35"/>
              <path id="Trazado_715045" data-name="Trazado 715045" d="M167.762,60.758c-.03,0-.055-2.586-.055-5.776s.025-5.777.055-5.777.055,2.586.055,5.777-.025,5.776-.055,5.776" transform="translate(-83.611 -24.531)" fill="#1a2e35"/>
              <rect id="Rectángulo_348733" data-name="Rectángulo 348733" width="3.731" height="2.585" transform="translate(84.872 33.093)" fill="#fff"/>
              <path id="Trazado_715046" data-name="Trazado 715046" d="M172.958,68.559s0-.066,0-.187,0-.306,0-.522c0-.463-.006-1.1-.009-1.877l.018.018-3.731,0c-.005,0,.041-.042.022-.022h0v1.344c0,.432,0,.848,0,1.241l-.02-.02,2.685.01.769.006c.179,0,.277,0,.277,0s-.092,0-.269,0l-.764.006-2.7.01h-.02v-.02c0-.393,0-.808,0-1.241q0-.325,0-.662v-.682h0l.022-.023,3.731,0h.018v.018c0,.778-.007,1.423-.009,1.888,0,.214,0,.387,0,.518s0,.179,0,.179" transform="translate(-84.356 -32.88)" fill="#1a2e35"/>
              <path id="Trazado_715047" data-name="Trazado 715047" d="M172.957,68.557s0-.052,0-.147,0-.245,0-.412c0-.371-.006-.876-.009-1.486l.017.017-3.239,0,.022-.022h0v.268c0,.09,0,.179,0,.267v.521c0,.342,0,.672,0,.987l-.02-.02,2.326.01.67.006c.156,0,.243.005.243.005s-.08,0-.234.005l-.665.006-2.34.01h-.02v-.02c0-.315,0-.645,0-.987q0-.256,0-.521v-.536h0l.022-.022,3.239,0h.018v.018c0,.615-.007,1.124-.009,1.5,0,.166,0,.3,0,.408s0,.14,0,.14" transform="translate(-84.6 -33.148)" fill="#1a2e35"/>
              <rect id="Rectángulo_348734" data-name="Rectángulo 348734" width="0.962" height="0.991" transform="translate(87.169 34.166)" fill="#1a2e35"/>
              <path id="Trazado_715048" data-name="Trazado 715048" d="M171.9,69.582a13.358,13.358,0,0,1-1.535,0,13.358,13.358,0,0,1,1.535,0" transform="translate(-84.937 -34.679)" fill="#1a2e35"/>
              <path id="Trazado_715049" data-name="Trazado 715049" d="M171.9,68.2a13.358,13.358,0,0,1-1.535,0,13.358,13.358,0,0,1,1.535,0" transform="translate(-84.937 -33.991)" fill="#1a2e35"/>
              <path id="Trazado_715050" data-name="Trazado 715050" d="M171.9,67.671a13.358,13.358,0,0,1-1.535,0,13.358,13.358,0,0,1,1.535,0" transform="translate(-84.937 -33.727)" fill="#1a2e35"/>
              <path id="Trazado_715051" data-name="Trazado 715051" d="M171.9,67.157a13.358,13.358,0,0,1-1.535,0,13.358,13.358,0,0,1,1.535,0" transform="translate(-84.937 -33.47)" fill="#1a2e35"/>
              <path id="Trazado_715052" data-name="Trazado 715052" d="M171.9,70.088a13.358,13.358,0,0,1-1.535,0,13.358,13.358,0,0,1,1.535,0" transform="translate(-84.937 -34.932)" fill="#1a2e35"/>
              <rect id="Rectángulo_348735" data-name="Rectángulo 348735" width="2.533" height="2.585" transform="translate(89.216 33.093)" fill="#fff"/>
              <path id="Trazado_715053" data-name="Trazado 715053" d="M180.423,68.559s0-.068,0-.19,0-.312-.005-.528c0-.468-.006-1.108-.01-1.868l.019.019-2.533,0,.022-.022h0v.7q0,.342,0,.669c0,.433,0,.842,0,1.219l-.019-.019,1.83.01.516,0c.12,0,.186,0,.186,0s-.061,0-.178,0l-.512,0-1.842.01h-.019v-.019c0-.377,0-.786,0-1.219q0-.326,0-.669v-.7h0l.022-.023,2.533,0h.019v.019c0,.765-.008,1.409-.01,1.88,0,.214,0,.388-.005.523,0,.12,0,.182,0,.182" transform="translate(-88.674 -32.88)" fill="#1a2e35"/>
              <path id="Trazado_715054" data-name="Trazado 715054" d="M178.883,67.335l.314-.512.318.508h-.178v1.247h-.28V67.336Z" transform="translate(-89.183 -33.315)" fill="#1a2e35"/>
              <path id="Trazado_715055" data-name="Trazado 715055" d="M180.76,67.335l.314-.512.318.508h-.178v1.247h-.28V67.336Z" transform="translate(-90.118 -33.315)" fill="#1a2e35"/>
              <path id="Trazado_715056" data-name="Trazado 715056" d="M143.939,53.628l.591-.171a7.211,7.211,0,0,1,.645-1.362,19.374,19.374,0,0,1,1.921-1.6.508.508,0,0,1,.125.633,8,8,0,0,1-.848.814.5.5,0,0,0,.684.509c.509-.2,1.1-.433,1.183-.449a6.266,6.266,0,0,0,.831-1.076.335.335,0,0,1,.613.192.164.164,0,0,1-.031.087s.552-.13.2.716a1.193,1.193,0,0,1-.094,1.065,3.379,3.379,0,0,1-.216,1.208,14.494,14.494,0,0,1-2.654,1.392l-2.186.728Z" transform="translate(-71.761 -25.176)" fill="#ffc09d"/>
              <path id="Trazado_715057" data-name="Trazado 715057" d="M150.925,53.9a1.57,1.57,0,0,0,.46-.079,2.447,2.447,0,0,0,1.019-.5,2.271,2.271,0,0,0,.586-.97,1.542,1.542,0,0,0,.113-.453,2.152,2.152,0,0,0-.193.423,2.545,2.545,0,0,1-.587.911,2.776,2.776,0,0,1-.963.5,2.115,2.115,0,0,0-.436.161" transform="translate(-75.244 -25.876)" fill="#ff9b6c"/>
              <path id="Trazado_715058" data-name="Trazado 715058" d="M151.685,55.176a.874.874,0,0,0,.424-.05,3.046,3.046,0,0,0,.438-.154,1.45,1.45,0,0,0,.485-.319,2.525,2.525,0,0,0,.312-.48l.212-.406a1.5,1.5,0,0,0,.17-.389,1.493,1.493,0,0,0-.244.347c-.068.11-.149.244-.235.394a2.786,2.786,0,0,1-.3.454,1.469,1.469,0,0,1-.442.3,4.291,4.291,0,0,1-.417.174c-.242.089-.4.114-.4.131" transform="translate(-75.623 -26.611)" fill="#ff9b6c"/>
              <path id="Trazado_715059" data-name="Trazado 715059" d="M152.661,56.8a3.3,3.3,0,0,0,.966-.4.469.469,0,0,0,.174-.158,1.678,1.678,0,0,0,.111-.169,1.956,1.956,0,0,0,.145-.306c.067-.182.072-.3.056-.307s-.051.108-.134.273a2.894,2.894,0,0,1-.161.282c-.033.051-.07.1-.11.155a.38.38,0,0,1-.132.122c-.261.129-.488.254-.653.346a1.3,1.3,0,0,0-.261.161" transform="translate(-76.11 -27.652)" fill="#ff9b6c"/>
              <path id="Trazado_715060" data-name="Trazado 715060" d="M110.074,40.1a2.507,2.507,0,0,0-3.608,1.568,6.038,6.038,0,0,0,.845,4.972c.454.682,2.916,4.683,4.776,7.766a3.277,3.277,0,0,0,4.366,1.3l9.556-4.415-.988-3.455L115.808,50.3l-3.5-7.049a6.235,6.235,0,0,0-2.238-3.156" transform="translate(-52.97 -19.83)" fill="#00bcd4"/>
              <path id="Trazado_715061" data-name="Trazado 715061" d="M114.252,50.48s.02.029.054.087l.149.262.566,1.015L117.1,55.62l-.042-.018,9.182-2.4.048-.013.016.048,1.058,3.286.015.045-.043.021L125.013,57.7l-3.889,1.866-1.85.887-.9.429a8,8,0,0,1-.894.395,3.456,3.456,0,0,1-1.87.1,3.5,3.5,0,0,1-1.573-.808,3.6,3.6,0,0,1-.558-.639c-.156-.228-.3-.454-.447-.674l-.835-1.27-2.514-3.836-.679-1.046-.174-.273c-.039-.062-.056-.1-.056-.1s.024.029.065.089l.184.268.7,1.034,2.543,3.817.84,1.266A6.311,6.311,0,0,0,114.1,60.5a3.417,3.417,0,0,0,1.533.782,3.362,3.362,0,0,0,1.818-.1,7.938,7.938,0,0,0,.882-.392l.9-.431,1.848-.889,3.888-1.868,2.322-1.115-.028.066-1.055-3.288.063.035-9.189,2.376-.029.008-.014-.026-2.052-3.793-.549-1.024-.14-.267c-.031-.06-.044-.092-.044-.092" transform="translate(-54.232 -25.167)" fill="#1a2e35"/>
              <path id="Trazado_715062" data-name="Trazado 715062" d="M109.955,13.489a1.01,1.01,0,0,0-.693-.768,2.046,2.046,0,0,0-1.075-.02,1.919,1.919,0,0,0-1.172.629.932.932,0,0,0,.041,1.232,1.826,1.826,0,0,0-.008,2.695,1.216,1.216,0,0,0,1.145.331,1.693,1.693,0,0,0,.888-.983,2.188,2.188,0,0,1,.8-1.074" transform="translate(-53.075 -6.302)" fill="#1a2e35"/>
              <path id="Trazado_715063" data-name="Trazado 715063" d="M113.558,14.6a.409.409,0,0,0-.577-.489.73.73,0,0,0-.31.423,2.929,2.929,0,0,0-.161,1.356.932.932,0,0,0,.167.482.4.4,0,0,0,.459.14.585.585,0,0,0,.262-.4,5.9,5.9,0,0,0,.243-1.685Z" transform="translate(-56.082 -7.015)" fill="#00bcd4"/>
              <path id="Trazado_715064" data-name="Trazado 715064" d="M121.891,25.124c0-.953-.012-1.726-.012-1.726a3.06,3.06,0,0,0,2.322-2.729,26.248,26.248,0,0,0,.116-4.862,3.833,3.833,0,0,0-3.567-3.038l-4.311,1.013,0,.793L116.4,25.124a2.746,2.746,0,1,0,5.492,0" transform="translate(-58.031 -6.363)" fill="#ffc09d"/>
              <path id="Trazado_715065" data-name="Trazado 715065" d="M130.315,21.875a.315.315,0,0,1-.309.312.3.3,0,0,1-.32-.29.315.315,0,0,1,.309-.312.3.3,0,0,1,.32.29" transform="translate(-64.655 -10.761)" fill="#1a2e35"/>
              <path id="Trazado_715066" data-name="Trazado 715066" d="M130.048,20.558c-.04.04-.275-.14-.614-.145s-.591.16-.627.118c-.018-.019.024-.092.133-.169a.865.865,0,0,1,.5-.145.832.832,0,0,1,.488.167c.1.082.137.157.117.175" transform="translate(-64.215 -10.079)" fill="#1a2e35"/>
              <path id="Trazado_715067" data-name="Trazado 715067" d="M123.793,21.723a.315.315,0,0,1-.309.312.3.3,0,0,1-.32-.29.315.315,0,0,1,.309-.312.3.3,0,0,1,.32.29" transform="translate(-61.404 -10.685)" fill="#1a2e35"/>
              <path id="Trazado_715068" data-name="Trazado 715068" d="M123.4,20.566c-.04.041-.276-.14-.614-.145s-.591.16-.627.118c-.018-.019.023-.092.133-.169a.863.863,0,0,1,.5-.145.832.832,0,0,1,.488.167c.1.082.137.157.117.175" transform="translate(-60.901 -10.083)" fill="#1a2e35"/>
              <path id="Trazado_715069" data-name="Trazado 715069" d="M126.895,23.152a2.256,2.256,0,0,1,.553-.09c.087-.007.169-.023.185-.082a.441.441,0,0,0-.053-.258l-.245-.664a11.351,11.351,0,0,1-.544-1.735,11.335,11.335,0,0,1,.682,1.687l.234.667a.5.5,0,0,1,.039.34.218.218,0,0,1-.145.124.567.567,0,0,1-.147.018,2.186,2.186,0,0,1-.558-.009" transform="translate(-63.21 -10.133)" fill="#1a2e35"/>
              <path id="Trazado_715070" data-name="Trazado 715070" d="M124.071,33.042a6.249,6.249,0,0,1-3.274-.936,3.229,3.229,0,0,0,3.283,1.516Z" transform="translate(-60.224 -16.007)" fill="#ff9b6c"/>
              <path id="Trazado_715071" data-name="Trazado 715071" d="M123.216,18.2c-.023.1-.364.092-.753.187s-.7.24-.758.164c-.028-.037.017-.129.135-.233a1.349,1.349,0,0,1,1.151-.268c.152.041.234.1.225.149" transform="translate(-60.672 -8.981)" fill="#1a2e35"/>
              <path id="Trazado_715072" data-name="Trazado 715072" d="M130.084,17.911c-.059.077-.293,0-.574,0s-.518.056-.574-.025c-.024-.039.013-.116.116-.19a.832.832,0,0,1,.925.022c.1.079.133.158.107.2" transform="translate(-64.278 -8.756)" fill="#1a2e35"/>
              <path id="Trazado_715073" data-name="Trazado 715073" d="M125.169,12.069a5.866,5.866,0,0,0,1.832,1.9c.256.14.533.241.79.378a2.522,2.522,0,0,1,.872.684,2.553,2.553,0,0,1,.115.951,3.872,3.872,0,0,0-.81-3,3.341,3.341,0,0,0-2.705-.993" transform="translate(-62.404 -5.968)" fill="#1a2e35"/>
              <path id="Trazado_715074" data-name="Trazado 715074" d="M129.868,13.622a2,2,0,0,0-.376-.659,2.558,2.558,0,0,0-.645-.511,10.249,10.249,0,0,0-.926-.441,5.4,5.4,0,0,1-1.574-1.026,4.4,4.4,0,0,1-.39-.417.716.716,0,0,1-.12-.171c.015-.012.2.218.562.532a5.967,5.967,0,0,0,1.567.984,8.712,8.712,0,0,1,.931.453,2.475,2.475,0,0,1,.653.548,1.523,1.523,0,0,1,.28.5.519.519,0,0,1,.037.207" transform="translate(-62.736 -5.183)" fill="#375a64"/>
              <path id="Trazado_715075" data-name="Trazado 715075" d="M126.307,27.574a1.412,1.412,0,0,1-.093.392.478.478,0,0,1-.283.271.429.429,0,0,1-.4-.107.685.685,0,0,1-.2-.376c-.025-.128,0-.292.118-.337a.322.322,0,0,1,.16,0l.724.107" transform="translate(-62.483 -13.663)" fill="#ff9b6c"/>
              <path id="Trazado_715076" data-name="Trazado 715076" d="M126.1,28.125a.98.98,0,0,1-.362.042.518.518,0,0,1-.324-.177.544.544,0,0,1-.113-.429.476.476,0,0,1,.034-.113c.02-.034.015-.031.045-.034s.077.011.115.016l.119.018c.155.023.295.042.413.056a1.25,1.25,0,0,0,.385.022,1.228,1.228,0,0,0-.371-.106c-.116-.025-.254-.053-.408-.082l-.118-.022a1.143,1.143,0,0,0-.132-.021.156.156,0,0,0-.1.027.187.187,0,0,0-.059.075.6.6,0,0,0-.044.143.634.634,0,0,0,.148.523.581.581,0,0,0,.4.19.541.541,0,0,0,.288-.058c.062-.033.087-.063.083-.069" transform="translate(-62.403 -13.608)" fill="#1a2e35"/>
              <path id="Trazado_715077" data-name="Trazado 715077" d="M116.554,10.669c.664.866-1.084,2.7-1.833,3.5s-1.574,1.51-1.357,2.58c.252,1.241,1.474,2.152,1.234,3.394-.088.454-.441.843-.438,1.305.005.834,1.088,1.229,1.407,2,.436,1.057-.724,2.126-.731,3.269,0,.649.37,1.251.4,1.9a2.261,2.261,0,0,1-2.8,2,3.307,3.307,0,0,1-2.481-2.86C109.776,24.472,107.57,26,107.57,26a5.008,5.008,0,0,1,.694-3.541,20.407,20.407,0,0,0,1.575-4.011,21.225,21.225,0,0,0,.525-3.734,5.286,5.286,0,0,1,1.476-3.386c.945-.832,3.934-1.652,4.715-.664" transform="translate(-53.589 -5.093)" fill="#1a2e35"/>
              <path id="Trazado_715078" data-name="Trazado 715078" d="M112.733,18.251a.363.363,0,0,1,.008-.1c.009-.066.023-.163.046-.288a8.248,8.248,0,0,1,.262-1.041,6.027,6.027,0,0,1,.672-1.446,4.534,4.534,0,0,1,.6-.736,4.588,4.588,0,0,1,.8-.627c.59-.371,1.2-.633,1.72-.913a5.821,5.821,0,0,0,1.3-.888,3.054,3.054,0,0,0,.641-.837c.111-.225.147-.361.158-.358a.36.36,0,0,1-.021.1,1.842,1.842,0,0,1-.1.275,2.89,2.89,0,0,1-.626.875,5.628,5.628,0,0,1-1.3.921c-.526.287-1.13.553-1.709.917a4.364,4.364,0,0,0-1.369,1.326,6.191,6.191,0,0,0-.683,1.415,10.387,10.387,0,0,0-.293,1.025,3.324,3.324,0,0,1-.1.381" transform="translate(-56.203 -5.492)" fill="#375a64"/>
              <path id="Trazado_715079" data-name="Trazado 715079" d="M113.193,15.313a.217.217,0,0,1,.005-.078,1.615,1.615,0,0,1,.047-.22,2.519,2.519,0,0,1,.359-.744,3.749,3.749,0,0,1,.863-.869,7.466,7.466,0,0,1,1.3-.734c.48-.222.944-.417,1.348-.625a6.073,6.073,0,0,0,1.018-.642,4.535,4.535,0,0,0,.765-.8s-.008.026-.033.071a1.969,1.969,0,0,1-.119.19,3.316,3.316,0,0,1-.563.6,5.7,5.7,0,0,1-1.021.672c-.407.217-.871.415-1.349.635a7.869,7.869,0,0,0-1.29.717,3.869,3.869,0,0,0-.859.831,3.1,3.1,0,0,0-.473,1" transform="translate(-56.432 -5.283)" fill="#375a64"/>
              <path id="Trazado_715080" data-name="Trazado 715080" d="M106.994,18.709a.391.391,0,0,1-.058-.153,1.4,1.4,0,0,1-.033-.448,1.881,1.881,0,0,1,.686-1.285,2.343,2.343,0,0,1,1.377-.494,2.37,2.37,0,0,1,.446.024.427.427,0,0,1,.159.04c0,.019-.232-.018-.6.014a2.438,2.438,0,0,0-1.313.5,1.906,1.906,0,0,0-.678,1.208,2.89,2.89,0,0,0,.014.593" transform="translate(-53.295 -8.14)" fill="#375a64"/>
              <path id="Trazado_715081" data-name="Trazado 715081" d="M108.157,13.39a.842.842,0,0,1,.378-.093,1.96,1.96,0,0,1,1.671.735.84.84,0,0,1,.187.341,3.753,3.753,0,0,1-.246-.291,2.171,2.171,0,0,0-1.609-.707c-.233,0-.377.034-.381.016" transform="translate(-53.922 -6.626)" fill="#375a64"/>
              <path id="Trazado_715082" data-name="Trazado 715082" d="M115.243,31.509a1.931,1.931,0,0,1-.445-.493,2.734,2.734,0,0,1-.419-1.746,2.61,2.61,0,0,1,.129-.594,2.672,2.672,0,0,1,.3-.587,13.026,13.026,0,0,0,.828-1.16,1.722,1.722,0,0,0,.2-.721,2.316,2.316,0,0,0-.109-.779,6.241,6.241,0,0,0-.767-1.5,4.811,4.811,0,0,1-.713-1.555,3.146,3.146,0,0,1,.122-1.589,8.513,8.513,0,0,1,1.331-2.332,11.221,11.221,0,0,0,.974-1.516c.1-.191.16-.342.2-.446a1.03,1.03,0,0,1,.067-.158,1.019,1.019,0,0,1-.047.165,4.463,4.463,0,0,1-.185.457,10.24,10.24,0,0,1-.949,1.542,8.625,8.625,0,0,0-1.3,2.318,3.056,3.056,0,0,0-.113,1.537,4.753,4.753,0,0,0,.7,1.518,6.284,6.284,0,0,1,.777,1.522,2.418,2.418,0,0,1,.111.815,1.827,1.827,0,0,1-.212.762,12.409,12.409,0,0,1-.843,1.164,2.619,2.619,0,0,0-.295.564,2.543,2.543,0,0,0-.132.573,2.741,2.741,0,0,0,.378,1.715,3.821,3.821,0,0,0,.409.516" transform="translate(-56.93 -8.145)" fill="#375a64"/>
              <path id="Trazado_715083" data-name="Trazado 715083" d="M133.74,32.723c0-.009.067-.042.172-.13a1.119,1.119,0,0,0,.318-.473,1.376,1.376,0,0,0,.026-.838,2.663,2.663,0,0,0-.489-.927c-.231-.3-.484-.562-.695-.82a3.47,3.47,0,0,1-.488-.741,1.839,1.839,0,0,1-.17-.575.575.575,0,0,1,0-.22,2.543,2.543,0,0,0,.239.761,3.736,3.736,0,0,0,.5.711c.212.251.467.512.7.818a2.668,2.668,0,0,1,.5.969,1.415,1.415,0,0,1-.052.89,1.08,1.08,0,0,1-.364.479.469.469,0,0,1-.2.1" transform="translate(-66.011 -13.958)" fill="#375a64"/>
              <path id="Trazado_715084" data-name="Trazado 715084" d="M85.184,40.832A4.379,4.379,0,0,1,87.9,40.5a2.257,2.257,0,0,1,1.342.6.966.966,0,0,1,.014,1.34,1.285,1.285,0,0,1-.846.215,3.333,3.333,0,0,0-2.089.3c-.327.247-.545.656-.937.778a.925.925,0,0,1-1.018-.453,1.582,1.582,0,0,1-.115-1.167,1.783,1.783,0,0,1,.932-1.279" transform="translate(-41.975 -20.154)" fill="#00bcd4"/>
              <path id="Trazado_715085" data-name="Trazado 715085" d="M81.918,26.494a1.3,1.3,0,0,0,1.943.042,3.668,3.668,0,0,0,.823-1.688,8.967,8.967,0,0,0,.506-4.268,2.368,2.368,0,0,0-.545-1.16,1.24,1.24,0,0,0-1.174-.391,1.814,1.814,0,0,0-1.025,1.078,10.179,10.179,0,0,0-1.005,4.366,3.533,3.533,0,0,0,.477,2.021" transform="translate(-40.603 -9.471)" fill="#00bcd4"/>
              <path id="Trazado_715086" data-name="Trazado 715086" d="M73.838,29.838a2.627,2.627,0,0,0,.409-2.417,4.658,4.658,0,0,0-1.432-2.076,7.7,7.7,0,0,0-2.563-1.512,2.736,2.736,0,0,0-1.153-.2,1.211,1.211,0,0,0-.967.586A1.81,1.81,0,0,0,68.4,25.87a19.516,19.516,0,0,0,1.683,2.564,4.559,4.559,0,0,0,1.852,1.586,1.679,1.679,0,0,0,1.976-.274" transform="translate(-33.911 -11.78)" fill="#00bcd4"/>
              <path id="Trazado_715087" data-name="Trazado 715087" d="M82.316,49.061a1.568,1.568,0,0,0,.046-.327c.024-.239.053-.539.087-.9a12.967,12.967,0,0,1,.2-1.313,10.183,10.183,0,0,1,.477-1.55,5.723,5.723,0,0,1,.791-1.4,2.96,2.96,0,0,1,1-.831,2.806,2.806,0,0,1,.842-.263,1.52,1.52,0,0,0,.326-.047,1.584,1.584,0,0,0-.332-.005,2.546,2.546,0,0,0-.879.229,2.948,2.948,0,0,0-1.056.839,5.585,5.585,0,0,0-.82,1.43,9.456,9.456,0,0,0-.474,1.575,11.066,11.066,0,0,0-.175,1.33c-.029.38-.039.687-.045.9a1.554,1.554,0,0,0,.007.33" transform="translate(-41.034 -21.151)" fill="#1a2e35"/>
              <path id="Trazado_715088" data-name="Trazado 715088" d="M82.377,39.577a.667.667,0,0,0,.009-.152c0-.114,0-.258,0-.435,0-.378,0-.924.02-1.6.034-1.349.149-2.8.374-4.85.213-1.926.5-4.167.8-5.624.065-.331.13-.63.191-.891s.108-.487.156-.67l.1-.423a.687.687,0,0,0,.027-.15.664.664,0,0,0-.053.143l-.126.417c-.056.181-.113.405-.179.666s-.14.558-.211.889a49.4,49.4,0,0,0-.84,5.219c-.225,2.052-.326,3.921-.335,5.274-.008.676.007,1.224.024,1.6.011.177.02.321.027.435a.646.646,0,0,0,.019.151" transform="translate(-41.034 -12.355)" fill="#1a2e35"/>
              <path id="Trazado_715089" data-name="Trazado 715089" d="M77.672,37.068a2.845,2.845,0,0,0,0-.455c-.017-.292-.057-.714-.139-1.232a16.24,16.24,0,0,0-.4-1.795,14.662,14.662,0,0,0-.75-2.123,11.315,11.315,0,0,0-2.2-3.431,5.49,5.49,0,0,0-.518-.482c-.08-.068-.15-.134-.222-.188l-.2-.139a2.871,2.871,0,0,0-.383-.245A13.417,13.417,0,0,1,74.106,28.1a11.914,11.914,0,0,1,2.149,3.419,16.851,16.851,0,0,1,.755,2.1c.2.659.327,1.266.426,1.777s.148.93.181,1.22a2.909,2.909,0,0,0,.056.45" transform="translate(-36.32 -13.45)" fill="#1a2e35"/>
              <path id="Trazado_715090" data-name="Trazado 715090" d="M75.518,59.779l.361,4.948h6.357l.361-4.948Z" transform="translate(-37.65 -29.803)" fill="#1a2e35"/>
              <rect id="Rectángulo_348736" data-name="Rectángulo 348736" width="8.451" height="1.95" transform="translate(37.254 28.026)" fill="#1a2e35"/>
              <path id="Trazado_715091" data-name="Trazado 715091" d="M74.294,69.268v.541h8.311v-.541Z" transform="translate(-37.039 -34.534)" fill="#375a64"/>
              <path id="Trazado_715092" data-name="Trazado 715092" d="M75.475,71.3l-.389-.951H82.7l-.454.951Z" transform="translate(-37.434 -35.072)" fill="#375a64"/>
              <path id="Trazado_715093" data-name="Trazado 715093" d="M82.586,62.312a.2.2,0,0,1-.03.046l-.1.126-.37.474-.017.021-.016-.022-.91-1.258H81.2l-.9,1.268-.028.04-.031-.037L79.184,61.7h.062l-.059.073-.95,1.191-.032.04-.03-.042-.9-1.268.052,0-1.1,1.257-.02.023-.015-.025-.346-.581-.088-.154a.232.232,0,0,1-.027-.055.253.253,0,0,1,.037.049l.1.148.363.57-.035,0,1.086-1.273.028-.032.025.035.9,1.262-.061,0,.948-1.192.058-.074.03-.038.031.037L80.3,62.92l-.06,0,.9-1.262.027-.037.026.037.891,1.272h-.033l.385-.462.1-.119a.206.206,0,0,1,.038-.039" transform="translate(-37.757 -30.719)" fill="#e1e1e1"/>
              <path id="Trazado_715094" data-name="Trazado 715094" d="M82.738,59.674c0,.022-1.593.04-3.558.04s-3.557-.018-3.557-.04,1.593-.04,3.557-.04,3.558.018,3.558.04" transform="translate(-37.702 -29.731)" fill="#375a64"/>
              <path id="Trazado_715095" data-name="Trazado 715095" d="M82.765,70.414c0,.022-1.731.04-3.866.04s-3.866-.018-3.866-.04,1.73-.04,3.866-.04,3.866.018,3.866.04" transform="translate(-37.408 -35.085)" fill="#1a2e35"/>
              <rect id="Rectángulo_348737" data-name="Rectángulo 348737" width="1.99" height="42.627" transform="translate(40.128 37.24)" fill="#1a2e35"/>
              <rect id="Rectángulo_348738" data-name="Rectángulo 348738" width="1.598" height="42.627" transform="translate(91.309 37.24)" fill="#1a2e35"/>
              <rect id="Rectángulo_348739" data-name="Rectángulo 348739" width="77.709" height="3.071" transform="translate(27.539 36.226)" fill="#1a2e35"/>
              <rect id="Rectángulo_348740" data-name="Rectángulo 348740" width="11.106" height="3.071" transform="translate(27.54 36.226)" fill="#375a64"/>
              <path id="Trazado_715096" data-name="Trazado 715096" d="M200.261,76.352a3.354,3.354,0,0,1-.364.141,5.681,5.681,0,0,1-1.038.234,9.368,9.368,0,0,1-1.578.061c-.594-.021-1.245-.088-1.927-.147a14.837,14.837,0,0,0-1.927-.068,6.824,6.824,0,0,0-1.551.24,4.771,4.771,0,0,0-.981.4c-.109.062-.193.111-.248.147s-.087.052-.087.052a2.85,2.85,0,0,1,.326-.214,4.6,4.6,0,0,1,.981-.413,6.7,6.7,0,0,1,1.558-.25,14.363,14.363,0,0,1,1.933.065c.683.06,1.332.127,1.925.15a9.616,9.616,0,0,0,1.573-.052,6.066,6.066,0,0,0,1.037-.22c.119-.038.212-.069.273-.093s.1-.032.1-.032" transform="translate(-95.004 -38.066)" fill="#375a64"/>
              <path id="Trazado_715097" data-name="Trazado 715097" d="M182.456,75.4s.376-.1,1.069-.225a17.347,17.347,0,0,1,2.966-.254h.088l-.083.031a20.246,20.246,0,0,1-3.939,1.029q-.566.087-1.163.147c-.2.019-.4.036-.6.049a1.042,1.042,0,0,1-.614-.071.387.387,0,0,1-.185-.262.316.316,0,0,1,.133-.292,2.022,2.022,0,0,1,.6-.232c.409-.125.828-.237,1.255-.341a25.024,25.024,0,0,1,5.047-.7,26.891,26.891,0,0,1,4.158.193,19.272,19.272,0,0,0,2.8.176c.331-.01.587-.035.76-.055s.264-.033.264-.033-.09.016-.263.041-.429.051-.761.063a18.8,18.8,0,0,1-2.8-.161,27.081,27.081,0,0,0-4.153-.183,25.134,25.134,0,0,0-5.039.7c-.425.1-.844.216-1.253.34a2.035,2.035,0,0,0-.583.225.272.272,0,0,0-.117.252.344.344,0,0,0,.164.232,1.006,1.006,0,0,0,.589.065c.2-.013.4-.03.6-.048q.595-.059,1.161-.145a20.387,20.387,0,0,0,3.934-1.019l.006.031a17.747,17.747,0,0,0-2.963.24c-.347.057-.614.112-.8.149l-.276.058" transform="translate(-89.734 -37.027)" fill="#375a64"/>
              <path id="Trazado_715098" data-name="Trazado 715098" d="M166.871,72.358s.057.012.165.037l.471.114c.412.086,1.007.217,1.754.314s1.639.184,2.633.223,2.089.037,3.237.009c2.3-.067,4.377-.128,5.877-.259.75-.064,1.355-.138,1.772-.2l.479-.07c.11-.016.168-.023.168-.023s-.915.185-2.416.319-3.581.206-5.878.272c-1.149.028-2.244.028-3.24-.012s-1.889-.127-2.635-.233-1.342-.237-1.754-.328l-.469-.122c-.107-.029-.163-.046-.163-.046" transform="translate(-83.194 -36.074)" fill="#375a64"/>
              <path id="Trazado_715099" data-name="Trazado 715099" d="M144.475,75.627s-.054-.011-.155-.035l-.442-.106c-.192-.049-.426-.105-.7-.158s-.586-.127-.935-.18-.729-.123-1.141-.17-.853-.094-1.317-.136a25.649,25.649,0,0,0-6.051.253c-.459.081-.9.152-1.3.246s-.781.177-1.123.266-.647.18-.917.257-.5.151-.685.216l-.432.143c-.1.033-.151.047-.151.047s.051-.021.148-.055l.429-.151c.186-.067.414-.145.684-.223s.573-.181.916-.264.716-.188,1.123-.271.843-.168,1.3-.25a25.273,25.273,0,0,1,6.061-.254c.465.044.908.079,1.319.14s.794.114,1.142.176.66.129.935.187.509.114.7.165l.44.114c.1.027.152.043.152.043" transform="translate(-64.374 -37.255)" fill="#375a64"/>
              <path id="Trazado_715100" data-name="Trazado 715100" d="M171.079,76.979a.247.247,0,0,1-.051.014l-.147.031c-.128.028-.314.06-.545.093a11.369,11.369,0,0,1-3.634-.075c-.23-.043-.414-.083-.541-.115l-.145-.037a.244.244,0,0,1-.05-.016.235.235,0,0,1,.052.007l.147.03c.127.027.312.063.542.1a12.407,12.407,0,0,0,3.625.075c.231-.029.418-.057.546-.079l.148-.024a.251.251,0,0,1,.052-.005" transform="translate(-82.743 -38.325)" fill="#375a64"/>
              <path id="Trazado_715101" data-name="Trazado 715101" d="M143.886,73.348s-.075.031-.22.086a4.485,4.485,0,0,1-.649.194,5.869,5.869,0,0,1-1.065.128,9.639,9.639,0,0,1-1.418-.068c-.523-.06-1.091-.159-1.7-.27s-1.257-.237-1.949-.3a18.981,18.981,0,0,0-4.506.1c-1.592.2-3.089.52-4.451.8s-2.592.523-3.634.671c-.259.043-.508.073-.744.1s-.457.058-.665.077c-.417.031-.775.067-1.069.079l-.677.018c-.154,0-.236,0-.236,0s.081-.006.236-.012l.676-.027c.293-.015.651-.053,1.068-.086.208-.021.429-.053.664-.081s.483-.06.743-.1c1.04-.152,2.269-.4,3.63-.68s2.859-.6,4.454-.8a18.927,18.927,0,0,1,4.517-.092c.693.069,1.342.2,1.95.309s1.175.213,1.7.275a9.793,9.793,0,0,0,1.414.074,5.969,5.969,0,0,0,1.062-.12,4.817,4.817,0,0,0,.649-.185c.146-.053.223-.078.223-.078" transform="translate(-60.277 -36.383)" fill="#375a64"/>
              <path id="Trazado_715102" data-name="Trazado 715102" d="M101.924,74.061s-.11,0-.321,0l-.92-.02-1.456-.033-.909-.022a.976.976,0,0,1-.48-.134.329.329,0,0,1-.162-.206.26.26,0,0,1,.1-.249,1.061,1.061,0,0,1,.534-.131l.571-.051c.389-.029.794-.053,1.214-.067.84-.026,1.74-.019,2.682.045q.708.047,1.446.134a1.545,1.545,0,0,1,.721.208.491.491,0,0,1,.239.3.362.362,0,0,1-.157.353,1.207,1.207,0,0,1-.358.161l-.373.119c-.251.075-.507.14-.766.2a13.086,13.086,0,0,1-1.6.241,20.33,20.33,0,0,1-3.183-.016c-1.026-.075-2.011-.195-2.949-.3a30.132,30.132,0,0,0-5-.286,12.057,12.057,0,0,0-3.316.6,9,9,0,0,0-.852.343c-.191.088-.292.133-.292.133s.1-.05.288-.14a8.317,8.317,0,0,1,.85-.352,11.941,11.941,0,0,1,3.32-.61,29.884,29.884,0,0,1,5.008.277c.938.109,1.923.227,2.948.3a20.43,20.43,0,0,0,3.176.015,13.2,13.2,0,0,0,1.593-.24q.387-.087.763-.2l.371-.119a1.174,1.174,0,0,0,.346-.154.321.321,0,0,0,.141-.311.451.451,0,0,0-.22-.275,1.5,1.5,0,0,0-.7-.2q-.736-.089-1.443-.135c-.942-.064-1.839-.072-2.679-.048-.419.014-.824.036-1.212.064l-.571.05a1.049,1.049,0,0,0-.518.123.229.229,0,0,0-.088.219.3.3,0,0,0,.148.187.955.955,0,0,0,.465.131l.909.025,1.455.041.92.028c.21.007.32.013.32.013" transform="translate(-43.044 -36.46)" fill="#375a64"/>
              <path id="Trazado_715103" data-name="Trazado 715103" d="M86.017,72.521s-.032.006-.092.014l-.265.03c-.23.024-.562.066-.97.128a22.346,22.346,0,0,0-6.155,1.866c-.374.176-.673.324-.878.432l-.237.122c-.054.027-.084.04-.084.04s.027-.018.08-.048l.233-.129c.2-.113.5-.266.873-.445a21.206,21.206,0,0,1,6.164-1.869c.41-.058.742-.1.973-.114l.265-.022c.061,0,.093,0,.093,0" transform="translate(-38.557 -36.156)" fill="#375a64"/>
              <rect id="Rectángulo_348741" data-name="Rectángulo 348741" width="25.631" height="14.564" transform="translate(11.031 65.251)" fill="#00bcd4"/>
              <path id="Trazado_715104" data-name="Trazado 715104" d="M60.242,134.93v-4.8l-2.07.032v4.772" transform="translate(-29.002 -64.875)" fill="#fff"/>
              <path id="Trazado_715105" data-name="Trazado 715105" d="M60.242,134.928h0v-4.8l-2.066.032v4.77h0v-4.774h0l2.072-.032Z" transform="translate(-29 -64.873)" fill="#1a2e35"/>
              <path id="Trazado_715106" data-name="Trazado 715106" d="M34.017,134.93v-4.8l-2.07.032v4.772" transform="translate(-15.927 -64.875)" fill="#e1e1e1"/>
              <path id="Trazado_715107" data-name="Trazado 715107" d="M34.783,130.136c0,.03-2.876.055-6.423.055s-6.423-.025-6.423-.055,2.875-.055,6.423-.055,6.423.025,6.423.055" transform="translate(-10.937 -64.852)" fill="#1a2e35"/>
              <path id="Trazado_715108" data-name="Trazado 715108" d="M60.371,130.085c0,.03-2.869.062-6.407.071s-6.408-.009-6.408-.039,2.868-.062,6.407-.071,6.408.009,6.408.039" transform="translate(-23.709 -64.834)" fill="#1a2e35"/>
              <path id="Trazado_715109" data-name="Trazado 715109" d="M47.5,144.69c-.03,0-.055-3.26-.055-7.281s.025-7.283.055-7.283.055,3.26.055,7.283-.025,7.281-.055,7.281" transform="translate(-23.654 -64.875)" fill="#1a2e35"/>
              <rect id="Rectángulo_348742" data-name="Rectángulo 348742" width="4.704" height="3.259" transform="translate(24.755 75.865)" fill="#fff"/>
              <path id="Trazado_715110" data-name="Trazado 715110" d="M54.044,154.531s0-.082,0-.234,0-.382,0-.657c0-.577-.006-1.387-.009-2.368l.018.018-4.7,0,.022-.022h0v.86q0,.424,0,.834c0,.546,0,1.069,0,1.564l-.02-.02,3.386.01.969.005c.225,0,.349.005.349.005s-.117,0-.34,0l-.964.006-3.4.01h-.02v-.02c0-.495,0-1.018,0-1.564q0-.409,0-.834v-.86h0l.022-.022,4.7,0h.018v.018c0,.985-.007,1.8-.009,2.379,0,.274,0,.492,0,.654s0,.227,0,.227" transform="translate(-24.585 -75.406)" fill="#1a2e35"/>
              <path id="Trazado_715111" data-name="Trazado 715111" d="M54.042,154.528s0-.065,0-.185,0-.3,0-.519c0-.46-.006-1.1-.009-1.875l.017.018-4.083,0,.022-.022h0v.676q0,.334,0,.658c0,.431,0,.847,0,1.244l-.02-.02,2.934.01.843.006c.2,0,.3.005.3.005s-.1,0-.3.005l-.839.006-2.947.01h-.021v-.02c0-.4,0-.813,0-1.244q0-.324,0-.658v-.676h0l.022-.022,4.083,0h.018v.017c0,.781-.007,1.424-.009,1.886q0,.32,0,.514c0,.118,0,.178,0,.178" transform="translate(-24.894 -75.744)" fill="#1a2e35"/>
              <rect id="Rectángulo_348743" data-name="Rectángulo 348743" width="1.213" height="1.249" transform="translate(27.651 77.217)" fill="#1a2e35"/>
              <path id="Trazado_715112" data-name="Trazado 715112" d="M52.705,155.82c0,.012-.433.022-.968.022s-.967-.01-.967-.022.433-.022.967-.022.968.01.968.022" transform="translate(-25.312 -77.674)" fill="#1a2e35"/>
              <path id="Trazado_715113" data-name="Trazado 715113" d="M52.705,154.08c0,.012-.433.022-.968.022s-.967-.01-.967-.022.433-.022.967-.022.968.01.968.022" transform="translate(-25.312 -76.806)" fill="#1a2e35"/>
              <path id="Trazado_715114" data-name="Trazado 715114" d="M52.705,153.411c0,.012-.433.022-.968.022s-.967-.01-.967-.022.433-.022.967-.022.968.01.968.022" transform="translate(-25.312 -76.473)" fill="#1a2e35"/>
              <path id="Trazado_715115" data-name="Trazado 715115" d="M52.705,152.763c0,.012-.433.022-.968.022s-.967-.01-.967-.022.433-.022.967-.022.968.01.968.022" transform="translate(-25.312 -76.15)" fill="#1a2e35"/>
              <path id="Trazado_715116" data-name="Trazado 715116" d="M52.705,156.458c0,.012-.433.022-.968.022s-.967-.01-.967-.022.433-.022.967-.022.968.01.968.022" transform="translate(-25.312 -77.992)" fill="#1a2e35"/>
              <rect id="Rectángulo_348744" data-name="Rectángulo 348744" width="3.193" height="3.259" transform="translate(30.231 75.865)" fill="#fff"/>
              <path id="Trazado_715117" data-name="Trazado 715117" d="M63.454,154.531s0-.084,0-.239,0-.389-.005-.664c0-.583-.006-1.392-.01-2.356l.019.019-3.193,0,.022-.022h0v.879c0,.287,0,.569,0,.842,0,.547,0,1.063,0,1.536l-.019-.019,2.31.01.65,0c.15,0,.233,0,.233,0s-.077,0-.226,0l-.646,0-2.322.01h-.019v-.019c0-.474,0-.99,0-1.536,0-.274,0-.555,0-.842v-.879h0l.022-.022,3.193,0h.019v.019c0,.969-.008,1.782-.01,2.368,0,.274,0,.495-.005.66s0,.231,0,.231" transform="translate(-30.03 -75.406)" fill="#1a2e35"/>
              <path id="Trazado_715118" data-name="Trazado 715118" d="M61.506,152.982l.4-.645.4.64h-.224v1.573h-.354v-1.566Z" transform="translate(-30.664 -75.948)" fill="#1a2e35"/>
              <path id="Trazado_715119" data-name="Trazado 715119" d="M63.871,152.982l.4-.645.4.64h-.224v1.573h-.354v-1.566Z" transform="translate(-31.843 -75.948)" fill="#1a2e35"/>
              <g id="Grupo_1007360" data-name="Grupo 1007360" transform="translate(11.031 65.251)" opacity="0.3">
                <g id="Grupo_1007359" data-name="Grupo 1007359">
                  <g id="Grupo_1007358" data-name="Grupo 1007358" clip-path="url(#clip-path-5)">
                    <rect id="Rectángulo_348745" data-name="Rectángulo 348745" width="12.815" height="14.564" transform="translate(0 0)"/>
                  </g>
                </g>
              </g>
              <rect id="Rectángulo_348747" data-name="Rectángulo 348747" width="20.216" height="11.487" transform="translate(16.062 53.759)" fill="#00bcd4"/>
              <path id="Trazado_715120" data-name="Trazado 715120" d="M62.2,111v-3.789l-1.633.025V111" transform="translate(-30.194 -53.449)" fill="#fff"/>
              <path id="Trazado_715121" data-name="Trazado 715121" d="M62.2,110.995h0v-3.787l-1.629.026v3.761h0v-3.766h0L62.2,107.2Z" transform="translate(-30.192 -53.447)" fill="#1a2e35"/>
              <path id="Trazado_715122" data-name="Trazado 715122" d="M41.511,111v-3.789l-1.633.025V111" transform="translate(-19.881 -53.449)" fill="#e1e1e1"/>
              <path id="Trazado_715123" data-name="Trazado 715123" d="M42.115,107.2c0,.03-2.268.055-5.066.055s-5.066-.025-5.066-.055,2.268-.055,5.066-.055,5.066.025,5.066.055" transform="translate(-15.945 -53.42)" fill="#1a2e35"/>
              <path id="Trazado_715124" data-name="Trazado 715124" d="M62.3,107.165c0,.03-2.263.06-5.054.067s-5.055-.012-5.055-.042,2.263-.06,5.055-.067,5.054.012,5.054.042" transform="translate(-26.019 -53.406)" fill="#1a2e35"/>
              <path id="Trazado_715125" data-name="Trazado 715125" d="M52.135,118.7c-.03,0-.055-2.572-.055-5.743s.025-5.744.055-5.744.055,2.571.055,5.744-.025,5.743-.055,5.743" transform="translate(-25.965 -53.449)" fill="#1a2e35"/>
              <rect id="Rectángulo_348748" data-name="Rectángulo 348748" width="3.71" height="2.571" transform="translate(26.887 62.131)" fill="#fff"/>
              <path id="Trazado_715126" data-name="Trazado 715126" d="M57.3,126.452s0-.065,0-.185,0-.305,0-.519c0-.46-.006-1.1-.009-1.866l.018.018-3.71,0,.022-.022h0v.677q0,.335,0,.658c0,.43,0,.843,0,1.234l-.02-.02,2.67.01.764.006c.178,0,.276,0,.276,0s-.092,0-.267,0l-.76.006-2.683.01h-.02v-.02c0-.391,0-.8,0-1.234q0-.323,0-.658v-.677h0l.022-.022,3.71,0h.018v.018c0,.773-.007,1.414-.009,1.877,0,.213,0,.384,0,.515s0,.178,0,.178" transform="translate(-26.705 -61.751)" fill="#1a2e35"/>
              <path id="Trazado_715127" data-name="Trazado 715127" d="M57.3,126.451s0-.052,0-.146,0-.244,0-.41c0-.369-.006-.871-.009-1.478l.017.017-3.22.005.022-.022h0v1.053c0,.339,0,.667,0,.981l-.02-.02,2.313.01.665.006c.155,0,.242.005.242.005s-.08,0-.233.005l-.661.006-2.326.01h-.02v-.02c0-.313,0-.641,0-.981q0-.256,0-.519v-.534h0l.022-.022,3.22,0h.018v.018c0,.612-.007,1.117-.009,1.489,0,.164,0,.3,0,.406s0,.139,0,.139" transform="translate(-26.948 -62.017)" fill="#1a2e35"/>
              <rect id="Rectángulo_348749" data-name="Rectángulo 348749" width="0.957" height="0.985" transform="translate(29.171 63.197)" fill="#1a2e35"/>
              <path id="Trazado_715128" data-name="Trazado 715128" d="M56.25,127.469a13.206,13.206,0,0,1-1.526,0,13.211,13.211,0,0,1,1.526,0" transform="translate(-27.283 -63.539)" fill="#1a2e35"/>
              <path id="Trazado_715129" data-name="Trazado 715129" d="M56.25,126.1a13.211,13.211,0,0,1-1.526,0,13.211,13.211,0,0,1,1.526,0" transform="translate(-27.283 -62.855)" fill="#1a2e35"/>
              <path id="Trazado_715130" data-name="Trazado 715130" d="M56.25,125.569a13.211,13.211,0,0,1-1.526,0,13.211,13.211,0,0,1,1.526,0" transform="translate(-27.283 -62.592)" fill="#1a2e35"/>
              <path id="Trazado_715131" data-name="Trazado 715131" d="M56.25,125.058a13.211,13.211,0,0,1-1.526,0,13.215,13.215,0,0,1,1.526,0" transform="translate(-27.283 -62.337)" fill="#1a2e35"/>
              <path id="Trazado_715132" data-name="Trazado 715132" d="M56.25,127.972a13.211,13.211,0,0,1-1.526,0,13.211,13.211,0,0,1,1.526,0" transform="translate(-27.283 -63.79)" fill="#1a2e35"/>
              <rect id="Rectángulo_348750" data-name="Rectángulo 348750" width="2.518" height="2.571" transform="translate(31.206 62.131)" fill="#fff"/>
              <path id="Trazado_715133" data-name="Trazado 715133" d="M64.723,126.452s0-.067,0-.189,0-.311-.005-.525c0-.466-.006-1.1-.01-1.857l.019.019-2.518,0,.022-.022h0v.693c0,.227,0,.449,0,.665,0,.43,0,.837,0,1.211l-.019-.019,1.82.01.513,0c.119,0,.185,0,.185,0s-.06,0-.177,0l-.509,0-1.832.01h-.019v-.019c0-.375,0-.781,0-1.211,0-.216,0-.438,0-.665v-.693h0l.022-.022,2.518,0h.019v.019c0,.76-.008,1.4-.01,1.869,0,.212,0,.385-.005.521,0,.119,0,.181,0,.181" transform="translate(-30.999 -61.751)" fill="#1a2e35"/>
              <path id="Trazado_715134" data-name="Trazado 715134" d="M63.192,125.235l.313-.509.316.5h-.177v1.24h-.279v-1.236Z" transform="translate(-31.505 -62.183)" fill="#1a2e35"/>
              <path id="Trazado_715135" data-name="Trazado 715135" d="M65.058,125.235l.313-.509.316.5h-.177v1.24h-.279v-1.236Z" transform="translate(-32.435 -62.183)" fill="#1a2e35"/>
              <g id="Grupo_1007363" data-name="Grupo 1007363" transform="translate(16.062 53.759)" opacity="0.3">
                <g id="Grupo_1007362" data-name="Grupo 1007362">
                  <g id="Grupo_1007361" data-name="Grupo 1007361" clip-path="url(#clip-path-6)">
                    <rect id="Rectángulo_348751" data-name="Rectángulo 348751" width="10.108" height="11.487" transform="translate(0 0)"/>
                  </g>
                </g>
              </g>
              <path id="Trazado_715136" data-name="Trazado 715136" d="M151.3.032a6.538,6.538,0,0,0-5.192,10.512l-.764,2.472,2.389-.965A6.539,6.539,0,1,0,151.3.032" transform="translate(-72.171 -0.016)" fill="#fff"/>
              <path id="Trazado_715137" data-name="Trazado 715137" d="M153.231,12.588a.564.564,0,1,1-.564-.564.564.564,0,0,1,.564.564" transform="translate(-75.831 -5.995)" fill="#1a2e35"/>
              <path id="Trazado_715138" data-name="Trazado 715138" d="M157.734,12.588a.564.564,0,1,1-.564-.564.564.564,0,0,1,.564.564" transform="translate(-78.076 -5.995)" fill="#1a2e35"/>
              <path id="Trazado_715139" data-name="Trazado 715139" d="M162.3,12.305a.564.564,0,1,1-.771-.207.564.564,0,0,1,.771.207" transform="translate(-80.391 -5.994)" fill="#1a2e35"/>
              <path id="Trazado_715140" data-name="Trazado 715140" d="M151.187,0a.681.681,0,0,1,.114,0l.335.01c.074,0,.156,0,.247.011l.3.042.345.05.386.1a6.241,6.241,0,0,1,1.869.815,6.6,6.6,0,0,1,3.03,4.958,6.846,6.846,0,0,1,.018.9c-.011.153-.008.308-.03.462s-.047.309-.07.465a6.645,6.645,0,0,1-.628,1.839,7.072,7.072,0,0,1-1.2,1.653,6.933,6.933,0,0,1-1.73,1.243,6.29,6.29,0,0,1-2.11.648,4.2,4.2,0,0,1-.563.048,5,5,0,0,1-.569.011,6.762,6.762,0,0,1-1.139-.144,6.656,6.656,0,0,1-2.269-.955l.069.007-2.311.927-.137.055.039-.142.679-2.47.012.061a6.636,6.636,0,0,1-1.233-2.823,6,6,0,0,1-.09-1.446,4.663,4.663,0,0,1,.066-.695q.026-.17.052-.338c.021-.111.055-.219.081-.327a6.61,6.61,0,0,1,2.578-3.758A6.31,6.31,0,0,1,148.858.4L149.2.274l.328-.083.3-.074c.1-.019.189-.029.276-.042.174-.023.328-.053.462-.059L150.91,0l.207,0a.3.3,0,0,1,.07,0,.336.336,0,0,1-.07.01l-.206.017-.337.023c-.133.011-.285.044-.458.07a6.571,6.571,0,0,0-5.254,4.874c-.025.106-.058.212-.078.321l-.05.332a4.5,4.5,0,0,0-.061.682,5.893,5.893,0,0,0,.093,1.418,6.511,6.511,0,0,0,1.216,2.761l.021.028-.009.034q-.327,1.2-.674,2.472l-.1-.087,2.31-.93.036-.015.033.022a6.514,6.514,0,0,0,3.331,1.073,4.9,4.9,0,0,0,.557-.01,4.017,4.017,0,0,0,.55-.046,6.151,6.151,0,0,0,2.063-.631,6.813,6.813,0,0,0,1.7-1.213,6.947,6.947,0,0,0,1.18-1.615,6.513,6.513,0,0,0,.621-1.8l.071-.456c.023-.151.02-.3.031-.453a6.777,6.777,0,0,0-.014-.887,6.529,6.529,0,0,0-2.952-4.9A6.277,6.277,0,0,0,152.9.264l-.381-.1-.341-.056L151.88.058c-.09-.01-.172-.012-.245-.018L151.3.016A.679.679,0,0,1,151.187,0" transform="translate(-72.059 0)" fill="#1a2e35"/>
            </g>
          </g>
        </g>
      </g>
    </g>
  </g>
</svg>
