<svg xmlns="http://www.w3.org/2000/svg" width="38.312" height="33.538" viewBox="0 0 38.312 33.538">
  <g id="Grupo_1008290" data-name="Grupo 1008290" transform="translate(-180 -1914.85)">
    <path id="Trazado_707573" data-name="Trazado 707573" d="M0,6.065A2.106,2.106,0,0,1,1.646,4.62C2.98,4.262,4.3,3.836,5.619,3.44c.117-.035.236-.062.406-.106v8.335l3.895-.734v-.56c0-2.594.008-5.188-.009-7.782,0-.357.113-.484.445-.581,2.115-.617,4.224-1.255,6.33-1.9a2.411,2.411,0,0,1,1.464,0c2.011.616,4.027,1.216,6.042,1.821l.147.046L22.372,4.969,19.153,4.01V29.52c.119-.024.225-.037.326-.068q5.793-1.74,11.587-3.478a.379.379,0,0,0,.321-.442c-.01-2.207-.006-4.415-.006-6.622v-.405l3.427-.623v.334q0,4.34,0,8.68a1.744,1.744,0,0,1-1.44,1.938q-7.614,2.3-15.228,4.593a2.469,2.469,0,0,1-1.469,0q-7.56-2.281-15.125-4.546A2.1,2.1,0,0,1,0,27.47Z" transform="translate(180 1914.85)" fill="#81d4fa"/>
    <path id="Trazado_707574" data-name="Trazado 707574" d="M254.846,32.09a6.9,6.9,0,1,1,6.9-6.907,6.9,6.9,0,0,1-6.9,6.907M254,27.973l4.252-4.315-1.377-1.329L253.929,25.4l-1.2-1.264-1.287,1.328L254,27.973" transform="translate(-43.433 1898.37)" fill="#7e5ee3"/>
  </g>
</svg>
