<svg xmlns="http://www.w3.org/2000/svg" xmlns:xlink="http://www.w3.org/1999/xlink" width="400" height="224" viewBox="0 0 400 224">
  <defs>
    <clipPath id="clip-path">
      <rect id="Rectángulo_346939" data-name="Rectángulo 346939" width="221.805" height="224" fill="none"/>
    </clipPath>
    <clipPath id="clip-path-3">
      <rect id="Rectángulo_346898" data-name="Rectángulo 346898" width="53.093" height="30.653" transform="translate(168.712 189.696)" fill="none"/>
    </clipPath>
    <clipPath id="clip-path-4">
      <rect id="Rectángulo_346899" data-name="Rectángulo 346899" width="154.664" height="89.295" transform="translate(0 109.395)" fill="none"/>
    </clipPath>
    <clipPath id="clip-path-5">
      <rect id="Rectángulo_346900" data-name="Rectángulo 346900" width="131.057" height="86.654" transform="translate(20.541 100.187)" fill="none"/>
    </clipPath>
    <clipPath id="clip-path-6">
      <rect id="Rectángulo_346901" data-name="Rectángulo 346901" width="122.323" height="155.245" transform="translate(24.908 9.943)" fill="none"/>
    </clipPath>
    <clipPath id="clip-path-7">
      <rect id="Rectángulo_346902" data-name="Rectángulo 346902" width="130.289" height="75.368" transform="translate(40.899 3.835)" fill="none"/>
    </clipPath>
    <clipPath id="clip-path-8">
      <rect id="Rectángulo_346903" data-name="Rectángulo 346903" width="2.576" height="8.153" transform="translate(40.401 78.002)" fill="none"/>
    </clipPath>
    <clipPath id="clip-path-9">
      <rect id="Rectángulo_346904" data-name="Rectángulo 346904" width="10.414" height="10.824" transform="translate(54.992 133.074)" fill="none"/>
    </clipPath>
    <clipPath id="clip-path-10">
      <rect id="Rectángulo_346905" data-name="Rectángulo 346905" width="10.414" height="10.824" transform="translate(117.521 92.156)" fill="none"/>
    </clipPath>
    <clipPath id="clip-path-11">
      <rect id="Rectángulo_346906" data-name="Rectángulo 346906" width="10.414" height="10.824" transform="translate(117.521 96.97)" fill="none"/>
    </clipPath>
    <clipPath id="clip-path-12">
      <rect id="Rectángulo_346907" data-name="Rectángulo 346907" width="10.414" height="10.825" transform="translate(117.521 101.784)" fill="none"/>
    </clipPath>
    <clipPath id="clip-path-13">
      <rect id="Rectángulo_346908" data-name="Rectángulo 346908" width="10.414" height="10.824" transform="translate(117.521 106.599)" fill="none"/>
    </clipPath>
    <clipPath id="clip-path-14">
      <rect id="Rectángulo_346909" data-name="Rectángulo 346909" width="10.414" height="10.824" transform="translate(65.406 112.616)" fill="none"/>
    </clipPath>
    <clipPath id="clip-path-15">
      <rect id="Rectángulo_346910" data-name="Rectángulo 346910" width="10.414" height="10.825" transform="translate(86.263 76.51)" fill="none"/>
    </clipPath>
    <clipPath id="clip-path-16">
      <rect id="Rectángulo_346911" data-name="Rectángulo 346911" width="10.414" height="10.824" transform="translate(138.378 75.307)" fill="none"/>
    </clipPath>
    <clipPath id="clip-path-17">
      <rect id="Rectángulo_346912" data-name="Rectángulo 346912" width="22.182" height="12.807" transform="translate(161.315 137.715)" fill="none"/>
    </clipPath>
    <clipPath id="clip-path-18">
      <rect id="Rectángulo_346913" data-name="Rectángulo 346913" width="11.092" height="20.827" transform="translate(161.315 144.106)" fill="none"/>
    </clipPath>
    <clipPath id="clip-path-19">
      <rect id="Rectángulo_346914" data-name="Rectángulo 346914" width="22.183" height="12.807" transform="translate(146.723 140.15)" fill="none"/>
    </clipPath>
    <clipPath id="clip-path-20">
      <rect id="Rectángulo_346915" data-name="Rectángulo 346915" width="11.093" height="26.818" transform="translate(157.814 146.539)" fill="none"/>
    </clipPath>
    <clipPath id="clip-path-21">
      <rect id="Rectángulo_346916" data-name="Rectángulo 346916" width="11.093" height="26.817" transform="translate(146.723 146.54)" fill="none"/>
    </clipPath>
    <clipPath id="clip-path-22">
      <rect id="Rectángulo_346917" data-name="Rectángulo 346917" width="22.182" height="12.807" transform="translate(132.132 161.776)" fill="none"/>
    </clipPath>
    <clipPath id="clip-path-23">
      <rect id="Rectángulo_346918" data-name="Rectángulo 346918" width="11.093" height="13.617" transform="translate(143.223 168.165)" fill="none"/>
    </clipPath>
    <clipPath id="clip-path-24">
      <rect id="Rectángulo_346919" data-name="Rectángulo 346919" width="11.092" height="13.615" transform="translate(132.132 168.166)" fill="none"/>
    </clipPath>
    <clipPath id="clip-path-25">
      <rect id="Rectángulo_346920" data-name="Rectángulo 346920" width="20.316" height="16.334" transform="translate(60.79 207.481)" fill="none"/>
    </clipPath>
    <clipPath id="clip-path-26">
      <rect id="Rectángulo_346921" data-name="Rectángulo 346921" width="22.986" height="18.192" transform="translate(80.512 205.808)" fill="none"/>
    </clipPath>
    <clipPath id="clip-path-27">
      <rect id="Rectángulo_346922" data-name="Rectángulo 346922" width="12.742" height="11.552" transform="translate(67.748 198.36)" fill="none"/>
    </clipPath>
    <clipPath id="clip-path-28">
      <rect id="Rectángulo_346923" data-name="Rectángulo 346923" width="20.319" height="20.46" transform="translate(60.788 199.162)" fill="none"/>
    </clipPath>
    <clipPath id="clip-path-29">
      <rect id="Rectángulo_346924" data-name="Rectángulo 346924" width="22.984" height="18.192" transform="translate(80.512 201.613)" fill="none"/>
    </clipPath>
    <clipPath id="clip-path-30">
      <rect id="Rectángulo_346925" data-name="Rectángulo 346925" width="2.541" height="16.143" transform="translate(78.566 207.674)" fill="none"/>
    </clipPath>
    <clipPath id="clip-path-31">
      <rect id="Rectángulo_346926" data-name="Rectángulo 346926" width="5.552" height="3.205" transform="translate(94.586 189.012)" fill="none"/>
    </clipPath>
    <clipPath id="clip-path-32">
      <rect id="Rectángulo_346927" data-name="Rectángulo 346927" width="2.776" height="3.211" transform="translate(97.362 190.611)" fill="none"/>
    </clipPath>
    <clipPath id="clip-path-33">
      <rect id="Rectángulo_346928" data-name="Rectángulo 346928" width="2.776" height="3.211" transform="translate(94.586 190.612)" fill="none"/>
    </clipPath>
    <clipPath id="clip-path-34">
      <rect id="Rectángulo_346929" data-name="Rectángulo 346929" width="5.552" height="3.206" transform="translate(100.839 192.623)" fill="none"/>
    </clipPath>
    <clipPath id="clip-path-35">
      <rect id="Rectángulo_346930" data-name="Rectángulo 346930" width="2.777" height="3.211" transform="translate(103.615 194.222)" fill="none"/>
    </clipPath>
    <clipPath id="clip-path-36">
      <rect id="Rectángulo_346931" data-name="Rectángulo 346931" width="2.777" height="3.211" transform="translate(100.839 194.222)" fill="none"/>
    </clipPath>
    <clipPath id="clip-path-37">
      <rect id="Rectángulo_346932" data-name="Rectángulo 346932" width="5.552" height="3.206" transform="translate(107.093 196.233)" fill="none"/>
    </clipPath>
    <clipPath id="clip-path-38">
      <rect id="Rectángulo_346933" data-name="Rectángulo 346933" width="2.776" height="3.211" transform="translate(107.093 197.833)" fill="none"/>
    </clipPath>
    <clipPath id="clip-path-39">
      <rect id="Rectángulo_346934" data-name="Rectángulo 346934" width="7.61" height="17.954" transform="translate(199.166 146.485)" fill="none"/>
    </clipPath>
    <clipPath id="clip-path-40">
      <rect id="Rectángulo_346935" data-name="Rectángulo 346935" width="20.431" height="33.046" transform="translate(188.478 112.896)" fill="none"/>
    </clipPath>
    <clipPath id="clip-path-41">
      <rect id="Rectángulo_346936" data-name="Rectángulo 346936" width="6.001" height="3.58" transform="translate(167.901 105.438)" fill="none"/>
    </clipPath>
    <clipPath id="clip-path-42">
      <rect id="Rectángulo_346937" data-name="Rectángulo 346937" width="22.027" height="34.552" transform="translate(187.767 132.829)" fill="none"/>
    </clipPath>
  </defs>
  <g id="Grupo_1003391" data-name="Grupo 1003391" transform="translate(7070 10835)">
    <rect id="Imagen_1" data-name="Imagen 1" width="400" height="224" rx="19" transform="translate(-7070 -10835)" fill="none"/>
    <g id="Grupo_1003390" data-name="Grupo 1003390" transform="translate(-6981 -10835)">
      <g id="Grupo_1003389" data-name="Grupo 1003389" clip-path="url(#clip-path)">
        <g id="Grupo_1003388" data-name="Grupo 1003388">
          <g id="Grupo_1003387" data-name="Grupo 1003387" clip-path="url(#clip-path)">
            <g id="Grupo_1003269" data-name="Grupo 1003269" opacity="0.1">
              <g id="Grupo_1003268" data-name="Grupo 1003268">
                <g id="Grupo_1003267" data-name="Grupo 1003267" clip-path="url(#clip-path-3)">
                  <path id="Trazado_711119" data-name="Trazado 711119" d="M214.029,194.185c10.367,5.985,10.367,15.69,0,21.675s-27.175,5.985-37.542,0-10.367-15.69,0-21.675,27.175-5.985,37.542,0"/>
                </g>
              </g>
            </g>
            <g id="Grupo_1003272" data-name="Grupo 1003272" opacity="0.1">
              <g id="Grupo_1003271" data-name="Grupo 1003271">
                <g id="Grupo_1003270" data-name="Grupo 1003270" clip-path="url(#clip-path-4)">
                  <path id="Trazado_711120" data-name="Trazado 711120" d="M22.688,198.159.921,185.592a1.354,1.354,0,0,1,0-2.566l126.611-73.1a4.908,4.908,0,0,1,4.444,0l21.768,12.567a1.354,1.354,0,0,1,0,2.565l-126.612,73.1a4.908,4.908,0,0,1-4.444,0"/>
                </g>
              </g>
            </g>
            <path id="Trazado_711121" data-name="Trazado 711121" d="M37.313,12.276l-4.922,2.842a6.038,6.038,0,0,0,.041-.652V13.04c0-2.537-1.782-3.566-3.979-2.3a7.7,7.7,0,0,0-2.372,2.281c-.36-3.192-2.864-4.38-5.9-2.625a13.16,13.16,0,0,0-5.953,10.312v2.133a5.62,5.62,0,0,0,.5,2.472l-4.089,2.361A4.878,4.878,0,0,0,8.431,31.5c0,1.408.988,1.978,2.207,1.274l26.675-15.4A4.88,4.88,0,0,0,39.52,13.55c0-1.407-.988-1.978-2.207-1.274" fill="#fff"/>
            <path id="Trazado_711122" data-name="Trazado 711122" d="M62.8,24.07l-3.715,2.145a4.575,4.575,0,0,0,.031-.491V24.648c0-1.916-1.344-2.692-3-1.735a5.8,5.8,0,0,0-1.79,1.722c-.272-2.408-2.161-3.306-4.456-1.98a9.929,9.929,0,0,0-4.493,7.782v1.61a4.239,4.239,0,0,0,.38,1.864l-3.086,1.782a3.684,3.684,0,0,0-1.665,2.886c0,1.063.745,1.493,1.665.961L62.8,27.917a3.68,3.68,0,0,0,1.666-2.884c0-1.064-.746-1.493-1.666-.963" fill="#fff"/>
            <path id="Trazado_711123" data-name="Trazado 711123" d="M100.93,175.761l18.713-10.82c1.928-1.113,2.893-2.573,2.893-4.032s.008-2.6.008-2.6l-19.415-10.948a4.116,4.116,0,0,1-1.863-3.226V121.061L68.582,139.947v23.071a4.118,4.118,0,0,0,1.863,3.227l16.515,9.516a15.44,15.44,0,0,0,13.971,0" fill="#1a2e35"/>
            <path id="Trazado_711124" data-name="Trazado 711124" d="M76.428,167.1V169.7l-5.99-3.452a4.122,4.122,0,0,1-1.861-3.227V139.949l6.227-3.592c.129,1.581.269,3.215.4,4.807l-4.366,2.527v18.025a4.091,4.091,0,0,0,1.86,3.226Z"/>
            <path id="Trazado_711125" data-name="Trazado 711125" d="M70.835,161.72a4.116,4.116,0,0,0,1.863,3.226l14.258,8.214a15.445,15.445,0,0,0,13.972,0l18.722-10.819c3.858-2.226,3.859-5.837,0-8.064l-14.268-8.219a4.116,4.116,0,0,1-1.863-3.226V124.806L70.835,143.692Z" fill="#2b454e"/>
            <path id="Trazado_711126" data-name="Trazado 711126" d="M109.177,148.252v0l-3.794-2.19a4.118,4.118,0,0,1-1.863-3.227V124.806L70.835,143.692V161.72a4.116,4.116,0,0,0,1.863,3.226l3.728,2.153Z" fill="#1a2e35"/>
            <path id="Trazado_711127" data-name="Trazado 711127" d="M122.54,158.308v2.6c0,1.462-.968,2.914-2.893,4.033l-18.716,10.813a14,14,0,0,1-6.667,1.656v-2.591a14.01,14.01,0,0,0,6.667-1.657l18.716-10.824c1.925-1.108,2.893-2.57,2.893-4.033" fill="#375a64"/>
            <path id="Trazado_711128" data-name="Trazado 711128" d="M18.356,184.126a5,5,0,0,0,4.513-.082c16.069-9.279,110.335-63.7,126.4-72.977a5.144,5.144,0,0,0,2.328-4.032V4.449A5,5,0,0,0,149.414.5,4.993,4.993,0,0,0,144.9.583L18.5,73.559a5.146,5.146,0,0,0-2.329,4.033V180.177a4.99,4.99,0,0,0,2.184,3.949" fill="#375a64"/>
            <path id="Trazado_711129" data-name="Trazado 711129" d="M22.869,184.04l126.4-72.976a5.145,5.145,0,0,0,2.328-4.033V4.445c0-1.485-1.042-2.087-2.328-1.344L22.871,76.077a5.148,5.148,0,0,0-2.329,4.033V182.7c0,1.485,1.042,2.086,2.328,1.344" fill="#00bcd4"/>
            <path id="Trazado_711130" data-name="Trazado 711130" d="M22.869,184.04l126.4-72.976a5.145,5.145,0,0,0,2.328-4.033V4.445c0-1.485-1.042-2.087-2.328-1.344L22.871,76.077a5.148,5.148,0,0,0-2.329,4.033V182.7c0,1.485,1.042,2.086,2.328,1.344" fill="#2b454e"/>
            <path id="Trazado_711131" data-name="Trazado 711131" d="M22.526,186.7a5.031,5.031,0,0,1-4.173-.086,5,5,0,0,1-2.183-3.958v-9.31l4.367,2.527v9.311c0,1.355.86,1.968,1.989,1.516" fill="#1a2e35"/>
            <path id="Trazado_711132" data-name="Trazado 711132" d="M20.537,175.871l0,9.307c0,1.485,1.042,2.087,2.328,1.344l126.4-72.975a5.148,5.148,0,0,0,2.328-4.033v-9.328Z" fill="#2b454e"/>
            <g id="Grupo_1003275" data-name="Grupo 1003275" opacity="0.2">
              <g id="Grupo_1003274" data-name="Grupo 1003274">
                <g id="Grupo_1003273" data-name="Grupo 1003273" clip-path="url(#clip-path-5)">
                  <path id="Trazado_711133" data-name="Trazado 711133" d="M20.541,175.852v9.327c0,1.484,1.042,2.086,2.328,1.344l126.4-72.976a5.145,5.145,0,0,0,2.328-4.033v-9.327Z"/>
                </g>
              </g>
            </g>
            <path id="Trazado_711134" data-name="Trazado 711134" d="M24.908,164.19V81.56a3.088,3.088,0,0,1,1.4-2.42L145.83,10.133c.771-.445,1.4-.084,1.4.807l0,82.632a3.089,3.089,0,0,1-1.4,2.419L26.305,165c-.772.445-1.4.084-1.4-.807" fill="#00bcd4"/>
            <g id="Grupo_1003278" data-name="Grupo 1003278" opacity="0.3">
              <g id="Grupo_1003277" data-name="Grupo 1003277">
                <g id="Grupo_1003276" data-name="Grupo 1003276" clip-path="url(#clip-path-6)">
                  <path id="Trazado_711135" data-name="Trazado 711135" d="M24.908,164.19V81.56a3.088,3.088,0,0,1,1.4-2.42L145.83,10.133c.771-.445,1.4-.084,1.4.807l0,82.632a3.089,3.089,0,0,1-1.4,2.419L26.305,165c-.772.445-1.4.084-1.4-.807"/>
                </g>
              </g>
            </g>
            <path id="Trazado_711136" data-name="Trazado 711136" d="M86.068,140.991a4.829,4.829,0,0,0-2.185,3.784c0,1.393.979,1.958,2.185,1.261a4.829,4.829,0,0,0,2.185-3.784c0-1.393-.978-1.958-2.185-1.261" fill="#375a64"/>
            <path id="Trazado_711137" data-name="Trazado 711137" d="M21.225,77.807a4.948,4.948,0,0,0-.688,2.3v95.763l-4.367-2.527V77.592a4.82,4.82,0,0,1,.689-2.3Z" fill="#1a2e35"/>
            <path id="Trazado_711138" data-name="Trazado 711138" d="M169.2,3.96a1.149,1.149,0,0,0-1.188.093L42.035,76.809A3.609,3.609,0,0,0,40.4,79.636v84.931a1.59,1.59,0,0,0,.688,1.418c.267.143,1.668.959,2.084,1.183a.938.938,0,0,0,.946-.055L170.094,94.33a3.6,3.6,0,0,0,1.633-2.824V6.178a1.129,1.129,0,0,0-.506-1.072c-.292-.153-1.722-.966-2.022-1.146" fill="#00bcd4"/>
            <path id="Trazado_711139" data-name="Trazado 711139" d="M43.582,166.995c-.451,0-.818-.559-.818-1.246V80.818a3.361,3.361,0,0,1,1.493-2.588L170.233,5.474a1.22,1.22,0,0,1,.592-.186c.393,0,.627.332.627.89V91.506a3.35,3.35,0,0,1-1.495,2.585L43.983,166.874a.81.81,0,0,1-.4.121" fill="#fafafa"/>
            <path id="Trazado_711140" data-name="Trazado 711140" d="M170.825,5.564c.307,0,.352.384.352.614V91.506a3.04,3.04,0,0,1-1.358,2.347L43.847,166.636a.542.542,0,0,1-.264.084c-.29,0-.544-.454-.544-.971V80.818A3.047,3.047,0,0,1,44.4,78.469L170.372,5.713a.929.929,0,0,1,.453-.149m0-.551a1.484,1.484,0,0,0-.729.223L44.12,77.992a3.606,3.606,0,0,0-1.632,2.826v84.931c0,.823.457,1.522,1.1,1.522a1.079,1.079,0,0,0,.539-.158L170.1,94.33a3.6,3.6,0,0,0,1.633-2.824V6.178c0-.738-.368-1.165-.9-1.165" fill="#e1e1e1"/>
            <path id="Trazado_711141" data-name="Trazado 711141" d="M41.089,165.984c.177.094,1.445.818,2,1.134a1.665,1.665,0,0,1-.6-1.37V86.155L40.4,84.933v79.635a1.586,1.586,0,0,0,.688,1.416" fill="#f0f0f0"/>
            <path id="Trazado_711142" data-name="Trazado 711142" d="M171.727,6.166c-.007-1.031-.734-1.448-1.631-.93L44.119,77.993a3.608,3.608,0,0,0-1.631,2.826l0,5.337L171.727,11.521Z" fill="#00bcd4"/>
            <g id="Grupo_1003281" data-name="Grupo 1003281" opacity="0.4">
              <g id="Grupo_1003280" data-name="Grupo 1003280">
                <g id="Grupo_1003279" data-name="Grupo 1003279" clip-path="url(#clip-path-7)">
                  <path id="Trazado_711143" data-name="Trazado 711143" d="M170.1,5.235,44.121,77.991A3.355,3.355,0,0,0,42.972,79.2L40.9,78a3.256,3.256,0,0,1,1.135-1.19L168.012,4.055a1.148,1.148,0,0,1,1.185-.1c.292.18,1.647.95,1.991,1.134a1.183,1.183,0,0,0-1.093.144" fill="#fff"/>
                </g>
              </g>
            </g>
            <g id="Grupo_1003284" data-name="Grupo 1003284" opacity="0.15">
              <g id="Grupo_1003283" data-name="Grupo 1003283">
                <g id="Grupo_1003282" data-name="Grupo 1003282" clip-path="url(#clip-path-8)">
                  <path id="Trazado_711144" data-name="Trazado 711144" d="M40.4,84.939V79.634A3.363,3.363,0,0,1,40.9,78l2.078,1.2a3.294,3.294,0,0,0-.487,1.621v5.337Z"/>
                </g>
              </g>
            </g>
            <path id="Trazado_711145" data-name="Trazado 711145" d="M42.49,86.155l0,9.611L171.727,21.147V11.521Z" fill="#ececec"/>
            <path id="Trazado_711146" data-name="Trazado 711146" d="M47.871,85.441l8.358-4.8v4.79l-8.361,4.828Z" fill="#e1e1e1"/>
            <path id="Trazado_711147" data-name="Trazado 711147" d="M58.293,79.424v1.894l4.169-2.408V77.017Z" fill="#e1e1e1"/>
            <path id="Trazado_711148" data-name="Trazado 711148" d="M58.293,82.348v1.894l4.169-2.408V79.941Z" fill="#e1e1e1"/>
            <path id="Trazado_711149" data-name="Trazado 711149" d="M64.546,75.813v1.894L68.716,75.3V73.406Z" fill="#e1e1e1"/>
            <path id="Trazado_711150" data-name="Trazado 711150" d="M64.546,78.737v1.894l4.169-2.408V76.33Z" fill="#e1e1e1"/>
            <path id="Trazado_711151" data-name="Trazado 711151" d="M70.8,72.2V74.1l4.169-2.408V69.794Z" fill="#e1e1e1"/>
            <path id="Trazado_711152" data-name="Trazado 711152" d="M70.8,75.125v1.894l4.169-2.408V72.718Z" fill="#e1e1e1"/>
            <path id="Trazado_711153" data-name="Trazado 711153" d="M89.559,61.372v1.894l4.169-2.408V58.965Z" fill="#e1e1e1"/>
            <path id="Trazado_711154" data-name="Trazado 711154" d="M89.559,64.3V66.19l4.169-2.408V61.889Z" fill="#e1e1e1"/>
            <path id="Trazado_711155" data-name="Trazado 711155" d="M95.812,57.761v1.894l4.169-2.408V55.354Z" fill="#e1e1e1"/>
            <path id="Trazado_711156" data-name="Trazado 711156" d="M95.812,60.685v1.894l4.169-2.408V58.278Z" fill="#e1e1e1"/>
            <path id="Trazado_711157" data-name="Trazado 711157" d="M102.066,54.15v1.894l4.169-2.408V51.743Z" fill="#e1e1e1"/>
            <path id="Trazado_711158" data-name="Trazado 711158" d="M102.066,57.074v1.894l4.169-2.408V54.667Z" fill="#e1e1e1"/>
            <path id="Trazado_711159" data-name="Trazado 711159" d="M77.052,68.593l10.423-6.018v4.814L77.054,73.406Z" fill="#e1e1e1"/>
            <path id="Trazado_711160" data-name="Trazado 711160" d="M108.323,50.54l8.358-4.8v4.79l-8.361,4.828Z" fill="#e1e1e1"/>
            <path id="Trazado_711161" data-name="Trazado 711161" d="M118.745,44.523v1.894l4.169-2.408V42.116Z" fill="#e1e1e1"/>
            <path id="Trazado_711162" data-name="Trazado 711162" d="M118.745,47.447v1.894l4.169-2.408V45.04Z" fill="#e1e1e1"/>
            <path id="Trazado_711163" data-name="Trazado 711163" d="M125,40.911v1.894l4.169-2.408V38.5Z" fill="#e1e1e1"/>
            <path id="Trazado_711164" data-name="Trazado 711164" d="M125,43.835V45.73l4.169-2.408V41.428Z" fill="#e1e1e1"/>
            <path id="Trazado_711165" data-name="Trazado 711165" d="M131.252,37.3v1.894l4.169-2.408V34.893Z" fill="#e1e1e1"/>
            <path id="Trazado_711166" data-name="Trazado 711166" d="M131.252,40.224v1.894l4.169-2.408V37.817Z" fill="#e1e1e1"/>
            <path id="Trazado_711167" data-name="Trazado 711167" d="M150.012,26.469v1.894l4.169-2.408V24.062Z" fill="#e1e1e1"/>
            <path id="Trazado_711168" data-name="Trazado 711168" d="M150.012,29.393v1.894l4.169-2.408V26.986Z" fill="#e1e1e1"/>
            <path id="Trazado_711169" data-name="Trazado 711169" d="M156.265,22.858v1.894l4.169-2.408V20.451Z" fill="#e1e1e1"/>
            <path id="Trazado_711170" data-name="Trazado 711170" d="M156.265,25.782v1.894l4.169-2.408V23.375Z" fill="#e1e1e1"/>
            <path id="Trazado_711171" data-name="Trazado 711171" d="M162.518,19.247v1.894l4.169-2.408V16.84Z" fill="#e1e1e1"/>
            <path id="Trazado_711172" data-name="Trazado 711172" d="M162.518,22.171v1.894l4.169-2.408V19.764Z" fill="#e1e1e1"/>
            <path id="Trazado_711173" data-name="Trazado 711173" d="M137.505,33.692l10.423-6.018v4.814L137.507,38.5Z" fill="#e1e1e1"/>
            <path id="Trazado_711174" data-name="Trazado 711174" d="M42.49,86.155,40.4,84.933v9.631l2.087,1.2Z" fill="#e1e1e1"/>
            <path id="Trazado_711175" data-name="Trazado 711175" d="M138.375,26.99v.354c0,.567.4.8.888.513l25.322-14.619a1.968,1.968,0,0,0,.889-1.539v-.355c0-.567-.4-.8-.889-.513l-25.321,14.62a1.963,1.963,0,0,0-.889,1.539" fill="#f5f5f5"/>
            <path id="Trazado_711176" data-name="Trazado 711176" d="M165.474,11.7v-.355c0-.566-.4-.8-.889-.513l-3.28,1.894v2.407l3.28-1.893a1.966,1.966,0,0,0,.889-1.54" fill="#375a64"/>
            <path id="Trazado_711177" data-name="Trazado 711177" d="M44.573,96.965l125.072-72.2v4.8L54.992,95.766l0,62.582-10.417,6.014Z" fill="#f0f0f0"/>
            <path id="Trazado_711178" data-name="Trazado 711178" d="M54.992,95.766l10.414-6.012v4.8l-10.414,6.023Z" fill="#00bcd4"/>
            <path id="Trazado_711179" data-name="Trazado 711179" d="M54.992,134.273l10.414-6.012v4.8l-10.414,6.023Z" fill="#00bcd4"/>
            <path id="Trazado_711180" data-name="Trazado 711180" d="M54.992,139.087l10.414-6.012v4.8L54.992,143.9Z" fill="#00bcd4"/>
            <g id="Grupo_1003287" data-name="Grupo 1003287" opacity="0.8">
              <g id="Grupo_1003286" data-name="Grupo 1003286">
                <g id="Grupo_1003285" data-name="Grupo 1003285" clip-path="url(#clip-path-9)">
                  <path id="Trazado_711181" data-name="Trazado 711181" d="M54.992,139.087l10.414-6.012v4.8L54.992,143.9Z" fill="#fff"/>
                </g>
              </g>
            </g>
            <path id="Trazado_711182" data-name="Trazado 711182" d="M117.521,98.168l10.414-6.012v4.8l-10.414,6.023Z" fill="#00bcd4"/>
            <g id="Grupo_1003290" data-name="Grupo 1003290" opacity="0.3">
              <g id="Grupo_1003289" data-name="Grupo 1003289">
                <g id="Grupo_1003288" data-name="Grupo 1003288" clip-path="url(#clip-path-10)">
                  <path id="Trazado_711183" data-name="Trazado 711183" d="M117.521,98.168l10.414-6.012v4.8l-10.414,6.023Z"/>
                </g>
              </g>
            </g>
            <path id="Trazado_711184" data-name="Trazado 711184" d="M117.521,102.982l10.414-6.012v4.8l-10.414,6.022Z" fill="#00bcd4"/>
            <g id="Grupo_1003293" data-name="Grupo 1003293" opacity="0.4">
              <g id="Grupo_1003292" data-name="Grupo 1003292">
                <g id="Grupo_1003291" data-name="Grupo 1003291" clip-path="url(#clip-path-11)">
                  <path id="Trazado_711185" data-name="Trazado 711185" d="M117.521,102.982l10.414-6.012v4.8l-10.414,6.022Z"/>
                </g>
              </g>
            </g>
            <path id="Trazado_711186" data-name="Trazado 711186" d="M117.521,107.8l10.414-6.012v4.8l-10.414,6.022Z" fill="#00bcd4"/>
            <g id="Grupo_1003296" data-name="Grupo 1003296" opacity="0.5">
              <g id="Grupo_1003295" data-name="Grupo 1003295">
                <g id="Grupo_1003294" data-name="Grupo 1003294" clip-path="url(#clip-path-12)">
                  <path id="Trazado_711187" data-name="Trazado 711187" d="M117.521,107.8l10.414-6.012v4.8l-10.414,6.022Z"/>
                </g>
              </g>
            </g>
            <path id="Trazado_711188" data-name="Trazado 711188" d="M117.521,112.611l10.414-6.012v4.8l-10.414,6.022Z" fill="#00bcd4"/>
            <g id="Grupo_1003299" data-name="Grupo 1003299" opacity="0.3">
              <g id="Grupo_1003298" data-name="Grupo 1003298">
                <g id="Grupo_1003297" data-name="Grupo 1003297" clip-path="url(#clip-path-13)">
                  <path id="Trazado_711189" data-name="Trazado 711189" d="M117.521,112.611l10.414-6.012v4.8l-10.414,6.022Z"/>
                </g>
              </g>
            </g>
            <path id="Trazado_711190" data-name="Trazado 711190" d="M107.107,65.674l10.414-6.012V83.731l-10.414,6.023Z" fill="#00bcd4"/>
            <path id="Trazado_711191" data-name="Trazado 711191" d="M107.107,94.559l10.414-6.012v33.7l-10.414,6.022Z" fill="#00bcd4"/>
            <path id="Trazado_711192" data-name="Trazado 711192" d="M65.406,118.628l10.414-6.012v4.8L65.406,123.44Z" fill="#00bcd4"/>
            <g id="Grupo_1003302" data-name="Grupo 1003302" opacity="0.3">
              <g id="Grupo_1003301" data-name="Grupo 1003301">
                <g id="Grupo_1003300" data-name="Grupo 1003300" clip-path="url(#clip-path-14)">
                  <path id="Trazado_711193" data-name="Trazado 711193" d="M65.406,118.628l10.414-6.012v4.8L65.406,123.44Z"/>
                </g>
              </g>
            </g>
            <path id="Trazado_711194" data-name="Trazado 711194" d="M86.263,82.523l10.414-6.012v4.8L86.263,87.335Z" fill="#00bcd4"/>
            <g id="Grupo_1003305" data-name="Grupo 1003305" opacity="0.6">
              <g id="Grupo_1003304" data-name="Grupo 1003304">
                <g id="Grupo_1003303" data-name="Grupo 1003303" clip-path="url(#clip-path-15)">
                  <path id="Trazado_711195" data-name="Trazado 711195" d="M86.263,82.523l10.414-6.012v4.8L86.263,87.335Z" fill="#fff"/>
                </g>
              </g>
            </g>
            <path id="Trazado_711196" data-name="Trazado 711196" d="M138.378,81.319l10.414-6.012v4.8l-10.414,6.022Z" fill="#00bcd4"/>
            <g id="Grupo_1003308" data-name="Grupo 1003308" opacity="0.8">
              <g id="Grupo_1003307" data-name="Grupo 1003307">
                <g id="Grupo_1003306" data-name="Grupo 1003306" clip-path="url(#clip-path-16)">
                  <path id="Trazado_711197" data-name="Trazado 711197" d="M138.378,81.319l10.414-6.012v4.8l-10.414,6.022Z" fill="#fff"/>
                </g>
              </g>
            </g>
            <path id="Trazado_711198" data-name="Trazado 711198" d="M138.378,90.951l10.414-6.012v4.8l-10.414,6.023Z" fill="#00bcd4"/>
            <path id="Trazado_711199" data-name="Trazado 711199" d="M44.445,96.747l-.128.075v67.989L169.771,92.377l.129-.074V24.315Zm124.942-9.539-9.906,5.719V88.705l9.906-5.72ZM44.83,101.93l9.908-5.72v4.222l-9.908,5.721Zm62.023-6.917v4.222l-9.91,5.722v-4.223Zm-9.91,5.129V95.919l9.91-5.722V94.42Zm10.423-5.425L117.276,89v4.223l-9.91,5.721Zm0-.593V89.9l9.91-5.721V88.4Zm0-4.815V85.086l9.91-5.722v4.224Zm0-4.816V80.271l9.91-5.722v4.223Zm-.513.3-9.91,5.721V86.289l9.91-5.722Zm0,.592v4.223l-9.91,5.722V91.1ZM96.43,95.623l-9.909,5.721V97.121L96.43,91.4Zm0,.592v4.223l-9.909,5.722v-4.223Zm0,4.816v4.222l-9.909,5.722v-4.223Zm0,4.815v4.223l-9.909,5.721v-4.223Zm.513-.3,9.91-5.721v4.223l-9.91,5.721Zm9.91-.906v4.223l-9.91,5.722v-4.223Zm.513-.3,9.91-5.721v4.222l-9.91,5.722Zm0-.592V99.532l9.91-5.722v4.223Zm10.423-10.241,9.91-5.721v4.223l-9.91,5.721Zm0-.592V88.7l9.91-5.721V87.2Zm0-4.815V83.884l9.91-5.722v4.223Zm0-4.816V79.068l9.91-5.721V77.57Zm0-4.815V74.253l9.91-5.721v4.223Zm0-4.815V69.438l9.91-5.721v4.222Zm-.513.3-9.91,5.721V75.455l9.91-5.721Zm-10.423,6.018L96.943,85.7V81.473l9.91-5.721ZM96.43,85.992l-9.909,5.722V87.491L96.43,81.77Zm0,.593v4.223l-9.909,5.721V92.306ZM86.007,96.825l-9.91,5.722V98.324l9.91-5.722Zm0,.592v4.224l-9.91,5.721v-4.223Zm0,4.816v4.223l-9.91,5.722v-4.224Zm0,4.815v4.223l-9.91,5.722V112.77Zm0,4.815v4.223l-9.91,5.722v-4.223Zm0,4.816V120.9l-9.91,5.722V122.4Zm.514-.3,9.909-5.721v4.223l-9.909,5.721Zm9.909-.906V119.7l-9.909,5.722V121.2Zm.513-.3,9.91-5.722v4.223l-9.91,5.722Zm10.423-6.018,9.91-5.721v4.223l-9.91,5.721Zm10.423-6.017,9.91-5.722v4.223l-9.91,5.722Zm0-.593V98.329l9.91-5.721v4.223Zm10.423-10.24,9.91-5.722v4.223l-9.91,5.722Zm0-.593V87.5l9.91-5.722V86Zm0-4.815V82.681l9.91-5.721v4.222Zm0-4.815V77.866l9.91-5.721v4.222Zm0-4.815V73.051l9.91-5.722v4.223Zm0-4.816V68.236l9.91-5.722v4.223Zm0-4.815V63.42l9.91-5.721v4.222Zm0-4.815V58.6l9.91-5.721v4.222Zm-.513.3-9.91,5.721V64.623L127.7,58.9Zm-10.423,6.018-9.91,5.721V70.64l9.91-5.721Zm-10.423,6.017-9.91,5.722V76.658l9.91-5.721ZM96.43,81.177,86.521,86.9V82.676l9.909-5.722ZM86.007,87.194,76.1,92.916V88.693l9.91-5.721Zm0,.593V92.01L76.1,97.732V93.509ZM75.584,98.028l-9.909,5.721V99.526l9.909-5.721Zm0,.592v4.223l-9.909,5.721v-4.223Zm0,4.815v4.223l-9.909,5.722v-4.224Zm0,4.816v4.223l-9.909,5.721v-4.223Zm0,4.815v4.223l-9.909,5.721v-4.223Zm0,4.815V122.1l-9.909,5.722V123.6Zm0,4.815v4.223l-9.909,5.722v-4.223Zm0,4.816v4.223l-9.909,5.721v-4.223Zm.513-.3,9.91-5.721v4.223l-9.91,5.721Zm9.91-.906v4.223l-9.91,5.722v-4.223Zm.514-.3,9.909-5.721v4.223l-9.909,5.721ZM96.943,120l9.91-5.721V118.5l-9.91,5.721Zm10.423-6.017,9.91-5.722v4.223l-9.91,5.721Zm10.423-6.018,9.91-5.721v4.223l-9.91,5.721Zm10.423-6.018,9.91-5.721v4.223l-9.91,5.721Zm0-.592V97.127l9.91-5.721v4.222Zm10.423-10.241,9.91-5.721v4.223l-9.91,5.721Zm0-.592V86.294l9.91-5.721V84.8Zm0-4.816V81.479l9.91-5.722V79.98Zm0-4.815V76.664l9.91-5.722v4.223Zm0-4.815V71.848l9.91-5.721V70.35Zm0-4.815V67.033l9.91-5.721v4.223Zm0-4.816V62.218l9.91-5.722v4.223Zm0-4.815V57.4l9.91-5.722V55.9Zm0-4.815V52.587l9.91-5.721v4.223Zm0-4.815V47.772l9.91-5.721v4.222Zm-.513.3-9.91,5.722V53.79l9.91-5.722ZM127.7,58.309l-9.91,5.721V59.807l9.91-5.721Zm-10.423,6.017-9.91,5.722V65.825l9.91-5.721Zm-10.423,6.018-9.91,5.721V71.843l9.91-5.722ZM96.43,76.362l-9.909,5.721V77.86l9.909-5.721ZM86.007,82.379,76.1,88.1V83.878l9.91-5.721ZM75.584,88.4l-9.909,5.721V89.9l9.909-5.721Zm0,.593v4.222l-9.909,5.722V94.711ZM65.161,99.23l-9.91,5.721v-4.222l9.91-5.722Zm0,.593v4.223l-9.91,5.721v-4.223Zm0,4.815v4.222l-9.91,5.722v-4.223Zm0,4.815v4.223l-9.91,5.722v-4.224Zm0,4.815v4.223l-9.91,5.722V119.99Zm0,4.816v4.222l-9.91,5.722v-4.223Zm0,4.815v4.223l-9.91,5.721V129.62Zm0,4.815v4.223l-9.91,5.721v-4.222Zm0,4.815v4.223l-9.91,5.722v-4.223Zm0,4.815v4.224l-9.91,5.721v-4.223Zm.514-.3,9.909-5.721v4.223l-9.909,5.721Zm9.909-.906v4.223l-9.909,5.721v-4.222Zm.513-.3,9.91-5.722v4.223l-9.91,5.722Zm10.424-6.018,9.909-5.721v4.223l-9.909,5.721Zm10.422-6.017,9.91-5.722v4.223l-9.91,5.721Zm10.423-6.018,9.91-5.721v4.222l-9.91,5.721Zm10.423-6.018,9.91-5.721v4.223L117.789,117Zm10.423-6.017,9.91-5.722v4.223l-9.91,5.721Zm10.423-6.018,9.91-5.721v4.222l-9.91,5.721Zm0-.593V95.925l9.91-5.722v4.223Zm10.423-10.24,9.91-5.721v4.222l-9.91,5.722Zm0-.593V85.092l9.91-5.722v4.223Zm0-4.815V80.276l9.91-5.721v4.223Zm0-4.815V75.461l9.91-5.721v4.222Zm0-4.815V70.646l9.91-5.722v4.223Zm0-4.816V65.831l9.91-5.722v4.223Zm0-4.815V61.015l9.91-5.721v4.223Zm0-4.815V56.2l9.91-5.721V54.7Zm0-4.815V51.385l9.91-5.722v4.223Zm0-4.816V46.57l9.91-5.722v4.223Zm0-4.815V41.755l9.91-5.722v4.223Zm0-4.815V36.941l9.91-5.721v4.22Zm-.513.3-9.91,5.721v-4.22l9.91-5.721Zm-10.423,6.018-9.91,5.721v-4.22l9.91-5.722ZM127.7,53.494l-9.91,5.721v-4.22l9.91-5.722Zm-10.423,6.017-9.91,5.721v-4.22l9.91-5.721Zm-10.423,6.018-9.91,5.721V67.03l9.91-5.722ZM96.43,71.547l-9.909,5.721v-4.22l9.909-5.722ZM86.007,77.564,76.1,83.286v-4.22l9.91-5.722ZM75.584,83.582,65.675,89.3v-4.22l9.909-5.721ZM65.161,89.6l-9.91,5.721V91.1l9.91-5.722Zm0,.592v4.223l-9.91,5.721V95.914ZM44.83,106.746l9.908-5.721v4.223l-9.908,5.72Zm0,4.815,9.908-5.721v4.223l-9.908,5.721Zm0,4.815,9.908-5.72v4.222L44.83,120.6Zm0,4.815,9.908-5.72v4.223l-9.908,5.721Zm0,4.816,9.908-5.721v4.223L44.83,130.23Zm0,4.815,9.908-5.721v4.223l-9.908,5.721Zm0,4.815,9.908-5.721v4.224l-9.908,5.72Zm0,4.816,9.908-5.721v4.223l-9.909,5.721Zm0,4.815,9.909-5.721v4.223l-9.909,5.721Zm0,4.815,9.909-5.721v4.224l-9.909,5.72Zm0,4.816,9.909-5.721V153.4l-9.909,5.72Zm10.422-6.018,9.91-5.721v4.223l-9.91,5.721Zm9.91-.906v4.208l-9.91,5.721V153.7Zm.514-.3,9.909-5.722v4.208l-9.909,5.721ZM76.1,141.661l9.91-5.721v4.207l-9.91,5.722Zm10.424-6.018,9.909-5.721v4.207l-9.909,5.722Zm10.422-6.017,9.91-5.722v4.207l-9.91,5.722Zm10.423-6.018,9.91-5.721v4.207l-9.91,5.721Zm10.423-6.018,9.91-5.721v4.207l-9.91,5.721Zm10.423-6.017,9.91-5.722v4.207l-9.91,5.722Zm10.423-6.018,9.91-5.721v4.206l-9.91,5.722Zm10.423-6.017,9.91-5.722v4.206l-9.91,5.722Zm0-.593V94.722L158.968,89v4.222Zm20.329-16.552-9.906,5.719V83.889l9.906-5.719Zm0-4.815L159.481,83.3V79.074l9.906-5.719Zm0-4.816-9.906,5.719V74.259l9.906-5.72Zm0-4.815-9.906,5.719V69.443l9.906-5.719Zm0-4.815-9.906,5.719V64.628l9.906-5.719Zm0-4.816-9.906,5.72V59.813l9.906-5.719Zm0-4.815-9.906,5.719V55l9.906-5.719Zm0-4.815L159.481,54.4V50.182l9.906-5.719Zm0-4.816-9.906,5.72V45.367l9.906-5.719Zm0-4.815-9.906,5.719V40.552l9.906-5.719Zm0-4.815-9.906,5.719V35.737l9.907-5.72Zm0-4.815-9.907,5.719v-4.22l9.907-5.72ZM54.738,91.4v4.22l-9.908,5.721v-4.22Zm-9.909,68.317,9.909-5.721V158.2l-9.909,5.722ZM159.481,97.726V93.52l9.906-5.719v4.206Z" fill="#e1e1e1"/>
            <path id="Trazado_711200" data-name="Trazado 711200" d="M127.935,53.634l41.71-24.062V53.648L127.935,77.7Z" fill="#fafafa"/>
            <path id="Trazado_711201" data-name="Trazado 711201" d="M127.935,53.634l41.71-24.062V53.648L127.935,77.7Z" fill="none" stroke="#e1e1e1" stroke-miterlimit="10" stroke-width="0.551"/>
            <path id="Trazado_711202" data-name="Trazado 711202" d="M130.044,71.7,135.681,56.3l6.232,3.727,6.267-6.384,6.25,4.12,6.249-15.388,6.25,3.205" fill="none" stroke="#375a64" stroke-linecap="round" stroke-linejoin="round" stroke-width="0.413"/>
            <path id="Trazado_711203" data-name="Trazado 711203" d="M135.68,55.575a1.391,1.391,0,0,0-.628,1.092c0,.4.281.565.628.364a1.4,1.4,0,0,0,.628-1.092c0-.4-.281-.564-.628-.364" fill="#00bcd4"/>
            <path id="Trazado_711204" data-name="Trazado 711204" d="M141.93,59.3a1.391,1.391,0,0,0-.628,1.092c0,.4.281.565.628.364a1.394,1.394,0,0,0,.628-1.092c0-.4-.281-.564-.628-.364" fill="#00bcd4"/>
            <path id="Trazado_711205" data-name="Trazado 711205" d="M148.18,52.921a1.391,1.391,0,0,0-.628,1.092c0,.4.281.565.628.364a1.4,1.4,0,0,0,.628-1.092c0-.4-.281-.564-.628-.364" fill="#00bcd4"/>
            <path id="Trazado_711206" data-name="Trazado 711206" d="M154.429,57.036a1.391,1.391,0,0,0-.628,1.092c0,.4.281.565.628.364a1.4,1.4,0,0,0,.628-1.092c0-.4-.281-.564-.628-.364" fill="#00bcd4"/>
            <path id="Trazado_711207" data-name="Trazado 711207" d="M160.679,41.65a1.391,1.391,0,0,0-.628,1.092c0,.4.281.565.628.364a1.4,1.4,0,0,0,.628-1.092c0-.4-.281-.564-.628-.364" fill="#00bcd4"/>
            <path id="Trazado_711208" data-name="Trazado 711208" d="M166.929,44.855a1.4,1.4,0,0,0-.628,1.093c0,.4.281.565.628.364a1.4,1.4,0,0,0,.628-1.092c0-.4-.281-.564-.628-.365" fill="#00bcd4"/>
            <path id="Trazado_711209" data-name="Trazado 711209" d="M187,118.247l-11.09,6.4,11.091,6.4,11.091-6.4Z" fill="#375a64"/>
            <path id="Trazado_711210" data-name="Trazado 711210" d="M198.09,124.636V150.1L187,156.508V131.055Z" fill="#2b454e"/>
            <path id="Trazado_711211" data-name="Trazado 711211" d="M187,131.055v25.453l-11.091-6.4V124.638Z" fill="#1a2e35"/>
            <path id="Trazado_711212" data-name="Trazado 711212" d="M172.405,137.715l-11.09,6.4,11.091,6.4,11.091-6.4Z" fill="#00bcd4"/>
            <g id="Grupo_1003311" data-name="Grupo 1003311" opacity="0.3">
              <g id="Grupo_1003310" data-name="Grupo 1003310">
                <g id="Grupo_1003309" data-name="Grupo 1003309" clip-path="url(#clip-path-17)">
                  <path id="Trazado_711213" data-name="Trazado 711213" d="M172.405,137.715l-11.09,6.4,11.091,6.4,11.091-6.4Z" fill="#fff"/>
                </g>
              </g>
            </g>
            <path id="Trazado_711214" data-name="Trazado 711214" d="M183.5,144.1v14.425l-11.09,6.4,0-14.41Z" fill="#00bcd4"/>
            <path id="Trazado_711215" data-name="Trazado 711215" d="M172.406,150.523v14.41l-11.091-6.4V144.106Z" fill="#00bcd4"/>
            <g id="Grupo_1003314" data-name="Grupo 1003314" opacity="0.1">
              <g id="Grupo_1003313" data-name="Grupo 1003313">
                <g id="Grupo_1003312" data-name="Grupo 1003312" clip-path="url(#clip-path-18)">
                  <path id="Trazado_711216" data-name="Trazado 711216" d="M172.406,150.523v14.41l-11.091-6.4V144.106Z"/>
                </g>
              </g>
            </g>
            <path id="Trazado_711217" data-name="Trazado 711217" d="M157.814,140.15l-11.09,6.4,11.091,6.4,11.091-6.4Z" fill="#00bcd4"/>
            <g id="Grupo_1003317" data-name="Grupo 1003317" opacity="0.88">
              <g id="Grupo_1003316" data-name="Grupo 1003316">
                <g id="Grupo_1003315" data-name="Grupo 1003315" clip-path="url(#clip-path-19)">
                  <path id="Trazado_711218" data-name="Trazado 711218" d="M157.814,140.15l-11.09,6.4,11.091,6.4,11.091-6.4Z" fill="#fff"/>
                </g>
              </g>
            </g>
            <path id="Trazado_711219" data-name="Trazado 711219" d="M168.907,146.539v20.415l-11.09,6.4,0-20.4Z" fill="#00bcd4"/>
            <g id="Grupo_1003320" data-name="Grupo 1003320" opacity="0.75">
              <g id="Grupo_1003319" data-name="Grupo 1003319">
                <g id="Grupo_1003318" data-name="Grupo 1003318" clip-path="url(#clip-path-20)">
                  <path id="Trazado_711220" data-name="Trazado 711220" d="M168.907,146.539v20.415l-11.09,6.4,0-20.4Z" fill="#fff"/>
                </g>
              </g>
            </g>
            <path id="Trazado_711221" data-name="Trazado 711221" d="M157.814,152.958v20.4l-11.091-6.4V146.541Z" fill="#00bcd4"/>
            <g id="Grupo_1003323" data-name="Grupo 1003323" opacity="0.6">
              <g id="Grupo_1003322" data-name="Grupo 1003322">
                <g id="Grupo_1003321" data-name="Grupo 1003321" clip-path="url(#clip-path-21)">
                  <path id="Trazado_711222" data-name="Trazado 711222" d="M157.814,152.958v20.4l-11.091-6.4V146.541Z" fill="#fff"/>
                </g>
              </g>
            </g>
            <path id="Trazado_711223" data-name="Trazado 711223" d="M143.222,161.776l-11.09,6.4,11.091,6.4,11.091-6.4Z" fill="#00bcd4"/>
            <g id="Grupo_1003326" data-name="Grupo 1003326" opacity="0.3">
              <g id="Grupo_1003325" data-name="Grupo 1003325">
                <g id="Grupo_1003324" data-name="Grupo 1003324" clip-path="url(#clip-path-22)">
                  <path id="Trazado_711224" data-name="Trazado 711224" d="M143.222,161.776l-11.09,6.4,11.091,6.4,11.091-6.4Z"/>
                </g>
              </g>
            </g>
            <path id="Trazado_711225" data-name="Trazado 711225" d="M154.316,168.165v7.213l-11.09,6.4,0-7.2Z" fill="#00bcd4"/>
            <g id="Grupo_1003329" data-name="Grupo 1003329" opacity="0.4">
              <g id="Grupo_1003328" data-name="Grupo 1003328">
                <g id="Grupo_1003327" data-name="Grupo 1003327" clip-path="url(#clip-path-23)">
                  <path id="Trazado_711226" data-name="Trazado 711226" d="M154.316,168.165v7.213l-11.09,6.4,0-7.2Z"/>
                </g>
              </g>
            </g>
            <path id="Trazado_711227" data-name="Trazado 711227" d="M143.223,174.584v7.2l-11.091-6.4v-7.211Z" fill="#00bcd4"/>
            <g id="Grupo_1003332" data-name="Grupo 1003332" opacity="0.55">
              <g id="Grupo_1003331" data-name="Grupo 1003331">
                <g id="Grupo_1003330" data-name="Grupo 1003330" clip-path="url(#clip-path-24)">
                  <path id="Trazado_711228" data-name="Trazado 711228" d="M143.223,174.584v7.2l-11.091-6.4v-7.211Z"/>
                </g>
              </g>
            </g>
            <path id="Trazado_711229" data-name="Trazado 711229" d="M82.81,206.572v4.2L78.664,199.5v-4.193l0,.005Z" fill="#1a2e35"/>
            <path id="Trazado_711230" data-name="Trazado 711230" d="M82.812,206.575v4.2l17.1-5.933v-4.2Z" fill="#2b454e"/>
            <path id="Trazado_711231" data-name="Trazado 711231" d="M78.663,195.307l4.148,11.268,17.1-5.933c-4.695-4.1-12.858-6.146-21.251-5.335" fill="#375a64"/>
            <path id="Trazado_711232" data-name="Trazado 711232" d="M60.795,207.353a1.1,1.1,0,0,0,0,.128v-.128Z" fill="#00bcd4"/>
            <path id="Trazado_711233" data-name="Trazado 711233" d="M81.106,211.868l-2.54,11.947c-10.366-1.011-17.858-6.256-17.771-12.25l0,.011v-4.1c0,5.948,7.471,11.136,17.776,12.142l1.745-8.211Z" fill="#00bcd4"/>
            <g id="Grupo_1003335" data-name="Grupo 1003335" opacity="0.4">
              <g id="Grupo_1003334" data-name="Grupo 1003334">
                <g id="Grupo_1003333" data-name="Grupo 1003333" clip-path="url(#clip-path-25)">
                  <path id="Trazado_711234" data-name="Trazado 711234" d="M81.106,211.868l-2.54,11.947c-10.366-1.011-17.858-6.256-17.771-12.25l0,.011v-4.1c0,5.948,7.471,11.136,17.776,12.142l1.745-8.211Z"/>
                </g>
              </g>
            </g>
            <path id="Trazado_711235" data-name="Trazado 711235" d="M80.512,219.76v4.2a33.129,33.129,0,0,0,12.622-1.727c4.889-1.7,8.34-4.389,9.72-7.583a7.558,7.558,0,0,0,.642-2.93c0-.4,0-4.335,0-4.335a4.464,4.464,0,0,1-2.572-1.573l-3.2,1.111-14.669,5.088Z" fill="#00bcd4"/>
            <g id="Grupo_1003338" data-name="Grupo 1003338" opacity="0.6">
              <g id="Grupo_1003337" data-name="Grupo 1003337">
                <g id="Grupo_1003336" data-name="Grupo 1003336" clip-path="url(#clip-path-26)">
                  <path id="Trazado_711236" data-name="Trazado 711236" d="M80.512,219.76v4.2a33.129,33.129,0,0,0,12.622-1.727c4.889-1.7,8.34-4.389,9.72-7.583a7.558,7.558,0,0,0,.642-2.93c0-.4,0-4.335,0-4.335a4.464,4.464,0,0,1-2.572-1.573l-3.2,1.111-14.669,5.088Z" fill="#fff"/>
                </g>
              </g>
            </g>
            <path id="Trazado_711237" data-name="Trazado 711237" d="M67.748,202.556l12.742,7.357v-4.2L67.748,198.36Z" fill="#00bcd4"/>
            <g id="Grupo_1003341" data-name="Grupo 1003341" opacity="0.1">
              <g id="Grupo_1003340" data-name="Grupo 1003340">
                <g id="Grupo_1003339" data-name="Grupo 1003339" clip-path="url(#clip-path-27)">
                  <path id="Trazado_711238" data-name="Trazado 711238" d="M67.748,202.556l12.742,7.357v-4.2L67.748,198.36Z"/>
                </g>
              </g>
            </g>
            <path id="Trazado_711239" data-name="Trazado 711239" d="M60.949,205.967c-1.4,6.558,6.446,12.563,17.616,13.654l2.541-11.947-14.744-8.512c-3.077,1.928-4.85,4.16-5.413,6.8" fill="#00bcd4"/>
            <g id="Grupo_1003344" data-name="Grupo 1003344" opacity="0.3">
              <g id="Grupo_1003343" data-name="Grupo 1003343">
                <g id="Grupo_1003342" data-name="Grupo 1003342" clip-path="url(#clip-path-28)">
                  <path id="Trazado_711240" data-name="Trazado 711240" d="M60.949,205.967c-1.4,6.558,6.446,12.563,17.616,13.654l2.541-11.947-14.744-8.512c-3.077,1.928-4.85,4.16-5.413,6.8"/>
                </g>
              </g>
            </g>
            <path id="Trazado_711241" data-name="Trazado 711241" d="M80.586,219.411l-.074.349a33.082,33.082,0,0,0,12.621-1.726c4.889-1.7,8.34-4.389,9.721-7.583,1.3-3.011.612-6.127-1.93-8.838l-3.2,1.111-14.669,5.088Z" fill="#00bcd4"/>
            <g id="Grupo_1003347" data-name="Grupo 1003347" opacity="0.75">
              <g id="Grupo_1003346" data-name="Grupo 1003346">
                <g id="Grupo_1003345" data-name="Grupo 1003345" clip-path="url(#clip-path-29)">
                  <path id="Trazado_711242" data-name="Trazado 711242" d="M80.586,219.411l-.074.349a33.082,33.082,0,0,0,12.621-1.726c4.889-1.7,8.34-4.389,9.721-7.583,1.3-3.011.612-6.127-1.93-8.838l-3.2,1.111-14.669,5.088Z" fill="#fff"/>
                </g>
              </g>
            </g>
            <path id="Trazado_711243" data-name="Trazado 711243" d="M67.748,198.36l12.742,7.357L76.744,195.54a26.123,26.123,0,0,0-9,2.82" fill="#00bcd4"/>
            <path id="Trazado_711244" data-name="Trazado 711244" d="M81.106,211.87v-4.2l-2.541,11.948v4.195Z" fill="#00bcd4"/>
            <g id="Grupo_1003350" data-name="Grupo 1003350" opacity="0.55">
              <g id="Grupo_1003349" data-name="Grupo 1003349">
                <g id="Grupo_1003348" data-name="Grupo 1003348" clip-path="url(#clip-path-30)">
                  <path id="Trazado_711245" data-name="Trazado 711245" d="M81.106,211.87v-4.2l-2.541,11.948v4.195Z"/>
                </g>
              </g>
            </g>
            <path id="Trazado_711246" data-name="Trazado 711246" d="M97.362,189.012l-2.776,1.6,2.776,1.6,2.776-1.6Z" fill="#00bcd4"/>
            <g id="Grupo_1003353" data-name="Grupo 1003353" opacity="0.3">
              <g id="Grupo_1003352" data-name="Grupo 1003352">
                <g id="Grupo_1003351" data-name="Grupo 1003351" clip-path="url(#clip-path-31)">
                  <path id="Trazado_711247" data-name="Trazado 711247" d="M97.362,189.012l-2.776,1.6,2.776,1.6,2.776-1.6Z"/>
                </g>
              </g>
            </g>
            <path id="Trazado_711248" data-name="Trazado 711248" d="M100.138,190.611v1.608l-2.776,1.6v-1.6Z" fill="#00bcd4"/>
            <g id="Grupo_1003356" data-name="Grupo 1003356" opacity="0.4">
              <g id="Grupo_1003355" data-name="Grupo 1003355">
                <g id="Grupo_1003354" data-name="Grupo 1003354" clip-path="url(#clip-path-32)">
                  <path id="Trazado_711249" data-name="Trazado 711249" d="M100.138,190.611v1.608l-2.776,1.6v-1.6Z"/>
                </g>
              </g>
            </g>
            <path id="Trazado_711250" data-name="Trazado 711250" d="M97.362,192.218v1.6l-2.776-1.6v-1.608Z" fill="#00bcd4"/>
            <g id="Grupo_1003359" data-name="Grupo 1003359" opacity="0.55">
              <g id="Grupo_1003358" data-name="Grupo 1003358">
                <g id="Grupo_1003357" data-name="Grupo 1003357" clip-path="url(#clip-path-33)">
                  <path id="Trazado_711251" data-name="Trazado 711251" d="M97.362,192.218v1.6l-2.776-1.6v-1.608Z"/>
                </g>
              </g>
            </g>
            <path id="Trazado_711252" data-name="Trazado 711252" d="M101.6,187.769l10.285-5.938a2.384,2.384,0,0,1,2.153-.04c.576.333.545.889-.069,1.244l-10.284,5.938a2.383,2.383,0,0,1-2.154.039c-.575-.332-.545-.889.069-1.243" fill="#e1e1e1"/>
            <path id="Trazado_711253" data-name="Trazado 711253" d="M103.615,192.623l-2.776,1.6,2.776,1.6,2.776-1.6Z" fill="#00bcd4"/>
            <g id="Grupo_1003362" data-name="Grupo 1003362" opacity="0.88">
              <g id="Grupo_1003361" data-name="Grupo 1003361">
                <g id="Grupo_1003360" data-name="Grupo 1003360" clip-path="url(#clip-path-34)">
                  <path id="Trazado_711254" data-name="Trazado 711254" d="M103.615,192.623l-2.776,1.6,2.776,1.6,2.776-1.6Z" fill="#fff"/>
                </g>
              </g>
            </g>
            <path id="Trazado_711255" data-name="Trazado 711255" d="M106.392,194.222v1.608l-2.776,1.6v-1.6Z" fill="#00bcd4"/>
            <g id="Grupo_1003365" data-name="Grupo 1003365" opacity="0.75">
              <g id="Grupo_1003364" data-name="Grupo 1003364">
                <g id="Grupo_1003363" data-name="Grupo 1003363" clip-path="url(#clip-path-35)">
                  <path id="Trazado_711256" data-name="Trazado 711256" d="M106.392,194.222v1.608l-2.776,1.6v-1.6Z" fill="#fff"/>
                </g>
              </g>
            </g>
            <path id="Trazado_711257" data-name="Trazado 711257" d="M103.615,195.828v1.6l-2.776-1.6v-1.608Z" fill="#00bcd4"/>
            <g id="Grupo_1003368" data-name="Grupo 1003368" opacity="0.6">
              <g id="Grupo_1003367" data-name="Grupo 1003367">
                <g id="Grupo_1003366" data-name="Grupo 1003366" clip-path="url(#clip-path-36)">
                  <path id="Trazado_711258" data-name="Trazado 711258" d="M103.615,195.828v1.6l-2.776-1.6v-1.608Z" fill="#fff"/>
                </g>
              </g>
            </g>
            <path id="Trazado_711259" data-name="Trazado 711259" d="M107.854,191.379l10.284-5.938a2.384,2.384,0,0,1,2.153-.04c.577.333.545.889-.069,1.243l-10.284,5.939a2.381,2.381,0,0,1-2.153.039c-.576-.332-.546-.889.069-1.243" fill="#e1e1e1"/>
            <path id="Trazado_711260" data-name="Trazado 711260" d="M109.869,196.233l-2.776,1.6,2.776,1.6,2.776-1.6Z" fill="#00bcd4"/>
            <g id="Grupo_1003371" data-name="Grupo 1003371" opacity="0.3">
              <g id="Grupo_1003370" data-name="Grupo 1003370">
                <g id="Grupo_1003369" data-name="Grupo 1003369" clip-path="url(#clip-path-37)">
                  <path id="Trazado_711261" data-name="Trazado 711261" d="M109.869,196.233l-2.776,1.6,2.776,1.6,2.776-1.6Z" fill="#fff"/>
                </g>
              </g>
            </g>
            <path id="Trazado_711262" data-name="Trazado 711262" d="M112.646,197.832v1.608l-2.776,1.6v-1.6Z" fill="#00bcd4"/>
            <path id="Trazado_711263" data-name="Trazado 711263" d="M109.869,199.439v1.605l-2.776-1.6v-1.608Z" fill="#00bcd4"/>
            <g id="Grupo_1003374" data-name="Grupo 1003374" opacity="0.1">
              <g id="Grupo_1003373" data-name="Grupo 1003373">
                <g id="Grupo_1003372" data-name="Grupo 1003372" clip-path="url(#clip-path-38)">
                  <path id="Trazado_711264" data-name="Trazado 711264" d="M109.869,199.439v1.605l-2.776-1.6v-1.608Z"/>
                </g>
              </g>
            </g>
            <path id="Trazado_711265" data-name="Trazado 711265" d="M114.107,194.99l10.285-5.938a2.384,2.384,0,0,1,2.153-.04c.576.333.545.889-.069,1.244l-10.284,5.938a2.383,2.383,0,0,1-2.154.039c-.575-.332-.545-.889.069-1.243" fill="#e1e1e1"/>
            <path id="Trazado_711266" data-name="Trazado 711266" d="M116.123,199.844l-2.776,1.6,2.776,1.6,2.776-1.6Z" fill="#375a64"/>
            <path id="Trazado_711267" data-name="Trazado 711267" d="M118.9,201.443v1.608l-2.776,1.6v-1.6Z" fill="#2b454e"/>
            <path id="Trazado_711268" data-name="Trazado 711268" d="M116.123,203.05v1.6l-2.776-1.6v-1.608Z" fill="#1a2e35"/>
            <path id="Trazado_711269" data-name="Trazado 711269" d="M120.361,198.6l10.285-5.938a2.384,2.384,0,0,1,2.153-.04c.576.333.545.889-.069,1.244L122.446,199.8a2.383,2.383,0,0,1-2.154.039c-.575-.332-.545-.889.069-1.243" fill="#e1e1e1"/>
            <path id="Trazado_711270" data-name="Trazado 711270" d="M203.166,112.9c3.817-.02,5.628,1.074,7,4.729s5.019,12.03,5.09,14.52c.073,2.583-8.242,10.411-7.944,10.276.092-.041-2.534-4.744-2.534-4.744l4.677-5.732-2.681-7.782Z" fill="#ffaaa9"/>
            <path id="Trazado_711271" data-name="Trazado 711271" d="M207.889,198.45c.234.223.278.44.27,1.253s.337,1.724-.081,2.483a2.584,2.584,0,0,1-2.717.538,8.416,8.416,0,0,1-1.87-1.681,13.363,13.363,0,0,0-1.637-1.582c-.687-.512-1.486-.853-2.2-1.322a4.394,4.394,0,0,1-2-3.3,2.165,2.165,0,0,1,.255-1.256,1.432,1.432,0,0,1,1.437-.47,19.776,19.776,0,0,1,4.015,2.015c.763.526,4.285,3.09,4.526,3.32" fill="#1a2e35"/>
            <path id="Trazado_711272" data-name="Trazado 711272" d="M204.023,195.078c-.025.585-2.489-.783-3.5-.65a.1.1,0,0,0-.028.014c-.937.451-.159,1.765.714,2.438s3.721,2.765,3.721,2.765l.582-3.377Z" fill="#ffaaa9"/>
            <path id="Trazado_711273" data-name="Trazado 711273" d="M193.344,204.59c.457,0,.66,1.494.744,2.649.065.892.4,2.347.088,3s-1.519,1.065-3.374,1.027a10.9,10.9,0,0,0-4.378,1.466,6.678,6.678,0,0,1-4.171.524c-1.649-.216-3.347-1.2-3.605-1.883s.089-1.011,4-2.619c.036-.015,4.128-1.8,6.038-3.853Z" fill="#1a2e35"/>
            <path id="Trazado_711274" data-name="Trazado 711274" d="M182.65,208.756c-.542.223-1.009.419-1.422.6-.106.37.036.956,1.765,1.244,2.635.44,10.379-5.389,10.379-5.389s-1.11.306-1.318-.329l-3.366.025c-1.91,2.054-6,3.838-6.038,3.853" fill="#ffaaa9"/>
            <path id="Trazado_711275" data-name="Trazado 711275" d="M209.456,179.3a33.562,33.562,0,0,0-.757-7.638s.46-9.832.512-16.013c.1-12.223-.129-14.017-2.832-19.292,0,0-15.786-1.847-16.451,5.846-.829,9.582-1.792,25.614-1.766,30.176.018,3.4.4,7.08.591,14.784.12,4.933.64,11.9-.066,17.743.893,1.495,3.308,1.469,4.684.3.4-5.716,3.233-16.662,3.673-20.481a32.3,32.3,0,0,0-.337-8.252s2.092-16.319,2.459-18.8a46.049,46.049,0,0,1,.916,7.971c-.011,1.083.374,4.719.995,10.832.377,3.723,3.012,18.27,3.582,22.945,1.322,1.277,3.029.4,3.106-.158.442-5.707,1.691-16.4,1.691-19.964" fill="#ffaaa9"/>
            <g id="Grupo_1003377" data-name="Grupo 1003377" opacity="0.15">
              <g id="Grupo_1003376" data-name="Grupo 1003376">
                <g id="Grupo_1003375" data-name="Grupo 1003375" clip-path="url(#clip-path-39)">
                  <path id="Trazado_711276" data-name="Trazado 711276" d="M199.166,157.672l1.4-7.925a10.833,10.833,0,0,0,6.214-3.262,6.649,6.649,0,0,1-4.938,4.247L200.2,157.9l-.276,6.537Z"/>
                </g>
              </g>
            </g>
            <path id="Trazado_711277" data-name="Trazado 711277" d="M195.206,110.237l.658,7.183,6.31-.382-.484-7.966Z" fill="#ffaaa9"/>
            <path id="Trazado_711278" data-name="Trazado 711278" d="M207.871,138.285a29.155,29.155,0,0,0-2.728-5.456c2.7-8.686,3.56-11.612,3.036-15.326-.333-2.363-2.19-4.725-4.491-4.6,0,0-1.243,0-1.766,0-.1,1.647-4.678,1.727-6.414.594l-1.6.042c-1.131.4-4.976,6.032-5.4,9.771-.344,3.038,2.035,5.67,2.035,5.67a28.888,28.888,0,0,1-.226,3.851s.012,7.351,0,11.005c0,0,.892,2.818,10.151,1.937,8.236-.784,8.437-3.6,8.437-3.6a17.407,17.407,0,0,0-1.038-3.887" fill="#00bcd4"/>
            <g id="Grupo_1003380" data-name="Grupo 1003380" opacity="0.3">
              <g id="Grupo_1003379" data-name="Grupo 1003379">
                <g id="Grupo_1003378" data-name="Grupo 1003378" clip-path="url(#clip-path-40)">
                  <path id="Trazado_711279" data-name="Trazado 711279" d="M207.871,138.285a29.155,29.155,0,0,0-2.728-5.456c2.7-8.686,3.56-11.612,3.036-15.326-.333-2.363-2.19-4.725-4.491-4.6,0,0-1.243,0-1.766,0-.1,1.647-4.678,1.727-6.414.594l-1.6.042c-1.131.4-4.976,6.032-5.4,9.771-.344,3.038,2.035,5.67,2.035,5.67a28.888,28.888,0,0,1-.226,3.851s.012,7.351,0,11.005c0,0,.892,2.818,10.151,1.937,8.236-.784,8.437-3.6,8.437-3.6a17.407,17.407,0,0,0-1.038-3.887"/>
                </g>
              </g>
            </g>
            <path id="Trazado_711280" data-name="Trazado 711280" d="M196.163,93.433a5.866,5.866,0,0,0-5.074,1.838c-3.229,3.637.312,6.312.312,6.312Z" fill="#1a2e35"/>
            <path id="Trazado_711281" data-name="Trazado 711281" d="M190.547,102.344s-1.4,2.108-1.221,2.332a3.337,3.337,0,0,0,1.069.464Z" fill="#ff9090"/>
            <path id="Trazado_711282" data-name="Trazado 711282" d="M194.833,95.664c-1.36.7-3.71,1.988-4.327,6.989-.633,5.134.505,6.921,1.2,7.6.472.456,2.91.627,4.183.236,1.593-.49,5.045-2.185,6.669-4.831,1.909-3.113,2.313-7.268.123-8.9a8.2,8.2,0,0,0-7.851-1.086" fill="#ffaaa9"/>
            <path id="Trazado_711283" data-name="Trazado 711283" d="M194.154,101.569c-2.844-1.448-2.119-5.225-2.119-5.225s4.065-5.806,11.561-2.051c2.594,1.3,4.15,4.251,4.087,7.707a8.137,8.137,0,0,1-8.137,8.137,4.744,4.744,0,0,1-4.744-4.744v-.314l.241.077a2.409,2.409,0,0,0,2.214-.591c1.247-1.075,1.4-3.184-.183-3.716s-2.4,1.3-2.4,1.3l0,0-.611,1.679a1.2,1.2,0,0,1-.714-1.532,1.172,1.172,0,0,1,.812-.722" fill="#1a2e35"/>
            <path id="Trazado_711284" data-name="Trazado 711284" d="M176.951,102.729l-13.535,6.779,6.364,18.343,12.639-6.807Z" fill="#00bcd4"/>
            <path id="Trazado_711285" data-name="Trazado 711285" d="M176.306,104.5l-11.355,5.688,5.64,15.771,10.6-5.71Z" fill="#f5f5f5"/>
            <g id="Grupo_1003383" data-name="Grupo 1003383" opacity="0.15">
              <g id="Grupo_1003382" data-name="Grupo 1003382">
                <g id="Grupo_1003381" data-name="Grupo 1003381" clip-path="url(#clip-path-41)">
                  <path id="Trazado_711286" data-name="Trazado 711286" d="M173.9,106.155s-.093-.251-.209-.561-1.055-.142-2.1.375l-2,.991c-1.044.517-1.8,1.188-1.682,1.5l.209.562Z"/>
                </g>
              </g>
            </g>
            <path id="Trazado_711287" data-name="Trazado 711287" d="M173.722,103.92c-.071-.194-.479-.169-.912.055l-.783.406s-.458-1.212-2.258-.408-1.414,2.206-1.414,2.206l-.832.441c-.459.243-.789.6-.737.8l.094.356,6.973-3.491s-.06-.167-.131-.361" fill="#2b454e"/>
            <path id="Trazado_711288" data-name="Trazado 711288" d="M172.962,104.717c-.648.305-.9.454-.727.932.2.545.393.938.393.938l-3.084,1.548s-.243-.693-.35-.961-.329-.4-.82-.153l-.178-.194,4.864-2.378Z" fill="#1a2e35"/>
            <path id="Trazado_711289" data-name="Trazado 711289" d="M174.033,106.186s-.093-.251-.209-.561-1.055-.142-2.1.375l-2,.991c-1.044.517-1.8,1.188-1.682,1.5l.209.561Z" fill="#2b454e"/>
            <path id="Trazado_711290" data-name="Trazado 711290" d="M193.911,113.537c-2.131-.034-3.42.155-6.329,4.47s-8.3,12.266-8.934,13.3a5.511,5.511,0,0,0-.361,4.97c.669,1.254,1.845,1.689,5.2-1.872,2.482-2.638,7.7-9.644,7.7-9.644s4.058-7.565,2.73-11.221" fill="#ffaaa9"/>
            <path id="Trazado_711291" data-name="Trazado 711291" d="M179.607,137.182c-1.757.542-8.2-7.129-9.993-9.436a26.573,26.573,0,0,0-5.033-5.107c-2.483-1.9-2.07-4.745-.929-7.342.4-.9,1.673-.289,1.673-.289l.433,1.249.75,2.161c.524.5.824.67.862.523.072-.276-.367-1.44-.336-2.644.038-1.448,1.037-.479,1.331.034a18.049,18.049,0,0,1,1.032,2.412c.484,1.305.253,2.614.855,3.509s9.355,8.165,9.355,8.165Z" fill="#ffaaa9"/>
            <path id="Trazado_711292" data-name="Trazado 711292" d="M205.143,132.829s-6.175,3.648-14.821,0a127.825,127.825,0,0,0-1.569,13.7c-.307,5.845-.986,18.4-.986,18.4s2.554,2.977,11.66,2.373c8.753-.58,10.3-2.861,10.3-2.861s.02-11.272.066-16.2c.059-6.3-.824-9.746-4.648-15.41" fill="#00bcd4"/>
            <g id="Grupo_1003386" data-name="Grupo 1003386" opacity="0.5">
              <g id="Grupo_1003385" data-name="Grupo 1003385">
                <g id="Grupo_1003384" data-name="Grupo 1003384" clip-path="url(#clip-path-42)">
                  <path id="Trazado_711293" data-name="Trazado 711293" d="M205.143,132.829s-6.175,3.648-14.821,0a127.825,127.825,0,0,0-1.569,13.7c-.307,5.845-.986,18.4-.986,18.4s2.554,2.977,11.66,2.373c8.753-.58,10.3-2.861,10.3-2.861s.02-11.272.066-16.2c.059-6.3-.824-9.746-4.648-15.41"/>
                </g>
              </g>
            </g>
            <path id="Trazado_711294" data-name="Trazado 711294" d="M208.012,99.578l1.444-1.323a1.262,1.262,0,0,0-2.138,1.222c-.179-.016-.36-.027-.543-.027v11.61a6.031,6.031,0,0,0,6.031,6.031V105.48a6.032,6.032,0,0,0-4.794-5.9" fill="#1a2e35"/>
          </g>
        </g>
      </g>
    </g>
  </g>
</svg>
