<svg xmlns="http://www.w3.org/2000/svg" xmlns:xlink="http://www.w3.org/1999/xlink" width="283" height="223.5" viewBox="0 0 283 223.5">
  <defs>
    <clipPath id="clip-path">
      <rect id="Rectángulo_350159" data-name="Rectángulo 350159" width="222.292" height="185.144" fill="none"/>
    </clipPath>
    <clipPath id="clip-path-3">
      <rect id="Rectángulo_350156" data-name="Rectángulo 350156" width="18.158" height="24.398" transform="translate(83.07 113.684)" fill="none"/>
    </clipPath>
    <clipPath id="clip-path-4">
      <rect id="Rectángulo_350157" data-name="Rectángulo 350157" width="18.159" height="24.398" transform="translate(63.954 113.684)" fill="none"/>
    </clipPath>
  </defs>
  <g id="Grupo_1008222" data-name="Grupo 1008222" transform="translate(-1207 10454)">
    <path id="Trazado_707669" data-name="Trazado 707669" d="M13,0H270c7.18,0,13,4.946,13,11.048v201.4c0,6.1-5.82,11.048-13,11.048H13c-7.18,0-13-4.946-13-11.048V11.048C0,4.946,5.82,0,13,0Z" transform="translate(1207 -10454)" fill="none"/>
    <g id="Grupo_1008186" data-name="Grupo 1008186" transform="translate(1237 -10435)">
      <g id="Grupo_1008185" data-name="Grupo 1008185" clip-path="url(#clip-path)">
        <path id="Trazado_719737" data-name="Trazado 719737" d="M202.63,79.237h-61.6V20.9h61.6V79.236Z" fill="#f5cb95"/>
        <path id="Trazado_719738" data-name="Trazado 719738" d="M202.63,79.236h-61.6V20.9Z" fill="#bd9c73"/>
        <rect id="Rectángulo_350082" data-name="Rectángulo 350082" width="9.404" height="17.719" transform="translate(167.107 20.824)" fill="#9c805f"/>
        <rect id="Rectángulo_350083" data-name="Rectángulo 350083" width="24.938" height="2.002" transform="translate(146.871 66.052)" fill="#9c8469"/>
        <rect id="Rectángulo_350084" data-name="Rectángulo 350084" width="24.938" height="2.002" transform="translate(146.871 69.738)" fill="#9c8469"/>
        <rect id="Rectángulo_350085" data-name="Rectángulo 350085" width="24.938" height="2.002" transform="translate(146.871 73.202)" fill="#9c8469"/>
        <rect id="Rectángulo_350086" data-name="Rectángulo 350086" width="20.697" height="9.165" transform="translate(144.034 28.986)" fill="#ebebeb"/>
        <rect id="Rectángulo_350087" data-name="Rectángulo 350087" width="0.508" height="4.271" transform="translate(151.614 30.559)" fill="#424242"/>
        <rect id="Rectángulo_350088" data-name="Rectángulo 350088" width="0.507" height="4.271" transform="translate(146.602 30.559)" fill="#424242"/>
        <rect id="Rectángulo_350089" data-name="Rectángulo 350089" width="0.507" height="4.271" transform="translate(158.436 30.559)" fill="#424242"/>
        <rect id="Rectángulo_350090" data-name="Rectángulo 350090" width="0.507" height="4.271" transform="translate(159.74 30.559)" fill="#424242"/>
        <rect id="Rectángulo_350091" data-name="Rectángulo 350091" width="0.818" height="4.271" transform="translate(144.904 30.559)" fill="#424242"/>
        <rect id="Rectángulo_350092" data-name="Rectángulo 350092" width="0.817" height="4.271" transform="translate(150.219 30.559)" fill="#424242"/>
        <rect id="Rectángulo_350093" data-name="Rectángulo 350093" width="0.197" height="4.271" transform="translate(153.419 30.559)" fill="#424242"/>
        <rect id="Rectángulo_350094" data-name="Rectángulo 350094" width="0.197" height="4.271" transform="translate(148.576 30.559)" fill="#424242"/>
        <rect id="Rectángulo_350095" data-name="Rectángulo 350095" width="0.197" height="4.271" transform="translate(154.257 30.559)" fill="#424242"/>
        <rect id="Rectángulo_350096" data-name="Rectángulo 350096" width="0.198" height="4.271" transform="translate(154.997 30.559)" fill="#424242"/>
        <rect id="Rectángulo_350097" data-name="Rectángulo 350097" width="0.198" height="4.271" transform="translate(147.843 30.559)" fill="#424242"/>
        <rect id="Rectángulo_350098" data-name="Rectángulo 350098" width="0.198" height="4.271" transform="translate(157.451 30.559)" fill="#424242"/>
        <rect id="Rectángulo_350099" data-name="Rectángulo 350099" width="0.197" height="4.271" transform="translate(160.959 30.559)" fill="#424242"/>
        <rect id="Rectángulo_350100" data-name="Rectángulo 350100" width="0.254" height="4.271" transform="translate(152.604 30.559)" fill="#424242"/>
        <rect id="Rectángulo_350101" data-name="Rectángulo 350101" width="0.254" height="4.271" transform="translate(149.35 30.559)" fill="#424242"/>
        <rect id="Rectángulo_350102" data-name="Rectángulo 350102" width="0.817" height="4.271" transform="translate(155.84 30.559)" fill="#424242"/>
        <rect id="Rectángulo_350103" data-name="Rectángulo 350103" width="0.817" height="4.271" transform="translate(162.126 30.559)" fill="#424242"/>
        <rect id="Rectángulo_350104" data-name="Rectángulo 350104" width="38.903" height="36.842" transform="translate(123.223 42.355)" fill="#f5cb95"/>
        <path id="Trazado_719739" data-name="Trazado 719739" d="M162.126,79.2h-38.9V42.354Z" fill="#d1ad7f"/>
        <rect id="Rectángulo_350105" data-name="Rectángulo 350105" width="5.94" height="11.19" transform="translate(139.69 42.306)" fill="#9c805f"/>
        <rect id="Rectángulo_350106" data-name="Rectángulo 350106" width="11.139" height="10.358" transform="translate(125.997 46.499)" fill="#ebebeb"/>
        <rect id="Rectángulo_350107" data-name="Rectángulo 350107" width="8.477" height="0.958" transform="translate(127.081 47.808)" fill="#9e9e9e"/>
        <rect id="Rectángulo_350108" data-name="Rectángulo 350108" width="8.477" height="0.958" transform="translate(127.081 50.354)" fill="#9e9e9e"/>
        <rect id="Rectángulo_350109" data-name="Rectángulo 350109" width="8.477" height="0.959" transform="translate(127.081 52.899)" fill="#9e9e9e"/>
        <rect id="Rectángulo_350110" data-name="Rectángulo 350110" width="4.817" height="0.958" transform="translate(127.081 54.293)" fill="#9e9e9e"/>
        <rect id="Rectángulo_350111" data-name="Rectángulo 350111" width="15.75" height="1.264" transform="translate(142.686 68.909)" fill="#9c8469"/>
        <rect id="Rectángulo_350112" data-name="Rectángulo 350112" width="15.75" height="1.265" transform="translate(142.686 73.197)" fill="#9c8469"/>
        <rect id="Rectángulo_350113" data-name="Rectángulo 350113" width="15.75" height="1.265" transform="translate(142.686 75.384)" fill="#9c8469"/>
        <rect id="Rectángulo_350114" data-name="Rectángulo 350114" width="7.875" height="1.264" transform="translate(142.687 71.096)" fill="#9c8469"/>
        <rect id="Rectángulo_350115" data-name="Rectángulo 350115" width="11.139" height="4.933" transform="translate(125.997 58.734)" fill="#ebebeb"/>
        <rect id="Rectángulo_350116" data-name="Rectángulo 350116" width="0.274" height="2.299" transform="translate(130.076 59.58)" fill="#424242"/>
        <rect id="Rectángulo_350117" data-name="Rectángulo 350117" width="0.273" height="2.299" transform="translate(127.379 59.58)" fill="#424242"/>
        <rect id="Rectángulo_350118" data-name="Rectángulo 350118" width="0.273" height="2.299" transform="translate(133.748 59.58)" fill="#424242"/>
        <rect id="Rectángulo_350119" data-name="Rectángulo 350119" width="0.274" height="2.299" transform="translate(134.449 59.58)" fill="#424242"/>
        <rect id="Rectángulo_350120" data-name="Rectángulo 350120" width="0.44" height="2.299" transform="translate(126.465 59.58)" fill="#424242"/>
        <rect id="Rectángulo_350121" data-name="Rectángulo 350121" width="0.44" height="2.299" transform="translate(129.326 59.58)" fill="#424242"/>
        <rect id="Rectángulo_350122" data-name="Rectángulo 350122" width="0.106" height="2.299" transform="translate(131.048 59.58)" fill="#424242"/>
        <rect id="Rectángulo_350123" data-name="Rectángulo 350123" width="0.106" height="2.299" transform="translate(128.441 59.58)" fill="#424242"/>
        <rect id="Rectángulo_350124" data-name="Rectángulo 350124" width="0.106" height="2.299" transform="translate(131.499 59.58)" fill="#424242"/>
        <rect id="Rectángulo_350125" data-name="Rectángulo 350125" width="0.105" height="2.299" transform="translate(131.898 59.58)" fill="#424242"/>
        <rect id="Rectángulo_350126" data-name="Rectángulo 350126" width="0.106" height="2.299" transform="translate(128.047 59.58)" fill="#424242"/>
        <rect id="Rectángulo_350127" data-name="Rectángulo 350127" width="0.106" height="2.299" transform="translate(133.218 59.58)" fill="#424242"/>
        <rect id="Rectángulo_350128" data-name="Rectángulo 350128" width="0.106" height="2.299" transform="translate(135.105 59.58)" fill="#424242"/>
        <rect id="Rectángulo_350129" data-name="Rectángulo 350129" width="0.136" height="2.299" transform="translate(130.61 59.58)" fill="#424242"/>
        <rect id="Rectángulo_350130" data-name="Rectángulo 350130" width="0.137" height="2.299" transform="translate(128.857 59.58)" fill="#424242"/>
        <rect id="Rectángulo_350131" data-name="Rectángulo 350131" width="0.44" height="2.299" transform="translate(132.351 59.58)" fill="#424242"/>
        <rect id="Rectángulo_350132" data-name="Rectángulo 350132" width="0.439" height="2.299" transform="translate(135.734 59.58)" fill="#424242"/>
        <rect id="Rectángulo_350133" data-name="Rectángulo 350133" width="7.071" height="18.759" transform="translate(107.494 28.727)" fill="#1c1a19"/>
        <g id="Grupo_1008184" data-name="Grupo 1008184">
          <g id="Grupo_1008183" data-name="Grupo 1008183" clip-path="url(#clip-path)">
            <path id="Trazado_719740" data-name="Trazado 719740" d="M214.87,126.345H94.264V100.1a9.517,9.517,0,0,1,9.517-9.518H206.9a7.971,7.971,0,0,1,7.971,7.971Z" fill="#d96a1a"/>
            <path id="Trazado_719741" data-name="Trazado 719741" d="M219.565,131.087H91.012a2.727,2.727,0,0,1-2.727-2.727v-7.628A2.727,2.727,0,0,1,91.012,118H219.565a2.727,2.727,0,0,1,2.727,2.727v7.628a2.727,2.727,0,0,1-2.727,2.727" fill="#3b312a"/>
            <rect id="Rectángulo_350134" data-name="Rectángulo 350134" width="53.073" height="11.707" transform="translate(127.024 100.619)" fill="#824010"/>
            <rect id="Rectángulo_350135" data-name="Rectángulo 350135" width="25.92" height="10.338" transform="translate(153.25 101.144)" fill="#168eba"/>
            <rect id="Rectángulo_350136" data-name="Rectángulo 350136" width="12.96" height="10.338" transform="translate(166.21 101.144)" fill="#3aadd6"/>
            <rect id="Rectángulo_350137" data-name="Rectángulo 350137" width="12.257" height="10.338" transform="translate(140.993 101.144)" fill="#3aadd6"/>
            <rect id="Rectángulo_350138" data-name="Rectángulo 350138" width="13.293" height="10.338" transform="translate(127.7 101.144)" fill="#3090b3"/>
            <path id="Trazado_719742" data-name="Trazado 719742" d="M204.424,110.436a3.745,3.745,0,1,1-3.745-3.745,3.745,3.745,0,0,1,3.745,3.745" fill="#824010"/>
            <path id="Trazado_719743" data-name="Trazado 719743" d="M203.668,110.436a2.99,2.99,0,1,1-2.989-2.989,2.989,2.989,0,0,1,2.989,2.989" fill="#d93434"/>
            <path id="Trazado_719744" data-name="Trazado 719744" d="M202.173,108.718a.749.749,0,1,1-.747-.8.774.774,0,0,1,.747.8" fill="#fff"/>
            <rect id="Rectángulo_350139" data-name="Rectángulo 350139" width="10.308" height="39.745" transform="translate(106.015 50.918)" fill="#d96a1a"/>
            <path id="Trazado_719745" data-name="Trazado 719745" d="M106.015,50.918V90.663h10.308Z" fill="#c46018"/>
            <rect id="Rectángulo_350140" data-name="Rectángulo 350140" width="10.308" height="2.802" transform="translate(106.015 87.861)" fill="#9c4c13"/>
            <rect id="Rectángulo_350141" data-name="Rectángulo 350141" width="13.091" height="3.431" transform="translate(104.572 47.487)" fill="#403c39"/>
            <path id="Trazado_719746" data-name="Trazado 719746" d="M114.565,34.076h-6.9a3.1,3.1,0,0,0-3.1,3.1v6.391a3.1,3.1,0,0,0,3.1,3.1h6.9a3.1,3.1,0,0,0,3.1-3.1V37.174a3.1,3.1,0,0,0-3.1-3.1" fill="#403c39"/>
            <path id="Trazado_719747" data-name="Trazado 719747" d="M113.847,35.387h-5.459a2.452,2.452,0,0,0-2.452,2.453V42.9a2.452,2.452,0,0,0,2.452,2.453h5.459A2.452,2.452,0,0,0,116.3,42.9V37.84a2.452,2.452,0,0,0-2.452-2.453" fill="#0a0a09"/>
            <path id="Trazado_719748" data-name="Trazado 719748" d="M116.009,40.369a4.983,4.983,0,1,1-4.982-4.982,4.982,4.982,0,0,1,4.982,4.982" fill="#525252"/>
            <path id="Trazado_719749" data-name="Trazado 719749" d="M114.559,40.369a3.532,3.532,0,1,1-3.532-3.532,3.532,3.532,0,0,1,3.532,3.532" fill="#386d82"/>
            <path id="Trazado_719750" data-name="Trazado 719750" d="M113.977,40.31a2.951,2.951,0,1,1-2.951-2.951,2.951,2.951,0,0,1,2.951,2.951" fill="#5db6d9"/>
            <path id="Trazado_719751" data-name="Trazado 719751" d="M112.922,38.287a.8.8,0,1,1-.8-.8.8.8,0,0,1,.8.8" fill="#fff"/>
            <path id="Trazado_719752" data-name="Trazado 719752" d="M104.933,47.8H117.3v2.86l-.335-2.525Z" fill="#fff"/>
            <rect id="Rectángulo_350142" data-name="Rectángulo 350142" width="0.829" height="35.948" transform="translate(114.324 51.536)" fill="#fff"/>
            <path id="Trazado_719753" data-name="Trazado 719753" d="M103.816,91.572H206.9c6.391,0,6.735,7.422,6.735,7.422v18L212.6,99.131s-.309-6.6-6.288-6.6c-.687,0-102.5-.962-102.5-.962" fill="#fff"/>
            <path id="Trazado_719754" data-name="Trazado 719754" d="M95.089,99.262v17.187h2.68Z" fill="#824010"/>
            <path id="Trazado_719755" data-name="Trazado 719755" d="M120.817,22.916a9.791,9.791,0,1,1-9.79-9.79,9.79,9.79,0,0,1,9.79,9.79" fill="#3d3935"/>
            <path id="Trazado_719756" data-name="Trazado 719756" d="M119.686,23.039a8.659,8.659,0,1,1-8.66-8.659,8.66,8.66,0,0,1,8.66,8.659" fill="#807e26"/>
            <path id="Trazado_719757" data-name="Trazado 719757" d="M118.26,22.9a7.234,7.234,0,1,1-7.234-7.234A7.234,7.234,0,0,1,118.26,22.9" fill="#d9d641"/>
            <path id="Trazado_719758" data-name="Trazado 719758" d="M115.673,17.935a1.959,1.959,0,1,1-1.958-1.958,1.958,1.958,0,0,1,1.958,1.958" fill="#fff"/>
            <rect id="Rectángulo_350143" data-name="Rectángulo 350143" width="85.97" height="3.093" transform="translate(120.138 87.484)" fill="#854110"/>
            <rect id="Rectángulo_350144" data-name="Rectángulo 350144" width="71.658" height="5.774" transform="translate(127.294 81.711)" fill="#292929"/>
            <rect id="Rectángulo_350145" data-name="Rectángulo 350145" width="71.658" height="2.716" transform="translate(127.294 81.711)" fill="#1a1a1a"/>
            <rect id="Rectángulo_350146" data-name="Rectángulo 350146" width="85.97" height="2.474" transform="translate(120.138 79.237)" fill="#557b85"/>
            <path id="Trazado_719759" data-name="Trazado 719759" d="M209.393,131.087a10.441,10.441,0,0,1-20.882,0Z" fill="#1a1a1a"/>
            <path id="Trazado_719760" data-name="Trazado 719760" d="M209.393,131.087a10.442,10.442,0,0,1-10.441,10.441V131.087Z" fill="#333"/>
            <path id="Trazado_719761" data-name="Trazado 719761" d="M120.137,131.087a10.441,10.441,0,0,1-20.882,0Z" fill="#1a1a1a"/>
            <path id="Trazado_719762" data-name="Trazado 719762" d="M120.137,131.087A10.442,10.442,0,0,1,109.7,141.528V131.087Z" fill="#333"/>
            <rect id="Rectángulo_350147" data-name="Rectángulo 350147" width="26.721" height="38.343" transform="translate(69.08 100.564)" fill="#bd8779"/>
            <path id="Trazado_719763" data-name="Trazado 719763" d="M47.158,61.761c-3.073,12.45,1.2,37.687,17.936,45.6H99.378c18.68-9.684,21.231-37.574,18.343-45.383-9.23-6.263-32.3-14.109-32.3-14.109S54.1,55.736,47.158,61.761" fill="#5e3624"/>
            <path id="Trazado_719764" data-name="Trazado 719764" d="M154.341,137.667c0-9.85-54.455-18.621-54.455-18.621v3.1a2.545,2.545,0,0,0-.588-.176l-1.173-.181c-.857-.134-1.755-.719-2.324-.065l-11.247,13.8a2.522,2.522,0,0,1-3.779.03l-11.695-13.7c-.581-.644-1.348-.147-2.2,0l-.03,0a2.515,2.515,0,0,0-1.4.784v-3.6s-54.454,8.771-54.454,18.621C-1.839,157.608.106,185.144.106,185.144H165.227s1.944-27.536-10.886-47.477" fill="#eba83d"/>
            <path id="Trazado_719765" data-name="Trazado 719765" d="M53.536,173.728H36.294V124.193l17.242-3.16Z" fill="#244c5e"/>
            <path id="Trazado_719766" data-name="Trazado 719766" d="M112.414,173.728h17.242V124.193l-17.242-3.16Z" fill="#244c5e"/>
            <rect id="Rectángulo_350148" data-name="Rectángulo 350148" width="117.495" height="12.161" transform="translate(23.976 172.983)" fill="#244c5e"/>
            <rect id="Rectángulo_350149" data-name="Rectángulo 350149" width="29.254" height="5.254" transform="translate(106.675 147.92)" fill="#874931"/>
            <rect id="Rectángulo_350150" data-name="Rectángulo 350150" width="27.332" height="25.89" transform="translate(107.636 153.174)" fill="#fff"/>
            <rect id="Rectángulo_350151" data-name="Rectángulo 350151" width="6.856" height="8.177" transform="translate(110.688 156.046)" fill="#f94646"/>
            <rect id="Rectángulo_350152" data-name="Rectángulo 350152" width="21.28" height="3.2" transform="translate(110.687 166.736)" fill="#46788a"/>
            <rect id="Rectángulo_350153" data-name="Rectángulo 350153" width="21.28" height="3.2" transform="translate(110.687 172.069)" fill="#46788a"/>
            <rect id="Rectángulo_350154" data-name="Rectángulo 350154" width="6.433" height="3.318" transform="translate(118.111 144.602)" fill="#aba4a1"/>
            <rect id="Rectángulo_350155" data-name="Rectángulo 350155" width="12.27" height="35.306" transform="translate(76.217 125.883)" fill="#c78e34"/>
            <path id="Trazado_719767" data-name="Trazado 719767" d="M48.817,74.033c-5.166,1.067-10.334-2.765-11.541-8.569S39.288,54.1,44.464,53.023,54,72.95,48.817,74.033" fill="#ffb7a4"/>
            <path id="Trazado_719768" data-name="Trazado 719768" d="M115.4,74.033c5.172,1.067,10.341-2.765,11.541-8.569s-2.013-11.363-7.188-12.441-9.528,19.927-4.353,21.01" fill="#ffb7a4"/>
            <path id="Trazado_719769" data-name="Trazado 719769" d="M82.367,112.428c42.874,0,36.014-73.553,36.014-73.553s-1.762-24.108-35.088-24.108c-29.05,0-36.208,24.7-36.208,24.7S39.2,112.428,82.367,112.428" fill="#ffb7a4"/>
            <path id="Trazado_719770" data-name="Trazado 719770" d="M42.444,53.72c3.505-.782,7.262,5.9,7.262,5.9l1.44-25.507s-1.909,7.559,17.8,8.429c-3.049-3.253-3.231-7.617-.195-9.916C71.623,31.429,77.179,40.7,89.36,42a9.217,9.217,0,0,1,7.72-8.68c1.305,3.914,1.872,6.106,9.44,8.585-1.695-8.089,2.813-8.138,3.753-8.091,1.7.085,2.8.217,2.8.217S116.12,61.93,116,60.861c1.832-7.181,6.934-6.449,6.934-6.449S141.38,0,79.567,0C58.483,0,57.607,7.5,51.144,16.915c-20.022,4.72-8.749,35.951-8.7,36.805" fill="#5e3624"/>
            <g id="Grupo_1008179" data-name="Grupo 1008179" opacity="0.5">
              <g id="Grupo_1008178" data-name="Grupo 1008178">
                <g id="Grupo_1008177" data-name="Grupo 1008177" clip-path="url(#clip-path-3)">
                  <path id="Trazado_719771" data-name="Trazado 719771" d="M83.363,127l11.292,10.923a.757.757,0,0,0,1.19-.389l5.383-19.973-4.04-3.544a.754.754,0,0,0-1.179-.093L83.274,125.883A.761.761,0,0,0,83.363,127"/>
                </g>
              </g>
            </g>
            <path id="Trazado_719772" data-name="Trazado 719772" d="M83.363,126.515l11.591,8.935a.755.755,0,0,0,1.189-.389l5.085-17.5a.773.773,0,0,0-.1-.636l-3.641-5.381a.753.753,0,0,0-1.179-.093L83.274,125.4a.761.761,0,0,0,.089,1.118" fill="#eba83d"/>
            <g id="Grupo_1008182" data-name="Grupo 1008182" opacity="0.5">
              <g id="Grupo_1008181" data-name="Grupo 1008181">
                <g id="Grupo_1008180" data-name="Grupo 1008180" clip-path="url(#clip-path-4)">
                  <path id="Trazado_719773" data-name="Trazado 719773" d="M81.821,127,70.529,137.924a.757.757,0,0,1-1.19-.389s-5.507-19.787-5.382-19.973L68,114.018a.754.754,0,0,1,1.179-.093L81.91,125.883A.761.761,0,0,1,81.821,127"/>
                </g>
              </g>
            </g>
            <path id="Trazado_719774" data-name="Trazado 719774" d="M81.817,126.515,70.23,135.45a.76.76,0,0,1-1.193-.389l-5.08-17.5a.755.755,0,0,1,.1-.636l3.638-5.381a.76.76,0,0,1,1.186-.093L81.91,125.4a.758.758,0,0,1-.093,1.118" fill="#eba83d"/>
            <path id="Trazado_719775" data-name="Trazado 719775" d="M81.994,89.573H69.069v.048c0,2.64,4.28,4.78,9.56,4.78h6.73c5.28,0,9.56-2.14,9.56-4.78v-.048Z" fill="#b58274"/>
            <path id="Trazado_719776" data-name="Trazado 719776" d="M84.71,137.683a2.125,2.125,0,1,1-2.126-2.126,2.126,2.126,0,0,1,2.126,2.126" fill="#c7b69b"/>
            <path id="Trazado_719777" data-name="Trazado 719777" d="M84.71,152.172a2.125,2.125,0,1,1-2.126-2.126,2.126,2.126,0,0,1,2.126,2.126" fill="#c7b69b"/>
          </g>
        </g>
      </g>
    </g>
  </g>
</svg>
