<svg id="Grupo_1008288" data-name="Grupo 1008288" xmlns="http://www.w3.org/2000/svg" xmlns:xlink="http://www.w3.org/1999/xlink" width="864.131" height="443.007" viewBox="0 0 864.131 443.007">
  <defs>
    <clipPath id="clip-path">
      <rect id="Rectángulo_350920" data-name="Rectángulo 350920" width="864.131" height="443.007" fill="none"/>
    </clipPath>
  </defs>
  <path id="Trazado_720255" data-name="Trazado 720255" d="M451.008,83.7l1.5-4.434,1.5-4.433h-2.5V54.355h-1V74.838h-2.5l1.5,4.433Z" fill="#7c7c7c"/>
  <path id="Trazado_720256" data-name="Trazado 720256" d="M451.008,146.736l1.5-4.434,1.5-4.433h-2.5V118.306h-1v19.563h-2.5l1.5,4.433Z" fill="#7c7c7c"/>
  <path id="Trazado_720257" data-name="Trazado 720257" d="M220.026,404.021l-4.434,1.5-4.433,1.5,4.433,1.5,4.434,1.5v-2.5h32.331v-1H220.026Z" fill="#7c7c7c"/>
  <path id="Trazado_720258" data-name="Trazado 720258" d="M307.318,404.021l-4.434,1.5-4.433,1.5,4.433,1.5,4.434,1.5v-2.5h34.331v-1H307.318Z" fill="#7c7c7c"/>
  <path id="Trazado_720259" data-name="Trazado 720259" d="M593.951,404.021v2.5H559.619v1h34.332v2.5l4.434-1.5,4.433-1.5-4.433-1.5Z" fill="#7c7c7c"/>
  <path id="Trazado_720260" data-name="Trazado 720260" d="M759.8,217.459l-1.5-4.434-1.5,4.434-1.5,4.434h2.5v56.688H451.508V270.7h-1v7.883H105.33V378.954h1V279.581H450.508v10.078h-2.5l1.5,4.434,1.5,4.433,1.5-4.433,1.5-4.434h-2.5V279.581H757.8v126.94H649.341v1H758.8V221.893h2.5Z" fill="#7c7c7c"/>
  <path id="Trazado_720261" data-name="Trazado 720261" d="M451.008,239.017l1.5-4.434,1.5-4.433h-2.5V212.665h-1V230.15h-2.5l1.5,4.433Z" fill="#7c7c7c"/>
  <path id="Trazado_720262" data-name="Trazado 720262" d="M575.044,185.166l4.434-1.5,4.433-1.5-4.433-1.5-4.434-1.5v2.5H557.559v1h17.485Z" fill="#7c7c7c"/>
  <path id="Trazado_720263" data-name="Trazado 720263" d="M644.212,185.166l4.434-1.5,4.433-1.5-4.433-1.5-4.434-1.5v2.5H626.727v1h17.485Z" fill="#7c7c7c"/>
  <g id="Grupo_1008287" data-name="Grupo 1008287">
    <g id="Grupo_1008286" data-name="Grupo 1008286" clip-path="url(#clip-path)">
      <path id="Trazado_720264" data-name="Trazado 720264" d="M548.337,56.634H353.678a8,8,0,0,1-8-8V8.5a8,8,0,0,1,8-8H548.337a8,8,0,0,1,8,8V48.634a8,8,0,0,1-8,8" fill="#00dced"/>
      <rect id="Rectángulo_350905" data-name="Rectángulo 350905" width="210.659" height="56.134" rx="8" transform="translate(345.678 0.5)" fill="none" stroke="#009fa3" stroke-miterlimit="10" stroke-width="1"/>
      <path id="Trazado_720265" data-name="Trazado 720265" d="M855.631,210.025H660.972a8,8,0,0,1-8-8V161.891a8,8,0,0,1,8-8H855.631a8,8,0,0,1,8,8v40.134a8,8,0,0,1-8,8" fill="#81d4fa"/>
      <rect id="Rectángulo_350906" data-name="Rectángulo 350906" width="210.659" height="56.134" rx="8" transform="translate(652.972 153.891)" fill="none" stroke="#4393af" stroke-miterlimit="10" stroke-width="1"/>
      <path id="Trazado_720266" data-name="Trazado 720266" d="M203.159,435.087H8.5a8,8,0,0,1-8-8V386.953a8,8,0,0,1,8-8H203.159a8,8,0,0,1,8,8v40.134a8,8,0,0,1-8,8" fill="#81d4fa"/>
      <path id="Trazado_720267" data-name="Trazado 720267" d="M203.159,435.087H8.5a8,8,0,0,1-8-8V386.953a8,8,0,0,1,8-8H203.159a8,8,0,0,1,8,8v40.134A8,8,0,0,1,203.159,435.087Z" fill="none" stroke="#4393af" stroke-miterlimit="10" stroke-width="1"/>
      <path id="Trazado_720268" data-name="Trazado 720268" d="M548.337,355.4H353.678a8,8,0,0,1-8-8V307.264a8,8,0,0,1,8-8H548.337a8,8,0,0,1,8,8V347.4a8,8,0,0,1-8,8" fill="#81d4fa"/>
      <rect id="Rectángulo_350907" data-name="Rectángulo 350907" width="210.659" height="56.134" rx="8" transform="translate(345.678 299.264)" fill="none" stroke="#4393af" stroke-miterlimit="10" stroke-width="1"/>
      <path id="Trazado_720269" data-name="Trazado 720269" d="M548.337,123.839H353.678a8,8,0,0,1-8-8V91.705a8,8,0,0,1,8-8H548.337a8,8,0,0,1,8,8v24.134a8,8,0,0,1-8,8" fill="#81d4fa"/>
      <rect id="Rectángulo_350908" data-name="Rectángulo 350908" width="210.659" height="40.134" rx="8" transform="translate(345.678 83.705)" fill="none" stroke="#4393af" stroke-miterlimit="10" stroke-width="1"/>
      <path id="Trazado_720270" data-name="Trazado 720270" d="M451.007,146.7l-111.59,35.462,111.59,35.462L562.6,182.166Z" fill="#81d4fa"/>
      <path id="Trazado_720271" data-name="Trazado 720271" d="M451.007,146.7l-111.59,35.462,111.59,35.462L562.6,182.166Z" fill="none" stroke="#4393af" stroke-miterlimit="10" stroke-width="1"/>
      <path id="Trazado_720272" data-name="Trazado 720272" d="M451.007,371.559l-111.59,35.462,111.59,35.462L562.6,407.021Z" fill="#81d4fa"/>
      <path id="Trazado_720273" data-name="Trazado 720273" d="M451.007,371.559l-111.59,35.462,111.59,35.462L562.6,407.021Z" fill="none" stroke="#4393af" stroke-miterlimit="10" stroke-width="1"/>
      <path id="Trazado_720274" data-name="Trazado 720274" d="M622.562,198.265h-31.3a7.6,7.6,0,0,1-7.6-7.6V173.669a7.6,7.6,0,0,1,7.6-7.6h31.3a7.6,7.6,0,0,1,7.6,7.6v16.994a7.6,7.6,0,0,1-7.6,7.6" fill="#7e5ee3"/>
      <path id="Rectángulo_350909" data-name="Rectángulo 350909" d="M7.6,0h31.3a7.6,7.6,0,0,1,7.6,7.6V24.6a7.6,7.6,0,0,1-7.6,7.6H7.6A7.6,7.6,0,0,1,0,24.6V7.6A7.6,7.6,0,0,1,7.6,0Z" transform="translate(583.655 166.066)" fill="none" stroke="#3d2c82" stroke-miterlimit="10" stroke-width="1"/>
      <path id="Trazado_720275" data-name="Trazado 720275" d="M466.659,271.478h-31.3a7.6,7.6,0,0,1-7.6-7.6V246.882a7.6,7.6,0,0,1,7.6-7.6h31.3a7.6,7.6,0,0,1,7.6,7.6v16.994a7.6,7.6,0,0,1-7.6,7.6" fill="#7e5ee3"/>
      <path id="Rectángulo_350910" data-name="Rectángulo 350910" d="M7.6,0h31.3a7.6,7.6,0,0,1,7.6,7.6V24.6a7.6,7.6,0,0,1-7.6,7.6H7.6A7.6,7.6,0,0,1,0,24.6V7.6A7.6,7.6,0,0,1,7.6,0Z" transform="translate(427.752 239.279)" fill="none" stroke="#3d2c82" stroke-miterlimit="10" stroke-width="1"/>
      <path id="Trazado_720276" data-name="Trazado 720276" d="M642.028,423.12h-31.3a7.6,7.6,0,0,1-7.6-7.6V398.524a7.6,7.6,0,0,1,7.6-7.6h31.3a7.6,7.6,0,0,1,7.6,7.6v16.994a7.6,7.6,0,0,1-7.6,7.6" fill="#7e5ee3"/>
      <path id="Rectángulo_350911" data-name="Rectángulo 350911" d="M7.6,0h31.3a7.6,7.6,0,0,1,7.6,7.6V24.6a7.6,7.6,0,0,1-7.6,7.6H7.6A7.6,7.6,0,0,1,0,24.6V7.6A7.6,7.6,0,0,1,7.6,0Z" transform="translate(603.121 390.921)" fill="none" stroke="#3d2c82" stroke-miterlimit="10" stroke-width="1"/>
      <path id="Trazado_720277" data-name="Trazado 720277" d="M291.208,423.12H259.9a7.6,7.6,0,0,1-7.6-7.6V398.524a7.6,7.6,0,0,1,7.6-7.6h31.3a7.6,7.6,0,0,1,7.6,7.6v16.994a7.6,7.6,0,0,1-7.6,7.6" fill="#7e5ee3"/>
      <path id="Rectángulo_350912" data-name="Rectángulo 350912" d="M7.6,0h31.3a7.6,7.6,0,0,1,7.6,7.6V24.6a7.6,7.6,0,0,1-7.6,7.6H7.6A7.6,7.6,0,0,1,0,24.6V7.6A7.6,7.6,0,0,1,7.6,0Z" transform="translate(252.301 390.921)" fill="none" stroke="#3d2c82" stroke-miterlimit="10" stroke-width="1"/>
      <path id="Trazado_720278" data-name="Trazado 720278" d="M274.763,412.471h-2.051l-3.992-6.549v6.549h-2.051v-9.953h2.051l4,6.562v-6.562h2.044Z" fill="#fff"/>
      <path id="Trazado_720279" data-name="Trazado 720279" d="M284.73,407.719a6.011,6.011,0,0,1-.519,2.577,3.912,3.912,0,0,1-1.487,1.709,4.391,4.391,0,0,1-4.426.007,3.943,3.943,0,0,1-1.5-1.7,5.823,5.823,0,0,1-.54-2.54v-.492a5.974,5.974,0,0,1,.529-2.587,3.938,3.938,0,0,1,1.5-1.717,4.386,4.386,0,0,1,4.422,0,3.95,3.95,0,0,1,1.5,1.717,5.968,5.968,0,0,1,.529,2.58Zm-2.078-.451a4.185,4.185,0,0,0-.561-2.379,1.981,1.981,0,0,0-3.192-.011,4.148,4.148,0,0,0-.567,2.356v.485a4.235,4.235,0,0,0,.56,2.365,1.821,1.821,0,0,0,1.614.841,1.8,1.8,0,0,0,1.585-.81,4.21,4.21,0,0,0,.561-2.362Z" fill="#fff"/>
      <path id="Trazado_720280" data-name="Trazado 720280" d="M625.679,409.859a1.053,1.053,0,0,0-.411-.893,5.405,5.405,0,0,0-1.476-.656,10.266,10.266,0,0,1-1.688-.68,2.76,2.76,0,0,1-1.7-2.467,2.4,2.4,0,0,1,.457-1.439,2.962,2.962,0,0,1,1.3-.988,4.927,4.927,0,0,1,1.911-.356,4.465,4.465,0,0,1,1.9.387,3.042,3.042,0,0,1,1.3,1.09,2.876,2.876,0,0,1,.461,1.6h-2.052a1.34,1.34,0,0,0-.43-1.063,1.767,1.767,0,0,0-1.211-.38,1.9,1.9,0,0,0-1.169.318,1,1,0,0,0-.417.838.962.962,0,0,0,.49.813,5.486,5.486,0,0,0,1.438.615,6.209,6.209,0,0,1,2.551,1.306,2.6,2.6,0,0,1,.8,1.941,2.4,2.4,0,0,1-.979,2.028,4.283,4.283,0,0,1-2.631.734,5.114,5.114,0,0,1-2.093-.42,3.326,3.326,0,0,1-1.438-1.152,2.954,2.954,0,0,1-.495-1.7h2.056q0,1.648,1.97,1.648a1.906,1.906,0,0,0,1.141-.3.965.965,0,0,0,.411-.83" fill="#fff"/>
      <rect id="Rectángulo_350913" data-name="Rectángulo 350913" width="2.051" height="9.953" transform="translate(629.253 402.518)" fill="#fff"/>
      <path id="Trazado_720281" data-name="Trazado 720281" d="M450.26,260.358h-2.051l-3.992-6.549v6.549h-2.051v-9.953h2.051l4,6.562v-6.562h2.044Z" fill="#fff"/>
      <path id="Trazado_720282" data-name="Trazado 720282" d="M460.227,255.607a6.012,6.012,0,0,1-.519,2.577,3.912,3.912,0,0,1-1.487,1.709,4.391,4.391,0,0,1-4.426.007,3.944,3.944,0,0,1-1.5-1.7,5.823,5.823,0,0,1-.54-2.54v-.492a5.974,5.974,0,0,1,.529-2.587,3.938,3.938,0,0,1,1.5-1.717,4.386,4.386,0,0,1,4.422,0,3.95,3.95,0,0,1,1.5,1.717,5.969,5.969,0,0,1,.529,2.58Zm-2.078-.451a4.185,4.185,0,0,0-.561-2.379,1.981,1.981,0,0,0-3.192-.011,4.148,4.148,0,0,0-.567,2.356v.485a4.235,4.235,0,0,0,.56,2.365,1.821,1.821,0,0,0,1.614.841,1.8,1.8,0,0,0,1.585-.81,4.21,4.21,0,0,0,.561-2.362Z" fill="#fff"/>
      <path id="Trazado_720283" data-name="Trazado 720283" d="M606.579,184.9a1.055,1.055,0,0,0-.41-.893,5.43,5.43,0,0,0-1.477-.656,10.3,10.3,0,0,1-1.688-.68,2.759,2.759,0,0,1-1.7-2.467,2.4,2.4,0,0,1,.456-1.439,2.959,2.959,0,0,1,1.3-.988,4.923,4.923,0,0,1,1.911-.356,4.468,4.468,0,0,1,1.9.387,3.034,3.034,0,0,1,1.3,1.09,2.869,2.869,0,0,1,.461,1.6h-2.051a1.341,1.341,0,0,0-.431-1.063,1.764,1.764,0,0,0-1.21-.38,1.9,1.9,0,0,0-1.169.318,1,1,0,0,0-.417.838.96.96,0,0,0,.489.813,5.5,5.5,0,0,0,1.439.615,6.21,6.21,0,0,1,2.55,1.306,2.6,2.6,0,0,1,.8,1.941,2.4,2.4,0,0,1-.978,2.028,4.284,4.284,0,0,1-2.632.734,5.106,5.106,0,0,1-2.092-.42,3.329,3.329,0,0,1-1.439-1.152,2.955,2.955,0,0,1-.495-1.7h2.057q0,1.648,1.969,1.648a1.912,1.912,0,0,0,1.142-.3.966.966,0,0,0,.41-.83" fill="#fff"/>
      <rect id="Rectángulo_350914" data-name="Rectángulo 350914" width="2.051" height="9.953" transform="translate(610.154 177.553)" fill="#fff"/>
      <path id="Trazado_720284" data-name="Trazado 720284" d="M399.629,19.829l2.739-9.09h2.773l-4.209,12.086h-2.6l-4.191-12.086h2.763Z"/>
      <path id="Trazado_720285" data-name="Trazado 720285" d="M409.887,22.991a4.406,4.406,0,0,1-3.215-1.212,4.305,4.305,0,0,1-1.242-3.229v-.233a5.407,5.407,0,0,1,.524-2.419,3.823,3.823,0,0,1,1.481-1.643,4.155,4.155,0,0,1,2.187-.578,3.727,3.727,0,0,1,2.9,1.163,4.718,4.718,0,0,1,1.059,3.3v.979h-5.72a2.233,2.233,0,0,0,.7,1.412,2.121,2.121,0,0,0,1.482.531,2.589,2.589,0,0,0,2.166-1l1.179,1.32a3.6,3.6,0,0,1-1.461,1.191,4.8,4.8,0,0,1-2.043.428m-.273-7.379a1.5,1.5,0,0,0-1.158.483,2.507,2.507,0,0,0-.569,1.384h3.337v-.191a1.786,1.786,0,0,0-.431-1.239,1.551,1.551,0,0,0-1.179-.437"/>
      <path id="Trazado_720286" data-name="Trazado 720286" d="M419.991,16.093a6.571,6.571,0,0,0-.863-.066,1.757,1.757,0,0,0-1.785.921v5.877h-2.4V13.844h2.266l.066,1.071a2.223,2.223,0,0,1,2-1.237,2.514,2.514,0,0,1,.748.108Z"/>
      <path id="Trazado_720287" data-name="Trazado 720287" d="M421.128,11.519a1.182,1.182,0,0,1,.361-.887,1.551,1.551,0,0,1,1.963,0,1.268,1.268,0,0,1,0,1.784,1.536,1.536,0,0,1-1.95,0,1.179,1.179,0,0,1-.37-.9m2.549,11.306H421.27V13.844h2.407Z"/>
      <path id="Trazado_720288" data-name="Trazado 720288" d="M426.308,22.825V15.6h-1.337V13.844h1.337V13.08a3.1,3.1,0,0,1,.867-2.345A3.361,3.361,0,0,1,429.6,9.9a5.7,5.7,0,0,1,1.22.164l-.025,1.844a3.1,3.1,0,0,0-.73-.074q-1.355,0-1.354,1.28v.729H430.5V15.6h-1.785v7.222Z"/>
      <path id="Trazado_720289" data-name="Trazado 720289" d="M431.728,11.519a1.179,1.179,0,0,1,.362-.887,1.55,1.55,0,0,1,1.962,0,1.266,1.266,0,0,1,0,1.784,1.538,1.538,0,0,1-1.951,0,1.178,1.178,0,0,1-.37-.9m2.549,11.306H431.87V13.844h2.407Z"/>
      <path id="Trazado_720290" data-name="Trazado 720290" d="M439.987,21.058a1.578,1.578,0,0,0,1.08-.365,1.288,1.288,0,0,0,.432-.972h2.249a3.09,3.09,0,0,1-.5,1.673,3.293,3.293,0,0,1-1.341,1.179,4.2,4.2,0,0,1-1.88.419,3.9,3.9,0,0,1-3.038-1.225,4.846,4.846,0,0,1-1.112-3.383v-.157a4.79,4.79,0,0,1,1.1-3.312,3.849,3.849,0,0,1,3.029-1.237,3.778,3.778,0,0,1,2.7.959,3.4,3.4,0,0,1,1.033,2.552H441.5a1.656,1.656,0,0,0-.432-1.139,1.607,1.607,0,0,0-2.362.173,3.539,3.539,0,0,0-.427,1.982v.25a3.591,3.591,0,0,0,.423,2,1.464,1.464,0,0,0,1.286.607"/>
      <path id="Trazado_720291" data-name="Trazado 720291" d="M450.322,22.825a2.718,2.718,0,0,1-.241-.805,2.9,2.9,0,0,1-2.265.971,3.191,3.191,0,0,1-2.188-.764,2.454,2.454,0,0,1-.867-1.925,2.536,2.536,0,0,1,1.058-2.192,5.22,5.22,0,0,1,3.059-.771h1.1v-.516a1.484,1.484,0,0,0-.32-1,1.26,1.26,0,0,0-1.009-.373,1.429,1.429,0,0,0-.95.291.987.987,0,0,0-.344.8h-2.4a2.409,2.409,0,0,1,.482-1.446,3.185,3.185,0,0,1,1.361-1.041,4.958,4.958,0,0,1,1.975-.377,3.926,3.926,0,0,1,2.636.833,2.918,2.918,0,0,1,.976,2.345V20.75a4.293,4.293,0,0,0,.356,1.934v.141Zm-1.983-1.668a2.062,2.062,0,0,0,.979-.237,1.558,1.558,0,0,0,.664-.635V18.741h-.9q-1.8,0-1.917,1.245l-.009.142a.956.956,0,0,0,.317.738,1.228,1.228,0,0,0,.863.291"/>
      <path id="Trazado_720292" data-name="Trazado 720292" d="M459.279,16.093a6.571,6.571,0,0,0-.863-.066,1.757,1.757,0,0,0-1.785.921v5.877h-2.4V13.844H456.5l.066,1.071a2.223,2.223,0,0,1,2-1.237,2.514,2.514,0,0,1,.748.108Z"/>
      <path id="Trazado_720293" data-name="Trazado 720293" d="M469.529,20.343a.771.771,0,0,0-.436-.692,4.933,4.933,0,0,0-1.4-.453q-3.2-.673-3.2-2.722a2.47,2.47,0,0,1,.992-2,4,4,0,0,1,2.594-.8,4.3,4.3,0,0,1,2.735.806,2.534,2.534,0,0,1,1.026,2.091h-2.4a1.158,1.158,0,0,0-.332-.851,1.407,1.407,0,0,0-1.038-.336,1.443,1.443,0,0,0-.937.273.866.866,0,0,0-.332.7.74.74,0,0,0,.377.643,3.9,3.9,0,0,0,1.275.424,10.463,10.463,0,0,1,1.51.4,2.483,2.483,0,0,1,1.9,2.415,2.345,2.345,0,0,1-1.054,1.989,4.544,4.544,0,0,1-2.722.759,4.742,4.742,0,0,1-2.005-.4,3.365,3.365,0,0,1-1.374-1.1,2.567,2.567,0,0,1-.5-1.515h2.274a1.251,1.251,0,0,0,.474.979,1.871,1.871,0,0,0,1.177.341,1.746,1.746,0,0,0,1.042-.261.814.814,0,0,0,.353-.686"/>
      <path id="Trazado_720294" data-name="Trazado 720294" d="M476.278,11.636v2.208h1.536V15.6h-1.536v4.482a1.071,1.071,0,0,0,.191.714.959.959,0,0,0,.731.216,3.884,3.884,0,0,0,.7-.058v1.818a4.961,4.961,0,0,1-1.452.215,2.29,2.29,0,0,1-2.573-2.548V15.6h-1.312v-1.76h1.312V11.636Z"/>
      <path id="Trazado_720295" data-name="Trazado 720295" d="M478.528,18.251a5.328,5.328,0,0,1,.514-2.382,3.761,3.761,0,0,1,1.482-1.618,4.309,4.309,0,0,1,2.245-.573,4.092,4.092,0,0,1,2.968,1.112,4.463,4.463,0,0,1,1.282,3.022l.017.614a4.691,4.691,0,0,1-1.154,3.316,4.472,4.472,0,0,1-6.2,0,4.771,4.771,0,0,1-1.158-3.386Zm2.4.171a3.365,3.365,0,0,0,.48,1.958,1.73,1.73,0,0,0,2.741.008,3.677,3.677,0,0,0,.489-2.141,3.326,3.326,0,0,0-.489-1.945,1.593,1.593,0,0,0-1.379-.69,1.57,1.57,0,0,0-1.362.686,3.743,3.743,0,0,0-.48,2.124"/>
      <path id="Trazado_720296" data-name="Trazado 720296" d="M492.249,21.058a1.578,1.578,0,0,0,1.08-.365,1.288,1.288,0,0,0,.432-.972h2.249a3.09,3.09,0,0,1-.5,1.673,3.293,3.293,0,0,1-1.341,1.179,4.2,4.2,0,0,1-1.88.419,3.9,3.9,0,0,1-3.038-1.225,4.846,4.846,0,0,1-1.112-3.383v-.157a4.79,4.79,0,0,1,1.1-3.312,3.849,3.849,0,0,1,3.029-1.237,3.778,3.778,0,0,1,2.7.959,3.4,3.4,0,0,1,1.033,2.552h-2.249a1.656,1.656,0,0,0-.432-1.139,1.607,1.607,0,0,0-2.362.173,3.539,3.539,0,0,0-.427,1.982v.25a3.591,3.591,0,0,0,.423,2,1.464,1.464,0,0,0,1.286.607"/>
      <path id="Trazado_720297" data-name="Trazado 720297" d="M500.641,19.223l-.863.863v2.74h-2.4V10.076h2.4V17.14l.465-.6,2.3-2.7h2.881l-3.246,3.743,3.528,5.239h-2.755Z"/>
      <path id="Trazado_720298" data-name="Trazado 720298" d="M401.31,38.669a5.415,5.415,0,0,1,.942-3.346,3.056,3.056,0,0,1,2.577-1.245,2.75,2.75,0,0,1,2.167.98V30.476H409.4v12.75h-2.166l-.116-.955a2.821,2.821,0,0,1-2.307,1.121,3.046,3.046,0,0,1-2.544-1.249,5.584,5.584,0,0,1-.959-3.474m2.4.17a3.565,3.565,0,0,0,.439,1.943,1.432,1.432,0,0,0,1.279.676A1.606,1.606,0,0,0,407,40.516V36.954a1.581,1.581,0,0,0-1.553-.941q-1.734,0-1.734,2.826"/>
      <path id="Trazado_720299" data-name="Trazado 720299" d="M415.395,43.392a4.406,4.406,0,0,1-3.215-1.212,4.305,4.305,0,0,1-1.242-3.229v-.233a5.407,5.407,0,0,1,.524-2.419,3.823,3.823,0,0,1,1.481-1.643,4.155,4.155,0,0,1,2.187-.578,3.727,3.727,0,0,1,2.9,1.163,4.718,4.718,0,0,1,1.059,3.295v.979h-5.72a2.233,2.233,0,0,0,.7,1.412,2.121,2.121,0,0,0,1.482.531,2.589,2.589,0,0,0,2.166-1.005l1.179,1.32a3.6,3.6,0,0,1-1.461,1.191,4.8,4.8,0,0,1-2.043.428m-.273-7.379a1.5,1.5,0,0,0-1.158.483,2.508,2.508,0,0,0-.569,1.384h3.337v-.191a1.786,1.786,0,0,0-.431-1.239,1.551,1.551,0,0,0-1.179-.437"/>
      <path id="Trazado_720300" data-name="Trazado 720300" d="M428.1,31.14l3.1,8.766,3.088-8.766h3.271V43.226h-2.5v-3.3l.25-5.7-3.263,9.006h-1.71l-3.254-9,.249,5.694v3.3h-2.49V31.14Z"/>
      <path id="Trazado_720301" data-name="Trazado 720301" d="M444.2,35.307l2.266-4.167h2.863l-3.52,5.993,3.612,6.093h-2.9L444.2,38.993l-2.324,4.233h-2.9l3.611-6.093-3.52-5.993h2.864Z"/>
      <path id="Trazado_720302" data-name="Trazado 720302" d="M458.883,43.392a4.406,4.406,0,0,1-3.215-1.212,4.305,4.305,0,0,1-1.242-3.229v-.233a5.407,5.407,0,0,1,.524-2.419,3.823,3.823,0,0,1,1.481-1.643,4.155,4.155,0,0,1,2.187-.578,3.727,3.727,0,0,1,2.9,1.163,4.718,4.718,0,0,1,1.059,3.295v.979h-5.72a2.233,2.233,0,0,0,.7,1.412,2.121,2.121,0,0,0,1.482.531,2.589,2.589,0,0,0,2.166-1.005l1.179,1.32a3.6,3.6,0,0,1-1.461,1.191,4.8,4.8,0,0,1-2.043.428m-.273-7.379a1.5,1.5,0,0,0-1.158.483,2.508,2.508,0,0,0-.569,1.384h3.337v-.191a1.786,1.786,0,0,0-.431-1.239,1.551,1.551,0,0,0-1.179-.437"/>
      <path id="Trazado_720303" data-name="Trazado 720303" d="M466.145,34.244l.075,1.038a3.135,3.135,0,0,1,2.581-1.2,2.6,2.6,0,0,1,2.125.839,3.912,3.912,0,0,1,.715,2.506v5.8h-2.4V37.468a1.567,1.567,0,0,0-.332-1.111,1.486,1.486,0,0,0-1.105-.344,1.648,1.648,0,0,0-1.518.864v6.348h-2.4V34.244Z"/>
      <path id="Trazado_720304" data-name="Trazado 720304" d="M480.342,38.968v4.257h-2.49V31.139h4.715a5.437,5.437,0,0,1,2.394.5,3.663,3.663,0,0,1,1.59,1.415,3.941,3.941,0,0,1,.556,2.087,3.472,3.472,0,0,1-1.216,2.8,5.063,5.063,0,0,1-3.366,1.026Zm0-2.018h2.225a2.185,2.185,0,0,0,1.506-.465,1.69,1.69,0,0,0,.519-1.328,2,2,0,0,0-.522-1.436,1.959,1.959,0,0,0-1.446-.564h-2.282Z"/>
      <path id="Trazado_720305" data-name="Trazado 720305" d="M498.3,39.2a4.272,4.272,0,0,1-1.439,3.07,5.056,5.056,0,0,1-3.424,1.121,4.551,4.551,0,0,1-3.658-1.564,6.424,6.424,0,0,1-1.332-4.3v-.739a7.25,7.25,0,0,1,.615-3.071,4.6,4.6,0,0,1,1.756-2.038,5.481,5.481,0,0,1,6.021.412,4.589,4.589,0,0,1,1.479,3.145H495.83a2.521,2.521,0,0,0-.652-1.7,2.407,2.407,0,0,0-1.705-.528,2.117,2.117,0,0,0-1.864.893,5,5,0,0,0-.635,2.769v.912a5.352,5.352,0,0,0,.594,2.864,2.076,2.076,0,0,0,1.872.905,2.458,2.458,0,0,0,1.721-.527,2.383,2.383,0,0,0,.652-1.631Z"/>
      <path id="Trazado_720306" data-name="Trazado 720306" d="M382.649,105.989l2.891-8.9h2.171l-4.093,11.375H381.7l-4.078-11.375h2.164Z"/>
      <path id="Trazado_720307" data-name="Trazado 720307" d="M392.189,108.622a3.926,3.926,0,0,1-2.926-1.137,4.122,4.122,0,0,1-1.121-3.027v-.234a5.079,5.079,0,0,1,.488-2.262A3.711,3.711,0,0,1,390,100.411a3.624,3.624,0,0,1,1.969-.554,3.319,3.319,0,0,1,2.668,1.1,4.656,4.656,0,0,1,.941,3.117v.766h-5.523a2.535,2.535,0,0,0,.7,1.656,2.1,2.1,0,0,0,1.543.61,2.571,2.571,0,0,0,2.125-1.055l1.023.976a3.411,3.411,0,0,1-1.355,1.176,4.24,4.24,0,0,1-1.9.418m-.227-7.242a1.6,1.6,0,0,0-1.262.547,2.837,2.837,0,0,0-.613,1.523H393.7v-.14a2.308,2.308,0,0,0-.508-1.442,1.588,1.588,0,0,0-1.234-.488"/>
      <path id="Trazado_720308" data-name="Trazado 720308" d="M401.477,101.747a4.662,4.662,0,0,0-.773-.062,1.741,1.741,0,0,0-1.758,1v5.782h-1.9v-8.453h1.813l.047.945a2.139,2.139,0,0,1,1.906-1.1,1.778,1.778,0,0,1,.672.11Z"/>
      <path id="Trazado_720309" data-name="Trazado 720309" d="M402.68,97.81a1.021,1.021,0,0,1,.278-.733,1.046,1.046,0,0,1,.793-.291,1.063,1.063,0,0,1,.8.291,1.015,1.015,0,0,1,.281.733.988.988,0,0,1-.281.72,1.065,1.065,0,0,1-.8.287,1.048,1.048,0,0,1-.793-.287.994.994,0,0,1-.278-.72m2.016,10.656h-1.9v-8.453h1.9Z"/>
      <path id="Trazado_720310" data-name="Trazado 720310" d="M407.43,108.466v-7.047h-1.289v-1.406h1.289v-.774a2.9,2.9,0,0,1,.781-2.171A2.991,2.991,0,0,1,410.4,96.3a4.375,4.375,0,0,1,1.062.141l-.047,1.484a3.7,3.7,0,0,0-.726-.063,1.22,1.22,0,0,0-1.36,1.4v.75h1.719v1.406h-1.719v7.047Z"/>
      <path id="Trazado_720311" data-name="Trazado 720311" d="M412.438,97.81a1.021,1.021,0,0,1,.278-.733,1.046,1.046,0,0,1,.793-.291,1.059,1.059,0,0,1,.8.291,1.012,1.012,0,0,1,.282.733.985.985,0,0,1-.282.72,1.061,1.061,0,0,1-.8.287,1.048,1.048,0,0,1-.793-.287.994.994,0,0,1-.278-.72m2.016,10.656h-1.9v-8.453h1.9Z"/>
      <path id="Trazado_720312" data-name="Trazado 720312" d="M419.993,107.106a1.718,1.718,0,0,0,1.18-.414,1.417,1.417,0,0,0,.5-1.023h1.789a2.791,2.791,0,0,1-.492,1.472,3.226,3.226,0,0,1-1.25,1.082,3.725,3.725,0,0,1-1.7.4,3.6,3.6,0,0,1-2.812-1.149,4.558,4.558,0,0,1-1.039-3.172v-.195a4.484,4.484,0,0,1,1.031-3.09,3.574,3.574,0,0,1,2.813-1.16,3.473,3.473,0,0,1,2.457.879,3.15,3.15,0,0,1,1,2.309h-1.789a1.745,1.745,0,0,0-.5-1.2,1.6,1.6,0,0,0-1.184-.469,1.672,1.672,0,0,0-1.422.668,3.411,3.411,0,0,0-.508,2.028v.3a3.462,3.462,0,0,0,.5,2.051,1.672,1.672,0,0,0,1.434.676"/>
      <path id="Trazado_720313" data-name="Trazado 720313" d="M429.946,108.466a2.961,2.961,0,0,1-.219-.789,3.195,3.195,0,0,1-4.3.219,2.326,2.326,0,0,1-.8-1.8,2.4,2.4,0,0,1,1-2.074,4.86,4.86,0,0,1,2.871-.723h1.164v-.555a1.473,1.473,0,0,0-.368-1.05,1.456,1.456,0,0,0-1.117-.395,1.678,1.678,0,0,0-1.062.324,1,1,0,0,0-.414.825h-1.9a2.107,2.107,0,0,1,.461-1.3,3.075,3.075,0,0,1,1.254-.949,4.387,4.387,0,0,1,1.77-.344,3.55,3.55,0,0,1,2.367.746,2.656,2.656,0,0,1,.906,2.1v3.812a4.326,4.326,0,0,0,.32,1.82v.133ZM427.86,107.1a2.164,2.164,0,0,0,1.059-.273,1.828,1.828,0,0,0,.746-.735V104.5h-1.024a2.8,2.8,0,0,0-1.586.368,1.189,1.189,0,0,0-.531,1.039,1.11,1.11,0,0,0,.363.871,1.41,1.41,0,0,0,.973.324"/>
      <path id="Trazado_720314" data-name="Trazado 720314" d="M437.977,101.747a4.662,4.662,0,0,0-.773-.062,1.741,1.741,0,0,0-1.758,1v5.782h-1.9v-8.453h1.813l.047.945a2.139,2.139,0,0,1,1.906-1.1,1.778,1.778,0,0,1,.672.11Z"/>
      <path id="Trazado_720315" data-name="Trazado 720315" d="M447.9,106.169a.86.86,0,0,0-.418-.773,4.456,4.456,0,0,0-1.387-.469,7.2,7.2,0,0,1-1.617-.516,2.158,2.158,0,0,1-1.422-1.992,2.251,2.251,0,0,1,.922-1.828,3.647,3.647,0,0,1,2.344-.734,3.79,3.79,0,0,1,2.449.75,2.381,2.381,0,0,1,.934,1.945h-1.9a1.169,1.169,0,0,0-.406-.91,1.553,1.553,0,0,0-1.078-.364,1.688,1.688,0,0,0-1.02.289.915.915,0,0,0-.394.774.77.77,0,0,0,.367.68,5.06,5.06,0,0,0,1.484.488,7.011,7.011,0,0,1,1.754.586,2.485,2.485,0,0,1,.946.816,2.08,2.08,0,0,1,.308,1.156,2.2,2.2,0,0,1-.945,1.848,4.027,4.027,0,0,1-2.477.707,4.372,4.372,0,0,1-1.851-.375,3.049,3.049,0,0,1-1.266-1.031,2.443,2.443,0,0,1-.453-1.414h1.844a1.335,1.335,0,0,0,.508,1.035,1.972,1.972,0,0,0,1.242.363,1.91,1.91,0,0,0,1.14-.285.88.88,0,0,0,.391-.746"/>
      <path id="Trazado_720316" data-name="Trazado 720316" d="M453.8,97.958v2.055h1.492v1.406H453.8v4.719a1.038,1.038,0,0,0,.191.7.89.89,0,0,0,.684.215,2.985,2.985,0,0,0,.664-.078v1.468a4.673,4.673,0,0,1-1.25.18q-2.187,0-2.187-2.414v-4.789h-1.391v-1.406H451.9V97.958Z"/>
      <path id="Trazado_720317" data-name="Trazado 720317" d="M456.15,104.161a4.985,4.985,0,0,1,.492-2.238,3.6,3.6,0,0,1,1.383-1.532,3.9,3.9,0,0,1,2.046-.535,3.691,3.691,0,0,1,2.778,1.1A4.329,4.329,0,0,1,464,103.88l.008.445a5.019,5.019,0,0,1-.481,2.234,3.546,3.546,0,0,1-1.375,1.524,3.927,3.927,0,0,1-2.066.539,3.668,3.668,0,0,1-2.863-1.192,4.559,4.559,0,0,1-1.074-3.175Zm1.9.164a3.408,3.408,0,0,0,.539,2.043,1.752,1.752,0,0,0,1.5.738,1.732,1.732,0,0,0,1.5-.75,3.758,3.758,0,0,0,.535-2.195,3.361,3.361,0,0,0-.55-2.031,1.762,1.762,0,0,0-1.5-.75,1.741,1.741,0,0,0-1.476.738,3.7,3.7,0,0,0-.547,2.207"/>
      <path id="Trazado_720318" data-name="Trazado 720318" d="M469.087,107.106a1.718,1.718,0,0,0,1.18-.414,1.416,1.416,0,0,0,.5-1.023h1.789a2.791,2.791,0,0,1-.492,1.472,3.226,3.226,0,0,1-1.25,1.082,3.725,3.725,0,0,1-1.7.4,3.6,3.6,0,0,1-2.812-1.149,4.558,4.558,0,0,1-1.039-3.172v-.195a4.484,4.484,0,0,1,1.031-3.09,3.574,3.574,0,0,1,2.813-1.16,3.473,3.473,0,0,1,2.457.879,3.15,3.15,0,0,1,1,2.309h-1.789a1.745,1.745,0,0,0-.5-1.2,1.6,1.6,0,0,0-1.184-.469,1.672,1.672,0,0,0-1.422.668,3.411,3.411,0,0,0-.508,2.028v.3a3.462,3.462,0,0,0,.5,2.051,1.672,1.672,0,0,0,1.434.676"/>
      <path id="Trazado_720319" data-name="Trazado 720319" d="M476.735,104.841l-.844.867v2.758h-1.9v-12h1.9v6.922l.594-.742,2.336-2.633H481.1l-3.14,3.523,3.476,4.93h-2.195Z"/>
      <path id="Trazado_720320" data-name="Trazado 720320" d="M486.993,108.466v-7.047H485.7v-1.406h1.289v-.774a2.9,2.9,0,0,1,.781-2.171,2.991,2.991,0,0,1,2.188-.766,4.375,4.375,0,0,1,1.062.141l-.047,1.484a3.7,3.7,0,0,0-.726-.063,1.22,1.22,0,0,0-1.36,1.4v.75h1.719v1.406h-1.719v7.047Z"/>
      <path id="Trazado_720321" data-name="Trazado 720321" d="M494.039,108.465h-1.9v-8.453h1.9ZM493.68,96.52h2.164l-2.164,2.367-1.523,0Z"/>
      <path id="Trazado_720322" data-name="Trazado 720322" d="M500.938,106.169a.86.86,0,0,0-.418-.773,4.456,4.456,0,0,0-1.387-.469,7.2,7.2,0,0,1-1.617-.516,2.158,2.158,0,0,1-1.422-1.992,2.251,2.251,0,0,1,.922-1.828,3.647,3.647,0,0,1,2.344-.734,3.79,3.79,0,0,1,2.449.75,2.381,2.381,0,0,1,.934,1.945h-1.9a1.169,1.169,0,0,0-.406-.91,1.553,1.553,0,0,0-1.078-.364,1.688,1.688,0,0,0-1.02.289.915.915,0,0,0-.394.774.77.77,0,0,0,.367.68,5.06,5.06,0,0,0,1.484.488,7.011,7.011,0,0,1,1.754.586,2.485,2.485,0,0,1,.946.816,2.08,2.08,0,0,1,.308,1.156,2.2,2.2,0,0,1-.945,1.848,4.027,4.027,0,0,1-2.477.707,4.372,4.372,0,0,1-1.851-.375,3.049,3.049,0,0,1-1.266-1.031,2.443,2.443,0,0,1-.453-1.414h1.844a1.335,1.335,0,0,0,.508,1.035,1.972,1.972,0,0,0,1.242.363,1.91,1.91,0,0,0,1.14-.285.88.88,0,0,0,.391-.746"/>
      <path id="Trazado_720323" data-name="Trazado 720323" d="M504.462,97.81a1.02,1.02,0,0,1,.277-.733,1.047,1.047,0,0,1,.793-.291,1.061,1.061,0,0,1,.8.291,1.015,1.015,0,0,1,.281.733.988.988,0,0,1-.281.72,1.063,1.063,0,0,1-.8.287,1.049,1.049,0,0,1-.793-.287.993.993,0,0,1-.277-.72m2.015,10.656h-1.9v-8.453h1.9Z"/>
      <path id="Trazado_720324" data-name="Trazado 720324" d="M512.016,107.106a1.718,1.718,0,0,0,1.18-.414,1.416,1.416,0,0,0,.5-1.023h1.789a2.791,2.791,0,0,1-.492,1.472,3.226,3.226,0,0,1-1.25,1.082,3.725,3.725,0,0,1-1.7.4,3.6,3.6,0,0,1-2.812-1.149,4.558,4.558,0,0,1-1.039-3.172v-.195a4.484,4.484,0,0,1,1.031-3.09,3.574,3.574,0,0,1,2.813-1.16,3.473,3.473,0,0,1,2.457.879,3.15,3.15,0,0,1,1,2.309H513.7a1.745,1.745,0,0,0-.5-1.2,1.6,1.6,0,0,0-1.184-.469,1.672,1.672,0,0,0-1.422.668,3.411,3.411,0,0,0-.508,2.028v.3a3.462,3.462,0,0,0,.5,2.051,1.672,1.672,0,0,0,1.434.676"/>
      <path id="Trazado_720325" data-name="Trazado 720325" d="M516.564,104.161a4.985,4.985,0,0,1,.492-2.238,3.6,3.6,0,0,1,1.383-1.532,3.9,3.9,0,0,1,2.046-.535,3.691,3.691,0,0,1,2.778,1.1,4.329,4.329,0,0,1,1.152,2.922l.008.445a5.019,5.019,0,0,1-.481,2.234,3.546,3.546,0,0,1-1.375,1.524,3.927,3.927,0,0,1-2.066.539,3.668,3.668,0,0,1-2.863-1.192,4.559,4.559,0,0,1-1.074-3.175Zm1.9.164a3.408,3.408,0,0,0,.539,2.043,1.752,1.752,0,0,0,1.5.738,1.732,1.732,0,0,0,1.5-.75,3.758,3.758,0,0,0,.535-2.195,3.361,3.361,0,0,0-.55-2.031,1.762,1.762,0,0,0-1.5-.75,1.741,1.741,0,0,0-1.476.738,3.7,3.7,0,0,0-.547,2.207"/>
      <path id="Trazado_720326" data-name="Trazado 720326" d="M403.565,173.6a4.037,4.037,0,0,1-.146,1.158,2.585,2.585,0,0,1-.469.838q-.329.4-.957,1.063a2.34,2.34,0,0,0-.7,1.337l-.014.252a1.532,1.532,0,0,0,.4,1.139,1.551,1.551,0,0,0,1.141.393,1.594,1.594,0,0,0,1.112-.387,1.3,1.3,0,0,0,.426-1.008h1.265a2.354,2.354,0,0,1-.783,1.8,3.371,3.371,0,0,1-4.091.011,2.5,2.5,0,0,1-.731-1.911,3.568,3.568,0,0,1,1.093-2.379l.745-.773a2.306,2.306,0,0,0,.452-1.531Zm.055-2.164a.76.76,0,0,1-.187.522.707.707,0,0,1-.558.213.717.717,0,0,1-.561-.213.749.749,0,0,1-.191-.522.718.718,0,0,1,.191-.508.727.727,0,0,1,.561-.206.718.718,0,0,1,.558.206.728.728,0,0,1,.187.508"/>
      <path id="Trazado_720327" data-name="Trazado 720327" d="M414.646,175.092a3.666,3.666,0,0,1-1.166,2.438,3.819,3.819,0,0,1-2.607.857,3.507,3.507,0,0,1-2.827-1.265,5.084,5.084,0,0,1-1.063-3.384v-.957a5.679,5.679,0,0,1,.495-2.44,3.7,3.7,0,0,1,1.4-1.616,3.906,3.906,0,0,1,2.106-.565,3.6,3.6,0,0,1,2.543.885,3.708,3.708,0,0,1,1.114,2.451h-1.319a2.866,2.866,0,0,0-.742-1.727,2.242,2.242,0,0,0-1.6-.535,2.348,2.348,0,0,0-1.972.93,4.273,4.273,0,0,0-.715,2.648v.965a4.392,4.392,0,0,0,.677,2.579,2.188,2.188,0,0,0,1.894.958,2.522,2.522,0,0,0,1.677-.495,2.751,2.751,0,0,0,.777-1.727Z"/>
      <path id="Trazado_720328" data-name="Trazado 720328" d="M415.9,174.484a4.365,4.365,0,0,1,.427-1.955,3.172,3.172,0,0,1,1.189-1.34,3.238,3.238,0,0,1,1.74-.472,3.117,3.117,0,0,1,2.443,1.046,4.02,4.02,0,0,1,.934,2.782v.089a4.4,4.4,0,0,1-.414,1.938,3.148,3.148,0,0,1-1.181,1.336,3.271,3.271,0,0,1-1.767.479,3.117,3.117,0,0,1-2.439-1.046,4.008,4.008,0,0,1-.932-2.769Zm1.272.15a3.163,3.163,0,0,0,.57,1.976,1.935,1.935,0,0,0,3.059-.01,3.457,3.457,0,0,0,.567-2.116,3.162,3.162,0,0,0-.576-1.972,1.841,1.841,0,0,0-1.536-.756,1.818,1.818,0,0,0-1.511.745,3.435,3.435,0,0,0-.573,2.133"/>
      <path id="Trazado_720329" data-name="Trazado 720329" d="M425.42,170.853l.041.931a2.7,2.7,0,0,1,2.215-1.068q2.345,0,2.365,2.646v4.888h-1.265v-4.9a1.709,1.709,0,0,0-.365-1.183,1.472,1.472,0,0,0-1.118-.382,1.831,1.831,0,0,0-1.08.328,2.231,2.231,0,0,0-.725.861v5.271h-1.264v-7.4Z"/>
      <path id="Trazado_720330" data-name="Trazado 720330" d="M434.915,177.354a1.825,1.825,0,0,0,1.183-.41,1.442,1.442,0,0,0,.56-1.026h1.2a2.282,2.282,0,0,1-.437,1.21,2.878,2.878,0,0,1-1.076.916,3.109,3.109,0,0,1-1.426.342,3.043,3.043,0,0,1-2.4-1.008,4.008,4.008,0,0,1-.893-2.758v-.212a4.442,4.442,0,0,1,.4-1.921,3.013,3.013,0,0,1,1.138-1.306,3.237,3.237,0,0,1,1.753-.465,2.966,2.966,0,0,1,2.068.745,2.663,2.663,0,0,1,.878,1.935h-1.2a1.744,1.744,0,0,0-.544-1.18,1.694,1.694,0,0,0-1.206-.461,1.771,1.771,0,0,0-1.493.694,3.256,3.256,0,0,0-.53,2.007v.239a3.2,3.2,0,0,0,.526,1.969,1.78,1.78,0,0,0,1.5.69"/>
      <path id="Trazado_720331" data-name="Trazado 720331" d="M443.842,177.518a2.683,2.683,0,0,1-2.167.869,2.3,2.3,0,0,1-1.8-.687,2.978,2.978,0,0,1-.625-2.035v-4.811h1.265v4.778q0,1.682,1.367,1.682a1.894,1.894,0,0,0,1.928-1.08v-5.38h1.264v7.4h-1.2Z"/>
      <path id="Trazado_720332" data-name="Trazado 720332" d="M450.063,178.387a3.229,3.229,0,0,1-2.447-.988,3.666,3.666,0,0,1-.943-2.642v-.232a4.432,4.432,0,0,1,.42-1.966,3.281,3.281,0,0,1,1.176-1.354,2.96,2.96,0,0,1,1.637-.488,2.767,2.767,0,0,1,2.242.95,4.116,4.116,0,0,1,.8,2.721v.526h-5.011a2.638,2.638,0,0,0,.639,1.768,2.014,2.014,0,0,0,1.556.673,2.192,2.192,0,0,0,1.134-.274,2.864,2.864,0,0,0,.814-.724l.772.6a3.108,3.108,0,0,1-2.789,1.429m-.157-6.631a1.688,1.688,0,0,0-1.285.557,2.705,2.705,0,0,0-.643,1.562h3.705v-.1a2.416,2.416,0,0,0-.519-1.494,1.593,1.593,0,0,0-1.258-.529"/>
      <path id="Trazado_720333" data-name="Trazado 720333" d="M457.986,171.988a3.766,3.766,0,0,0-.622-.048,1.668,1.668,0,0,0-1.689,1.06v5.25h-1.264v-7.4h1.23l.021.855a1.969,1.969,0,0,1,1.763-.991,1.306,1.306,0,0,1,.561.1Z"/>
      <path id="Trazado_720334" data-name="Trazado 720334" d="M458.71,174.49a4.337,4.337,0,0,1,.807-2.738,2.745,2.745,0,0,1,4.17-.146V167.75h1.265v10.5h-1.163l-.061-.793a2.575,2.575,0,0,1-2.112.93,2.529,2.529,0,0,1-2.1-1.053,4.389,4.389,0,0,1-.81-2.748Zm1.265.144a3.276,3.276,0,0,0,.52,1.969,1.681,1.681,0,0,0,1.435.711,1.847,1.847,0,0,0,1.757-1.08v-3.4a1.859,1.859,0,0,0-1.743-1.046,1.688,1.688,0,0,0-1.449.718,3.61,3.61,0,0,0-.52,2.126"/>
      <path id="Trazado_720335" data-name="Trazado 720335" d="M471.481,178.25a2.63,2.63,0,0,1-.178-.779,2.825,2.825,0,0,1-2.106.916,2.6,2.6,0,0,1-1.794-.62,2,2,0,0,1-.7-1.568,2.094,2.094,0,0,1,.878-1.795,4.145,4.145,0,0,1,2.472-.639h1.23v-.581a1.413,1.413,0,0,0-.4-1.055,1.591,1.591,0,0,0-1.169-.394,1.846,1.846,0,0,0-1.135.342,1.009,1.009,0,0,0-.458.827h-1.271a1.748,1.748,0,0,1,.393-1.07,2.682,2.682,0,0,1,1.067-.817,3.587,3.587,0,0,1,1.479-.3,2.928,2.928,0,0,1,2,.638,2.312,2.312,0,0,1,.752,1.761v3.4a4.164,4.164,0,0,0,.26,1.62v.11Zm-2.1-.964a2.227,2.227,0,0,0,1.128-.308,1.858,1.858,0,0,0,.772-.8v-1.518h-.991q-2.325,0-2.324,1.36a1.153,1.153,0,0,0,.4.93,1.522,1.522,0,0,0,1.019.335"/>
      <path id="Trazado_720336" data-name="Trazado 720336" d="M475.725,170.853l.041.931a2.7,2.7,0,0,1,2.215-1.068q2.345,0,2.365,2.646v4.888h-1.265v-4.9a1.709,1.709,0,0,0-.365-1.183,1.472,1.472,0,0,0-1.118-.382,1.831,1.831,0,0,0-1.08.328,2.231,2.231,0,0,0-.725.861v5.271h-1.264v-7.4Z"/>
      <rect id="Rectángulo_350915" data-name="Rectángulo 350915" width="1.265" height="10.5" transform="translate(485.829 167.75)"/>
      <path id="Trazado_720337" data-name="Trazado 720337" d="M493.684,178.25a2.629,2.629,0,0,1-.178-.779,2.825,2.825,0,0,1-2.106.916,2.6,2.6,0,0,1-1.794-.62,2,2,0,0,1-.7-1.568,2.094,2.094,0,0,1,.878-1.795,4.145,4.145,0,0,1,2.472-.639h1.23v-.581a1.413,1.413,0,0,0-.4-1.055,1.591,1.591,0,0,0-1.169-.394,1.846,1.846,0,0,0-1.135.342,1.009,1.009,0,0,0-.458.827h-1.271a1.748,1.748,0,0,1,.393-1.07,2.682,2.682,0,0,1,1.067-.817,3.587,3.587,0,0,1,1.479-.3,2.928,2.928,0,0,1,2,.638,2.312,2.312,0,0,1,.752,1.761v3.4a4.164,4.164,0,0,0,.26,1.62v.11Zm-2.1-.964a2.227,2.227,0,0,0,1.128-.308,1.858,1.858,0,0,0,.772-.8v-1.518h-.991q-2.325,0-2.324,1.36a1.153,1.153,0,0,0,.4.93,1.522,1.522,0,0,0,1.019.335"/>
      <path id="Trazado_720338" data-name="Trazado 720338" d="M501.039,176.288a.929.929,0,0,0-.387-.8,3.72,3.72,0,0,0-1.345-.489,6.419,6.419,0,0,1-1.526-.492,2.184,2.184,0,0,1-.834-.684,1.644,1.644,0,0,1-.269-.943,1.916,1.916,0,0,1,.769-1.538,3,3,0,0,1,1.965-.629,3.1,3.1,0,0,1,2.041.649,2.061,2.061,0,0,1,.782,1.661h-1.271a1.145,1.145,0,0,0-.441-.895,1.654,1.654,0,0,0-1.111-.376,1.727,1.727,0,0,0-1.08.3.945.945,0,0,0-.39.786.766.766,0,0,0,.363.69,4.436,4.436,0,0,0,1.308.444,6.829,6.829,0,0,1,1.535.506,2.235,2.235,0,0,1,.871.708,1.734,1.734,0,0,1,.285,1.008,1.9,1.9,0,0,1-.793,1.59,3.333,3.333,0,0,1-2.058.6,3.717,3.717,0,0,1-1.572-.315,2.558,2.558,0,0,1-1.071-.879,2.122,2.122,0,0,1-.385-1.219h1.264a1.312,1.312,0,0,0,.51,1.008,1.978,1.978,0,0,0,1.254.372,2.038,2.038,0,0,0,1.152-.29.9.9,0,0,0,.434-.776"/>
      <path id="Trazado_720339" data-name="Trazado 720339" d="M417.549,194.154a1.825,1.825,0,0,0,1.183-.41,1.442,1.442,0,0,0,.56-1.026h1.2a2.282,2.282,0,0,1-.437,1.21,2.877,2.877,0,0,1-1.076.916,3.109,3.109,0,0,1-1.426.342,3.043,3.043,0,0,1-2.4-1.008,4.008,4.008,0,0,1-.893-2.758v-.212a4.442,4.442,0,0,1,.4-1.921,3.013,3.013,0,0,1,1.138-1.306,3.237,3.237,0,0,1,1.753-.465,2.966,2.966,0,0,1,2.068.745,2.663,2.663,0,0,1,.878,1.935h-1.2a1.744,1.744,0,0,0-.544-1.18,1.694,1.694,0,0,0-1.206-.461,1.771,1.771,0,0,0-1.493.694,3.256,3.256,0,0,0-.53,2.007v.239a3.2,3.2,0,0,0,.526,1.969,1.78,1.78,0,0,0,1.5.69"/>
      <path id="Trazado_720340" data-name="Trazado 720340" d="M426.477,195.05a2.63,2.63,0,0,1-.178-.779,2.825,2.825,0,0,1-2.106.916,2.6,2.6,0,0,1-1.794-.62,2,2,0,0,1-.7-1.568,2.094,2.094,0,0,1,.878-1.795,4.146,4.146,0,0,1,2.472-.639h1.23v-.581a1.413,1.413,0,0,0-.4-1.055,1.591,1.591,0,0,0-1.169-.394,1.846,1.846,0,0,0-1.135.342,1.009,1.009,0,0,0-.458.827h-1.271a1.748,1.748,0,0,1,.393-1.07,2.682,2.682,0,0,1,1.067-.817,3.587,3.587,0,0,1,1.479-.3,2.928,2.928,0,0,1,2,.638,2.312,2.312,0,0,1,.752,1.761v3.4a4.164,4.164,0,0,0,.26,1.62v.11Zm-2.1-.964a2.227,2.227,0,0,0,1.128-.308,1.858,1.858,0,0,0,.772-.8v-1.518h-.991q-2.325,0-2.324,1.36a1.153,1.153,0,0,0,.4.93,1.522,1.522,0,0,0,1.019.335"/>
      <path id="Trazado_720341" data-name="Trazado 720341" d="M430.721,187.653l.041.93a2.7,2.7,0,0,1,2.215-1.067q2.345,0,2.365,2.646v4.887h-1.265v-4.894a1.707,1.707,0,0,0-.365-1.183,1.468,1.468,0,0,0-1.118-.382,1.824,1.824,0,0,0-1.08.328,2.224,2.224,0,0,0-.725.861v5.27h-1.264v-7.4Z"/>
      <path id="Trazado_720342" data-name="Trazado 720342" d="M438.966,185.862v1.791h1.381v.978h-1.381v4.592a1.025,1.025,0,0,0,.185.667.774.774,0,0,0,.628.223,3.038,3.038,0,0,0,.6-.082v1.019a3.671,3.671,0,0,1-.971.136,1.576,1.576,0,0,1-1.278-.512,2.206,2.206,0,0,1-.431-1.457v-4.586h-1.346v-.978H437.7v-1.791Z"/>
      <path id="Trazado_720343" data-name="Trazado 720343" d="M441.83,185.691a.75.75,0,0,1,.188-.519.7.7,0,0,1,.557-.212.712.712,0,0,1,.56.212.744.744,0,0,1,.192.519.749.749,0,1,1-1.5,0m1.367,9.359h-1.265v-7.4H443.2Z"/>
      <path id="Trazado_720344" data-name="Trazado 720344" d="M444.912,191.289a4.337,4.337,0,0,1,.807-2.738,2.745,2.745,0,0,1,4.17-.146v-3.856h1.265v10.5h-1.163l-.061-.792a2.577,2.577,0,0,1-2.112.929,2.528,2.528,0,0,1-2.1-1.053,4.389,4.389,0,0,1-.81-2.748Zm1.265.144a3.276,3.276,0,0,0,.52,1.969,1.681,1.681,0,0,0,1.435.711,1.847,1.847,0,0,0,1.757-1.08v-3.4a1.859,1.859,0,0,0-1.743-1.046,1.688,1.688,0,0,0-1.449.718,3.61,3.61,0,0,0-.52,2.126"/>
      <path id="Trazado_720345" data-name="Trazado 720345" d="M457.683,195.05a2.629,2.629,0,0,1-.178-.779,2.825,2.825,0,0,1-2.106.916,2.6,2.6,0,0,1-1.794-.62,2,2,0,0,1-.7-1.568,2.094,2.094,0,0,1,.878-1.795,4.145,4.145,0,0,1,2.472-.639h1.23v-.581a1.413,1.413,0,0,0-.4-1.055,1.591,1.591,0,0,0-1.169-.394,1.846,1.846,0,0,0-1.135.342,1.009,1.009,0,0,0-.458.827h-1.271a1.748,1.748,0,0,1,.393-1.07,2.682,2.682,0,0,1,1.067-.817,3.587,3.587,0,0,1,1.479-.3,2.928,2.928,0,0,1,2,.638,2.312,2.312,0,0,1,.752,1.761v3.4a4.164,4.164,0,0,0,.26,1.62v.11Zm-2.1-.964a2.227,2.227,0,0,0,1.128-.308,1.858,1.858,0,0,0,.772-.8v-1.518h-.991q-2.325,0-2.324,1.36a1.153,1.153,0,0,0,.4.93,1.522,1.522,0,0,0,1.019.335"/>
      <path id="Trazado_720346" data-name="Trazado 720346" d="M460.423,191.289a4.337,4.337,0,0,1,.807-2.738,2.745,2.745,0,0,1,4.17-.146v-3.856h1.265v10.5H465.5l-.061-.792a2.577,2.577,0,0,1-2.112.929,2.528,2.528,0,0,1-2.1-1.053,4.389,4.389,0,0,1-.81-2.748Zm1.265.144a3.276,3.276,0,0,0,.52,1.969,1.681,1.681,0,0,0,1.435.711,1.847,1.847,0,0,0,1.757-1.08v-3.4a1.859,1.859,0,0,0-1.743-1.046,1.688,1.688,0,0,0-1.449.718,3.61,3.61,0,0,0-.52,2.126"/>
      <path id="Trazado_720347" data-name="Trazado 720347" d="M471.7,195.187a3.229,3.229,0,0,1-2.447-.988,3.666,3.666,0,0,1-.943-2.642v-.232a4.432,4.432,0,0,1,.42-1.966,3.28,3.28,0,0,1,1.176-1.354,2.96,2.96,0,0,1,1.637-.488,2.767,2.767,0,0,1,2.242.95,4.116,4.116,0,0,1,.8,2.721v.526H469.57a2.638,2.638,0,0,0,.639,1.768,2.013,2.013,0,0,0,1.556.673,2.192,2.192,0,0,0,1.134-.274,2.864,2.864,0,0,0,.814-.724l.772.6a3.108,3.108,0,0,1-2.789,1.429m-.157-6.631a1.688,1.688,0,0,0-1.285.557,2.705,2.705,0,0,0-.643,1.562h3.705v-.1a2.416,2.416,0,0,0-.519-1.494,1.593,1.593,0,0,0-1.258-.529"/>
      <path id="Trazado_720348" data-name="Trazado 720348" d="M480.35,193.088a.929.929,0,0,0-.387-.8,3.72,3.72,0,0,0-1.345-.489,6.419,6.419,0,0,1-1.526-.492,2.184,2.184,0,0,1-.834-.684,1.644,1.644,0,0,1-.269-.943,1.916,1.916,0,0,1,.769-1.538,3,3,0,0,1,1.965-.629,3.1,3.1,0,0,1,2.041.649,2.061,2.061,0,0,1,.782,1.661h-1.271a1.145,1.145,0,0,0-.441-.895,1.654,1.654,0,0,0-1.111-.376,1.727,1.727,0,0,0-1.08.3.945.945,0,0,0-.39.786.766.766,0,0,0,.363.69,4.436,4.436,0,0,0,1.308.444,6.83,6.83,0,0,1,1.535.506,2.235,2.235,0,0,1,.871.708,1.734,1.734,0,0,1,.285,1.008,1.9,1.9,0,0,1-.793,1.59,3.333,3.333,0,0,1-2.058.6,3.717,3.717,0,0,1-1.572-.315,2.558,2.558,0,0,1-1.071-.879,2.122,2.122,0,0,1-.385-1.219H477a1.312,1.312,0,0,0,.51,1.008,1.978,1.978,0,0,0,1.254.372,2.038,2.038,0,0,0,1.152-.29.9.9,0,0,0,.434-.776"/>
      <path id="Trazado_720349" data-name="Trazado 720349" d="M484.746,192.235a4.05,4.05,0,0,1,.184-1.283,3.308,3.308,0,0,1,.7-1.044l.9-.921a2.066,2.066,0,0,0,.574-1.392,1.587,1.587,0,0,0-.376-1.122,1.419,1.419,0,0,0-1.093-.406,1.649,1.649,0,0,0-1.122.369,1.249,1.249,0,0,0-.423.992h-1.265a2.3,2.3,0,0,1,.79-1.789,2.953,2.953,0,0,1,2.02-.679,2.786,2.786,0,0,1,2.013.692,2.512,2.512,0,0,1,.721,1.9,3.433,3.433,0,0,1-1.108,2.355l-.745.737a2.293,2.293,0,0,0-.5,1.59Zm-.055,2.172a.75.75,0,0,1,.188-.521.709.709,0,0,1,.557-.21.722.722,0,0,1,.561.21.743.743,0,0,1,.191.521.722.722,0,0,1-.191.515.741.741,0,0,1-.561.2.676.676,0,0,1-.745-.718"/>
      <path id="Trazado_720350" data-name="Trazado 720350" d="M697.571,185.25V175.3h2.809a4.52,4.52,0,0,1,2.3.574,3.881,3.881,0,0,1,1.541,1.634,5.312,5.312,0,0,1,.551,2.433v.636a5.353,5.353,0,0,1-.543,2.468,3.832,3.832,0,0,1-1.553,1.627,4.809,4.809,0,0,1-2.348.581Zm1.312-8.88v7.807h1.381a3,3,0,0,0,2.362-.945,3.9,3.9,0,0,0,.844-2.688v-.582a3.966,3.966,0,0,0-.8-2.638,2.831,2.831,0,0,0-2.259-.954Z"/>
      <path id="Trazado_720351" data-name="Trazado 720351" d="M706.56,175.892a.753.753,0,0,1,.189-.52.7.7,0,0,1,.556-.212.715.715,0,0,1,.561.212.746.746,0,0,1,.191.52.718.718,0,0,1-.191.512.729.729,0,0,1-.561.2.714.714,0,0,1-.556-.2.725.725,0,0,1-.189-.512m1.367,9.358h-1.265v-7.4h1.265Z"/>
      <rect id="Rectángulo_350916" data-name="Rectángulo 350916" width="1.265" height="10.5" transform="translate(710.06 174.75)"/>
      <path id="Trazado_720352" data-name="Trazado 720352" d="M713.355,175.892a.754.754,0,0,1,.189-.52.7.7,0,0,1,.556-.212.716.716,0,0,1,.561.212.746.746,0,0,1,.191.52.718.718,0,0,1-.191.512.731.731,0,0,1-.561.2.714.714,0,0,1-.556-.2.725.725,0,0,1-.189-.512m1.367,9.358h-1.265v-7.4h1.265Z"/>
      <path id="Trazado_720353" data-name="Trazado 720353" d="M716.446,181.49a4.351,4.351,0,0,1,.8-2.752,2.759,2.759,0,0,1,4.232-.064l.061-.82h1.156v7.218a3.007,3.007,0,0,1-.852,2.263,3.135,3.135,0,0,1-2.286.827,3.822,3.822,0,0,1-1.566-.341,2.7,2.7,0,0,1-1.169-.937l.657-.759a2.472,2.472,0,0,0,1.989,1.005,1.939,1.939,0,0,0,1.439-.519,1.987,1.987,0,0,0,.516-1.463v-.636a2.6,2.6,0,0,1-2.071.875,2.53,2.53,0,0,1-2.1-1.046,4.573,4.573,0,0,1-.8-2.851m1.271.144a3.319,3.319,0,0,0,.513,1.966,1.667,1.667,0,0,0,1.435.714,1.854,1.854,0,0,0,1.757-1.087V179.85a1.876,1.876,0,0,0-1.743-1.06,1.682,1.682,0,0,0-1.442.718,3.61,3.61,0,0,0-.52,2.126"/>
      <path id="Trazado_720354" data-name="Trazado 720354" d="M727.669,185.387a3.232,3.232,0,0,1-2.447-.988,3.67,3.67,0,0,1-.943-2.642v-.232a4.433,4.433,0,0,1,.42-1.966,3.281,3.281,0,0,1,1.176-1.354,2.961,2.961,0,0,1,1.638-.488,2.767,2.767,0,0,1,2.241.95,4.116,4.116,0,0,1,.8,2.721v.526h-5.012a2.643,2.643,0,0,0,.639,1.768,2.014,2.014,0,0,0,1.556.673,2.19,2.19,0,0,0,1.134-.274,2.864,2.864,0,0,0,.814-.724l.772.6a3.106,3.106,0,0,1-2.789,1.429m-.156-6.631a1.689,1.689,0,0,0-1.286.557,2.712,2.712,0,0,0-.643,1.562h3.705v-.1a2.421,2.421,0,0,0-.518-1.494,1.594,1.594,0,0,0-1.258-.529"/>
      <path id="Trazado_720355" data-name="Trazado 720355" d="M733.214,177.853l.041.931a2.7,2.7,0,0,1,2.215-1.068q2.345,0,2.365,2.646v4.888H736.57v-4.9a1.709,1.709,0,0,0-.365-1.183,1.472,1.472,0,0,0-1.118-.382,1.831,1.831,0,0,0-1.08.328,2.231,2.231,0,0,0-.725.861v5.271h-1.264v-7.4Z"/>
      <path id="Trazado_720356" data-name="Trazado 720356" d="M742.709,184.354a1.825,1.825,0,0,0,1.183-.41,1.442,1.442,0,0,0,.56-1.026h1.2a2.283,2.283,0,0,1-.437,1.21,2.878,2.878,0,0,1-1.076.916,3.109,3.109,0,0,1-1.426.342,3.043,3.043,0,0,1-2.4-1.008,4.008,4.008,0,0,1-.893-2.758v-.212a4.443,4.443,0,0,1,.4-1.921,3.013,3.013,0,0,1,1.138-1.306,3.237,3.237,0,0,1,1.753-.465,2.966,2.966,0,0,1,2.068.745,2.663,2.663,0,0,1,.878,1.935h-1.2a1.745,1.745,0,0,0-.544-1.18,1.694,1.694,0,0,0-1.206-.461,1.771,1.771,0,0,0-1.493.694,3.256,3.256,0,0,0-.53,2.007v.239a3.2,3.2,0,0,0,.526,1.969,1.78,1.78,0,0,0,1.5.69"/>
      <path id="Trazado_720357" data-name="Trazado 720357" d="M747.077,175.892a.752.752,0,0,1,.188-.52.7.7,0,0,1,.557-.212.716.716,0,0,1,.561.212.75.75,0,0,1,.191.52.722.722,0,0,1-.191.512.73.73,0,0,1-.561.2.679.679,0,0,1-.745-.717m1.367,9.358h-1.265v-7.4h1.265Z"/>
      <path id="Trazado_720358" data-name="Trazado 720358" d="M755.034,185.25a2.629,2.629,0,0,1-.178-.779,2.825,2.825,0,0,1-2.106.916,2.6,2.6,0,0,1-1.794-.62,2,2,0,0,1-.7-1.568,2.094,2.094,0,0,1,.878-1.795,4.145,4.145,0,0,1,2.472-.639h1.23v-.581a1.413,1.413,0,0,0-.4-1.055,1.591,1.591,0,0,0-1.169-.394,1.846,1.846,0,0,0-1.135.342,1.009,1.009,0,0,0-.458.827h-1.271a1.748,1.748,0,0,1,.393-1.07,2.682,2.682,0,0,1,1.067-.817,3.587,3.587,0,0,1,1.479-.3,2.928,2.928,0,0,1,2,.638,2.312,2.312,0,0,1,.752,1.761v3.4a4.165,4.165,0,0,0,.26,1.62v.11Zm-2.1-.964a2.227,2.227,0,0,0,1.128-.308,1.858,1.858,0,0,0,.772-.8v-1.518h-.991q-2.325,0-2.324,1.36a1.153,1.153,0,0,0,.4.93,1.522,1.522,0,0,0,1.019.335"/>
      <path id="Trazado_720359" data-name="Trazado 720359" d="M761.658,178.988a3.767,3.767,0,0,0-.622-.048,1.668,1.668,0,0,0-1.689,1.06v5.25h-1.264v-7.4h1.23l.021.855a1.969,1.969,0,0,1,1.763-.991,1.306,1.306,0,0,1,.561.1Z"/>
      <path id="Trazado_720360" data-name="Trazado 720360" d="M766.908,185.25v-6.419h-1.169v-.977h1.169V177.1a2.517,2.517,0,0,1,.636-1.839,2.4,2.4,0,0,1,1.8-.65,3.336,3.336,0,0,1,.868.116l-.069,1.019a3.623,3.623,0,0,0-.683-.061,1.233,1.233,0,0,0-.95.36,1.454,1.454,0,0,0-.335,1.031v.783h1.579v.977h-1.579v6.419Z"/>
      <path id="Trazado_720361" data-name="Trazado 720361" d="M770.812,181.484a4.379,4.379,0,0,1,.426-1.955,3.181,3.181,0,0,1,1.19-1.34,3.238,3.238,0,0,1,1.74-.472,3.117,3.117,0,0,1,2.443,1.046,4.02,4.02,0,0,1,.934,2.782v.089a4.4,4.4,0,0,1-.414,1.938,3.144,3.144,0,0,1-1.182,1.336,3.268,3.268,0,0,1-1.767.479,3.115,3.115,0,0,1-2.438-1.046,4.008,4.008,0,0,1-.932-2.769Zm1.271.15a3.164,3.164,0,0,0,.571,1.976,1.935,1.935,0,0,0,3.059-.01,3.464,3.464,0,0,0,.567-2.116,3.156,3.156,0,0,0-.577-1.972,1.838,1.838,0,0,0-1.535-.756,1.816,1.816,0,0,0-1.511.745,3.435,3.435,0,0,0-.574,2.133"/>
      <path id="Trazado_720362" data-name="Trazado 720362" d="M782.706,178.988a3.766,3.766,0,0,0-.622-.048A1.668,1.668,0,0,0,780.4,180v5.25h-1.264v-7.4h1.23l.021.855a1.969,1.969,0,0,1,1.763-.991,1.306,1.306,0,0,1,.561.1Z"/>
      <path id="Trazado_720363" data-name="Trazado 720363" d="M785.057,177.853l.034.82a2.735,2.735,0,0,1,2.2-.957,2.115,2.115,0,0,1,2.112,1.19,2.81,2.81,0,0,1,.96-.862,2.855,2.855,0,0,1,1.4-.328q2.433,0,2.475,2.577v4.957h-1.265v-4.88a1.7,1.7,0,0,0-.362-1.186,1.593,1.593,0,0,0-1.217-.394,1.673,1.673,0,0,0-1.169.421,1.707,1.707,0,0,0-.54,1.13v4.909h-1.271V180.4a1.412,1.412,0,0,0-1.579-1.614,1.693,1.693,0,0,0-1.7,1.059v5.4h-1.264v-7.4Z"/>
      <path id="Trazado_720364" data-name="Trazado 720364" d="M800.705,185.25a2.629,2.629,0,0,1-.178-.779,2.825,2.825,0,0,1-2.106.916,2.6,2.6,0,0,1-1.794-.62,2,2,0,0,1-.7-1.568,2.094,2.094,0,0,1,.878-1.795,4.145,4.145,0,0,1,2.472-.639h1.23v-.581a1.413,1.413,0,0,0-.4-1.055,1.591,1.591,0,0,0-1.169-.394,1.846,1.846,0,0,0-1.135.342,1.009,1.009,0,0,0-.458.827h-1.271a1.748,1.748,0,0,1,.393-1.07,2.682,2.682,0,0,1,1.067-.817,3.587,3.587,0,0,1,1.479-.3,2.928,2.928,0,0,1,2,.638,2.312,2.312,0,0,1,.752,1.761v3.4a4.164,4.164,0,0,0,.26,1.62v.11Zm-2.1-.964a2.227,2.227,0,0,0,1.128-.308,1.858,1.858,0,0,0,.772-.8v-1.518h-.991q-2.325,0-2.324,1.36a1.153,1.153,0,0,0,.4.93,1.522,1.522,0,0,0,1.019.335"/>
      <path id="Trazado_720365" data-name="Trazado 720365" d="M805.469,176.063v1.791h1.381v.978h-1.381v4.592a1.025,1.025,0,0,0,.185.667.774.774,0,0,0,.628.223,3.036,3.036,0,0,0,.6-.082v1.019a3.671,3.671,0,0,1-.971.136,1.576,1.576,0,0,1-1.278-.512,2.206,2.206,0,0,1-.431-1.457v-4.586h-1.346v-.978H804.2v-1.791Z"/>
      <path id="Trazado_720366" data-name="Trazado 720366" d="M807.856,181.484a4.379,4.379,0,0,1,.426-1.955,3.181,3.181,0,0,1,1.19-1.34,3.238,3.238,0,0,1,1.74-.472,3.117,3.117,0,0,1,2.443,1.046,4.02,4.02,0,0,1,.934,2.782v.089a4.4,4.4,0,0,1-.414,1.938,3.144,3.144,0,0,1-1.182,1.336,3.268,3.268,0,0,1-1.767.479,3.115,3.115,0,0,1-2.438-1.046,4.008,4.008,0,0,1-.932-2.769Zm1.271.15a3.164,3.164,0,0,0,.571,1.976,1.935,1.935,0,0,0,3.059-.01,3.464,3.464,0,0,0,.567-2.116,3.156,3.156,0,0,0-.577-1.972,1.838,1.838,0,0,0-1.535-.756,1.816,1.816,0,0,0-1.511.745,3.435,3.435,0,0,0-.574,2.133"/>
      <path id="Trazado_720367" data-name="Trazado 720367" d="M383.287,322.25V312.3h3.253a3.78,3.78,0,0,1,2.437.67,2.412,2.412,0,0,1,.817,1.982,2.029,2.029,0,0,1-.4,1.235,2.578,2.578,0,0,1-1.08.83,2.3,2.3,0,0,1,1.274.857,2.461,2.461,0,0,1,.469,1.508,2.662,2.662,0,0,1-.868,2.106,3.593,3.593,0,0,1-2.454.765Zm1.312-5.708h1.982a2.076,2.076,0,0,0,1.378-.431,1.447,1.447,0,0,0,.516-1.171,1.422,1.422,0,0,0-.479-1.2,2.355,2.355,0,0,0-1.456-.373H384.6Zm0,1.053v3.582h2.167a2.078,2.078,0,0,0,1.445-.476,1.663,1.663,0,0,0,.531-1.308q0-1.8-1.955-1.8Z"/>
      <path id="Trazado_720368" data-name="Trazado 720368" d="M396.371,321.518a2.686,2.686,0,0,1-2.167.868,2.3,2.3,0,0,1-1.8-.687,2.977,2.977,0,0,1-.625-2.034v-4.811h1.265v4.777q0,1.682,1.367,1.682a1.894,1.894,0,0,0,1.928-1.08v-5.379H397.6v7.395h-1.2Z"/>
      <path id="Trazado_720369" data-name="Trazado 720369" d="M403.829,320.288a.929.929,0,0,0-.387-.8A3.72,3.72,0,0,0,402.1,319a6.418,6.418,0,0,1-1.526-.492,2.183,2.183,0,0,1-.834-.684,1.644,1.644,0,0,1-.269-.943,1.916,1.916,0,0,1,.769-1.538,3,3,0,0,1,1.965-.629,3.1,3.1,0,0,1,2.041.649,2.061,2.061,0,0,1,.782,1.661h-1.271a1.145,1.145,0,0,0-.441-.9,1.654,1.654,0,0,0-1.111-.376,1.727,1.727,0,0,0-1.08.3.945.945,0,0,0-.39.786.766.766,0,0,0,.363.69,4.436,4.436,0,0,0,1.308.444,6.827,6.827,0,0,1,1.535.506,2.235,2.235,0,0,1,.871.708,1.734,1.734,0,0,1,.285,1.008,1.9,1.9,0,0,1-.793,1.59,3.333,3.333,0,0,1-2.058.6,3.717,3.717,0,0,1-1.572-.315,2.558,2.558,0,0,1-1.071-.879,2.122,2.122,0,0,1-.385-1.219h1.264a1.312,1.312,0,0,0,.51,1.008,1.978,1.978,0,0,0,1.254.372,2.038,2.038,0,0,0,1.152-.29.9.9,0,0,0,.434-.776"/>
      <path id="Trazado_720370" data-name="Trazado 720370" d="M409.708,321.354a1.825,1.825,0,0,0,1.183-.41,1.442,1.442,0,0,0,.56-1.026h1.2a2.282,2.282,0,0,1-.437,1.21,2.878,2.878,0,0,1-1.076.916,3.109,3.109,0,0,1-1.426.342,3.043,3.043,0,0,1-2.4-1.008,4.008,4.008,0,0,1-.893-2.758v-.212a4.442,4.442,0,0,1,.4-1.921,3.013,3.013,0,0,1,1.138-1.306,3.237,3.237,0,0,1,1.753-.465,2.966,2.966,0,0,1,2.068.745,2.663,2.663,0,0,1,.878,1.935h-1.2a1.744,1.744,0,0,0-.544-1.18,1.694,1.694,0,0,0-1.206-.461,1.771,1.771,0,0,0-1.493.694,3.256,3.256,0,0,0-.53,2.007v.239a3.2,3.2,0,0,0,.526,1.969,1.78,1.78,0,0,0,1.5.69"/>
      <path id="Trazado_720371" data-name="Trazado 720371" d="M418.636,322.25a2.63,2.63,0,0,1-.178-.779,2.825,2.825,0,0,1-2.106.916,2.6,2.6,0,0,1-1.794-.62,2,2,0,0,1-.7-1.568,2.094,2.094,0,0,1,.878-1.8,4.146,4.146,0,0,1,2.472-.639h1.23v-.581a1.413,1.413,0,0,0-.4-1.055,1.591,1.591,0,0,0-1.169-.394,1.846,1.846,0,0,0-1.135.342,1.009,1.009,0,0,0-.458.827h-1.271a1.748,1.748,0,0,1,.393-1.07,2.682,2.682,0,0,1,1.067-.817,3.587,3.587,0,0,1,1.479-.3,2.928,2.928,0,0,1,2,.638,2.312,2.312,0,0,1,.752,1.761v3.4a4.164,4.164,0,0,0,.26,1.62v.11Zm-2.1-.964a2.227,2.227,0,0,0,1.128-.308,1.858,1.858,0,0,0,.772-.8v-1.518h-.991q-2.325,0-2.324,1.36a1.153,1.153,0,0,0,.4.93,1.522,1.522,0,0,0,1.019.335"/>
      <path id="Trazado_720372" data-name="Trazado 720372" d="M425.259,315.988a3.767,3.767,0,0,0-.622-.048,1.668,1.668,0,0,0-1.689,1.06v5.25h-1.264v-7.4h1.23l.021.855a1.969,1.969,0,0,1,1.763-.991,1.306,1.306,0,0,1,.561.1Z"/>
      <path id="Trazado_720373" data-name="Trazado 720373" d="M432.957,322.387a3.229,3.229,0,0,1-2.447-.988,3.666,3.666,0,0,1-.943-2.642v-.232a4.432,4.432,0,0,1,.42-1.966,3.281,3.281,0,0,1,1.176-1.354,2.96,2.96,0,0,1,1.637-.488,2.767,2.767,0,0,1,2.242.95,4.116,4.116,0,0,1,.8,2.721v.526h-5.011a2.638,2.638,0,0,0,.639,1.768,2.014,2.014,0,0,0,1.556.673,2.192,2.192,0,0,0,1.134-.274,2.864,2.864,0,0,0,.814-.724l.772.6a3.108,3.108,0,0,1-2.789,1.429m-.157-6.631a1.688,1.688,0,0,0-1.285.557,2.705,2.705,0,0,0-.643,1.562h3.7v-.1a2.416,2.416,0,0,0-.519-1.494,1.593,1.593,0,0,0-1.258-.529"/>
      <path id="Trazado_720374" data-name="Trazado 720374" d="M438.5,314.853l.041.93a2.7,2.7,0,0,1,2.215-1.067q2.345,0,2.365,2.646v4.887h-1.265v-4.894a1.707,1.707,0,0,0-.365-1.183,1.468,1.468,0,0,0-1.118-.382,1.823,1.823,0,0,0-1.08.328,2.224,2.224,0,0,0-.725.861v5.27H437.3v-7.4Z"/>
      <path id="Trazado_720375" data-name="Trazado 720375" d="M454.757,318.634a4.392,4.392,0,0,1-.78,2.723,2.485,2.485,0,0,1-2.091,1.029,2.576,2.576,0,0,1-2.167-.991l-.062.855h-1.162v-10.5h1.265v3.917a2.561,2.561,0,0,1,2.112-.95,2.5,2.5,0,0,1,2.115,1.018,4.522,4.522,0,0,1,.77,2.789Zm-1.265-.144a3.417,3.417,0,0,0-.5-2,1.652,1.652,0,0,0-1.436-.7,1.855,1.855,0,0,0-1.8,1.162v3.2a1.907,1.907,0,0,0,1.811,1.162,1.64,1.64,0,0,0,1.415-.7,3.637,3.637,0,0,0,.506-2.119"/>
      <path id="Trazado_720376" data-name="Trazado 720376" d="M456.015,318.484a4.379,4.379,0,0,1,.426-1.955,3.181,3.181,0,0,1,1.19-1.34,3.238,3.238,0,0,1,1.74-.472,3.117,3.117,0,0,1,2.443,1.046,4.02,4.02,0,0,1,.934,2.782v.089a4.4,4.4,0,0,1-.414,1.938,3.144,3.144,0,0,1-1.182,1.336,3.268,3.268,0,0,1-1.767.479,3.115,3.115,0,0,1-2.438-1.046,4.008,4.008,0,0,1-.932-2.769Zm1.271.15a3.164,3.164,0,0,0,.571,1.976,1.935,1.935,0,0,0,3.059-.01,3.463,3.463,0,0,0,.567-2.116,3.156,3.156,0,0,0-.577-1.972,1.838,1.838,0,0,0-1.535-.756,1.816,1.816,0,0,0-1.511.745,3.435,3.435,0,0,0-.574,2.133"/>
      <path id="Trazado_720377" data-name="Trazado 720377" d="M464.026,318.49a4.337,4.337,0,0,1,.807-2.738,2.745,2.745,0,0,1,4.17-.146V311.75h1.265v10.5h-1.163l-.061-.793a2.575,2.575,0,0,1-2.112.93,2.528,2.528,0,0,1-2.1-1.053,4.389,4.389,0,0,1-.81-2.748Zm1.265.144a3.276,3.276,0,0,0,.52,1.969,1.681,1.681,0,0,0,1.435.711,1.847,1.847,0,0,0,1.757-1.08v-3.4a1.859,1.859,0,0,0-1.743-1.046,1.688,1.688,0,0,0-1.449.718,3.61,3.61,0,0,0-.52,2.126"/>
      <path id="Trazado_720378" data-name="Trazado 720378" d="M475.3,322.387a3.229,3.229,0,0,1-2.447-.988,3.666,3.666,0,0,1-.943-2.642v-.232a4.432,4.432,0,0,1,.42-1.966A3.281,3.281,0,0,1,473.5,315.2a2.96,2.96,0,0,1,1.637-.488,2.767,2.767,0,0,1,2.242.95,4.116,4.116,0,0,1,.8,2.721v.526h-5.011a2.638,2.638,0,0,0,.639,1.768,2.014,2.014,0,0,0,1.556.673,2.192,2.192,0,0,0,1.134-.274,2.864,2.864,0,0,0,.814-.724l.772.6a3.108,3.108,0,0,1-2.789,1.429m-.157-6.631a1.688,1.688,0,0,0-1.285.557,2.705,2.705,0,0,0-.643,1.562h3.7v-.1a2.415,2.415,0,0,0-.519-1.494,1.593,1.593,0,0,0-1.258-.529"/>
      <path id="Trazado_720379" data-name="Trazado 720379" d="M479.346,318.49a4.351,4.351,0,0,1,.8-2.752,2.759,2.759,0,0,1,4.232-.064l.061-.82h1.156v7.218a3.007,3.007,0,0,1-.852,2.263,3.135,3.135,0,0,1-2.286.827,3.822,3.822,0,0,1-1.566-.341,2.7,2.7,0,0,1-1.169-.937l.657-.759a2.472,2.472,0,0,0,1.989,1.005,1.939,1.939,0,0,0,1.439-.519,1.987,1.987,0,0,0,.516-1.463v-.636a2.6,2.6,0,0,1-2.071.875,2.53,2.53,0,0,1-2.1-1.046,4.573,4.573,0,0,1-.8-2.851m1.271.144a3.319,3.319,0,0,0,.513,1.966,1.667,1.667,0,0,0,1.435.714,1.854,1.854,0,0,0,1.757-1.087V316.85a1.876,1.876,0,0,0-1.743-1.06,1.681,1.681,0,0,0-1.442.718,3.61,3.61,0,0,0-.52,2.126"/>
      <path id="Trazado_720380" data-name="Trazado 720380" d="M492.068,322.25a2.591,2.591,0,0,1-.179-.779,2.825,2.825,0,0,1-2.106.916,2.6,2.6,0,0,1-1.793-.62,2,2,0,0,1-.7-1.568,2.093,2.093,0,0,1,.879-1.8,4.142,4.142,0,0,1,2.471-.639h1.23v-.581a1.416,1.416,0,0,0-.4-1.055,1.6,1.6,0,0,0-1.17-.394,1.846,1.846,0,0,0-1.135.342,1.009,1.009,0,0,0-.458.827h-1.271a1.748,1.748,0,0,1,.393-1.07,2.678,2.678,0,0,1,1.068-.817,3.582,3.582,0,0,1,1.478-.3,2.932,2.932,0,0,1,2,.638,2.308,2.308,0,0,1,.751,1.761v3.4a4.164,4.164,0,0,0,.26,1.62v.11Zm-2.1-.964a2.223,2.223,0,0,0,1.127-.308,1.852,1.852,0,0,0,.772-.8v-1.518h-.99q-2.326,0-2.325,1.36a1.153,1.153,0,0,0,.4.93,1.523,1.523,0,0,0,1.02.335"/>
      <path id="Trazado_720381" data-name="Trazado 720381" d="M499.423,320.288a.929.929,0,0,0-.387-.8,3.721,3.721,0,0,0-1.345-.489,6.418,6.418,0,0,1-1.526-.492,2.183,2.183,0,0,1-.834-.684,1.644,1.644,0,0,1-.269-.943,1.916,1.916,0,0,1,.769-1.538,3,3,0,0,1,1.965-.629,3.1,3.1,0,0,1,2.041.649,2.061,2.061,0,0,1,.782,1.661h-1.271a1.145,1.145,0,0,0-.441-.9,1.654,1.654,0,0,0-1.111-.376,1.727,1.727,0,0,0-1.08.3.945.945,0,0,0-.39.786.766.766,0,0,0,.363.69,4.436,4.436,0,0,0,1.308.444,6.828,6.828,0,0,1,1.535.506,2.235,2.235,0,0,1,.871.708,1.735,1.735,0,0,1,.285,1.008,1.9,1.9,0,0,1-.793,1.59,3.333,3.333,0,0,1-2.058.6,3.716,3.716,0,0,1-1.572-.315,2.558,2.558,0,0,1-1.071-.879,2.122,2.122,0,0,1-.385-1.219h1.264a1.312,1.312,0,0,0,.51,1.008,1.978,1.978,0,0,0,1.254.372,2.038,2.038,0,0,0,1.152-.29.9.9,0,0,0,.434-.776"/>
      <path id="Trazado_720382" data-name="Trazado 720382" d="M502.294,324.232l-.718-.492a3.292,3.292,0,0,0,.67-1.846v-1.141h1.237v.991a3.134,3.134,0,0,1-.337,1.381,3.251,3.251,0,0,1-.852,1.107"/>
      <path id="Trazado_720383" data-name="Trazado 720383" d="M514.242,319.645h-4.169l-.936,2.605h-1.354l3.8-9.953h1.149l3.807,9.953h-1.346Zm-3.772-1.073h3.383l-1.7-4.655Z"/>
      <path id="Trazado_720384" data-name="Trazado 720384" d="M517.709,321.587a.787.787,0,0,1,.2-.547.744.744,0,0,1,.584-.219.77.77,0,0,1,.592.219.778.778,0,0,1,.2.547.733.733,0,0,1-.2.526.778.778,0,0,1-.592.212.752.752,0,0,1-.584-.212.742.742,0,0,1-.2-.526"/>
      <path id="Trazado_720385" data-name="Trazado 720385" d="M364.714,338.154a1.825,1.825,0,0,0,1.183-.41,1.442,1.442,0,0,0,.56-1.026h1.2a2.282,2.282,0,0,1-.437,1.21,2.878,2.878,0,0,1-1.076.916,3.109,3.109,0,0,1-1.426.342,3.043,3.043,0,0,1-2.4-1.008,4.008,4.008,0,0,1-.893-2.758v-.212a4.442,4.442,0,0,1,.4-1.921,3.013,3.013,0,0,1,1.138-1.306,3.237,3.237,0,0,1,1.753-.465,2.966,2.966,0,0,1,2.068.745,2.663,2.663,0,0,1,.878,1.935h-1.2a1.744,1.744,0,0,0-.544-1.18,1.694,1.694,0,0,0-1.206-.461,1.771,1.771,0,0,0-1.493.694,3.256,3.256,0,0,0-.53,2.007v.239a3.2,3.2,0,0,0,.526,1.969,1.78,1.78,0,0,0,1.5.69"/>
      <path id="Trazado_720386" data-name="Trazado 720386" d="M373.641,338.318a2.686,2.686,0,0,1-2.167.868,2.3,2.3,0,0,1-1.8-.687,2.977,2.977,0,0,1-.625-2.034v-4.812h1.265v4.778q0,1.682,1.367,1.682a1.894,1.894,0,0,0,1.928-1.08v-5.38h1.264v7.4h-1.2Z"/>
      <path id="Trazado_720387" data-name="Trazado 720387" d="M381.359,339.05a2.629,2.629,0,0,1-.178-.779,2.825,2.825,0,0,1-2.106.916,2.6,2.6,0,0,1-1.794-.62,2,2,0,0,1-.7-1.568,2.094,2.094,0,0,1,.878-1.795,4.146,4.146,0,0,1,2.472-.639h1.23v-.581a1.413,1.413,0,0,0-.4-1.055,1.591,1.591,0,0,0-1.169-.394,1.846,1.846,0,0,0-1.135.342,1.009,1.009,0,0,0-.458.827h-1.271a1.748,1.748,0,0,1,.393-1.07,2.682,2.682,0,0,1,1.067-.817,3.587,3.587,0,0,1,1.479-.3,2.928,2.928,0,0,1,2,.638,2.312,2.312,0,0,1,.752,1.761v3.4a4.164,4.164,0,0,0,.26,1.62v.11Zm-2.1-.964a2.227,2.227,0,0,0,1.128-.308,1.858,1.858,0,0,0,.772-.8v-1.518h-.991q-2.325,0-2.324,1.36a1.153,1.153,0,0,0,.4.93,1.522,1.522,0,0,0,1.019.335"/>
      <path id="Trazado_720388" data-name="Trazado 720388" d="M387.983,332.788a3.77,3.77,0,0,0-.622-.048,1.668,1.668,0,0,0-1.689,1.06v5.25h-1.264v-7.4h1.23l.021.855a1.969,1.969,0,0,1,1.763-.991,1.306,1.306,0,0,1,.561.1Z"/>
      <path id="Trazado_720389" data-name="Trazado 720389" d="M392.084,339.187a3.229,3.229,0,0,1-2.447-.988,3.666,3.666,0,0,1-.943-2.642v-.232a4.432,4.432,0,0,1,.42-1.966,3.28,3.28,0,0,1,1.176-1.354,2.96,2.96,0,0,1,1.637-.488,2.767,2.767,0,0,1,2.242.95,4.116,4.116,0,0,1,.8,2.721v.526h-5.011a2.638,2.638,0,0,0,.639,1.768,2.014,2.014,0,0,0,1.556.673,2.192,2.192,0,0,0,1.134-.274,2.865,2.865,0,0,0,.814-.724l.772.6a3.108,3.108,0,0,1-2.789,1.429m-.157-6.631a1.688,1.688,0,0,0-1.285.557,2.705,2.705,0,0,0-.643,1.562H393.7v-.1a2.416,2.416,0,0,0-.519-1.494,1.593,1.593,0,0,0-1.258-.529"/>
      <path id="Trazado_720390" data-name="Trazado 720390" d="M397.629,331.653l.041.93a2.7,2.7,0,0,1,2.215-1.067q2.344,0,2.365,2.646v4.887h-1.265v-4.894a1.707,1.707,0,0,0-.365-1.183,1.468,1.468,0,0,0-1.118-.382,1.824,1.824,0,0,0-1.08.328,2.224,2.224,0,0,0-.725.861v5.27h-1.264v-7.4Z"/>
      <path id="Trazado_720391" data-name="Trazado 720391" d="M405.873,329.862v1.791h1.381v.978h-1.381v4.592a1.025,1.025,0,0,0,.185.667.774.774,0,0,0,.628.223,3.038,3.038,0,0,0,.6-.082v1.019a3.672,3.672,0,0,1-.971.136,1.576,1.576,0,0,1-1.278-.512,2.206,2.206,0,0,1-.431-1.457v-4.586h-1.346v-.978h1.346v-1.791Z"/>
      <path id="Trazado_720392" data-name="Trazado 720392" d="M411.8,339.187a3.229,3.229,0,0,1-2.447-.988,3.666,3.666,0,0,1-.943-2.642v-.232a4.432,4.432,0,0,1,.42-1.966,3.28,3.28,0,0,1,1.176-1.354,2.96,2.96,0,0,1,1.637-.488,2.767,2.767,0,0,1,2.242.95,4.116,4.116,0,0,1,.8,2.721v.526h-5.011a2.638,2.638,0,0,0,.639,1.768,2.014,2.014,0,0,0,1.556.673,2.192,2.192,0,0,0,1.134-.274,2.865,2.865,0,0,0,.814-.724l.772.6a3.108,3.108,0,0,1-2.789,1.429m-.157-6.631a1.688,1.688,0,0,0-1.285.557,2.705,2.705,0,0,0-.643,1.562h3.705v-.1a2.415,2.415,0,0,0-.519-1.494,1.593,1.593,0,0,0-1.258-.529"/>
      <path id="Trazado_720393" data-name="Trazado 720393" d="M417.344,331.653l.04.93a2.7,2.7,0,0,1,2.215-1.067q2.344,0,2.365,2.646v4.887H420.7v-4.894a1.712,1.712,0,0,0-.364-1.183,1.47,1.47,0,0,0-1.119-.382,1.821,1.821,0,0,0-1.079.328,2.226,2.226,0,0,0-.726.861v5.27h-1.264v-7.4Z"/>
      <path id="Trazado_720394" data-name="Trazado 720394" d="M428.439,339.05a2.63,2.63,0,0,1-.178-.779,2.825,2.825,0,0,1-2.106.916,2.6,2.6,0,0,1-1.794-.62,2,2,0,0,1-.7-1.568,2.094,2.094,0,0,1,.878-1.795,4.146,4.146,0,0,1,2.472-.639h1.23v-.581a1.413,1.413,0,0,0-.4-1.055,1.591,1.591,0,0,0-1.169-.394,1.845,1.845,0,0,0-1.135.342,1.009,1.009,0,0,0-.458.827h-1.271a1.748,1.748,0,0,1,.393-1.07,2.682,2.682,0,0,1,1.067-.817,3.587,3.587,0,0,1,1.479-.3,2.928,2.928,0,0,1,2,.638,2.312,2.312,0,0,1,.752,1.761v3.4a4.164,4.164,0,0,0,.26,1.62v.11Zm-2.1-.964a2.227,2.227,0,0,0,1.128-.308,1.858,1.858,0,0,0,.772-.8v-1.518h-.991q-2.325,0-2.324,1.36a1.153,1.153,0,0,0,.4.93,1.522,1.522,0,0,0,1.019.335"/>
      <path id="Trazado_720395" data-name="Trazado 720395" d="M431.446,341.032l-.718-.492a3.292,3.292,0,0,0,.67-1.846v-1.141h1.237v.991a3.134,3.134,0,0,1-.337,1.381,3.251,3.251,0,0,1-.852,1.107"/>
      <path id="Trazado_720396" data-name="Trazado 720396" d="M440.141,337.334l1.832-5.681h1.292l-2.652,7.4h-.964l-2.68-7.4h1.292Z"/>
      <path id="Trazado_720397" data-name="Trazado 720397" d="M447.462,339.187a3.229,3.229,0,0,1-2.447-.988,3.666,3.666,0,0,1-.943-2.642v-.232a4.432,4.432,0,0,1,.42-1.966,3.28,3.28,0,0,1,1.176-1.354,2.96,2.96,0,0,1,1.637-.488,2.767,2.767,0,0,1,2.242.95,4.116,4.116,0,0,1,.8,2.721v.526h-5.011a2.638,2.638,0,0,0,.639,1.768,2.014,2.014,0,0,0,1.556.673,2.192,2.192,0,0,0,1.134-.274,2.865,2.865,0,0,0,.814-.724l.772.6a3.108,3.108,0,0,1-2.789,1.429m-.157-6.631a1.688,1.688,0,0,0-1.285.557,2.705,2.705,0,0,0-.643,1.562h3.7v-.1a2.415,2.415,0,0,0-.519-1.494,1.593,1.593,0,0,0-1.258-.529"/>
      <path id="Trazado_720398" data-name="Trazado 720398" d="M453.007,331.653l.041.93a2.7,2.7,0,0,1,2.215-1.067q2.344,0,2.365,2.646v4.887h-1.265v-4.894a1.707,1.707,0,0,0-.365-1.183,1.468,1.468,0,0,0-1.118-.382,1.824,1.824,0,0,0-1.08.328,2.223,2.223,0,0,0-.725.861v5.27h-1.264v-7.4Z"/>
      <path id="Trazado_720399" data-name="Trazado 720399" d="M462.5,338.154a1.825,1.825,0,0,0,1.183-.41,1.442,1.442,0,0,0,.56-1.026h1.2a2.282,2.282,0,0,1-.437,1.21,2.878,2.878,0,0,1-1.076.916,3.109,3.109,0,0,1-1.426.342,3.043,3.043,0,0,1-2.4-1.008,4.008,4.008,0,0,1-.893-2.758v-.212a4.442,4.442,0,0,1,.4-1.921,3.013,3.013,0,0,1,1.138-1.306,3.237,3.237,0,0,1,1.753-.465,2.966,2.966,0,0,1,2.068.745,2.663,2.663,0,0,1,.878,1.935h-1.2a1.744,1.744,0,0,0-.544-1.18,1.694,1.694,0,0,0-1.206-.461,1.771,1.771,0,0,0-1.493.694,3.256,3.256,0,0,0-.53,2.007v.239a3.2,3.2,0,0,0,.526,1.969,1.78,1.78,0,0,0,1.5.69"/>
      <path id="Trazado_720400" data-name="Trazado 720400" d="M466.87,329.691a.75.75,0,0,1,.188-.519.7.7,0,0,1,.557-.212.716.716,0,0,1,.561.212.748.748,0,0,1,.191.519.684.684,0,0,1-.752.718.717.717,0,0,1-.557-.2.728.728,0,0,1-.188-.513m1.367,9.359h-1.265v-7.4h1.265Z"/>
      <path id="Trazado_720401" data-name="Trazado 720401" d="M471.45,331.653l.034.82a2.735,2.735,0,0,1,2.195-.957,2.115,2.115,0,0,1,2.112,1.19,2.8,2.8,0,0,1,.96-.862,2.844,2.844,0,0,1,1.4-.328q2.433,0,2.475,2.577v4.956h-1.265v-4.88a1.7,1.7,0,0,0-.362-1.186,1.593,1.593,0,0,0-1.217-.393,1.673,1.673,0,0,0-1.169.42,1.71,1.71,0,0,0-.54,1.131v4.908H474.8V334.2a1.411,1.411,0,0,0-1.579-1.613,1.693,1.693,0,0,0-1.7,1.059v5.4h-1.264v-7.4Z"/>
      <path id="Trazado_720402" data-name="Trazado 720402" d="M482.538,329.691a.75.75,0,0,1,.188-.519.7.7,0,0,1,.557-.212.716.716,0,0,1,.561.212.748.748,0,0,1,.191.519.684.684,0,0,1-.752.718.717.717,0,0,1-.557-.2.728.728,0,0,1-.188-.513m1.367,9.359H482.64v-7.4H483.9Z"/>
      <path id="Trazado_720403" data-name="Trazado 720403" d="M489,339.187a3.229,3.229,0,0,1-2.447-.988,3.666,3.666,0,0,1-.943-2.642v-.232a4.432,4.432,0,0,1,.42-1.966,3.28,3.28,0,0,1,1.176-1.354,2.96,2.96,0,0,1,1.637-.488,2.767,2.767,0,0,1,2.242.95,4.116,4.116,0,0,1,.8,2.721v.526h-5.011a2.638,2.638,0,0,0,.639,1.768,2.014,2.014,0,0,0,1.556.673,2.192,2.192,0,0,0,1.134-.274,2.865,2.865,0,0,0,.814-.724l.772.6A3.108,3.108,0,0,1,489,339.187m-.157-6.631a1.688,1.688,0,0,0-1.285.557,2.705,2.705,0,0,0-.643,1.562h3.705v-.1a2.416,2.416,0,0,0-.519-1.494,1.593,1.593,0,0,0-1.258-.529"/>
      <path id="Trazado_720404" data-name="Trazado 720404" d="M494.542,331.653l.041.93a2.7,2.7,0,0,1,2.215-1.067q2.344,0,2.365,2.646v4.887H497.9v-4.894a1.707,1.707,0,0,0-.365-1.183,1.468,1.468,0,0,0-1.118-.382,1.824,1.824,0,0,0-1.08.328,2.224,2.224,0,0,0-.725.861v5.27h-1.264v-7.4Z"/>
      <path id="Trazado_720405" data-name="Trazado 720405" d="M502.786,329.862v1.791h1.381v.978h-1.381v4.592a1.025,1.025,0,0,0,.185.667.774.774,0,0,0,.628.223,3.038,3.038,0,0,0,.6-.082v1.019a3.671,3.671,0,0,1-.971.136,1.576,1.576,0,0,1-1.278-.512,2.206,2.206,0,0,1-.431-1.457v-4.586h-1.346v-.978h1.346v-1.791Z"/>
      <path id="Trazado_720406" data-name="Trazado 720406" d="M505.172,335.283a4.379,4.379,0,0,1,.426-1.955,3.181,3.181,0,0,1,1.19-1.34,3.238,3.238,0,0,1,1.74-.472,3.117,3.117,0,0,1,2.443,1.046,4.02,4.02,0,0,1,.934,2.782v.089a4.4,4.4,0,0,1-.414,1.938,3.144,3.144,0,0,1-1.182,1.336,3.268,3.268,0,0,1-1.767.479,3.115,3.115,0,0,1-2.438-1.046,4.008,4.008,0,0,1-.932-2.769Zm1.271.15a3.164,3.164,0,0,0,.571,1.976,1.935,1.935,0,0,0,3.059-.01,3.464,3.464,0,0,0,.567-2.116,3.156,3.156,0,0,0-.577-1.972,1.838,1.838,0,0,0-1.535-.756,1.816,1.816,0,0,0-1.511.745,3.435,3.435,0,0,0-.574,2.133"/>
      <path id="Trazado_720407" data-name="Trazado 720407" d="M513.45,341.032l-.718-.492a3.292,3.292,0,0,0,.67-1.846v-1.141h1.237v.991a3.134,3.134,0,0,1-.337,1.381,3.251,3.251,0,0,1-.852,1.107"/>
      <path id="Trazado_720408" data-name="Trazado 720408" d="M522.774,339.187a3.229,3.229,0,0,1-2.447-.988,3.666,3.666,0,0,1-.943-2.642v-.232a4.432,4.432,0,0,1,.42-1.966,3.28,3.28,0,0,1,1.176-1.354,2.96,2.96,0,0,1,1.637-.488,2.767,2.767,0,0,1,2.242.95,4.116,4.116,0,0,1,.8,2.721v.526h-5.011a2.638,2.638,0,0,0,.639,1.768,2.014,2.014,0,0,0,1.556.673,2.192,2.192,0,0,0,1.134-.274,2.865,2.865,0,0,0,.814-.724l.772.6a3.108,3.108,0,0,1-2.789,1.429m-.157-6.631a1.688,1.688,0,0,0-1.285.557,2.7,2.7,0,0,0-.643,1.562h3.7v-.1a2.415,2.415,0,0,0-.519-1.494,1.593,1.593,0,0,0-1.258-.529"/>
      <path id="Trazado_720409" data-name="Trazado 720409" d="M528.838,329.862v1.791h1.381v.978h-1.381v4.592a1.025,1.025,0,0,0,.185.667.774.774,0,0,0,.628.223,3.038,3.038,0,0,0,.6-.082v1.019a3.672,3.672,0,0,1-.971.136,1.576,1.576,0,0,1-1.278-.512,2.206,2.206,0,0,1-.431-1.457v-4.586h-1.346v-.978h1.346v-1.791Z"/>
      <path id="Trazado_720410" data-name="Trazado 720410" d="M534.662,338.154a1.825,1.825,0,0,0,1.183-.41,1.442,1.442,0,0,0,.56-1.026h1.2a2.283,2.283,0,0,1-.437,1.21,2.877,2.877,0,0,1-1.076.916,3.109,3.109,0,0,1-1.426.342,3.043,3.043,0,0,1-2.4-1.008,4.008,4.008,0,0,1-.893-2.758v-.212a4.443,4.443,0,0,1,.4-1.921,3.013,3.013,0,0,1,1.138-1.306,3.237,3.237,0,0,1,1.753-.465,2.966,2.966,0,0,1,2.068.745,2.663,2.663,0,0,1,.878,1.935h-1.2a1.745,1.745,0,0,0-.544-1.18,1.694,1.694,0,0,0-1.206-.461,1.771,1.771,0,0,0-1.493.694,3.256,3.256,0,0,0-.53,2.007v.239a3.2,3.2,0,0,0,.526,1.969,1.78,1.78,0,0,0,1.5.69"/>
      <path id="Trazado_720411" data-name="Trazado 720411" d="M539.05,338.387a.787.787,0,0,1,.2-.547.744.744,0,0,1,.584-.219.77.77,0,0,1,.592.219.778.778,0,0,1,.2.547.733.733,0,0,1-.2.526.778.778,0,0,1-.592.212.752.752,0,0,1-.584-.212.742.742,0,0,1-.2-.526"/>
      <path id="Trazado_720412" data-name="Trazado 720412" d="M410.911,396.873a6.177,6.177,0,0,1-2.457-1.192,2.279,2.279,0,0,1-.77-1.747,2.407,2.407,0,0,1,.94-1.945,3.734,3.734,0,0,1,2.444-.769,4.084,4.084,0,0,1,1.829.4,3.014,3.014,0,0,1,1.244,1.094,2.8,2.8,0,0,1,.441,1.524h-1.319a1.819,1.819,0,0,0-.575-1.423,2.335,2.335,0,0,0-1.62-.518,2.394,2.394,0,0,0-1.514.428,1.428,1.428,0,0,0-.543,1.188,1.282,1.282,0,0,0,.515,1.03,5.049,5.049,0,0,0,1.758.771,8.23,8.23,0,0,1,1.941.769,2.978,2.978,0,0,1,1.04.982,2.517,2.517,0,0,1,.337,1.319,2.324,2.324,0,0,1-.943,1.938,4.018,4.018,0,0,1-2.522.728,4.691,4.691,0,0,1-1.914-.392,3.223,3.223,0,0,1-1.371-1.077,2.626,2.626,0,0,1-.482-1.552h1.319a1.717,1.717,0,0,0,.667,1.426,2.814,2.814,0,0,0,1.781.522,2.582,2.582,0,0,0,1.592-.424,1.374,1.374,0,0,0,.554-1.155,1.351,1.351,0,0,0-.513-1.131,5.879,5.879,0,0,0-1.859-.79"/>
      <path id="Trazado_720413" data-name="Trazado 720413" d="M419.155,401.446a3.229,3.229,0,0,1-2.447-.988,3.666,3.666,0,0,1-.943-2.642v-.232a4.432,4.432,0,0,1,.42-1.966,3.28,3.28,0,0,1,1.176-1.354,2.96,2.96,0,0,1,1.637-.488,2.767,2.767,0,0,1,2.242.95,4.116,4.116,0,0,1,.8,2.721v.526h-5.011a2.638,2.638,0,0,0,.639,1.768,2.014,2.014,0,0,0,1.556.673,2.192,2.192,0,0,0,1.134-.274,2.864,2.864,0,0,0,.814-.724l.772.6a3.108,3.108,0,0,1-2.789,1.429M419,394.815a1.688,1.688,0,0,0-1.285.557,2.7,2.7,0,0,0-.643,1.562h3.7v-.1a2.415,2.415,0,0,0-.519-1.494,1.593,1.593,0,0,0-1.258-.529"/>
      <path id="Trazado_720414" data-name="Trazado 720414" d="M430.038,401.446a3.229,3.229,0,0,1-2.447-.988,3.666,3.666,0,0,1-.943-2.642v-.232a4.432,4.432,0,0,1,.42-1.966,3.28,3.28,0,0,1,1.176-1.354,2.96,2.96,0,0,1,1.637-.488,2.767,2.767,0,0,1,2.242.95,4.116,4.116,0,0,1,.8,2.721v.526h-5.011a2.638,2.638,0,0,0,.639,1.768,2.014,2.014,0,0,0,1.556.673,2.192,2.192,0,0,0,1.134-.274,2.864,2.864,0,0,0,.814-.724l.772.6a3.108,3.108,0,0,1-2.789,1.429m-.157-6.631a1.688,1.688,0,0,0-1.285.557,2.7,2.7,0,0,0-.643,1.562h3.7v-.1a2.415,2.415,0,0,0-.519-1.494,1.593,1.593,0,0,0-1.258-.529"/>
      <path id="Trazado_720415" data-name="Trazado 720415" d="M435.582,393.913l.041.93a2.7,2.7,0,0,1,2.215-1.067q2.344,0,2.365,2.646v4.887h-1.265v-4.894a1.707,1.707,0,0,0-.365-1.183,1.468,1.468,0,0,0-1.118-.382,1.824,1.824,0,0,0-1.08.328,2.224,2.224,0,0,0-.725.861v5.27h-1.264v-7.4Z"/>
      <path id="Trazado_720416" data-name="Trazado 720416" d="M445.077,400.414a1.825,1.825,0,0,0,1.183-.41,1.442,1.442,0,0,0,.56-1.026h1.2a2.282,2.282,0,0,1-.437,1.21,2.878,2.878,0,0,1-1.076.916,3.109,3.109,0,0,1-1.426.342,3.044,3.044,0,0,1-2.4-1.008,4.008,4.008,0,0,1-.893-2.758v-.212a4.442,4.442,0,0,1,.4-1.921,3.013,3.013,0,0,1,1.138-1.306,3.237,3.237,0,0,1,1.753-.465,2.966,2.966,0,0,1,2.068.745,2.663,2.663,0,0,1,.878,1.935h-1.2a1.744,1.744,0,0,0-.544-1.18,1.694,1.694,0,0,0-1.206-.461,1.771,1.771,0,0,0-1.493.694,3.256,3.256,0,0,0-.53,2.007v.239a3.2,3.2,0,0,0,.526,1.969,1.78,1.78,0,0,0,1.5.69"/>
      <path id="Trazado_720417" data-name="Trazado 720417" d="M454.005,400.578a2.686,2.686,0,0,1-2.167.868,2.3,2.3,0,0,1-1.8-.687,2.977,2.977,0,0,1-.625-2.034v-4.812h1.265v4.778q0,1.682,1.367,1.682a1.894,1.894,0,0,0,1.928-1.08v-5.38h1.264v7.4h-1.2Z"/>
      <path id="Trazado_720418" data-name="Trazado 720418" d="M460.225,401.446a3.229,3.229,0,0,1-2.447-.988,3.666,3.666,0,0,1-.943-2.642v-.232a4.432,4.432,0,0,1,.42-1.966,3.28,3.28,0,0,1,1.176-1.354,2.96,2.96,0,0,1,1.637-.488,2.767,2.767,0,0,1,2.242.95,4.116,4.116,0,0,1,.8,2.721v.526H458.1a2.638,2.638,0,0,0,.639,1.768,2.014,2.014,0,0,0,1.556.673,2.192,2.192,0,0,0,1.134-.274,2.864,2.864,0,0,0,.814-.724l.772.6a3.108,3.108,0,0,1-2.789,1.429m-.157-6.631a1.688,1.688,0,0,0-1.285.557,2.7,2.7,0,0,0-.643,1.562h3.7v-.1a2.415,2.415,0,0,0-.519-1.494,1.593,1.593,0,0,0-1.258-.529"/>
      <path id="Trazado_720419" data-name="Trazado 720419" d="M465.769,393.913l.041.93a2.7,2.7,0,0,1,2.215-1.067q2.345,0,2.365,2.646v4.887h-1.265v-4.894a1.707,1.707,0,0,0-.365-1.183,1.468,1.468,0,0,0-1.118-.382,1.824,1.824,0,0,0-1.08.328,2.224,2.224,0,0,0-.725.861v5.27h-1.264v-7.4Z"/>
      <path id="Trazado_720420" data-name="Trazado 720420" d="M474.013,392.122v1.791h1.381v.978h-1.381v4.592a1.025,1.025,0,0,0,.185.667.774.774,0,0,0,.628.223,3.036,3.036,0,0,0,.6-.082v1.019a3.672,3.672,0,0,1-.971.136,1.576,1.576,0,0,1-1.278-.512,2.206,2.206,0,0,1-.431-1.457v-4.586H471.4v-.978h1.346v-1.791Z"/>
      <path id="Trazado_720421" data-name="Trazado 720421" d="M480.446,395.048a3.767,3.767,0,0,0-.622-.048,1.668,1.668,0,0,0-1.689,1.06v5.25h-1.264v-7.4h1.23l.021.855a1.969,1.969,0,0,1,1.763-.991,1.306,1.306,0,0,1,.561.1Z"/>
      <path id="Trazado_720422" data-name="Trazado 720422" d="M485.9,401.31a2.63,2.63,0,0,1-.178-.779,2.825,2.825,0,0,1-2.106.916,2.6,2.6,0,0,1-1.794-.62,2,2,0,0,1-.7-1.568,2.094,2.094,0,0,1,.878-1.8,4.146,4.146,0,0,1,2.472-.639h1.23v-.581a1.413,1.413,0,0,0-.4-1.055,1.591,1.591,0,0,0-1.169-.394,1.846,1.846,0,0,0-1.135.342,1.009,1.009,0,0,0-.458.827h-1.271a1.748,1.748,0,0,1,.393-1.07,2.682,2.682,0,0,1,1.067-.817,3.587,3.587,0,0,1,1.479-.3,2.928,2.928,0,0,1,2,.638,2.312,2.312,0,0,1,.752,1.761v3.4a4.164,4.164,0,0,0,.26,1.62v.11Zm-2.1-.964a2.227,2.227,0,0,0,1.128-.308,1.858,1.858,0,0,0,.772-.8v-1.518h-.991q-2.325,0-2.324,1.36a1.153,1.153,0,0,0,.4.93,1.522,1.522,0,0,0,1.019.335"/>
      <path id="Trazado_720423" data-name="Trazado 720423" d="M490.146,393.913l.041.93a2.7,2.7,0,0,1,2.215-1.067q2.344,0,2.365,2.646v4.887H493.5v-4.894a1.707,1.707,0,0,0-.365-1.183,1.468,1.468,0,0,0-1.118-.382,1.824,1.824,0,0,0-1.08.328,2.224,2.224,0,0,0-.725.861v5.27H488.95v-7.4Z"/>
      <rect id="Rectángulo_350917" data-name="Rectángulo 350917" width="1.265" height="10.5" transform="translate(409.793 407.609)"/>
      <path id="Trazado_720424" data-name="Trazado 720424" d="M412.747,414.343a4.379,4.379,0,0,1,.426-1.955,3.181,3.181,0,0,1,1.19-1.34,3.238,3.238,0,0,1,1.74-.472,3.117,3.117,0,0,1,2.443,1.046,4.02,4.02,0,0,1,.934,2.782v.089a4.4,4.4,0,0,1-.414,1.938,3.144,3.144,0,0,1-1.182,1.336,3.268,3.268,0,0,1-1.767.479,3.115,3.115,0,0,1-2.438-1.046,4.008,4.008,0,0,1-.932-2.769Zm1.271.15a3.164,3.164,0,0,0,.571,1.976,1.935,1.935,0,0,0,3.059-.01,3.464,3.464,0,0,0,.567-2.116,3.156,3.156,0,0,0-.577-1.972,1.838,1.838,0,0,0-1.535-.756,1.816,1.816,0,0,0-1.511.745,3.435,3.435,0,0,0-.574,2.133"/>
      <path id="Trazado_720425" data-name="Trazado 720425" d="M425.373,416.147a.929.929,0,0,0-.387-.8,3.719,3.719,0,0,0-1.345-.489,6.419,6.419,0,0,1-1.526-.492,2.184,2.184,0,0,1-.834-.684,1.644,1.644,0,0,1-.269-.943,1.916,1.916,0,0,1,.769-1.538,3,3,0,0,1,1.965-.629,3.1,3.1,0,0,1,2.041.649,2.061,2.061,0,0,1,.782,1.661H425.3a1.145,1.145,0,0,0-.441-.895,1.654,1.654,0,0,0-1.111-.376,1.727,1.727,0,0,0-1.08.3.945.945,0,0,0-.39.786.766.766,0,0,0,.363.69,4.436,4.436,0,0,0,1.308.444,6.827,6.827,0,0,1,1.535.506,2.235,2.235,0,0,1,.871.708,1.734,1.734,0,0,1,.285,1.008,1.9,1.9,0,0,1-.793,1.59,3.333,3.333,0,0,1-2.058.6,3.717,3.717,0,0,1-1.572-.315,2.559,2.559,0,0,1-1.071-.879,2.122,2.122,0,0,1-.385-1.219h1.264a1.311,1.311,0,0,0,.51,1.008,1.978,1.978,0,0,0,1.254.372,2.038,2.038,0,0,0,1.152-.29.9.9,0,0,0,.434-.776"/>
      <path id="Trazado_720426" data-name="Trazado 720426" d="M438,414.493a4.426,4.426,0,0,1-.773,2.72,2.472,2.472,0,0,1-2.092,1.032,2.715,2.715,0,0,1-2.119-.854v3.562h-1.264V410.712h1.155l.061.821a2.606,2.606,0,0,1,2.147-.957,2.523,2.523,0,0,1,2.109,1,4.479,4.479,0,0,1,.776,2.8Zm-1.265-.144a3.274,3.274,0,0,0-.533-1.976,1.718,1.718,0,0,0-1.463-.724,1.861,1.861,0,0,0-1.723,1.018V416.2a1.863,1.863,0,0,0,1.737,1.011,1.711,1.711,0,0,0,1.446-.721,3.573,3.573,0,0,0,.536-2.143"/>
      <path id="Trazado_720427" data-name="Trazado 720427" d="M443.18,411.848a3.769,3.769,0,0,0-.622-.048,1.668,1.668,0,0,0-1.689,1.06v5.25h-1.264v-7.4h1.23l.021.855a1.969,1.969,0,0,1,1.763-.991,1.306,1.306,0,0,1,.561.1Z"/>
      <path id="Trazado_720428" data-name="Trazado 720428" d="M443.871,414.343a4.379,4.379,0,0,1,.426-1.955,3.181,3.181,0,0,1,1.19-1.34,3.238,3.238,0,0,1,1.74-.472,3.117,3.117,0,0,1,2.443,1.046,4.02,4.02,0,0,1,.934,2.782v.089a4.4,4.4,0,0,1-.414,1.938,3.144,3.144,0,0,1-1.182,1.336,3.268,3.268,0,0,1-1.767.479A3.115,3.115,0,0,1,444.8,417.2a4.008,4.008,0,0,1-.932-2.769Zm1.271.15a3.164,3.164,0,0,0,.571,1.976,1.935,1.935,0,0,0,3.059-.01,3.464,3.464,0,0,0,.567-2.116,3.156,3.156,0,0,0-.577-1.972,1.838,1.838,0,0,0-1.535-.756,1.816,1.816,0,0,0-1.511.745,3.435,3.435,0,0,0-.574,2.133"/>
      <path id="Trazado_720429" data-name="Trazado 720429" d="M451.882,414.349a4.337,4.337,0,0,1,.807-2.738,2.745,2.745,0,0,1,4.17-.146v-3.856h1.265v10.5h-1.163l-.061-.793a2.575,2.575,0,0,1-2.112.93,2.529,2.529,0,0,1-2.1-1.053,4.389,4.389,0,0,1-.81-2.748Zm1.265.144a3.276,3.276,0,0,0,.52,1.969,1.681,1.681,0,0,0,1.435.711,1.847,1.847,0,0,0,1.757-1.08v-3.4a1.859,1.859,0,0,0-1.743-1.046,1.688,1.688,0,0,0-1.449.718,3.61,3.61,0,0,0-.52,2.126"/>
      <path id="Trazado_720430" data-name="Trazado 720430" d="M464.652,417.378a2.686,2.686,0,0,1-2.167.868,2.3,2.3,0,0,1-1.8-.687,2.977,2.977,0,0,1-.625-2.034v-4.812h1.265v4.778q0,1.682,1.367,1.682a1.894,1.894,0,0,0,1.928-1.08v-5.38h1.264v7.4h-1.2Z"/>
      <path id="Trazado_720431" data-name="Trazado 720431" d="M470.77,417.214a1.825,1.825,0,0,0,1.183-.41,1.442,1.442,0,0,0,.56-1.026h1.2a2.282,2.282,0,0,1-.437,1.21,2.878,2.878,0,0,1-1.076.916,3.109,3.109,0,0,1-1.426.342,3.043,3.043,0,0,1-2.4-1.008,4.008,4.008,0,0,1-.893-2.758v-.212a4.442,4.442,0,0,1,.4-1.921,3.013,3.013,0,0,1,1.138-1.306,3.237,3.237,0,0,1,1.753-.465,2.966,2.966,0,0,1,2.068.745,2.663,2.663,0,0,1,.878,1.935h-1.2a1.744,1.744,0,0,0-.544-1.18,1.694,1.694,0,0,0-1.206-.461,1.771,1.771,0,0,0-1.493.694,3.256,3.256,0,0,0-.53,2.007v.239a3.2,3.2,0,0,0,.526,1.969,1.78,1.78,0,0,0,1.5.69"/>
      <path id="Trazado_720432" data-name="Trazado 720432" d="M476.847,408.922v1.791h1.381v.978h-1.381v4.592a1.025,1.025,0,0,0,.185.667.774.774,0,0,0,.628.223,3.038,3.038,0,0,0,.6-.082v1.019a3.672,3.672,0,0,1-.971.136,1.576,1.576,0,0,1-1.278-.512,2.206,2.206,0,0,1-.431-1.457v-4.586h-1.346v-.978h1.346v-1.791Z"/>
      <path id="Trazado_720433" data-name="Trazado 720433" d="M479.234,414.343a4.379,4.379,0,0,1,.426-1.955,3.181,3.181,0,0,1,1.19-1.34,3.238,3.238,0,0,1,1.74-.472,3.117,3.117,0,0,1,2.443,1.046,4.02,4.02,0,0,1,.934,2.782v.089a4.4,4.4,0,0,1-.414,1.938,3.144,3.144,0,0,1-1.182,1.336,3.268,3.268,0,0,1-1.767.479,3.115,3.115,0,0,1-2.438-1.046,4.008,4.008,0,0,1-.932-2.769Zm1.271.15a3.164,3.164,0,0,0,.571,1.976,1.935,1.935,0,0,0,3.059-.01,3.464,3.464,0,0,0,.567-2.116,3.156,3.156,0,0,0-.577-1.972,1.838,1.838,0,0,0-1.535-.756,1.816,1.816,0,0,0-1.511.745,3.435,3.435,0,0,0-.574,2.133"/>
      <path id="Trazado_720434" data-name="Trazado 720434" d="M491.859,416.147a.929.929,0,0,0-.387-.8,3.719,3.719,0,0,0-1.345-.489,6.418,6.418,0,0,1-1.526-.492,2.184,2.184,0,0,1-.834-.684,1.644,1.644,0,0,1-.269-.943,1.916,1.916,0,0,1,.769-1.538,3,3,0,0,1,1.965-.629,3.1,3.1,0,0,1,2.041.649,2.06,2.06,0,0,1,.782,1.661h-1.271a1.145,1.145,0,0,0-.441-.895,1.654,1.654,0,0,0-1.111-.376,1.727,1.727,0,0,0-1.08.3.945.945,0,0,0-.39.786.766.766,0,0,0,.363.69,4.436,4.436,0,0,0,1.308.444,6.827,6.827,0,0,1,1.535.506,2.235,2.235,0,0,1,.871.708,1.734,1.734,0,0,1,.285,1.008,1.9,1.9,0,0,1-.793,1.59,3.333,3.333,0,0,1-2.058.6,3.717,3.717,0,0,1-1.572-.315,2.559,2.559,0,0,1-1.071-.879,2.122,2.122,0,0,1-.385-1.219h1.264a1.312,1.312,0,0,0,.51,1.008,1.978,1.978,0,0,0,1.254.372,2.038,2.038,0,0,0,1.152-.29.9.9,0,0,0,.434-.776"/>
      <rect id="Rectángulo_350918" data-name="Rectángulo 350918" width="1.312" height="9.953" transform="translate(26.53 400.518)"/>
      <path id="Trazado_720435" data-name="Trazado 720435" d="M31.239,403.074l.041.93a2.7,2.7,0,0,1,2.215-1.067q2.344,0,2.365,2.646v4.887H34.6v-4.894a1.707,1.707,0,0,0-.365-1.183,1.468,1.468,0,0,0-1.118-.382,1.824,1.824,0,0,0-1.08.328,2.224,2.224,0,0,0-.725.861v5.27H30.043v-7.4Z"/>
      <path id="Trazado_720436" data-name="Trazado 720436" d="M38.389,410.471v-6.419H37.22v-.977h1.169v-.759a2.517,2.517,0,0,1,.636-1.839,2.4,2.4,0,0,1,1.8-.65,3.335,3.335,0,0,1,.868.116l-.069,1.019a3.622,3.622,0,0,0-.683-.061,1.233,1.233,0,0,0-.95.36,1.454,1.454,0,0,0-.335,1.031v.783h1.579v.977H39.654v6.419Z"/>
      <path id="Trazado_720437" data-name="Trazado 720437" d="M42.293,406.7a4.379,4.379,0,0,1,.426-1.955,3.181,3.181,0,0,1,1.19-1.34,3.238,3.238,0,0,1,1.74-.472,3.117,3.117,0,0,1,2.443,1.046,4.02,4.02,0,0,1,.934,2.782v.089a4.4,4.4,0,0,1-.414,1.938,3.144,3.144,0,0,1-1.182,1.336,3.268,3.268,0,0,1-1.767.479,3.115,3.115,0,0,1-2.438-1.046,4.008,4.008,0,0,1-.932-2.769Zm1.271.15a3.164,3.164,0,0,0,.571,1.976,1.935,1.935,0,0,0,3.059-.01,3.464,3.464,0,0,0,.567-2.116,3.156,3.156,0,0,0-.577-1.972,1.838,1.838,0,0,0-1.535-.756,1.816,1.816,0,0,0-1.511.745,3.435,3.435,0,0,0-.574,2.133"/>
      <path id="Trazado_720438" data-name="Trazado 720438" d="M54.187,404.209a3.766,3.766,0,0,0-.622-.048,1.668,1.668,0,0,0-1.689,1.06v5.25H50.612v-7.4h1.23l.021.855a1.969,1.969,0,0,1,1.763-.991,1.306,1.306,0,0,1,.561.1Z"/>
      <path id="Trazado_720439" data-name="Trazado 720439" d="M56.539,403.074l.034.82a2.735,2.735,0,0,1,2.195-.957,2.115,2.115,0,0,1,2.112,1.19,2.8,2.8,0,0,1,.96-.862,2.844,2.844,0,0,1,1.4-.328q2.433,0,2.475,2.577v4.956H64.448v-4.88a1.7,1.7,0,0,0-.362-1.186,1.593,1.593,0,0,0-1.217-.393,1.673,1.673,0,0,0-1.169.42,1.71,1.71,0,0,0-.54,1.131v4.908H59.889v-4.846a1.411,1.411,0,0,0-1.579-1.613,1.693,1.693,0,0,0-1.7,1.059v5.4H55.343v-7.4Z"/>
      <path id="Trazado_720440" data-name="Trazado 720440" d="M72.187,410.471a2.63,2.63,0,0,1-.178-.779,2.825,2.825,0,0,1-2.106.916,2.6,2.6,0,0,1-1.794-.62,2,2,0,0,1-.7-1.568,2.094,2.094,0,0,1,.878-1.8,4.146,4.146,0,0,1,2.472-.639h1.23V405.4a1.413,1.413,0,0,0-.4-1.055,1.591,1.591,0,0,0-1.169-.394,1.846,1.846,0,0,0-1.135.342,1.009,1.009,0,0,0-.458.827H67.559a1.748,1.748,0,0,1,.393-1.07,2.682,2.682,0,0,1,1.067-.817,3.587,3.587,0,0,1,1.479-.3,2.928,2.928,0,0,1,2,.638,2.312,2.312,0,0,1,.752,1.761v3.4a4.164,4.164,0,0,0,.26,1.62v.11Zm-2.1-.964a2.227,2.227,0,0,0,1.128-.308,1.858,1.858,0,0,0,.772-.8v-1.518H71q-2.325,0-2.324,1.36a1.153,1.153,0,0,0,.4.93,1.522,1.522,0,0,0,1.019.335"/>
      <path id="Trazado_720441" data-name="Trazado 720441" d="M78.81,404.209a3.766,3.766,0,0,0-.622-.048,1.668,1.668,0,0,0-1.689,1.06v5.25H75.235v-7.4h1.23l.021.855a1.969,1.969,0,0,1,1.763-.991,1.306,1.306,0,0,1,.561.1Z"/>
      <path id="Trazado_720442" data-name="Trazado 720442" d="M88,410.471a2.63,2.63,0,0,1-.178-.779,2.825,2.825,0,0,1-2.106.916,2.6,2.6,0,0,1-1.794-.62,2,2,0,0,1-.7-1.568,2.094,2.094,0,0,1,.878-1.8,4.146,4.146,0,0,1,2.472-.639h1.23V405.4a1.413,1.413,0,0,0-.4-1.055,1.591,1.591,0,0,0-1.169-.394,1.846,1.846,0,0,0-1.135.342,1.009,1.009,0,0,0-.458.827H83.377a1.748,1.748,0,0,1,.393-1.07,2.682,2.682,0,0,1,1.067-.817,3.587,3.587,0,0,1,1.479-.3,2.928,2.928,0,0,1,2,.638,2.312,2.312,0,0,1,.752,1.761v3.4a4.164,4.164,0,0,0,.26,1.62v.11Zm-2.1-.964a2.227,2.227,0,0,0,1.128-.308,1.858,1.858,0,0,0,.772-.8v-1.518h-.991q-2.325,0-2.324,1.36a1.153,1.153,0,0,0,.4.93,1.522,1.522,0,0,0,1.019.335"/>
      <rect id="Rectángulo_350919" data-name="Rectángulo 350919" width="1.265" height="10.5" transform="translate(91.163 399.971)"/>
      <path id="Trazado_720443" data-name="Trazado 720443" d="M99.223,403.074v8.251q0,2.133-1.935,2.133a2.371,2.371,0,0,1-.772-.122V412.33a2.461,2.461,0,0,0,.574.054.855.855,0,0,0,.645-.229,1.127,1.127,0,0,0,.223-.8v-8.284Zm-1.395-1.962a.761.761,0,0,1,.188-.517.7.7,0,0,1,.55-.214.719.719,0,0,1,.561.211.747.747,0,0,1,.191.52.722.722,0,0,1-.191.513.734.734,0,0,1-.561.2.708.708,0,0,1-.553-.2.74.74,0,0,1-.185-.513"/>
      <path id="Trazado_720444" data-name="Trazado 720444" d="M104.329,410.607a3.229,3.229,0,0,1-2.447-.988,3.666,3.666,0,0,1-.943-2.642v-.232a4.432,4.432,0,0,1,.42-1.966,3.281,3.281,0,0,1,1.176-1.354,2.96,2.96,0,0,1,1.637-.488,2.767,2.767,0,0,1,2.242.95,4.116,4.116,0,0,1,.8,2.721v.526H102.2a2.638,2.638,0,0,0,.639,1.768,2.014,2.014,0,0,0,1.556.673,2.192,2.192,0,0,0,1.134-.274,2.864,2.864,0,0,0,.814-.724l.772.6a3.108,3.108,0,0,1-2.789,1.429m-.157-6.631a1.688,1.688,0,0,0-1.285.557,2.705,2.705,0,0,0-.643,1.562h3.7V406a2.415,2.415,0,0,0-.519-1.494,1.593,1.593,0,0,0-1.258-.529"/>
      <path id="Trazado_720445" data-name="Trazado 720445" d="M109.3,410.471v-6.419H108.13v-.977H109.3v-.759a2.517,2.517,0,0,1,.636-1.839,2.4,2.4,0,0,1,1.8-.65,3.335,3.335,0,0,1,.868.116l-.069,1.019a3.622,3.622,0,0,0-.683-.061,1.233,1.233,0,0,0-.95.36,1.454,1.454,0,0,0-.335,1.031v.783h1.579v.977h-1.579v6.419Z"/>
      <path id="Trazado_720446" data-name="Trazado 720446" d="M116.442,410.607a3.229,3.229,0,0,1-2.447-.988,3.666,3.666,0,0,1-.943-2.642v-.232a4.432,4.432,0,0,1,.42-1.966,3.281,3.281,0,0,1,1.176-1.354,2.96,2.96,0,0,1,1.637-.488,2.767,2.767,0,0,1,2.242.95,4.116,4.116,0,0,1,.8,2.721v.526h-5.011a2.638,2.638,0,0,0,.639,1.768,2.014,2.014,0,0,0,1.556.673,2.192,2.192,0,0,0,1.134-.274,2.864,2.864,0,0,0,.814-.724l.772.6a3.108,3.108,0,0,1-2.789,1.429m-.157-6.631a1.688,1.688,0,0,0-1.285.557,2.705,2.705,0,0,0-.643,1.562h3.7V406a2.415,2.415,0,0,0-.519-1.494,1.593,1.593,0,0,0-1.258-.529"/>
      <path id="Trazado_720447" data-name="Trazado 720447" d="M124.262,401.112a.751.751,0,0,1,.189-.519.7.7,0,0,1,.557-.212.714.714,0,0,1,.56.212.744.744,0,0,1,.192.519.749.749,0,1,1-1.5,0m1.368,9.359h-1.265v-7.4h1.265Z"/>
      <path id="Trazado_720448" data-name="Trazado 720448" d="M128.849,403.074l.041.93a2.7,2.7,0,0,1,2.215-1.067q2.345,0,2.365,2.646v4.887h-1.265v-4.894a1.707,1.707,0,0,0-.365-1.183,1.468,1.468,0,0,0-1.118-.382,1.824,1.824,0,0,0-1.08.328,2.224,2.224,0,0,0-.725.861v5.27h-1.264v-7.4Z"/>
      <path id="Trazado_720449" data-name="Trazado 720449" d="M136.567,403.074l.034.82a2.735,2.735,0,0,1,2.2-.957,2.115,2.115,0,0,1,2.112,1.19,2.8,2.8,0,0,1,.96-.862,2.844,2.844,0,0,1,1.4-.328q2.433,0,2.475,2.577v4.956h-1.265v-4.88a1.7,1.7,0,0,0-.362-1.186,1.593,1.593,0,0,0-1.217-.393,1.673,1.673,0,0,0-1.169.42,1.71,1.71,0,0,0-.54,1.131v4.908h-1.271v-4.846a1.411,1.411,0,0,0-1.579-1.613,1.693,1.693,0,0,0-1.7,1.059v5.4h-1.264v-7.4Z"/>
      <path id="Trazado_720450" data-name="Trazado 720450" d="M150.717,410.607a3.229,3.229,0,0,1-2.447-.988,3.666,3.666,0,0,1-.943-2.642v-.232a4.432,4.432,0,0,1,.42-1.966,3.281,3.281,0,0,1,1.176-1.354,2.96,2.96,0,0,1,1.637-.488,2.767,2.767,0,0,1,2.242.95,4.116,4.116,0,0,1,.8,2.721v.526h-5.011a2.638,2.638,0,0,0,.639,1.768,2.014,2.014,0,0,0,1.556.673,2.192,2.192,0,0,0,1.134-.274,2.864,2.864,0,0,0,.814-.724l.772.6a3.108,3.108,0,0,1-2.789,1.429m-.157-6.631a1.688,1.688,0,0,0-1.285.557,2.705,2.705,0,0,0-.643,1.562h3.705V406a2.415,2.415,0,0,0-.519-1.494,1.593,1.593,0,0,0-1.258-.529"/>
      <path id="Trazado_720451" data-name="Trazado 720451" d="M154.757,406.71a4.337,4.337,0,0,1,.807-2.738,2.745,2.745,0,0,1,4.17-.146V399.97H161v10.5h-1.163l-.061-.793a2.575,2.575,0,0,1-2.112.93,2.528,2.528,0,0,1-2.1-1.053,4.389,4.389,0,0,1-.81-2.748Zm1.265.144a3.276,3.276,0,0,0,.52,1.969,1.681,1.681,0,0,0,1.435.711,1.847,1.847,0,0,0,1.757-1.08v-3.4a1.859,1.859,0,0,0-1.743-1.046,1.688,1.688,0,0,0-1.449.718,3.61,3.61,0,0,0-.52,2.126"/>
      <path id="Trazado_720452" data-name="Trazado 720452" d="M162.968,401.112a.75.75,0,0,1,.188-.519.7.7,0,0,1,.557-.212.714.714,0,0,1,.56.212.744.744,0,0,1,.192.519.749.749,0,1,1-1.5,0m1.367,9.359H163.07v-7.4h1.265Z"/>
      <path id="Trazado_720453" data-name="Trazado 720453" d="M170.925,410.471a2.629,2.629,0,0,1-.178-.779,2.825,2.825,0,0,1-2.106.916,2.6,2.6,0,0,1-1.794-.62,2,2,0,0,1-.7-1.568,2.094,2.094,0,0,1,.878-1.8,4.146,4.146,0,0,1,2.472-.639h1.23V405.4a1.413,1.413,0,0,0-.4-1.055,1.591,1.591,0,0,0-1.169-.394,1.846,1.846,0,0,0-1.135.342,1.009,1.009,0,0,0-.458.827H166.3a1.748,1.748,0,0,1,.393-1.07,2.682,2.682,0,0,1,1.067-.817,3.587,3.587,0,0,1,1.479-.3,2.928,2.928,0,0,1,2,.638,2.312,2.312,0,0,1,.752,1.761v3.4a4.164,4.164,0,0,0,.26,1.62v.11Zm-2.1-.964a2.227,2.227,0,0,0,1.128-.308,1.858,1.858,0,0,0,.772-.8v-1.518h-.991q-2.325,0-2.324,1.36a1.153,1.153,0,0,0,.4.93,1.522,1.522,0,0,0,1.019.335"/>
      <path id="Trazado_720454" data-name="Trazado 720454" d="M175.689,401.283v1.791h1.381v.978h-1.381v4.592a1.025,1.025,0,0,0,.185.667.774.774,0,0,0,.628.223,3.038,3.038,0,0,0,.6-.082v1.019a3.671,3.671,0,0,1-.971.136,1.576,1.576,0,0,1-1.278-.512,2.206,2.206,0,0,1-.431-1.457v-4.586h-1.346v-.978h1.346v-1.791Z"/>
      <path id="Trazado_720455" data-name="Trazado 720455" d="M178.075,406.7a4.379,4.379,0,0,1,.426-1.955,3.181,3.181,0,0,1,1.19-1.34,3.238,3.238,0,0,1,1.74-.472,3.117,3.117,0,0,1,2.443,1.046,4.02,4.02,0,0,1,.934,2.782v.089a4.4,4.4,0,0,1-.414,1.938,3.144,3.144,0,0,1-1.182,1.336,3.268,3.268,0,0,1-1.767.479,3.115,3.115,0,0,1-2.438-1.046,4.008,4.008,0,0,1-.932-2.769Zm1.271.15a3.164,3.164,0,0,0,.571,1.976,1.935,1.935,0,0,0,3.059-.01,3.463,3.463,0,0,0,.567-2.116,3.156,3.156,0,0,0-.577-1.972,1.838,1.838,0,0,0-1.535-.756,1.816,1.816,0,0,0-1.511.745,3.435,3.435,0,0,0-.574,2.133"/>
    </g>
  </g>
</svg>
