<svg xmlns="http://www.w3.org/2000/svg" xmlns:xlink="http://www.w3.org/1999/xlink" width="864.131" height="443.007" viewBox="0 0 864.131 443.007">
  <defs>
    <clipPath id="clip-path">
      <rect id="Rectángulo_350920" data-name="Rectángulo 350920" width="864.131" height="443.007" fill="none"/>
    </clipPath>
  </defs>
  <g id="Grupo_1008287" data-name="Grupo 1008287" transform="translate(-368 -5397)">
    <path id="Trazado_720255" data-name="Trazado 720255" d="M451.008,83.7l1.5-4.434,1.5-4.433h-2.5V54.355h-1V74.838h-2.5l1.5,4.433Z" transform="translate(368 5397)" fill="#7c7c7c"/>
    <path id="Trazado_720256" data-name="Trazado 720256" d="M451.008,146.736l1.5-4.434,1.5-4.433h-2.5V118.306h-1v19.563h-2.5l1.5,4.433Z" transform="translate(368 5397)" fill="#7c7c7c"/>
    <path id="Trazado_720257" data-name="Trazado 720257" d="M220.026,404.021l-4.434,1.5-4.433,1.5,4.433,1.5,4.434,1.5v-2.5h32.331v-1H220.026Z" transform="translate(368 5397)" fill="#7c7c7c"/>
    <path id="Trazado_720258" data-name="Trazado 720258" d="M307.318,404.021l-4.434,1.5-4.433,1.5,4.433,1.5,4.434,1.5v-2.5h34.331v-1H307.318Z" transform="translate(368 5397)" fill="#7c7c7c"/>
    <path id="Trazado_720259" data-name="Trazado 720259" d="M593.951,404.021v2.5H559.619v1h34.332v2.5l4.434-1.5,4.433-1.5-4.433-1.5Z" transform="translate(368 5397)" fill="#7c7c7c"/>
    <path id="Trazado_720260" data-name="Trazado 720260" d="M759.8,217.459l-1.5-4.434-1.5,4.434-1.5,4.434h2.5v56.688H451.508V270.7h-1v7.883H105.33V378.954h1V279.581H450.508v10.078h-2.5l1.5,4.434,1.5,4.433,1.5-4.433,1.5-4.434h-2.5V279.581H757.8v126.94H649.341v1H758.8V221.893h2.5Z" transform="translate(368 5397)" fill="#7c7c7c"/>
    <path id="Trazado_720261" data-name="Trazado 720261" d="M451.008,239.017l1.5-4.434,1.5-4.433h-2.5V212.665h-1V230.15h-2.5l1.5,4.433Z" transform="translate(368 5397)" fill="#7c7c7c"/>
    <path id="Trazado_720262" data-name="Trazado 720262" d="M575.044,185.166l4.434-1.5,4.433-1.5-4.433-1.5-4.434-1.5v2.5H557.559v1h17.485Z" transform="translate(368 5397)" fill="#7c7c7c"/>
    <path id="Trazado_720263" data-name="Trazado 720263" d="M644.212,185.166l4.434-1.5,4.433-1.5-4.433-1.5-4.434-1.5v2.5H626.727v1h17.485Z" transform="translate(368 5397)" fill="#7c7c7c"/>
    <g id="Grupo_1008286" data-name="Grupo 1008286" transform="translate(368 5397)" clip-path="url(#clip-path)">
      <path id="Trazado_720264" data-name="Trazado 720264" d="M548.337,56.634H353.678a8,8,0,0,1-8-8V8.5a8,8,0,0,1,8-8H548.337a8,8,0,0,1,8,8V48.634a8,8,0,0,1-8,8" fill="#00dced"/>
      <rect id="Rectángulo_350905" data-name="Rectángulo 350905" width="210.659" height="56.134" rx="8" transform="translate(345.678 0.5)" fill="none" stroke="#009fa3" stroke-miterlimit="10" stroke-width="1"/>
      <path id="Trazado_720265" data-name="Trazado 720265" d="M855.631,210.025H660.972a8,8,0,0,1-8-8V161.891a8,8,0,0,1,8-8H855.631a8,8,0,0,1,8,8v40.134a8,8,0,0,1-8,8" fill="#81d4fa"/>
      <rect id="Rectángulo_350906" data-name="Rectángulo 350906" width="210.659" height="56.134" rx="8" transform="translate(652.972 153.891)" fill="none" stroke="#4393af" stroke-miterlimit="10" stroke-width="1"/>
      <path id="Trazado_720266" data-name="Trazado 720266" d="M203.159,435.087H8.5a8,8,0,0,1-8-8V386.953a8,8,0,0,1,8-8H203.159a8,8,0,0,1,8,8v40.134a8,8,0,0,1-8,8" fill="#81d4fa"/>
      <path id="Trazado_720267" data-name="Trazado 720267" d="M203.159,435.087H8.5a8,8,0,0,1-8-8V386.953a8,8,0,0,1,8-8H203.159a8,8,0,0,1,8,8v40.134A8,8,0,0,1,203.159,435.087Z" fill="none" stroke="#4393af" stroke-miterlimit="10" stroke-width="1"/>
      <path id="Trazado_720268" data-name="Trazado 720268" d="M548.337,355.4H353.678a8,8,0,0,1-8-8V307.264a8,8,0,0,1,8-8H548.337a8,8,0,0,1,8,8V347.4a8,8,0,0,1-8,8" fill="#81d4fa"/>
      <rect id="Rectángulo_350907" data-name="Rectángulo 350907" width="210.659" height="56.134" rx="8" transform="translate(345.678 299.264)" fill="none" stroke="#4393af" stroke-miterlimit="10" stroke-width="1"/>
      <path id="Trazado_720269" data-name="Trazado 720269" d="M548.337,123.839H353.678a8,8,0,0,1-8-8V91.705a8,8,0,0,1,8-8H548.337a8,8,0,0,1,8,8v24.134a8,8,0,0,1-8,8" fill="#81d4fa"/>
      <rect id="Rectángulo_350908" data-name="Rectángulo 350908" width="210.659" height="40.134" rx="8" transform="translate(345.678 83.705)" fill="none" stroke="#4393af" stroke-miterlimit="10" stroke-width="1"/>
      <path id="Trazado_720270" data-name="Trazado 720270" d="M451.007,146.7l-111.59,35.462,111.59,35.462L562.6,182.166Z" fill="#81d4fa"/>
      <path id="Trazado_720271" data-name="Trazado 720271" d="M451.007,146.7l-111.59,35.462,111.59,35.462L562.6,182.166Z" fill="none" stroke="#4393af" stroke-miterlimit="10" stroke-width="1"/>
      <path id="Trazado_720272" data-name="Trazado 720272" d="M451.007,371.559l-111.59,35.462,111.59,35.462L562.6,407.021Z" fill="#81d4fa"/>
      <path id="Trazado_720273" data-name="Trazado 720273" d="M451.007,371.559l-111.59,35.462,111.59,35.462L562.6,407.021Z" fill="none" stroke="#4393af" stroke-miterlimit="10" stroke-width="1"/>
      <path id="Trazado_720274" data-name="Trazado 720274" d="M622.562,198.265h-31.3a7.6,7.6,0,0,1-7.6-7.6V173.669a7.6,7.6,0,0,1,7.6-7.6h31.3a7.6,7.6,0,0,1,7.6,7.6v16.994a7.6,7.6,0,0,1-7.6,7.6" fill="#7e5ee3"/>
      <path id="Rectángulo_350909" data-name="Rectángulo 350909" d="M7.6,0h31.3a7.6,7.6,0,0,1,7.6,7.6V24.6a7.6,7.6,0,0,1-7.6,7.6H7.6A7.6,7.6,0,0,1,0,24.6V7.6A7.6,7.6,0,0,1,7.6,0Z" transform="translate(583.655 166.066)" fill="none" stroke="#3d2c82" stroke-miterlimit="10" stroke-width="1"/>
      <path id="Trazado_720275" data-name="Trazado 720275" d="M466.659,271.478h-31.3a7.6,7.6,0,0,1-7.6-7.6V246.882a7.6,7.6,0,0,1,7.6-7.6h31.3a7.6,7.6,0,0,1,7.6,7.6v16.994a7.6,7.6,0,0,1-7.6,7.6" fill="#7e5ee3"/>
      <path id="Rectángulo_350910" data-name="Rectángulo 350910" d="M7.6,0h31.3a7.6,7.6,0,0,1,7.6,7.6V24.6a7.6,7.6,0,0,1-7.6,7.6H7.6A7.6,7.6,0,0,1,0,24.6V7.6A7.6,7.6,0,0,1,7.6,0Z" transform="translate(427.752 239.279)" fill="none" stroke="#3d2c82" stroke-miterlimit="10" stroke-width="1"/>
      <path id="Trazado_720276" data-name="Trazado 720276" d="M642.028,423.12h-31.3a7.6,7.6,0,0,1-7.6-7.6V398.524a7.6,7.6,0,0,1,7.6-7.6h31.3a7.6,7.6,0,0,1,7.6,7.6v16.994a7.6,7.6,0,0,1-7.6,7.6" fill="#7e5ee3"/>
      <path id="Rectángulo_350911" data-name="Rectángulo 350911" d="M7.6,0h31.3a7.6,7.6,0,0,1,7.6,7.6V24.6a7.6,7.6,0,0,1-7.6,7.6H7.6A7.6,7.6,0,0,1,0,24.6V7.6A7.6,7.6,0,0,1,7.6,0Z" transform="translate(603.121 390.921)" fill="none" stroke="#3d2c82" stroke-miterlimit="10" stroke-width="1"/>
      <path id="Trazado_720277" data-name="Trazado 720277" d="M291.208,423.12H259.9a7.6,7.6,0,0,1-7.6-7.6V398.524a7.6,7.6,0,0,1,7.6-7.6h31.3a7.6,7.6,0,0,1,7.6,7.6v16.994a7.6,7.6,0,0,1-7.6,7.6" fill="#7e5ee3"/>
      <path id="Rectángulo_350912" data-name="Rectángulo 350912" d="M7.6,0h31.3a7.6,7.6,0,0,1,7.6,7.6V24.6a7.6,7.6,0,0,1-7.6,7.6H7.6A7.6,7.6,0,0,1,0,24.6V7.6A7.6,7.6,0,0,1,7.6,0Z" transform="translate(252.301 390.921)" fill="none" stroke="#3d2c82" stroke-miterlimit="10" stroke-width="1"/>
      <path id="Trazado_720278" data-name="Trazado 720278" d="M274.763,412.471h-2.051l-3.992-6.549v6.549h-2.051v-9.953h2.051l4,6.562v-6.562h2.044Z" fill="#fff"/>
      <path id="Trazado_720279" data-name="Trazado 720279" d="M284.73,407.719a6.011,6.011,0,0,1-.519,2.577,3.912,3.912,0,0,1-1.487,1.709,4.391,4.391,0,0,1-4.426.007,3.943,3.943,0,0,1-1.5-1.7,5.823,5.823,0,0,1-.54-2.54v-.492a5.974,5.974,0,0,1,.529-2.587,3.938,3.938,0,0,1,1.5-1.717,4.386,4.386,0,0,1,4.422,0,3.95,3.95,0,0,1,1.5,1.717,5.968,5.968,0,0,1,.529,2.58Zm-2.078-.451a4.185,4.185,0,0,0-.561-2.379,1.981,1.981,0,0,0-3.192-.011,4.148,4.148,0,0,0-.567,2.356v.485a4.235,4.235,0,0,0,.56,2.365,1.821,1.821,0,0,0,1.614.841,1.8,1.8,0,0,0,1.585-.81,4.21,4.21,0,0,0,.561-2.362Z" fill="#fff"/>
      <path id="Trazado_720280" data-name="Trazado 720280" d="M625.679,409.859a1.053,1.053,0,0,0-.411-.893,5.405,5.405,0,0,0-1.476-.656,10.266,10.266,0,0,1-1.688-.68,2.76,2.76,0,0,1-1.7-2.467,2.4,2.4,0,0,1,.457-1.439,2.962,2.962,0,0,1,1.3-.988,4.927,4.927,0,0,1,1.911-.356,4.465,4.465,0,0,1,1.9.387,3.042,3.042,0,0,1,1.3,1.09,2.876,2.876,0,0,1,.461,1.6h-2.052a1.34,1.34,0,0,0-.43-1.063,1.767,1.767,0,0,0-1.211-.38,1.9,1.9,0,0,0-1.169.318,1,1,0,0,0-.417.838.962.962,0,0,0,.49.813,5.486,5.486,0,0,0,1.438.615,6.209,6.209,0,0,1,2.551,1.306,2.6,2.6,0,0,1,.8,1.941,2.4,2.4,0,0,1-.979,2.028,4.283,4.283,0,0,1-2.631.734,5.114,5.114,0,0,1-2.093-.42,3.326,3.326,0,0,1-1.438-1.152,2.954,2.954,0,0,1-.495-1.7h2.056q0,1.648,1.97,1.648a1.906,1.906,0,0,0,1.141-.3.965.965,0,0,0,.411-.83" fill="#fff"/>
      <rect id="Rectángulo_350913" data-name="Rectángulo 350913" width="2.051" height="9.953" transform="translate(629.253 402.518)" fill="#fff"/>
      <path id="Trazado_720281" data-name="Trazado 720281" d="M450.26,260.358h-2.051l-3.992-6.549v6.549h-2.051v-9.953h2.051l4,6.562v-6.562h2.044Z" fill="#fff"/>
      <path id="Trazado_720282" data-name="Trazado 720282" d="M460.227,255.607a6.012,6.012,0,0,1-.519,2.577,3.912,3.912,0,0,1-1.487,1.709,4.391,4.391,0,0,1-4.426.007,3.944,3.944,0,0,1-1.5-1.7,5.823,5.823,0,0,1-.54-2.54v-.492a5.974,5.974,0,0,1,.529-2.587,3.938,3.938,0,0,1,1.5-1.717,4.386,4.386,0,0,1,4.422,0,3.95,3.95,0,0,1,1.5,1.717,5.969,5.969,0,0,1,.529,2.58Zm-2.078-.451a4.185,4.185,0,0,0-.561-2.379,1.981,1.981,0,0,0-3.192-.011,4.148,4.148,0,0,0-.567,2.356v.485a4.235,4.235,0,0,0,.56,2.365,1.821,1.821,0,0,0,1.614.841,1.8,1.8,0,0,0,1.585-.81,4.21,4.21,0,0,0,.561-2.362Z" fill="#fff"/>
      <path id="Trazado_720283" data-name="Trazado 720283" d="M606.579,184.9a1.055,1.055,0,0,0-.41-.893,5.43,5.43,0,0,0-1.477-.656,10.3,10.3,0,0,1-1.688-.68,2.759,2.759,0,0,1-1.7-2.467,2.4,2.4,0,0,1,.456-1.439,2.959,2.959,0,0,1,1.3-.988,4.923,4.923,0,0,1,1.911-.356,4.468,4.468,0,0,1,1.9.387,3.034,3.034,0,0,1,1.3,1.09,2.869,2.869,0,0,1,.461,1.6h-2.051a1.341,1.341,0,0,0-.431-1.063,1.764,1.764,0,0,0-1.21-.38,1.9,1.9,0,0,0-1.169.318,1,1,0,0,0-.417.838.96.96,0,0,0,.489.813,5.5,5.5,0,0,0,1.439.615,6.21,6.21,0,0,1,2.55,1.306,2.6,2.6,0,0,1,.8,1.941,2.4,2.4,0,0,1-.978,2.028,4.284,4.284,0,0,1-2.632.734,5.106,5.106,0,0,1-2.092-.42,3.329,3.329,0,0,1-1.439-1.152,2.955,2.955,0,0,1-.495-1.7h2.057q0,1.648,1.969,1.648a1.912,1.912,0,0,0,1.142-.3.966.966,0,0,0,.41-.83" fill="#fff"/>
      <rect id="Rectángulo_350914" data-name="Rectángulo 350914" width="2.051" height="9.953" transform="translate(610.154 177.553)" fill="#fff"/>
      <path id="Trazado_720326" data-name="Trazado 720326" d="M403.565,173.6a4.037,4.037,0,0,1-.146,1.158,2.585,2.585,0,0,1-.469.838q-.329.4-.957,1.063a2.34,2.34,0,0,0-.7,1.337l-.014.252a1.532,1.532,0,0,0,.4,1.139,1.551,1.551,0,0,0,1.141.393,1.594,1.594,0,0,0,1.112-.387,1.3,1.3,0,0,0,.426-1.008h1.265a2.354,2.354,0,0,1-.783,1.8,3.371,3.371,0,0,1-4.091.011,2.5,2.5,0,0,1-.731-1.911,3.568,3.568,0,0,1,1.093-2.379l.745-.773a2.306,2.306,0,0,0,.452-1.531Zm.055-2.164a.76.76,0,0,1-.187.522.707.707,0,0,1-.558.213.717.717,0,0,1-.561-.213.749.749,0,0,1-.191-.522.718.718,0,0,1,.191-.508.727.727,0,0,1,.561-.206.718.718,0,0,1,.558.206.728.728,0,0,1,.187.508"/>
      <path id="Trazado_720327" data-name="Trazado 720327" d="M414.646,175.092a3.666,3.666,0,0,1-1.166,2.438,3.819,3.819,0,0,1-2.607.857,3.507,3.507,0,0,1-2.827-1.265,5.084,5.084,0,0,1-1.063-3.384v-.957a5.679,5.679,0,0,1,.495-2.44,3.7,3.7,0,0,1,1.4-1.616,3.906,3.906,0,0,1,2.106-.565,3.6,3.6,0,0,1,2.543.885,3.708,3.708,0,0,1,1.114,2.451h-1.319a2.866,2.866,0,0,0-.742-1.727,2.242,2.242,0,0,0-1.6-.535,2.348,2.348,0,0,0-1.972.93,4.273,4.273,0,0,0-.715,2.648v.965a4.392,4.392,0,0,0,.677,2.579,2.188,2.188,0,0,0,1.894.958,2.522,2.522,0,0,0,1.677-.495,2.751,2.751,0,0,0,.777-1.727Z"/>
      <path id="Trazado_720328" data-name="Trazado 720328" d="M415.9,174.484a4.365,4.365,0,0,1,.427-1.955,3.172,3.172,0,0,1,1.189-1.34,3.238,3.238,0,0,1,1.74-.472,3.117,3.117,0,0,1,2.443,1.046,4.02,4.02,0,0,1,.934,2.782v.089a4.4,4.4,0,0,1-.414,1.938,3.148,3.148,0,0,1-1.181,1.336,3.271,3.271,0,0,1-1.767.479,3.117,3.117,0,0,1-2.439-1.046,4.008,4.008,0,0,1-.932-2.769Zm1.272.15a3.163,3.163,0,0,0,.57,1.976,1.935,1.935,0,0,0,3.059-.01,3.457,3.457,0,0,0,.567-2.116,3.162,3.162,0,0,0-.576-1.972,1.841,1.841,0,0,0-1.536-.756,1.818,1.818,0,0,0-1.511.745,3.435,3.435,0,0,0-.573,2.133"/>
      <path id="Trazado_720329" data-name="Trazado 720329" d="M425.42,170.853l.041.931a2.7,2.7,0,0,1,2.215-1.068q2.345,0,2.365,2.646v4.888h-1.265v-4.9a1.709,1.709,0,0,0-.365-1.183,1.472,1.472,0,0,0-1.118-.382,1.831,1.831,0,0,0-1.08.328,2.231,2.231,0,0,0-.725.861v5.271h-1.264v-7.4Z"/>
      <path id="Trazado_720330" data-name="Trazado 720330" d="M434.915,177.354a1.825,1.825,0,0,0,1.183-.41,1.442,1.442,0,0,0,.56-1.026h1.2a2.282,2.282,0,0,1-.437,1.21,2.878,2.878,0,0,1-1.076.916,3.109,3.109,0,0,1-1.426.342,3.043,3.043,0,0,1-2.4-1.008,4.008,4.008,0,0,1-.893-2.758v-.212a4.442,4.442,0,0,1,.4-1.921,3.013,3.013,0,0,1,1.138-1.306,3.237,3.237,0,0,1,1.753-.465,2.966,2.966,0,0,1,2.068.745,2.663,2.663,0,0,1,.878,1.935h-1.2a1.744,1.744,0,0,0-.544-1.18,1.694,1.694,0,0,0-1.206-.461,1.771,1.771,0,0,0-1.493.694,3.256,3.256,0,0,0-.53,2.007v.239a3.2,3.2,0,0,0,.526,1.969,1.78,1.78,0,0,0,1.5.69"/>
      <path id="Trazado_720331" data-name="Trazado 720331" d="M443.842,177.518a2.683,2.683,0,0,1-2.167.869,2.3,2.3,0,0,1-1.8-.687,2.978,2.978,0,0,1-.625-2.035v-4.811h1.265v4.778q0,1.682,1.367,1.682a1.894,1.894,0,0,0,1.928-1.08v-5.38h1.264v7.4h-1.2Z"/>
      <path id="Trazado_720332" data-name="Trazado 720332" d="M450.063,178.387a3.229,3.229,0,0,1-2.447-.988,3.666,3.666,0,0,1-.943-2.642v-.232a4.432,4.432,0,0,1,.42-1.966,3.281,3.281,0,0,1,1.176-1.354,2.96,2.96,0,0,1,1.637-.488,2.767,2.767,0,0,1,2.242.95,4.116,4.116,0,0,1,.8,2.721v.526h-5.011a2.638,2.638,0,0,0,.639,1.768,2.014,2.014,0,0,0,1.556.673,2.192,2.192,0,0,0,1.134-.274,2.864,2.864,0,0,0,.814-.724l.772.6a3.108,3.108,0,0,1-2.789,1.429m-.157-6.631a1.688,1.688,0,0,0-1.285.557,2.705,2.705,0,0,0-.643,1.562h3.705v-.1a2.416,2.416,0,0,0-.519-1.494,1.593,1.593,0,0,0-1.258-.529"/>
      <path id="Trazado_720333" data-name="Trazado 720333" d="M457.986,171.988a3.766,3.766,0,0,0-.622-.048,1.668,1.668,0,0,0-1.689,1.06v5.25h-1.264v-7.4h1.23l.021.855a1.969,1.969,0,0,1,1.763-.991,1.306,1.306,0,0,1,.561.1Z"/>
      <path id="Trazado_720334" data-name="Trazado 720334" d="M458.71,174.49a4.337,4.337,0,0,1,.807-2.738,2.745,2.745,0,0,1,4.17-.146V167.75h1.265v10.5h-1.163l-.061-.793a2.575,2.575,0,0,1-2.112.93,2.529,2.529,0,0,1-2.1-1.053,4.389,4.389,0,0,1-.81-2.748Zm1.265.144a3.276,3.276,0,0,0,.52,1.969,1.681,1.681,0,0,0,1.435.711,1.847,1.847,0,0,0,1.757-1.08v-3.4a1.859,1.859,0,0,0-1.743-1.046,1.688,1.688,0,0,0-1.449.718,3.61,3.61,0,0,0-.52,2.126"/>
      <path id="Trazado_720335" data-name="Trazado 720335" d="M471.481,178.25a2.63,2.63,0,0,1-.178-.779,2.825,2.825,0,0,1-2.106.916,2.6,2.6,0,0,1-1.794-.62,2,2,0,0,1-.7-1.568,2.094,2.094,0,0,1,.878-1.795,4.145,4.145,0,0,1,2.472-.639h1.23v-.581a1.413,1.413,0,0,0-.4-1.055,1.591,1.591,0,0,0-1.169-.394,1.846,1.846,0,0,0-1.135.342,1.009,1.009,0,0,0-.458.827h-1.271a1.748,1.748,0,0,1,.393-1.07,2.682,2.682,0,0,1,1.067-.817,3.587,3.587,0,0,1,1.479-.3,2.928,2.928,0,0,1,2,.638,2.312,2.312,0,0,1,.752,1.761v3.4a4.164,4.164,0,0,0,.26,1.62v.11Zm-2.1-.964a2.227,2.227,0,0,0,1.128-.308,1.858,1.858,0,0,0,.772-.8v-1.518h-.991q-2.325,0-2.324,1.36a1.153,1.153,0,0,0,.4.93,1.522,1.522,0,0,0,1.019.335"/>
      <path id="Trazado_720336" data-name="Trazado 720336" d="M475.725,170.853l.041.931a2.7,2.7,0,0,1,2.215-1.068q2.345,0,2.365,2.646v4.888h-1.265v-4.9a1.709,1.709,0,0,0-.365-1.183,1.472,1.472,0,0,0-1.118-.382,1.831,1.831,0,0,0-1.08.328,2.231,2.231,0,0,0-.725.861v5.271h-1.264v-7.4Z"/>
      <rect id="Rectángulo_350915" data-name="Rectángulo 350915" width="1.265" height="10.5" transform="translate(485.829 167.75)"/>
      <path id="Trazado_720337" data-name="Trazado 720337" d="M493.684,178.25a2.629,2.629,0,0,1-.178-.779,2.825,2.825,0,0,1-2.106.916,2.6,2.6,0,0,1-1.794-.62,2,2,0,0,1-.7-1.568,2.094,2.094,0,0,1,.878-1.795,4.145,4.145,0,0,1,2.472-.639h1.23v-.581a1.413,1.413,0,0,0-.4-1.055,1.591,1.591,0,0,0-1.169-.394,1.846,1.846,0,0,0-1.135.342,1.009,1.009,0,0,0-.458.827h-1.271a1.748,1.748,0,0,1,.393-1.07,2.682,2.682,0,0,1,1.067-.817,3.587,3.587,0,0,1,1.479-.3,2.928,2.928,0,0,1,2,.638,2.312,2.312,0,0,1,.752,1.761v3.4a4.164,4.164,0,0,0,.26,1.62v.11Zm-2.1-.964a2.227,2.227,0,0,0,1.128-.308,1.858,1.858,0,0,0,.772-.8v-1.518h-.991q-2.325,0-2.324,1.36a1.153,1.153,0,0,0,.4.93,1.522,1.522,0,0,0,1.019.335"/>
      <path id="Trazado_720338" data-name="Trazado 720338" d="M501.039,176.288a.929.929,0,0,0-.387-.8,3.72,3.72,0,0,0-1.345-.489,6.419,6.419,0,0,1-1.526-.492,2.184,2.184,0,0,1-.834-.684,1.644,1.644,0,0,1-.269-.943,1.916,1.916,0,0,1,.769-1.538,3,3,0,0,1,1.965-.629,3.1,3.1,0,0,1,2.041.649,2.061,2.061,0,0,1,.782,1.661h-1.271a1.145,1.145,0,0,0-.441-.895,1.654,1.654,0,0,0-1.111-.376,1.727,1.727,0,0,0-1.08.3.945.945,0,0,0-.39.786.766.766,0,0,0,.363.69,4.436,4.436,0,0,0,1.308.444,6.829,6.829,0,0,1,1.535.506,2.235,2.235,0,0,1,.871.708,1.734,1.734,0,0,1,.285,1.008,1.9,1.9,0,0,1-.793,1.59,3.333,3.333,0,0,1-2.058.6,3.717,3.717,0,0,1-1.572-.315,2.558,2.558,0,0,1-1.071-.879,2.122,2.122,0,0,1-.385-1.219h1.264a1.312,1.312,0,0,0,.51,1.008,1.978,1.978,0,0,0,1.254.372,2.038,2.038,0,0,0,1.152-.29.9.9,0,0,0,.434-.776"/>
      <path id="Trazado_720339" data-name="Trazado 720339" d="M417.549,194.154a1.825,1.825,0,0,0,1.183-.41,1.442,1.442,0,0,0,.56-1.026h1.2a2.282,2.282,0,0,1-.437,1.21,2.877,2.877,0,0,1-1.076.916,3.109,3.109,0,0,1-1.426.342,3.043,3.043,0,0,1-2.4-1.008,4.008,4.008,0,0,1-.893-2.758v-.212a4.442,4.442,0,0,1,.4-1.921,3.013,3.013,0,0,1,1.138-1.306,3.237,3.237,0,0,1,1.753-.465,2.966,2.966,0,0,1,2.068.745,2.663,2.663,0,0,1,.878,1.935h-1.2a1.744,1.744,0,0,0-.544-1.18,1.694,1.694,0,0,0-1.206-.461,1.771,1.771,0,0,0-1.493.694,3.256,3.256,0,0,0-.53,2.007v.239a3.2,3.2,0,0,0,.526,1.969,1.78,1.78,0,0,0,1.5.69"/>
      <path id="Trazado_720340" data-name="Trazado 720340" d="M426.477,195.05a2.63,2.63,0,0,1-.178-.779,2.825,2.825,0,0,1-2.106.916,2.6,2.6,0,0,1-1.794-.62,2,2,0,0,1-.7-1.568,2.094,2.094,0,0,1,.878-1.795,4.146,4.146,0,0,1,2.472-.639h1.23v-.581a1.413,1.413,0,0,0-.4-1.055,1.591,1.591,0,0,0-1.169-.394,1.846,1.846,0,0,0-1.135.342,1.009,1.009,0,0,0-.458.827h-1.271a1.748,1.748,0,0,1,.393-1.07,2.682,2.682,0,0,1,1.067-.817,3.587,3.587,0,0,1,1.479-.3,2.928,2.928,0,0,1,2,.638,2.312,2.312,0,0,1,.752,1.761v3.4a4.164,4.164,0,0,0,.26,1.62v.11Zm-2.1-.964a2.227,2.227,0,0,0,1.128-.308,1.858,1.858,0,0,0,.772-.8v-1.518h-.991q-2.325,0-2.324,1.36a1.153,1.153,0,0,0,.4.93,1.522,1.522,0,0,0,1.019.335"/>
      <path id="Trazado_720341" data-name="Trazado 720341" d="M430.721,187.653l.041.93a2.7,2.7,0,0,1,2.215-1.067q2.345,0,2.365,2.646v4.887h-1.265v-4.894a1.707,1.707,0,0,0-.365-1.183,1.468,1.468,0,0,0-1.118-.382,1.824,1.824,0,0,0-1.08.328,2.224,2.224,0,0,0-.725.861v5.27h-1.264v-7.4Z"/>
      <path id="Trazado_720342" data-name="Trazado 720342" d="M438.966,185.862v1.791h1.381v.978h-1.381v4.592a1.025,1.025,0,0,0,.185.667.774.774,0,0,0,.628.223,3.038,3.038,0,0,0,.6-.082v1.019a3.671,3.671,0,0,1-.971.136,1.576,1.576,0,0,1-1.278-.512,2.206,2.206,0,0,1-.431-1.457v-4.586h-1.346v-.978H437.7v-1.791Z"/>
      <path id="Trazado_720343" data-name="Trazado 720343" d="M441.83,185.691a.75.75,0,0,1,.188-.519.7.7,0,0,1,.557-.212.712.712,0,0,1,.56.212.744.744,0,0,1,.192.519.749.749,0,1,1-1.5,0m1.367,9.359h-1.265v-7.4H443.2Z"/>
      <path id="Trazado_720344" data-name="Trazado 720344" d="M444.912,191.289a4.337,4.337,0,0,1,.807-2.738,2.745,2.745,0,0,1,4.17-.146v-3.856h1.265v10.5h-1.163l-.061-.792a2.577,2.577,0,0,1-2.112.929,2.528,2.528,0,0,1-2.1-1.053,4.389,4.389,0,0,1-.81-2.748Zm1.265.144a3.276,3.276,0,0,0,.52,1.969,1.681,1.681,0,0,0,1.435.711,1.847,1.847,0,0,0,1.757-1.08v-3.4a1.859,1.859,0,0,0-1.743-1.046,1.688,1.688,0,0,0-1.449.718,3.61,3.61,0,0,0-.52,2.126"/>
      <path id="Trazado_720345" data-name="Trazado 720345" d="M457.683,195.05a2.629,2.629,0,0,1-.178-.779,2.825,2.825,0,0,1-2.106.916,2.6,2.6,0,0,1-1.794-.62,2,2,0,0,1-.7-1.568,2.094,2.094,0,0,1,.878-1.795,4.145,4.145,0,0,1,2.472-.639h1.23v-.581a1.413,1.413,0,0,0-.4-1.055,1.591,1.591,0,0,0-1.169-.394,1.846,1.846,0,0,0-1.135.342,1.009,1.009,0,0,0-.458.827h-1.271a1.748,1.748,0,0,1,.393-1.07,2.682,2.682,0,0,1,1.067-.817,3.587,3.587,0,0,1,1.479-.3,2.928,2.928,0,0,1,2,.638,2.312,2.312,0,0,1,.752,1.761v3.4a4.164,4.164,0,0,0,.26,1.62v.11Zm-2.1-.964a2.227,2.227,0,0,0,1.128-.308,1.858,1.858,0,0,0,.772-.8v-1.518h-.991q-2.325,0-2.324,1.36a1.153,1.153,0,0,0,.4.93,1.522,1.522,0,0,0,1.019.335"/>
      <path id="Trazado_720346" data-name="Trazado 720346" d="M460.423,191.289a4.337,4.337,0,0,1,.807-2.738,2.745,2.745,0,0,1,4.17-.146v-3.856h1.265v10.5H465.5l-.061-.792a2.577,2.577,0,0,1-2.112.929,2.528,2.528,0,0,1-2.1-1.053,4.389,4.389,0,0,1-.81-2.748Zm1.265.144a3.276,3.276,0,0,0,.52,1.969,1.681,1.681,0,0,0,1.435.711,1.847,1.847,0,0,0,1.757-1.08v-3.4a1.859,1.859,0,0,0-1.743-1.046,1.688,1.688,0,0,0-1.449.718,3.61,3.61,0,0,0-.52,2.126"/>
      <path id="Trazado_720347" data-name="Trazado 720347" d="M471.7,195.187a3.229,3.229,0,0,1-2.447-.988,3.666,3.666,0,0,1-.943-2.642v-.232a4.432,4.432,0,0,1,.42-1.966,3.28,3.28,0,0,1,1.176-1.354,2.96,2.96,0,0,1,1.637-.488,2.767,2.767,0,0,1,2.242.95,4.116,4.116,0,0,1,.8,2.721v.526H469.57a2.638,2.638,0,0,0,.639,1.768,2.013,2.013,0,0,0,1.556.673,2.192,2.192,0,0,0,1.134-.274,2.864,2.864,0,0,0,.814-.724l.772.6a3.108,3.108,0,0,1-2.789,1.429m-.157-6.631a1.688,1.688,0,0,0-1.285.557,2.705,2.705,0,0,0-.643,1.562h3.705v-.1a2.416,2.416,0,0,0-.519-1.494,1.593,1.593,0,0,0-1.258-.529"/>
      <path id="Trazado_720348" data-name="Trazado 720348" d="M480.35,193.088a.929.929,0,0,0-.387-.8,3.72,3.72,0,0,0-1.345-.489,6.419,6.419,0,0,1-1.526-.492,2.184,2.184,0,0,1-.834-.684,1.644,1.644,0,0,1-.269-.943,1.916,1.916,0,0,1,.769-1.538,3,3,0,0,1,1.965-.629,3.1,3.1,0,0,1,2.041.649,2.061,2.061,0,0,1,.782,1.661h-1.271a1.145,1.145,0,0,0-.441-.895,1.654,1.654,0,0,0-1.111-.376,1.727,1.727,0,0,0-1.08.3.945.945,0,0,0-.39.786.766.766,0,0,0,.363.69,4.436,4.436,0,0,0,1.308.444,6.83,6.83,0,0,1,1.535.506,2.235,2.235,0,0,1,.871.708,1.734,1.734,0,0,1,.285,1.008,1.9,1.9,0,0,1-.793,1.59,3.333,3.333,0,0,1-2.058.6,3.717,3.717,0,0,1-1.572-.315,2.558,2.558,0,0,1-1.071-.879,2.122,2.122,0,0,1-.385-1.219H477a1.312,1.312,0,0,0,.51,1.008,1.978,1.978,0,0,0,1.254.372,2.038,2.038,0,0,0,1.152-.29.9.9,0,0,0,.434-.776"/>
      <path id="Trazado_720349" data-name="Trazado 720349" d="M484.746,192.235a4.05,4.05,0,0,1,.184-1.283,3.308,3.308,0,0,1,.7-1.044l.9-.921a2.066,2.066,0,0,0,.574-1.392,1.587,1.587,0,0,0-.376-1.122,1.419,1.419,0,0,0-1.093-.406,1.649,1.649,0,0,0-1.122.369,1.249,1.249,0,0,0-.423.992h-1.265a2.3,2.3,0,0,1,.79-1.789,2.953,2.953,0,0,1,2.02-.679,2.786,2.786,0,0,1,2.013.692,2.512,2.512,0,0,1,.721,1.9,3.433,3.433,0,0,1-1.108,2.355l-.745.737a2.293,2.293,0,0,0-.5,1.59Zm-.055,2.172a.75.75,0,0,1,.188-.521.709.709,0,0,1,.557-.21.722.722,0,0,1,.561.21.743.743,0,0,1,.191.521.722.722,0,0,1-.191.515.741.741,0,0,1-.561.2.676.676,0,0,1-.745-.718"/>
      <path id="Trazado_720350" data-name="Trazado 720350" d="M697.571,185.25V175.3h2.809a4.52,4.52,0,0,1,2.3.574,3.881,3.881,0,0,1,1.541,1.634,5.312,5.312,0,0,1,.551,2.433v.636a5.353,5.353,0,0,1-.543,2.468,3.832,3.832,0,0,1-1.553,1.627,4.809,4.809,0,0,1-2.348.581Zm1.312-8.88v7.807h1.381a3,3,0,0,0,2.362-.945,3.9,3.9,0,0,0,.844-2.688v-.582a3.966,3.966,0,0,0-.8-2.638,2.831,2.831,0,0,0-2.259-.954Z"/>
      <path id="Trazado_720351" data-name="Trazado 720351" d="M706.56,175.892a.753.753,0,0,1,.189-.52.7.7,0,0,1,.556-.212.715.715,0,0,1,.561.212.746.746,0,0,1,.191.52.718.718,0,0,1-.191.512.729.729,0,0,1-.561.2.714.714,0,0,1-.556-.2.725.725,0,0,1-.189-.512m1.367,9.358h-1.265v-7.4h1.265Z"/>
      <rect id="Rectángulo_350916" data-name="Rectángulo 350916" width="1.265" height="10.5" transform="translate(710.06 174.75)"/>
      <path id="Trazado_720352" data-name="Trazado 720352" d="M713.355,175.892a.754.754,0,0,1,.189-.52.7.7,0,0,1,.556-.212.716.716,0,0,1,.561.212.746.746,0,0,1,.191.52.718.718,0,0,1-.191.512.731.731,0,0,1-.561.2.714.714,0,0,1-.556-.2.725.725,0,0,1-.189-.512m1.367,9.358h-1.265v-7.4h1.265Z"/>
      <path id="Trazado_720353" data-name="Trazado 720353" d="M716.446,181.49a4.351,4.351,0,0,1,.8-2.752,2.759,2.759,0,0,1,4.232-.064l.061-.82h1.156v7.218a3.007,3.007,0,0,1-.852,2.263,3.135,3.135,0,0,1-2.286.827,3.822,3.822,0,0,1-1.566-.341,2.7,2.7,0,0,1-1.169-.937l.657-.759a2.472,2.472,0,0,0,1.989,1.005,1.939,1.939,0,0,0,1.439-.519,1.987,1.987,0,0,0,.516-1.463v-.636a2.6,2.6,0,0,1-2.071.875,2.53,2.53,0,0,1-2.1-1.046,4.573,4.573,0,0,1-.8-2.851m1.271.144a3.319,3.319,0,0,0,.513,1.966,1.667,1.667,0,0,0,1.435.714,1.854,1.854,0,0,0,1.757-1.087V179.85a1.876,1.876,0,0,0-1.743-1.06,1.682,1.682,0,0,0-1.442.718,3.61,3.61,0,0,0-.52,2.126"/>
      <path id="Trazado_720354" data-name="Trazado 720354" d="M727.669,185.387a3.232,3.232,0,0,1-2.447-.988,3.67,3.67,0,0,1-.943-2.642v-.232a4.433,4.433,0,0,1,.42-1.966,3.281,3.281,0,0,1,1.176-1.354,2.961,2.961,0,0,1,1.638-.488,2.767,2.767,0,0,1,2.241.95,4.116,4.116,0,0,1,.8,2.721v.526h-5.012a2.643,2.643,0,0,0,.639,1.768,2.014,2.014,0,0,0,1.556.673,2.19,2.19,0,0,0,1.134-.274,2.864,2.864,0,0,0,.814-.724l.772.6a3.106,3.106,0,0,1-2.789,1.429m-.156-6.631a1.689,1.689,0,0,0-1.286.557,2.712,2.712,0,0,0-.643,1.562h3.705v-.1a2.421,2.421,0,0,0-.518-1.494,1.594,1.594,0,0,0-1.258-.529"/>
      <path id="Trazado_720355" data-name="Trazado 720355" d="M733.214,177.853l.041.931a2.7,2.7,0,0,1,2.215-1.068q2.345,0,2.365,2.646v4.888H736.57v-4.9a1.709,1.709,0,0,0-.365-1.183,1.472,1.472,0,0,0-1.118-.382,1.831,1.831,0,0,0-1.08.328,2.231,2.231,0,0,0-.725.861v5.271h-1.264v-7.4Z"/>
      <path id="Trazado_720356" data-name="Trazado 720356" d="M742.709,184.354a1.825,1.825,0,0,0,1.183-.41,1.442,1.442,0,0,0,.56-1.026h1.2a2.283,2.283,0,0,1-.437,1.21,2.878,2.878,0,0,1-1.076.916,3.109,3.109,0,0,1-1.426.342,3.043,3.043,0,0,1-2.4-1.008,4.008,4.008,0,0,1-.893-2.758v-.212a4.443,4.443,0,0,1,.4-1.921,3.013,3.013,0,0,1,1.138-1.306,3.237,3.237,0,0,1,1.753-.465,2.966,2.966,0,0,1,2.068.745,2.663,2.663,0,0,1,.878,1.935h-1.2a1.745,1.745,0,0,0-.544-1.18,1.694,1.694,0,0,0-1.206-.461,1.771,1.771,0,0,0-1.493.694,3.256,3.256,0,0,0-.53,2.007v.239a3.2,3.2,0,0,0,.526,1.969,1.78,1.78,0,0,0,1.5.69"/>
      <path id="Trazado_720357" data-name="Trazado 720357" d="M747.077,175.892a.752.752,0,0,1,.188-.52.7.7,0,0,1,.557-.212.716.716,0,0,1,.561.212.75.75,0,0,1,.191.52.722.722,0,0,1-.191.512.73.73,0,0,1-.561.2.679.679,0,0,1-.745-.717m1.367,9.358h-1.265v-7.4h1.265Z"/>
      <path id="Trazado_720358" data-name="Trazado 720358" d="M755.034,185.25a2.629,2.629,0,0,1-.178-.779,2.825,2.825,0,0,1-2.106.916,2.6,2.6,0,0,1-1.794-.62,2,2,0,0,1-.7-1.568,2.094,2.094,0,0,1,.878-1.795,4.145,4.145,0,0,1,2.472-.639h1.23v-.581a1.413,1.413,0,0,0-.4-1.055,1.591,1.591,0,0,0-1.169-.394,1.846,1.846,0,0,0-1.135.342,1.009,1.009,0,0,0-.458.827h-1.271a1.748,1.748,0,0,1,.393-1.07,2.682,2.682,0,0,1,1.067-.817,3.587,3.587,0,0,1,1.479-.3,2.928,2.928,0,0,1,2,.638,2.312,2.312,0,0,1,.752,1.761v3.4a4.165,4.165,0,0,0,.26,1.62v.11Zm-2.1-.964a2.227,2.227,0,0,0,1.128-.308,1.858,1.858,0,0,0,.772-.8v-1.518h-.991q-2.325,0-2.324,1.36a1.153,1.153,0,0,0,.4.93,1.522,1.522,0,0,0,1.019.335"/>
      <path id="Trazado_720359" data-name="Trazado 720359" d="M761.658,178.988a3.767,3.767,0,0,0-.622-.048,1.668,1.668,0,0,0-1.689,1.06v5.25h-1.264v-7.4h1.23l.021.855a1.969,1.969,0,0,1,1.763-.991,1.306,1.306,0,0,1,.561.1Z"/>
      <path id="Trazado_720360" data-name="Trazado 720360" d="M766.908,185.25v-6.419h-1.169v-.977h1.169V177.1a2.517,2.517,0,0,1,.636-1.839,2.4,2.4,0,0,1,1.8-.65,3.336,3.336,0,0,1,.868.116l-.069,1.019a3.623,3.623,0,0,0-.683-.061,1.233,1.233,0,0,0-.95.36,1.454,1.454,0,0,0-.335,1.031v.783h1.579v.977h-1.579v6.419Z"/>
      <path id="Trazado_720361" data-name="Trazado 720361" d="M770.812,181.484a4.379,4.379,0,0,1,.426-1.955,3.181,3.181,0,0,1,1.19-1.34,3.238,3.238,0,0,1,1.74-.472,3.117,3.117,0,0,1,2.443,1.046,4.02,4.02,0,0,1,.934,2.782v.089a4.4,4.4,0,0,1-.414,1.938,3.144,3.144,0,0,1-1.182,1.336,3.268,3.268,0,0,1-1.767.479,3.115,3.115,0,0,1-2.438-1.046,4.008,4.008,0,0,1-.932-2.769Zm1.271.15a3.164,3.164,0,0,0,.571,1.976,1.935,1.935,0,0,0,3.059-.01,3.464,3.464,0,0,0,.567-2.116,3.156,3.156,0,0,0-.577-1.972,1.838,1.838,0,0,0-1.535-.756,1.816,1.816,0,0,0-1.511.745,3.435,3.435,0,0,0-.574,2.133"/>
      <path id="Trazado_720362" data-name="Trazado 720362" d="M782.706,178.988a3.766,3.766,0,0,0-.622-.048A1.668,1.668,0,0,0,780.4,180v5.25h-1.264v-7.4h1.23l.021.855a1.969,1.969,0,0,1,1.763-.991,1.306,1.306,0,0,1,.561.1Z"/>
      <path id="Trazado_720363" data-name="Trazado 720363" d="M785.057,177.853l.034.82a2.735,2.735,0,0,1,2.2-.957,2.115,2.115,0,0,1,2.112,1.19,2.81,2.81,0,0,1,.96-.862,2.855,2.855,0,0,1,1.4-.328q2.433,0,2.475,2.577v4.957h-1.265v-4.88a1.7,1.7,0,0,0-.362-1.186,1.593,1.593,0,0,0-1.217-.394,1.673,1.673,0,0,0-1.169.421,1.707,1.707,0,0,0-.54,1.13v4.909h-1.271V180.4a1.412,1.412,0,0,0-1.579-1.614,1.693,1.693,0,0,0-1.7,1.059v5.4h-1.264v-7.4Z"/>
      <path id="Trazado_720364" data-name="Trazado 720364" d="M800.705,185.25a2.629,2.629,0,0,1-.178-.779,2.825,2.825,0,0,1-2.106.916,2.6,2.6,0,0,1-1.794-.62,2,2,0,0,1-.7-1.568,2.094,2.094,0,0,1,.878-1.795,4.145,4.145,0,0,1,2.472-.639h1.23v-.581a1.413,1.413,0,0,0-.4-1.055,1.591,1.591,0,0,0-1.169-.394,1.846,1.846,0,0,0-1.135.342,1.009,1.009,0,0,0-.458.827h-1.271a1.748,1.748,0,0,1,.393-1.07,2.682,2.682,0,0,1,1.067-.817,3.587,3.587,0,0,1,1.479-.3,2.928,2.928,0,0,1,2,.638,2.312,2.312,0,0,1,.752,1.761v3.4a4.164,4.164,0,0,0,.26,1.62v.11Zm-2.1-.964a2.227,2.227,0,0,0,1.128-.308,1.858,1.858,0,0,0,.772-.8v-1.518h-.991q-2.325,0-2.324,1.36a1.153,1.153,0,0,0,.4.93,1.522,1.522,0,0,0,1.019.335"/>
      <path id="Trazado_720365" data-name="Trazado 720365" d="M805.469,176.063v1.791h1.381v.978h-1.381v4.592a1.025,1.025,0,0,0,.185.667.774.774,0,0,0,.628.223,3.036,3.036,0,0,0,.6-.082v1.019a3.671,3.671,0,0,1-.971.136,1.576,1.576,0,0,1-1.278-.512,2.206,2.206,0,0,1-.431-1.457v-4.586h-1.346v-.978H804.2v-1.791Z"/>
      <path id="Trazado_720366" data-name="Trazado 720366" d="M807.856,181.484a4.379,4.379,0,0,1,.426-1.955,3.181,3.181,0,0,1,1.19-1.34,3.238,3.238,0,0,1,1.74-.472,3.117,3.117,0,0,1,2.443,1.046,4.02,4.02,0,0,1,.934,2.782v.089a4.4,4.4,0,0,1-.414,1.938,3.144,3.144,0,0,1-1.182,1.336,3.268,3.268,0,0,1-1.767.479,3.115,3.115,0,0,1-2.438-1.046,4.008,4.008,0,0,1-.932-2.769Zm1.271.15a3.164,3.164,0,0,0,.571,1.976,1.935,1.935,0,0,0,3.059-.01,3.464,3.464,0,0,0,.567-2.116,3.156,3.156,0,0,0-.577-1.972,1.838,1.838,0,0,0-1.535-.756,1.816,1.816,0,0,0-1.511.745,3.435,3.435,0,0,0-.574,2.133"/>
      <path id="Trazado_720367" data-name="Trazado 720367" d="M383.287,322.25V312.3h3.253a3.78,3.78,0,0,1,2.437.67,2.412,2.412,0,0,1,.817,1.982,2.029,2.029,0,0,1-.4,1.235,2.578,2.578,0,0,1-1.08.83,2.3,2.3,0,0,1,1.274.857,2.461,2.461,0,0,1,.469,1.508,2.662,2.662,0,0,1-.868,2.106,3.593,3.593,0,0,1-2.454.765Zm1.312-5.708h1.982a2.076,2.076,0,0,0,1.378-.431,1.447,1.447,0,0,0,.516-1.171,1.422,1.422,0,0,0-.479-1.2,2.355,2.355,0,0,0-1.456-.373H384.6Zm0,1.053v3.582h2.167a2.078,2.078,0,0,0,1.445-.476,1.663,1.663,0,0,0,.531-1.308q0-1.8-1.955-1.8Z"/>
      <path id="Trazado_720368" data-name="Trazado 720368" d="M396.371,321.518a2.686,2.686,0,0,1-2.167.868,2.3,2.3,0,0,1-1.8-.687,2.977,2.977,0,0,1-.625-2.034v-4.811h1.265v4.777q0,1.682,1.367,1.682a1.894,1.894,0,0,0,1.928-1.08v-5.379H397.6v7.395h-1.2Z"/>
      <path id="Trazado_720369" data-name="Trazado 720369" d="M403.829,320.288a.929.929,0,0,0-.387-.8A3.72,3.72,0,0,0,402.1,319a6.418,6.418,0,0,1-1.526-.492,2.183,2.183,0,0,1-.834-.684,1.644,1.644,0,0,1-.269-.943,1.916,1.916,0,0,1,.769-1.538,3,3,0,0,1,1.965-.629,3.1,3.1,0,0,1,2.041.649,2.061,2.061,0,0,1,.782,1.661h-1.271a1.145,1.145,0,0,0-.441-.9,1.654,1.654,0,0,0-1.111-.376,1.727,1.727,0,0,0-1.08.3.945.945,0,0,0-.39.786.766.766,0,0,0,.363.69,4.436,4.436,0,0,0,1.308.444,6.827,6.827,0,0,1,1.535.506,2.235,2.235,0,0,1,.871.708,1.734,1.734,0,0,1,.285,1.008,1.9,1.9,0,0,1-.793,1.59,3.333,3.333,0,0,1-2.058.6,3.717,3.717,0,0,1-1.572-.315,2.558,2.558,0,0,1-1.071-.879,2.122,2.122,0,0,1-.385-1.219h1.264a1.312,1.312,0,0,0,.51,1.008,1.978,1.978,0,0,0,1.254.372,2.038,2.038,0,0,0,1.152-.29.9.9,0,0,0,.434-.776"/>
      <path id="Trazado_720370" data-name="Trazado 720370" d="M409.708,321.354a1.825,1.825,0,0,0,1.183-.41,1.442,1.442,0,0,0,.56-1.026h1.2a2.282,2.282,0,0,1-.437,1.21,2.878,2.878,0,0,1-1.076.916,3.109,3.109,0,0,1-1.426.342,3.043,3.043,0,0,1-2.4-1.008,4.008,4.008,0,0,1-.893-2.758v-.212a4.442,4.442,0,0,1,.4-1.921,3.013,3.013,0,0,1,1.138-1.306,3.237,3.237,0,0,1,1.753-.465,2.966,2.966,0,0,1,2.068.745,2.663,2.663,0,0,1,.878,1.935h-1.2a1.744,1.744,0,0,0-.544-1.18,1.694,1.694,0,0,0-1.206-.461,1.771,1.771,0,0,0-1.493.694,3.256,3.256,0,0,0-.53,2.007v.239a3.2,3.2,0,0,0,.526,1.969,1.78,1.78,0,0,0,1.5.69"/>
      <path id="Trazado_720371" data-name="Trazado 720371" d="M418.636,322.25a2.63,2.63,0,0,1-.178-.779,2.825,2.825,0,0,1-2.106.916,2.6,2.6,0,0,1-1.794-.62,2,2,0,0,1-.7-1.568,2.094,2.094,0,0,1,.878-1.8,4.146,4.146,0,0,1,2.472-.639h1.23v-.581a1.413,1.413,0,0,0-.4-1.055,1.591,1.591,0,0,0-1.169-.394,1.846,1.846,0,0,0-1.135.342,1.009,1.009,0,0,0-.458.827h-1.271a1.748,1.748,0,0,1,.393-1.07,2.682,2.682,0,0,1,1.067-.817,3.587,3.587,0,0,1,1.479-.3,2.928,2.928,0,0,1,2,.638,2.312,2.312,0,0,1,.752,1.761v3.4a4.164,4.164,0,0,0,.26,1.62v.11Zm-2.1-.964a2.227,2.227,0,0,0,1.128-.308,1.858,1.858,0,0,0,.772-.8v-1.518h-.991q-2.325,0-2.324,1.36a1.153,1.153,0,0,0,.4.93,1.522,1.522,0,0,0,1.019.335"/>
      <path id="Trazado_720372" data-name="Trazado 720372" d="M425.259,315.988a3.767,3.767,0,0,0-.622-.048,1.668,1.668,0,0,0-1.689,1.06v5.25h-1.264v-7.4h1.23l.021.855a1.969,1.969,0,0,1,1.763-.991,1.306,1.306,0,0,1,.561.1Z"/>
      <path id="Trazado_720373" data-name="Trazado 720373" d="M432.957,322.387a3.229,3.229,0,0,1-2.447-.988,3.666,3.666,0,0,1-.943-2.642v-.232a4.432,4.432,0,0,1,.42-1.966,3.281,3.281,0,0,1,1.176-1.354,2.96,2.96,0,0,1,1.637-.488,2.767,2.767,0,0,1,2.242.95,4.116,4.116,0,0,1,.8,2.721v.526h-5.011a2.638,2.638,0,0,0,.639,1.768,2.014,2.014,0,0,0,1.556.673,2.192,2.192,0,0,0,1.134-.274,2.864,2.864,0,0,0,.814-.724l.772.6a3.108,3.108,0,0,1-2.789,1.429m-.157-6.631a1.688,1.688,0,0,0-1.285.557,2.705,2.705,0,0,0-.643,1.562h3.7v-.1a2.416,2.416,0,0,0-.519-1.494,1.593,1.593,0,0,0-1.258-.529"/>
      <path id="Trazado_720374" data-name="Trazado 720374" d="M438.5,314.853l.041.93a2.7,2.7,0,0,1,2.215-1.067q2.345,0,2.365,2.646v4.887h-1.265v-4.894a1.707,1.707,0,0,0-.365-1.183,1.468,1.468,0,0,0-1.118-.382,1.823,1.823,0,0,0-1.08.328,2.224,2.224,0,0,0-.725.861v5.27H437.3v-7.4Z"/>
      <path id="Trazado_720375" data-name="Trazado 720375" d="M454.757,318.634a4.392,4.392,0,0,1-.78,2.723,2.485,2.485,0,0,1-2.091,1.029,2.576,2.576,0,0,1-2.167-.991l-.062.855h-1.162v-10.5h1.265v3.917a2.561,2.561,0,0,1,2.112-.95,2.5,2.5,0,0,1,2.115,1.018,4.522,4.522,0,0,1,.77,2.789Zm-1.265-.144a3.417,3.417,0,0,0-.5-2,1.652,1.652,0,0,0-1.436-.7,1.855,1.855,0,0,0-1.8,1.162v3.2a1.907,1.907,0,0,0,1.811,1.162,1.64,1.64,0,0,0,1.415-.7,3.637,3.637,0,0,0,.506-2.119"/>
      <path id="Trazado_720376" data-name="Trazado 720376" d="M456.015,318.484a4.379,4.379,0,0,1,.426-1.955,3.181,3.181,0,0,1,1.19-1.34,3.238,3.238,0,0,1,1.74-.472,3.117,3.117,0,0,1,2.443,1.046,4.02,4.02,0,0,1,.934,2.782v.089a4.4,4.4,0,0,1-.414,1.938,3.144,3.144,0,0,1-1.182,1.336,3.268,3.268,0,0,1-1.767.479,3.115,3.115,0,0,1-2.438-1.046,4.008,4.008,0,0,1-.932-2.769Zm1.271.15a3.164,3.164,0,0,0,.571,1.976,1.935,1.935,0,0,0,3.059-.01,3.463,3.463,0,0,0,.567-2.116,3.156,3.156,0,0,0-.577-1.972,1.838,1.838,0,0,0-1.535-.756,1.816,1.816,0,0,0-1.511.745,3.435,3.435,0,0,0-.574,2.133"/>
      <path id="Trazado_720377" data-name="Trazado 720377" d="M464.026,318.49a4.337,4.337,0,0,1,.807-2.738,2.745,2.745,0,0,1,4.17-.146V311.75h1.265v10.5h-1.163l-.061-.793a2.575,2.575,0,0,1-2.112.93,2.528,2.528,0,0,1-2.1-1.053,4.389,4.389,0,0,1-.81-2.748Zm1.265.144a3.276,3.276,0,0,0,.52,1.969,1.681,1.681,0,0,0,1.435.711,1.847,1.847,0,0,0,1.757-1.08v-3.4a1.859,1.859,0,0,0-1.743-1.046,1.688,1.688,0,0,0-1.449.718,3.61,3.61,0,0,0-.52,2.126"/>
      <path id="Trazado_720378" data-name="Trazado 720378" d="M475.3,322.387a3.229,3.229,0,0,1-2.447-.988,3.666,3.666,0,0,1-.943-2.642v-.232a4.432,4.432,0,0,1,.42-1.966A3.281,3.281,0,0,1,473.5,315.2a2.96,2.96,0,0,1,1.637-.488,2.767,2.767,0,0,1,2.242.95,4.116,4.116,0,0,1,.8,2.721v.526h-5.011a2.638,2.638,0,0,0,.639,1.768,2.014,2.014,0,0,0,1.556.673,2.192,2.192,0,0,0,1.134-.274,2.864,2.864,0,0,0,.814-.724l.772.6a3.108,3.108,0,0,1-2.789,1.429m-.157-6.631a1.688,1.688,0,0,0-1.285.557,2.705,2.705,0,0,0-.643,1.562h3.7v-.1a2.415,2.415,0,0,0-.519-1.494,1.593,1.593,0,0,0-1.258-.529"/>
      <path id="Trazado_720379" data-name="Trazado 720379" d="M479.346,318.49a4.351,4.351,0,0,1,.8-2.752,2.759,2.759,0,0,1,4.232-.064l.061-.82h1.156v7.218a3.007,3.007,0,0,1-.852,2.263,3.135,3.135,0,0,1-2.286.827,3.822,3.822,0,0,1-1.566-.341,2.7,2.7,0,0,1-1.169-.937l.657-.759a2.472,2.472,0,0,0,1.989,1.005,1.939,1.939,0,0,0,1.439-.519,1.987,1.987,0,0,0,.516-1.463v-.636a2.6,2.6,0,0,1-2.071.875,2.53,2.53,0,0,1-2.1-1.046,4.573,4.573,0,0,1-.8-2.851m1.271.144a3.319,3.319,0,0,0,.513,1.966,1.667,1.667,0,0,0,1.435.714,1.854,1.854,0,0,0,1.757-1.087V316.85a1.876,1.876,0,0,0-1.743-1.06,1.681,1.681,0,0,0-1.442.718,3.61,3.61,0,0,0-.52,2.126"/>
      <path id="Trazado_720380" data-name="Trazado 720380" d="M492.068,322.25a2.591,2.591,0,0,1-.179-.779,2.825,2.825,0,0,1-2.106.916,2.6,2.6,0,0,1-1.793-.62,2,2,0,0,1-.7-1.568,2.093,2.093,0,0,1,.879-1.8,4.142,4.142,0,0,1,2.471-.639h1.23v-.581a1.416,1.416,0,0,0-.4-1.055,1.6,1.6,0,0,0-1.17-.394,1.846,1.846,0,0,0-1.135.342,1.009,1.009,0,0,0-.458.827h-1.271a1.748,1.748,0,0,1,.393-1.07,2.678,2.678,0,0,1,1.068-.817,3.582,3.582,0,0,1,1.478-.3,2.932,2.932,0,0,1,2,.638,2.308,2.308,0,0,1,.751,1.761v3.4a4.164,4.164,0,0,0,.26,1.62v.11Zm-2.1-.964a2.223,2.223,0,0,0,1.127-.308,1.852,1.852,0,0,0,.772-.8v-1.518h-.99q-2.326,0-2.325,1.36a1.153,1.153,0,0,0,.4.93,1.523,1.523,0,0,0,1.02.335"/>
      <path id="Trazado_720381" data-name="Trazado 720381" d="M499.423,320.288a.929.929,0,0,0-.387-.8,3.721,3.721,0,0,0-1.345-.489,6.418,6.418,0,0,1-1.526-.492,2.183,2.183,0,0,1-.834-.684,1.644,1.644,0,0,1-.269-.943,1.916,1.916,0,0,1,.769-1.538,3,3,0,0,1,1.965-.629,3.1,3.1,0,0,1,2.041.649,2.061,2.061,0,0,1,.782,1.661h-1.271a1.145,1.145,0,0,0-.441-.9,1.654,1.654,0,0,0-1.111-.376,1.727,1.727,0,0,0-1.08.3.945.945,0,0,0-.39.786.766.766,0,0,0,.363.69,4.436,4.436,0,0,0,1.308.444,6.828,6.828,0,0,1,1.535.506,2.235,2.235,0,0,1,.871.708,1.735,1.735,0,0,1,.285,1.008,1.9,1.9,0,0,1-.793,1.59,3.333,3.333,0,0,1-2.058.6,3.716,3.716,0,0,1-1.572-.315,2.558,2.558,0,0,1-1.071-.879,2.122,2.122,0,0,1-.385-1.219h1.264a1.312,1.312,0,0,0,.51,1.008,1.978,1.978,0,0,0,1.254.372,2.038,2.038,0,0,0,1.152-.29.9.9,0,0,0,.434-.776"/>
      <path id="Trazado_720382" data-name="Trazado 720382" d="M502.294,324.232l-.718-.492a3.292,3.292,0,0,0,.67-1.846v-1.141h1.237v.991a3.134,3.134,0,0,1-.337,1.381,3.251,3.251,0,0,1-.852,1.107"/>
      <path id="Trazado_720383" data-name="Trazado 720383" d="M514.242,319.645h-4.169l-.936,2.605h-1.354l3.8-9.953h1.149l3.807,9.953h-1.346Zm-3.772-1.073h3.383l-1.7-4.655Z"/>
      <path id="Trazado_720384" data-name="Trazado 720384" d="M517.709,321.587a.787.787,0,0,1,.2-.547.744.744,0,0,1,.584-.219.77.77,0,0,1,.592.219.778.778,0,0,1,.2.547.733.733,0,0,1-.2.526.778.778,0,0,1-.592.212.752.752,0,0,1-.584-.212.742.742,0,0,1-.2-.526"/>
      <path id="Trazado_720385" data-name="Trazado 720385" d="M364.714,338.154a1.825,1.825,0,0,0,1.183-.41,1.442,1.442,0,0,0,.56-1.026h1.2a2.282,2.282,0,0,1-.437,1.21,2.878,2.878,0,0,1-1.076.916,3.109,3.109,0,0,1-1.426.342,3.043,3.043,0,0,1-2.4-1.008,4.008,4.008,0,0,1-.893-2.758v-.212a4.442,4.442,0,0,1,.4-1.921,3.013,3.013,0,0,1,1.138-1.306,3.237,3.237,0,0,1,1.753-.465,2.966,2.966,0,0,1,2.068.745,2.663,2.663,0,0,1,.878,1.935h-1.2a1.744,1.744,0,0,0-.544-1.18,1.694,1.694,0,0,0-1.206-.461,1.771,1.771,0,0,0-1.493.694,3.256,3.256,0,0,0-.53,2.007v.239a3.2,3.2,0,0,0,.526,1.969,1.78,1.78,0,0,0,1.5.69"/>
      <path id="Trazado_720386" data-name="Trazado 720386" d="M373.641,338.318a2.686,2.686,0,0,1-2.167.868,2.3,2.3,0,0,1-1.8-.687,2.977,2.977,0,0,1-.625-2.034v-4.812h1.265v4.778q0,1.682,1.367,1.682a1.894,1.894,0,0,0,1.928-1.08v-5.38h1.264v7.4h-1.2Z"/>
      <path id="Trazado_720387" data-name="Trazado 720387" d="M381.359,339.05a2.629,2.629,0,0,1-.178-.779,2.825,2.825,0,0,1-2.106.916,2.6,2.6,0,0,1-1.794-.62,2,2,0,0,1-.7-1.568,2.094,2.094,0,0,1,.878-1.795,4.146,4.146,0,0,1,2.472-.639h1.23v-.581a1.413,1.413,0,0,0-.4-1.055,1.591,1.591,0,0,0-1.169-.394,1.846,1.846,0,0,0-1.135.342,1.009,1.009,0,0,0-.458.827h-1.271a1.748,1.748,0,0,1,.393-1.07,2.682,2.682,0,0,1,1.067-.817,3.587,3.587,0,0,1,1.479-.3,2.928,2.928,0,0,1,2,.638,2.312,2.312,0,0,1,.752,1.761v3.4a4.164,4.164,0,0,0,.26,1.62v.11Zm-2.1-.964a2.227,2.227,0,0,0,1.128-.308,1.858,1.858,0,0,0,.772-.8v-1.518h-.991q-2.325,0-2.324,1.36a1.153,1.153,0,0,0,.4.93,1.522,1.522,0,0,0,1.019.335"/>
      <path id="Trazado_720388" data-name="Trazado 720388" d="M387.983,332.788a3.77,3.77,0,0,0-.622-.048,1.668,1.668,0,0,0-1.689,1.06v5.25h-1.264v-7.4h1.23l.021.855a1.969,1.969,0,0,1,1.763-.991,1.306,1.306,0,0,1,.561.1Z"/>
      <path id="Trazado_720389" data-name="Trazado 720389" d="M392.084,339.187a3.229,3.229,0,0,1-2.447-.988,3.666,3.666,0,0,1-.943-2.642v-.232a4.432,4.432,0,0,1,.42-1.966,3.28,3.28,0,0,1,1.176-1.354,2.96,2.96,0,0,1,1.637-.488,2.767,2.767,0,0,1,2.242.95,4.116,4.116,0,0,1,.8,2.721v.526h-5.011a2.638,2.638,0,0,0,.639,1.768,2.014,2.014,0,0,0,1.556.673,2.192,2.192,0,0,0,1.134-.274,2.865,2.865,0,0,0,.814-.724l.772.6a3.108,3.108,0,0,1-2.789,1.429m-.157-6.631a1.688,1.688,0,0,0-1.285.557,2.705,2.705,0,0,0-.643,1.562H393.7v-.1a2.416,2.416,0,0,0-.519-1.494,1.593,1.593,0,0,0-1.258-.529"/>
      <path id="Trazado_720390" data-name="Trazado 720390" d="M397.629,331.653l.041.93a2.7,2.7,0,0,1,2.215-1.067q2.344,0,2.365,2.646v4.887h-1.265v-4.894a1.707,1.707,0,0,0-.365-1.183,1.468,1.468,0,0,0-1.118-.382,1.824,1.824,0,0,0-1.08.328,2.224,2.224,0,0,0-.725.861v5.27h-1.264v-7.4Z"/>
      <path id="Trazado_720391" data-name="Trazado 720391" d="M405.873,329.862v1.791h1.381v.978h-1.381v4.592a1.025,1.025,0,0,0,.185.667.774.774,0,0,0,.628.223,3.038,3.038,0,0,0,.6-.082v1.019a3.672,3.672,0,0,1-.971.136,1.576,1.576,0,0,1-1.278-.512,2.206,2.206,0,0,1-.431-1.457v-4.586h-1.346v-.978h1.346v-1.791Z"/>
      <path id="Trazado_720392" data-name="Trazado 720392" d="M411.8,339.187a3.229,3.229,0,0,1-2.447-.988,3.666,3.666,0,0,1-.943-2.642v-.232a4.432,4.432,0,0,1,.42-1.966,3.28,3.28,0,0,1,1.176-1.354,2.96,2.96,0,0,1,1.637-.488,2.767,2.767,0,0,1,2.242.95,4.116,4.116,0,0,1,.8,2.721v.526h-5.011a2.638,2.638,0,0,0,.639,1.768,2.014,2.014,0,0,0,1.556.673,2.192,2.192,0,0,0,1.134-.274,2.865,2.865,0,0,0,.814-.724l.772.6a3.108,3.108,0,0,1-2.789,1.429m-.157-6.631a1.688,1.688,0,0,0-1.285.557,2.705,2.705,0,0,0-.643,1.562h3.705v-.1a2.415,2.415,0,0,0-.519-1.494,1.593,1.593,0,0,0-1.258-.529"/>
      <path id="Trazado_720393" data-name="Trazado 720393" d="M417.344,331.653l.04.93a2.7,2.7,0,0,1,2.215-1.067q2.344,0,2.365,2.646v4.887H420.7v-4.894a1.712,1.712,0,0,0-.364-1.183,1.47,1.47,0,0,0-1.119-.382,1.821,1.821,0,0,0-1.079.328,2.226,2.226,0,0,0-.726.861v5.27h-1.264v-7.4Z"/>
      <path id="Trazado_720394" data-name="Trazado 720394" d="M428.439,339.05a2.63,2.63,0,0,1-.178-.779,2.825,2.825,0,0,1-2.106.916,2.6,2.6,0,0,1-1.794-.62,2,2,0,0,1-.7-1.568,2.094,2.094,0,0,1,.878-1.795,4.146,4.146,0,0,1,2.472-.639h1.23v-.581a1.413,1.413,0,0,0-.4-1.055,1.591,1.591,0,0,0-1.169-.394,1.845,1.845,0,0,0-1.135.342,1.009,1.009,0,0,0-.458.827h-1.271a1.748,1.748,0,0,1,.393-1.07,2.682,2.682,0,0,1,1.067-.817,3.587,3.587,0,0,1,1.479-.3,2.928,2.928,0,0,1,2,.638,2.312,2.312,0,0,1,.752,1.761v3.4a4.164,4.164,0,0,0,.26,1.62v.11Zm-2.1-.964a2.227,2.227,0,0,0,1.128-.308,1.858,1.858,0,0,0,.772-.8v-1.518h-.991q-2.325,0-2.324,1.36a1.153,1.153,0,0,0,.4.93,1.522,1.522,0,0,0,1.019.335"/>
      <path id="Trazado_720395" data-name="Trazado 720395" d="M431.446,341.032l-.718-.492a3.292,3.292,0,0,0,.67-1.846v-1.141h1.237v.991a3.134,3.134,0,0,1-.337,1.381,3.251,3.251,0,0,1-.852,1.107"/>
      <path id="Trazado_720396" data-name="Trazado 720396" d="M440.141,337.334l1.832-5.681h1.292l-2.652,7.4h-.964l-2.68-7.4h1.292Z"/>
      <path id="Trazado_720397" data-name="Trazado 720397" d="M447.462,339.187a3.229,3.229,0,0,1-2.447-.988,3.666,3.666,0,0,1-.943-2.642v-.232a4.432,4.432,0,0,1,.42-1.966,3.28,3.28,0,0,1,1.176-1.354,2.96,2.96,0,0,1,1.637-.488,2.767,2.767,0,0,1,2.242.95,4.116,4.116,0,0,1,.8,2.721v.526h-5.011a2.638,2.638,0,0,0,.639,1.768,2.014,2.014,0,0,0,1.556.673,2.192,2.192,0,0,0,1.134-.274,2.865,2.865,0,0,0,.814-.724l.772.6a3.108,3.108,0,0,1-2.789,1.429m-.157-6.631a1.688,1.688,0,0,0-1.285.557,2.705,2.705,0,0,0-.643,1.562h3.7v-.1a2.415,2.415,0,0,0-.519-1.494,1.593,1.593,0,0,0-1.258-.529"/>
      <path id="Trazado_720398" data-name="Trazado 720398" d="M453.007,331.653l.041.93a2.7,2.7,0,0,1,2.215-1.067q2.344,0,2.365,2.646v4.887h-1.265v-4.894a1.707,1.707,0,0,0-.365-1.183,1.468,1.468,0,0,0-1.118-.382,1.824,1.824,0,0,0-1.08.328,2.223,2.223,0,0,0-.725.861v5.27h-1.264v-7.4Z"/>
      <path id="Trazado_720399" data-name="Trazado 720399" d="M462.5,338.154a1.825,1.825,0,0,0,1.183-.41,1.442,1.442,0,0,0,.56-1.026h1.2a2.282,2.282,0,0,1-.437,1.21,2.878,2.878,0,0,1-1.076.916,3.109,3.109,0,0,1-1.426.342,3.043,3.043,0,0,1-2.4-1.008,4.008,4.008,0,0,1-.893-2.758v-.212a4.442,4.442,0,0,1,.4-1.921,3.013,3.013,0,0,1,1.138-1.306,3.237,3.237,0,0,1,1.753-.465,2.966,2.966,0,0,1,2.068.745,2.663,2.663,0,0,1,.878,1.935h-1.2a1.744,1.744,0,0,0-.544-1.18,1.694,1.694,0,0,0-1.206-.461,1.771,1.771,0,0,0-1.493.694,3.256,3.256,0,0,0-.53,2.007v.239a3.2,3.2,0,0,0,.526,1.969,1.78,1.78,0,0,0,1.5.69"/>
      <path id="Trazado_720400" data-name="Trazado 720400" d="M466.87,329.691a.75.75,0,0,1,.188-.519.7.7,0,0,1,.557-.212.716.716,0,0,1,.561.212.748.748,0,0,1,.191.519.684.684,0,0,1-.752.718.717.717,0,0,1-.557-.2.728.728,0,0,1-.188-.513m1.367,9.359h-1.265v-7.4h1.265Z"/>
      <path id="Trazado_720401" data-name="Trazado 720401" d="M471.45,331.653l.034.82a2.735,2.735,0,0,1,2.195-.957,2.115,2.115,0,0,1,2.112,1.19,2.8,2.8,0,0,1,.96-.862,2.844,2.844,0,0,1,1.4-.328q2.433,0,2.475,2.577v4.956h-1.265v-4.88a1.7,1.7,0,0,0-.362-1.186,1.593,1.593,0,0,0-1.217-.393,1.673,1.673,0,0,0-1.169.42,1.71,1.71,0,0,0-.54,1.131v4.908H474.8V334.2a1.411,1.411,0,0,0-1.579-1.613,1.693,1.693,0,0,0-1.7,1.059v5.4h-1.264v-7.4Z"/>
      <path id="Trazado_720402" data-name="Trazado 720402" d="M482.538,329.691a.75.75,0,0,1,.188-.519.7.7,0,0,1,.557-.212.716.716,0,0,1,.561.212.748.748,0,0,1,.191.519.684.684,0,0,1-.752.718.717.717,0,0,1-.557-.2.728.728,0,0,1-.188-.513m1.367,9.359H482.64v-7.4H483.9Z"/>
      <path id="Trazado_720403" data-name="Trazado 720403" d="M489,339.187a3.229,3.229,0,0,1-2.447-.988,3.666,3.666,0,0,1-.943-2.642v-.232a4.432,4.432,0,0,1,.42-1.966,3.28,3.28,0,0,1,1.176-1.354,2.96,2.96,0,0,1,1.637-.488,2.767,2.767,0,0,1,2.242.95,4.116,4.116,0,0,1,.8,2.721v.526h-5.011a2.638,2.638,0,0,0,.639,1.768,2.014,2.014,0,0,0,1.556.673,2.192,2.192,0,0,0,1.134-.274,2.865,2.865,0,0,0,.814-.724l.772.6A3.108,3.108,0,0,1,489,339.187m-.157-6.631a1.688,1.688,0,0,0-1.285.557,2.705,2.705,0,0,0-.643,1.562h3.705v-.1a2.416,2.416,0,0,0-.519-1.494,1.593,1.593,0,0,0-1.258-.529"/>
      <path id="Trazado_720404" data-name="Trazado 720404" d="M494.542,331.653l.041.93a2.7,2.7,0,0,1,2.215-1.067q2.344,0,2.365,2.646v4.887H497.9v-4.894a1.707,1.707,0,0,0-.365-1.183,1.468,1.468,0,0,0-1.118-.382,1.824,1.824,0,0,0-1.08.328,2.224,2.224,0,0,0-.725.861v5.27h-1.264v-7.4Z"/>
      <path id="Trazado_720405" data-name="Trazado 720405" d="M502.786,329.862v1.791h1.381v.978h-1.381v4.592a1.025,1.025,0,0,0,.185.667.774.774,0,0,0,.628.223,3.038,3.038,0,0,0,.6-.082v1.019a3.671,3.671,0,0,1-.971.136,1.576,1.576,0,0,1-1.278-.512,2.206,2.206,0,0,1-.431-1.457v-4.586h-1.346v-.978h1.346v-1.791Z"/>
      <path id="Trazado_720406" data-name="Trazado 720406" d="M505.172,335.283a4.379,4.379,0,0,1,.426-1.955,3.181,3.181,0,0,1,1.19-1.34,3.238,3.238,0,0,1,1.74-.472,3.117,3.117,0,0,1,2.443,1.046,4.02,4.02,0,0,1,.934,2.782v.089a4.4,4.4,0,0,1-.414,1.938,3.144,3.144,0,0,1-1.182,1.336,3.268,3.268,0,0,1-1.767.479,3.115,3.115,0,0,1-2.438-1.046,4.008,4.008,0,0,1-.932-2.769Zm1.271.15a3.164,3.164,0,0,0,.571,1.976,1.935,1.935,0,0,0,3.059-.01,3.464,3.464,0,0,0,.567-2.116,3.156,3.156,0,0,0-.577-1.972,1.838,1.838,0,0,0-1.535-.756,1.816,1.816,0,0,0-1.511.745,3.435,3.435,0,0,0-.574,2.133"/>
      <path id="Trazado_720407" data-name="Trazado 720407" d="M513.45,341.032l-.718-.492a3.292,3.292,0,0,0,.67-1.846v-1.141h1.237v.991a3.134,3.134,0,0,1-.337,1.381,3.251,3.251,0,0,1-.852,1.107"/>
      <path id="Trazado_720408" data-name="Trazado 720408" d="M522.774,339.187a3.229,3.229,0,0,1-2.447-.988,3.666,3.666,0,0,1-.943-2.642v-.232a4.432,4.432,0,0,1,.42-1.966,3.28,3.28,0,0,1,1.176-1.354,2.96,2.96,0,0,1,1.637-.488,2.767,2.767,0,0,1,2.242.95,4.116,4.116,0,0,1,.8,2.721v.526h-5.011a2.638,2.638,0,0,0,.639,1.768,2.014,2.014,0,0,0,1.556.673,2.192,2.192,0,0,0,1.134-.274,2.865,2.865,0,0,0,.814-.724l.772.6a3.108,3.108,0,0,1-2.789,1.429m-.157-6.631a1.688,1.688,0,0,0-1.285.557,2.7,2.7,0,0,0-.643,1.562h3.7v-.1a2.415,2.415,0,0,0-.519-1.494,1.593,1.593,0,0,0-1.258-.529"/>
      <path id="Trazado_720409" data-name="Trazado 720409" d="M528.838,329.862v1.791h1.381v.978h-1.381v4.592a1.025,1.025,0,0,0,.185.667.774.774,0,0,0,.628.223,3.038,3.038,0,0,0,.6-.082v1.019a3.672,3.672,0,0,1-.971.136,1.576,1.576,0,0,1-1.278-.512,2.206,2.206,0,0,1-.431-1.457v-4.586h-1.346v-.978h1.346v-1.791Z"/>
      <path id="Trazado_720410" data-name="Trazado 720410" d="M534.662,338.154a1.825,1.825,0,0,0,1.183-.41,1.442,1.442,0,0,0,.56-1.026h1.2a2.283,2.283,0,0,1-.437,1.21,2.877,2.877,0,0,1-1.076.916,3.109,3.109,0,0,1-1.426.342,3.043,3.043,0,0,1-2.4-1.008,4.008,4.008,0,0,1-.893-2.758v-.212a4.443,4.443,0,0,1,.4-1.921,3.013,3.013,0,0,1,1.138-1.306,3.237,3.237,0,0,1,1.753-.465,2.966,2.966,0,0,1,2.068.745,2.663,2.663,0,0,1,.878,1.935h-1.2a1.745,1.745,0,0,0-.544-1.18,1.694,1.694,0,0,0-1.206-.461,1.771,1.771,0,0,0-1.493.694,3.256,3.256,0,0,0-.53,2.007v.239a3.2,3.2,0,0,0,.526,1.969,1.78,1.78,0,0,0,1.5.69"/>
      <path id="Trazado_720411" data-name="Trazado 720411" d="M539.05,338.387a.787.787,0,0,1,.2-.547.744.744,0,0,1,.584-.219.77.77,0,0,1,.592.219.778.778,0,0,1,.2.547.733.733,0,0,1-.2.526.778.778,0,0,1-.592.212.752.752,0,0,1-.584-.212.742.742,0,0,1-.2-.526"/>
      <path id="Trazado_720412" data-name="Trazado 720412" d="M410.911,396.873a6.177,6.177,0,0,1-2.457-1.192,2.279,2.279,0,0,1-.77-1.747,2.407,2.407,0,0,1,.94-1.945,3.734,3.734,0,0,1,2.444-.769,4.084,4.084,0,0,1,1.829.4,3.014,3.014,0,0,1,1.244,1.094,2.8,2.8,0,0,1,.441,1.524h-1.319a1.819,1.819,0,0,0-.575-1.423,2.335,2.335,0,0,0-1.62-.518,2.394,2.394,0,0,0-1.514.428,1.428,1.428,0,0,0-.543,1.188,1.282,1.282,0,0,0,.515,1.03,5.049,5.049,0,0,0,1.758.771,8.23,8.23,0,0,1,1.941.769,2.978,2.978,0,0,1,1.04.982,2.517,2.517,0,0,1,.337,1.319,2.324,2.324,0,0,1-.943,1.938,4.018,4.018,0,0,1-2.522.728,4.691,4.691,0,0,1-1.914-.392,3.223,3.223,0,0,1-1.371-1.077,2.626,2.626,0,0,1-.482-1.552h1.319a1.717,1.717,0,0,0,.667,1.426,2.814,2.814,0,0,0,1.781.522,2.582,2.582,0,0,0,1.592-.424,1.374,1.374,0,0,0,.554-1.155,1.351,1.351,0,0,0-.513-1.131,5.879,5.879,0,0,0-1.859-.79"/>
      <path id="Trazado_720413" data-name="Trazado 720413" d="M419.155,401.446a3.229,3.229,0,0,1-2.447-.988,3.666,3.666,0,0,1-.943-2.642v-.232a4.432,4.432,0,0,1,.42-1.966,3.28,3.28,0,0,1,1.176-1.354,2.96,2.96,0,0,1,1.637-.488,2.767,2.767,0,0,1,2.242.95,4.116,4.116,0,0,1,.8,2.721v.526h-5.011a2.638,2.638,0,0,0,.639,1.768,2.014,2.014,0,0,0,1.556.673,2.192,2.192,0,0,0,1.134-.274,2.864,2.864,0,0,0,.814-.724l.772.6a3.108,3.108,0,0,1-2.789,1.429M419,394.815a1.688,1.688,0,0,0-1.285.557,2.7,2.7,0,0,0-.643,1.562h3.7v-.1a2.415,2.415,0,0,0-.519-1.494,1.593,1.593,0,0,0-1.258-.529"/>
      <path id="Trazado_720414" data-name="Trazado 720414" d="M430.038,401.446a3.229,3.229,0,0,1-2.447-.988,3.666,3.666,0,0,1-.943-2.642v-.232a4.432,4.432,0,0,1,.42-1.966,3.28,3.28,0,0,1,1.176-1.354,2.96,2.96,0,0,1,1.637-.488,2.767,2.767,0,0,1,2.242.95,4.116,4.116,0,0,1,.8,2.721v.526h-5.011a2.638,2.638,0,0,0,.639,1.768,2.014,2.014,0,0,0,1.556.673,2.192,2.192,0,0,0,1.134-.274,2.864,2.864,0,0,0,.814-.724l.772.6a3.108,3.108,0,0,1-2.789,1.429m-.157-6.631a1.688,1.688,0,0,0-1.285.557,2.7,2.7,0,0,0-.643,1.562h3.7v-.1a2.415,2.415,0,0,0-.519-1.494,1.593,1.593,0,0,0-1.258-.529"/>
      <path id="Trazado_720415" data-name="Trazado 720415" d="M435.582,393.913l.041.93a2.7,2.7,0,0,1,2.215-1.067q2.344,0,2.365,2.646v4.887h-1.265v-4.894a1.707,1.707,0,0,0-.365-1.183,1.468,1.468,0,0,0-1.118-.382,1.824,1.824,0,0,0-1.08.328,2.224,2.224,0,0,0-.725.861v5.27h-1.264v-7.4Z"/>
      <path id="Trazado_720416" data-name="Trazado 720416" d="M445.077,400.414a1.825,1.825,0,0,0,1.183-.41,1.442,1.442,0,0,0,.56-1.026h1.2a2.282,2.282,0,0,1-.437,1.21,2.878,2.878,0,0,1-1.076.916,3.109,3.109,0,0,1-1.426.342,3.044,3.044,0,0,1-2.4-1.008,4.008,4.008,0,0,1-.893-2.758v-.212a4.442,4.442,0,0,1,.4-1.921,3.013,3.013,0,0,1,1.138-1.306,3.237,3.237,0,0,1,1.753-.465,2.966,2.966,0,0,1,2.068.745,2.663,2.663,0,0,1,.878,1.935h-1.2a1.744,1.744,0,0,0-.544-1.18,1.694,1.694,0,0,0-1.206-.461,1.771,1.771,0,0,0-1.493.694,3.256,3.256,0,0,0-.53,2.007v.239a3.2,3.2,0,0,0,.526,1.969,1.78,1.78,0,0,0,1.5.69"/>
      <path id="Trazado_720417" data-name="Trazado 720417" d="M454.005,400.578a2.686,2.686,0,0,1-2.167.868,2.3,2.3,0,0,1-1.8-.687,2.977,2.977,0,0,1-.625-2.034v-4.812h1.265v4.778q0,1.682,1.367,1.682a1.894,1.894,0,0,0,1.928-1.08v-5.38h1.264v7.4h-1.2Z"/>
      <path id="Trazado_720418" data-name="Trazado 720418" d="M460.225,401.446a3.229,3.229,0,0,1-2.447-.988,3.666,3.666,0,0,1-.943-2.642v-.232a4.432,4.432,0,0,1,.42-1.966,3.28,3.28,0,0,1,1.176-1.354,2.96,2.96,0,0,1,1.637-.488,2.767,2.767,0,0,1,2.242.95,4.116,4.116,0,0,1,.8,2.721v.526H458.1a2.638,2.638,0,0,0,.639,1.768,2.014,2.014,0,0,0,1.556.673,2.192,2.192,0,0,0,1.134-.274,2.864,2.864,0,0,0,.814-.724l.772.6a3.108,3.108,0,0,1-2.789,1.429m-.157-6.631a1.688,1.688,0,0,0-1.285.557,2.7,2.7,0,0,0-.643,1.562h3.7v-.1a2.415,2.415,0,0,0-.519-1.494,1.593,1.593,0,0,0-1.258-.529"/>
      <path id="Trazado_720419" data-name="Trazado 720419" d="M465.769,393.913l.041.93a2.7,2.7,0,0,1,2.215-1.067q2.345,0,2.365,2.646v4.887h-1.265v-4.894a1.707,1.707,0,0,0-.365-1.183,1.468,1.468,0,0,0-1.118-.382,1.824,1.824,0,0,0-1.08.328,2.224,2.224,0,0,0-.725.861v5.27h-1.264v-7.4Z"/>
      <path id="Trazado_720420" data-name="Trazado 720420" d="M474.013,392.122v1.791h1.381v.978h-1.381v4.592a1.025,1.025,0,0,0,.185.667.774.774,0,0,0,.628.223,3.036,3.036,0,0,0,.6-.082v1.019a3.672,3.672,0,0,1-.971.136,1.576,1.576,0,0,1-1.278-.512,2.206,2.206,0,0,1-.431-1.457v-4.586H471.4v-.978h1.346v-1.791Z"/>
      <path id="Trazado_720421" data-name="Trazado 720421" d="M480.446,395.048a3.767,3.767,0,0,0-.622-.048,1.668,1.668,0,0,0-1.689,1.06v5.25h-1.264v-7.4h1.23l.021.855a1.969,1.969,0,0,1,1.763-.991,1.306,1.306,0,0,1,.561.1Z"/>
      <path id="Trazado_720422" data-name="Trazado 720422" d="M485.9,401.31a2.63,2.63,0,0,1-.178-.779,2.825,2.825,0,0,1-2.106.916,2.6,2.6,0,0,1-1.794-.62,2,2,0,0,1-.7-1.568,2.094,2.094,0,0,1,.878-1.8,4.146,4.146,0,0,1,2.472-.639h1.23v-.581a1.413,1.413,0,0,0-.4-1.055,1.591,1.591,0,0,0-1.169-.394,1.846,1.846,0,0,0-1.135.342,1.009,1.009,0,0,0-.458.827h-1.271a1.748,1.748,0,0,1,.393-1.07,2.682,2.682,0,0,1,1.067-.817,3.587,3.587,0,0,1,1.479-.3,2.928,2.928,0,0,1,2,.638,2.312,2.312,0,0,1,.752,1.761v3.4a4.164,4.164,0,0,0,.26,1.62v.11Zm-2.1-.964a2.227,2.227,0,0,0,1.128-.308,1.858,1.858,0,0,0,.772-.8v-1.518h-.991q-2.325,0-2.324,1.36a1.153,1.153,0,0,0,.4.93,1.522,1.522,0,0,0,1.019.335"/>
      <path id="Trazado_720423" data-name="Trazado 720423" d="M490.146,393.913l.041.93a2.7,2.7,0,0,1,2.215-1.067q2.344,0,2.365,2.646v4.887H493.5v-4.894a1.707,1.707,0,0,0-.365-1.183,1.468,1.468,0,0,0-1.118-.382,1.824,1.824,0,0,0-1.08.328,2.224,2.224,0,0,0-.725.861v5.27H488.95v-7.4Z"/>
      <rect id="Rectángulo_350917" data-name="Rectángulo 350917" width="1.265" height="10.5" transform="translate(409.793 407.609)"/>
      <path id="Trazado_720424" data-name="Trazado 720424" d="M412.747,414.343a4.379,4.379,0,0,1,.426-1.955,3.181,3.181,0,0,1,1.19-1.34,3.238,3.238,0,0,1,1.74-.472,3.117,3.117,0,0,1,2.443,1.046,4.02,4.02,0,0,1,.934,2.782v.089a4.4,4.4,0,0,1-.414,1.938,3.144,3.144,0,0,1-1.182,1.336,3.268,3.268,0,0,1-1.767.479,3.115,3.115,0,0,1-2.438-1.046,4.008,4.008,0,0,1-.932-2.769Zm1.271.15a3.164,3.164,0,0,0,.571,1.976,1.935,1.935,0,0,0,3.059-.01,3.464,3.464,0,0,0,.567-2.116,3.156,3.156,0,0,0-.577-1.972,1.838,1.838,0,0,0-1.535-.756,1.816,1.816,0,0,0-1.511.745,3.435,3.435,0,0,0-.574,2.133"/>
      <path id="Trazado_720425" data-name="Trazado 720425" d="M425.373,416.147a.929.929,0,0,0-.387-.8,3.719,3.719,0,0,0-1.345-.489,6.419,6.419,0,0,1-1.526-.492,2.184,2.184,0,0,1-.834-.684,1.644,1.644,0,0,1-.269-.943,1.916,1.916,0,0,1,.769-1.538,3,3,0,0,1,1.965-.629,3.1,3.1,0,0,1,2.041.649,2.061,2.061,0,0,1,.782,1.661H425.3a1.145,1.145,0,0,0-.441-.895,1.654,1.654,0,0,0-1.111-.376,1.727,1.727,0,0,0-1.08.3.945.945,0,0,0-.39.786.766.766,0,0,0,.363.69,4.436,4.436,0,0,0,1.308.444,6.827,6.827,0,0,1,1.535.506,2.235,2.235,0,0,1,.871.708,1.734,1.734,0,0,1,.285,1.008,1.9,1.9,0,0,1-.793,1.59,3.333,3.333,0,0,1-2.058.6,3.717,3.717,0,0,1-1.572-.315,2.559,2.559,0,0,1-1.071-.879,2.122,2.122,0,0,1-.385-1.219h1.264a1.311,1.311,0,0,0,.51,1.008,1.978,1.978,0,0,0,1.254.372,2.038,2.038,0,0,0,1.152-.29.9.9,0,0,0,.434-.776"/>
      <path id="Trazado_720426" data-name="Trazado 720426" d="M438,414.493a4.426,4.426,0,0,1-.773,2.72,2.472,2.472,0,0,1-2.092,1.032,2.715,2.715,0,0,1-2.119-.854v3.562h-1.264V410.712h1.155l.061.821a2.606,2.606,0,0,1,2.147-.957,2.523,2.523,0,0,1,2.109,1,4.479,4.479,0,0,1,.776,2.8Zm-1.265-.144a3.274,3.274,0,0,0-.533-1.976,1.718,1.718,0,0,0-1.463-.724,1.861,1.861,0,0,0-1.723,1.018V416.2a1.863,1.863,0,0,0,1.737,1.011,1.711,1.711,0,0,0,1.446-.721,3.573,3.573,0,0,0,.536-2.143"/>
      <path id="Trazado_720427" data-name="Trazado 720427" d="M443.18,411.848a3.769,3.769,0,0,0-.622-.048,1.668,1.668,0,0,0-1.689,1.06v5.25h-1.264v-7.4h1.23l.021.855a1.969,1.969,0,0,1,1.763-.991,1.306,1.306,0,0,1,.561.1Z"/>
      <path id="Trazado_720428" data-name="Trazado 720428" d="M443.871,414.343a4.379,4.379,0,0,1,.426-1.955,3.181,3.181,0,0,1,1.19-1.34,3.238,3.238,0,0,1,1.74-.472,3.117,3.117,0,0,1,2.443,1.046,4.02,4.02,0,0,1,.934,2.782v.089a4.4,4.4,0,0,1-.414,1.938,3.144,3.144,0,0,1-1.182,1.336,3.268,3.268,0,0,1-1.767.479A3.115,3.115,0,0,1,444.8,417.2a4.008,4.008,0,0,1-.932-2.769Zm1.271.15a3.164,3.164,0,0,0,.571,1.976,1.935,1.935,0,0,0,3.059-.01,3.464,3.464,0,0,0,.567-2.116,3.156,3.156,0,0,0-.577-1.972,1.838,1.838,0,0,0-1.535-.756,1.816,1.816,0,0,0-1.511.745,3.435,3.435,0,0,0-.574,2.133"/>
      <path id="Trazado_720429" data-name="Trazado 720429" d="M451.882,414.349a4.337,4.337,0,0,1,.807-2.738,2.745,2.745,0,0,1,4.17-.146v-3.856h1.265v10.5h-1.163l-.061-.793a2.575,2.575,0,0,1-2.112.93,2.529,2.529,0,0,1-2.1-1.053,4.389,4.389,0,0,1-.81-2.748Zm1.265.144a3.276,3.276,0,0,0,.52,1.969,1.681,1.681,0,0,0,1.435.711,1.847,1.847,0,0,0,1.757-1.08v-3.4a1.859,1.859,0,0,0-1.743-1.046,1.688,1.688,0,0,0-1.449.718,3.61,3.61,0,0,0-.52,2.126"/>
      <path id="Trazado_720430" data-name="Trazado 720430" d="M464.652,417.378a2.686,2.686,0,0,1-2.167.868,2.3,2.3,0,0,1-1.8-.687,2.977,2.977,0,0,1-.625-2.034v-4.812h1.265v4.778q0,1.682,1.367,1.682a1.894,1.894,0,0,0,1.928-1.08v-5.38h1.264v7.4h-1.2Z"/>
      <path id="Trazado_720431" data-name="Trazado 720431" d="M470.77,417.214a1.825,1.825,0,0,0,1.183-.41,1.442,1.442,0,0,0,.56-1.026h1.2a2.282,2.282,0,0,1-.437,1.21,2.878,2.878,0,0,1-1.076.916,3.109,3.109,0,0,1-1.426.342,3.043,3.043,0,0,1-2.4-1.008,4.008,4.008,0,0,1-.893-2.758v-.212a4.442,4.442,0,0,1,.4-1.921,3.013,3.013,0,0,1,1.138-1.306,3.237,3.237,0,0,1,1.753-.465,2.966,2.966,0,0,1,2.068.745,2.663,2.663,0,0,1,.878,1.935h-1.2a1.744,1.744,0,0,0-.544-1.18,1.694,1.694,0,0,0-1.206-.461,1.771,1.771,0,0,0-1.493.694,3.256,3.256,0,0,0-.53,2.007v.239a3.2,3.2,0,0,0,.526,1.969,1.78,1.78,0,0,0,1.5.69"/>
      <path id="Trazado_720432" data-name="Trazado 720432" d="M476.847,408.922v1.791h1.381v.978h-1.381v4.592a1.025,1.025,0,0,0,.185.667.774.774,0,0,0,.628.223,3.038,3.038,0,0,0,.6-.082v1.019a3.672,3.672,0,0,1-.971.136,1.576,1.576,0,0,1-1.278-.512,2.206,2.206,0,0,1-.431-1.457v-4.586h-1.346v-.978h1.346v-1.791Z"/>
      <path id="Trazado_720433" data-name="Trazado 720433" d="M479.234,414.343a4.379,4.379,0,0,1,.426-1.955,3.181,3.181,0,0,1,1.19-1.34,3.238,3.238,0,0,1,1.74-.472,3.117,3.117,0,0,1,2.443,1.046,4.02,4.02,0,0,1,.934,2.782v.089a4.4,4.4,0,0,1-.414,1.938,3.144,3.144,0,0,1-1.182,1.336,3.268,3.268,0,0,1-1.767.479,3.115,3.115,0,0,1-2.438-1.046,4.008,4.008,0,0,1-.932-2.769Zm1.271.15a3.164,3.164,0,0,0,.571,1.976,1.935,1.935,0,0,0,3.059-.01,3.464,3.464,0,0,0,.567-2.116,3.156,3.156,0,0,0-.577-1.972,1.838,1.838,0,0,0-1.535-.756,1.816,1.816,0,0,0-1.511.745,3.435,3.435,0,0,0-.574,2.133"/>
      <path id="Trazado_720434" data-name="Trazado 720434" d="M491.859,416.147a.929.929,0,0,0-.387-.8,3.719,3.719,0,0,0-1.345-.489,6.418,6.418,0,0,1-1.526-.492,2.184,2.184,0,0,1-.834-.684,1.644,1.644,0,0,1-.269-.943,1.916,1.916,0,0,1,.769-1.538,3,3,0,0,1,1.965-.629,3.1,3.1,0,0,1,2.041.649,2.06,2.06,0,0,1,.782,1.661h-1.271a1.145,1.145,0,0,0-.441-.895,1.654,1.654,0,0,0-1.111-.376,1.727,1.727,0,0,0-1.08.3.945.945,0,0,0-.39.786.766.766,0,0,0,.363.69,4.436,4.436,0,0,0,1.308.444,6.827,6.827,0,0,1,1.535.506,2.235,2.235,0,0,1,.871.708,1.734,1.734,0,0,1,.285,1.008,1.9,1.9,0,0,1-.793,1.59,3.333,3.333,0,0,1-2.058.6,3.717,3.717,0,0,1-1.572-.315,2.559,2.559,0,0,1-1.071-.879,2.122,2.122,0,0,1-.385-1.219h1.264a1.312,1.312,0,0,0,.51,1.008,1.978,1.978,0,0,0,1.254.372,2.038,2.038,0,0,0,1.152-.29.9.9,0,0,0,.434-.776"/>
      <rect id="Rectángulo_350918" data-name="Rectángulo 350918" width="1.312" height="9.953" transform="translate(26.53 400.518)"/>
      <path id="Trazado_720435" data-name="Trazado 720435" d="M31.239,403.074l.041.93a2.7,2.7,0,0,1,2.215-1.067q2.344,0,2.365,2.646v4.887H34.6v-4.894a1.707,1.707,0,0,0-.365-1.183,1.468,1.468,0,0,0-1.118-.382,1.824,1.824,0,0,0-1.08.328,2.224,2.224,0,0,0-.725.861v5.27H30.043v-7.4Z"/>
      <path id="Trazado_720436" data-name="Trazado 720436" d="M38.389,410.471v-6.419H37.22v-.977h1.169v-.759a2.517,2.517,0,0,1,.636-1.839,2.4,2.4,0,0,1,1.8-.65,3.335,3.335,0,0,1,.868.116l-.069,1.019a3.622,3.622,0,0,0-.683-.061,1.233,1.233,0,0,0-.95.36,1.454,1.454,0,0,0-.335,1.031v.783h1.579v.977H39.654v6.419Z"/>
      <path id="Trazado_720437" data-name="Trazado 720437" d="M42.293,406.7a4.379,4.379,0,0,1,.426-1.955,3.181,3.181,0,0,1,1.19-1.34,3.238,3.238,0,0,1,1.74-.472,3.117,3.117,0,0,1,2.443,1.046,4.02,4.02,0,0,1,.934,2.782v.089a4.4,4.4,0,0,1-.414,1.938,3.144,3.144,0,0,1-1.182,1.336,3.268,3.268,0,0,1-1.767.479,3.115,3.115,0,0,1-2.438-1.046,4.008,4.008,0,0,1-.932-2.769Zm1.271.15a3.164,3.164,0,0,0,.571,1.976,1.935,1.935,0,0,0,3.059-.01,3.464,3.464,0,0,0,.567-2.116,3.156,3.156,0,0,0-.577-1.972,1.838,1.838,0,0,0-1.535-.756,1.816,1.816,0,0,0-1.511.745,3.435,3.435,0,0,0-.574,2.133"/>
      <path id="Trazado_720438" data-name="Trazado 720438" d="M54.187,404.209a3.766,3.766,0,0,0-.622-.048,1.668,1.668,0,0,0-1.689,1.06v5.25H50.612v-7.4h1.23l.021.855a1.969,1.969,0,0,1,1.763-.991,1.306,1.306,0,0,1,.561.1Z"/>
      <path id="Trazado_720439" data-name="Trazado 720439" d="M56.539,403.074l.034.82a2.735,2.735,0,0,1,2.195-.957,2.115,2.115,0,0,1,2.112,1.19,2.8,2.8,0,0,1,.96-.862,2.844,2.844,0,0,1,1.4-.328q2.433,0,2.475,2.577v4.956H64.448v-4.88a1.7,1.7,0,0,0-.362-1.186,1.593,1.593,0,0,0-1.217-.393,1.673,1.673,0,0,0-1.169.42,1.71,1.71,0,0,0-.54,1.131v4.908H59.889v-4.846a1.411,1.411,0,0,0-1.579-1.613,1.693,1.693,0,0,0-1.7,1.059v5.4H55.343v-7.4Z"/>
      <path id="Trazado_720440" data-name="Trazado 720440" d="M72.187,410.471a2.63,2.63,0,0,1-.178-.779,2.825,2.825,0,0,1-2.106.916,2.6,2.6,0,0,1-1.794-.62,2,2,0,0,1-.7-1.568,2.094,2.094,0,0,1,.878-1.8,4.146,4.146,0,0,1,2.472-.639h1.23V405.4a1.413,1.413,0,0,0-.4-1.055,1.591,1.591,0,0,0-1.169-.394,1.846,1.846,0,0,0-1.135.342,1.009,1.009,0,0,0-.458.827H67.559a1.748,1.748,0,0,1,.393-1.07,2.682,2.682,0,0,1,1.067-.817,3.587,3.587,0,0,1,1.479-.3,2.928,2.928,0,0,1,2,.638,2.312,2.312,0,0,1,.752,1.761v3.4a4.164,4.164,0,0,0,.26,1.62v.11Zm-2.1-.964a2.227,2.227,0,0,0,1.128-.308,1.858,1.858,0,0,0,.772-.8v-1.518H71q-2.325,0-2.324,1.36a1.153,1.153,0,0,0,.4.93,1.522,1.522,0,0,0,1.019.335"/>
      <path id="Trazado_720441" data-name="Trazado 720441" d="M78.81,404.209a3.766,3.766,0,0,0-.622-.048,1.668,1.668,0,0,0-1.689,1.06v5.25H75.235v-7.4h1.23l.021.855a1.969,1.969,0,0,1,1.763-.991,1.306,1.306,0,0,1,.561.1Z"/>
      <path id="Trazado_720442" data-name="Trazado 720442" d="M88,410.471a2.63,2.63,0,0,1-.178-.779,2.825,2.825,0,0,1-2.106.916,2.6,2.6,0,0,1-1.794-.62,2,2,0,0,1-.7-1.568,2.094,2.094,0,0,1,.878-1.8,4.146,4.146,0,0,1,2.472-.639h1.23V405.4a1.413,1.413,0,0,0-.4-1.055,1.591,1.591,0,0,0-1.169-.394,1.846,1.846,0,0,0-1.135.342,1.009,1.009,0,0,0-.458.827H83.377a1.748,1.748,0,0,1,.393-1.07,2.682,2.682,0,0,1,1.067-.817,3.587,3.587,0,0,1,1.479-.3,2.928,2.928,0,0,1,2,.638,2.312,2.312,0,0,1,.752,1.761v3.4a4.164,4.164,0,0,0,.26,1.62v.11Zm-2.1-.964a2.227,2.227,0,0,0,1.128-.308,1.858,1.858,0,0,0,.772-.8v-1.518h-.991q-2.325,0-2.324,1.36a1.153,1.153,0,0,0,.4.93,1.522,1.522,0,0,0,1.019.335"/>
      <rect id="Rectángulo_350919" data-name="Rectángulo 350919" width="1.265" height="10.5" transform="translate(91.163 399.971)"/>
      <path id="Trazado_720443" data-name="Trazado 720443" d="M99.223,403.074v8.251q0,2.133-1.935,2.133a2.371,2.371,0,0,1-.772-.122V412.33a2.461,2.461,0,0,0,.574.054.855.855,0,0,0,.645-.229,1.127,1.127,0,0,0,.223-.8v-8.284Zm-1.395-1.962a.761.761,0,0,1,.188-.517.7.7,0,0,1,.55-.214.719.719,0,0,1,.561.211.747.747,0,0,1,.191.52.722.722,0,0,1-.191.513.734.734,0,0,1-.561.2.708.708,0,0,1-.553-.2.74.74,0,0,1-.185-.513"/>
      <path id="Trazado_720444" data-name="Trazado 720444" d="M104.329,410.607a3.229,3.229,0,0,1-2.447-.988,3.666,3.666,0,0,1-.943-2.642v-.232a4.432,4.432,0,0,1,.42-1.966,3.281,3.281,0,0,1,1.176-1.354,2.96,2.96,0,0,1,1.637-.488,2.767,2.767,0,0,1,2.242.95,4.116,4.116,0,0,1,.8,2.721v.526H102.2a2.638,2.638,0,0,0,.639,1.768,2.014,2.014,0,0,0,1.556.673,2.192,2.192,0,0,0,1.134-.274,2.864,2.864,0,0,0,.814-.724l.772.6a3.108,3.108,0,0,1-2.789,1.429m-.157-6.631a1.688,1.688,0,0,0-1.285.557,2.705,2.705,0,0,0-.643,1.562h3.7V406a2.415,2.415,0,0,0-.519-1.494,1.593,1.593,0,0,0-1.258-.529"/>
      <path id="Trazado_720445" data-name="Trazado 720445" d="M109.3,410.471v-6.419H108.13v-.977H109.3v-.759a2.517,2.517,0,0,1,.636-1.839,2.4,2.4,0,0,1,1.8-.65,3.335,3.335,0,0,1,.868.116l-.069,1.019a3.622,3.622,0,0,0-.683-.061,1.233,1.233,0,0,0-.95.36,1.454,1.454,0,0,0-.335,1.031v.783h1.579v.977h-1.579v6.419Z"/>
      <path id="Trazado_720446" data-name="Trazado 720446" d="M116.442,410.607a3.229,3.229,0,0,1-2.447-.988,3.666,3.666,0,0,1-.943-2.642v-.232a4.432,4.432,0,0,1,.42-1.966,3.281,3.281,0,0,1,1.176-1.354,2.96,2.96,0,0,1,1.637-.488,2.767,2.767,0,0,1,2.242.95,4.116,4.116,0,0,1,.8,2.721v.526h-5.011a2.638,2.638,0,0,0,.639,1.768,2.014,2.014,0,0,0,1.556.673,2.192,2.192,0,0,0,1.134-.274,2.864,2.864,0,0,0,.814-.724l.772.6a3.108,3.108,0,0,1-2.789,1.429m-.157-6.631a1.688,1.688,0,0,0-1.285.557,2.705,2.705,0,0,0-.643,1.562h3.7V406a2.415,2.415,0,0,0-.519-1.494,1.593,1.593,0,0,0-1.258-.529"/>
      <path id="Trazado_720447" data-name="Trazado 720447" d="M124.262,401.112a.751.751,0,0,1,.189-.519.7.7,0,0,1,.557-.212.714.714,0,0,1,.56.212.744.744,0,0,1,.192.519.749.749,0,1,1-1.5,0m1.368,9.359h-1.265v-7.4h1.265Z"/>
      <path id="Trazado_720448" data-name="Trazado 720448" d="M128.849,403.074l.041.93a2.7,2.7,0,0,1,2.215-1.067q2.345,0,2.365,2.646v4.887h-1.265v-4.894a1.707,1.707,0,0,0-.365-1.183,1.468,1.468,0,0,0-1.118-.382,1.824,1.824,0,0,0-1.08.328,2.224,2.224,0,0,0-.725.861v5.27h-1.264v-7.4Z"/>
      <path id="Trazado_720449" data-name="Trazado 720449" d="M136.567,403.074l.034.82a2.735,2.735,0,0,1,2.2-.957,2.115,2.115,0,0,1,2.112,1.19,2.8,2.8,0,0,1,.96-.862,2.844,2.844,0,0,1,1.4-.328q2.433,0,2.475,2.577v4.956h-1.265v-4.88a1.7,1.7,0,0,0-.362-1.186,1.593,1.593,0,0,0-1.217-.393,1.673,1.673,0,0,0-1.169.42,1.71,1.71,0,0,0-.54,1.131v4.908h-1.271v-4.846a1.411,1.411,0,0,0-1.579-1.613,1.693,1.693,0,0,0-1.7,1.059v5.4h-1.264v-7.4Z"/>
      <path id="Trazado_720450" data-name="Trazado 720450" d="M150.717,410.607a3.229,3.229,0,0,1-2.447-.988,3.666,3.666,0,0,1-.943-2.642v-.232a4.432,4.432,0,0,1,.42-1.966,3.281,3.281,0,0,1,1.176-1.354,2.96,2.96,0,0,1,1.637-.488,2.767,2.767,0,0,1,2.242.95,4.116,4.116,0,0,1,.8,2.721v.526h-5.011a2.638,2.638,0,0,0,.639,1.768,2.014,2.014,0,0,0,1.556.673,2.192,2.192,0,0,0,1.134-.274,2.864,2.864,0,0,0,.814-.724l.772.6a3.108,3.108,0,0,1-2.789,1.429m-.157-6.631a1.688,1.688,0,0,0-1.285.557,2.705,2.705,0,0,0-.643,1.562h3.705V406a2.415,2.415,0,0,0-.519-1.494,1.593,1.593,0,0,0-1.258-.529"/>
      <path id="Trazado_720451" data-name="Trazado 720451" d="M154.757,406.71a4.337,4.337,0,0,1,.807-2.738,2.745,2.745,0,0,1,4.17-.146V399.97H161v10.5h-1.163l-.061-.793a2.575,2.575,0,0,1-2.112.93,2.528,2.528,0,0,1-2.1-1.053,4.389,4.389,0,0,1-.81-2.748Zm1.265.144a3.276,3.276,0,0,0,.52,1.969,1.681,1.681,0,0,0,1.435.711,1.847,1.847,0,0,0,1.757-1.08v-3.4a1.859,1.859,0,0,0-1.743-1.046,1.688,1.688,0,0,0-1.449.718,3.61,3.61,0,0,0-.52,2.126"/>
      <path id="Trazado_720452" data-name="Trazado 720452" d="M162.968,401.112a.75.75,0,0,1,.188-.519.7.7,0,0,1,.557-.212.714.714,0,0,1,.56.212.744.744,0,0,1,.192.519.749.749,0,1,1-1.5,0m1.367,9.359H163.07v-7.4h1.265Z"/>
      <path id="Trazado_720453" data-name="Trazado 720453" d="M170.925,410.471a2.629,2.629,0,0,1-.178-.779,2.825,2.825,0,0,1-2.106.916,2.6,2.6,0,0,1-1.794-.62,2,2,0,0,1-.7-1.568,2.094,2.094,0,0,1,.878-1.8,4.146,4.146,0,0,1,2.472-.639h1.23V405.4a1.413,1.413,0,0,0-.4-1.055,1.591,1.591,0,0,0-1.169-.394,1.846,1.846,0,0,0-1.135.342,1.009,1.009,0,0,0-.458.827H166.3a1.748,1.748,0,0,1,.393-1.07,2.682,2.682,0,0,1,1.067-.817,3.587,3.587,0,0,1,1.479-.3,2.928,2.928,0,0,1,2,.638,2.312,2.312,0,0,1,.752,1.761v3.4a4.164,4.164,0,0,0,.26,1.62v.11Zm-2.1-.964a2.227,2.227,0,0,0,1.128-.308,1.858,1.858,0,0,0,.772-.8v-1.518h-.991q-2.325,0-2.324,1.36a1.153,1.153,0,0,0,.4.93,1.522,1.522,0,0,0,1.019.335"/>
      <path id="Trazado_720454" data-name="Trazado 720454" d="M175.689,401.283v1.791h1.381v.978h-1.381v4.592a1.025,1.025,0,0,0,.185.667.774.774,0,0,0,.628.223,3.038,3.038,0,0,0,.6-.082v1.019a3.671,3.671,0,0,1-.971.136,1.576,1.576,0,0,1-1.278-.512,2.206,2.206,0,0,1-.431-1.457v-4.586h-1.346v-.978h1.346v-1.791Z"/>
      <path id="Trazado_720455" data-name="Trazado 720455" d="M178.075,406.7a4.379,4.379,0,0,1,.426-1.955,3.181,3.181,0,0,1,1.19-1.34,3.238,3.238,0,0,1,1.74-.472,3.117,3.117,0,0,1,2.443,1.046,4.02,4.02,0,0,1,.934,2.782v.089a4.4,4.4,0,0,1-.414,1.938,3.144,3.144,0,0,1-1.182,1.336,3.268,3.268,0,0,1-1.767.479,3.115,3.115,0,0,1-2.438-1.046,4.008,4.008,0,0,1-.932-2.769Zm1.271.15a3.164,3.164,0,0,0,.571,1.976,1.935,1.935,0,0,0,3.059-.01,3.463,3.463,0,0,0,.567-2.116,3.156,3.156,0,0,0-.577-1.972,1.838,1.838,0,0,0-1.535-.756,1.816,1.816,0,0,0-1.511.745,3.435,3.435,0,0,0-.574,2.133"/>
    </g>
    <path id="Trazado_720457" data-name="Trazado 720457" d="M53.455,15.827l2.9-9.624h2.936L54.834,19H52.083L47.645,6.2h2.927Zm10.863,3.349a4.668,4.668,0,0,1-3.406-1.283A4.561,4.561,0,0,1,59.6,14.474v-.246a5.745,5.745,0,0,1,.554-2.562,4.064,4.064,0,0,1,1.569-1.74,4.4,4.4,0,0,1,2.316-.611,3.947,3.947,0,0,1,3.072,1.23,5,5,0,0,1,1.121,3.489v1.037H62.173a2.36,2.36,0,0,0,.743,1.494,2.245,2.245,0,0,0,1.569.563,2.742,2.742,0,0,0,2.294-1.063l1.248,1.4a3.813,3.813,0,0,1-1.547,1.261A5.075,5.075,0,0,1,64.318,19.176Zm-.29-7.813a1.587,1.587,0,0,0-1.226.512,2.651,2.651,0,0,0-.6,1.466h3.533v-.2a1.891,1.891,0,0,0-.457-1.311A1.638,1.638,0,0,0,64.028,11.362Zm10.986.51a6.9,6.9,0,0,0-.914-.07,1.86,1.86,0,0,0-1.89.976V19H69.67V9.49h2.4l.07,1.134a2.354,2.354,0,0,1,2.118-1.31,2.662,2.662,0,0,1,.791.114ZM78.917,19H76.368V9.49h2.549Zm-2.7-11.971a1.251,1.251,0,0,1,.382-.94,1.648,1.648,0,0,1,2.079,0,1.244,1.244,0,0,1,.387.94,1.247,1.247,0,0,1-.391.949,1.629,1.629,0,0,1-2.065,0A1.247,1.247,0,0,1,76.218,7.029ZM81.624,19V11.354H80.208V9.49h1.415V9.051a3.566,3.566,0,0,1,1.1-2.764,4.438,4.438,0,0,1,3.063-.971,10.16,10.16,0,0,1,2.883.519l-.369,2.1a11.248,11.248,0,0,0-1.336-.33,6.564,6.564,0,0,0-1.02-.075q-1.775,0-1.775,1.573V9.49h1.872v1.863H84.172V19Zm8.235,0H87.31V9.49h2.549Zm6.056-1.872a1.666,1.666,0,0,0,1.143-.387,1.355,1.355,0,0,0,.457-1.028H99.9a3.258,3.258,0,0,1-.527,1.771,3.48,3.48,0,0,1-1.419,1.248,4.442,4.442,0,0,1-1.991.444,4.129,4.129,0,0,1-3.217-1.3A5.13,5.13,0,0,1,91.564,14.3v-.167a5.071,5.071,0,0,1,1.169-3.507,4.08,4.08,0,0,1,3.208-1.31A4,4,0,0,1,98.8,10.33a3.594,3.594,0,0,1,1.094,2.7H97.514a1.745,1.745,0,0,0-.457-1.206,1.7,1.7,0,0,0-2.5.183,3.749,3.749,0,0,0-.453,2.1v.264a3.8,3.8,0,0,0,.448,2.113A1.549,1.549,0,0,0,95.915,17.128ZM106.857,19a2.821,2.821,0,0,1-.255-.853,3.073,3.073,0,0,1-2.4,1.028,3.376,3.376,0,0,1-2.316-.809,2.6,2.6,0,0,1-.918-2.039,2.687,2.687,0,0,1,1.121-2.32,5.529,5.529,0,0,1,3.239-.817H106.5v-.545a1.567,1.567,0,0,0-.338-1.055,1.331,1.331,0,0,0-1.068-.4,1.513,1.513,0,0,0-1.006.308,1.045,1.045,0,0,0-.365.844h-2.54a2.551,2.551,0,0,1,.51-1.529,3.37,3.37,0,0,1,1.441-1.1,5.253,5.253,0,0,1,2.092-.4,4.15,4.15,0,0,1,2.791.883,3.09,3.09,0,0,1,1.033,2.483V16.8a4.546,4.546,0,0,0,.378,2.048V19Zm-2.1-1.767a2.188,2.188,0,0,0,1.037-.25,1.645,1.645,0,0,0,.7-.672V14.676h-.949q-1.907,0-2.03,1.318l-.009.149a1.017,1.017,0,0,0,.334.782A1.3,1.3,0,0,0,104.756,17.233Zm11.584-5.361a6.9,6.9,0,0,0-.914-.07,1.86,1.86,0,0,0-1.89.976V19H111V9.49h2.4l.07,1.134a2.354,2.354,0,0,1,2.118-1.31,2.662,2.662,0,0,1,.791.114Zm10.266,4.447q.141-.7-.976-1.02l-.8-.2q-2.839-.782-2.76-2.76a2.731,2.731,0,0,1,1.191-2.193,4.434,4.434,0,0,1,2.764-.831,3.978,3.978,0,0,1,2.6.853,2.809,2.809,0,0,1,1.011,2.224l-2.461-.009a1.084,1.084,0,0,0-1.213-1.239,1.745,1.745,0,0,0-1.006.29,1.194,1.194,0,0,0-.523.782q-.132.7,1.063.993l.352.079a7.071,7.071,0,0,1,1.854.664,2.8,2.8,0,0,1,.989.927,2.3,2.3,0,0,1,.321,1.327,2.533,2.533,0,0,1-.584,1.582,3.577,3.577,0,0,1-1.529,1.046,5.328,5.328,0,0,1-2.043.343,4.015,4.015,0,0,1-2.637-.91,2.933,2.933,0,0,1-1.072-2.307l2.338.018a1.285,1.285,0,0,0,1.459,1.38,2.076,2.076,0,0,0,1.129-.281A1.111,1.111,0,0,0,126.606,16.319Zm8.578-9.167-.413,2.338h1.582l-.325,1.863h-1.582l-.809,4.764a1.211,1.211,0,0,0,.07.686q.123.237.6.255.141.009.756-.044l-.176,1.942a4.169,4.169,0,0,1-1.424.2,2.234,2.234,0,0,1-1.819-.765,2.763,2.763,0,0,1-.492-2.021l.817-5.019h-1.345l.325-1.863h1.345l.4-2.338Zm6.135,2.162a3.814,3.814,0,0,1,2.167.646,3.638,3.638,0,0,1,1.336,1.731,5.357,5.357,0,0,1,.3,2.448,5.786,5.786,0,0,1-1.578,3.669,4.455,4.455,0,0,1-3.4,1.367,3.8,3.8,0,0,1-2.145-.637,3.624,3.624,0,0,1-1.336-1.718,5.239,5.239,0,0,1-.308-2.426,5.957,5.957,0,0,1,1.6-3.744A4.363,4.363,0,0,1,141.319,9.314Zm-2.5,5.979a2.194,2.194,0,0,0,.4,1.33,1.314,1.314,0,0,0,1.063.5,1.926,1.926,0,0,0,1.793-1.049,5.227,5.227,0,0,0,.606-2.848,2.387,2.387,0,0,0-.409-1.347,1.293,1.293,0,0,0-1.068-.522,1.929,1.929,0,0,0-1.771,1.04A5.173,5.173,0,0,0,138.814,15.294ZM150,17.137a1.628,1.628,0,0,0,1.143-.374,1.836,1.836,0,0,0,.6-1.042l2.329-.009a3.416,3.416,0,0,1-.628,1.8,3.818,3.818,0,0,1-1.512,1.248,4.327,4.327,0,0,1-1.991.422,3.514,3.514,0,0,1-2.742-1.2,4.461,4.461,0,0,1-.976-3.111l.026-.483.009-.1a5.945,5.945,0,0,1,1.564-3.678A4.231,4.231,0,0,1,151.1,9.314a3.428,3.428,0,0,1,2.553,1.05,3.71,3.71,0,0,1,.927,2.676H152.27a1.947,1.947,0,0,0-.334-1.2,1.269,1.269,0,0,0-1-.475q-1.775-.053-2.153,2.593a8.755,8.755,0,0,0-.1,1.617Q148.772,17.11,150,17.137Zm9.141-1.925-1.151,1L157.508,19H155.03l2.338-13.5h2.487l-1.283,7.33.483-.519,2.821-2.821h3.182L160.9,13.577,163.546,19h-2.716ZM54.646,34.175a5.731,5.731,0,0,1,1-3.542,3.237,3.237,0,0,1,2.729-1.318,2.913,2.913,0,0,1,2.294,1.037V25.5h2.549V39H60.921L60.8,37.989a2.989,2.989,0,0,1-2.443,1.187,3.228,3.228,0,0,1-2.694-1.323A5.916,5.916,0,0,1,54.646,34.175Zm2.54.181a3.775,3.775,0,0,0,.466,2.057A1.516,1.516,0,0,0,59,37.128a1.7,1.7,0,0,0,1.661-1V32.36a1.675,1.675,0,0,0-1.644-1Q57.186,31.362,57.186,34.356Zm12.375,4.82a4.668,4.668,0,0,1-3.406-1.283,4.561,4.561,0,0,1-1.314-3.419v-.246a5.745,5.745,0,0,1,.554-2.562,4.064,4.064,0,0,1,1.569-1.74,4.4,4.4,0,0,1,2.316-.611,3.947,3.947,0,0,1,3.072,1.23,5,5,0,0,1,1.121,3.489v1.037H67.416a2.36,2.36,0,0,0,.743,1.494,2.245,2.245,0,0,0,1.569.563,2.742,2.742,0,0,0,2.294-1.063l1.248,1.4a3.813,3.813,0,0,1-1.547,1.261A5.075,5.075,0,0,1,69.561,39.176Zm-.29-7.813a1.587,1.587,0,0,0-1.226.512,2.651,2.651,0,0,0-.6,1.466h3.533v-.2a1.891,1.891,0,0,0-.457-1.311A1.638,1.638,0,0,0,69.271,31.362ZM83.008,26.2l3.287,9.281,3.27-9.281h3.463V39H90.382V35.5l.264-6.038L87.191,39H85.381l-3.445-9.527L82.2,35.5V39H79.563V26.2Zm17.051,4.412,2.4-4.412h3.032l-3.727,6.346L105.587,39H102.52l-2.461-4.482L97.6,39H94.53l3.823-6.451L94.627,26.2h3.032Zm15.548,8.561a4.668,4.668,0,0,1-3.406-1.283,4.561,4.561,0,0,1-1.314-3.419v-.246a5.745,5.745,0,0,1,.554-2.562,4.064,4.064,0,0,1,1.569-1.74,4.4,4.4,0,0,1,2.316-.611,3.947,3.947,0,0,1,3.072,1.23,5,5,0,0,1,1.121,3.489v1.037h-6.056a2.36,2.36,0,0,0,.743,1.494,2.245,2.245,0,0,0,1.569.563,2.742,2.742,0,0,0,2.294-1.063l1.248,1.4a3.813,3.813,0,0,1-1.547,1.261A5.075,5.075,0,0,1,115.606,39.176Zm-.29-7.813a1.587,1.587,0,0,0-1.226.512,2.651,2.651,0,0,0-.6,1.466h3.533v-.2a1.891,1.891,0,0,0-.457-1.311A1.638,1.638,0,0,0,115.316,31.362Zm7.98-1.872.079,1.1a3.32,3.32,0,0,1,2.733-1.274,2.759,2.759,0,0,1,2.25.888,4.142,4.142,0,0,1,.756,2.654V39h-2.54V32.9a1.654,1.654,0,0,0-.352-1.176,1.572,1.572,0,0,0-1.169-.366,1.747,1.747,0,0,0-1.608.916V39h-2.54V29.49Zm15.029,5V39h-2.637V26.2h4.992a5.776,5.776,0,0,1,2.536.527,3.886,3.886,0,0,1,1.683,1.5,4.178,4.178,0,0,1,.589,2.21,3.674,3.674,0,0,1-1.288,2.966,5.363,5.363,0,0,1-3.564,1.085Zm0-2.136h2.355a2.316,2.316,0,0,0,1.6-.492,1.79,1.79,0,0,0,.549-1.406,2.111,2.111,0,0,0-.554-1.521,2.068,2.068,0,0,0-1.529-.6h-2.417Zm19.02,2.382a4.528,4.528,0,0,1-1.525,3.252,5.355,5.355,0,0,1-3.625,1.187,4.816,4.816,0,0,1-3.872-1.657,6.793,6.793,0,0,1-1.411-4.548v-.782a7.671,7.671,0,0,1,.65-3.252,4.874,4.874,0,0,1,1.859-2.158,5.809,5.809,0,0,1,6.376.435,4.866,4.866,0,0,1,1.564,3.331h-2.637a2.673,2.673,0,0,0-.69-1.8,2.555,2.555,0,0,0-1.806-.558,2.24,2.24,0,0,0-1.973.945,5.3,5.3,0,0,0-.672,2.931v.967a5.667,5.667,0,0,0,.628,3.032,2.2,2.2,0,0,0,1.982.958,2.6,2.6,0,0,0,1.824-.558,2.521,2.521,0,0,0,.69-1.727Z" transform="translate(712.765 5402)" fill="#12263f"/>
    <path id="Trazado_720456" data-name="Trazado 720456" d="M37.332,14.18,39.91,5.625H42.52L38.559,17H36.113L32.168,5.625h2.6Zm9.656,2.977a4.15,4.15,0,0,1-3.027-1.141,4.054,4.054,0,0,1-1.168-3.039v-.219a5.106,5.106,0,0,1,.492-2.277A3.612,3.612,0,0,1,44.68,8.934a3.914,3.914,0,0,1,2.059-.543,3.508,3.508,0,0,1,2.73,1.094,4.444,4.444,0,0,1,1,3.1v.922H45.082a2.1,2.1,0,0,0,.66,1.328,2,2,0,0,0,1.395.5,2.437,2.437,0,0,0,2.039-.945l1.109,1.242a3.389,3.389,0,0,1-1.375,1.121A4.511,4.511,0,0,1,46.988,17.156Zm-.258-6.945a1.411,1.411,0,0,0-1.09.455,2.357,2.357,0,0,0-.535,1.3h3.141v-.181a1.681,1.681,0,0,0-.406-1.165A1.456,1.456,0,0,0,46.73,10.211Zm9.766.453a6.134,6.134,0,0,0-.812-.062,1.654,1.654,0,0,0-1.68.867V17H51.746V8.547h2.133l.063,1.008a2.092,2.092,0,0,1,1.883-1.164,2.366,2.366,0,0,1,.7.1ZM59.965,17H57.7V8.547h2.266Zm-2.4-10.641a1.112,1.112,0,0,1,.34-.836,1.465,1.465,0,0,1,1.848,0,1.105,1.105,0,0,1,.344.836,1.108,1.108,0,0,1-.348.844,1.448,1.448,0,0,1-1.836,0A1.108,1.108,0,0,1,57.566,6.359ZM62.371,17V10.2H61.113V8.547h1.258V8.156a3.17,3.17,0,0,1,.98-2.457,3.945,3.945,0,0,1,2.723-.863,9.031,9.031,0,0,1,2.563.461l-.328,1.867a10,10,0,0,0-1.187-.293,5.835,5.835,0,0,0-.906-.066q-1.578,0-1.578,1.4v.344H66.3V10.2H64.637V17Zm7.32,0H67.426V8.547h2.266Zm5.383-1.664a1.481,1.481,0,0,0,1.016-.344,1.2,1.2,0,0,0,.406-.914h2.117a2.9,2.9,0,0,1-.469,1.574,3.093,3.093,0,0,1-1.262,1.109,3.949,3.949,0,0,1-1.77.395A3.67,3.67,0,0,1,72.254,16a4.56,4.56,0,0,1-1.047-3.184v-.148a4.508,4.508,0,0,1,1.039-3.117A3.627,3.627,0,0,1,75.1,8.391a3.555,3.555,0,0,1,2.543.9,3.2,3.2,0,0,1,.973,2.4H76.5a1.551,1.551,0,0,0-.406-1.072,1.51,1.51,0,0,0-2.223.163,3.333,3.333,0,0,0-.4,1.866v.235a3.375,3.375,0,0,0,.4,1.878A1.377,1.377,0,0,0,75.074,15.336ZM84.8,17a2.507,2.507,0,0,1-.227-.758,2.732,2.732,0,0,1-2.133.914,3,3,0,0,1-2.059-.719,2.312,2.312,0,0,1-.816-1.812,2.389,2.389,0,0,1,1-2.062,4.915,4.915,0,0,1,2.879-.727H84.48v-.484a1.393,1.393,0,0,0-.3-.937,1.183,1.183,0,0,0-.949-.352,1.345,1.345,0,0,0-.895.273.929.929,0,0,0-.324.75H79.754a2.268,2.268,0,0,1,.453-1.359,3,3,0,0,1,1.281-.98,4.669,4.669,0,0,1,1.859-.355,3.689,3.689,0,0,1,2.48.785,2.747,2.747,0,0,1,.918,2.207v3.664a4.041,4.041,0,0,0,.336,1.82V17Zm-1.867-1.57a1.945,1.945,0,0,0,.922-.223,1.462,1.462,0,0,0,.625-.6V13.156h-.844q-1.7,0-1.8,1.172l-.008.133a.9.9,0,0,0,.3.7A1.153,1.153,0,0,0,82.934,15.43Zm10.3-4.766a6.134,6.134,0,0,0-.812-.062,1.654,1.654,0,0,0-1.68.867V17H88.48V8.547h2.133l.063,1.008a2.092,2.092,0,0,1,1.883-1.164,2.366,2.366,0,0,1,.7.1Zm9.125,3.953q.125-.625-.867-.906l-.711-.18q-2.523-.7-2.453-2.453a2.428,2.428,0,0,1,1.059-1.949,3.942,3.942,0,0,1,2.457-.738,3.536,3.536,0,0,1,2.313.758,2.5,2.5,0,0,1,.9,1.977l-2.187-.008a.963.963,0,0,0-1.078-1.1,1.552,1.552,0,0,0-.895.258,1.061,1.061,0,0,0-.465.7q-.117.625.945.883l.313.07a6.285,6.285,0,0,1,1.648.59,2.488,2.488,0,0,1,.879.824,2.04,2.04,0,0,1,.285,1.18,2.251,2.251,0,0,1-.52,1.406,3.18,3.18,0,0,1-1.359.93,4.736,4.736,0,0,1-1.816.3,3.568,3.568,0,0,1-2.344-.809A2.607,2.607,0,0,1,97.5,14.3l2.078.016a1.142,1.142,0,0,0,1.3,1.227,1.845,1.845,0,0,0,1-.25A.987.987,0,0,0,102.355,14.617Zm7.625-8.148-.367,2.078h1.406L110.73,10.2h-1.406l-.719,4.234a1.077,1.077,0,0,0,.063.609q.109.211.531.227.125.008.672-.039l-.156,1.727a3.706,3.706,0,0,1-1.266.18,1.985,1.985,0,0,1-1.617-.68,2.456,2.456,0,0,1-.437-1.8l.727-4.461h-1.2l.289-1.656h1.2l.359-2.078Zm5.453,1.922a3.39,3.39,0,0,1,1.926.574,3.234,3.234,0,0,1,1.188,1.539,4.762,4.762,0,0,1,.27,2.176,5.143,5.143,0,0,1-1.4,3.262,3.96,3.96,0,0,1-3.02,1.215,3.38,3.38,0,0,1-1.906-.566,3.222,3.222,0,0,1-1.187-1.527,4.657,4.657,0,0,1-.273-2.156,5.3,5.3,0,0,1,1.422-3.328A3.878,3.878,0,0,1,115.434,8.391Zm-2.227,5.315a1.95,1.95,0,0,0,.352,1.182,1.168,1.168,0,0,0,.945.449A1.712,1.712,0,0,0,116.1,14.4a4.647,4.647,0,0,0,.539-2.531,2.122,2.122,0,0,0-.363-1.2,1.149,1.149,0,0,0-.949-.464,1.715,1.715,0,0,0-1.574.924A4.6,4.6,0,0,0,113.207,13.706Zm9.945,1.638a1.447,1.447,0,0,0,1.016-.332,1.632,1.632,0,0,0,.531-.926l2.07-.008a3.037,3.037,0,0,1-.559,1.6,3.394,3.394,0,0,1-1.344,1.109,3.847,3.847,0,0,1-1.77.375A3.123,3.123,0,0,1,120.66,16.1a3.965,3.965,0,0,1-.867-2.766l.023-.43.008-.086a5.284,5.284,0,0,1,1.391-3.27,3.761,3.761,0,0,1,2.914-1.16,3.047,3.047,0,0,1,2.27.934,3.3,3.3,0,0,1,.824,2.379h-2.055a1.73,1.73,0,0,0-.3-1.07,1.128,1.128,0,0,0-.891-.422q-1.578-.047-1.914,2.3a7.782,7.782,0,0,0-.086,1.438Q122.059,15.32,123.152,15.344Zm8.125-1.711-1.023.891L129.824,17h-2.2L129.7,5h2.211l-1.141,6.516.43-.461,2.508-2.508h2.828l-3.7,3.633L135.191,17h-2.414ZM141.395,17V10.2h-1.258V8.547h1.258V7.828a2.918,2.918,0,0,1,.816-2.207,3.162,3.162,0,0,1,2.285-.785,5.321,5.321,0,0,1,1.148.155l-.023,1.736a2.878,2.878,0,0,0-.687-.07q-1.273,0-1.273,1.205v.685h1.68V10.2h-1.68V17Zm7.555,0h-2.258V8.547h2.258Zm-.664-11.883h2.461l-2.164,2.422h-1.836Zm7.188,9.547a.727.727,0,0,0-.41-.652,4.659,4.659,0,0,0-1.316-.426q-3.016-.633-3.016-2.562a2.323,2.323,0,0,1,.934-1.879,3.766,3.766,0,0,1,2.441-.754,4.053,4.053,0,0,1,2.574.758,2.388,2.388,0,0,1,.965,1.969h-2.258a1.092,1.092,0,0,0-.312-.8A1.322,1.322,0,0,0,154.1,10a1.351,1.351,0,0,0-.883.258.814.814,0,0,0-.312.656.7.7,0,0,0,.355.605,3.657,3.657,0,0,0,1.2.4,9.8,9.8,0,0,1,1.422.379,2.336,2.336,0,0,1,1.789,2.273,2.205,2.205,0,0,1-.992,1.871,4.28,4.28,0,0,1-2.562.715,4.47,4.47,0,0,1-1.887-.379,3.166,3.166,0,0,1-1.293-1.039,2.414,2.414,0,0,1-.469-1.426h2.141a1.179,1.179,0,0,0,.445.922,1.766,1.766,0,0,0,1.109.32,1.635,1.635,0,0,0,.98-.246A.766.766,0,0,0,155.473,14.664ZM161.5,17h-2.266V8.547H161.5Zm-2.4-10.641a1.112,1.112,0,0,1,.34-.836,1.465,1.465,0,0,1,1.848,0,1.105,1.105,0,0,1,.344.836,1.109,1.109,0,0,1-.348.844,1.448,1.448,0,0,1-1.836,0A1.109,1.109,0,0,1,159.105,6.359Zm7.773,8.977a1.481,1.481,0,0,0,1.016-.344,1.2,1.2,0,0,0,.406-.914h2.117a2.9,2.9,0,0,1-.469,1.574,3.093,3.093,0,0,1-1.262,1.109,3.949,3.949,0,0,1-1.77.395A3.67,3.67,0,0,1,164.059,16a4.56,4.56,0,0,1-1.047-3.184v-.148a4.508,4.508,0,0,1,1.039-3.117A3.627,3.627,0,0,1,166.9,8.391a3.555,3.555,0,0,1,2.543.9,3.2,3.2,0,0,1,.973,2.4H168.3a1.551,1.551,0,0,0-.406-1.072,1.51,1.51,0,0,0-2.223.163,3.333,3.333,0,0,0-.4,1.866v.235a3.375,3.375,0,0,0,.4,1.878A1.377,1.377,0,0,0,166.879,15.336Zm4.477-2.641a5.013,5.013,0,0,1,.484-2.242,3.546,3.546,0,0,1,1.395-1.523,4.069,4.069,0,0,1,2.113-.539,3.849,3.849,0,0,1,2.793,1.047,4.2,4.2,0,0,1,1.207,2.844l.016.578a4.418,4.418,0,0,1-1.086,3.121,4.209,4.209,0,0,1-5.832,0,4.5,4.5,0,0,1-1.09-3.187Zm2.258.16a3.16,3.16,0,0,0,.453,1.843,1.628,1.628,0,0,0,2.578.008,3.457,3.457,0,0,0,.461-2.015,3.128,3.128,0,0,0-.461-1.831,1.5,1.5,0,0,0-1.3-.649,1.474,1.474,0,0,0-1.281.646A3.516,3.516,0,0,0,173.613,12.856Z" transform="translate(714.242 5489)" fill="#12263f"/>
  </g>
</svg>
