<svg xmlns="http://www.w3.org/2000/svg" xmlns:xlink="http://www.w3.org/1999/xlink" width="400" height="318" viewBox="0 0 400 318">
  <defs>
    <clipPath id="clip-path">
      <rect id="Rectángulo_347195" data-name="Rectángulo 347195" width="346.789" height="290.725" fill="none"/>
    </clipPath>
  </defs>
  <g id="Grupo_1003509" data-name="Grupo 1003509" transform="translate(-1019.667 -2482)">
    <rect id="Rectángulo_346046" data-name="Rectángulo 346046" width="400" height="318" transform="translate(1019.667 2482)" fill="none"/>
    <g id="Grupo_1003508" data-name="Grupo 1003508" transform="translate(1046.935 2495.638)">
      <g id="Grupo_1003507" data-name="Grupo 1003507" clip-path="url(#clip-path)">
        <rect id="Rectángulo_347193" data-name="Rectángulo 347193" width="70.028" height="70.028" rx="2.015" transform="translate(173.803 92.095)" fill="none" stroke="#7e5ee3" stroke-miterlimit="10" stroke-width="3.434"/>
        <path id="Trazado_712060" data-name="Trazado 712060" d="M251.394,162.247l10.759,9.257,20.582-19.812a9.152,9.152,0,0,0,2.8-6.6V74.62a13.479,13.479,0,0,0-13.48-13.48H163.935a13.478,13.478,0,0,0-13.48,13.48V182.639a13.481,13.481,0,0,0,13.585,13.48l80.7-.623a13.471,13.471,0,0,0,9.194-3.721l39.415-36.192a10.388,10.388,0,0,0,3.364-7.66V67.084a17.17,17.17,0,0,0-17.169-17.169h-123.1a17.17,17.17,0,0,0-17.169,17.169v123.1a17.17,17.17,0,0,0,17.169,17.17h89.468a17.169,17.169,0,0,0,11.905-4.8l47.248-44.664a8.057,8.057,0,0,0,2.522-5.9l-.465-93.32A19.168,19.168,0,0,0,287.957,39.5H148.032A19.168,19.168,0,0,0,128.864,58.67V198.6a19.168,19.168,0,0,0,19.169,19.169H251.75A19.173,19.173,0,0,0,265.5,211.96l49.645-48.049a8.725,8.725,0,0,0,2.659-6.274V48.764a19.931,19.931,0,0,0-19.933-19.933H138.131A19.93,19.93,0,0,0,118.2,48.764V208.5a19.93,19.93,0,0,0,19.932,19.932H253.875a19.922,19.922,0,0,0,13.747-5.5l58.222-53.455a9.424,9.424,0,0,0,3.056-6.949V40.978a23.249,23.249,0,0,0-23.25-23.251H130.345A23.249,23.249,0,0,0,107.1,40.978v175.3a23.249,23.249,0,0,0,23.25,23.251h126.9c6.159,0,34.521-7.148,34.521-7.148" transform="translate(-9.186 -1.52)" fill="none" stroke="#7e5ee3" stroke-miterlimit="10" stroke-width="3.434"/>
        <line id="Línea_297" data-name="Línea 297" x2="5.898" y2="5.898" transform="translate(184.243 102.928)" fill="none" stroke="#7e5ee3" stroke-linecap="round" stroke-miterlimit="10" stroke-width="1.145"/>
        <line id="Línea_298" data-name="Línea 298" x2="5.898" y2="5.898" transform="translate(193.207 111.892)" fill="none" stroke="#7e5ee3" stroke-linecap="round" stroke-miterlimit="10" stroke-width="1.145"/>
        <line id="Línea_299" data-name="Línea 299" y1="5.898" x2="5.898" transform="translate(184.243 111.892)" fill="none" stroke="#7e5ee3" stroke-linecap="round" stroke-miterlimit="10" stroke-width="1.145"/>
        <line id="Línea_300" data-name="Línea 300" y1="5.898" x2="5.898" transform="translate(193.207 102.927)" fill="none" stroke="#7e5ee3" stroke-linecap="round" stroke-miterlimit="10" stroke-width="1.145"/>
        <line id="Línea_301" data-name="Línea 301" x2="5.898" y2="5.898" transform="translate(202.255 102.928)" fill="none" stroke="#7e5ee3" stroke-linecap="round" stroke-miterlimit="10" stroke-width="1.145"/>
        <line id="Línea_302" data-name="Línea 302" x2="5.898" y2="5.898" transform="translate(211.219 111.892)" fill="none" stroke="#7e5ee3" stroke-linecap="round" stroke-miterlimit="10" stroke-width="1.145"/>
        <line id="Línea_303" data-name="Línea 303" y1="5.898" x2="5.898" transform="translate(202.255 111.892)" fill="none" stroke="#7e5ee3" stroke-linecap="round" stroke-miterlimit="10" stroke-width="1.145"/>
        <line id="Línea_304" data-name="Línea 304" y1="5.898" x2="5.898" transform="translate(211.219 102.927)" fill="none" stroke="#7e5ee3" stroke-linecap="round" stroke-miterlimit="10" stroke-width="1.145"/>
        <line id="Línea_305" data-name="Línea 305" x2="5.898" y2="5.898" transform="translate(220.272 102.928)" fill="none" stroke="#7e5ee3" stroke-linecap="round" stroke-miterlimit="10" stroke-width="1.145"/>
        <line id="Línea_306" data-name="Línea 306" x2="5.898" y2="5.898" transform="translate(229.231 111.892)" fill="none" stroke="#7e5ee3" stroke-linecap="round" stroke-miterlimit="10" stroke-width="1.145"/>
        <line id="Línea_307" data-name="Línea 307" y1="5.898" x2="5.898" transform="translate(220.272 111.892)" fill="none" stroke="#7e5ee3" stroke-linecap="round" stroke-miterlimit="10" stroke-width="1.145"/>
        <line id="Línea_308" data-name="Línea 308" y1="5.898" x2="5.898" transform="translate(229.231 102.927)" fill="none" stroke="#7e5ee3" stroke-linecap="round" stroke-miterlimit="10" stroke-width="1.145"/>
        <line id="Línea_309" data-name="Línea 309" x2="5.898" y2="5.898" transform="translate(184.243 120.275)" fill="none" stroke="#7e5ee3" stroke-linecap="round" stroke-miterlimit="10" stroke-width="1.145"/>
        <line id="Línea_310" data-name="Línea 310" x2="5.898" y2="5.892" transform="translate(193.207 129.239)" fill="none" stroke="#7e5ee3" stroke-linecap="round" stroke-miterlimit="10" stroke-width="1.145"/>
        <line id="Línea_311" data-name="Línea 311" y1="5.892" x2="5.898" transform="translate(184.243 129.239)" fill="none" stroke="#7e5ee3" stroke-linecap="round" stroke-miterlimit="10" stroke-width="1.145"/>
        <line id="Línea_312" data-name="Línea 312" y1="5.898" x2="5.898" transform="translate(193.207 120.275)" fill="none" stroke="#7e5ee3" stroke-linecap="round" stroke-miterlimit="10" stroke-width="1.145"/>
        <line id="Línea_313" data-name="Línea 313" x2="5.898" y2="5.898" transform="translate(202.255 120.275)" fill="none" stroke="#7e5ee3" stroke-linecap="round" stroke-miterlimit="10" stroke-width="1.145"/>
        <line id="Línea_314" data-name="Línea 314" x2="5.898" y2="5.892" transform="translate(211.219 129.239)" fill="none" stroke="#7e5ee3" stroke-linecap="round" stroke-miterlimit="10" stroke-width="1.145"/>
        <line id="Línea_315" data-name="Línea 315" y1="5.892" x2="5.898" transform="translate(202.255 129.239)" fill="none" stroke="#7e5ee3" stroke-linecap="round" stroke-miterlimit="10" stroke-width="1.145"/>
        <line id="Línea_316" data-name="Línea 316" y1="5.898" x2="5.898" transform="translate(211.219 120.275)" fill="none" stroke="#7e5ee3" stroke-linecap="round" stroke-miterlimit="10" stroke-width="1.145"/>
        <line id="Línea_317" data-name="Línea 317" x2="5.898" y2="5.898" transform="translate(220.272 120.275)" fill="none" stroke="#7e5ee3" stroke-linecap="round" stroke-miterlimit="10" stroke-width="1.145"/>
        <line id="Línea_318" data-name="Línea 318" x2="5.898" y2="5.892" transform="translate(229.231 129.239)" fill="none" stroke="#7e5ee3" stroke-linecap="round" stroke-miterlimit="10" stroke-width="1.145"/>
        <line id="Línea_319" data-name="Línea 319" y1="5.892" x2="5.898" transform="translate(220.272 129.239)" fill="none" stroke="#7e5ee3" stroke-linecap="round" stroke-miterlimit="10" stroke-width="1.145"/>
        <line id="Línea_320" data-name="Línea 320" y1="5.898" x2="5.898" transform="translate(229.231 120.275)" fill="none" stroke="#7e5ee3" stroke-linecap="round" stroke-miterlimit="10" stroke-width="1.145"/>
        <line id="Línea_321" data-name="Línea 321" x2="5.898" y2="5.898" transform="translate(184.243 137.617)" fill="none" stroke="#7e5ee3" stroke-linecap="round" stroke-miterlimit="10" stroke-width="1.145"/>
        <line id="Línea_322" data-name="Línea 322" x2="5.898" y2="5.898" transform="translate(193.207 146.581)" fill="none" stroke="#7e5ee3" stroke-linecap="round" stroke-miterlimit="10" stroke-width="1.145"/>
        <line id="Línea_323" data-name="Línea 323" y1="5.898" x2="5.898" transform="translate(184.243 146.581)" fill="none" stroke="#7e5ee3" stroke-linecap="round" stroke-miterlimit="10" stroke-width="1.145"/>
        <line id="Línea_324" data-name="Línea 324" y1="5.898" x2="5.898" transform="translate(193.207 137.617)" fill="none" stroke="#7e5ee3" stroke-linecap="round" stroke-miterlimit="10" stroke-width="1.145"/>
        <line id="Línea_325" data-name="Línea 325" x2="5.898" y2="5.898" transform="translate(202.255 137.617)" fill="none" stroke="#7e5ee3" stroke-linecap="round" stroke-miterlimit="10" stroke-width="1.145"/>
        <line id="Línea_326" data-name="Línea 326" x2="5.898" y2="5.898" transform="translate(211.219 146.581)" fill="none" stroke="#7e5ee3" stroke-linecap="round" stroke-miterlimit="10" stroke-width="1.145"/>
        <line id="Línea_327" data-name="Línea 327" y1="5.898" x2="5.898" transform="translate(202.255 146.581)" fill="none" stroke="#7e5ee3" stroke-linecap="round" stroke-miterlimit="10" stroke-width="1.145"/>
        <line id="Línea_328" data-name="Línea 328" y1="5.898" x2="5.898" transform="translate(211.219 137.617)" fill="none" stroke="#7e5ee3" stroke-linecap="round" stroke-miterlimit="10" stroke-width="1.145"/>
        <line id="Línea_329" data-name="Línea 329" x2="5.898" y2="5.898" transform="translate(220.272 137.617)" fill="none" stroke="#7e5ee3" stroke-linecap="round" stroke-miterlimit="10" stroke-width="1.145"/>
        <line id="Línea_330" data-name="Línea 330" x2="5.898" y2="5.898" transform="translate(229.231 146.581)" fill="none" stroke="#7e5ee3" stroke-linecap="round" stroke-miterlimit="10" stroke-width="1.145"/>
        <line id="Línea_331" data-name="Línea 331" y1="5.898" x2="5.898" transform="translate(220.272 146.581)" fill="none" stroke="#7e5ee3" stroke-linecap="round" stroke-miterlimit="10" stroke-width="1.145"/>
        <line id="Línea_332" data-name="Línea 332" y1="5.898" x2="5.898" transform="translate(229.231 137.617)" fill="none" stroke="#7e5ee3" stroke-linecap="round" stroke-miterlimit="10" stroke-width="1.145"/>
        <path id="Trazado_712061" data-name="Trazado 712061" d="M323.3,255.447h-51.53l73.053-65.6v44.067A21.523,21.523,0,0,1,323.3,255.442Z" transform="translate(-23.31 -16.284)" fill="#7e5ee3"/>
        <path id="Trazado_712062" data-name="Trazado 712062" d="M221.533,0a36.982,36.982,0,1,1-36.982,36.982A36.982,36.982,0,0,1,221.533,0" transform="translate(-15.829)" fill="#81d4fa"/>
        <path id="Trazado_712063" data-name="Trazado 712063" d="M215.4,69.613c-.847-.33-1.716-.613-2.549-.989a26.216,26.216,0,0,1-4.3-2.433,25.591,25.591,0,0,1-3.438-2.879,1.365,1.365,0,0,1,.539-2.318,1.3,1.3,0,0,1,1.366.361,23.071,23.071,0,0,0,3.752,3.04A23,23,0,0,0,225.064,68,22.848,22.848,0,0,0,236.4,63.93a25.173,25.173,0,0,0,3.088-2.585,1.363,1.363,0,1,1,1.946,1.91,24.6,24.6,0,0,1-3.312,2.81,26.809,26.809,0,0,1-3.093,1.89,25.011,25.011,0,0,1-5.9,2.171,26,26,0,0,1-8.273.56,23.788,23.788,0,0,1-4.684-.874,1.425,1.425,0,0,0-.194-.031,2.407,2.407,0,0,0-.57-.173Z" transform="translate(-17.556 -5.226)" fill="#fff"/>
        <path id="Trazado_712064" data-name="Trazado 712064" d="M231.736,9.736c.869.346,1.737.68,2.58,1.078a25.685,25.685,0,0,1,3.391,1.946,24.653,24.653,0,0,1,2.758,2.178c.319.287.627.581.931.89a1.366,1.366,0,1,1-1.915,1.946,23.768,23.768,0,0,0-4.9-3.736,22.24,22.24,0,0,0-6.092-2.386,23.217,23.217,0,0,0-7.954-.434,22.783,22.783,0,0,0-13.5,6.541,1.364,1.364,0,1,1-1.931-1.926A25.582,25.582,0,0,1,215.556,9.5,24.487,24.487,0,0,1,220.5,8.48a26.831,26.831,0,0,1,4.259-.1,24.907,24.907,0,0,1,5.374.884,1.568,1.568,0,0,0,.168.031,1.2,1.2,0,0,0,.45.121c.131.048.267.089.4.136.094.031.194.063.288.089a.109.109,0,0,0,.115.037c.052.032.1.079.173.063Z" transform="translate(-17.555 -0.715)" fill="#fff"/>
        <path id="Trazado_712065" data-name="Trazado 712065" d="M209.709,32.587a6.784,6.784,0,0,1,1.089.492,3.6,3.6,0,0,1,1.711,2.763,5.414,5.414,0,0,1-.214,2.4,3.748,3.748,0,0,1-2.073,2.24c-.251.121-.246.209-.131.409q.949,1.64,1.889,3.291c.34.6.686,1.183,1.02,1.785.184.335.1.465-.287.465h-2.434a.4.4,0,0,1-.4-.246q-1.343-2.441-2.69-4.876a.391.391,0,0,0-.419-.241c-.392.016-.785.021-1.172,0-.23-.016-.257.069-.257.272.011,1.564,0,3.129,0,4.7,0,.346-.042.392-.4.392h-2.093c-.367,0-.393-.026-.393-.392,0-1.978.011-3.951.011-5.929q0-3.634-.011-7.275c0-.083.005-.172,0-.256-.01-.2.084-.3.288-.293,1.827.021,3.648-.037,5.473.037.283.01.566.068.848.1a2.927,2.927,0,0,0,.633.157Zm-4.359,4.108c0,.592.005,1.183,0,1.774,0,.178.048.226.225.22.57-.011,1.146,0,1.717,0a3.343,3.343,0,0,0,1.093-.178,1.9,1.9,0,0,0,1.324-2.166c-.063-.874-.513-1.346-1.518-1.539a16.161,16.161,0,0,0-2.711-.1c-.162,0-.125.1-.125.188V36.7Z" transform="translate(-17.365 -2.769)" fill="#fff"/>
        <path id="Trazado_712066" data-name="Trazado 712066" d="M238.807,46.453c-.89-.005-1.774-.011-2.663-.021-.357,0-.393-.037-.393-.392V32.717c0-.409.016-.424.414-.424,1.4,0,2.809-.048,4.212.027a6.57,6.57,0,0,1,4.1,1.533,5.959,5.959,0,0,1,1.946,3.925,11.5,11.5,0,0,1-.047,3.364,5.916,5.916,0,0,1-3,4.485,7.284,7.284,0,0,1-3.558.811,2.013,2.013,0,0,0-.256.021,2.4,2.4,0,0,0-.754-.005Zm-.167-7.091v4.411c0,.178.031.246.23.241.476-.021.953,0,1.428-.058a3.489,3.489,0,0,0,3.114-2.926,9.189,9.189,0,0,0,.037-3.214,3.348,3.348,0,0,0-2.292-2.841,7.035,7.035,0,0,0-2.261-.261c-.225,0-.256.073-.256.272.01,1.46,0,2.92,0,4.38Z" transform="translate(-20.22 -2.768)" fill="#fff"/>
        <path id="Trazado_712067" data-name="Trazado 712067" d="M223.588,64.307a19.168,19.168,0,0,1-9.262-2.34,18.927,18.927,0,0,1-4.537-3.4,1.354,1.354,0,0,1,1.889-1.942,22.286,22.286,0,0,0,2.4,1.988,16.3,16.3,0,0,0,4.578,2.224,17,17,0,0,0,5.982.722,16.732,16.732,0,0,0,7.331-2.151,15.778,15.778,0,0,0,3.333-2.49,1.687,1.687,0,0,1,1.329-.67,1.315,1.315,0,0,1,1.178.816,1.277,1.277,0,0,1-.24,1.46,15.49,15.49,0,0,1-2.031,1.8A18.461,18.461,0,0,1,232,62.48a19.021,19.021,0,0,1-6.071,1.711,21.808,21.808,0,0,1-2.344.125Z" transform="translate(-17.958 -4.824)" fill="#fff"/>
        <path id="Trazado_712068" data-name="Trazado 712068" d="M236.32,23.056a1.511,1.511,0,0,1-.884-.544,16.113,16.113,0,0,0-2.109-1.753,16.3,16.3,0,0,0-5.463-2.522,16.994,16.994,0,0,0-13.4,2.188,14.875,14.875,0,0,0-2.434,1.936,1.929,1.929,0,0,1-1.036.675,1.369,1.369,0,0,1-1.45-.69,1.325,1.325,0,0,1,.23-1.607,15.891,15.891,0,0,1,1.879-1.669,18.848,18.848,0,0,1,3.726-2.271,19.144,19.144,0,0,1,6.049-1.679,19.99,19.99,0,0,1,8.022.738,19.494,19.494,0,0,1,5.83,2.946,16.511,16.511,0,0,1,2.281,1.984,1.253,1.253,0,0,1,.225,1.486A1.427,1.427,0,0,1,236.32,23.056Z" transform="translate(-17.958 -1.287)" fill="#fff"/>
        <path id="Trazado_712069" data-name="Trazado 712069" d="M216.644,39.332V32.744c0-.451.005-.455.445-.455h7.823c.461,0,.461,0,.461.465,0,.565-.011,1.125,0,1.69,0,.251-.079.361-.346.356-1.738-.01-3.475-.01-5.212-.016-.194,0-.3.027-.3.277.021.963.016,1.931,0,2.894,0,.219.053.272.267.267,1.45-.011,2.9,0,4.354,0,.35,0,.366.016.371.377,0,.591-.005,1.178.005,1.768.005.278-.115.367-.377.367-1.439-.005-2.883,0-4.322-.01-.236,0-.3.052-.3.293.011,1.659.005,3.323,0,4.982,0,.419-.01.434-.434.434-.7,0-1.391-.01-2.093,0-.278,0-.361-.1-.361-.371.005-2.245,0-4.49,0-6.735Z" transform="translate(-18.58 -2.769)" fill="#fff"/>
        <path id="Trazado_712070" data-name="Trazado 712070" d="M233.85,27.268l-.11.162c-.042.048-.09.09-.131.136-.021.027-.037.053-.058.079l-.011.005a1.841,1.841,0,0,1-1.062.261l-.167-.021a.4.4,0,0,0-.225-.089c-.042-.021-.084-.037-.125-.058-.518-.4-.964-.89-1.5-1.277a10.837,10.837,0,0,0-11.142-1.02,9.6,9.6,0,0,0-2.721,1.915,1.593,1.593,0,0,1-1.544.523c-.052-.026-.11-.052-.162-.073-.115-.052-.23-.1-.346-.152.021-.1-.068-.131-.115-.183a1.312,1.312,0,0,1,.011-1.837,12.994,12.994,0,0,1,5.112-3.229,13.209,13.209,0,0,1,3.135-.7,13.774,13.774,0,0,1,5.824.686,13.417,13.417,0,0,1,5.217,3.333.134.134,0,0,0,.048.027c0,.042,0,.079.041.1a1.434,1.434,0,0,1,.121,1.2.428.428,0,0,0-.1.225Z" transform="translate(-18.361 -1.857)" fill="#fff"/>
        <path id="Trazado_712071" data-name="Trazado 712071" d="M233.918,53.449a4.906,4.906,0,0,1-1.314,1.335,12.973,12.973,0,0,1-6.824,2.946,13.426,13.426,0,0,1-6.148-.628,13.687,13.687,0,0,1-5.035-3.113,1.54,1.54,0,0,1-.523-1.22c.005-.058.016-.11.021-.167a2.167,2.167,0,0,1,.408-.676,1.347,1.347,0,0,1,1.884,0,11.492,11.492,0,0,0,2.784,2.02,10.763,10.763,0,0,0,5.468,1.141,10.635,10.635,0,0,0,5.474-1.837,9.4,9.4,0,0,0,1.412-1.157,1.426,1.426,0,0,1,1.858-.351.09.09,0,0,0,.089.063,1.514,1.514,0,0,1,.555,1.308c-.037.115-.079.23-.115.345Z" transform="translate(-18.361 -4.421)" fill="#fff"/>
        <path id="Trazado_712072" data-name="Trazado 712072" d="M231.681,39.363v6.614c0,.45,0,.455-.461.455h-2.062c-.246,0-.356-.073-.356-.346q.015-5.078.01-10.163c0-1.088,0-2.177-.01-3.265,0-.272.079-.382.356-.377.732.01,1.47.01,2.2,0,.251,0,.325.1.325.345-.005,2.245,0,4.49,0,6.73Z" transform="translate(-19.624 -2.769)" fill="#fff"/>
        <path id="Trazado_712073" data-name="Trazado 712073" d="M371.872,108.529a6.274,6.274,0,1,0,6.273,6.274,6.276,6.276,0,0,0-6.273-6.274m0,9.513a3.239,3.239,0,1,1,3.239-3.239,3.239,3.239,0,0,1-3.239,3.239" transform="translate(-31.357 -9.309)" fill="#454545"/>
        <path id="Trazado_712074" data-name="Trazado 712074" d="M371.872,169.638a6.274,6.274,0,1,0,6.273,6.274,6.276,6.276,0,0,0-6.273-6.274m0,9.513a3.239,3.239,0,1,1,3.239-3.239,3.239,3.239,0,0,1-3.239,3.239" transform="translate(-31.357 -14.55)" fill="#454545"/>
        <path id="Trazado_712075" data-name="Trazado 712075" d="M227.5,108.529a6.274,6.274,0,1,0,6.274,6.274,6.276,6.276,0,0,0-6.274-6.274m0,9.513a3.239,3.239,0,1,1,3.239-3.239,3.238,3.238,0,0,1-3.239,3.239" transform="translate(-18.975 -9.309)" fill="#454545"/>
        <path id="Trazado_712076" data-name="Trazado 712076" d="M227.5,169.638a6.274,6.274,0,1,0,6.274,6.274,6.276,6.276,0,0,0-6.274-6.274m0,9.513a3.239,3.239,0,1,1,3.239-3.239,3.238,3.238,0,0,1-3.239,3.239" transform="translate(-18.975 -14.55)" fill="#454545"/>
        <path id="Trazado_712077" data-name="Trazado 712077" d="M243.636,93.916H344.429a16.305,16.305,0,0,1,16.305,16.306v62.529a16.306,16.306,0,0,1-16.305,16.306H243.636a16.307,16.307,0,0,1-16.306-16.306V110.222a16.306,16.306,0,0,1,16.306-16.306" transform="translate(-19.498 -8.055)" fill="#454545"/>
        <path id="Trazado_712078" data-name="Trazado 712078" d="M305.268,194.439h14.626a.785.785,0,0,1,.785.785v3.286a.785.785,0,0,1-.785.785H305.268a.786.786,0,0,1-.785-.785v-3.286a.785.785,0,0,1,.785-.785" transform="translate(-26.116 -16.677)" fill="#5d5c5c"/>
        <path id="Trazado_712079" data-name="Trazado 712079" d="M294.638,194.439h3.694a.785.785,0,0,1,.785.785v6.123a.785.785,0,0,1-.785.784h-3.694a.785.785,0,0,1-.785-.784v-6.123a.785.785,0,0,1,.785-.785" transform="translate(-25.204 -16.677)" fill="#aeb1b1"/>
        <path id="Trazado_712080" data-name="Trazado 712080" d="M287.552,194.439h3.694a.785.785,0,0,1,.785.785v6.123a.785.785,0,0,1-.785.784h-3.694a.785.785,0,0,1-.785-.784v-6.123a.785.785,0,0,1,.785-.785" transform="translate(-24.596 -16.677)" fill="#aeb1b1"/>
        <path id="Trazado_712081" data-name="Trazado 712081" d="M280.025,194.439h3.694a.785.785,0,0,1,.785.785v6.123a.785.785,0,0,1-.785.784h-3.694a.785.785,0,0,1-.785-.784v-6.123a.785.785,0,0,1,.785-.785" transform="translate(-23.95 -16.677)" fill="#aeb1b1"/>
        <path id="Trazado_712082" data-name="Trazado 712082" d="M272.939,194.439h3.694a.785.785,0,0,1,.785.785v6.123a.785.785,0,0,1-.785.784h-3.694a.785.785,0,0,1-.785-.784v-6.123a.785.785,0,0,1,.785-.785" transform="translate(-23.343 -16.677)" fill="#aeb1b1"/>
        <path id="Trazado_712083" data-name="Trazado 712083" d="M265.858,194.439h3.694a.785.785,0,0,1,.785.785v6.123a.785.785,0,0,1-.785.784h-3.694a.785.785,0,0,1-.785-.784v-6.123a.785.785,0,0,1,.785-.785" transform="translate(-22.735 -16.677)" fill="#aeb1b1"/>
        <path id="Trazado_712084" data-name="Trazado 712084" d="M258.772,194.439h3.694a.785.785,0,0,1,.785.785v6.123a.785.785,0,0,1-.785.784h-3.694a.785.785,0,0,1-.785-.784v-6.123a.785.785,0,0,1,.785-.785" transform="translate(-22.128 -16.677)" fill="#aeb1b1"/>
        <path id="Trazado_712085" data-name="Trazado 712085" d="M250.8,194.439h3.694a.785.785,0,0,1,.785.785v6.123a.785.785,0,0,1-.785.784H250.8a.785.785,0,0,1-.785-.784v-6.123a.785.785,0,0,1,.785-.785" transform="translate(-21.444 -16.677)" fill="#aeb1b1"/>
        <path id="Trazado_712086" data-name="Trazado 712086" d="M243.713,194.439h3.694a.785.785,0,0,1,.785.785v6.123a.785.785,0,0,1-.785.784h-3.694a.785.785,0,0,1-.785-.784v-6.123a.785.785,0,0,1,.785-.785" transform="translate(-20.836 -16.677)" fill="#aeb1b1"/>
        <path id="Trazado_712087" data-name="Trazado 712087" d="M371.872,107.642a6.274,6.274,0,1,0,6.273,6.274,6.276,6.276,0,0,0-6.273-6.274m0,9.513a3.239,3.239,0,1,1,3.239-3.239,3.239,3.239,0,0,1-3.239,3.239" transform="translate(-31.357 -9.232)" fill="#898989"/>
        <path id="Trazado_712088" data-name="Trazado 712088" d="M371.872,168.75a6.274,6.274,0,1,0,6.273,6.274,6.276,6.276,0,0,0-6.273-6.274m0,9.513a3.239,3.239,0,1,1,3.239-3.239,3.239,3.239,0,0,1-3.239,3.239" transform="translate(-31.357 -14.474)" fill="#898989"/>
        <path id="Trazado_712089" data-name="Trazado 712089" d="M227.5,107.642a6.274,6.274,0,1,0,6.274,6.274,6.276,6.276,0,0,0-6.274-6.274m0,9.513a3.239,3.239,0,1,1,3.239-3.239,3.238,3.238,0,0,1-3.239,3.239" transform="translate(-18.975 -9.232)" fill="#898989"/>
        <path id="Trazado_712090" data-name="Trazado 712090" d="M227.5,168.75a6.274,6.274,0,1,0,6.274,6.274,6.276,6.276,0,0,0-6.274-6.274m0,9.513a3.239,3.239,0,1,1,3.239-3.239,3.238,3.238,0,0,1-3.239,3.239" transform="translate(-18.975 -14.474)" fill="#898989"/>
        <path id="Trazado_712091" data-name="Trazado 712091" d="M244.18,93.028H343.55a16.305,16.305,0,0,1,16.305,16.306v62.529a16.306,16.306,0,0,1-16.305,16.306H244.18a16.307,16.307,0,0,1-16.306-16.306V109.334A16.306,16.306,0,0,1,244.18,93.028" transform="translate(-19.545 -7.979)" fill="#898989"/>
        <path id="Trazado_712092" data-name="Trazado 712092" d="M245.345,98.913h98.014A10.6,10.6,0,0,1,353.95,109.5v62.388a10.6,10.6,0,0,1-10.591,10.591H245.345a10.6,10.6,0,0,1-10.591-10.591V109.5a10.6,10.6,0,0,1,10.591-10.591" transform="translate(-20.135 -8.484)" fill="#5d5c5c"/>
        <path id="Trazado_712093" data-name="Trazado 712093" d="M343.311,99.387a10.079,10.079,0,0,1,10.068,10.068v62.387a10.079,10.079,0,0,1-10.068,10.068H245.3a10.079,10.079,0,0,1-10.068-10.068V109.455A10.079,10.079,0,0,1,245.3,99.387h98.014m0-1.047H245.3a11.115,11.115,0,0,0-11.115,11.115v62.387A11.116,11.116,0,0,0,245.3,182.957h98.014a11.116,11.116,0,0,0,11.115-11.115V109.455A11.115,11.115,0,0,0,343.311,98.34" transform="translate(-20.086 -8.435)" fill="#726f6e"/>
        <path id="Trazado_712094" data-name="Trazado 712094" d="M284.748,114.281h28.388a.785.785,0,0,1,.785.785v2.48a.785.785,0,0,1-.785.784H284.748a.785.785,0,0,1-.786-.784v-2.48a.785.785,0,0,1,.786-.785" transform="translate(-24.356 -9.802)" fill="#454545"/>
        <path id="Trazado_712095" data-name="Trazado 712095" d="M313.33,117.14v-9.98c0-2.788-1.9-2.621-4.238-2.621H288.923c-2.34,0-4.239-.167-4.239,2.621v9.98" transform="translate(-24.417 -8.966)" fill="none" stroke="#454545" stroke-miterlimit="10" stroke-width="1.717"/>
        <line id="Línea_333" data-name="Línea 333" x2="25.908" transform="translate(261.973 105.495)" fill="none" stroke="#5d5c5c" stroke-linecap="round" stroke-miterlimit="10" stroke-width="0.572"/>
        <line id="Línea_334" data-name="Línea 334" y2="78.558" transform="translate(324.02 92.951)" fill="none" stroke="#454545" stroke-linecap="round" stroke-miterlimit="10" stroke-width="1.717"/>
        <line id="Línea_335" data-name="Línea 335" y2="74.256" transform="translate(329.797 95.295)" fill="none" stroke="#454545" stroke-linecap="round" stroke-miterlimit="10" stroke-width="1.717"/>
        <line id="Línea_336" data-name="Línea 336" y2="78.558" transform="translate(319.038 92.951)" fill="none" stroke="#454545" stroke-linecap="round" stroke-miterlimit="10" stroke-width="1.717"/>
        <line id="Línea_337" data-name="Línea 337" y2="78.558" transform="translate(313.46 92.951)" fill="none" stroke="#454545" stroke-linecap="round" stroke-miterlimit="10" stroke-width="1.717"/>
        <line id="Línea_338" data-name="Línea 338" y2="78.558" transform="translate(307.683 92.951)" fill="none" stroke="#454545" stroke-linecap="round" stroke-miterlimit="10" stroke-width="1.717"/>
        <line id="Línea_339" data-name="Línea 339" y2="78.558" transform="translate(302.706 92.951)" fill="none" stroke="#454545" stroke-linecap="round" stroke-miterlimit="10" stroke-width="1.717"/>
        <line id="Línea_340" data-name="Línea 340" y2="78.558" transform="translate(297.128 92.951)" fill="none" stroke="#454545" stroke-linecap="round" stroke-miterlimit="10" stroke-width="1.717"/>
        <line id="Línea_341" data-name="Línea 341" y2="78.558" transform="translate(290.953 92.951)" fill="none" stroke="#454545" stroke-linecap="round" stroke-miterlimit="10" stroke-width="1.717"/>
        <line id="Línea_342" data-name="Línea 342" y2="78.558" transform="translate(285.971 92.951)" fill="none" stroke="#454545" stroke-linecap="round" stroke-miterlimit="10" stroke-width="1.717"/>
        <line id="Línea_343" data-name="Línea 343" y2="78.558" transform="translate(280.393 92.951)" fill="none" stroke="#454545" stroke-linecap="round" stroke-miterlimit="10" stroke-width="1.717"/>
        <line id="Línea_344" data-name="Línea 344" y2="78.558" transform="translate(274.218 92.951)" fill="none" stroke="#454545" stroke-linecap="round" stroke-miterlimit="10" stroke-width="1.717"/>
        <line id="Línea_345" data-name="Línea 345" y2="78.558" transform="translate(269.236 92.951)" fill="none" stroke="#454545" stroke-linecap="round" stroke-miterlimit="10" stroke-width="1.717"/>
        <line id="Línea_346" data-name="Línea 346" y2="78.558" transform="translate(263.658 92.951)" fill="none" stroke="#454545" stroke-linecap="round" stroke-miterlimit="10" stroke-width="1.717"/>
        <line id="Línea_347" data-name="Línea 347" y2="78.558" transform="translate(257.085 92.951)" fill="none" stroke="#454545" stroke-linecap="round" stroke-miterlimit="10" stroke-width="1.717"/>
        <line id="Línea_348" data-name="Línea 348" y2="78.558" transform="translate(252.108 92.951)" fill="none" stroke="#454545" stroke-linecap="round" stroke-miterlimit="10" stroke-width="1.717"/>
        <line id="Línea_349" data-name="Línea 349" y2="78.558" transform="translate(246.53 92.951)" fill="none" stroke="#454545" stroke-linecap="round" stroke-miterlimit="10" stroke-width="1.717"/>
        <line id="Línea_350" data-name="Línea 350" y2="78.558" transform="translate(240.355 92.951)" fill="none" stroke="#454545" stroke-linecap="round" stroke-miterlimit="10" stroke-width="1.717"/>
        <line id="Línea_351" data-name="Línea 351" y2="78.558" transform="translate(235.373 92.951)" fill="none" stroke="#454545" stroke-linecap="round" stroke-miterlimit="10" stroke-width="1.717"/>
        <line id="Línea_352" data-name="Línea 352" y2="78.558" transform="translate(229.795 92.951)" fill="none" stroke="#454545" stroke-linecap="round" stroke-miterlimit="10" stroke-width="1.717"/>
        <line id="Línea_353" data-name="Línea 353" y2="78.558" transform="translate(223.421 92.951)" fill="none" stroke="#454545" stroke-linecap="round" stroke-miterlimit="10" stroke-width="1.717"/>
        <line id="Línea_354" data-name="Línea 354" y2="74.256" transform="translate(217.843 95.295)" fill="none" stroke="#454545" stroke-linecap="round" stroke-miterlimit="10" stroke-width="1.717"/>
        <path id="Trazado_712096" data-name="Trazado 712096" d="M332.184,119.915a5.173,5.173,0,0,1,5.165,5.165v31.471a5.173,5.173,0,0,1-5.165,5.165H261.523a5.173,5.173,0,0,1-5.165-5.165V125.08a5.173,5.173,0,0,1,5.165-5.165h70.661m0-1.57H261.523a6.734,6.734,0,0,0-6.735,6.735v31.471a6.734,6.734,0,0,0,6.735,6.735h70.661a6.734,6.734,0,0,0,6.735-6.735V125.08a6.734,6.734,0,0,0-6.735-6.735" transform="translate(-21.853 -10.15)" fill="#454545"/>
        <line id="Línea_355" data-name="Línea 355" y2="78.558" transform="translate(324.816 92.951)" fill="none" stroke="#726f6e" stroke-linecap="round" stroke-miterlimit="10" stroke-width="1.717"/>
        <line id="Línea_356" data-name="Línea 356" y2="74.256" transform="translate(330.593 95.295)" fill="none" stroke="#726f6e" stroke-linecap="round" stroke-miterlimit="10" stroke-width="1.717"/>
        <line id="Línea_357" data-name="Línea 357" y2="78.558" transform="translate(319.839 92.951)" fill="none" stroke="#726f6e" stroke-linecap="round" stroke-miterlimit="10" stroke-width="1.717"/>
        <line id="Línea_358" data-name="Línea 358" y2="78.558" transform="translate(314.261 92.951)" fill="none" stroke="#726f6e" stroke-linecap="round" stroke-miterlimit="10" stroke-width="1.717"/>
        <line id="Línea_359" data-name="Línea 359" y2="78.558" transform="translate(308.483 92.951)" fill="none" stroke="#726f6e" stroke-linecap="round" stroke-miterlimit="10" stroke-width="1.717"/>
        <line id="Línea_360" data-name="Línea 360" y2="78.558" transform="translate(303.502 92.951)" fill="none" stroke="#726f6e" stroke-linecap="round" stroke-miterlimit="10" stroke-width="1.717"/>
        <line id="Línea_361" data-name="Línea 361" y2="78.558" transform="translate(297.923 92.951)" fill="none" stroke="#726f6e" stroke-linecap="round" stroke-miterlimit="10" stroke-width="1.717"/>
        <line id="Línea_362" data-name="Línea 362" y2="78.558" transform="translate(291.748 92.951)" fill="none" stroke="#726f6e" stroke-linecap="round" stroke-miterlimit="10" stroke-width="1.717"/>
        <line id="Línea_363" data-name="Línea 363" y2="78.558" transform="translate(286.767 92.951)" fill="none" stroke="#726f6e" stroke-linecap="round" stroke-miterlimit="10" stroke-width="1.717"/>
        <line id="Línea_364" data-name="Línea 364" y2="78.558" transform="translate(281.188 92.951)" fill="none" stroke="#726f6e" stroke-linecap="round" stroke-miterlimit="10" stroke-width="1.717"/>
        <line id="Línea_365" data-name="Línea 365" y2="78.558" transform="translate(275.013 92.951)" fill="none" stroke="#726f6e" stroke-linecap="round" stroke-miterlimit="10" stroke-width="1.717"/>
        <line id="Línea_366" data-name="Línea 366" y2="78.558" transform="translate(270.037 92.951)" fill="none" stroke="#726f6e" stroke-linecap="round" stroke-miterlimit="10" stroke-width="1.717"/>
        <line id="Línea_367" data-name="Línea 367" y2="78.558" transform="translate(264.458 92.951)" fill="none" stroke="#726f6e" stroke-linecap="round" stroke-miterlimit="10" stroke-width="1.717"/>
        <line id="Línea_368" data-name="Línea 368" y2="78.558" transform="translate(257.886 92.951)" fill="none" stroke="#726f6e" stroke-linecap="round" stroke-miterlimit="10" stroke-width="1.717"/>
        <line id="Línea_369" data-name="Línea 369" y2="78.558" transform="translate(252.904 92.951)" fill="none" stroke="#726f6e" stroke-linecap="round" stroke-miterlimit="10" stroke-width="1.717"/>
        <line id="Línea_370" data-name="Línea 370" y2="78.558" transform="translate(247.325 92.951)" fill="none" stroke="#726f6e" stroke-linecap="round" stroke-miterlimit="10" stroke-width="1.717"/>
        <line id="Línea_371" data-name="Línea 371" y2="78.558" transform="translate(241.151 92.951)" fill="none" stroke="#726f6e" stroke-linecap="round" stroke-miterlimit="10" stroke-width="1.717"/>
        <line id="Línea_372" data-name="Línea 372" y2="78.558" transform="translate(236.169 92.951)" fill="none" stroke="#726f6e" stroke-linecap="round" stroke-miterlimit="10" stroke-width="1.717"/>
        <line id="Línea_373" data-name="Línea 373" y2="78.558" transform="translate(230.59 92.951)" fill="none" stroke="#726f6e" stroke-linecap="round" stroke-miterlimit="10" stroke-width="1.717"/>
        <line id="Línea_374" data-name="Línea 374" y2="78.558" transform="translate(224.217 92.951)" fill="none" stroke="#726f6e" stroke-linecap="round" stroke-miterlimit="10" stroke-width="1.717"/>
        <line id="Línea_375" data-name="Línea 375" y2="74.256" transform="translate(218.638 95.295)" fill="none" stroke="#726f6e" stroke-linecap="round" stroke-miterlimit="10" stroke-width="1.717"/>
        <path id="Trazado_712097" data-name="Trazado 712097" d="M274.692,166.094h45.867a2.977,2.977,0,0,1,2.978,2.978v6.593a2.977,2.977,0,0,1-2.978,2.978H274.692a2.977,2.977,0,0,1-2.978-2.978v-6.593a2.977,2.977,0,0,1,2.978-2.978" transform="translate(-23.305 -14.246)" fill="#5b49a5"/>
        <path id="Trazado_712098" data-name="Trazado 712098" d="M274.692,164.766h45.867a2.977,2.977,0,0,1,2.978,2.978v7a2.977,2.977,0,0,1-2.978,2.977H274.692a2.977,2.977,0,0,1-2.978-2.977v-7a2.977,2.977,0,0,1,2.978-2.978" transform="translate(-23.305 -14.132)" fill="#7e5ee3"/>
        <path id="Trazado_712099" data-name="Trazado 712099" d="M21.59,151.137a4.618,4.618,0,0,0,5.615.146c3.312-2.014,12.093-14.83,22.748-17.567s31.528-3.6,31.528-3.6L77.593,123.2l-38.441,3.024L21.585,151.137Z" transform="translate(-1.851 -10.567)" fill="#454545"/>
        <path id="Trazado_712100" data-name="Trazado 712100" d="M23.6,27.614S4.785,40.57.756,56.986s15.835,79.761,16.992,82.927,3.166,5.762,8.927-.575,10.005-13.392,27.211-17.709C69.7,117.658,23.6,27.614,23.6,27.614Z" transform="translate(-0.019 -2.368)" fill="#726f6e"/>
        <path id="Trazado_712101" data-name="Trazado 712101" d="M91.639,47.167S87.8,32.384,78.395,28.93s-39.928-4.993-47.8-2.878c-.769.382-4.8,1.345-4.8,1.345l27.834,94.738s8.205-2.5,28.363-2.3,9.644-72.659,9.644-72.659Z" transform="translate(-2.213 -2.152)" fill="#5d5c5c"/>
        <path id="Trazado_712102" data-name="Trazado 712102" d="M61.188,62.9l5.473-1.492A14.8,14.8,0,0,1,84.831,71.8l7.495,27.491a14.8,14.8,0,0,1-10.385,18.17l-5.473,1.492A14.8,14.8,0,0,1,58.3,108.563L50.8,81.073A14.8,14.8,0,0,1,61.188,62.9" transform="translate(-4.312 -5.222)" fill="#898989"/>
        <path id="Trazado_712103" data-name="Trazado 712103" d="M63.74,67.09l2.8-.764A9.3,9.3,0,0,1,77.96,72.852l8.134,29.838a9.3,9.3,0,0,1-6.525,11.418l-2.8.764a9.3,9.3,0,0,1-11.418-6.526L57.214,78.508A9.3,9.3,0,0,1,63.74,67.09" transform="translate(-4.879 -5.661)" fill="#454545"/>
        <path id="Trazado_712104" data-name="Trazado 712104" d="M65.42,66.045l2.8-.764A9.3,9.3,0,0,1,79.64,71.807l8.134,29.838a9.3,9.3,0,0,1-6.525,11.418l-2.8.764A9.3,9.3,0,0,1,67.029,107.3L58.894,77.463A9.3,9.3,0,0,1,65.42,66.045" transform="translate(-5.023 -5.571)" fill="#726f6e"/>
        <path id="Trazado_712105" data-name="Trazado 712105" d="M83.482,279.15s2.449-1.078,5.9-4.966c1.988-2.234,4.6-5.542,4.6-5.542s.434,8.714-2.161,10.728-6.526,2.57-8.352-.214Z" transform="translate(-7.16 -23.042)" fill="#454545"/>
        <path id="Trazado_712106" data-name="Trazado 712106" d="M89.838,175.331,61.9,247.321l4.029,24.187H80.592a6.047,6.047,0,0,0,4.72-2.271l39.944-50.132L89.838,175.336Z" transform="translate(-5.31 -15.038)" fill="#898989"/>
        <path id="Trazado_712107" data-name="Trazado 712107" d="M82.35,274.158a6.047,6.047,0,0,0,4.72-2.271l39.944-50.132-12.57-15.532-32.089,67.94Z" transform="translate(-7.063 -17.688)" fill="#726f6e"/>
        <path id="Trazado_712108" data-name="Trazado 712108" d="M106.264,194.023s-16.667,14.6-21.345,14.019-3.8-5.547-3.8-5.547l10.528-27.165,14.621,18.692Z" transform="translate(-6.952 -15.038)" fill="#5d5c5c"/>
        <path id="Trazado_712109" data-name="Trazado 712109" d="M105.8,193.475S89.554,207.4,85,206.845s-3.7-5.291-3.7-5.291l10.257-25.9Z" transform="translate(-6.967 -15.066)" fill="#726f6e"/>
        <path id="Trazado_712110" data-name="Trazado 712110" d="M105.532,197.694c.146.434,4.464,47.609,4.464,47.609l13.819-17.373Z" transform="translate(-9.052 -16.956)" fill="#454545"/>
        <path id="Trazado_712111" data-name="Trazado 712111" d="M78.964,47.773,68.843,60.364a14.856,14.856,0,0,0-2.371,12.188l22.4,92.016c4.3,14.506,11.409,21.032,11.409,21.032,2.632,4.223,5.306,8.854,6.688,13.637l24.767,85.821a11.685,11.685,0,0,0,7.285,7.755l.335.12a9.6,9.6,0,0,0,4.317.539c54.8-3.245,63.723-16.3,63.723-16.3l-50.2-48.379Z" transform="translate(-5.665 -4.098)" fill="#454545"/>
        <path id="Trazado_712112" data-name="Trazado 712112" d="M80.647,45.673,70.526,58.264a14.856,14.856,0,0,0-2.371,12.188l22.4,92.016c4.3,14.506,11.409,21.032,11.409,21.032,2.632,4.223,5.306,8.854,6.688,13.637l24.767,85.821a11.685,11.685,0,0,0,7.285,7.755l.335.12a9.6,9.6,0,0,0,4.317.539c54.8-3.245,63.723-16.3,63.723-16.3l-50.2-48.379Z" transform="translate(-5.81 -3.917)" fill="#5d5c5c"/>
        <path id="Trazado_712113" data-name="Trazado 712113" d="M120.983,191.923l29.3,99.516a9.069,9.069,0,0,0,9.074,6.436s13.334-.492,30.106-2.809c17.808-2.46,20.314-5.233,20.314-5.233a9,9,0,0,0,4.893-11.392l-28.362-92.692a5.128,5.128,0,0,0-5.04-3.485l-56.658,4.751a3.854,3.854,0,0,0-3.637,4.908Z" transform="translate(-10.363 -15.633)" fill="#726f6e"/>
        <path id="Trazado_712114" data-name="Trazado 712114" d="M180.989,174.5l-60.237,2.077a15.551,15.551,0,0,1-15.228-11.863L77.732,53.84a5.839,5.839,0,0,1,5.945-7.258l56.929,2.961a13.8,13.8,0,0,1,12.466,9.833l33.612,107.307a6.05,6.05,0,0,1-5.694,7.813Z" transform="translate(-6.652 -3.995)" fill="#726f6e"/>
        <path id="Trazado_712115" data-name="Trazado 712115" d="M177.466,168.034l-54.831,2.826a14.2,14.2,0,0,1-13.951-10.791L83.308,57.466a5.347,5.347,0,0,1,5.458-6.62l51.273,2.643a12.592,12.592,0,0,1,11.419,8.943l31.241,98.48a5.526,5.526,0,0,1-5.228,7.122Z" transform="translate(-7.132 -4.361)" fill="#454545"/>
        <path id="Trazado_712116" data-name="Trazado 712116" d="M175.993,157.727l-58.452,1.727-24.768-92,56.584,3.454Z" transform="translate(-7.957 -5.786)" fill="#e6f4f4"/>
        <path id="Trazado_712117" data-name="Trazado 712117" d="M150.844,75.757l-1.487-4.845L92.774,67.458l1.706,6.358Z" transform="translate(-7.957 -5.786)" fill="#daecea"/>
        <path id="Trazado_712118" data-name="Trazado 712118" d="M129.3,192.591l26.49,91.059a8.1,8.1,0,0,0,7.99,6.086s9.922-.325,24.82-2.313c15.819-2.114,21.125-4.631,21.125-4.631a3.653,3.653,0,0,0,2.512-4.615l-27.175-89.7a4.568,4.568,0,0,0-4.438-3.3l-48.049,2.883A3.564,3.564,0,0,0,129.3,192.6Z" transform="translate(-11.079 -15.883)" fill="#454545"/>
        <path id="Trazado_712119" data-name="Trazado 712119" d="M132.08,194.233l25.2,87.637a7.632,7.632,0,0,0,7.5,5.86s9.32-.314,23.313-2.229c14.856-2.036,19.843-4.463,19.843-4.463a3.539,3.539,0,0,0,2.36-4.449l-25.526-86.422a4.31,4.31,0,0,0-4.165-3.177l-45.454,2.868a3.419,3.419,0,0,0-3.077,4.369Z" transform="translate(-11.318 -16.038)" fill="none" stroke="#5d5c5c" stroke-miterlimit="10" stroke-width="0.572"/>
        <line id="Línea_376" data-name="Línea 376" x1="11.517" y2="11.711" transform="translate(99.793 172.674)" fill="none" stroke="#726f6e" stroke-linecap="round" stroke-miterlimit="10" stroke-width="0.572"/>
        <line id="Línea_377" data-name="Línea 377" x1="9.561" y2="9.692" transform="translate(101.232 178.436)" fill="none" stroke="#726f6e" stroke-linecap="round" stroke-miterlimit="10" stroke-width="0.572"/>
        <path id="Trazado_712120" data-name="Trazado 712120" d="M71.045,61s21.309,96.465,26.777,107.982,10.654,14.108,12.957,21.309,24.422,88.924,29.66,96.465c8.734,12.575,61.236-5.761,61.236-5.761" transform="translate(-6.094 -5.232)" fill="none" stroke="#726f6e" stroke-linecap="round" stroke-miterlimit="10" stroke-width="0.572"/>
        <path id="Trazado_712121" data-name="Trazado 712121" d="M66.487,239.347l-12.272.251a3.18,3.18,0,0,0,.215,2.7l6.625,11.121,5.437-14.072Z" transform="translate(-4.633 -20.529)" fill="#454545"/>
        <path id="Trazado_712122" data-name="Trazado 712122" d="M94.463,264.837c.146.146-3.072,1.345-7.295.288a15.851,15.851,0,0,1-6.049-3.025" transform="translate(-6.958 -22.48)" fill="none" stroke="#5d5c5c" stroke-linecap="round" stroke-miterlimit="10" stroke-width="1.717"/>
        <path id="Trazado_712123" data-name="Trazado 712123" d="M103.037,254.556s-2.638,1.487-8.54-.382a19.615,19.615,0,0,1-5.181-2.3" transform="translate(-7.661 -21.603)" fill="none" stroke="#5d5c5c" stroke-linecap="round" stroke-miterlimit="10" stroke-width="1.717"/>
        <path id="Trazado_712124" data-name="Trazado 712124" d="M112.882,241.382s-3.454,1.533-8.781.194c-4.469-1.125-5.18-2.3-5.18-2.3" transform="translate(-8.484 -20.522)" fill="none" stroke="#5d5c5c" stroke-linecap="round" stroke-miterlimit="10" stroke-width="1.717"/>
        <path id="Trazado_712125" data-name="Trazado 712125" d="M87.107,47.161S94.307,44,107.84,44s31.387,5.469,31.387,5.469Z" transform="translate(-7.471 -3.774)" fill="#726f6e"/>
        <path id="Trazado_712126" data-name="Trazado 712126" d="M37.442,111.915l-15.286,13.82a1.329,1.329,0,0,1-2.177-.544L6.327,76.529A1.226,1.226,0,0,1,6.583,75.4L19.639,59.925a1.336,1.336,0,0,1,2.292.382l15.882,50.315a1.24,1.24,0,0,1-.371,1.3Z" transform="translate(-0.539 -5.098)" fill="#454545"/>
        <path id="Trazado_712127" data-name="Trazado 712127" d="M35.847,111.54,21.771,124.863a1.238,1.238,0,0,1-2.041-.565L6.343,76.5a1.251,1.251,0,0,1,.226-1.1L18.547,60.419a1.237,1.237,0,0,1,2.145.4l15.49,49.457a1.23,1.23,0,0,1-.329,1.266Z" transform="translate(-0.54 -5.142)" fill="#5d5c5c"/>
        <path id="Trazado_712128" data-name="Trazado 712128" d="M66.03,252.257a20.492,20.492,0,0,1-7.965-4.8,18.511,18.511,0,0,1-4.129-7.871,30.37,30.37,0,0,0-2.69,19.676A74.2,74.2,0,0,0,59.4,279.8s6.814-4.893,7.1-13.632a85.635,85.635,0,0,0-.482-13.92Z" transform="translate(-4.343 -20.55)" fill="#5d5c5c"/>
        <path id="Trazado_712129" data-name="Trazado 712129" d="M66.509,253.365c-1.167-.031-2.82,12.072-4.642,17.348a42.457,42.457,0,0,0-2.161,8.927s0,4.029,4.6,2.4,4.893-13.15,4.893-17.661-1.4-10.979-2.7-11.016Z" transform="translate(-5.121 -21.731)" fill="#454545"/>
        <path id="Trazado_712130" data-name="Trazado 712130" d="M67.866,267.3a44.338,44.338,0,0,1-.722,7.776c-.805,3.616-1.795,4.919-2.59,4.893-1.152-.037,1.078-.361,3.312-12.669" transform="translate(-5.51 -22.927)" fill="#898989"/>
        <path id="Trazado_712131" data-name="Trazado 712131" d="M171.295,203.4l-12.743.879a6.726,6.726,0,0,1-6.672-4.966,4.37,4.37,0,0,1,3.982-5.7l12.743-.879a6.724,6.724,0,0,1,6.672,4.966,4.37,4.37,0,0,1-3.982,5.7" transform="translate(-13.012 -16.53)" fill="#5b49a5"/>
        <path id="Trazado_712132" data-name="Trazado 712132" d="M171.089,202.571l-12.743.88a6.726,6.726,0,0,1-6.672-4.966,4.37,4.37,0,0,1,3.982-5.7l12.743-.879a6.724,6.724,0,0,1,6.672,4.966,4.37,4.37,0,0,1-3.982,5.7" transform="translate(-12.995 -16.459)" fill="#7e5ee3"/>
        <path id="Trazado_712133" data-name="Trazado 712133" d="M192.982,284.171l-6.536.675a3.413,3.413,0,0,1-3.491-2.4,2.243,2.243,0,0,1,1.973-2.962l6.536-.675a3.413,3.413,0,0,1,3.491,2.4,2.243,2.243,0,0,1-1.973,2.962" transform="translate(-15.683 -23.913)" fill="#5b49a5"/>
        <path id="Trazado_712134" data-name="Trazado 712134" d="M192.862,283.753l-6.536.675a3.413,3.413,0,0,1-3.491-2.4,2.243,2.243,0,0,1,1.973-2.962l6.536-.675a3.413,3.413,0,0,1,3.491,2.4,2.243,2.243,0,0,1-1.973,2.962" transform="translate(-15.673 -23.877)" fill="#7e5ee3"/>
        <path id="Trazado_712135" data-name="Trazado 712135" d="M171.638,286.661l-6.536.675a3.413,3.413,0,0,1-3.491-2.4,2.243,2.243,0,0,1,1.973-2.962l6.536-.675a3.413,3.413,0,0,1,3.491,2.4,2.243,2.243,0,0,1-1.973,2.962" transform="translate(-13.852 -24.126)" fill="#5b49a5"/>
        <path id="Trazado_712136" data-name="Trazado 712136" d="M171.518,286.243l-6.536.675a3.413,3.413,0,0,1-3.491-2.4,2.243,2.243,0,0,1,1.973-2.962l6.536-.675a3.413,3.413,0,0,1,3.491,2.4,2.243,2.243,0,0,1-1.973,2.962" transform="translate(-13.842 -24.09)" fill="#7e5ee3"/>
        <path id="Trazado_712137" data-name="Trazado 712137" d="M211.007,281.914l-5.144.528a2.969,2.969,0,0,1-2.8-2.47c-.361-1.486.309-2.788,1.5-2.915l5.144-.528a2.97,2.97,0,0,1,2.8,2.47c.361,1.486-.309,2.789-1.5,2.915" transform="translate(-17.408 -23.717)" fill="#5b49a5"/>
        <path id="Trazado_712138" data-name="Trazado 712138" d="M210.9,281.5l-5.144.528a2.969,2.969,0,0,1-2.8-2.47c-.361-1.486.309-2.788,1.5-2.915l5.144-.528a2.97,2.97,0,0,1,2.8,2.47c.361,1.486-.309,2.789-1.5,2.915" transform="translate(-17.399 -23.681)" fill="#7e5ee3"/>
        <path id="Trazado_712139" data-name="Trazado 712139" d="M159.773,242.744l-8.074.57a4.35,4.35,0,0,1-4.291-3.1,2.7,2.7,0,0,1,2.46-3.575l8.074-.57a4.349,4.349,0,0,1,4.29,3.1,2.694,2.694,0,0,1-2.459,3.574" transform="translate(-12.633 -20.247)" fill="#aeb1b1"/>
        <path id="Trazado_712140" data-name="Trazado 712140" d="M159.63,242.224l-8.074.57a4.35,4.35,0,0,1-4.291-3.1,2.7,2.7,0,0,1,2.46-3.575l8.074-.57a4.349,4.349,0,0,1,4.29,3.1,2.694,2.694,0,0,1-2.459,3.574" transform="translate(-12.62 -20.202)" fill="#fff"/>
        <path id="Trazado_712141" data-name="Trazado 712141" d="M163.208,253.895l-8.074.57a4.35,4.35,0,0,1-4.291-3.1,2.7,2.7,0,0,1,2.46-3.575l8.074-.57a4.349,4.349,0,0,1,4.29,3.1,2.694,2.694,0,0,1-2.459,3.574" transform="translate(-12.927 -21.203)" fill="#aeb1b1"/>
        <path id="Trazado_712142" data-name="Trazado 712142" d="M163.065,253.374l-8.074.57a4.35,4.35,0,0,1-4.291-3.1,2.7,2.7,0,0,1,2.46-3.575l8.074-.57a4.349,4.349,0,0,1,4.29,3.1,2.694,2.694,0,0,1-2.459,3.574" transform="translate(-12.915 -21.158)" fill="#fff"/>
        <path id="Trazado_712143" data-name="Trazado 712143" d="M166.465,265.222l-8.074.57a4.35,4.35,0,0,1-4.291-3.1,2.7,2.7,0,0,1,2.46-3.575l8.074-.57a4.349,4.349,0,0,1,4.29,3.1,2.694,2.694,0,0,1-2.459,3.574" transform="translate(-13.207 -22.175)" fill="#aeb1b1"/>
        <path id="Trazado_712144" data-name="Trazado 712144" d="M166.322,264.7l-8.074.57a4.35,4.35,0,0,1-4.291-3.1,2.7,2.7,0,0,1,2.46-3.575l8.074-.57a4.349,4.349,0,0,1,4.29,3.1,2.694,2.694,0,0,1-2.459,3.574" transform="translate(-13.194 -22.13)" fill="#fff"/>
        <path id="Trazado_712145" data-name="Trazado 712145" d="M156.351,232.3l-8.074.57a4.349,4.349,0,0,1-4.291-3.1,2.7,2.7,0,0,1,2.46-3.575l8.074-.57a4.347,4.347,0,0,1,4.29,3.1,2.693,2.693,0,0,1-2.458,3.574" transform="translate(-12.339 -19.351)" fill="#aeb1b1"/>
        <path id="Trazado_712146" data-name="Trazado 712146" d="M156.213,231.783l-8.074.57a4.35,4.35,0,0,1-4.291-3.1,2.7,2.7,0,0,1,2.46-3.575l8.074-.57a4.349,4.349,0,0,1,4.29,3.1,2.694,2.694,0,0,1-2.459,3.574" transform="translate(-12.327 -19.307)" fill="#fff"/>
        <path id="Trazado_712147" data-name="Trazado 712147" d="M178.737,240.609l-8.074.57a4.35,4.35,0,0,1-4.291-3.1,2.7,2.7,0,0,1,2.46-3.575l8.074-.57a4.349,4.349,0,0,1,4.29,3.1,2.694,2.694,0,0,1-2.459,3.574" transform="translate(-14.259 -20.064)" fill="#aeb1b1"/>
        <path id="Trazado_712148" data-name="Trazado 712148" d="M178.594,240.088l-8.074.571a4.351,4.351,0,0,1-4.291-3.1,2.7,2.7,0,0,1,2.46-3.575l8.074-.57a4.349,4.349,0,0,1,4.29,3.1,2.693,2.693,0,0,1-2.459,3.573" transform="translate(-14.247 -20.019)" fill="#fff"/>
        <path id="Trazado_712149" data-name="Trazado 712149" d="M182.171,251.76l-8.074.57a4.35,4.35,0,0,1-4.291-3.1,2.7,2.7,0,0,1,2.46-3.575l8.074-.57a4.349,4.349,0,0,1,4.29,3.1,2.694,2.694,0,0,1-2.459,3.574" transform="translate(-14.554 -21.02)" fill="#aeb1b1"/>
        <path id="Trazado_712150" data-name="Trazado 712150" d="M182.028,251.239l-8.074.57a4.35,4.35,0,0,1-4.291-3.1,2.7,2.7,0,0,1,2.46-3.575l8.074-.57a4.349,4.349,0,0,1,4.29,3.1,2.694,2.694,0,0,1-2.459,3.574" transform="translate(-14.541 -20.975)" fill="#fff"/>
        <path id="Trazado_712151" data-name="Trazado 712151" d="M185.428,263.081l-8.074.571a4.351,4.351,0,0,1-4.291-3.1,2.7,2.7,0,0,1,2.46-3.575l8.074-.57a4.349,4.349,0,0,1,4.29,3.1,2.693,2.693,0,0,1-2.459,3.573" transform="translate(-14.833 -21.991)" fill="#aeb1b1"/>
        <path id="Trazado_712152" data-name="Trazado 712152" d="M185.285,262.561l-8.074.57a4.35,4.35,0,0,1-4.291-3.1,2.7,2.7,0,0,1,2.46-3.575l8.074-.57a4.349,4.349,0,0,1,4.29,3.1,2.694,2.694,0,0,1-2.459,3.574" transform="translate(-14.821 -21.946)" fill="#fff"/>
        <path id="Trazado_712153" data-name="Trazado 712153" d="M175.314,230.169l-8.074.57a4.35,4.35,0,0,1-4.291-3.1,2.7,2.7,0,0,1,2.46-3.575l8.074-.57a4.349,4.349,0,0,1,4.29,3.1,2.694,2.694,0,0,1-2.459,3.574" transform="translate(-13.966 -19.168)" fill="#aeb1b1"/>
        <path id="Trazado_712154" data-name="Trazado 712154" d="M175.171,229.648l-8.074.57a4.35,4.35,0,0,1-4.291-3.1,2.7,2.7,0,0,1,2.46-3.575l8.074-.57a4.349,4.349,0,0,1,4.29,3.1,2.694,2.694,0,0,1-2.459,3.574" transform="translate(-13.953 -19.123)" fill="#fff"/>
        <path id="Trazado_712155" data-name="Trazado 712155" d="M196.946,238.823l-7.583.534a4.16,4.16,0,0,1-4.045-3.119,2.65,2.65,0,0,1,2.293-3.564l7.582-.533a4.158,4.158,0,0,1,4.045,3.118,2.65,2.65,0,0,1-2.292,3.564" transform="translate(-15.884 -19.91)" fill="#aeb1b1"/>
        <path id="Trazado_712156" data-name="Trazado 712156" d="M196.809,238.3l-7.583.534a4.161,4.161,0,0,1-4.046-3.119,2.651,2.651,0,0,1,2.293-3.564l7.582-.533a4.157,4.157,0,0,1,4.045,3.118,2.649,2.649,0,0,1-2.291,3.564" transform="translate(-15.873 -19.865)" fill="#fff"/>
        <path id="Trazado_712157" data-name="Trazado 712157" d="M200.231,249.978l-7.583.534a4.16,4.16,0,0,1-4.045-3.119,2.65,2.65,0,0,1,2.293-3.564l7.582-.533a4.158,4.158,0,0,1,4.045,3.118,2.65,2.65,0,0,1-2.292,3.564" transform="translate(-16.166 -20.867)" fill="#aeb1b1"/>
        <path id="Trazado_712158" data-name="Trazado 712158" d="M200.094,249.458l-7.583.534a4.16,4.16,0,0,1-4.045-3.119,2.65,2.65,0,0,1,2.293-3.564l7.582-.533a4.158,4.158,0,0,1,4.045,3.118,2.65,2.65,0,0,1-2.292,3.564" transform="translate(-16.154 -20.822)" fill="#fff"/>
        <path id="Trazado_712159" data-name="Trazado 712159" d="M203.351,261.317l-7.583.535a4.16,4.16,0,0,1-4.045-3.119,2.65,2.65,0,0,1,2.293-3.564l7.582-.533a4.158,4.158,0,0,1,4.045,3.118,2.649,2.649,0,0,1-2.292,3.563" transform="translate(-16.434 -21.84)" fill="#aeb1b1"/>
        <path id="Trazado_712160" data-name="Trazado 712160" d="M203.214,260.8l-7.583.534a4.16,4.16,0,0,1-4.045-3.119,2.65,2.65,0,0,1,2.293-3.564l7.582-.533a4.158,4.158,0,0,1,4.045,3.118,2.65,2.65,0,0,1-2.292,3.564" transform="translate(-16.422 -21.795)" fill="#fff"/>
        <path id="Trazado_712161" data-name="Trazado 712161" d="M193.672,228.371l-7.583.534a4.16,4.16,0,0,1-4.045-3.119,2.65,2.65,0,0,1,2.292-3.564l7.583-.533a4.158,4.158,0,0,1,4.045,3.118A2.65,2.65,0,0,1,193.672,228.371Z" transform="translate(-15.604 -19.014)" fill="#aeb1b1"/>
        <path id="Trazado_712162" data-name="Trazado 712162" d="M193.54,227.85l-7.583.534a4.16,4.16,0,0,1-4.045-3.119A2.65,2.65,0,0,1,184.2,221.7l7.582-.533a4.158,4.158,0,0,1,4.045,3.118,2.65,2.65,0,0,1-2.292,3.564" transform="translate(-15.592 -18.969)" fill="#fff"/>
        <path id="Trazado_712163" data-name="Trazado 712163" d="M157.678,214.445l-5.793.4a3.049,3.049,0,0,1-3.031-2.255A1.985,1.985,0,0,1,150.666,210l5.793-.4a3.047,3.047,0,0,1,3.03,2.255,1.983,1.983,0,0,1-1.81,2.589" transform="translate(-12.761 -17.977)" fill="#aeb1b1"/>
        <path id="Trazado_712164" data-name="Trazado 712164" d="M157.586,214.068l-5.793.4a3.051,3.051,0,0,1-3.031-2.255,1.985,1.985,0,0,1,1.811-2.591l5.793-.4a3.048,3.048,0,0,1,3.03,2.255,1.984,1.984,0,0,1-1.81,2.59" transform="translate(-12.753 -17.945)" fill="#fff"/>
        <path id="Trazado_712165" data-name="Trazado 712165" d="M171.295,212.923l-5.793.4a3.051,3.051,0,0,1-3.031-2.255,1.985,1.985,0,0,1,1.811-2.591l5.793-.4a3.048,3.048,0,0,1,3.03,2.255,1.984,1.984,0,0,1-1.81,2.59" transform="translate(-13.929 -17.846)" fill="#aeb1b1"/>
        <path id="Trazado_712166" data-name="Trazado 712166" d="M171.2,212.545l-5.793.4a3.051,3.051,0,0,1-3.031-2.255,1.985,1.985,0,0,1,1.811-2.591l5.793-.4a3.048,3.048,0,0,1,3.03,2.255,1.984,1.984,0,0,1-1.81,2.59" transform="translate(-13.92 -17.814)" fill="#fff"/>
        <path id="Trazado_712167" data-name="Trazado 712167" d="M184.47,211.647l-5.437.377a2.926,2.926,0,0,1-2.857-2.265,1.952,1.952,0,0,1,1.689-2.58l5.438-.377a2.926,2.926,0,0,1,2.857,2.265,1.953,1.953,0,0,1-1.69,2.58" transform="translate(-15.104 -17.737)" fill="#aeb1b1"/>
        <path id="Trazado_712168" data-name="Trazado 712168" d="M184.378,211.269l-5.437.377a2.926,2.926,0,0,1-2.857-2.265,1.952,1.952,0,0,1,1.689-2.58l5.438-.377a2.926,2.926,0,0,1,2.857,2.265,1.953,1.953,0,0,1-1.69,2.58" transform="translate(-15.096 -17.705)" fill="#fff"/>
        <path id="Trazado_712169" data-name="Trazado 712169" d="M56.243,226.965l-.255.742a1.084,1.084,0,0,1-1.377.673l-18.044-6.2A1.083,1.083,0,0,1,35.9,220.8l.255-.742a1.083,1.083,0,0,1,1.376-.672l18.044,6.2a1.084,1.084,0,0,1,.673,1.377" transform="translate(-3.074 -18.812)" fill="#726f6e"/>
        <path id="Trazado_712170" data-name="Trazado 712170" d="M31.084,255.154c1.423-3.491,13.344-32.555,17.965-36.276,4.919-3.956,10.44-4.008,14.516-3.631s7.892,1.879,12.251,6.217,17.828,30.027,17.828,30.027l-.136.01a36.479,36.479,0,1,1-62.429,3.648Zm21.45-26.845a4.8,4.8,0,0,0,4.8,4.8h8.734a4.8,4.8,0,1,0,.005-9.6H57.337a4.792,4.792,0,0,0-4.8,4.793" transform="translate(-2.307 -18.449)" fill="#454545"/>
        <path id="Trazado_712171" data-name="Trazado 712171" d="M33.992,256.021c1.381-3.5,12.972-32.607,17.421-36.353,4.73-3.982,10.015-4.071,13.915-3.721s7.541,1.832,11.685,6.139,16.877,29.891,16.877,29.891l-.131.01a37.294,37.294,0,0,1,5.589,25.762c-2.873,19.949-20.671,33.889-39.74,31.141s-32.2-21.146-29.33-41.1a37.868,37.868,0,0,1,3.71-11.773Zm18.8-27.651a4.8,4.8,0,0,0,4.8,4.8h8.734a4.8,4.8,0,1,0,.005-9.6H57.593a4.792,4.792,0,0,0-4.8,4.793" transform="translate(-2.563 -18.511)" fill="#5d5c5c"/>
        <path id="Trazado_712172" data-name="Trazado 712172" d="M64.422,245.094a29.289,29.289,0,1,1-29.289,29.289,29.289,29.289,0,0,1,29.289-29.289" transform="translate(-3.013 -21.022)" fill="#5b49a5"/>
        <path id="Trazado_712173" data-name="Trazado 712173" d="M65.09,247.35a27.363,27.363,0,1,1-27.363,27.363A27.363,27.363,0,0,1,65.09,247.35" transform="translate(-3.236 -21.215)" fill="#7e5ee3"/>
        <path id="Trazado_712174" data-name="Trazado 712174" d="M46.861,245.559l-1.459-.58a2.151,2.151,0,0,1-1.2-2.793l3.039-7.649a2.151,2.151,0,0,1,2.793-1.2l1.459.58a2.151,2.151,0,0,1,1.2,2.793l-3.04,7.649a2.151,2.151,0,0,1-2.793,1.2" transform="translate(-3.778 -20)" fill="#454545"/>
        <path id="Trazado_712175" data-name="Trazado 712175" d="M47.121,245.46l-1.358-.539a2,2,0,0,1-1.12-2.6L47.554,235a2,2,0,0,1,2.6-1.12l1.356.539a2,2,0,0,1,1.12,2.6l-2.911,7.324a2,2,0,0,1-2.595,1.12" transform="translate(-3.817 -20.048)" fill="#726f6e"/>
        <path id="Trazado_712176" data-name="Trazado 712176" d="M86.972,243.089l-1.323.845a2.15,2.15,0,0,1-2.97-.655l-4.431-6.936a2.15,2.15,0,0,1,.655-2.97l1.323-.846a2.151,2.151,0,0,1,2.97.655l4.431,6.937a2.15,2.15,0,0,1-.655,2.97" transform="translate(-6.682 -19.915)" fill="#454545"/>
        <path id="Trazado_712177" data-name="Trazado 712177" d="M86.605,243.023l-1.231.786a2,2,0,0,1-2.761-.609l-4.242-6.641a2,2,0,0,1,.608-2.761l1.231-.786a2,2,0,0,1,2.761.609l4.243,6.641a2,2,0,0,1-.609,2.761" transform="translate(-6.695 -19.959)" fill="#726f6e"/>
        <circle id="Elipse_4850" data-name="Elipse 4850" cx="17.86" cy="17.86" r="17.86" transform="translate(1.308 182.397)" fill="none" stroke="#898989" stroke-miterlimit="10" stroke-width="2.862"/>
        <circle id="Elipse_4851" data-name="Elipse 4851" cx="17.86" cy="17.86" r="17.86" transform="translate(1.58 181.183)" fill="none" stroke="#aeb1b1" stroke-miterlimit="10" stroke-width="2.862"/>
        <path id="Trazado_712178" data-name="Trazado 712178" d="M56.5,226.1l-.255.743a1.085,1.085,0,0,1-1.377.673l-18.044-6.2a1.084,1.084,0,0,1-.672-1.378l.255-.741a1.082,1.082,0,0,1,1.376-.672l18.044,6.2A1.083,1.083,0,0,1,56.5,226.1" transform="translate(-3.096 -18.738)" fill="#898989"/>
        <path id="Trazado_712179" data-name="Trazado 712179" d="M55.436,279.055l-1.418.131.308,3.318L52,282.719l-.843-9.079,4.333-.4a3.864,3.864,0,0,1,2.606.507,2.658,2.658,0,0,1,1.089,2.063,2.819,2.819,0,0,1-.3,1.695,2.642,2.642,0,0,1-1.23,1.1l2.642,3.35-2.617.24-2.25-3.135Zm-1.575-1.549,1.612-.152a1.8,1.8,0,0,0,1.078-.377,1.056,1.056,0,0,0,.261-.911,1.041,1.041,0,0,0-.423-.837,1.774,1.774,0,0,0-1.125-.173l-1.612.152.215,2.3Z" transform="translate(-4.388 -23.433)" fill="#fff"/>
        <path id="Trazado_712180" data-name="Trazado 712180" d="M64.064,274.263l.178,1.925,3.741-.345.167,1.831-3.741.346.325,3.5-2.366.22-.842-9.079L68.585,272l.168,1.832-4.695.434Z" transform="translate(-5.277 -23.33)" fill="#fff"/>
        <rect id="Rectángulo_347194" data-name="Rectángulo 347194" width="2.375" height="9.118" transform="translate(64.669 248.547) rotate(-5.3)" fill="#fff"/>
        <path id="Trazado_712181" data-name="Trazado 712181" d="M82.753,271.895a5.573,5.573,0,0,1,.628,6.73,4.347,4.347,0,0,1-3.16,1.481l-3.851.356-.843-9.079,3.853-.356a4.332,4.332,0,0,1,3.374.874Zm-1.317,5.6a4.254,4.254,0,0,0-.383-4.129,2.012,2.012,0,0,0-1.743-.534l-1.25.115.512,5.5,1.252-.114a2.018,2.018,0,0,0,1.616-.843Z" transform="translate(-6.478 -23.243)" fill="#fff"/>
      </g>
    </g>
  </g>
</svg>
