<svg xmlns="http://www.w3.org/2000/svg" xmlns:xlink="http://www.w3.org/1999/xlink" width="400" height="217" viewBox="0 0 400 217">
  <defs>
    <clipPath id="clip-path">
      <rect id="Rectángulo_347192" data-name="Rectángulo 347192" width="392.465" height="217" fill="none"/>
    </clipPath>
    <clipPath id="clip-path-3">
      <rect id="Rectángulo_347175" data-name="Rectángulo 347175" width="21.439" height="15.514" transform="translate(262.134 89.696)" fill="none"/>
    </clipPath>
    <clipPath id="clip-path-4">
      <rect id="Rectángulo_347190" data-name="Rectángulo 347190" width="51.406" height="32.669" transform="translate(17.34 77.914)" fill="none"/>
    </clipPath>
  </defs>
  <g id="Grupo_1003506" data-name="Grupo 1003506" transform="translate(-179.667 -2929)">
    <rect id="Rectángulo_346047" data-name="Rectángulo 346047" width="400" height="217" transform="translate(179.667 2929)" fill="none"/>
    <g id="Grupo_1003505" data-name="Grupo 1003505" transform="translate(183.667 2929)">
      <g id="Grupo_1003504" data-name="Grupo 1003504" clip-path="url(#clip-path)">
        <rect id="Rectángulo_346977" data-name="Rectángulo 346977" width="51.286" height="157.103" transform="translate(0.303 59.897)" fill="#f5f5f5"/>
        <rect id="Rectángulo_346978" data-name="Rectángulo 346978" width="40.532" height="157.103" transform="translate(51.43 59.897)" fill="#fafafa"/>
        <rect id="Rectángulo_346979" data-name="Rectángulo 346979" width="43.505" height="12.248" transform="translate(3.056 85.041)" fill="#e1e1e1"/>
        <rect id="Rectángulo_346980" data-name="Rectángulo 346980" width="2.436" height="9.374" transform="translate(4.27 86.58)" fill="#f5f5f5"/>
        <g id="Grupo_1003503" data-name="Grupo 1003503">
          <g id="Grupo_1003502" data-name="Grupo 1003502" clip-path="url(#clip-path)">
            <path id="Trazado_711778" data-name="Trazado 711778" d="M9.576,88.552a.775.775,0,1,1-.774-.774.774.774,0,0,1,.774.774" fill="#fafafa"/>
            <path id="Trazado_711779" data-name="Trazado 711779" d="M9.576,91.864A.775.775,0,1,1,8.8,91.09a.774.774,0,0,1,.774.774" fill="#fafafa"/>
            <rect id="Rectángulo_346981" data-name="Rectángulo 346981" width="2.394" height="7.2" transform="translate(12.671 87.778)" fill="#f5f5f5"/>
            <rect id="Rectángulo_346982" data-name="Rectángulo 346982" width="2.394" height="7.2" transform="translate(16.129 87.778)" fill="#f5f5f5"/>
            <rect id="Rectángulo_346983" data-name="Rectángulo 346983" width="2.394" height="7.2" transform="translate(19.587 87.778)" fill="#f5f5f5"/>
            <rect id="Rectángulo_346984" data-name="Rectángulo 346984" width="2.394" height="7.2" transform="translate(23.044 87.778)" fill="#f5f5f5"/>
            <rect id="Rectángulo_346985" data-name="Rectángulo 346985" width="2.394" height="7.2" transform="translate(26.502 87.778)" fill="#f5f5f5"/>
            <rect id="Rectángulo_346986" data-name="Rectángulo 346986" width="2.394" height="7.2" transform="translate(29.96 87.778)" fill="#f5f5f5"/>
            <rect id="Rectángulo_346987" data-name="Rectángulo 346987" width="2.394" height="7.2" transform="translate(33.418 87.778)" fill="#f5f5f5"/>
            <rect id="Rectángulo_346988" data-name="Rectángulo 346988" width="2.394" height="7.2" transform="translate(36.876 87.778)" fill="#f5f5f5"/>
            <rect id="Rectángulo_346989" data-name="Rectángulo 346989" width="2.394" height="7.2" transform="translate(40.334 87.778)" fill="#f5f5f5"/>
            <rect id="Rectángulo_346990" data-name="Rectángulo 346990" width="2.394" height="7.2" transform="translate(43.792 87.778)" fill="#f5f5f5"/>
            <rect id="Rectángulo_346991" data-name="Rectángulo 346991" width="43.505" height="12.248" transform="translate(3.056 104.659)" fill="#e1e1e1"/>
            <rect id="Rectángulo_346992" data-name="Rectángulo 346992" width="2.436" height="9.374" transform="translate(4.27 106.198)" fill="#f5f5f5"/>
            <path id="Trazado_711780" data-name="Trazado 711780" d="M9.576,108.17A.775.775,0,1,1,8.8,107.4a.774.774,0,0,1,.774.774" fill="#fafafa"/>
            <path id="Trazado_711781" data-name="Trazado 711781" d="M9.576,111.482a.775.775,0,1,1-.774-.774.774.774,0,0,1,.774.774" fill="#fafafa"/>
            <rect id="Rectángulo_346993" data-name="Rectángulo 346993" width="2.394" height="7.2" transform="translate(12.671 107.396)" fill="#f5f5f5"/>
            <rect id="Rectángulo_346994" data-name="Rectángulo 346994" width="2.394" height="7.2" transform="translate(16.129 107.396)" fill="#f5f5f5"/>
            <rect id="Rectángulo_346995" data-name="Rectángulo 346995" width="2.394" height="7.2" transform="translate(19.587 107.396)" fill="#f5f5f5"/>
            <rect id="Rectángulo_346996" data-name="Rectángulo 346996" width="2.394" height="7.2" transform="translate(23.044 107.396)" fill="#f5f5f5"/>
            <rect id="Rectángulo_346997" data-name="Rectángulo 346997" width="2.394" height="7.2" transform="translate(26.502 107.396)" fill="#f5f5f5"/>
            <rect id="Rectángulo_346998" data-name="Rectángulo 346998" width="2.394" height="7.2" transform="translate(29.96 107.396)" fill="#f5f5f5"/>
            <rect id="Rectángulo_346999" data-name="Rectángulo 346999" width="2.394" height="7.2" transform="translate(33.418 107.396)" fill="#f5f5f5"/>
            <rect id="Rectángulo_347000" data-name="Rectángulo 347000" width="2.394" height="7.2" transform="translate(36.876 107.396)" fill="#f5f5f5"/>
            <rect id="Rectángulo_347001" data-name="Rectángulo 347001" width="2.394" height="7.2" transform="translate(40.334 107.396)" fill="#f5f5f5"/>
            <rect id="Rectángulo_347002" data-name="Rectángulo 347002" width="2.394" height="7.2" transform="translate(43.792 107.396)" fill="#f5f5f5"/>
            <rect id="Rectángulo_347003" data-name="Rectángulo 347003" width="43.505" height="12.248" transform="translate(3.056 124.276)" fill="#e1e1e1"/>
            <rect id="Rectángulo_347004" data-name="Rectángulo 347004" width="2.436" height="9.374" transform="translate(4.27 125.816)" fill="#f5f5f5"/>
            <path id="Trazado_711782" data-name="Trazado 711782" d="M9.576,127.788a.775.775,0,1,1-.774-.774.774.774,0,0,1,.774.774" fill="#fafafa"/>
            <path id="Trazado_711783" data-name="Trazado 711783" d="M9.576,131.1a.775.775,0,1,1-.774-.774.774.774,0,0,1,.774.774" fill="#fafafa"/>
            <rect id="Rectángulo_347005" data-name="Rectángulo 347005" width="2.394" height="7.2" transform="translate(12.671 127.014)" fill="#f5f5f5"/>
            <rect id="Rectángulo_347006" data-name="Rectángulo 347006" width="2.394" height="7.2" transform="translate(16.129 127.014)" fill="#f5f5f5"/>
            <rect id="Rectángulo_347007" data-name="Rectángulo 347007" width="2.394" height="7.2" transform="translate(19.587 127.014)" fill="#f5f5f5"/>
            <rect id="Rectángulo_347008" data-name="Rectángulo 347008" width="2.394" height="7.2" transform="translate(23.044 127.014)" fill="#f5f5f5"/>
            <rect id="Rectángulo_347009" data-name="Rectángulo 347009" width="2.394" height="7.2" transform="translate(26.502 127.014)" fill="#f5f5f5"/>
            <rect id="Rectángulo_347010" data-name="Rectángulo 347010" width="2.394" height="7.2" transform="translate(29.96 127.014)" fill="#f5f5f5"/>
            <rect id="Rectángulo_347011" data-name="Rectángulo 347011" width="2.394" height="7.2" transform="translate(33.418 127.014)" fill="#f5f5f5"/>
            <rect id="Rectángulo_347012" data-name="Rectángulo 347012" width="2.394" height="7.2" transform="translate(36.876 127.014)" fill="#f5f5f5"/>
            <rect id="Rectángulo_347013" data-name="Rectángulo 347013" width="2.394" height="7.2" transform="translate(40.334 127.014)" fill="#f5f5f5"/>
            <rect id="Rectángulo_347014" data-name="Rectángulo 347014" width="2.394" height="7.2" transform="translate(43.792 127.014)" fill="#f5f5f5"/>
            <rect id="Rectángulo_347015" data-name="Rectángulo 347015" width="43.505" height="12.248" transform="translate(3.056 143.894)" fill="#e1e1e1"/>
            <rect id="Rectángulo_347016" data-name="Rectángulo 347016" width="2.436" height="9.374" transform="translate(4.27 145.434)" fill="#f5f5f5"/>
            <path id="Trazado_711784" data-name="Trazado 711784" d="M9.576,147.406a.775.775,0,1,1-.774-.774.774.774,0,0,1,.774.774" fill="#fafafa"/>
            <path id="Trazado_711785" data-name="Trazado 711785" d="M9.576,150.718a.775.775,0,1,1-.774-.774.774.774,0,0,1,.774.774" fill="#fafafa"/>
            <rect id="Rectángulo_347017" data-name="Rectángulo 347017" width="2.394" height="7.2" transform="translate(12.671 146.632)" fill="#f5f5f5"/>
            <rect id="Rectángulo_347018" data-name="Rectángulo 347018" width="2.394" height="7.2" transform="translate(16.129 146.632)" fill="#f5f5f5"/>
            <rect id="Rectángulo_347019" data-name="Rectángulo 347019" width="2.394" height="7.2" transform="translate(19.587 146.632)" fill="#f5f5f5"/>
            <rect id="Rectángulo_347020" data-name="Rectángulo 347020" width="2.394" height="7.2" transform="translate(23.044 146.632)" fill="#f5f5f5"/>
            <rect id="Rectángulo_347021" data-name="Rectángulo 347021" width="2.394" height="7.2" transform="translate(26.502 146.632)" fill="#f5f5f5"/>
            <rect id="Rectángulo_347022" data-name="Rectángulo 347022" width="2.394" height="7.2" transform="translate(29.96 146.632)" fill="#f5f5f5"/>
            <rect id="Rectángulo_347023" data-name="Rectángulo 347023" width="2.394" height="7.2" transform="translate(33.418 146.632)" fill="#f5f5f5"/>
            <rect id="Rectángulo_347024" data-name="Rectángulo 347024" width="2.394" height="7.2" transform="translate(36.876 146.632)" fill="#f5f5f5"/>
            <rect id="Rectángulo_347025" data-name="Rectángulo 347025" width="2.394" height="7.2" transform="translate(40.334 146.632)" fill="#f5f5f5"/>
            <rect id="Rectángulo_347026" data-name="Rectángulo 347026" width="2.394" height="7.2" transform="translate(43.792 146.632)" fill="#f5f5f5"/>
            <rect id="Rectángulo_347027" data-name="Rectángulo 347027" width="43.505" height="12.248" transform="translate(3.056 163.512)" fill="#e1e1e1"/>
            <rect id="Rectángulo_347028" data-name="Rectángulo 347028" width="2.436" height="9.374" transform="translate(4.27 165.051)" fill="#f5f5f5"/>
            <path id="Trazado_711786" data-name="Trazado 711786" d="M9.576,167.023a.775.775,0,1,1-.774-.774.774.774,0,0,1,.774.774" fill="#fafafa"/>
            <path id="Trazado_711787" data-name="Trazado 711787" d="M9.576,170.335a.775.775,0,1,1-.774-.773.774.774,0,0,1,.774.773" fill="#fafafa"/>
            <rect id="Rectángulo_347029" data-name="Rectángulo 347029" width="2.394" height="7.2" transform="translate(12.671 166.25)" fill="#f5f5f5"/>
            <rect id="Rectángulo_347030" data-name="Rectángulo 347030" width="2.394" height="7.2" transform="translate(16.129 166.25)" fill="#f5f5f5"/>
            <rect id="Rectángulo_347031" data-name="Rectángulo 347031" width="2.394" height="7.2" transform="translate(19.587 166.25)" fill="#f5f5f5"/>
            <rect id="Rectángulo_347032" data-name="Rectángulo 347032" width="2.394" height="7.2" transform="translate(23.044 166.25)" fill="#f5f5f5"/>
            <rect id="Rectángulo_347033" data-name="Rectángulo 347033" width="2.394" height="7.2" transform="translate(26.502 166.25)" fill="#f5f5f5"/>
            <rect id="Rectángulo_347034" data-name="Rectángulo 347034" width="2.394" height="7.2" transform="translate(29.96 166.25)" fill="#f5f5f5"/>
            <rect id="Rectángulo_347035" data-name="Rectángulo 347035" width="2.394" height="7.2" transform="translate(33.418 166.25)" fill="#f5f5f5"/>
            <rect id="Rectángulo_347036" data-name="Rectángulo 347036" width="2.394" height="7.2" transform="translate(36.876 166.25)" fill="#f5f5f5"/>
            <rect id="Rectángulo_347037" data-name="Rectángulo 347037" width="2.394" height="7.2" transform="translate(40.334 166.25)" fill="#f5f5f5"/>
            <rect id="Rectángulo_347038" data-name="Rectángulo 347038" width="2.394" height="7.2" transform="translate(43.792 166.25)" fill="#f5f5f5"/>
            <rect id="Rectángulo_347039" data-name="Rectángulo 347039" width="43.505" height="12.248" transform="translate(3.056 183.13)" fill="#e1e1e1"/>
            <rect id="Rectángulo_347040" data-name="Rectángulo 347040" width="2.436" height="9.374" transform="translate(4.27 184.669)" fill="#f5f5f5"/>
            <path id="Trazado_711788" data-name="Trazado 711788" d="M9.576,186.641a.775.775,0,1,1-.774-.774.774.774,0,0,1,.774.774" fill="#fafafa"/>
            <path id="Trazado_711789" data-name="Trazado 711789" d="M9.576,189.953a.775.775,0,1,1-.774-.774.774.774,0,0,1,.774.774" fill="#fafafa"/>
            <rect id="Rectángulo_347041" data-name="Rectángulo 347041" width="2.394" height="7.2" transform="translate(12.671 185.867)" fill="#f5f5f5"/>
            <rect id="Rectángulo_347042" data-name="Rectángulo 347042" width="2.394" height="7.2" transform="translate(16.129 185.867)" fill="#f5f5f5"/>
            <rect id="Rectángulo_347043" data-name="Rectángulo 347043" width="2.394" height="7.2" transform="translate(19.587 185.867)" fill="#f5f5f5"/>
            <rect id="Rectángulo_347044" data-name="Rectángulo 347044" width="2.394" height="7.2" transform="translate(23.044 185.867)" fill="#f5f5f5"/>
            <rect id="Rectángulo_347045" data-name="Rectángulo 347045" width="2.394" height="7.2" transform="translate(26.502 185.867)" fill="#f5f5f5"/>
            <rect id="Rectángulo_347046" data-name="Rectángulo 347046" width="2.394" height="7.2" transform="translate(29.96 185.867)" fill="#f5f5f5"/>
            <rect id="Rectángulo_347047" data-name="Rectángulo 347047" width="2.394" height="7.2" transform="translate(33.418 185.867)" fill="#f5f5f5"/>
            <rect id="Rectángulo_347048" data-name="Rectángulo 347048" width="2.394" height="7.2" transform="translate(36.876 185.867)" fill="#f5f5f5"/>
            <rect id="Rectángulo_347049" data-name="Rectángulo 347049" width="2.394" height="7.2" transform="translate(40.334 185.867)" fill="#f5f5f5"/>
            <rect id="Rectángulo_347050" data-name="Rectángulo 347050" width="2.394" height="7.2" transform="translate(43.792 185.867)" fill="#f5f5f5"/>
            <rect id="Rectángulo_347051" data-name="Rectángulo 347051" width="43.505" height="12.248" transform="translate(3.056 202.747)" fill="#e1e1e1"/>
            <rect id="Rectángulo_347052" data-name="Rectángulo 347052" width="2.436" height="9.374" transform="translate(4.27 204.287)" fill="#f5f5f5"/>
            <path id="Trazado_711790" data-name="Trazado 711790" d="M9.576,206.259a.775.775,0,1,1-.774-.774.774.774,0,0,1,.774.774" fill="#fafafa"/>
            <path id="Trazado_711791" data-name="Trazado 711791" d="M9.576,209.571A.775.775,0,1,1,8.8,208.8a.774.774,0,0,1,.774.774" fill="#fafafa"/>
            <rect id="Rectángulo_347053" data-name="Rectángulo 347053" width="2.394" height="7.2" transform="translate(12.671 205.485)" fill="#f5f5f5"/>
            <rect id="Rectángulo_347054" data-name="Rectángulo 347054" width="2.394" height="7.2" transform="translate(16.129 205.485)" fill="#f5f5f5"/>
            <rect id="Rectángulo_347055" data-name="Rectángulo 347055" width="2.394" height="7.2" transform="translate(19.587 205.485)" fill="#f5f5f5"/>
            <rect id="Rectángulo_347056" data-name="Rectángulo 347056" width="2.394" height="7.2" transform="translate(23.044 205.485)" fill="#f5f5f5"/>
            <rect id="Rectángulo_347057" data-name="Rectángulo 347057" width="2.394" height="7.2" transform="translate(26.502 205.485)" fill="#f5f5f5"/>
            <rect id="Rectángulo_347058" data-name="Rectángulo 347058" width="2.394" height="7.2" transform="translate(29.96 205.485)" fill="#f5f5f5"/>
            <rect id="Rectángulo_347059" data-name="Rectángulo 347059" width="2.394" height="7.2" transform="translate(33.418 205.485)" fill="#f5f5f5"/>
            <rect id="Rectángulo_347060" data-name="Rectángulo 347060" width="2.394" height="7.2" transform="translate(36.876 205.485)" fill="#f5f5f5"/>
            <rect id="Rectángulo_347061" data-name="Rectángulo 347061" width="2.394" height="7.2" transform="translate(40.334 205.485)" fill="#f5f5f5"/>
            <rect id="Rectángulo_347062" data-name="Rectángulo 347062" width="2.394" height="7.2" transform="translate(43.792 205.485)" fill="#f5f5f5"/>
            <path id="Trazado_711792" data-name="Trazado 711792" d="M29.96,85.041a1.636,1.636,0,0,1-.048-.378c-.018-.249-.034-.616-.046-1.088s-.023-1.05-.056-1.718a10.875,10.875,0,0,0-.3-2.232,7.983,7.983,0,0,0-1.161-2.444A5.408,5.408,0,0,0,25.97,75.27a11.492,11.492,0,0,0-3.377-.685l-3.746-.324c-5.135-.446-9.791-.733-13.166-.8-1.687-.038-3.053-.029-4-.026L.6,73.447a1.714,1.714,0,0,1-.381-.018,1.813,1.813,0,0,1,.378-.045l1.087-.069c.944-.04,2.312-.083,4-.074,3.383.008,8.051.26,13.189.706l3.749.33a11.659,11.659,0,0,1,3.46.725,5.657,5.657,0,0,1,2.48,2.027,8.117,8.117,0,0,1,1.164,2.538,10.656,10.656,0,0,1,.26,2.283c.016.673.008,1.252,0,1.724-.005.445-.009.805-.012,1.087a1.906,1.906,0,0,1-.016.38" fill="#e1e1e1"/>
            <path id="Trazado_711793" data-name="Trazado 711793" d="M16.763,85.041a1.517,1.517,0,0,1-.03-.357c0-.269-.008-.608-.014-1.024,0-.444,0-.987-.054-1.612a4.97,4.97,0,0,0-.536-2.012,3.852,3.852,0,0,0-1.96-1.505,5.4,5.4,0,0,0-2.858-.289,4.84,4.84,0,0,0-1.473.5,2.808,2.808,0,0,0-1.143,1.081A1.535,1.535,0,0,0,8.7,81.343a2.035,2.035,0,0,0,1.292.971,1.638,1.638,0,0,0,1.51-.436,2.246,2.246,0,0,0,.68-1.442,2.187,2.187,0,0,0-.453-1.475,3.222,3.222,0,0,0-1.144-1.011,4.263,4.263,0,0,0-1.433-.37c-.49-.073-.968-.138-1.43-.19-.925-.1-1.791-.164-2.583-.2-1.583-.064-2.869-.041-3.758-.043l-1.024,0A1.55,1.55,0,0,1,0,77.123a1.5,1.5,0,0,1,.356-.041l1.022-.054c.888-.036,2.175-.093,3.769-.058.8.019,1.669.067,2.6.161.466.046.948.106,1.442.175.249.039.494.07.756.118a2.939,2.939,0,0,1,.769.267,3.5,3.5,0,0,1,1.258,1.1,2.486,2.486,0,0,1,.514,1.672,2.536,2.536,0,0,1-.772,1.645,1.956,1.956,0,0,1-1.8.517,2.339,2.339,0,0,1-1.5-1.127,1.848,1.848,0,0,1,0-1.816,3.1,3.1,0,0,1,1.27-1.2,5.115,5.115,0,0,1,1.57-.523,5.62,5.62,0,0,1,3,.332,4.059,4.059,0,0,1,2.058,1.638,5.072,5.072,0,0,1,.518,2.11c.033.636.015,1.181,0,1.626-.018.416-.032.754-.044,1.022a1.549,1.549,0,0,1-.034.357" fill="#e1e1e1"/>
            <path id="Trazado_711794" data-name="Trazado 711794" d="M33.512,85.041a1.921,1.921,0,0,1-.093-.4c-.048-.266-.124-.659-.231-1.162A22.989,22.989,0,0,0,31.9,79.328a12.1,12.1,0,0,0-3.784-5.073,7.13,7.13,0,0,0-3.463-1.317,36.2,36.2,0,0,0-4.077-.219c-5.622-.106-10.718-.086-14.4-.233-1.843-.065-3.333-.153-4.362-.228l-1.183-.1A1.974,1.974,0,0,1,.217,72.1a2.1,2.1,0,0,1,.415-.006l1.186.043c1.03.037,2.52.092,4.362.129,3.683.089,8.775.034,14.4.14a35.447,35.447,0,0,1,4.116.228,7.383,7.383,0,0,1,3.593,1.391,11.023,11.023,0,0,1,2.4,2.537,14.554,14.554,0,0,1,1.417,2.682,20.814,20.814,0,0,1,1.2,4.208c.091.509.147.906.175,1.177a2.14,2.14,0,0,1,.03.414" fill="#e1e1e1"/>
            <rect id="Rectángulo_347063" data-name="Rectángulo 347063" width="42.308" height="6.141" transform="translate(3.654 61.852)" fill="#e1e1e1"/>
            <rect id="Rectángulo_347064" data-name="Rectángulo 347064" width="23.034" height="3.071" transform="translate(12.959 64.922)" fill="#f5f5f5"/>
            <rect id="Rectángulo_347065" data-name="Rectángulo 347065" width="63.613" height="194.865" transform="translate(62.343 21.817)" fill="#f5f5f5"/>
            <rect id="Rectángulo_347066" data-name="Rectángulo 347066" width="50.275" height="194.865" transform="translate(125.759 21.817)" fill="#fafafa"/>
            <rect id="Rectángulo_347067" data-name="Rectángulo 347067" width="53.962" height="15.192" transform="translate(65.758 53.004)" fill="#e1e1e1"/>
            <rect id="Rectángulo_347068" data-name="Rectángulo 347068" width="3.022" height="11.627" transform="translate(67.264 54.914)" fill="#f5f5f5"/>
            <path id="Trazado_711795" data-name="Trazado 711795" d="M73.846,57.359a.96.96,0,1,1-.96-.96.96.96,0,0,1,.96.96" fill="#fafafa"/>
            <path id="Trazado_711796" data-name="Trazado 711796" d="M73.846,61.468a.96.96,0,1,1-.96-.96.96.96,0,0,1,.96.96" fill="#fafafa"/>
            <rect id="Rectángulo_347069" data-name="Rectángulo 347069" width="2.969" height="8.931" transform="translate(77.685 56.399)" fill="#f5f5f5"/>
            <rect id="Rectángulo_347070" data-name="Rectángulo 347070" width="2.969" height="8.931" transform="translate(81.974 56.399)" fill="#f5f5f5"/>
            <rect id="Rectángulo_347071" data-name="Rectángulo 347071" width="2.969" height="8.931" transform="translate(86.263 56.399)" fill="#f5f5f5"/>
            <rect id="Rectángulo_347072" data-name="Rectángulo 347072" width="2.969" height="8.931" transform="translate(90.552 56.399)" fill="#f5f5f5"/>
            <rect id="Rectángulo_347073" data-name="Rectángulo 347073" width="2.969" height="8.931" transform="translate(94.841 56.399)" fill="#f5f5f5"/>
            <rect id="Rectángulo_347074" data-name="Rectángulo 347074" width="2.969" height="8.931" transform="translate(99.13 56.399)" fill="#f5f5f5"/>
            <rect id="Rectángulo_347075" data-name="Rectángulo 347075" width="2.969" height="8.931" transform="translate(103.419 56.399)" fill="#f5f5f5"/>
            <rect id="Rectángulo_347076" data-name="Rectángulo 347076" width="2.969" height="8.931" transform="translate(107.708 56.399)" fill="#f5f5f5"/>
            <rect id="Rectángulo_347077" data-name="Rectángulo 347077" width="2.969" height="8.931" transform="translate(111.997 56.399)" fill="#f5f5f5"/>
            <rect id="Rectángulo_347078" data-name="Rectángulo 347078" width="2.969" height="8.931" transform="translate(116.286 56.399)" fill="#f5f5f5"/>
            <rect id="Rectángulo_347079" data-name="Rectángulo 347079" width="53.962" height="15.192" transform="translate(65.758 77.337)" fill="#e1e1e1"/>
            <rect id="Rectángulo_347080" data-name="Rectángulo 347080" width="3.022" height="11.627" transform="translate(67.264 79.247)" fill="#f5f5f5"/>
            <path id="Trazado_711797" data-name="Trazado 711797" d="M73.846,81.693a.96.96,0,1,1-.96-.96.96.96,0,0,1,.96.96" fill="#fafafa"/>
            <path id="Trazado_711798" data-name="Trazado 711798" d="M73.846,85.8a.96.96,0,1,1-.96-.96.96.96,0,0,1,.96.96" fill="#fafafa"/>
            <rect id="Rectángulo_347081" data-name="Rectángulo 347081" width="2.969" height="8.931" transform="translate(77.685 80.732)" fill="#f5f5f5"/>
            <rect id="Rectángulo_347082" data-name="Rectángulo 347082" width="2.969" height="8.931" transform="translate(81.974 80.732)" fill="#f5f5f5"/>
            <rect id="Rectángulo_347083" data-name="Rectángulo 347083" width="2.969" height="8.931" transform="translate(86.263 80.732)" fill="#f5f5f5"/>
            <rect id="Rectángulo_347084" data-name="Rectángulo 347084" width="2.969" height="8.931" transform="translate(90.552 80.732)" fill="#f5f5f5"/>
            <rect id="Rectángulo_347085" data-name="Rectángulo 347085" width="2.969" height="8.931" transform="translate(94.841 80.732)" fill="#f5f5f5"/>
            <rect id="Rectángulo_347086" data-name="Rectángulo 347086" width="2.969" height="8.931" transform="translate(99.13 80.732)" fill="#f5f5f5"/>
            <rect id="Rectángulo_347087" data-name="Rectángulo 347087" width="2.969" height="8.931" transform="translate(103.419 80.732)" fill="#f5f5f5"/>
            <rect id="Rectángulo_347088" data-name="Rectángulo 347088" width="2.969" height="8.931" transform="translate(107.708 80.732)" fill="#f5f5f5"/>
            <rect id="Rectángulo_347089" data-name="Rectángulo 347089" width="2.969" height="8.931" transform="translate(111.997 80.732)" fill="#f5f5f5"/>
            <rect id="Rectángulo_347090" data-name="Rectángulo 347090" width="2.969" height="8.931" transform="translate(116.286 80.732)" fill="#f5f5f5"/>
            <rect id="Rectángulo_347091" data-name="Rectángulo 347091" width="53.962" height="15.192" transform="translate(65.758 101.67)" fill="#e1e1e1"/>
            <rect id="Rectángulo_347092" data-name="Rectángulo 347092" width="3.022" height="11.627" transform="translate(67.264 103.58)" fill="#f5f5f5"/>
            <path id="Trazado_711799" data-name="Trazado 711799" d="M73.846,106.026a.96.96,0,1,1-.96-.96.96.96,0,0,1,.96.96" fill="#fafafa"/>
            <path id="Trazado_711800" data-name="Trazado 711800" d="M73.846,110.134a.96.96,0,1,1-.96-.96.96.96,0,0,1,.96.96" fill="#fafafa"/>
            <rect id="Rectángulo_347093" data-name="Rectángulo 347093" width="2.969" height="8.931" transform="translate(77.685 105.066)" fill="#f5f5f5"/>
            <rect id="Rectángulo_347094" data-name="Rectángulo 347094" width="2.969" height="8.931" transform="translate(81.974 105.066)" fill="#f5f5f5"/>
            <rect id="Rectángulo_347095" data-name="Rectángulo 347095" width="2.969" height="8.931" transform="translate(86.263 105.066)" fill="#f5f5f5"/>
            <rect id="Rectángulo_347096" data-name="Rectángulo 347096" width="2.969" height="8.931" transform="translate(90.552 105.066)" fill="#f5f5f5"/>
            <rect id="Rectángulo_347097" data-name="Rectángulo 347097" width="2.969" height="8.931" transform="translate(94.841 105.066)" fill="#f5f5f5"/>
            <rect id="Rectángulo_347098" data-name="Rectángulo 347098" width="2.969" height="8.931" transform="translate(99.13 105.066)" fill="#f5f5f5"/>
            <rect id="Rectángulo_347099" data-name="Rectángulo 347099" width="2.969" height="8.931" transform="translate(103.419 105.066)" fill="#f5f5f5"/>
            <rect id="Rectángulo_347100" data-name="Rectángulo 347100" width="2.969" height="8.931" transform="translate(107.708 105.066)" fill="#f5f5f5"/>
            <rect id="Rectángulo_347101" data-name="Rectángulo 347101" width="2.969" height="8.931" transform="translate(111.997 105.066)" fill="#f5f5f5"/>
            <rect id="Rectángulo_347102" data-name="Rectángulo 347102" width="2.969" height="8.931" transform="translate(116.286 105.066)" fill="#f5f5f5"/>
            <rect id="Rectángulo_347103" data-name="Rectángulo 347103" width="53.962" height="15.192" transform="translate(65.758 126.004)" fill="#e1e1e1"/>
            <rect id="Rectángulo_347104" data-name="Rectángulo 347104" width="3.022" height="11.627" transform="translate(67.264 127.913)" fill="#f5f5f5"/>
            <path id="Trazado_711801" data-name="Trazado 711801" d="M73.846,130.359a.96.96,0,1,1-.96-.96.96.96,0,0,1,.96.96" fill="#fafafa"/>
            <path id="Trazado_711802" data-name="Trazado 711802" d="M73.846,134.467a.96.96,0,1,1-.96-.96.96.96,0,0,1,.96.96" fill="#fafafa"/>
            <rect id="Rectángulo_347105" data-name="Rectángulo 347105" width="2.969" height="8.931" transform="translate(77.685 129.399)" fill="#f5f5f5"/>
            <rect id="Rectángulo_347106" data-name="Rectángulo 347106" width="2.969" height="8.931" transform="translate(81.974 129.399)" fill="#f5f5f5"/>
            <rect id="Rectángulo_347107" data-name="Rectángulo 347107" width="2.969" height="8.931" transform="translate(86.263 129.399)" fill="#f5f5f5"/>
            <rect id="Rectángulo_347108" data-name="Rectángulo 347108" width="2.969" height="8.931" transform="translate(90.552 129.399)" fill="#f5f5f5"/>
            <rect id="Rectángulo_347109" data-name="Rectángulo 347109" width="2.969" height="8.931" transform="translate(94.841 129.399)" fill="#f5f5f5"/>
            <rect id="Rectángulo_347110" data-name="Rectángulo 347110" width="2.969" height="8.931" transform="translate(99.13 129.399)" fill="#f5f5f5"/>
            <rect id="Rectángulo_347111" data-name="Rectángulo 347111" width="2.969" height="8.931" transform="translate(103.419 129.399)" fill="#f5f5f5"/>
            <rect id="Rectángulo_347112" data-name="Rectángulo 347112" width="2.969" height="8.931" transform="translate(107.708 129.399)" fill="#f5f5f5"/>
            <rect id="Rectángulo_347113" data-name="Rectángulo 347113" width="2.969" height="8.931" transform="translate(111.997 129.399)" fill="#f5f5f5"/>
            <rect id="Rectángulo_347114" data-name="Rectángulo 347114" width="2.969" height="8.931" transform="translate(116.286 129.399)" fill="#f5f5f5"/>
            <rect id="Rectángulo_347115" data-name="Rectángulo 347115" width="53.962" height="15.192" transform="translate(65.758 150.337)" fill="#e1e1e1"/>
            <rect id="Rectángulo_347116" data-name="Rectángulo 347116" width="3.022" height="11.627" transform="translate(67.264 152.247)" fill="#f5f5f5"/>
            <path id="Trazado_711803" data-name="Trazado 711803" d="M73.846,154.692a.96.96,0,1,1-.96-.96.96.96,0,0,1,.96.96" fill="#fafafa"/>
            <path id="Trazado_711804" data-name="Trazado 711804" d="M73.846,158.8a.96.96,0,1,1-.96-.96.96.96,0,0,1,.96.96" fill="#fafafa"/>
            <rect id="Rectángulo_347117" data-name="Rectángulo 347117" width="2.969" height="8.931" transform="translate(77.685 153.732)" fill="#f5f5f5"/>
            <rect id="Rectángulo_347118" data-name="Rectángulo 347118" width="2.969" height="8.931" transform="translate(81.974 153.732)" fill="#f5f5f5"/>
            <rect id="Rectángulo_347119" data-name="Rectángulo 347119" width="2.969" height="8.931" transform="translate(86.263 153.732)" fill="#f5f5f5"/>
            <rect id="Rectángulo_347120" data-name="Rectángulo 347120" width="2.969" height="8.931" transform="translate(90.552 153.732)" fill="#f5f5f5"/>
            <rect id="Rectángulo_347121" data-name="Rectángulo 347121" width="2.969" height="8.931" transform="translate(94.841 153.732)" fill="#f5f5f5"/>
            <rect id="Rectángulo_347122" data-name="Rectángulo 347122" width="2.969" height="8.931" transform="translate(99.13 153.732)" fill="#f5f5f5"/>
            <rect id="Rectángulo_347123" data-name="Rectángulo 347123" width="2.969" height="8.931" transform="translate(103.419 153.732)" fill="#f5f5f5"/>
            <rect id="Rectángulo_347124" data-name="Rectángulo 347124" width="2.969" height="8.931" transform="translate(107.708 153.732)" fill="#f5f5f5"/>
            <rect id="Rectángulo_347125" data-name="Rectángulo 347125" width="2.969" height="8.931" transform="translate(111.997 153.732)" fill="#f5f5f5"/>
            <rect id="Rectángulo_347126" data-name="Rectángulo 347126" width="2.969" height="8.931" transform="translate(116.286 153.732)" fill="#f5f5f5"/>
            <rect id="Rectángulo_347127" data-name="Rectángulo 347127" width="53.962" height="15.192" transform="translate(65.758 174.67)" fill="#e1e1e1"/>
            <rect id="Rectángulo_347128" data-name="Rectángulo 347128" width="3.022" height="11.627" transform="translate(67.264 176.58)" fill="#f5f5f5"/>
            <path id="Trazado_711805" data-name="Trazado 711805" d="M73.846,179.026a.96.96,0,1,1-.96-.96.96.96,0,0,1,.96.96" fill="#fafafa"/>
            <path id="Trazado_711806" data-name="Trazado 711806" d="M73.846,183.134a.96.96,0,1,1-.96-.96.96.96,0,0,1,.96.96" fill="#fafafa"/>
            <rect id="Rectángulo_347129" data-name="Rectángulo 347129" width="2.969" height="8.931" transform="translate(77.685 178.066)" fill="#f5f5f5"/>
            <rect id="Rectángulo_347130" data-name="Rectángulo 347130" width="2.969" height="8.931" transform="translate(81.974 178.066)" fill="#f5f5f5"/>
            <rect id="Rectángulo_347131" data-name="Rectángulo 347131" width="2.969" height="8.931" transform="translate(86.263 178.066)" fill="#f5f5f5"/>
            <rect id="Rectángulo_347132" data-name="Rectángulo 347132" width="2.969" height="8.931" transform="translate(90.552 178.066)" fill="#f5f5f5"/>
            <rect id="Rectángulo_347133" data-name="Rectángulo 347133" width="2.969" height="8.931" transform="translate(94.841 178.066)" fill="#f5f5f5"/>
            <rect id="Rectángulo_347134" data-name="Rectángulo 347134" width="2.969" height="8.931" transform="translate(99.13 178.066)" fill="#f5f5f5"/>
            <rect id="Rectángulo_347135" data-name="Rectángulo 347135" width="2.969" height="8.931" transform="translate(103.419 178.066)" fill="#f5f5f5"/>
            <rect id="Rectángulo_347136" data-name="Rectángulo 347136" width="2.969" height="8.931" transform="translate(107.708 178.066)" fill="#f5f5f5"/>
            <rect id="Rectángulo_347137" data-name="Rectángulo 347137" width="2.969" height="8.931" transform="translate(111.997 178.066)" fill="#f5f5f5"/>
            <rect id="Rectángulo_347138" data-name="Rectángulo 347138" width="2.969" height="8.931" transform="translate(116.286 178.066)" fill="#f5f5f5"/>
            <rect id="Rectángulo_347139" data-name="Rectángulo 347139" width="53.962" height="15.192" transform="translate(65.758 199.003)" fill="#e1e1e1"/>
            <rect id="Rectángulo_347140" data-name="Rectángulo 347140" width="3.022" height="11.627" transform="translate(67.264 200.913)" fill="#f5f5f5"/>
            <path id="Trazado_711807" data-name="Trazado 711807" d="M73.846,203.359a.96.96,0,1,1-.96-.96.96.96,0,0,1,.96.96" fill="#fafafa"/>
            <path id="Trazado_711808" data-name="Trazado 711808" d="M73.846,207.467a.96.96,0,1,1-.96-.96.96.96,0,0,1,.96.96" fill="#fafafa"/>
            <rect id="Rectángulo_347141" data-name="Rectángulo 347141" width="2.969" height="8.931" transform="translate(77.685 202.399)" fill="#f5f5f5"/>
            <rect id="Rectángulo_347142" data-name="Rectángulo 347142" width="2.969" height="8.931" transform="translate(81.974 202.399)" fill="#f5f5f5"/>
            <rect id="Rectángulo_347143" data-name="Rectángulo 347143" width="2.969" height="8.931" transform="translate(86.263 202.399)" fill="#f5f5f5"/>
            <rect id="Rectángulo_347144" data-name="Rectángulo 347144" width="2.969" height="8.931" transform="translate(90.552 202.399)" fill="#f5f5f5"/>
            <rect id="Rectángulo_347145" data-name="Rectángulo 347145" width="2.969" height="8.931" transform="translate(94.841 202.399)" fill="#f5f5f5"/>
            <rect id="Rectángulo_347146" data-name="Rectángulo 347146" width="2.969" height="8.931" transform="translate(99.13 202.399)" fill="#f5f5f5"/>
            <rect id="Rectángulo_347147" data-name="Rectángulo 347147" width="2.969" height="8.931" transform="translate(103.419 202.399)" fill="#f5f5f5"/>
            <rect id="Rectángulo_347148" data-name="Rectángulo 347148" width="2.969" height="8.931" transform="translate(107.708 202.399)" fill="#f5f5f5"/>
            <rect id="Rectángulo_347149" data-name="Rectángulo 347149" width="2.969" height="8.931" transform="translate(111.997 202.399)" fill="#f5f5f5"/>
            <rect id="Rectángulo_347150" data-name="Rectángulo 347150" width="2.969" height="8.931" transform="translate(116.286 202.399)" fill="#f5f5f5"/>
            <path id="Trazado_711809" data-name="Trazado 711809" d="M99.129,53a2.046,2.046,0,0,1-.059-.469c-.023-.308-.042-.764-.058-1.35s-.028-1.3-.069-2.131a13.493,13.493,0,0,0-.372-2.768,9.893,9.893,0,0,0-1.441-3.032,6.7,6.7,0,0,0-2.95-2.37,14.313,14.313,0,0,0-4.188-.85l-4.647-.4c-6.37-.552-12.145-.908-16.331-.988-2.093-.047-3.787-.036-4.958-.032l-1.348.011a2.077,2.077,0,0,1-.472-.022,2.189,2.189,0,0,1,.468-.056l1.348-.085c1.171-.05,2.868-.1,4.966-.092,4.195.009,9.986.322,16.36.875l4.649.41a14.478,14.478,0,0,1,4.292.9,7.014,7.014,0,0,1,3.076,2.516,10.03,10.03,0,0,1,1.443,3.147,13.267,13.267,0,0,1,.324,2.832c.02.835.009,1.552,0,2.138-.006.552-.011,1-.015,1.349a2.266,2.266,0,0,1-.02.471" fill="#e1e1e1"/>
            <path id="Trazado_711810" data-name="Trazado 711810" d="M82.76,53a1.851,1.851,0,0,1-.037-.443c0-.333-.011-.753-.018-1.27-.005-.551-.006-1.225-.067-2a6.155,6.155,0,0,0-.664-2.5,4.786,4.786,0,0,0-2.432-1.867A6.694,6.694,0,0,0,76,44.571a6,6,0,0,0-1.828.621,3.481,3.481,0,0,0-1.417,1.341,1.9,1.9,0,0,0,.006,1.884,2.523,2.523,0,0,0,1.6,1.205,2.034,2.034,0,0,0,1.873-.542,2.77,2.77,0,0,0,.843-1.787,2.713,2.713,0,0,0-.561-1.83A4,4,0,0,0,75.1,44.208a5.272,5.272,0,0,0-1.777-.458c-.609-.091-1.2-.171-1.774-.236-1.148-.129-2.222-.2-3.2-.245-1.964-.079-3.559-.05-4.661-.052l-1.27-.006a1.867,1.867,0,0,1-.443-.029,1.94,1.94,0,0,1,.441-.05l1.268-.067c1.1-.045,2.7-.116,4.675-.072.988.023,2.07.083,3.228.2.579.058,1.176.132,1.79.218.308.048.612.086.936.146a3.6,3.6,0,0,1,.955.332,4.352,4.352,0,0,1,1.561,1.36,3.094,3.094,0,0,1,.637,2.074,3.158,3.158,0,0,1-.957,2.041,2.427,2.427,0,0,1-2.227.64,2.907,2.907,0,0,1-1.857-1.4,2.3,2.3,0,0,1,0-2.253,3.842,3.842,0,0,1,1.576-1.488,6.312,6.312,0,0,1,1.947-.649,6.977,6.977,0,0,1,3.724.412,5.024,5.024,0,0,1,2.552,2.032,6.258,6.258,0,0,1,.642,2.616c.041.789.019,1.466,0,2.017-.022.516-.04.936-.055,1.269A1.9,1.9,0,0,1,82.76,53" fill="#e1e1e1"/>
            <path id="Trazado_711811" data-name="Trazado 711811" d="M103.534,53a2.6,2.6,0,0,1-.114-.5c-.06-.331-.153-.818-.288-1.442a28.248,28.248,0,0,0-1.6-5.142,15,15,0,0,0-4.694-6.293,8.854,8.854,0,0,0-4.3-1.634,44.8,44.8,0,0,0-5.057-.271c-6.973-.131-13.294-.106-17.867-.288-2.286-.082-4.135-.191-5.411-.284l-1.467-.126a2.487,2.487,0,0,1-.51-.072,2.64,2.64,0,0,1,.515-.007L64.222,37c1.277.046,3.125.114,5.41.159,4.569.112,10.884.043,17.867.175a43.861,43.861,0,0,1,5.1.282,9.164,9.164,0,0,1,4.457,1.726,13.632,13.632,0,0,1,2.972,3.146,18.27,18.27,0,0,1,1.76,3.327,25.935,25.935,0,0,1,1.489,5.22c.112.631.182,1.124.217,1.459a2.541,2.541,0,0,1,.036.514" fill="#e1e1e1"/>
            <rect id="Rectángulo_347151" data-name="Rectángulo 347151" width="52.477" height="7.618" transform="translate(66.501 24.24)" fill="#e1e1e1"/>
            <rect id="Rectángulo_347152" data-name="Rectángulo 347152" width="28.571" height="3.809" transform="translate(78.041 28.049)" fill="#f5f5f5"/>
            <path id="Trazado_711812" data-name="Trazado 711812" d="M318.558,186.935a18.912,18.912,0,1,1,19.213,18.692,18.98,18.98,0,0,1-19.213-18.692m27.951-.451a9.043,9.043,0,1,0-8.9,9.229,9.072,9.072,0,0,0,8.9-9.229" fill="#f5f5f5"/>
            <path id="Trazado_711813" data-name="Trazado 711813" d="M318.558,186.935a18.981,18.981,0,0,1,18.606-19.3l.159,9.913a9.085,9.085,0,0,0,.29,18.167l.159,9.914a18.974,18.974,0,0,1-19.214-18.692" fill="#e1e1e1"/>
            <path id="Trazado_711814" data-name="Trazado 711814" d="M335.466,166.108a21.608,21.608,0,0,1,22.126,21.525l-11.545.186c-.094-5.859-4.553-9.548-10.385-9.454Z" fill="#ececec"/>
            <rect id="Rectángulo_347153" data-name="Rectángulo 347153" width="78.691" height="89.808" transform="translate(302.442 0.147)" fill="#fff"/>
            <path id="Trazado_711815" data-name="Trazado 711815" d="M381.133,89.955s-.005-.146-.007-.427-.005-.7-.008-1.248c0-1.1-.008-2.729-.015-4.847-.008-4.24-.019-10.445-.034-18.324-.016-15.746-.038-38.182-.065-64.962l.129.129L302.45.293h-.008l.146-.146c-.008,33.111-.016,63.987-.023,89.808l-.123-.124,57.076.064,15.958.032,4.206.014c.953,0,1.451.014,1.451.014s-.48.009-1.424.014l-4.183.014-15.93.032-57.154.064h-.124v-.124c-.007-25.821-.014-56.7-.023-89.808V0h.155l78.683.017h.13v.13c-.027,26.814-.049,49.279-.065,65.045-.015,7.867-.026,14.062-.034,18.295-.007,2.107-.012,3.725-.015,4.822q0,.812-.008,1.234c0,.276-.007.412-.007.412" fill="#1a2e35"/>
            <path id="Trazado_711816" data-name="Trazado 711816" d="M374.369,46c-.026.054-.871-.437-2.53-.962a16.271,16.271,0,0,0-7.257-.538,15.856,15.856,0,0,0-4.786,1.538,22.522,22.522,0,0,0-4.706,3.385c-1.544,1.361-3.075,2.908-4.842,4.337a16.717,16.717,0,0,1-6.18,3.345,9.335,9.335,0,0,1-3.609.217,11.7,11.7,0,0,1-3.343-1.032,58.3,58.3,0,0,1-5.6-3.331,17.481,17.481,0,0,0-5.268-2.361,15.625,15.625,0,0,0-5.01-.384,16.134,16.134,0,0,0-6.917,2.252c-1.484.907-2.184,1.589-2.224,1.541a3.436,3.436,0,0,1,.5-.494,12.05,12.05,0,0,1,1.611-1.225,15.783,15.783,0,0,1,12.143-2.124,17.753,17.753,0,0,1,5.422,2.372,59.824,59.824,0,0,0,5.563,3.275,9.533,9.533,0,0,0,6.6.773,16.323,16.323,0,0,0,5.982-3.235c1.739-1.4,3.278-2.934,4.844-4.3a22.63,22.63,0,0,1,4.833-3.411,16.029,16.029,0,0,1,12.309-.8,12.759,12.759,0,0,1,1.859.8,3.449,3.449,0,0,1,.606.36" fill="#81d4fa"/>
            <rect id="Rectángulo_347154" data-name="Rectángulo 347154" width="6.69" height="18.093" transform="translate(324.101 58.066)" fill="#81d4fa"/>
            <rect id="Rectángulo_347155" data-name="Rectángulo 347155" width="6.69" height="18.093" transform="translate(352.489 58.066)" fill="#81d4fa"/>
            <rect id="Rectángulo_347156" data-name="Rectángulo 347156" width="6.69" height="28.719" transform="translate(361.952 47.44)" fill="#81d4fa"/>
            <rect id="Rectángulo_347157" data-name="Rectángulo 347157" width="6.69" height="6.089" transform="translate(315.444 70.464)" fill="#81d4fa"/>
            <rect id="Rectángulo_347158" data-name="Rectángulo 347158" width="6.69" height="9.923" transform="translate(333.564 66.236)" fill="#81d4fa"/>
            <rect id="Rectángulo_347159" data-name="Rectángulo 347159" width="6.69" height="12.201" transform="translate(343.027 63.958)" fill="#81d4fa"/>
            <path id="Trazado_711817" data-name="Trazado 711817" d="M331.061,78.292a24.418,24.418,0,0,1-7.229,0,24.418,24.418,0,0,1,7.229,0" fill="#1a2e35"/>
            <path id="Trazado_711818" data-name="Trazado 711818" d="M322.736,78.292a24.418,24.418,0,0,1-7.229,0,24.418,24.418,0,0,1,7.229,0" fill="#1a2e35"/>
            <path id="Trazado_711819" data-name="Trazado 711819" d="M369.961,78.292a31.167,31.167,0,0,1-8.172,0,31.167,31.167,0,0,1,8.172,0" fill="#1a2e35"/>
            <path id="Trazado_711820" data-name="Trazado 711820" d="M360.022,78.292a31.167,31.167,0,0,1-8.172,0,31.167,31.167,0,0,1,8.172,0" fill="#1a2e35"/>
            <path id="Trazado_711821" data-name="Trazado 711821" d="M349.717,78.292a24.418,24.418,0,0,1-7.229,0,24.418,24.418,0,0,1,7.229,0" fill="#1a2e35"/>
            <path id="Trazado_711822" data-name="Trazado 711822" d="M339.94,78.292a24.418,24.418,0,0,1-7.229,0,24.418,24.418,0,0,1,7.229,0" fill="#1a2e35"/>
            <rect id="Rectángulo_347160" data-name="Rectángulo 347160" width="54.674" height="22.706" transform="translate(315.287 13.239)" fill="#e1e1e1"/>
            <path id="Trazado_711823" data-name="Trazado 711823" d="M326.645,20.415a2.549,2.549,0,1,1-2.549-2.549,2.549,2.549,0,0,1,2.549,2.549" fill="#1a2e35"/>
            <rect id="Rectángulo_347161" data-name="Rectángulo 347161" width="17.76" height="0.986" transform="translate(329.194 18.655)" fill="#1a2e35"/>
            <rect id="Rectángulo_347162" data-name="Rectángulo 347162" width="34.548" height="0.986" transform="translate(329.194 20.896)" fill="#fff"/>
            <path id="Trazado_711824" data-name="Trazado 711824" d="M326.645,28.251A2.549,2.549,0,1,1,324.1,25.7a2.549,2.549,0,0,1,2.549,2.549" fill="#81d4fa"/>
            <rect id="Rectángulo_347163" data-name="Rectángulo 347163" width="9.069" height="0.986" transform="translate(329.194 26.491)" fill="#81d4fa"/>
            <rect id="Rectángulo_347164" data-name="Rectángulo 347164" width="34.548" height="0.986" transform="translate(329.194 28.732)" fill="#fff"/>
            <rect id="Rectángulo_347165" data-name="Rectángulo 347165" width="66.133" height="47.23" transform="matrix(0.009, -1, 1, 0.009, 344.516, 178.879)" fill="#fff"/>
            <path id="Trazado_711825" data-name="Trazado 711825" d="M344.516,178.879s0-.1-.005-.3,0-.518,0-.918c0-.819.009-2.021.015-3.583.018-3.15.045-7.743.079-13.555.084-11.664.2-28.21.343-47.771v-.138h.137l47.223.392h.157v.152c-.224,24.761-.43,47.665-.6,66.131v.123l-.123,0-34.408-.359-9.5-.113-2.481-.035c-.559-.01-.84-.021-.84-.021s.3-.006.866-.006l2.505.008,9.526.05,34.332.231-.123.122c.15-18.466.337-41.37.539-66.132l.15.153h-.005l-47.223-.42.139-.136c-.2,19.524-.362,36.039-.478,47.68-.066,5.825-.118,10.429-.154,13.585-.02,1.574-.036,2.785-.047,3.611-.007.407-.012.717-.016.933s-.011.321-.011.321" fill="#1a2e35"/>
            <path id="Trazado_711826" data-name="Trazado 711826" d="M351.11,128.859c0-.152,7.822-.208,17.466-.125s17.465.273,17.464.425-7.821.208-17.468.125-17.463-.273-17.462-.425" fill="#1a2e35"/>
            <path id="Trazado_711827" data-name="Trazado 711827" d="M351.07,133.529c0-.152,7.822-.208,17.466-.126s17.465.274,17.464.426-7.821.208-17.468.125-17.463-.273-17.462-.425" fill="#1a2e35"/>
            <path id="Trazado_711828" data-name="Trazado 711828" d="M351.03,138.2c0-.152,7.822-.208,17.466-.125s17.465.273,17.464.425-7.821.208-17.468.125-17.463-.273-17.462-.425" fill="#1a2e35"/>
            <path id="Trazado_711829" data-name="Trazado 711829" d="M350.99,142.869c0-.152,7.822-.208,17.466-.126s17.465.274,17.464.426-7.821.208-17.468.125-17.463-.273-17.462-.425" fill="#1a2e35"/>
            <path id="Trazado_711830" data-name="Trazado 711830" d="M350.95,147.538c0-.151,7.822-.207,17.466-.125s17.465.274,17.464.426-7.821.208-17.468.125-17.463-.274-17.462-.426" fill="#1a2e35"/>
            <rect id="Rectángulo_347166" data-name="Rectángulo 347166" width="5.621" height="17.555" transform="translate(357.834 152.96)" fill="#375a64"/>
            <rect id="Rectángulo_347167" data-name="Rectángulo 347167" width="5.621" height="13.545" transform="translate(366.227 156.97)" fill="#375a64"/>
            <rect id="Rectángulo_347168" data-name="Rectángulo 347168" width="5.621" height="8.044" transform="translate(373.997 162.471)" fill="#375a64"/>
            <path id="Trazado_711831" data-name="Trazado 711831" d="M303.029,101.446a1.063,1.063,0,0,1,.2-.015l.6-.016,2.29-.028,8.421-.048,27.781-.044,24.826.034h.147v.117c-.026,3.541-.048,6.433-.064,8.464-.016.987-.029,1.764-.039,2.318-.009.25-.015.449-.021.6a.708.708,0,0,1-.022.206.793.793,0,0,1-.021-.206c-.006-.155-.013-.354-.021-.6-.01-.554-.023-1.331-.04-2.318-.015-2.031-.037-4.923-.063-8.464l.145.117-24.826.034-27.781-.044-8.421-.048-2.29-.028-.6-.015a1.1,1.1,0,0,1-.2-.016" fill="#1a2e35"/>
            <path id="Trazado_711832" data-name="Trazado 711832" d="M302.3,15.267a1.76,1.76,0,0,1-.365.028l-1.05.026-3.9.046-13.146.05.15-.151c.009.982.018,2.013.028,3.062.049,5.944.058,11.324.028,15.219-.017,1.947-.042,3.523-.08,4.612-.02.545-.041.968-.064,1.254a2.463,2.463,0,0,1-.062.435s.022-2.406-.008-6.3c-.03-3.923-.071-9.288-.117-15.217-.008-1.048-.017-2.08-.025-3.061v-.152h.151l13.146.051,3.9.045,1.05.026a1.76,1.76,0,0,1,.365.028" fill="#1a2e35"/>
            <path id="Trazado_711833" data-name="Trazado 711833" d="M303.786,15.267a1.491,1.491,0,1,1-1.491-1.491,1.492,1.492,0,0,1,1.491,1.491" fill="#1a2e35"/>
            <path id="Trazado_711834" data-name="Trazado 711834" d="M368.666,113.039a1.491,1.491,0,1,1-1.491-1.491,1.492,1.492,0,0,1,1.491,1.491" fill="#1a2e35"/>
            <path id="Trazado_711835" data-name="Trazado 711835" d="M300.416,38.414H98.687a6.3,6.3,0,0,0-6.3,6.3V187.2a6.3,6.3,0,0,0,6.3,6.3h77.424s4.924,15.23-10.343,23.11h72.395s-17.237-5.91-12.8-23.11h75.059a6.3,6.3,0,0,0,6.3-6.3V44.711a6.3,6.3,0,0,0-6.3-6.3" fill="#375a64"/>
            <path id="Trazado_711836" data-name="Trazado 711836" d="M202.245,178.508c2.744,3.922-1.551,8.217-5.474,5.473a1.4,1.4,0,0,1-.337-.338c-2.736-3.921,1.553-8.21,5.474-5.472a1.366,1.366,0,0,1,.337.337" fill="#1a2e35"/>
            <path id="Trazado_711837" data-name="Trazado 711837" d="M303.24,167.426H95.864V46.657a5.633,5.633,0,0,1,5.634-5.633H297.606a5.633,5.633,0,0,1,5.634,5.633Z" fill="#fff"/>
            <path id="Trazado_711838" data-name="Trazado 711838" d="M303.24,51.527H95.864V46.342a5.318,5.318,0,0,1,5.318-5.318H298.874a4.366,4.366,0,0,1,4.366,4.366Z" fill="#ececec"/>
            <path id="Trazado_711839" data-name="Trazado 711839" d="M103.925,46.5a1.457,1.457,0,1,1-1.457-1.457,1.457,1.457,0,0,1,1.457,1.457" fill="#e1e1e1"/>
            <path id="Trazado_711840" data-name="Trazado 711840" d="M108.268,46.5a1.456,1.456,0,1,1-1.457-1.457,1.457,1.457,0,0,1,1.457,1.457" fill="#e1e1e1"/>
            <path id="Trazado_711841" data-name="Trazado 711841" d="M112.4,46.5a1.457,1.457,0,1,1-1.457-1.457A1.457,1.457,0,0,1,112.4,46.5" fill="#e1e1e1"/>
            <path id="Trazado_711842" data-name="Trazado 711842" d="M264.35,193.513c0,.067-28.706.121-64.109.121s-64.115-.054-64.115-.121,28.7-.121,64.115-.121,64.109.054,64.109.121" fill="#1a2e35"/>
            <path id="Trazado_711843" data-name="Trazado 711843" d="M162.675,123.126l-57.83.167.114,39.7,47.942-.138,6.5-.019,3.387-.009Z" fill="#f5f5f5"/>
            <path id="Trazado_711844" data-name="Trazado 711844" d="M109.295,158.74c-.071,0-.147-6.735-.171-15.042s.014-15.044.083-15.044.147,6.734.17,15.043-.012,15.043-.082,15.043" fill="#1a2e35"/>
            <path id="Trazado_711845" data-name="Trazado 711845" d="M159.469,154.452c0,.07-11.278.159-25.188.2s-25.191.016-25.191-.054,11.276-.159,25.19-.2,25.189-.016,25.189.054" fill="#ececec"/>
            <path id="Trazado_711846" data-name="Trazado 711846" d="M159.456,150.038c0,.07-11.278.159-25.188.2s-25.191.016-25.191-.054,11.276-.159,25.19-.2,25.189-.016,25.189.054" fill="#ececec"/>
            <path id="Trazado_711847" data-name="Trazado 711847" d="M159.443,145.624c0,.07-11.278.159-25.188.2s-25.191.016-25.191-.054,11.276-.159,25.19-.2,25.189-.016,25.189.054" fill="#ececec"/>
            <path id="Trazado_711848" data-name="Trazado 711848" d="M159.431,141.21c0,.07-11.278.159-25.188.2s-25.191.016-25.191-.054,11.276-.159,25.19-.2,25.189-.016,25.189.054" fill="#ececec"/>
            <path id="Trazado_711849" data-name="Trazado 711849" d="M159.418,136.8c0,.07-11.278.159-25.188.2s-25.191.016-25.191-.054,11.276-.159,25.19-.2,25.189-.016,25.189.054" fill="#ececec"/>
            <path id="Trazado_711850" data-name="Trazado 711850" d="M159.4,132.382c0,.07-11.278.159-25.188.2s-25.191.016-25.191-.054,11.276-.159,25.19-.2,25.189-.016,25.189.054" fill="#ececec"/>
            <path id="Trazado_711851" data-name="Trazado 711851" d="M159.393,127.968c0,.07-11.278.159-25.189.2s-25.191.016-25.191-.054,11.276-.159,25.19-.2,25.19-.016,25.19.054" fill="#ececec"/>
            <rect id="Rectángulo_347169" data-name="Rectángulo 347169" width="3.612" height="6.879" transform="translate(112.491 151.852) rotate(-0.159)" fill="#81d4fa"/>
            <rect id="Rectángulo_347170" data-name="Rectángulo 347170" width="3.612" height="6.879" transform="translate(138.727 151.776) rotate(-0.159)" fill="#81d4fa"/>
            <rect id="Rectángulo_347171" data-name="Rectángulo 347171" width="3.612" height="11.938" transform="translate(119.561 146.772) rotate(-0.159)" fill="#81d4fa"/>
            <rect id="Rectángulo_347172" data-name="Rectángulo 347172" width="3.612" height="15.044" transform="translate(132.79 143.629) rotate(-0.159)" fill="#81d4fa"/>
            <rect id="Rectángulo_347173" data-name="Rectángulo 347173" width="3.612" height="24.183" transform="translate(126.23 134.508) rotate(-0.159)" fill="#81d4fa"/>
            <rect id="Rectángulo_347174" data-name="Rectángulo 347174" width="3.612" height="19.71" transform="translate(145.692 138.924) rotate(-0.159)" fill="#81d4fa"/>
            <path id="Trazado_711852" data-name="Trazado 711852" d="M153.665,158.612c0,.07-9.913.155-22.14.19s-22.142.007-22.142-.062,9.911-.155,22.142-.191,22.14-.007,22.14.063" fill="#1a2e35"/>
            <path id="Trazado_711853" data-name="Trazado 711853" d="M104.318,60.939v58.31H230.452V60.939Z" fill="#f5f5f5"/>
            <path id="Trazado_711854" data-name="Trazado 711854" d="M113.192,101.216v1.841H113v-1.673h-.434v-.168Z" fill="#1a2e35"/>
            <path id="Trazado_711855" data-name="Trazado 711855" d="M113.633,102.137c0-.586.307-.937.733-.937s.738.351.738.937-.312.936-.738.936-.733-.35-.733-.936m1.276,0c0-.492-.221-.763-.543-.763s-.542.271-.542.763.222.762.542.762.543-.27.543-.762" fill="#1a2e35"/>
            <path id="Trazado_711856" data-name="Trazado 711856" d="M113.939,91.443v.168h-1.292v-.134l.766-.75c.207-.2.247-.328.247-.454,0-.213-.15-.345-.431-.345a.624.624,0,0,0-.5.205l-.135-.115a.826.826,0,0,1,.652-.264c.374,0,.61.19.61.5a.758.758,0,0,1-.3.576l-.626.615Z" fill="#1a2e35"/>
            <path id="Trazado_711857" data-name="Trazado 711857" d="M114.168,90.691c0-.587.307-.937.733-.937s.737.35.737.937-.311.936-.737.936-.733-.35-.733-.936m1.275,0c0-.492-.221-.763-.542-.763s-.542.271-.542.763.222.763.542.763.542-.271.542-.763" fill="#1a2e35"/>
            <path id="Trazado_711858" data-name="Trazado 711858" d="M113.9,79.635c0,.308-.224.545-.668.545a.956.956,0,0,1-.663-.237l.092-.15a.806.806,0,0,0,.571.213c.305,0,.474-.142.474-.371s-.156-.365-.5-.365h-.132v-.14l.511-.639h-.942v-.168h1.184v.134l-.521.655c.4.021.592.229.592.523" fill="#1a2e35"/>
            <path id="Trazado_711859" data-name="Trazado 711859" d="M114.168,79.243c0-.586.307-.936.733-.936s.737.35.737.936-.311.936-.737.936-.733-.349-.733-.936m1.275,0c0-.492-.221-.763-.542-.763s-.542.271-.542.763.222.762.542.762.542-.27.542-.762" fill="#1a2e35"/>
            <path id="Trazado_711860" data-name="Trazado 711860" d="M121.319,108.177c0-.586.307-.937.733-.937s.737.351.737.937-.311.936-.737.936-.733-.35-.733-.936m1.275,0c0-.492-.221-.763-.542-.763s-.542.271-.542.763.222.762.542.762.542-.27.542-.762" fill="#1a2e35"/>
            <path id="Trazado_711861" data-name="Trazado 711861" d="M134.945,107.256V109.1h-.19v-1.673h-.434v-.168Z" fill="#1a2e35"/>
            <path id="Trazado_711862" data-name="Trazado 711862" d="M149.308,108.929v.168h-1.292v-.134l.766-.75c.207-.2.247-.328.247-.454,0-.213-.15-.345-.431-.345a.624.624,0,0,0-.5.205l-.135-.115a.826.826,0,0,1,.652-.264c.374,0,.611.19.611.5a.756.756,0,0,1-.3.576l-.626.615Z" fill="#1a2e35"/>
            <path id="Trazado_711863" data-name="Trazado 711863" d="M162.885,108.569c0,.308-.225.544-.669.544a.957.957,0,0,1-.663-.236l.092-.15a.807.807,0,0,0,.571.213c.3,0,.475-.142.475-.371s-.156-.366-.5-.366h-.132v-.139l.511-.639h-.942v-.168h1.183v.134l-.521.655c.4.021.593.229.593.523" fill="#1a2e35"/>
            <path id="Trazado_711864" data-name="Trazado 711864" d="M176.847,108.614h-.368v.484h-.189v-.484h-1.039v-.137l.976-1.22h.21l-.941,1.189h.8v-.426h.184v.426h.368Z" fill="#1a2e35"/>
            <path id="Trazado_711865" data-name="Trazado 711865" d="M190.148,108.556c0,.313-.219.558-.668.558a.948.948,0,0,1-.66-.237l.092-.15a.8.8,0,0,0,.565.213c.313,0,.479-.153.479-.376s-.147-.384-.615-.384h-.393l.1-.923h1.007v.168h-.842l-.063.587h.237c.554,0,.765.218.765.544" fill="#1a2e35"/>
            <path id="Trazado_711866" data-name="Trazado 711866" d="M203.9,108.548a.573.573,0,0,1-.628.565c-.49,0-.755-.339-.755-.92,0-.626.342-.952.841-.952a.846.846,0,0,1,.437.1l-.077.152a.642.642,0,0,0-.357-.087c-.4,0-.653.255-.653.755a1.44,1.44,0,0,0,.009.15.587.587,0,0,1,.562-.316.558.558,0,0,1,.621.553m-.187.005c0-.242-.178-.4-.463-.4a.426.426,0,0,0-.473.4c0,.2.168.4.487.4a.4.4,0,0,0,.449-.4" fill="#1a2e35"/>
            <path id="Trazado_711867" data-name="Trazado 711867" d="M217.429,107.256v.134l-.77,1.707h-.206l.758-1.673h-.947v.345h-.187v-.513Z" fill="#1a2e35"/>
            <path id="Trazado_711868" data-name="Trazado 711868" d="M217.528,102.226c0,.1-21.309.179-47.588.179s-47.594-.08-47.594-.179,21.305-.179,47.594-.179,47.588.08,47.588.179" fill="#1a2e35"/>
            <path id="Trazado_711869" data-name="Trazado 711869" d="M217.528,90.72c0,.1-21.309.179-47.588.179s-47.594-.08-47.594-.179,21.305-.179,47.594-.179,47.588.08,47.588.179" fill="#1a2e35"/>
            <path id="Trazado_711870" data-name="Trazado 711870" d="M217.528,79.214c0,.1-21.309.179-47.588.179s-47.594-.08-47.594-.179,21.305-.179,47.594-.179,47.588.08,47.588.179" fill="#1a2e35"/>
            <path id="Trazado_711871" data-name="Trazado 711871" d="M122.346,102.058a.611.611,0,1,1-.611-.611.611.611,0,0,1,.611.611" fill="#81d4fa"/>
            <path id="Trazado_711872" data-name="Trazado 711872" d="M136.031,102.058a.611.611,0,1,1-.611-.611.611.611,0,0,1,.611.611" fill="#81d4fa"/>
            <path id="Trazado_711873" data-name="Trazado 711873" d="M149.716,102.058a.612.612,0,1,1-.611-.611.611.611,0,0,1,.611.611" fill="#81d4fa"/>
            <path id="Trazado_711874" data-name="Trazado 711874" d="M163.4,102.058a.611.611,0,1,1-.611-.611.611.611,0,0,1,.611.611" fill="#81d4fa"/>
            <path id="Trazado_711875" data-name="Trazado 711875" d="M177.085,102.058a.612.612,0,1,1-.611-.611.611.611,0,0,1,.611.611" fill="#81d4fa"/>
            <path id="Trazado_711876" data-name="Trazado 711876" d="M204.454,102.058a.611.611,0,1,1-.611-.611.611.611,0,0,1,.611.611" fill="#81d4fa"/>
            <path id="Trazado_711877" data-name="Trazado 711877" d="M190.77,102.058a.612.612,0,1,1-.611-.611.611.611,0,0,1,.611.611" fill="#81d4fa"/>
            <path id="Trazado_711878" data-name="Trazado 711878" d="M218.139,102.058a.612.612,0,1,1-.611-.611.611.611,0,0,1,.611.611" fill="#81d4fa"/>
            <path id="Trazado_711879" data-name="Trazado 711879" d="M128.582,102.226a.4.4,0,1,1-.4-.4.4.4,0,0,1,.4.4" fill="#e1e1e1"/>
            <path id="Trazado_711880" data-name="Trazado 711880" d="M142.319,102.226a.4.4,0,1,1-.4-.4.4.4,0,0,1,.4.4" fill="#e1e1e1"/>
            <path id="Trazado_711881" data-name="Trazado 711881" d="M156.055,102.226a.4.4,0,1,1-.4-.4.4.4,0,0,1,.4.4" fill="#e1e1e1"/>
            <path id="Trazado_711882" data-name="Trazado 711882" d="M169.791,102.226a.4.4,0,1,1-.4-.4.4.4,0,0,1,.4.4" fill="#e1e1e1"/>
            <path id="Trazado_711883" data-name="Trazado 711883" d="M183.527,102.226a.4.4,0,1,1-.4-.4.4.4,0,0,1,.4.4" fill="#e1e1e1"/>
            <path id="Trazado_711884" data-name="Trazado 711884" d="M197.263,102.226a.4.4,0,1,1-.4-.4.4.4,0,0,1,.4.4" fill="#e1e1e1"/>
            <path id="Trazado_711885" data-name="Trazado 711885" d="M211,102.226a.4.4,0,1,1-.4-.4.4.4,0,0,1,.4.4" fill="#e1e1e1"/>
            <path id="Trazado_711886" data-name="Trazado 711886" d="M136.919,97.14a1.5,1.5,0,1,1-1.5-1.5,1.5,1.5,0,0,1,1.5,1.5" fill="#81d4fa"/>
            <path id="Trazado_711887" data-name="Trazado 711887" d="M148.858,90.094a1.5,1.5,0,1,1-1.5-1.5,1.5,1.5,0,0,1,1.5,1.5" fill="#81d4fa"/>
            <path id="Trazado_711888" data-name="Trazado 711888" d="M163.677,90.72a1.5,1.5,0,1,1-1.5-1.5,1.5,1.5,0,0,1,1.5,1.5" fill="#81d4fa"/>
            <path id="Trazado_711889" data-name="Trazado 711889" d="M178.144,77.913a1.5,1.5,0,1,1-1.5-1.5,1.5,1.5,0,0,1,1.5,1.5" fill="#81d4fa"/>
            <path id="Trazado_711890" data-name="Trazado 711890" d="M191.658,86.058a1.5,1.5,0,1,1-1.5-1.5,1.5,1.5,0,0,1,1.5,1.5" fill="#81d4fa"/>
            <path id="Trazado_711891" data-name="Trazado 711891" d="M205.342,88.227a1.5,1.5,0,1,1-1.5-1.5,1.5,1.5,0,0,1,1.5,1.5" fill="#81d4fa"/>
            <path id="Trazado_711892" data-name="Trazado 711892" d="M218.139,97.14a2.181,2.181,0,0,1-.352,0A7.334,7.334,0,0,1,216.765,97a7.741,7.741,0,0,1-3.56-1.691,7.4,7.4,0,0,1-1.748-2.275,16.71,16.71,0,0,0-1.832-2.836,6.054,6.054,0,0,0-3.093-2.158,3.954,3.954,0,0,0-2.047.073,5.512,5.512,0,0,0-1.9,1.075,36.408,36.408,0,0,0-3.156,3.616,6.244,6.244,0,0,1-2.055,1.6,4.138,4.138,0,0,1-2.7.222,3.391,3.391,0,0,1-2.057-1.888,13.169,13.169,0,0,1-.887-2.733,15.806,15.806,0,0,0-.816-2.773,2.169,2.169,0,0,0-.875-1.049,2.841,2.841,0,0,0-1.383-.269,23.155,23.155,0,0,0-3.009.531,8.745,8.745,0,0,1-1.587.181,3.594,3.594,0,0,1-1.614-.314,3.281,3.281,0,0,1-1.281-1.073,7.957,7.957,0,0,1-.784-1.456c-.434-1.013-.723-2.074-1.116-3.095a7.466,7.466,0,0,0-.724-1.45,2.639,2.639,0,0,0-1.187-.988c-.125-.037-.248-.083-.374-.113l-.395-.037a1.418,1.418,0,0,0-.732.15,3.028,3.028,0,0,0-1.1,1.144,14,14,0,0,0-1.271,3.146c-.327,1.1-.6,2.234-.865,3.373-.438,1.888-.828,3.77-1.314,5.612a28.229,28.229,0,0,1-.842,2.719,7.075,7.075,0,0,1-1.422,2.47,1.972,1.972,0,0,1-1.35.6,2.74,2.74,0,0,1-1.384-.419,6.573,6.573,0,0,1-1.943-1.967,23.84,23.84,0,0,1-2.348-4.766,11.073,11.073,0,0,0-2.621-4.217,4.907,4.907,0,0,0-4.4-1.073,7.431,7.431,0,0,0-2.094.921,14.43,14.43,0,0,0-1.828,1.322,24.471,24.471,0,0,0-3.051,3.069l-.006.007,0,0a32.937,32.937,0,0,1-4.521,3.756,22.034,22.034,0,0,1-4.629,2.508,10.188,10.188,0,0,1-4.532.755,15.944,15.944,0,0,1-3.775-.913,35.68,35.68,0,0,1-4.9-2.242c-.542-.3-.951-.536-1.222-.7s-.4-.262-.4-.262.146.073.425.225l1.241.665a38.206,38.206,0,0,0,4.916,2.164,15.922,15.922,0,0,0,3.738.87,10.023,10.023,0,0,0,4.435-.773,21.979,21.979,0,0,0,4.564-2.507A32.924,32.924,0,0,0,147.812,90l-.009.01a24.5,24.5,0,0,1,3.081-3.122,14.509,14.509,0,0,1,1.86-1.355,7.736,7.736,0,0,1,2.177-.964,5.224,5.224,0,0,1,4.691,1.132,11.358,11.358,0,0,1,2.718,4.335,23.615,23.615,0,0,0,2.321,4.7,6.267,6.267,0,0,0,1.835,1.862,2.4,2.4,0,0,0,1.211.37,1.623,1.623,0,0,0,1.1-.5,6.762,6.762,0,0,0,1.334-2.341,27.576,27.576,0,0,0,.829-2.684c.482-1.829.872-3.71,1.31-5.6.265-1.143.541-2.279.872-3.395a14.317,14.317,0,0,1,1.31-3.23,3.371,3.371,0,0,1,1.24-1.276,1.793,1.793,0,0,1,.906-.186l.446.043c.146.035.29.087.434.13a2.989,2.989,0,0,1,1.351,1.12,7.766,7.766,0,0,1,.761,1.523c.4,1.042.687,2.1,1.108,3.086A4.111,4.111,0,0,0,182.589,86a4.963,4.963,0,0,0,2.995.113,23.128,23.128,0,0,1,3.06-.53,3.16,3.16,0,0,1,1.552.312,2.491,2.491,0,0,1,1.01,1.2,15.9,15.9,0,0,1,.83,2.836,12.852,12.852,0,0,0,.855,2.669,3.091,3.091,0,0,0,1.866,1.741,3.862,3.862,0,0,0,2.5-.2,5.988,5.988,0,0,0,1.966-1.522,36.067,36.067,0,0,1,3.2-3.623,5.747,5.747,0,0,1,1.993-1.112,4.18,4.18,0,0,1,2.169-.064,6.248,6.248,0,0,1,3.194,2.252,16.629,16.629,0,0,1,1.829,2.885,7.3,7.3,0,0,0,1.689,2.248,7.814,7.814,0,0,0,3.482,1.725,8.777,8.777,0,0,0,1.011.171c.23.026.349.03.349.037" fill="#81d4fa"/>
            <path id="Trazado_711893" data-name="Trazado 711893" d="M137.063,71.33c0,.1-5.313.179-11.865.179s-11.865-.08-11.865-.179,5.311-.179,11.865-.179,11.865.08,11.865.179" fill="#1a2e35"/>
            <path id="Trazado_711894" data-name="Trazado 711894" d="M235.486,61.313v57.012h60.665V61.313Z" fill="#f5f5f5"/>
            <path id="Trazado_711895" data-name="Trazado 711895" d="M265.549,67.774a18.718,18.718,0,1,0,18.718,18.718,18.718,18.718,0,0,0-18.718-18.718m.282,29.934a11.5,11.5,0,1,1,11.5-11.5,11.5,11.5,0,0,1-11.5,11.5" fill="#1a2e35"/>
            <path id="Trazado_711896" data-name="Trazado 711896" d="M265.835,67.782c0,1.992,0,4.677,0,6.93A11.5,11.5,0,0,1,276.789,89.7l6.784,1.84a18.712,18.712,0,0,0-17.738-23.755" fill="#81d4fa"/>
            <path id="Trazado_711897" data-name="Trazado 711897" d="M254.333,86.21a11.5,11.5,0,0,1,6.815-10.5l-2.878-6.466a18.723,18.723,0,0,0-11.44,17.249c0,.264.009.525.02.786h7.533c-.031-.352-.05-.708-.05-1.068" fill="#375a64"/>
            <path id="Trazado_711898" data-name="Trazado 711898" d="M265.831,97.708a11.544,11.544,0,0,1-2.433-.26c-.289,1.668-.835,4.9-1.264,7.446a18.7,18.7,0,0,0,21.439-13.358L276.79,89.7a11.5,11.5,0,0,1-10.959,8.012" fill="#81d4fa"/>
            <g id="Grupo_1003498" data-name="Grupo 1003498" opacity="0.3">
              <g id="Grupo_1003497" data-name="Grupo 1003497">
                <g id="Grupo_1003496" data-name="Grupo 1003496" clip-path="url(#clip-path-3)">
                  <path id="Trazado_711899" data-name="Trazado 711899" d="M265.831,97.708a11.544,11.544,0,0,1-2.433-.26c-.289,1.668-.835,4.9-1.264,7.446a18.7,18.7,0,0,0,21.439-13.358L276.79,89.7a11.5,11.5,0,0,1-10.959,8.012"/>
                </g>
              </g>
            </g>
            <path id="Trazado_711900" data-name="Trazado 711900" d="M263.347,87.141h-.693v.893h-.96v-.893H259.4v-.662l2-2.7h1.034l-1.86,2.558h1.142v-.8h.93v.8h.693Z" fill="#1a2e35"/>
            <path id="Trazado_711901" data-name="Trazado 711901" d="M263.637,85.907c0-1.4.778-2.2,1.824-2.2s1.823.8,1.823,2.2-.772,2.2-1.823,2.2-1.824-.8-1.824-2.2m2.656,0c0-.966-.34-1.367-.832-1.367s-.827.4-.827,1.367.34,1.368.827,1.368.832-.4.832-1.368" fill="#1a2e35"/>
            <path id="Trazado_711902" data-name="Trazado 711902" d="M267.69,84.9a1.06,1.06,0,1,1,1.057,1.173A1.058,1.058,0,0,1,267.69,84.9m1.5,0c0-.456-.177-.675-.444-.675s-.444.225-.444.675.182.674.444.674.444-.219.444-.674m2.09-1.125H272l-2.9,4.254h-.723Zm-.7,3.13a1.06,1.06,0,1,1,1.051,1.173,1.058,1.058,0,0,1-1.051-1.173m1.495,0c0-.45-.176-.675-.444-.675s-.443.219-.443.675.182.675.443.675.444-.225.444-.675" fill="#1a2e35"/>
            <path id="Trazado_711903" data-name="Trazado 711903" d="M281.037,109.933c0,.1-6.935.178-15.488.178s-15.489-.08-15.489-.178,6.933-.178,15.489-.178,15.488.08,15.488.178" fill="#1a2e35"/>
            <path id="Trazado_711904" data-name="Trazado 711904" d="M274.139,112.777c0,.1-3.846.178-8.59.178s-8.591-.08-8.591-.178,3.845-.178,8.591-.178,8.59.08,8.59.178" fill="#1a2e35"/>
            <rect id="Rectángulo_347176" data-name="Rectángulo 347176" width="121.76" height="40.002" transform="translate(167.385 122.118)" fill="#fafafa"/>
            <path id="Trazado_711905" data-name="Trazado 711905" d="M278.875,131.579c0,.071-20.692.129-46.212.129s-46.216-.058-46.216-.129,20.688-.129,46.216-.129,46.212.058,46.212.129" fill="#ececec"/>
            <path id="Trazado_711906" data-name="Trazado 711906" d="M278.875,136.313c0,.071-20.692.129-46.212.129s-46.216-.058-46.216-.129,20.688-.129,46.216-.129,46.212.058,46.212.129" fill="#ececec"/>
            <path id="Trazado_711907" data-name="Trazado 711907" d="M278.875,141.046c0,.071-20.692.129-46.212.129s-46.216-.058-46.216-.129,20.688-.129,46.216-.129,46.212.058,46.212.129" fill="#ececec"/>
            <path id="Trazado_711908" data-name="Trazado 711908" d="M278.875,145.779c0,.071-20.692.129-46.212.129s-46.216-.058-46.216-.129,20.688-.129,46.216-.129,46.212.058,46.212.129" fill="#ececec"/>
            <path id="Trazado_711909" data-name="Trazado 711909" d="M278.875,150.512c0,.072-20.692.13-46.212.13s-46.216-.058-46.216-.13,20.688-.129,46.216-.129,46.212.058,46.212.129" fill="#ececec"/>
            <path id="Trazado_711910" data-name="Trazado 711910" d="M270.826,145s-.064.073-.2.208a2.468,2.468,0,0,1-.777.428,4.142,4.142,0,0,1-3.374-.537,5.6,5.6,0,0,1-1.588-1.736,26.7,26.7,0,0,1-1.209-2.413,7.527,7.527,0,0,0-1.809-2.518,4.161,4.161,0,0,0-1.57-.83,4.753,4.753,0,0,0-1.933-.093,7.816,7.816,0,0,0-3.687,1.694c-1.1.862-2.069,1.923-3.253,2.885a7.935,7.935,0,0,1-4.465,1.9,4.58,4.58,0,0,1-2.555-.59,5.613,5.613,0,0,1-1.781-1.779c-.919-1.375-1.384-2.975-2.579-4.23a4.239,4.239,0,0,0-2.237-1.342,3.467,3.467,0,0,0-2.629.547,5.29,5.29,0,0,0-1.727,1.993,11.311,11.311,0,0,0-.818,2.493,13.882,13.882,0,0,1-.811,2.587,5.35,5.35,0,0,1-1.838,2.217,7.368,7.368,0,0,1-2.819,1.22,7.709,7.709,0,0,1-3.111.039,7.47,7.47,0,0,1-2.746-1.175c-.811-.524-1.547-1.1-2.317-1.627a7.262,7.262,0,0,0-2.5-1.178,4.1,4.1,0,0,0-2.674.3,6.05,6.05,0,0,0-1.995,1.61,14.837,14.837,0,0,0-1.348,2.05,15.762,15.762,0,0,1-1.335,2.031,5.985,5.985,0,0,1-1.918,1.577,4.392,4.392,0,0,1-2.5.508,3.765,3.765,0,0,1-2.172-1.052,5.182,5.182,0,0,1-1.2-1.806,11.964,11.964,0,0,1-.547-1.937,8.324,8.324,0,0,0-1.286-3.487,4.51,4.51,0,0,0-2.97-1.916,3.775,3.775,0,0,0-1.711.185,4.651,4.651,0,0,0-1.374.784c-1.56,1.3-2.311,2.861-3.468,3.766a4.983,4.983,0,0,1-3.1,1.352,2.942,2.942,0,0,1-.9-.139c-.191-.07-.285-.112-.285-.112a3.565,3.565,0,0,0,1.189.2,4.934,4.934,0,0,0,3.021-1.371c1.128-.9,1.853-2.461,3.436-3.8a4.8,4.8,0,0,1,1.42-.822,3.969,3.969,0,0,1,1.807-.2,4.714,4.714,0,0,1,3.12,1.98,5.8,5.8,0,0,1,.863,1.682c.2.6.329,1.231.47,1.866a11.95,11.95,0,0,0,.547,1.906,5,5,0,0,0,1.156,1.73,3.5,3.5,0,0,0,2.024.977,4.1,4.1,0,0,0,2.335-.484,5.714,5.714,0,0,0,1.832-1.516,15.387,15.387,0,0,0,1.31-2,15.1,15.1,0,0,1,1.366-2.085,6.328,6.328,0,0,1,2.086-1.684,4.433,4.433,0,0,1,2.879-.327,7.569,7.569,0,0,1,2.607,1.222c.782.529,1.518,1.109,2.313,1.622a7.172,7.172,0,0,0,2.637,1.129,7.378,7.378,0,0,0,2.974-.039,7.04,7.04,0,0,0,2.7-1.169,5.094,5.094,0,0,0,1.753-2.115,13.713,13.713,0,0,0,.8-2.544,11.506,11.506,0,0,1,.839-2.543A5.551,5.551,0,0,1,235,136.4a3.8,3.8,0,0,1,2.87-.59,4.534,4.534,0,0,1,2.394,1.431c1.238,1.312,1.7,2.933,2.6,4.267a5.37,5.37,0,0,0,1.693,1.7,4.287,4.287,0,0,0,2.39.557,7.686,7.686,0,0,0,4.312-1.833c1.169-.942,2.144-2,3.267-2.875a8.042,8.042,0,0,1,3.807-1.727,5.01,5.01,0,0,1,2.028.107,4.373,4.373,0,0,1,1.641.878,7.618,7.618,0,0,1,1.83,2.581c.412.874.752,1.7,1.182,2.41a5.476,5.476,0,0,0,1.533,1.714,4.079,4.079,0,0,0,3.282.568,2.54,2.54,0,0,0,1-.587" fill="#375a64"/>
            <path id="Trazado_711911" data-name="Trazado 711911" d="M276.673,143.9s-.107.011-.32.019c-.106,0-.237-.027-.394-.046a3.85,3.85,0,0,1-.515-.162,8.561,8.561,0,0,1-2.752-2.01q-.385-.386-.787-.833a9.633,9.633,0,0,0-.854-.913,4.859,4.859,0,0,0-2.72-1.075,4.051,4.051,0,0,0-3.14,1.047,31.027,31.027,0,0,0-2.434,2.729,6.849,6.849,0,0,1-1.558,1.312,5.279,5.279,0,0,1-2.131.692,10.854,10.854,0,0,1-4.692-.761c-1.533-.553-3-1.314-4.649-1.8a9.789,9.789,0,0,0-2.566-.446,6.305,6.305,0,0,0-2.59.491,28.955,28.955,0,0,0-4.5,2.956,9.7,9.7,0,0,1-2.6,1.237,11.169,11.169,0,0,1-2.982.448,12.3,12.3,0,0,1-5.921-1.423,13.575,13.575,0,0,1-4.493-3.879,33.413,33.413,0,0,1-2.734-4.959,9.99,9.99,0,0,0-1.59-2.256,6.889,6.889,0,0,0-2.342-1.569,4.615,4.615,0,0,0-5.169,1.078,6.7,6.7,0,0,0-1.4,2.111,15.035,15.035,0,0,0-.726,2.333c-.192.784-.366,1.565-.613,2.324a9.391,9.391,0,0,1-1.006,2.165,10.427,10.427,0,0,1-3.392,3.32,10.865,10.865,0,0,1-4.426,1.553,10.637,10.637,0,0,1-4.376-.44,8.13,8.13,0,0,1-5.276-4.487c-.364-.92-.548-1.807-.812-2.6a5.648,5.648,0,0,0-1.052-2.029,3.982,3.982,0,0,0-3.052-1.357,2.58,2.58,0,0,0-1.158.365,2.086,2.086,0,0,1,1.153-.417,4.047,4.047,0,0,1,3.148,1.347,5.727,5.727,0,0,1,1.1,2.057c.273.795.466,1.68.832,2.583a7.989,7.989,0,0,0,5.191,4.364,10.393,10.393,0,0,0,4.273.413,10.6,10.6,0,0,0,4.314-1.529,10.207,10.207,0,0,0,3.306-3.254,13.576,13.576,0,0,0,1.58-4.43,15.2,15.2,0,0,1,.732-2.368,6.918,6.918,0,0,1,1.45-2.188,4.927,4.927,0,0,1,5.5-1.147,7.175,7.175,0,0,1,2.447,1.633,10.254,10.254,0,0,1,1.634,2.313,33.374,33.374,0,0,0,2.716,4.928,13.319,13.319,0,0,0,4.4,3.8,11.979,11.979,0,0,0,5.762,1.389,10.819,10.819,0,0,0,2.893-.431,9.4,9.4,0,0,0,2.526-1.2,28.913,28.913,0,0,1,4.55-2.974,6.612,6.612,0,0,1,2.715-.508,10.035,10.035,0,0,1,2.645.464c1.677.5,3.153,1.271,4.658,1.817a10.587,10.587,0,0,0,4.568.761,5.032,5.032,0,0,0,2.037-.652,6.7,6.7,0,0,0,1.517-1.268,30.835,30.835,0,0,1,2.465-2.732,4.249,4.249,0,0,1,3.288-1.073,5,5,0,0,1,2.8,1.13,9.865,9.865,0,0,1,.856.933q.395.447.773.836a8.671,8.671,0,0,0,2.689,2.028,2.691,2.691,0,0,0,1.2.236" fill="#81d4fa"/>
            <path id="Trazado_711912" data-name="Trazado 711912" d="M180.1,131.815a5.853,5.853,0,0,1-2.444,0,5.853,5.853,0,0,1,2.444,0" fill="#e1e1e1"/>
            <path id="Trazado_711913" data-name="Trazado 711913" d="M180.1,136.313a5.853,5.853,0,0,1-2.444,0,5.853,5.853,0,0,1,2.444,0" fill="#e1e1e1"/>
            <path id="Trazado_711914" data-name="Trazado 711914" d="M180.1,140.811a5.853,5.853,0,0,1-2.444,0,5.853,5.853,0,0,1,2.444,0" fill="#e1e1e1"/>
            <path id="Trazado_711915" data-name="Trazado 711915" d="M180.1,145.309a5.853,5.853,0,0,1-2.444,0,5.852,5.852,0,0,1,2.444,0" fill="#e1e1e1"/>
            <path id="Trazado_711916" data-name="Trazado 711916" d="M180.1,149.807a5.853,5.853,0,0,1-2.444,0,5.852,5.852,0,0,1,2.444,0" fill="#e1e1e1"/>
            <path id="Trazado_711917" data-name="Trazado 711917" d="M191.336,155.589a23.226,23.226,0,0,1-4.889,0,23.226,23.226,0,0,1,4.889,0" fill="#e1e1e1"/>
            <path id="Trazado_711918" data-name="Trazado 711918" d="M212.887,155.589a23.226,23.226,0,0,1-4.889,0,23.226,23.226,0,0,1,4.889,0" fill="#e1e1e1"/>
            <path id="Trazado_711919" data-name="Trazado 711919" d="M234.438,155.589a23.226,23.226,0,0,1-4.889,0,23.226,23.226,0,0,1,4.889,0" fill="#e1e1e1"/>
            <path id="Trazado_711920" data-name="Trazado 711920" d="M255.989,155.589a23.226,23.226,0,0,1-4.889,0,23.226,23.226,0,0,1,4.889,0" fill="#e1e1e1"/>
            <path id="Trazado_711921" data-name="Trazado 711921" d="M277.54,155.589a23.226,23.226,0,0,1-4.889,0,23.226,23.226,0,0,1,4.889,0" fill="#e1e1e1"/>
            <rect id="Rectángulo_347177" data-name="Rectángulo 347177" width="63.532" height="44.225" transform="translate(12.165 167.315)" fill="#1a2e35"/>
            <rect id="Rectángulo_347178" data-name="Rectángulo 347178" width="65.354" height="16.214" transform="translate(3.435 180.434)" fill="#375a64"/>
            <rect id="Rectángulo_347179" data-name="Rectángulo 347179" width="12.868" height="1.98" transform="translate(6.337 183.773)" fill="#1a2e35"/>
            <rect id="Rectángulo_347180" data-name="Rectángulo 347180" width="12.868" height="1.98" transform="translate(6.337 187.179)" fill="#1a2e35"/>
            <rect id="Rectángulo_347181" data-name="Rectángulo 347181" width="12.868" height="1.98" transform="translate(6.337 190.702)" fill="#1a2e35"/>
            <path id="Trazado_711922" data-name="Trazado 711922" d="M24.294,184.969a.738.738,0,1,1-.738-.738.737.737,0,0,1,.738.738" fill="#1a2e35"/>
            <path id="Trazado_711923" data-name="Trazado 711923" d="M27.551,184.969a.738.738,0,1,1-.738-.738.737.737,0,0,1,.738.738" fill="#1a2e35"/>
            <path id="Trazado_711924" data-name="Trazado 711924" d="M30.809,184.969a.738.738,0,1,1-.738-.738.737.737,0,0,1,.738.738" fill="#1a2e35"/>
            <path id="Trazado_711925" data-name="Trazado 711925" d="M34.066,184.969a.738.738,0,1,1-.738-.738.737.737,0,0,1,.738.738" fill="#1a2e35"/>
            <path id="Trazado_711926" data-name="Trazado 711926" d="M59.309,184.969a.738.738,0,1,1-.738-.738.737.737,0,0,1,.738.738" fill="#1a2e35"/>
            <path id="Trazado_711927" data-name="Trazado 711927" d="M62.631,184.969a.738.738,0,1,1-.738-.738.737.737,0,0,1,.738.738" fill="#1a2e35"/>
            <path id="Trazado_711928" data-name="Trazado 711928" d="M37.324,184.969a.738.738,0,1,1-.738-.738.737.737,0,0,1,.738.738" fill="#1a2e35"/>
            <path id="Trazado_711929" data-name="Trazado 711929" d="M53.321,184.969a.738.738,0,1,1-.738-.738.737.737,0,0,1,.738.738" fill="#1a2e35"/>
            <path id="Trazado_711930" data-name="Trazado 711930" d="M40.581,184.969a.738.738,0,1,1-.738-.738.737.737,0,0,1,.738.738" fill="#f5f5f5"/>
            <path id="Trazado_711931" data-name="Trazado 711931" d="M43.839,184.969a.738.738,0,1,1-.738-.738.737.737,0,0,1,.738.738" fill="#f5f5f5"/>
            <path id="Trazado_711932" data-name="Trazado 711932" d="M50.448,184.969a.738.738,0,1,1-.738-.738.737.737,0,0,1,.738.738" fill="#f5f5f5"/>
            <path id="Trazado_711933" data-name="Trazado 711933" d="M65.333,184.969a.738.738,0,1,1-.738-.738.738.738,0,0,1,.738.738" fill="#f5f5f5"/>
            <path id="Trazado_711934" data-name="Trazado 711934" d="M47.1,184.969a.738.738,0,1,1-.738-.738.738.738,0,0,1,.738.738" fill="#81d4fa"/>
            <path id="Trazado_711935" data-name="Trazado 711935" d="M56.423,184.969a.738.738,0,1,1-.738-.738.737.737,0,0,1,.738.738" fill="#81d4fa"/>
            <path id="Trazado_711936" data-name="Trazado 711936" d="M63.857,188.528a.738.738,0,1,1,.738.738.737.737,0,0,1-.738-.738" fill="#1a2e35"/>
            <path id="Trazado_711937" data-name="Trazado 711937" d="M60.6,188.528a.738.738,0,1,1,.738.738.737.737,0,0,1-.738-.738" fill="#1a2e35"/>
            <path id="Trazado_711938" data-name="Trazado 711938" d="M57.342,188.528a.738.738,0,1,1,.738.738.738.738,0,0,1-.738-.738" fill="#1a2e35"/>
            <path id="Trazado_711939" data-name="Trazado 711939" d="M54.084,188.528a.738.738,0,1,1,.738.738.737.737,0,0,1-.738-.738" fill="#1a2e35"/>
            <path id="Trazado_711940" data-name="Trazado 711940" d="M28.842,188.528a.738.738,0,1,1,.738.738.738.738,0,0,1-.738-.738" fill="#1a2e35"/>
            <path id="Trazado_711941" data-name="Trazado 711941" d="M25.52,188.528a.738.738,0,1,1,.738.738.738.738,0,0,1-.738-.738" fill="#1a2e35"/>
            <path id="Trazado_711942" data-name="Trazado 711942" d="M50.827,188.528a.738.738,0,1,1,.738.738.738.738,0,0,1-.738-.738" fill="#1a2e35"/>
            <path id="Trazado_711943" data-name="Trazado 711943" d="M34.83,188.528a.738.738,0,1,1,.738.738.737.737,0,0,1-.738-.738" fill="#1a2e35"/>
            <path id="Trazado_711944" data-name="Trazado 711944" d="M47.57,188.528a.738.738,0,1,1,.738.738.738.738,0,0,1-.738-.738" fill="#f5f5f5"/>
            <path id="Trazado_711945" data-name="Trazado 711945" d="M44.312,188.528a.738.738,0,1,1,.738.738.737.737,0,0,1-.738-.738" fill="#f5f5f5"/>
            <path id="Trazado_711946" data-name="Trazado 711946" d="M37.7,188.528a.738.738,0,1,1,.738.738.737.737,0,0,1-.738-.738" fill="#f5f5f5"/>
            <path id="Trazado_711947" data-name="Trazado 711947" d="M22.817,188.528a.738.738,0,1,1,.738.738.737.737,0,0,1-.738-.738" fill="#f5f5f5"/>
            <path id="Trazado_711948" data-name="Trazado 711948" d="M41.055,188.528a.738.738,0,1,1,.738.738.738.738,0,0,1-.738-.738" fill="#81d4fa"/>
            <path id="Trazado_711949" data-name="Trazado 711949" d="M31.728,188.528a.738.738,0,1,1,.738.738.737.737,0,0,1-.738-.738" fill="#81d4fa"/>
            <path id="Trazado_711950" data-name="Trazado 711950" d="M24.294,191.692a.738.738,0,1,1-.738-.738.737.737,0,0,1,.738.738" fill="#1a2e35"/>
            <path id="Trazado_711951" data-name="Trazado 711951" d="M27.551,191.692a.738.738,0,1,1-.738-.738.737.737,0,0,1,.738.738" fill="#1a2e35"/>
            <path id="Trazado_711952" data-name="Trazado 711952" d="M30.809,191.692a.738.738,0,1,1-.738-.738.737.737,0,0,1,.738.738" fill="#1a2e35"/>
            <path id="Trazado_711953" data-name="Trazado 711953" d="M34.066,191.692a.738.738,0,1,1-.738-.738.737.737,0,0,1,.738.738" fill="#1a2e35"/>
            <path id="Trazado_711954" data-name="Trazado 711954" d="M59.309,191.692a.738.738,0,1,1-.738-.738.737.737,0,0,1,.738.738" fill="#1a2e35"/>
            <path id="Trazado_711955" data-name="Trazado 711955" d="M62.631,191.692a.738.738,0,1,1-.738-.738.737.737,0,0,1,.738.738" fill="#1a2e35"/>
            <path id="Trazado_711956" data-name="Trazado 711956" d="M37.324,191.692a.738.738,0,1,1-.738-.738.737.737,0,0,1,.738.738" fill="#1a2e35"/>
            <path id="Trazado_711957" data-name="Trazado 711957" d="M53.321,191.692a.738.738,0,1,1-.738-.738.737.737,0,0,1,.738.738" fill="#1a2e35"/>
            <path id="Trazado_711958" data-name="Trazado 711958" d="M40.581,191.692a.738.738,0,1,1-.738-.738.737.737,0,0,1,.738.738" fill="#f5f5f5"/>
            <path id="Trazado_711959" data-name="Trazado 711959" d="M43.839,191.692a.738.738,0,1,1-.738-.738.737.737,0,0,1,.738.738" fill="#f5f5f5"/>
            <path id="Trazado_711960" data-name="Trazado 711960" d="M50.448,191.692a.738.738,0,1,1-.738-.738.737.737,0,0,1,.738.738" fill="#f5f5f5"/>
            <path id="Trazado_711961" data-name="Trazado 711961" d="M65.333,191.692a.738.738,0,1,1-.738-.738.738.738,0,0,1,.738.738" fill="#f5f5f5"/>
            <path id="Trazado_711962" data-name="Trazado 711962" d="M47.1,191.692a.738.738,0,1,1-.738-.738.738.738,0,0,1,.738.738" fill="#81d4fa"/>
            <path id="Trazado_711963" data-name="Trazado 711963" d="M56.423,191.692a.738.738,0,1,1-.738-.738.737.737,0,0,1,.738.738" fill="#81d4fa"/>
            <rect id="Rectángulo_347182" data-name="Rectángulo 347182" width="65.354" height="16.214" transform="translate(3.435 200.443)" fill="#375a64"/>
            <path id="Trazado_711964" data-name="Trazado 711964" d="M24.132,204.817a.738.738,0,1,1-.738-.738.738.738,0,0,1,.738.738" fill="#1a2e35"/>
            <path id="Trazado_711965" data-name="Trazado 711965" d="M27.389,204.817a.738.738,0,1,1-.738-.738.737.737,0,0,1,.738.738" fill="#1a2e35"/>
            <path id="Trazado_711966" data-name="Trazado 711966" d="M30.647,204.817a.738.738,0,1,1-.738-.738.737.737,0,0,1,.738.738" fill="#1a2e35"/>
            <path id="Trazado_711967" data-name="Trazado 711967" d="M33.9,204.817a.738.738,0,1,1-.738-.738.737.737,0,0,1,.738.738" fill="#1a2e35"/>
            <path id="Trazado_711968" data-name="Trazado 711968" d="M59.147,204.817a.738.738,0,1,1-.738-.738.737.737,0,0,1,.738.738" fill="#1a2e35"/>
            <path id="Trazado_711969" data-name="Trazado 711969" d="M62.469,204.817a.738.738,0,1,1-.738-.738.737.737,0,0,1,.738.738" fill="#1a2e35"/>
            <path id="Trazado_711970" data-name="Trazado 711970" d="M37.162,204.817a.738.738,0,1,1-.738-.738.737.737,0,0,1,.738.738" fill="#1a2e35"/>
            <path id="Trazado_711971" data-name="Trazado 711971" d="M53.159,204.817a.738.738,0,1,1-.738-.738.738.738,0,0,1,.738.738" fill="#1a2e35"/>
            <path id="Trazado_711972" data-name="Trazado 711972" d="M40.419,204.817a.738.738,0,1,1-.738-.738.737.737,0,0,1,.738.738" fill="#f5f5f5"/>
            <path id="Trazado_711973" data-name="Trazado 711973" d="M43.677,204.817a.738.738,0,1,1-.738-.738.737.737,0,0,1,.738.738" fill="#f5f5f5"/>
            <path id="Trazado_711974" data-name="Trazado 711974" d="M50.286,204.817a.738.738,0,1,1-.738-.738.737.737,0,0,1,.738.738" fill="#f5f5f5"/>
            <path id="Trazado_711975" data-name="Trazado 711975" d="M65.172,204.817a.738.738,0,1,1-.739-.738.738.738,0,0,1,.739.738" fill="#f5f5f5"/>
            <path id="Trazado_711976" data-name="Trazado 711976" d="M46.934,204.817a.738.738,0,1,1-.738-.738.737.737,0,0,1,.738.738" fill="#81d4fa"/>
            <path id="Trazado_711977" data-name="Trazado 711977" d="M56.261,204.817a.738.738,0,1,1-.738-.738.737.737,0,0,1,.738.738" fill="#81d4fa"/>
            <path id="Trazado_711978" data-name="Trazado 711978" d="M63.695,208.376a.738.738,0,1,1,.738.738.738.738,0,0,1-.738-.738" fill="#1a2e35"/>
            <path id="Trazado_711979" data-name="Trazado 711979" d="M60.438,208.376a.738.738,0,1,1,.738.738.737.737,0,0,1-.738-.738" fill="#1a2e35"/>
            <path id="Trazado_711980" data-name="Trazado 711980" d="M57.18,208.376a.738.738,0,1,1,.738.738.738.738,0,0,1-.738-.738" fill="#1a2e35"/>
            <path id="Trazado_711981" data-name="Trazado 711981" d="M53.923,208.376a.738.738,0,1,1,.738.738.738.738,0,0,1-.738-.738" fill="#1a2e35"/>
            <path id="Trazado_711982" data-name="Trazado 711982" d="M28.68,208.376a.738.738,0,1,1,.738.738.738.738,0,0,1-.738-.738" fill="#1a2e35"/>
            <path id="Trazado_711983" data-name="Trazado 711983" d="M25.358,208.376a.738.738,0,1,1,.738.738.738.738,0,0,1-.738-.738" fill="#1a2e35"/>
            <path id="Trazado_711984" data-name="Trazado 711984" d="M50.665,208.376a.738.738,0,1,1,.738.738.738.738,0,0,1-.738-.738" fill="#1a2e35"/>
            <path id="Trazado_711985" data-name="Trazado 711985" d="M34.668,208.376a.738.738,0,1,1,.738.738.737.737,0,0,1-.738-.738" fill="#1a2e35"/>
            <path id="Trazado_711986" data-name="Trazado 711986" d="M47.408,208.376a.738.738,0,1,1,.738.738.738.738,0,0,1-.738-.738" fill="#f5f5f5"/>
            <path id="Trazado_711987" data-name="Trazado 711987" d="M44.15,208.376a.738.738,0,1,1,.738.738.737.737,0,0,1-.738-.738" fill="#f5f5f5"/>
            <path id="Trazado_711988" data-name="Trazado 711988" d="M37.541,208.376a.738.738,0,1,1,.738.738.737.737,0,0,1-.738-.738" fill="#f5f5f5"/>
            <path id="Trazado_711989" data-name="Trazado 711989" d="M22.656,208.376a.738.738,0,1,1,.738.738.737.737,0,0,1-.738-.738" fill="#f5f5f5"/>
            <path id="Trazado_711990" data-name="Trazado 711990" d="M40.893,208.376a.738.738,0,1,1,.738.738.737.737,0,0,1-.738-.738" fill="#81d4fa"/>
            <path id="Trazado_711991" data-name="Trazado 711991" d="M31.566,208.376a.738.738,0,1,1,.738.738.738.738,0,0,1-.738-.738" fill="#81d4fa"/>
            <path id="Trazado_711992" data-name="Trazado 711992" d="M24.132,211.54a.738.738,0,1,1-.738-.738.738.738,0,0,1,.738.738" fill="#1a2e35"/>
            <path id="Trazado_711993" data-name="Trazado 711993" d="M27.389,211.54a.738.738,0,1,1-.738-.738.737.737,0,0,1,.738.738" fill="#1a2e35"/>
            <path id="Trazado_711994" data-name="Trazado 711994" d="M30.647,211.54a.738.738,0,1,1-.738-.738.737.737,0,0,1,.738.738" fill="#1a2e35"/>
            <path id="Trazado_711995" data-name="Trazado 711995" d="M33.9,211.54a.738.738,0,1,1-.738-.738.737.737,0,0,1,.738.738" fill="#1a2e35"/>
            <path id="Trazado_711996" data-name="Trazado 711996" d="M59.147,211.54a.738.738,0,1,1-.738-.738.737.737,0,0,1,.738.738" fill="#1a2e35"/>
            <path id="Trazado_711997" data-name="Trazado 711997" d="M62.469,211.54a.738.738,0,1,1-.738-.738.737.737,0,0,1,.738.738" fill="#1a2e35"/>
            <path id="Trazado_711998" data-name="Trazado 711998" d="M37.162,211.54a.738.738,0,1,1-.738-.738.737.737,0,0,1,.738.738" fill="#1a2e35"/>
            <path id="Trazado_711999" data-name="Trazado 711999" d="M53.159,211.54a.738.738,0,1,1-.738-.738.738.738,0,0,1,.738.738" fill="#1a2e35"/>
            <path id="Trazado_712000" data-name="Trazado 712000" d="M40.419,211.54a.738.738,0,1,1-.738-.738.737.737,0,0,1,.738.738" fill="#f5f5f5"/>
            <path id="Trazado_712001" data-name="Trazado 712001" d="M43.677,211.54a.738.738,0,1,1-.738-.738.737.737,0,0,1,.738.738" fill="#f5f5f5"/>
            <path id="Trazado_712002" data-name="Trazado 712002" d="M50.286,211.54a.738.738,0,1,1-.738-.738.737.737,0,0,1,.738.738" fill="#f5f5f5"/>
            <path id="Trazado_712003" data-name="Trazado 712003" d="M65.172,211.54a.738.738,0,1,1-.739-.738.738.738,0,0,1,.739.738" fill="#f5f5f5"/>
            <path id="Trazado_712004" data-name="Trazado 712004" d="M46.934,211.54a.738.738,0,1,1-.738-.738.737.737,0,0,1,.738.738" fill="#81d4fa"/>
            <path id="Trazado_712005" data-name="Trazado 712005" d="M56.261,211.54a.738.738,0,1,1-.738-.738.737.737,0,0,1,.738.738" fill="#81d4fa"/>
            <rect id="Rectángulo_347183" data-name="Rectángulo 347183" width="12.868" height="1.98" transform="translate(6.337 203.782)" fill="#1a2e35"/>
            <rect id="Rectángulo_347184" data-name="Rectángulo 347184" width="12.868" height="1.98" transform="translate(6.337 207.189)" fill="#1a2e35"/>
            <rect id="Rectángulo_347185" data-name="Rectángulo 347185" width="12.868" height="1.98" transform="translate(6.337 210.711)" fill="#1a2e35"/>
            <path id="Trazado_712006" data-name="Trazado 712006" d="M82.6,196.622l-13.815.026V180.434l13.815-.026Z" fill="#1a2e35"/>
            <path id="Trazado_712007" data-name="Trazado 712007" d="M82.6,216.5l-13.815.026V200.316L82.6,200.29Z" fill="#1a2e35"/>
            <rect id="Rectángulo_347186" data-name="Rectángulo 347186" width="12.868" height="1.98" transform="translate(6.81 170.837)" fill="#1a2e35"/>
            <path id="Trazado_712008" data-name="Trazado 712008" d="M82.6,176.907l-13.815.026V160.595l13.815-.026Z" fill="#1a2e35"/>
            <rect id="Rectángulo_347187" data-name="Rectángulo 347187" width="65.354" height="16.214" transform="translate(3.908 160.569)" fill="#375a64"/>
            <rect id="Rectángulo_347188" data-name="Rectángulo 347188" width="12.868" height="1.98" transform="translate(6.81 163.908)" fill="#1a2e35"/>
            <rect id="Rectángulo_347189" data-name="Rectángulo 347189" width="12.868" height="1.98" transform="translate(6.81 167.314)" fill="#1a2e35"/>
            <path id="Trazado_712009" data-name="Trazado 712009" d="M24.767,165.1a.738.738,0,1,1-.738-.737.738.738,0,0,1,.738.737" fill="#1a2e35"/>
            <path id="Trazado_712010" data-name="Trazado 712010" d="M28.024,165.1a.738.738,0,1,1-.738-.737.738.738,0,0,1,.738.737" fill="#1a2e35"/>
            <path id="Trazado_712011" data-name="Trazado 712011" d="M31.282,165.1a.738.738,0,1,1-.738-.737.738.738,0,0,1,.738.737" fill="#1a2e35"/>
            <path id="Trazado_712012" data-name="Trazado 712012" d="M34.54,165.1a.739.739,0,1,1-.739-.737.739.739,0,0,1,.739.737" fill="#1a2e35"/>
            <path id="Trazado_712013" data-name="Trazado 712013" d="M59.782,165.1a.738.738,0,1,1-.738-.737.738.738,0,0,1,.738.737" fill="#1a2e35"/>
            <path id="Trazado_712014" data-name="Trazado 712014" d="M63.1,165.1a.738.738,0,1,1-.738-.737.738.738,0,0,1,.738.737" fill="#1a2e35"/>
            <path id="Trazado_712015" data-name="Trazado 712015" d="M37.8,165.1a.738.738,0,1,1-.738-.737.738.738,0,0,1,.738.737" fill="#1a2e35"/>
            <path id="Trazado_712016" data-name="Trazado 712016" d="M53.794,165.1a.738.738,0,1,1-.738-.737.738.738,0,0,1,.738.737" fill="#1a2e35"/>
            <path id="Trazado_712017" data-name="Trazado 712017" d="M41.054,165.1a.738.738,0,1,1-.738-.737.738.738,0,0,1,.738.737" fill="#f5f5f5"/>
            <path id="Trazado_712018" data-name="Trazado 712018" d="M44.312,165.1a.738.738,0,1,1-.738-.737.738.738,0,0,1,.738.737" fill="#f5f5f5"/>
            <path id="Trazado_712019" data-name="Trazado 712019" d="M50.921,165.1a.738.738,0,1,1-.738-.737.738.738,0,0,1,.738.737" fill="#f5f5f5"/>
            <path id="Trazado_712020" data-name="Trazado 712020" d="M65.807,165.1a.739.739,0,1,1-.739-.737.738.738,0,0,1,.739.737" fill="#f5f5f5"/>
            <path id="Trazado_712021" data-name="Trazado 712021" d="M47.569,165.1a.738.738,0,1,1-.738-.737.738.738,0,0,1,.738.737" fill="#81d4fa"/>
            <path id="Trazado_712022" data-name="Trazado 712022" d="M56.9,165.1a.738.738,0,1,1-.738-.737.738.738,0,0,1,.738.737" fill="#81d4fa"/>
            <path id="Trazado_712023" data-name="Trazado 712023" d="M64.33,168.663a.738.738,0,1,1,.738.738.738.738,0,0,1-.738-.738" fill="#1a2e35"/>
            <path id="Trazado_712024" data-name="Trazado 712024" d="M61.073,168.663a.738.738,0,1,1,.738.738.738.738,0,0,1-.738-.738" fill="#1a2e35"/>
            <path id="Trazado_712025" data-name="Trazado 712025" d="M57.815,168.663a.738.738,0,1,1,.738.738.737.737,0,0,1-.738-.738" fill="#1a2e35"/>
            <path id="Trazado_712026" data-name="Trazado 712026" d="M54.558,168.663a.738.738,0,1,1,.738.738.737.737,0,0,1-.738-.738" fill="#1a2e35"/>
            <path id="Trazado_712027" data-name="Trazado 712027" d="M29.315,168.663a.738.738,0,1,1,.738.738.737.737,0,0,1-.738-.738" fill="#1a2e35"/>
            <path id="Trazado_712028" data-name="Trazado 712028" d="M25.993,168.663a.738.738,0,1,1,.738.738.738.738,0,0,1-.738-.738" fill="#1a2e35"/>
            <path id="Trazado_712029" data-name="Trazado 712029" d="M51.3,168.663a.738.738,0,1,1,.738.738.737.737,0,0,1-.738-.738" fill="#1a2e35"/>
            <path id="Trazado_712030" data-name="Trazado 712030" d="M35.3,168.663a.738.738,0,1,1,.738.738.737.737,0,0,1-.738-.738" fill="#1a2e35"/>
            <path id="Trazado_712031" data-name="Trazado 712031" d="M48.043,168.663a.738.738,0,1,1,.738.738.737.737,0,0,1-.738-.738" fill="#f5f5f5"/>
            <path id="Trazado_712032" data-name="Trazado 712032" d="M44.785,168.663a.738.738,0,1,1,.738.738.737.737,0,0,1-.738-.738" fill="#f5f5f5"/>
            <path id="Trazado_712033" data-name="Trazado 712033" d="M38.176,168.663a.738.738,0,1,1,.738.738.737.737,0,0,1-.738-.738" fill="#f5f5f5"/>
            <path id="Trazado_712034" data-name="Trazado 712034" d="M23.291,168.663a.738.738,0,1,1,.738.738.738.738,0,0,1-.738-.738" fill="#f5f5f5"/>
            <path id="Trazado_712035" data-name="Trazado 712035" d="M41.528,168.663a.738.738,0,1,1,.738.738.737.737,0,0,1-.738-.738" fill="#81d4fa"/>
            <path id="Trazado_712036" data-name="Trazado 712036" d="M32.2,168.663a.738.738,0,1,1,.738.738.737.737,0,0,1-.738-.738" fill="#81d4fa"/>
            <path id="Trazado_712037" data-name="Trazado 712037" d="M24.767,171.827a.738.738,0,1,1-.738-.738.737.737,0,0,1,.738.738" fill="#1a2e35"/>
            <path id="Trazado_712038" data-name="Trazado 712038" d="M28.024,171.827a.738.738,0,1,1-.738-.738.738.738,0,0,1,.738.738" fill="#1a2e35"/>
            <path id="Trazado_712039" data-name="Trazado 712039" d="M31.282,171.827a.738.738,0,1,1-.738-.738.737.737,0,0,1,.738.738" fill="#1a2e35"/>
            <path id="Trazado_712040" data-name="Trazado 712040" d="M34.54,171.827a.739.739,0,1,1-.739-.738.738.738,0,0,1,.739.738" fill="#1a2e35"/>
            <path id="Trazado_712041" data-name="Trazado 712041" d="M59.782,171.827a.738.738,0,1,1-.738-.738.738.738,0,0,1,.738.738" fill="#1a2e35"/>
            <path id="Trazado_712042" data-name="Trazado 712042" d="M63.1,171.827a.738.738,0,1,1-.738-.738.737.737,0,0,1,.738.738" fill="#1a2e35"/>
            <path id="Trazado_712043" data-name="Trazado 712043" d="M37.8,171.827a.738.738,0,1,1-.738-.738.738.738,0,0,1,.738.738" fill="#1a2e35"/>
            <path id="Trazado_712044" data-name="Trazado 712044" d="M53.794,171.827a.738.738,0,1,1-.738-.738.738.738,0,0,1,.738.738" fill="#1a2e35"/>
            <path id="Trazado_712045" data-name="Trazado 712045" d="M41.054,171.827a.738.738,0,1,1-.738-.738.738.738,0,0,1,.738.738" fill="#f5f5f5"/>
            <path id="Trazado_712046" data-name="Trazado 712046" d="M44.312,171.827a.738.738,0,1,1-.738-.738.737.737,0,0,1,.738.738" fill="#f5f5f5"/>
            <path id="Trazado_712047" data-name="Trazado 712047" d="M50.921,171.827a.738.738,0,1,1-.738-.738.737.737,0,0,1,.738.738" fill="#f5f5f5"/>
            <path id="Trazado_712048" data-name="Trazado 712048" d="M65.807,171.827a.738.738,0,1,1-.739-.738.738.738,0,0,1,.739.738" fill="#f5f5f5"/>
            <path id="Trazado_712049" data-name="Trazado 712049" d="M47.569,171.827a.738.738,0,1,1-.738-.738.737.737,0,0,1,.738.738" fill="#81d4fa"/>
            <path id="Trazado_712050" data-name="Trazado 712050" d="M56.9,171.827a.738.738,0,1,1-.738-.738.738.738,0,0,1,.738.738" fill="#81d4fa"/>
            <path id="Trazado_712051" data-name="Trazado 712051" d="M92.739,91.541s-.094.01-.276.016l-.811.016-3.12.032-11.495.062-38.093.092.127-.153v1.722c-.015,18.439-.028,35.129-.037,47.222-.017,6.034-.031,10.92-.041,14.31-.01,1.681-.018,2.99-.023,3.891-.006.437-.01.772-.013,1.012s-.013.345-.013.345-.008-.117-.013-.345-.007-.575-.012-1.012c-.006-.9-.014-2.21-.024-3.891-.009-3.39-.023-8.276-.04-14.31-.01-12.093-.023-28.783-.037-47.222V91.453H77.037l11.495.035,3.12.024.811.014c.182,0,.276.015.276.015" fill="#1a2e35"/>
            <path id="Trazado_712052" data-name="Trazado 712052" d="M94.535,92.132a2.145,2.145,0,1,1-2.145-2.145,2.144,2.144,0,0,1,2.145,2.145" fill="#1a2e35"/>
            <path id="Trazado_712053" data-name="Trazado 712053" d="M57.43,110.583,68.571,83.7a1.473,1.473,0,0,0-1.425-2.221H64.9a1.434,1.434,0,0,1-1.6-1.29l-.074-.988a1.437,1.437,0,0,0-1.6-1.291H50.984A3.729,3.729,0,0,0,48.518,79l-.865.838a3.726,3.726,0,0,1-2.464,1.091H31.624a3.786,3.786,0,0,0-3.24,2.221L17.34,110.583Z" fill="#81d4fa"/>
            <g id="Grupo_1003501" data-name="Grupo 1003501" opacity="0.3">
              <g id="Grupo_1003500" data-name="Grupo 1003500">
                <g id="Grupo_1003499" data-name="Grupo 1003499" clip-path="url(#clip-path-4)">
                  <path id="Trazado_712054" data-name="Trazado 712054" d="M57.43,110.583,68.571,83.7a1.473,1.473,0,0,0-1.425-2.221H64.9a1.434,1.434,0,0,1-1.6-1.29l-.074-.988a1.437,1.437,0,0,0-1.6-1.291H50.984A3.729,3.729,0,0,0,48.518,79l-.865.838a3.726,3.726,0,0,1-2.464,1.091H31.624a3.786,3.786,0,0,0-3.24,2.221L17.34,110.583Z"/>
                </g>
              </g>
            </g>
            <path id="Trazado_712055" data-name="Trazado 712055" d="M59.271,101.454l4.2-16.245a1.64,1.64,0,0,0-1.4-2.143H29.14a1.5,1.5,0,0,0-1.4,1.21l-6.116,24.452c-.269,1.073.161,1.717,1.137,1.705l33.136.01a1.5,1.5,0,0,0,1.385-1.2Z" fill="#e1e1e1"/>
            <path id="Trazado_712056" data-name="Trazado 712056" d="M56.995,109.848l1.79-25.583a1.569,1.569,0,0,0-1.565-1.678H23.1v27.261Z" fill="#ececec"/>
            <path id="Trazado_712057" data-name="Trazado 712057" d="M57.377,110.433l-4.06-26.374a1.889,1.889,0,0,0-1.855-1.473H16.942a1.866,1.866,0,0,0-1.743,2.6l7.454,24.136Z" fill="#fafafa"/>
            <path id="Trazado_712058" data-name="Trazado 712058" d="M57.43,110.571l-8.372-24.7a2.479,2.479,0,0,0-2.328-1.717H11.142A1.739,1.739,0,0,0,9.553,86.46l7.787,24.123Z" fill="#81d4fa"/>
            <path id="Trazado_712059" data-name="Trazado 712059" d="M388.03,216.531c0,.084-86.362.151-192.871.151-106.546,0-192.889-.067-192.889-.151s86.343-.151,192.889-.151c106.509,0,192.871.067,192.871.151" fill="#1a2e35"/>
          </g>
        </g>
      </g>
    </g>
  </g>
</svg>
