<svg xmlns="http://www.w3.org/2000/svg" xmlns:xlink="http://www.w3.org/1999/xlink" width="135" height="136" viewBox="0 0 135 136">
  <defs>
    <clipPath id="clip-path">
      <rect id="Rectángulo_350887" data-name="Rectángulo 350887" width="63" height="63" transform="translate(-0.407 0.215)" fill="none"/>
    </clipPath>
  </defs>
  <g id="Grupo_1008245" data-name="Grupo 1008245" transform="translate(-833 -1738)">
    <ellipse id="Elipse_154" data-name="Elipse 154" cx="57.5" cy="58" rx="57.5" ry="58" transform="translate(843 1748)" fill="#fff"/>
    <g id="Elipse_157" data-name="Elipse 157" transform="translate(843 1748)" fill="none" stroke="#fff" stroke-linejoin="round" stroke-width="10" opacity="0.25">
      <ellipse cx="57.5" cy="58" rx="57.5" ry="58" stroke="none"/>
      <ellipse cx="57.5" cy="58" rx="62.5" ry="63" fill="none"/>
    </g>
    <g id="Grupo_1008243" data-name="Grupo 1008243" transform="translate(869.407 1774.785)">
      <rect id="Rectángulo_350877" data-name="Rectángulo 350877" width="54.365" height="35.546" transform="translate(4.182 1.045)" fill="#e4f2f9"/>
      <g id="Grupo_1008242" data-name="Grupo 1008242">
        <g id="Grupo_1008241" data-name="Grupo 1008241" clip-path="url(#clip-path)">
          <path id="Trazado_719972" data-name="Trazado 719972" d="M5.682,52.5H57.956a4.183,4.183,0,0,1,4.182,4.182v20.91H1.5V56.682A4.183,4.183,0,0,1,5.682,52.5" transform="translate(-0.455 -15.908)" fill="#ff9d00"/>
          <path id="Trazado_719973" data-name="Trazado 719973" d="M50.319,10.909A9.409,9.409,0,1,1,40.909,1.5a9.409,9.409,0,0,1,9.409,9.409" transform="translate(-9.545 -0.455)" fill="#f6bf9b"/>
          <path id="Trazado_719974" data-name="Trazado 719974" d="M36.864,28.5h6.273A8.363,8.363,0,0,1,51.5,36.864v8.364h-23V36.864A8.363,8.363,0,0,1,36.864,28.5" transform="translate(-8.636 -8.636)" fill="#81d4fa"/>
          <path id="Trazado_719975" data-name="Trazado 719975" d="M36.864,28.5V45.228H28.5V36.864A8.363,8.363,0,0,1,36.864,28.5" transform="translate(-8.636 -8.636)" fill="#fff"/>
          <path id="Trazado_719976" data-name="Trazado 719976" d="M57.864,45.228H49.5V28.5a8.363,8.363,0,0,1,8.364,8.364Z" transform="translate(-14.999 -8.636)" fill="#fff"/>
          <rect id="Rectángulo_350878" data-name="Rectángulo 350878" width="6.273" height="10.455" transform="translate(28.228 26.137)" fill="#cfdfe8"/>
          <path id="Trazado_719977" data-name="Trazado 719977" d="M73.591,29.091H61.045a1.045,1.045,0,0,1,0-2.091H73.591a1.045,1.045,0,1,1,0,2.091" transform="translate(-18.181 -8.181)" fill="#c1cfdb"/>
          <rect id="Rectángulo_350879" data-name="Rectángulo 350879" width="4.182" height="4.182" transform="translate(8.364 15.682)" fill="#7d8d9c"/>
          <rect id="Rectángulo_350880" data-name="Rectángulo 350880" width="4.182" height="4.182" transform="translate(13.591 6.273)" fill="#7d8d9c"/>
          <rect id="Rectángulo_350881" data-name="Rectángulo 350881" width="4.182" height="4.182" transform="translate(11.5 24.046)" fill="#7d8d9c"/>
          <rect id="Rectángulo_350882" data-name="Rectángulo 350882" width="4.182" height="4.182" transform="translate(47.047 7.318)" fill="#7d8d9c"/>
          <rect id="Rectángulo_350883" data-name="Rectángulo 350883" width="4.182" height="4.182" transform="translate(11.5 32.41)" fill="#7d8d9c"/>
          <rect id="Rectángulo_350884" data-name="Rectángulo 350884" width="4.182" height="4.182" transform="translate(47.047 32.41)" fill="#7d8d9c"/>
          <rect id="Rectángulo_350885" data-name="Rectángulo 350885" width="4.182" height="4.182" transform="translate(47.047 24.046)" fill="#7d8d9c"/>
          <path id="Trazado_719978" data-name="Trazado 719978" d="M44.364,65.682V61.5H40.182v4.182H36v4.182h4.182v4.182h4.182V69.864h4.182V65.682Z" transform="translate(-10.908 -18.635)" fill="#e9686a"/>
          <path id="Trazado_719979" data-name="Trazado 719979" d="M24.091,17.091H11.545a1.045,1.045,0,1,1,0-2.091H24.091a1.045,1.045,0,0,1,0,2.091" transform="translate(-3.182 -4.545)" fill="#c1cfdb"/>
          <path id="Trazado_719980" data-name="Trazado 719980" d="M22,29.091H11.545a1.045,1.045,0,1,1,0-2.091H22a1.045,1.045,0,0,1,0,2.091" transform="translate(-3.182 -8.181)" fill="#c1cfdb"/>
          <path id="Trazado_719981" data-name="Trazado 719981" d="M72.091,17.091H59.545a1.045,1.045,0,0,1,0-2.091H72.091a1.045,1.045,0,0,1,0,2.091" transform="translate(-17.726 -4.545)" fill="#c1cfdb"/>
          <path id="Trazado_719982" data-name="Trazado 719982" d="M22,41.091H11.545a1.045,1.045,0,1,1,0-2.091H22a1.045,1.045,0,1,1,0,2.091" transform="translate(-3.182 -11.817)" fill="#c1cfdb"/>
          <path id="Trazado_719983" data-name="Trazado 719983" d="M73,41.091H62.545a1.045,1.045,0,0,1,0-2.091H73a1.045,1.045,0,0,1,0,2.091" transform="translate(-18.635 -11.817)" fill="#c1cfdb"/>
          <rect id="Rectángulo_350886" data-name="Rectángulo 350886" width="4.182" height="4.182" transform="translate(44.956 15.682)" fill="#7d8d9c"/>
          <path id="Trazado_719984" data-name="Trazado 719984" d="M59.593,35.99V1.045A1.046,1.046,0,0,0,58.547,0H4.182A1.046,1.046,0,0,0,3.136,1.045V35.99A5.227,5.227,0,0,0,0,40.774v20.91a1.046,1.046,0,0,0,1.045,1.045H61.684a1.046,1.046,0,0,0,1.045-1.045V40.774a5.227,5.227,0,0,0-3.136-4.784M57.5,35.546H52.274V32.41a1.046,1.046,0,0,0-1.045-1.045H47.047A1.046,1.046,0,0,0,46,32.41v3.136H43.91V29.274H54.365a1.045,1.045,0,0,0,0-2.091H52.274V24.046A1.046,1.046,0,0,0,51.229,23H47.047A1.046,1.046,0,0,0,46,24.046v3.136H43.91a.459.459,0,0,0-.06.013,9.423,9.423,0,0,0-6.757-8,10.559,10.559,0,0,0,1.882-1.568A10.387,10.387,0,0,0,41.61,12.5a1.02,1.02,0,0,0,.209.042H54.365a1.045,1.045,0,0,0,0-2.091H52.274V7.318a1.046,1.046,0,0,0-1.045-1.045H47.047A1.046,1.046,0,0,0,46,7.318v3.136H41.809c0-.1.01-.209.006-.319a10.436,10.436,0,0,0-4.21-8.045H57.5Zm-7.318,0H48.092V33.455h2.091Zm-20.91-8.364h4.182v8.364H29.274ZM20.91,35.546V28.228c0-.241.014-.481.037-.717.007-.078.022-.153.031-.231.021-.157.042-.314.072-.466.017-.09.04-.178.061-.266.033-.137.066-.275.1-.409.027-.091.06-.181.091-.27.043-.128.088-.254.138-.379.036-.09.076-.178.116-.266.054-.119.111-.238.171-.354.045-.086.091-.171.139-.256.065-.112.132-.224.209-.334.051-.081.1-.16.159-.238.077-.1.155-.215.238-.314.056-.073.113-.146.173-.216.089-.1.183-.209.277-.3.061-.063.119-.128.182-.19.1-.1.215-.2.327-.3.058-.05.114-.1.174-.153.143-.117.291-.226.443-.331.034-.024.064-.05.1-.072q.28-.19.58-.353c.05-.028.1-.05.156-.077.149-.077.3-.153.456-.22.077-.033.157-.061.233-.091.135-.053.27-.1.407-.149.09-.029.182-.052.273-.079.13-.036.262-.072.4-.1.1-.022.2-.038.295-.056.079-.015.159-.026.238-.037V35.546Zm10.2-33.455h.256a8.393,8.393,0,1,1-.256,0M29.274,20.91h4.182v4.182H29.274Zm6.273,5.227V20.993c.079.011.16.022.238.037.1.017.2.034.295.056.134.029.266.065.4.105.091.026.183.049.273.078.137.045.272.1.407.149.077.031.156.058.234.091.155.067.306.142.456.22.051.027.1.049.155.077q.3.163.58.353c.035.022.065.048.1.072a5.219,5.219,0,0,1,.443.331c.06.048.116.1.174.153.112.1.223.194.328.3.063.061.121.126.182.19.094.1.188.2.277.3.06.07.116.144.173.216.083.1.162.21.238.314.056.078.1.158.159.238.071.109.139.222.209.335.048.084.094.169.139.255.061.116.118.235.171.354.04.089.08.176.116.266.05.125.1.252.138.379.031.09.064.18.091.27.04.135.073.272.105.409.021.089.044.176.061.266.03.153.051.314.072.466.01.077.024.153.032.231.023.236.036.475.036.717v7.318H35.546Zm14.637,1.045H48.092V25.092h2.091Zm0-16.728H48.092V8.364h2.091ZM5.227,2.091H25.1a10.608,10.608,0,0,0-1.352,1.2,10.374,10.374,0,0,0-2.831,7.166h-2.1V6.273a1.046,1.046,0,0,0-1.045-1.045H13.591a1.046,1.046,0,0,0-1.045,1.045v4.182H8.364a1.045,1.045,0,1,0,0,2.091H20.91a1.023,1.023,0,0,0,.209-.043,10.458,10.458,0,0,0,4.506,6.691,9.425,9.425,0,0,0-6.75,8,.549.549,0,0,0-.056-.015H16.728V24.046A1.046,1.046,0,0,0,15.682,23H11.5a1.046,1.046,0,0,0-1.045,1.045v3.136H8.364a1.045,1.045,0,1,0,0,2.091H18.819v6.273H16.728V32.41a1.046,1.046,0,0,0-1.045-1.045H11.5a1.046,1.046,0,0,0-1.045,1.045v3.136H5.227Zm9.409,5.227h2.091V9.409H14.637Zm0,19.864H12.546V25.092h2.091Zm0,8.364H12.546V33.455h2.091Zm46,25.092H2.091V40.774a3.137,3.137,0,0,1,3.136-3.136H57.5a3.137,3.137,0,0,1,3.136,3.136Z"/>
          <path id="Trazado_719985" data-name="Trazado 719985" d="M68.364,25.182V22.045A1.046,1.046,0,0,0,67.318,21H63.136a1.046,1.046,0,0,0-1.045,1.045v3.136H61.045a1.045,1.045,0,0,0,0,2.091H73.591a1.045,1.045,0,1,0,0-2.091Zm-4.182-2.091h2.091v2.091H64.182Z" transform="translate(-18.181 -6.363)"/>
          <path id="Trazado_719986" data-name="Trazado 719986" d="M11.545,27.273H22a1.045,1.045,0,0,0,0-2.091H16.773V22.045A1.046,1.046,0,0,0,15.727,21H11.545A1.046,1.046,0,0,0,10.5,22.045v4.182a1.046,1.046,0,0,0,1.045,1.045m1.045-4.182h2.091v2.091H12.591Z" transform="translate(-3.182 -6.363)"/>
          <path id="Trazado_719987" data-name="Trazado 719987" d="M48.091,64.182H44.955V61.045A1.046,1.046,0,0,0,43.909,60H39.727a1.046,1.046,0,0,0-1.045,1.045v3.136H35.545A1.046,1.046,0,0,0,34.5,65.227v4.182a1.046,1.046,0,0,0,1.045,1.045h3.136v3.136a1.046,1.046,0,0,0,1.045,1.045h4.182a1.046,1.046,0,0,0,1.045-1.045V70.455h3.136a1.046,1.046,0,0,0,1.045-1.045V65.227a1.046,1.046,0,0,0-1.045-1.045m-1.045,4.182H43.909a1.046,1.046,0,0,0-1.045,1.045v3.136H40.773V69.409a1.046,1.046,0,0,0-1.045-1.045H36.591V66.273h3.136a1.046,1.046,0,0,0,1.045-1.045V62.091h2.091v3.136a1.046,1.046,0,0,0,1.045,1.045h3.136Z" transform="translate(-10.454 -18.181)"/>
        </g>
      </g>
    </g>
  </g>
</svg>
