<svg xmlns="http://www.w3.org/2000/svg" xmlns:xlink="http://www.w3.org/1999/xlink" width="1048" height="638" viewBox="0 0 1048 638">
  <defs>
    <filter id="Trazado_720464" x="0" y="0" width="1048" height="638" filterUnits="userSpaceOnUse">
      <feOffset dy="3" input="SourceAlpha"/>
      <feGaussianBlur stdDeviation="3" result="blur"/>
      <feFlood flood-opacity="0.161"/>
      <feComposite operator="in" in2="blur"/>
      <feComposite in="SourceGraphic"/>
    </filter>
  </defs>
  <g id="Grupo_1008291" data-name="Grupo 1008291" transform="translate(-276 -1782)">
    <g transform="matrix(1, 0, 0, 1, 276, 1782)" filter="url(#Trazado_720464)">
      <g id="Trazado_720464-2" data-name="Trazado 720464" transform="translate(9 6)" fill="#fff">
        <path d="M 1029.5 619.5 L 0.5 619.5 L 0.5 0.5 L 1029.5 0.5 L 1029.5 619.5 Z" stroke="none"/>
        <path d="M 1 1 L 1 619 L 1029 619 L 1029 1 L 1 1 M 0 0 L 1030 0 L 1030 620 L 0 620 L 0 0 Z" stroke="none" fill="#12263f"/>
      </g>
    </g>
    <path id="Trazado_712761" data-name="Trazado 712761" d="M0,0H1030V40H0Z" transform="translate(285 1788.5)" fill="#464646" stroke="#12263f" stroke-width="1"/>
    <path id="Trazado_720465" data-name="Trazado 720465" d="M213.852,11.211A4.025,4.025,0,0,1,212.5,14.1a4.76,4.76,0,0,1-3.223,1.055,4.281,4.281,0,0,1-3.441-1.473,6.038,6.038,0,0,1-1.254-4.043v-.7a6.819,6.819,0,0,1,.578-2.891,4.332,4.332,0,0,1,1.652-1.918,5.164,5.164,0,0,1,5.668.387,4.326,4.326,0,0,1,1.391,2.961h-2.344a2.376,2.376,0,0,0-.613-1.6,2.271,2.271,0,0,0-1.605-.5,1.991,1.991,0,0,0-1.754.84,4.707,4.707,0,0,0-.6,2.605V9.7a5.038,5.038,0,0,0,.559,2.7,1.954,1.954,0,0,0,1.762.852,2.314,2.314,0,0,0,1.621-.5,2.241,2.241,0,0,0,.613-1.535Zm1.039-.516a5.013,5.013,0,0,1,.484-2.242A3.546,3.546,0,0,1,216.77,6.93a4.069,4.069,0,0,1,2.113-.539,3.849,3.849,0,0,1,2.793,1.047,4.2,4.2,0,0,1,1.207,2.844l.016.578a4.418,4.418,0,0,1-1.086,3.121,4.209,4.209,0,0,1-5.832,0,4.5,4.5,0,0,1-1.09-3.187Zm2.258.16A3.16,3.16,0,0,0,217.6,12.7a1.628,1.628,0,0,0,2.578.008,3.457,3.457,0,0,0,.461-2.015,3.128,3.128,0,0,0-.461-1.831,1.5,1.5,0,0,0-1.3-.649,1.474,1.474,0,0,0-1.281.646A3.516,3.516,0,0,0,217.148,10.856Zm9.219-4.309.07.977a2.951,2.951,0,0,1,2.43-1.133,2.453,2.453,0,0,1,2,.789,3.682,3.682,0,0,1,.672,2.359V15h-2.258V9.581a1.47,1.47,0,0,0-.312-1.045,1.4,1.4,0,0,0-1.039-.325,1.553,1.553,0,0,0-1.43.814V15h-2.258V6.547Zm9.586-2.078V6.547H237.4V8.2h-1.445v4.219a1.007,1.007,0,0,0,.18.672.9.9,0,0,0,.688.2,3.6,3.6,0,0,0,.664-.055v1.711a4.648,4.648,0,0,1-1.367.2,2.156,2.156,0,0,1-2.422-2.4V8.2h-1.234V6.547H233.7V4.469Zm7.453,4.2a6.134,6.134,0,0,0-.812-.062,1.654,1.654,0,0,0-1.68.867V15h-2.258V6.547h2.133l.063,1.008a2.092,2.092,0,0,1,1.883-1.164,2.366,2.366,0,0,1,.7.1Zm.453,2.031a5.013,5.013,0,0,1,.484-2.242,3.546,3.546,0,0,1,1.395-1.523,4.069,4.069,0,0,1,2.113-.539,3.849,3.849,0,0,1,2.793,1.047,4.2,4.2,0,0,1,1.207,2.844l.016.578a4.418,4.418,0,0,1-1.086,3.121,4.209,4.209,0,0,1-5.832,0,4.5,4.5,0,0,1-1.09-3.187Zm2.258.16a3.16,3.16,0,0,0,.453,1.843,1.628,1.628,0,0,0,2.578.008,3.457,3.457,0,0,0,.461-2.015,3.128,3.128,0,0,0-.461-1.831,1.5,1.5,0,0,0-1.3-.649,1.474,1.474,0,0,0-1.281.646A3.516,3.516,0,0,0,246.117,10.856ZM255.641,15h-2.266V3h2.266Zm5.492-4.289a5.094,5.094,0,0,1,.887-3.148,2.877,2.877,0,0,1,2.426-1.172,2.589,2.589,0,0,1,2.039.922V3h2.266V15h-2.039l-.109-.9a2.657,2.657,0,0,1-2.172,1.055,2.869,2.869,0,0,1-2.395-1.176A5.258,5.258,0,0,1,261.133,10.711Zm2.258.161A3.355,3.355,0,0,0,263.8,12.7a1.348,1.348,0,0,0,1.2.636,1.51,1.51,0,0,0,1.477-.887V9.1a1.489,1.489,0,0,0-1.461-.887Q263.391,8.211,263.391,10.872Zm11,4.285a4.15,4.15,0,0,1-3.027-1.141,4.054,4.054,0,0,1-1.168-3.039v-.219a5.106,5.106,0,0,1,.492-2.277,3.612,3.612,0,0,1,1.395-1.547,3.914,3.914,0,0,1,2.059-.543,3.508,3.508,0,0,1,2.73,1.094,4.444,4.444,0,0,1,1,3.1v.922h-5.383a2.1,2.1,0,0,0,.66,1.328,2,2,0,0,0,1.395.5,2.437,2.437,0,0,0,2.039-.945l1.109,1.242a3.389,3.389,0,0,1-1.375,1.121A4.511,4.511,0,0,1,274.391,15.156Zm-.258-6.945a1.411,1.411,0,0,0-1.09.455,2.357,2.357,0,0,0-.535,1.3h3.141V9.788a1.681,1.681,0,0,0-.406-1.165A1.456,1.456,0,0,0,274.133,8.211Zm15.992,1.844h-4.5v3.063h5.281V15h-7.625V3.625h7.609v1.9h-5.266V8.234h4.5Zm5.227-.984,1.422-2.523h2.414l-2.406,4.141L299.289,15h-2.422l-1.508-2.656L293.859,15h-2.43l2.508-4.312-2.4-4.141h2.422Zm7.3,5.93h-2.266V6.547h2.266Zm-2.4-10.641a1.112,1.112,0,0,1,.34-.836,1.465,1.465,0,0,1,1.848,0,1.105,1.105,0,0,1,.344.836,1.108,1.108,0,0,1-.348.844,1.448,1.448,0,0,1-1.836,0A1.108,1.108,0,0,1,300.258,4.359Zm8.836,8.3a.727.727,0,0,0-.41-.652,4.659,4.659,0,0,0-1.316-.426q-3.016-.633-3.016-2.562a2.323,2.323,0,0,1,.934-1.879,3.766,3.766,0,0,1,2.441-.754,4.053,4.053,0,0,1,2.574.758,2.388,2.388,0,0,1,.965,1.969h-2.258a1.092,1.092,0,0,0-.312-.8A1.322,1.322,0,0,0,307.719,8a1.351,1.351,0,0,0-.883.258.814.814,0,0,0-.312.656.7.7,0,0,0,.355.605,3.657,3.657,0,0,0,1.2.4,9.8,9.8,0,0,1,1.422.379,2.336,2.336,0,0,1,1.789,2.273,2.2,2.2,0,0,1-.992,1.871,4.28,4.28,0,0,1-2.562.715,4.47,4.47,0,0,1-1.887-.379,3.166,3.166,0,0,1-1.293-1.039,2.414,2.414,0,0,1-.469-1.426h2.141a1.179,1.179,0,0,0,.445.922,1.766,1.766,0,0,0,1.109.32,1.635,1.635,0,0,0,.98-.246A.766.766,0,0,0,309.094,12.664Zm6.352-8.2V6.547h1.445V8.2h-1.445v4.219a1.007,1.007,0,0,0,.18.672.9.9,0,0,0,.688.2,3.6,3.6,0,0,0,.664-.055v1.711a4.648,4.648,0,0,1-1.367.2,2.156,2.156,0,0,1-2.422-2.4V8.2h-1.234V6.547h1.234V4.469Zm6.594,10.688a4.15,4.15,0,0,1-3.027-1.141,4.054,4.054,0,0,1-1.168-3.039v-.219a5.106,5.106,0,0,1,.492-2.277,3.612,3.612,0,0,1,1.395-1.547,3.914,3.914,0,0,1,2.059-.543,3.508,3.508,0,0,1,2.73,1.094,4.444,4.444,0,0,1,1,3.1v.922h-5.383a2.1,2.1,0,0,0,.66,1.328,2,2,0,0,0,1.395.5,2.437,2.437,0,0,0,2.039-.945l1.109,1.242a3.389,3.389,0,0,1-1.375,1.121A4.511,4.511,0,0,1,322.039,15.156Zm-.258-6.945a1.411,1.411,0,0,0-1.09.455,2.357,2.357,0,0,0-.535,1.3H323.3V9.788a1.681,1.681,0,0,0-.406-1.165A1.456,1.456,0,0,0,321.781,8.211Zm7.094-1.664.07.977a2.951,2.951,0,0,1,2.43-1.133,2.453,2.453,0,0,1,2,.789,3.681,3.681,0,0,1,.672,2.359V15h-2.258V9.581a1.47,1.47,0,0,0-.312-1.045,1.4,1.4,0,0,0-1.039-.325,1.553,1.553,0,0,0-1.43.814V15H326.75V6.547Zm10.4,6.789a1.481,1.481,0,0,0,1.016-.344,1.2,1.2,0,0,0,.406-.914h2.117a2.9,2.9,0,0,1-.469,1.574,3.093,3.093,0,0,1-1.262,1.109,3.949,3.949,0,0,1-1.77.395A3.67,3.67,0,0,1,336.453,14a4.56,4.56,0,0,1-1.047-3.184v-.148a4.508,4.508,0,0,1,1.039-3.117A3.627,3.627,0,0,1,339.3,6.391a3.555,3.555,0,0,1,2.543.9,3.2,3.2,0,0,1,.973,2.4H340.7a1.551,1.551,0,0,0-.406-1.072,1.51,1.51,0,0,0-2.223.163,3.333,3.333,0,0,0-.4,1.866v.235a3.375,3.375,0,0,0,.4,1.878A1.377,1.377,0,0,0,339.273,13.336ZM346.484,15h-2.266V6.547h2.266Zm-2.4-10.641a1.112,1.112,0,0,1,.34-.836,1.465,1.465,0,0,1,1.848,0,1.105,1.105,0,0,1,.344.836,1.108,1.108,0,0,1-.348.844,1.448,1.448,0,0,1-1.836,0A1.108,1.108,0,0,1,344.086,4.359ZM353.242,15a2.508,2.508,0,0,1-.227-.758,2.732,2.732,0,0,1-2.133.914,3,3,0,0,1-2.059-.719,2.312,2.312,0,0,1-.816-1.812,2.389,2.389,0,0,1,1-2.062,4.915,4.915,0,0,1,2.879-.727h1.039V9.352a1.393,1.393,0,0,0-.3-.937,1.183,1.183,0,0,0-.949-.352,1.345,1.345,0,0,0-.895.273.929.929,0,0,0-.324.75H348.2a2.268,2.268,0,0,1,.453-1.359,3,3,0,0,1,1.281-.98,4.669,4.669,0,0,1,1.859-.355,3.689,3.689,0,0,1,2.48.785,2.747,2.747,0,0,1,.918,2.207v3.664a4.041,4.041,0,0,0,.336,1.82V15Zm-1.867-1.57a1.945,1.945,0,0,0,.922-.223,1.462,1.462,0,0,0,.625-.6V11.156h-.844q-1.7,0-1.8,1.172l-.008.133a.9.9,0,0,0,.3.7A1.153,1.153,0,0,0,351.375,13.43Zm10.125-.766a.727.727,0,0,0-.41-.652,4.659,4.659,0,0,0-1.316-.426q-3.016-.633-3.016-2.562a2.323,2.323,0,0,1,.934-1.879,3.766,3.766,0,0,1,2.441-.754,4.053,4.053,0,0,1,2.574.758,2.388,2.388,0,0,1,.965,1.969h-2.258a1.092,1.092,0,0,0-.312-.8A1.322,1.322,0,0,0,360.125,8a1.351,1.351,0,0,0-.883.258.814.814,0,0,0-.312.656.7.7,0,0,0,.355.605,3.657,3.657,0,0,0,1.2.4,9.8,9.8,0,0,1,1.422.379A2.336,2.336,0,0,1,363.7,12.57a2.2,2.2,0,0,1-.992,1.871,4.28,4.28,0,0,1-2.562.715,4.47,4.47,0,0,1-1.887-.379,3.166,3.166,0,0,1-1.293-1.039,2.414,2.414,0,0,1-.469-1.426h2.141a1.179,1.179,0,0,0,.445.922,1.766,1.766,0,0,0,1.109.32,1.635,1.635,0,0,0,.98-.246A.766.766,0,0,0,361.5,12.664Zm11.523,2.492A4.15,4.15,0,0,1,370,14.016a4.054,4.054,0,0,1-1.168-3.039v-.219a5.106,5.106,0,0,1,.492-2.277,3.612,3.612,0,0,1,1.395-1.547,3.914,3.914,0,0,1,2.059-.543,3.508,3.508,0,0,1,2.73,1.094,4.444,4.444,0,0,1,1,3.1v.922h-5.383a2.1,2.1,0,0,0,.66,1.328,2,2,0,0,0,1.395.5,2.437,2.437,0,0,0,2.039-.945l1.109,1.242a3.389,3.389,0,0,1-1.375,1.121A4.511,4.511,0,0,1,373.023,15.156Zm-.258-6.945a1.411,1.411,0,0,0-1.09.455,2.357,2.357,0,0,0-.535,1.3h3.141V9.788a1.681,1.681,0,0,0-.406-1.165A1.456,1.456,0,0,0,372.766,8.211Zm7.094-1.664.07.977a2.951,2.951,0,0,1,2.43-1.133,2.453,2.453,0,0,1,2,.789,3.681,3.681,0,0,1,.672,2.359V15h-2.258V9.581a1.47,1.47,0,0,0-.312-1.045,1.4,1.4,0,0,0-1.039-.325,1.553,1.553,0,0,0-1.43.814V15h-2.258V6.547Zm14.758,8.609a4.15,4.15,0,0,1-3.027-1.141,4.054,4.054,0,0,1-1.168-3.039v-.219a5.106,5.106,0,0,1,.492-2.277,3.612,3.612,0,0,1,1.395-1.547,3.914,3.914,0,0,1,2.059-.543,3.508,3.508,0,0,1,2.73,1.094,4.444,4.444,0,0,1,1,3.1v.922h-5.383a2.1,2.1,0,0,0,.66,1.328,2,2,0,0,0,1.395.5,2.437,2.437,0,0,0,2.039-.945l1.109,1.242a3.389,3.389,0,0,1-1.375,1.121A4.511,4.511,0,0,1,394.617,15.156Zm-.258-6.945a1.411,1.411,0,0,0-1.09.455,2.357,2.357,0,0,0-.535,1.3h3.141V9.788a1.681,1.681,0,0,0-.406-1.165A1.456,1.456,0,0,0,394.359,8.211Zm7.4,6.789h-2.266V3h2.266Zm8.484,0H407.9V3.625h2.344Zm4.1-8.453.07.977a2.951,2.951,0,0,1,2.43-1.133,2.453,2.453,0,0,1,2,.789,3.681,3.681,0,0,1,.672,2.359V15h-2.258V9.581a1.47,1.47,0,0,0-.312-1.045,1.4,1.4,0,0,0-1.039-.325,1.553,1.553,0,0,0-1.43.814V15h-2.258V6.547Zm10.047,5.7,1.57-5.7h2.359L425.469,15h-2.156l-2.852-8.453h2.359Zm8.711,2.914a4.15,4.15,0,0,1-3.027-1.141,4.054,4.054,0,0,1-1.168-3.039v-.219A5.106,5.106,0,0,1,429.4,8.48a3.612,3.612,0,0,1,1.395-1.547,3.914,3.914,0,0,1,2.059-.543,3.508,3.508,0,0,1,2.73,1.094,4.444,4.444,0,0,1,1,3.1v.922H431.2a2.1,2.1,0,0,0,.66,1.328,2,2,0,0,0,1.395.5,2.437,2.437,0,0,0,2.039-.945l1.109,1.242a3.389,3.389,0,0,1-1.375,1.121A4.511,4.511,0,0,1,433.1,15.156Zm-.258-6.945a1.411,1.411,0,0,0-1.09.455,2.357,2.357,0,0,0-.535,1.3h3.141V9.788a1.681,1.681,0,0,0-.406-1.165A1.456,1.456,0,0,0,432.844,8.211Zm7.094-1.664.07.977a2.951,2.951,0,0,1,2.43-1.133,2.453,2.453,0,0,1,2,.789,3.681,3.681,0,0,1,.672,2.359V15h-2.258V9.581a1.47,1.47,0,0,0-.312-1.045,1.4,1.4,0,0,0-1.039-.325,1.553,1.553,0,0,0-1.43.814V15h-2.258V6.547Zm9.586-2.078V6.547h1.445V8.2h-1.445v4.219a1.007,1.007,0,0,0,.18.672.9.9,0,0,0,.688.2,3.6,3.6,0,0,0,.664-.055v1.711a4.648,4.648,0,0,1-1.367.2,2.156,2.156,0,0,1-2.422-2.4V8.2h-1.234V6.547h1.234V4.469ZM457.125,15a2.508,2.508,0,0,1-.227-.758,2.732,2.732,0,0,1-2.133.914,3,3,0,0,1-2.059-.719,2.312,2.312,0,0,1-.816-1.812,2.389,2.389,0,0,1,1-2.062,4.915,4.915,0,0,1,2.879-.727H456.8V9.352a1.393,1.393,0,0,0-.3-.937,1.183,1.183,0,0,0-.949-.352,1.345,1.345,0,0,0-.895.273.929.929,0,0,0-.324.75h-2.258a2.268,2.268,0,0,1,.453-1.359,3,3,0,0,1,1.281-.98,4.669,4.669,0,0,1,1.859-.355,3.689,3.689,0,0,1,2.48.785,2.747,2.747,0,0,1,.918,2.207v3.664a4.041,4.041,0,0,0,.336,1.82V15Zm-1.867-1.57a1.945,1.945,0,0,0,.922-.223,1.462,1.462,0,0,0,.625-.6V11.156h-.844q-1.7,0-1.8,1.172l-.008.133a.9.9,0,0,0,.3.7A1.153,1.153,0,0,0,455.258,13.43Zm10.3-4.766a6.134,6.134,0,0,0-.812-.062,1.654,1.654,0,0,0-1.68.867V15H460.8V6.547h2.133L463,7.555a2.092,2.092,0,0,1,1.883-1.164,2.366,2.366,0,0,1,.7.1ZM469.023,15h-2.266V6.547h2.266Zm-2.4-10.641a1.112,1.112,0,0,1,.34-.836,1.465,1.465,0,0,1,1.848,0,1.105,1.105,0,0,1,.344.836,1.108,1.108,0,0,1-.348.844,1.448,1.448,0,0,1-1.836,0A1.108,1.108,0,0,1,466.625,4.359Zm3.906,6.336a5.013,5.013,0,0,1,.484-2.242A3.546,3.546,0,0,1,472.41,6.93a4.069,4.069,0,0,1,2.113-.539,3.849,3.849,0,0,1,2.793,1.047,4.2,4.2,0,0,1,1.207,2.844l.016.578a4.418,4.418,0,0,1-1.086,3.121,4.209,4.209,0,0,1-5.832,0,4.5,4.5,0,0,1-1.09-3.187Zm2.258.16a3.16,3.16,0,0,0,.453,1.843,1.628,1.628,0,0,0,2.578.008,3.458,3.458,0,0,0,.461-2.015,3.128,3.128,0,0,0-.461-1.831,1.5,1.5,0,0,0-1.3-.649,1.474,1.474,0,0,0-1.281.646A3.516,3.516,0,0,0,472.789,10.856Zm15.516.183h-4.4V9.219h4.4Zm12.789-.984h-4.5v3.063h5.281V15H494.25V3.625h7.609v1.9h-5.266V8.234h4.5Zm5.219-6.43,2.922,8.25,2.906-8.25h3.078V15h-2.352V11.891l.234-5.367L510.031,15h-1.609l-3.062-8.469.234,5.359V15H503.25V3.625Zm13.3,7.367V15h-2.344V3.625H521.7a5.134,5.134,0,0,1,2.254.469,3.454,3.454,0,0,1,1.5,1.332,3.714,3.714,0,0,1,.523,1.965,3.266,3.266,0,0,1-1.145,2.637,4.767,4.767,0,0,1-3.168.965Zm0-1.9H521.7a2.059,2.059,0,0,0,1.418-.437,1.591,1.591,0,0,0,.488-1.25,1.876,1.876,0,0,0-.492-1.352,1.839,1.839,0,0,0-1.359-.531h-2.148ZM531.8,10.836H529.93V15h-2.344V3.625h4.227a4.778,4.778,0,0,1,3.109.9,3.1,3.1,0,0,1,1.094,2.539,3.5,3.5,0,0,1-.5,1.941,3.437,3.437,0,0,1-1.527,1.238l2.461,4.648V15H533.93Zm-1.867-1.9h1.891a1.936,1.936,0,0,0,1.367-.449,1.606,1.606,0,0,0,.484-1.238,1.719,1.719,0,0,0-.457-1.266,1.9,1.9,0,0,0-1.4-.461H529.93Zm14.711,1.117h-4.5v3.063h5.281V15H537.8V3.625h7.609v1.9h-5.266V8.234h4.5Zm8.055,1.961a1.2,1.2,0,0,0-.469-1.02,6.148,6.148,0,0,0-1.687-.75,11.962,11.962,0,0,1-1.93-.777,3.153,3.153,0,0,1-1.937-2.82A2.747,2.747,0,0,1,547.191,5a3.389,3.389,0,0,1,1.492-1.129,5.616,5.616,0,0,1,2.184-.406,5.112,5.112,0,0,1,2.172.441,3.458,3.458,0,0,1,1.48,1.246,3.261,3.261,0,0,1,.527,1.828H552.7a1.534,1.534,0,0,0-.492-1.215,2.023,2.023,0,0,0-1.383-.434,2.161,2.161,0,0,0-1.336.363,1.146,1.146,0,0,0-.477.957,1.1,1.1,0,0,0,.559.93,6.311,6.311,0,0,0,1.645.7,7.106,7.106,0,0,1,2.914,1.492A2.972,2.972,0,0,1,555.047,12a2.737,2.737,0,0,1-1.117,2.316,4.891,4.891,0,0,1-3.008.84,5.808,5.808,0,0,1-2.391-.48,3.783,3.783,0,0,1-1.645-1.316,3.371,3.371,0,0,1-.566-1.937h2.352q0,1.883,2.25,1.883a2.189,2.189,0,0,0,1.3-.34A1.106,1.106,0,0,0,552.7,12.016Zm10.359.641h-4.109L558.164,15h-2.492l4.234-11.375h2.172L566.336,15h-2.492Zm-3.477-1.9h2.844L560.992,6.5Zm17.914,6.008h-7.117V15h7.117Zm7.453-4.109h-4.109L580.055,15h-2.492L581.8,3.625h2.172L588.227,15h-2.492Zm-3.477-1.9h2.844L582.883,6.5ZM589.289,15V3.625h3.984a5.232,5.232,0,0,1,3.141.793,2.711,2.711,0,0,1,1.07,2.324,2.57,2.57,0,0,1-.43,1.473,2.482,2.482,0,0,1-1.2.934,2.4,2.4,0,0,1,1.379.883,2.61,2.61,0,0,1,.5,1.625,3,3,0,0,1-1.047,2.484,4.713,4.713,0,0,1-2.984.859Zm2.344-4.953v3.07h2.008a1.938,1.938,0,0,0,1.293-.395,1.353,1.353,0,0,0,.465-1.09,1.428,1.428,0,0,0-1.617-1.586Zm0-1.656h1.734q1.773-.031,1.773-1.414a1.307,1.307,0,0,0-.449-1.113,2.363,2.363,0,0,0-1.418-.34h-1.641Zm16.8,2.82a4.025,4.025,0,0,1-1.355,2.891,4.761,4.761,0,0,1-3.223,1.055,4.281,4.281,0,0,1-3.441-1.473,6.038,6.038,0,0,1-1.254-4.043v-.7a6.818,6.818,0,0,1,.578-2.891,4.333,4.333,0,0,1,1.652-1.918,5.164,5.164,0,0,1,5.668.387,4.326,4.326,0,0,1,1.391,2.961H606.1a2.376,2.376,0,0,0-.613-1.6,2.271,2.271,0,0,0-1.605-.5,1.991,1.991,0,0,0-1.754.84,4.707,4.707,0,0,0-.6,2.605V9.7a5.038,5.038,0,0,0,.559,2.7,1.954,1.954,0,0,0,1.762.852,2.314,2.314,0,0,0,1.621-.5,2.241,2.241,0,0,0,.613-1.535Zm7.648,5.555h-7.117V15h7.117Z" transform="translate(390 1799)" fill="#fff"/>
    <g id="Trazado_720466" data-name="Trazado 720466" transform="translate(295 1839)" fill="#fff">
      <path d="M 1009.5 72.5 L 0.5 72.5 L 0.5 0.5 L 1009.5 0.5 L 1009.5 72.5 Z" stroke="none"/>
      <path d="M 1 1 L 1 72 L 1009 72 L 1009 1 L 1 1 M 0 0 L 1010 0 L 1010 73 L 0 73 L 0 0 Z" stroke="none" fill="#707070"/>
    </g>
    <g id="Trazado_720467" data-name="Trazado 720467" transform="translate(295 1839)" fill="#e8e8e8">
      <path d="M 1009.5 36.5 L 0.5 36.5 L 0.5 0.5 L 1009.5 0.5 L 1009.5 36.5 Z" stroke="none"/>
      <path d="M 1 1 L 1 36 L 1009 36 L 1009 1 L 1 1 M 0 0 L 1010 0 L 1010 37 L 0 37 L 0 0 Z" stroke="none" fill="#707070"/>
    </g>
    <path id="Trazado_720468" data-name="Trazado 720468" d="M0,0H1010V37H0Z" transform="translate(295 1922)" fill="#e8e8e8"/>
    <path id="Trazado_720469" data-name="Trazado 720469" d="M0,0H1010V37H0Z" transform="translate(295 1958)" fill="#f5f5f5"/>
    <path id="Trazado_720470" data-name="Trazado 720470" d="M114.968,10.243V14h-2.2V3.336h4.16a4.813,4.813,0,0,1,2.113.439,3.238,3.238,0,0,1,1.4,1.249,3.482,3.482,0,0,1,.491,1.842,3.062,3.062,0,0,1-1.073,2.472,4.469,4.469,0,0,1-2.97.9Zm0-1.78h1.963a1.93,1.93,0,0,0,1.329-.41,1.492,1.492,0,0,0,.458-1.172,1.759,1.759,0,0,0-.461-1.267,1.724,1.724,0,0,0-1.274-.5h-2.014Zm11.792-.4A5.751,5.751,0,0,0,126,8a1.55,1.55,0,0,0-1.575.813V14h-2.117V6.075h2l.059.945a1.961,1.961,0,0,1,1.765-1.091,2.218,2.218,0,0,1,.659.1Zm.425,1.9a4.7,4.7,0,0,1,.454-2.1,3.324,3.324,0,0,1,1.307-1.428,3.814,3.814,0,0,1,1.981-.505,3.609,3.609,0,0,1,2.618.981,3.939,3.939,0,0,1,1.132,2.666l.015.542a4.142,4.142,0,0,1-1.018,2.926,3.946,3.946,0,0,1-5.468,0,4.215,4.215,0,0,1-1.022-2.988Zm2.117.15a2.962,2.962,0,0,0,.425,1.727,1.526,1.526,0,0,0,2.417.007,3.241,3.241,0,0,0,.432-1.889,2.933,2.933,0,0,0-.432-1.716,1.4,1.4,0,0,0-1.216-.609,1.382,1.382,0,0,0-1.2.605A3.3,3.3,0,0,0,129.3,10.115Zm6.365-.136a4.776,4.776,0,0,1,.831-2.952,2.7,2.7,0,0,1,2.274-1.1,2.427,2.427,0,0,1,1.912.864V2.75h2.124V14H140.9l-.1-.842a2.491,2.491,0,0,1-2.036.989,2.69,2.69,0,0,1-2.245-1.1A4.93,4.93,0,0,1,135.667,9.979Zm2.117.151a3.146,3.146,0,0,0,.388,1.714,1.263,1.263,0,0,0,1.128.6,1.416,1.416,0,0,0,1.384-.831V8.467a1.4,1.4,0,0,0-1.37-.831Q137.783,7.635,137.783,10.13Zm11.411,3.065a2.654,2.654,0,0,1-2.168.952,2.5,2.5,0,0,1-1.945-.732,3.127,3.127,0,0,1-.685-2.146V6.075h2.117V11.2q0,1.239,1.128,1.239a1.528,1.528,0,0,0,1.479-.748V6.075h2.124V14h-1.992Zm6.943-.754a1.388,1.388,0,0,0,.952-.322,1.129,1.129,0,0,0,.381-.857h1.985a2.715,2.715,0,0,1-.439,1.476,2.9,2.9,0,0,1-1.183,1.04,3.7,3.7,0,0,1-1.659.37,3.44,3.44,0,0,1-2.681-1.08,4.275,4.275,0,0,1-.981-2.985V9.942a4.226,4.226,0,0,1,.974-2.922,3.4,3.4,0,0,1,2.673-1.091,3.333,3.333,0,0,1,2.384.846,3,3,0,0,1,.912,2.252h-1.985a1.455,1.455,0,0,0-.381-1.005,1.416,1.416,0,0,0-2.084.153,3.125,3.125,0,0,0-.377,1.749v.22A3.164,3.164,0,0,0,155,11.9,1.291,1.291,0,0,0,156.138,12.44ZM163.2,4.127V6.075h1.355V7.628H163.2v3.955a.944.944,0,0,0,.168.63.846.846,0,0,0,.645.19,3.376,3.376,0,0,0,.623-.051v1.6a4.358,4.358,0,0,1-1.282.19,2.021,2.021,0,0,1-2.271-2.249V7.628h-1.157V6.075h1.157V4.127Zm1.985,5.837a4.7,4.7,0,0,1,.454-2.1,3.324,3.324,0,0,1,1.307-1.428,3.814,3.814,0,0,1,1.981-.505,3.609,3.609,0,0,1,2.618.981,3.939,3.939,0,0,1,1.132,2.666l.015.542a4.142,4.142,0,0,1-1.018,2.926,3.946,3.946,0,0,1-5.468,0,4.215,4.215,0,0,1-1.022-2.988Zm2.117.15a2.962,2.962,0,0,0,.425,1.727,1.526,1.526,0,0,0,2.417.007,3.241,3.241,0,0,0,.432-1.889,2.933,2.933,0,0,0-.432-1.716,1.4,1.4,0,0,0-1.216-.609,1.382,1.382,0,0,0-1.2.605A3.3,3.3,0,0,0,167.3,10.115Z" transform="translate(295 1850)" fill="#12263f"/>
    <path id="Trazado_720471" data-name="Trazado 720471" d="M59.438,14V3.336h3.281a4.983,4.983,0,0,1,2.516.634,4.418,4.418,0,0,1,1.732,1.8,5.557,5.557,0,0,1,.623,2.655v.491a5.573,5.573,0,0,1-.612,2.644,4.38,4.38,0,0,1-1.725,1.794A5.021,5.021,0,0,1,62.741,14Zm2.2-8.884v7.119H62.7a2.386,2.386,0,0,0,1.97-.842,3.806,3.806,0,0,0,.7-2.41V8.419a3.867,3.867,0,0,0-.674-2.465,2.378,2.378,0,0,0-1.97-.839Zm11.06,9.031a3.89,3.89,0,0,1-2.838-1.069,3.8,3.8,0,0,1-1.095-2.849v-.205a4.787,4.787,0,0,1,.461-2.135,3.386,3.386,0,0,1,1.307-1.45,3.669,3.669,0,0,1,1.93-.509,3.289,3.289,0,0,1,2.56,1.025,4.167,4.167,0,0,1,.934,2.908v.864H70.907a1.966,1.966,0,0,0,.619,1.245,1.871,1.871,0,0,0,1.307.469,2.285,2.285,0,0,0,1.912-.886l1.04,1.165A3.178,3.178,0,0,1,74.5,13.769,4.229,4.229,0,0,1,72.695,14.146Zm-.242-6.511a1.323,1.323,0,0,0-1.022.427,2.209,2.209,0,0,0-.5,1.221h2.944V9.114a1.576,1.576,0,0,0-.381-1.092A1.365,1.365,0,0,0,72.453,7.635Zm7.236-3.508V6.075h1.355V7.628H79.689v3.955a.944.944,0,0,0,.168.63.846.846,0,0,0,.645.19,3.376,3.376,0,0,0,.623-.051v1.6a4.358,4.358,0,0,1-1.282.19A2.021,2.021,0,0,1,77.573,11.9V7.628H76.415V6.075h1.157V4.127ZM86.816,14a2.351,2.351,0,0,1-.212-.71,2.561,2.561,0,0,1-2,.857,2.814,2.814,0,0,1-1.93-.674,2.167,2.167,0,0,1-.765-1.7,2.24,2.24,0,0,1,.934-1.934,4.608,4.608,0,0,1,2.7-.681h.974V8.7a1.306,1.306,0,0,0-.282-.879,1.109,1.109,0,0,0-.89-.33,1.261,1.261,0,0,0-.839.256.871.871,0,0,0-.3.7H82.084a2.126,2.126,0,0,1,.425-1.274,2.808,2.808,0,0,1,1.2-.919,4.378,4.378,0,0,1,1.743-.333,3.459,3.459,0,0,1,2.325.736,2.575,2.575,0,0,1,.861,2.069v3.435a3.789,3.789,0,0,0,.315,1.707V14Zm-1.75-1.472a1.823,1.823,0,0,0,.864-.209,1.371,1.371,0,0,0,.586-.56V10.4h-.791q-1.589,0-1.692,1.1l-.007.125a.847.847,0,0,0,.278.652A1.081,1.081,0,0,0,85.065,12.528ZM92.5,14H90.375V2.75H92.5Zm3.977,0H94.352V2.75h2.124Zm5.391.146a3.89,3.89,0,0,1-2.838-1.069,3.8,3.8,0,0,1-1.095-2.849v-.205A4.787,4.787,0,0,1,98.4,7.888,3.386,3.386,0,0,1,99.7,6.438a3.669,3.669,0,0,1,1.93-.509,3.289,3.289,0,0,1,2.56,1.025,4.167,4.167,0,0,1,.934,2.908v.864H100.08a1.966,1.966,0,0,0,.619,1.245,1.871,1.871,0,0,0,1.307.469,2.285,2.285,0,0,0,1.912-.886l1.04,1.165a3.178,3.178,0,0,1-1.289,1.051A4.229,4.229,0,0,1,101.867,14.146Zm-.242-6.511a1.323,1.323,0,0,0-1.022.427,2.209,2.209,0,0,0-.5,1.221h2.944V9.114a1.576,1.576,0,0,0-.381-1.092A1.365,1.365,0,0,0,101.625,7.635Z" transform="translate(390 1933)" fill="#12263f"/>
    <path id="Trazado_720472" data-name="Trazado 720472" d="M55.5,10.448a3.774,3.774,0,0,1-1.271,2.71,4.463,4.463,0,0,1-3.021.989,4.013,4.013,0,0,1-3.226-1.381,5.661,5.661,0,0,1-1.176-3.79V8.324a6.393,6.393,0,0,1,.542-2.71,4.062,4.062,0,0,1,1.549-1.8,4.841,4.841,0,0,1,5.314.363,4.055,4.055,0,0,1,1.3,2.776h-2.2a2.227,2.227,0,0,0-.575-1.5,2.129,2.129,0,0,0-1.505-.465,1.867,1.867,0,0,0-1.644.787,4.413,4.413,0,0,0-.56,2.443v.806a4.723,4.723,0,0,0,.524,2.527,1.832,1.832,0,0,0,1.652.8,2.169,2.169,0,0,0,1.52-.465,2.1,2.1,0,0,0,.575-1.439ZM61.4,14a2.351,2.351,0,0,1-.212-.71,2.561,2.561,0,0,1-2,.857,2.814,2.814,0,0,1-1.93-.674,2.167,2.167,0,0,1-.765-1.7,2.24,2.24,0,0,1,.934-1.934,4.608,4.608,0,0,1,2.7-.681h.974V8.7a1.306,1.306,0,0,0-.282-.879,1.109,1.109,0,0,0-.89-.33,1.261,1.261,0,0,0-.839.256.871.871,0,0,0-.3.7H56.664a2.126,2.126,0,0,1,.425-1.274,2.808,2.808,0,0,1,1.2-.919,4.378,4.378,0,0,1,1.743-.333,3.459,3.459,0,0,1,2.325.736,2.575,2.575,0,0,1,.861,2.069v3.435a3.789,3.789,0,0,0,.315,1.707V14Zm-1.75-1.472a1.823,1.823,0,0,0,.864-.209,1.371,1.371,0,0,0,.586-.56V10.4H60.3q-1.589,0-1.692,1.1l-.007.125a.847.847,0,0,0,.278.652A1.081,1.081,0,0,0,59.645,12.528Zm7.148-6.453.066.916a2.767,2.767,0,0,1,2.278-1.062,2.3,2.3,0,0,1,1.875.74,3.451,3.451,0,0,1,.63,2.212V14H69.525V8.92a1.379,1.379,0,0,0-.293-.98,1.31,1.31,0,0,0-.974-.3,1.456,1.456,0,0,0-1.34.763V14H64.8V6.075ZM75.78,4.127V6.075h1.355V7.628H75.78v3.955a.944.944,0,0,0,.168.63.846.846,0,0,0,.645.19,3.376,3.376,0,0,0,.623-.051v1.6a4.358,4.358,0,0,1-1.282.19A2.021,2.021,0,0,1,73.663,11.9V7.628H72.506V6.075h1.157V4.127ZM80.548,14H78.424V6.075h2.124ZM78.3,4.024a1.042,1.042,0,0,1,.319-.784,1.373,1.373,0,0,1,1.732,0,1.036,1.036,0,0,1,.322.784,1.039,1.039,0,0,1-.326.791,1.358,1.358,0,0,1-1.721,0A1.039,1.039,0,0,1,78.3,4.024Zm3.662,5.955a4.776,4.776,0,0,1,.831-2.952,2.7,2.7,0,0,1,2.274-1.1,2.427,2.427,0,0,1,1.912.864V2.75H89.1V14H87.191l-.1-.842a2.491,2.491,0,0,1-2.036.989,2.69,2.69,0,0,1-2.245-1.1A4.93,4.93,0,0,1,81.962,9.979Zm2.117.151a3.146,3.146,0,0,0,.388,1.714,1.263,1.263,0,0,0,1.128.6,1.416,1.416,0,0,0,1.384-.831V8.467a1.4,1.4,0,0,0-1.37-.831Q84.078,7.635,84.078,10.13ZM95.336,14a2.351,2.351,0,0,1-.212-.71,2.561,2.561,0,0,1-2,.857,2.814,2.814,0,0,1-1.93-.674,2.167,2.167,0,0,1-.765-1.7,2.24,2.24,0,0,1,.934-1.934,4.608,4.608,0,0,1,2.7-.681h.974V8.7a1.306,1.306,0,0,0-.282-.879,1.109,1.109,0,0,0-.89-.33,1.261,1.261,0,0,0-.839.256.871.871,0,0,0-.3.7H90.6a2.126,2.126,0,0,1,.425-1.274,2.808,2.808,0,0,1,1.2-.919,4.378,4.378,0,0,1,1.743-.333,3.459,3.459,0,0,1,2.325.736,2.575,2.575,0,0,1,.861,2.069v3.435a3.789,3.789,0,0,0,.315,1.707V14Zm-1.75-1.472a1.823,1.823,0,0,0,.864-.209,1.371,1.371,0,0,0,.586-.56V10.4h-.791q-1.589,0-1.692,1.1l-.007.125a.847.847,0,0,0,.278.652A1.081,1.081,0,0,0,93.585,12.528Zm4.871-2.549a4.776,4.776,0,0,1,.831-2.952,2.7,2.7,0,0,1,2.274-1.1,2.427,2.427,0,0,1,1.912.864V2.75H105.6V14h-1.912l-.1-.842a2.491,2.491,0,0,1-2.036.989,2.69,2.69,0,0,1-2.245-1.1A4.93,4.93,0,0,1,98.456,9.979Zm2.117.151a3.146,3.146,0,0,0,.388,1.714,1.263,1.263,0,0,0,1.128.6,1.416,1.416,0,0,0,1.384-.831V8.467a1.4,1.4,0,0,0-1.37-.831Q100.573,7.635,100.573,10.13Zm12.385-4.054.066.886A2.785,2.785,0,0,1,115.3,5.929a2.114,2.114,0,0,1,2.1,1.208,2.721,2.721,0,0,1,2.38-1.208,2.364,2.364,0,0,1,1.919.751,3.451,3.451,0,0,1,.63,2.26V14h-2.124V8.935a1.515,1.515,0,0,0-.264-.987,1.167,1.167,0,0,0-.93-.312,1.321,1.321,0,0,0-1.318.91L117.7,14h-2.117V8.942a1.5,1.5,0,0,0-.271-1,1.178,1.178,0,0,0-.923-.308,1.371,1.371,0,0,0-1.3.749V14h-2.117V6.075ZM128.551,14a2.351,2.351,0,0,1-.212-.71,2.561,2.561,0,0,1-2,.857,2.814,2.814,0,0,1-1.93-.674,2.167,2.167,0,0,1-.765-1.7,2.24,2.24,0,0,1,.934-1.934,4.608,4.608,0,0,1,2.7-.681h.974V8.7a1.306,1.306,0,0,0-.282-.879,1.109,1.109,0,0,0-.89-.33,1.261,1.261,0,0,0-.839.256.871.871,0,0,0-.3.7H123.82a2.126,2.126,0,0,1,.425-1.274,2.808,2.808,0,0,1,1.2-.919,4.378,4.378,0,0,1,1.743-.333,3.459,3.459,0,0,1,2.325.736,2.575,2.575,0,0,1,.861,2.069v3.435a3.789,3.789,0,0,0,.315,1.707V14Zm-1.75-1.472a1.823,1.823,0,0,0,.864-.209,1.371,1.371,0,0,0,.586-.56V10.4h-.791q-1.589,0-1.692,1.1l-.007.125a.847.847,0,0,0,.278.652A1.081,1.081,0,0,0,126.8,12.528Zm.806-9.778h2.307l-2.029,2.271h-1.721Zm7.412,5.691,1.333-2.366h2.263l-2.256,3.882L138.71,14h-2.271l-1.414-2.49L133.619,14h-2.278l2.351-4.043-2.249-3.882h2.271ZM141.866,14h-2.124V6.075h2.124Zm-2.249-9.976a1.042,1.042,0,0,1,.319-.784,1.373,1.373,0,0,1,1.732,0,1.036,1.036,0,0,1,.322.784,1.039,1.039,0,0,1-.326.791,1.358,1.358,0,0,1-1.721,0A1.039,1.039,0,0,1,139.618,4.024Zm5.977,2.051.066.886a2.785,2.785,0,0,1,2.278-1.033,2.114,2.114,0,0,1,2.1,1.208,2.721,2.721,0,0,1,2.38-1.208,2.364,2.364,0,0,1,1.919.751,3.451,3.451,0,0,1,.63,2.26V14h-2.124V8.935a1.515,1.515,0,0,0-.264-.987,1.167,1.167,0,0,0-.93-.312,1.321,1.321,0,0,0-1.318.91L150.341,14h-2.117V8.942a1.5,1.5,0,0,0-.271-1,1.178,1.178,0,0,0-.923-.308,1.371,1.371,0,0,0-1.3.749V14H143.61V6.075ZM161.188,14a2.351,2.351,0,0,1-.212-.71,2.561,2.561,0,0,1-2,.857,2.814,2.814,0,0,1-1.93-.674,2.167,2.167,0,0,1-.765-1.7,2.24,2.24,0,0,1,.934-1.934,4.608,4.608,0,0,1,2.7-.681h.974V8.7a1.306,1.306,0,0,0-.282-.879,1.109,1.109,0,0,0-.89-.33,1.261,1.261,0,0,0-.839.256.871.871,0,0,0-.3.7h-2.117a2.126,2.126,0,0,1,.425-1.274,2.808,2.808,0,0,1,1.2-.919,4.378,4.378,0,0,1,1.743-.333,3.459,3.459,0,0,1,2.325.736,2.575,2.575,0,0,1,.861,2.069v3.435a3.789,3.789,0,0,0,.315,1.707V14Zm-1.75-1.472a1.823,1.823,0,0,0,.864-.209,1.371,1.371,0,0,0,.586-.56V10.4H160.1q-1.589,0-1.692,1.1l-.007.125a.847.847,0,0,0,.278.652A1.081,1.081,0,0,0,159.437,12.528Z" transform="translate(580 1850)" fill="#12263f"/>
    <path id="Trazado_720473" data-name="Trazado 720473" d="M100.665,9.364H96.446v2.871H101.4V14H94.249V3.336h7.134v1.78H96.446V7.657h4.219ZM104.5,6.075l.066.916a2.767,2.767,0,0,1,2.278-1.062,2.3,2.3,0,0,1,1.875.74,3.451,3.451,0,0,1,.63,2.212V14h-2.117V8.92a1.379,1.379,0,0,0-.293-.98,1.31,1.31,0,0,0-.974-.3,1.456,1.456,0,0,0-1.34.763V14H102.5V6.075Zm8.987-1.948V6.075h1.355V7.628h-1.355v3.955a.944.944,0,0,0,.168.63.846.846,0,0,0,.645.19,3.376,3.376,0,0,0,.623-.051v1.6a4.358,4.358,0,0,1-1.282.19,2.021,2.021,0,0,1-2.271-2.249V7.628h-1.157V6.075h1.157V4.127Zm6.987,3.933A5.751,5.751,0,0,0,119.708,8a1.55,1.55,0,0,0-1.575.813V14h-2.117V6.075h2l.059.945a1.961,1.961,0,0,1,1.765-1.091,2.218,2.218,0,0,1,.659.1ZM125.86,14a2.351,2.351,0,0,1-.212-.71,2.561,2.561,0,0,1-2,.857,2.814,2.814,0,0,1-1.93-.674,2.167,2.167,0,0,1-.765-1.7,2.24,2.24,0,0,1,.934-1.934,4.608,4.608,0,0,1,2.7-.681h.974V8.7a1.306,1.306,0,0,0-.282-.879,1.109,1.109,0,0,0-.89-.33,1.261,1.261,0,0,0-.839.256.871.871,0,0,0-.3.7h-2.117a2.126,2.126,0,0,1,.425-1.274,2.808,2.808,0,0,1,1.2-.919,4.378,4.378,0,0,1,1.743-.333,3.459,3.459,0,0,1,2.325.736,2.575,2.575,0,0,1,.861,2.069v3.435A3.789,3.789,0,0,0,128,13.875V14Zm-1.75-1.472a1.823,1.823,0,0,0,.864-.209,1.371,1.371,0,0,0,.586-.56V10.4h-.791q-1.589,0-1.692,1.1l-.007.125a.847.847,0,0,0,.278.652A1.081,1.081,0,0,0,124.11,12.528Zm4.871-2.549a4.776,4.776,0,0,1,.831-2.952,2.7,2.7,0,0,1,2.274-1.1A2.427,2.427,0,0,1,134,6.793V2.75h2.124V14H134.21l-.1-.842a2.491,2.491,0,0,1-2.036.989,2.69,2.69,0,0,1-2.245-1.1A4.93,4.93,0,0,1,128.98,9.979Zm2.117.151a3.146,3.146,0,0,0,.388,1.714,1.263,1.263,0,0,0,1.128.6A1.416,1.416,0,0,0,134,11.609V8.467a1.4,1.4,0,0,0-1.37-.831Q131.1,7.635,131.1,10.13ZM142.354,14a2.351,2.351,0,0,1-.212-.71,2.561,2.561,0,0,1-2,.857,2.814,2.814,0,0,1-1.93-.674,2.167,2.167,0,0,1-.765-1.7,2.24,2.24,0,0,1,.934-1.934,4.608,4.608,0,0,1,2.7-.681h.974V8.7a1.306,1.306,0,0,0-.282-.879,1.109,1.109,0,0,0-.89-.33,1.261,1.261,0,0,0-.839.256.871.871,0,0,0-.3.7h-2.117a2.126,2.126,0,0,1,.425-1.274,2.808,2.808,0,0,1,1.2-.919,4.378,4.378,0,0,1,1.743-.333,3.459,3.459,0,0,1,2.325.736,2.575,2.575,0,0,1,.861,2.069v3.435a3.789,3.789,0,0,0,.315,1.707V14Zm-1.75-1.472a1.823,1.823,0,0,0,.864-.209,1.371,1.371,0,0,0,.586-.56V10.4h-.791q-1.589,0-1.692,1.1l-.007.125a.847.847,0,0,0,.278.652A1.081,1.081,0,0,0,140.6,12.528Zm9.492-.718a.682.682,0,0,0-.385-.612,4.368,4.368,0,0,0-1.234-.4q-2.827-.593-2.827-2.4a2.178,2.178,0,0,1,.875-1.761,3.531,3.531,0,0,1,2.289-.707,3.8,3.8,0,0,1,2.413.71,2.239,2.239,0,0,1,.9,1.846h-2.117a1.024,1.024,0,0,0-.293-.751,1.24,1.24,0,0,0-.916-.3,1.267,1.267,0,0,0-.828.242.763.763,0,0,0-.293.615.652.652,0,0,0,.333.568,3.428,3.428,0,0,0,1.124.374,9.183,9.183,0,0,1,1.333.355,2.19,2.19,0,0,1,1.677,2.131,2.067,2.067,0,0,1-.93,1.754,4.013,4.013,0,0,1-2.4.67,4.191,4.191,0,0,1-1.769-.355,2.968,2.968,0,0,1-1.212-.974,2.263,2.263,0,0,1-.439-1.337h2.007a1.105,1.105,0,0,0,.417.864,1.656,1.656,0,0,0,1.04.3,1.533,1.533,0,0,0,.919-.231A.718.718,0,0,0,150.1,11.81Z" transform="translate(554 1933)" fill="#12263f"/>
    <path id="Trazado_720474" data-name="Trazado 720474" d="M57.081,10.448a3.774,3.774,0,0,1-1.271,2.71,4.463,4.463,0,0,1-3.021.989,4.013,4.013,0,0,1-3.226-1.381,5.661,5.661,0,0,1-1.176-3.79V8.324a6.393,6.393,0,0,1,.542-2.71,4.062,4.062,0,0,1,1.549-1.8,4.841,4.841,0,0,1,5.314.363,4.055,4.055,0,0,1,1.3,2.776H54.9a2.227,2.227,0,0,0-.575-1.5,2.129,2.129,0,0,0-1.505-.465,1.867,1.867,0,0,0-1.644.787,4.413,4.413,0,0,0-.56,2.443v.806a4.723,4.723,0,0,0,.524,2.527,1.832,1.832,0,0,0,1.652.8,2.169,2.169,0,0,0,1.52-.465,2.1,2.1,0,0,0,.575-1.439ZM62.977,14a2.351,2.351,0,0,1-.212-.71,2.561,2.561,0,0,1-2,.857,2.814,2.814,0,0,1-1.93-.674,2.167,2.167,0,0,1-.765-1.7A2.24,2.24,0,0,1,59,9.84a4.608,4.608,0,0,1,2.7-.681h.974V8.7a1.306,1.306,0,0,0-.282-.879,1.109,1.109,0,0,0-.89-.33,1.261,1.261,0,0,0-.839.256.871.871,0,0,0-.3.7H58.246a2.126,2.126,0,0,1,.425-1.274,2.808,2.808,0,0,1,1.2-.919,4.378,4.378,0,0,1,1.743-.333,3.459,3.459,0,0,1,2.325.736A2.575,2.575,0,0,1,64.8,8.734v3.435a3.789,3.789,0,0,0,.315,1.707V14Zm-1.75-1.472a1.823,1.823,0,0,0,.864-.209,1.371,1.371,0,0,0,.586-.56V10.4h-.791q-1.589,0-1.692,1.1l-.007.125a.847.847,0,0,0,.278.652A1.081,1.081,0,0,0,61.227,12.528Zm7.148-6.453.066.916a2.767,2.767,0,0,1,2.278-1.062,2.3,2.3,0,0,1,1.875.74,3.451,3.451,0,0,1,.63,2.212V14H71.107V8.92a1.379,1.379,0,0,0-.293-.98,1.31,1.31,0,0,0-.974-.3A1.456,1.456,0,0,0,68.5,8.4V14H66.383V6.075Zm8.987-1.948V6.075h1.355V7.628H77.362v3.955a.944.944,0,0,0,.168.63.846.846,0,0,0,.645.19,3.376,3.376,0,0,0,.623-.051v1.6a4.358,4.358,0,0,1-1.282.19A2.021,2.021,0,0,1,75.245,11.9V7.628H74.088V6.075h1.157V4.127ZM82.13,14H80.006V6.075H82.13ZM79.882,4.024a1.042,1.042,0,0,1,.319-.784,1.373,1.373,0,0,1,1.732,0,1.036,1.036,0,0,1,.322.784,1.039,1.039,0,0,1-.326.791,1.358,1.358,0,0,1-1.721,0A1.039,1.039,0,0,1,79.882,4.024Zm3.662,5.955a4.776,4.776,0,0,1,.831-2.952,2.7,2.7,0,0,1,2.274-1.1,2.427,2.427,0,0,1,1.912.864V2.75h2.124V14H88.773l-.1-.842a2.491,2.491,0,0,1-2.036.989,2.69,2.69,0,0,1-2.245-1.1A4.93,4.93,0,0,1,83.544,9.979Zm2.117.151a3.146,3.146,0,0,0,.388,1.714,1.263,1.263,0,0,0,1.128.6,1.416,1.416,0,0,0,1.384-.831V8.467a1.4,1.4,0,0,0-1.37-.831Q85.66,7.635,85.66,10.13ZM96.918,14a2.351,2.351,0,0,1-.212-.71,2.561,2.561,0,0,1-2,.857,2.814,2.814,0,0,1-1.93-.674,2.167,2.167,0,0,1-.765-1.7,2.24,2.24,0,0,1,.934-1.934,4.608,4.608,0,0,1,2.7-.681h.974V8.7a1.306,1.306,0,0,0-.282-.879,1.109,1.109,0,0,0-.89-.33,1.261,1.261,0,0,0-.839.256.871.871,0,0,0-.3.7H92.186a2.126,2.126,0,0,1,.425-1.274,2.808,2.808,0,0,1,1.2-.919,4.378,4.378,0,0,1,1.743-.333,3.459,3.459,0,0,1,2.325.736,2.575,2.575,0,0,1,.861,2.069v3.435a3.789,3.789,0,0,0,.315,1.707V14Zm-1.75-1.472a1.823,1.823,0,0,0,.864-.209,1.371,1.371,0,0,0,.586-.56V10.4h-.791q-1.589,0-1.692,1.1l-.007.125a.847.847,0,0,0,.278.652A1.081,1.081,0,0,0,95.167,12.528Zm4.871-2.549a4.776,4.776,0,0,1,.831-2.952,2.7,2.7,0,0,1,2.274-1.1,2.427,2.427,0,0,1,1.912.864V2.75h2.124V14h-1.912l-.1-.842a2.491,2.491,0,0,1-2.036.989,2.69,2.69,0,0,1-2.245-1.1A4.93,4.93,0,0,1,100.038,9.979Zm2.117.151a3.146,3.146,0,0,0,.388,1.714,1.263,1.263,0,0,0,1.128.6,1.416,1.416,0,0,0,1.384-.831V8.467a1.4,1.4,0,0,0-1.37-.831Q102.155,7.635,102.155,10.13ZM114.54,6.075l.066.886a2.785,2.785,0,0,1,2.278-1.033,2.114,2.114,0,0,1,2.1,1.208,2.721,2.721,0,0,1,2.38-1.208,2.364,2.364,0,0,1,1.919.751,3.451,3.451,0,0,1,.63,2.26V14h-2.124V8.935a1.515,1.515,0,0,0-.264-.987,1.167,1.167,0,0,0-.93-.312,1.321,1.321,0,0,0-1.318.91L119.286,14h-2.117V8.942a1.5,1.5,0,0,0-.271-1,1.178,1.178,0,0,0-.923-.308,1.371,1.371,0,0,0-1.3.749V14h-2.117V6.075ZM127.826,14h-2.117V6.075h2.117ZM127.2,2.86h2.307L127.482,5.13H125.76ZM131.6,6.075l.066.916a2.767,2.767,0,0,1,2.278-1.062,2.3,2.3,0,0,1,1.875.74,3.451,3.451,0,0,1,.63,2.212V14H134.33V8.92a1.379,1.379,0,0,0-.293-.98,1.31,1.31,0,0,0-.974-.3,1.456,1.456,0,0,0-1.34.763V14h-2.117V6.075ZM140.284,14H138.16V6.075h2.124Zm-2.249-9.976a1.042,1.042,0,0,1,.319-.784,1.373,1.373,0,0,1,1.732,0,1.036,1.036,0,0,1,.322.784,1.039,1.039,0,0,1-.326.791,1.358,1.358,0,0,1-1.721,0A1.039,1.039,0,0,1,138.036,4.024Zm5.977,2.051.066.886a2.785,2.785,0,0,1,2.278-1.033,2.114,2.114,0,0,1,2.1,1.208,2.721,2.721,0,0,1,2.38-1.208,2.364,2.364,0,0,1,1.919.751,3.451,3.451,0,0,1,.63,2.26V14h-2.124V8.935A1.515,1.515,0,0,0,151,7.947a1.167,1.167,0,0,0-.93-.312,1.321,1.321,0,0,0-1.318.91L148.759,14h-2.117V8.942a1.5,1.5,0,0,0-.271-1,1.178,1.178,0,0,0-.923-.308,1.371,1.371,0,0,0-1.3.749V14h-2.117V6.075ZM159.606,14a2.351,2.351,0,0,1-.212-.71,2.561,2.561,0,0,1-2,.857,2.814,2.814,0,0,1-1.93-.674,2.167,2.167,0,0,1-.765-1.7,2.24,2.24,0,0,1,.934-1.934,4.608,4.608,0,0,1,2.7-.681h.974V8.7a1.306,1.306,0,0,0-.282-.879,1.109,1.109,0,0,0-.89-.33,1.261,1.261,0,0,0-.839.256.871.871,0,0,0-.3.7h-2.117a2.126,2.126,0,0,1,.425-1.274,2.808,2.808,0,0,1,1.2-.919,4.378,4.378,0,0,1,1.743-.333,3.459,3.459,0,0,1,2.325.736,2.575,2.575,0,0,1,.861,2.069v3.435a3.789,3.789,0,0,0,.315,1.707V14Zm-1.75-1.472a1.823,1.823,0,0,0,.864-.209,1.371,1.371,0,0,0,.586-.56V10.4h-.791q-1.589,0-1.692,1.1l-.007.125a.847.847,0,0,0,.278.652A1.081,1.081,0,0,0,157.855,12.528Z" transform="translate(790 1850)" fill="#12263f"/>
    <path id="Trazado_720475" data-name="Trazado 720475" d="M104.27,11.2a1.128,1.128,0,0,0-.439-.956,5.764,5.764,0,0,0-1.582-.7,11.215,11.215,0,0,1-1.809-.729A2.956,2.956,0,0,1,98.623,6.17a2.575,2.575,0,0,1,.487-1.542,3.177,3.177,0,0,1,1.4-1.058,5.265,5.265,0,0,1,2.047-.381,4.793,4.793,0,0,1,2.036.414,3.242,3.242,0,0,1,1.388,1.168,3.057,3.057,0,0,1,.494,1.714h-2.2a1.438,1.438,0,0,0-.461-1.139,1.9,1.9,0,0,0-1.3-.406,2.026,2.026,0,0,0-1.252.341,1.074,1.074,0,0,0-.447.9,1.029,1.029,0,0,0,.524.872,5.916,5.916,0,0,0,1.542.659,6.661,6.661,0,0,1,2.732,1.4,2.786,2.786,0,0,1,.857,2.08,2.566,2.566,0,0,1-1.047,2.172,4.585,4.585,0,0,1-2.82.787,5.445,5.445,0,0,1-2.241-.45,3.546,3.546,0,0,1-1.542-1.234,3.161,3.161,0,0,1-.531-1.816h2.2q0,1.765,2.109,1.765a2.052,2.052,0,0,0,1.223-.319A1.037,1.037,0,0,0,104.27,11.2Zm8.145,2.8a2.351,2.351,0,0,1-.212-.71,2.561,2.561,0,0,1-2,.857,2.814,2.814,0,0,1-1.93-.674,2.167,2.167,0,0,1-.765-1.7,2.24,2.24,0,0,1,.934-1.934,4.608,4.608,0,0,1,2.7-.681h.974V8.7a1.306,1.306,0,0,0-.282-.879,1.109,1.109,0,0,0-.89-.33,1.261,1.261,0,0,0-.839.256.871.871,0,0,0-.3.7h-2.117a2.126,2.126,0,0,1,.425-1.274,2.808,2.808,0,0,1,1.2-.919,4.378,4.378,0,0,1,1.743-.333,3.459,3.459,0,0,1,2.325.736,2.575,2.575,0,0,1,.861,2.069v3.435a3.789,3.789,0,0,0,.315,1.707V14Zm-1.75-1.472a1.823,1.823,0,0,0,.864-.209,1.371,1.371,0,0,0,.586-.56V10.4h-.791q-1.589,0-1.692,1.1l-.007.125a.847.847,0,0,0,.278.652A1.081,1.081,0,0,0,110.664,12.528ZM118.1,14h-2.124V2.75H118.1Zm3.977,0h-2.124V6.075h2.124Zm-2.249-9.976a1.042,1.042,0,0,1,.319-.784,1.373,1.373,0,0,1,1.732,0,1.036,1.036,0,0,1,.322.784,1.039,1.039,0,0,1-.326.791,1.358,1.358,0,0,1-1.721,0A1.039,1.039,0,0,1,119.827,4.024Zm3.662,5.955a4.776,4.776,0,0,1,.831-2.952,2.7,2.7,0,0,1,2.274-1.1,2.427,2.427,0,0,1,1.912.864V2.75h2.124V14h-1.912l-.1-.842a2.491,2.491,0,0,1-2.036.989,2.69,2.69,0,0,1-2.245-1.1A4.93,4.93,0,0,1,123.489,9.979Zm2.117.151a3.146,3.146,0,0,0,.388,1.714,1.263,1.263,0,0,0,1.128.6,1.416,1.416,0,0,0,1.384-.831V8.467a1.4,1.4,0,0,0-1.37-.831Q125.605,7.635,125.605,10.13ZM136.863,14a2.351,2.351,0,0,1-.212-.71,2.561,2.561,0,0,1-2,.857,2.814,2.814,0,0,1-1.93-.674,2.167,2.167,0,0,1-.765-1.7,2.24,2.24,0,0,1,.934-1.934,4.608,4.608,0,0,1,2.7-.681h.974V8.7a1.306,1.306,0,0,0-.282-.879,1.109,1.109,0,0,0-.89-.33,1.261,1.261,0,0,0-.839.256.871.871,0,0,0-.3.7h-2.117a2.126,2.126,0,0,1,.425-1.274,2.808,2.808,0,0,1,1.2-.919,4.378,4.378,0,0,1,1.743-.333,3.459,3.459,0,0,1,2.325.736,2.575,2.575,0,0,1,.861,2.069v3.435A3.789,3.789,0,0,0,139,13.875V14Zm-1.75-1.472a1.823,1.823,0,0,0,.864-.209,1.371,1.371,0,0,0,.586-.56V10.4h-.791q-1.589,0-1.692,1.1l-.007.125a.847.847,0,0,0,.278.652A1.081,1.081,0,0,0,135.112,12.528Zm9.492-.718a.682.682,0,0,0-.385-.612,4.368,4.368,0,0,0-1.234-.4q-2.827-.593-2.827-2.4a2.178,2.178,0,0,1,.875-1.761,3.531,3.531,0,0,1,2.289-.707,3.8,3.8,0,0,1,2.413.71,2.239,2.239,0,0,1,.9,1.846h-2.117a1.024,1.024,0,0,0-.293-.751,1.24,1.24,0,0,0-.916-.3,1.267,1.267,0,0,0-.828.242.763.763,0,0,0-.293.615.652.652,0,0,0,.333.568,3.428,3.428,0,0,0,1.124.374,9.183,9.183,0,0,1,1.333.355,2.19,2.19,0,0,1,1.677,2.131,2.067,2.067,0,0,1-.93,1.754,4.013,4.013,0,0,1-2.4.67,4.191,4.191,0,0,1-1.769-.355,2.968,2.968,0,0,1-1.212-.974,2.263,2.263,0,0,1-.439-1.337h2.007a1.105,1.105,0,0,0,.417.864,1.656,1.656,0,0,0,1.04.3,1.533,1.533,0,0,0,.919-.231A.718.718,0,0,0,144.6,11.81Z" transform="translate(800 1933)" fill="#12263f"/>
    <path id="Trazado_720476" data-name="Trazado 720476" d="M131.068,3.336l2.739,7.734,2.725-7.734h2.886V14h-2.2V11.085l.22-5.032L134.554,14h-1.509l-2.871-7.939.22,5.024V14h-2.2V3.336Zm13.777,10.811a3.89,3.89,0,0,1-2.838-1.069,3.8,3.8,0,0,1-1.095-2.849v-.205a4.787,4.787,0,0,1,.461-2.135,3.386,3.386,0,0,1,1.307-1.45,3.669,3.669,0,0,1,1.93-.509,3.289,3.289,0,0,1,2.56,1.025,4.167,4.167,0,0,1,.934,2.908v.864h-5.046a1.966,1.966,0,0,0,.619,1.245,1.871,1.871,0,0,0,1.307.469,2.285,2.285,0,0,0,1.912-.886l1.04,1.165a3.178,3.178,0,0,1-1.289,1.051A4.229,4.229,0,0,1,144.844,14.146ZM144.6,7.635a1.323,1.323,0,0,0-1.022.427,2.209,2.209,0,0,0-.5,1.221h2.944V9.114a1.576,1.576,0,0,0-.381-1.092A1.365,1.365,0,0,0,144.6,7.635Zm.19-4.885H147.1l-2.029,2.271H143.35Zm7.046,1.377V6.075h1.355V7.628h-1.355v3.955a.944.944,0,0,0,.168.63.846.846,0,0,0,.645.19,3.376,3.376,0,0,0,.623-.051v1.6a4.358,4.358,0,0,1-1.282.19,2.021,2.021,0,0,1-2.271-2.249V7.628h-1.157V6.075h1.157V4.127Zm1.985,5.837a4.7,4.7,0,0,1,.454-2.1,3.324,3.324,0,0,1,1.307-1.428,3.814,3.814,0,0,1,1.981-.505,3.609,3.609,0,0,1,2.618.981,3.939,3.939,0,0,1,1.132,2.666l.015.542a4.142,4.142,0,0,1-1.018,2.926,3.946,3.946,0,0,1-5.468,0,4.215,4.215,0,0,1-1.022-2.988Zm2.117.15a2.962,2.962,0,0,0,.425,1.727,1.526,1.526,0,0,0,2.417.007,3.241,3.241,0,0,0,.432-1.889,2.933,2.933,0,0,0-.432-1.716,1.4,1.4,0,0,0-1.216-.609,1.382,1.382,0,0,0-1.2.605A3.3,3.3,0,0,0,155.941,10.115Zm6.365-.136a4.776,4.776,0,0,1,.831-2.952,2.7,2.7,0,0,1,2.274-1.1,2.427,2.427,0,0,1,1.912.864V2.75h2.124V14h-1.912l-.1-.842a2.491,2.491,0,0,1-2.036.989,2.69,2.69,0,0,1-2.245-1.1A4.93,4.93,0,0,1,162.305,9.979Zm2.117.151a3.146,3.146,0,0,0,.388,1.714,1.263,1.263,0,0,0,1.128.6,1.416,1.416,0,0,0,1.384-.831V8.467a1.4,1.4,0,0,0-1.37-.831Q164.422,7.635,164.422,10.13Zm6.335-.165a4.7,4.7,0,0,1,.454-2.1,3.324,3.324,0,0,1,1.307-1.428,3.814,3.814,0,0,1,1.981-.505,3.609,3.609,0,0,1,2.618.981,3.939,3.939,0,0,1,1.132,2.666l.015.542a4.142,4.142,0,0,1-1.018,2.926,3.946,3.946,0,0,1-5.468,0,4.215,4.215,0,0,1-1.022-2.988Zm2.117.15a2.962,2.962,0,0,0,.425,1.727,1.526,1.526,0,0,0,2.417.007,3.241,3.241,0,0,0,.432-1.889,2.933,2.933,0,0,0-.432-1.716,1.4,1.4,0,0,0-1.216-.609,1.382,1.382,0,0,0-1.2.605A3.3,3.3,0,0,0,172.874,10.115Z" transform="translate(1000 1850)" fill="#12263f"/>
    <path id="Trazado_720477" data-name="Trazado 720477" d="M114.039,11.2a1.128,1.128,0,0,0-.439-.956,5.764,5.764,0,0,0-1.582-.7,11.215,11.215,0,0,1-1.809-.729,2.956,2.956,0,0,1-1.816-2.644,2.575,2.575,0,0,1,.487-1.542,3.177,3.177,0,0,1,1.4-1.058,5.265,5.265,0,0,1,2.047-.381,4.793,4.793,0,0,1,2.036.414,3.242,3.242,0,0,1,1.388,1.168,3.057,3.057,0,0,1,.494,1.714h-2.2a1.438,1.438,0,0,0-.461-1.139,1.9,1.9,0,0,0-1.3-.406,2.026,2.026,0,0,0-1.252.341,1.074,1.074,0,0,0-.447.9,1.029,1.029,0,0,0,.524.872,5.916,5.916,0,0,0,1.542.659,6.661,6.661,0,0,1,2.732,1.4,2.786,2.786,0,0,1,.857,2.08,2.566,2.566,0,0,1-1.047,2.172,4.585,4.585,0,0,1-2.82.787,5.445,5.445,0,0,1-2.241-.45,3.546,3.546,0,0,1-1.542-1.234,3.161,3.161,0,0,1-.531-1.816h2.2q0,1.765,2.109,1.765a2.052,2.052,0,0,0,1.223-.319A1.037,1.037,0,0,0,114.039,11.2Zm8.145,2.8a2.351,2.351,0,0,1-.212-.71,2.561,2.561,0,0,1-2,.857,2.814,2.814,0,0,1-1.93-.674,2.167,2.167,0,0,1-.765-1.7,2.24,2.24,0,0,1,.934-1.934,4.608,4.608,0,0,1,2.7-.681h.974V8.7a1.306,1.306,0,0,0-.282-.879,1.109,1.109,0,0,0-.89-.33,1.261,1.261,0,0,0-.839.256.871.871,0,0,0-.3.7h-2.117a2.126,2.126,0,0,1,.425-1.274,2.808,2.808,0,0,1,1.2-.919,4.378,4.378,0,0,1,1.743-.333,3.459,3.459,0,0,1,2.325.736,2.575,2.575,0,0,1,.861,2.069v3.435a3.789,3.789,0,0,0,.315,1.707V14Zm-1.75-1.472a1.823,1.823,0,0,0,.864-.209,1.371,1.371,0,0,0,.586-.56V10.4h-.791q-1.589,0-1.692,1.1l-.007.125a.847.847,0,0,0,.278.652A1.081,1.081,0,0,0,120.433,12.528ZM127.867,14h-2.124V2.75h2.124Zm1.414-4.021a4.776,4.776,0,0,1,.831-2.952,2.7,2.7,0,0,1,2.274-1.1,2.427,2.427,0,0,1,1.912.864V2.75h2.124V14H134.51l-.1-.842a2.491,2.491,0,0,1-2.036.989,2.69,2.69,0,0,1-2.245-1.1A4.93,4.93,0,0,1,129.281,9.979Zm2.117.151a3.146,3.146,0,0,0,.388,1.714,1.263,1.263,0,0,0,1.128.6,1.416,1.416,0,0,0,1.384-.831V8.467a1.4,1.4,0,0,0-1.37-.831Q131.4,7.635,131.4,10.13Zm6.335-.165a4.7,4.7,0,0,1,.454-2.1,3.324,3.324,0,0,1,1.307-1.428,3.814,3.814,0,0,1,1.981-.505,3.609,3.609,0,0,1,2.618.981,3.939,3.939,0,0,1,1.132,2.666l.015.542a4.142,4.142,0,0,1-1.018,2.926,3.946,3.946,0,0,1-5.468,0,4.215,4.215,0,0,1-1.022-2.988Zm2.117.15a2.962,2.962,0,0,0,.425,1.727,1.526,1.526,0,0,0,2.417.007,3.241,3.241,0,0,0,.432-1.889,2.933,2.933,0,0,0-.432-1.716,1.4,1.4,0,0,0-1.216-.609,1.382,1.382,0,0,0-1.2.605A3.3,3.3,0,0,0,139.849,10.115Zm10.986,1.7a.682.682,0,0,0-.385-.612,4.368,4.368,0,0,0-1.234-.4q-2.827-.593-2.827-2.4a2.178,2.178,0,0,1,.875-1.761,3.531,3.531,0,0,1,2.289-.707,3.8,3.8,0,0,1,2.413.71,2.239,2.239,0,0,1,.9,1.846h-2.117a1.024,1.024,0,0,0-.293-.751,1.24,1.24,0,0,0-.916-.3,1.267,1.267,0,0,0-.828.242.763.763,0,0,0-.293.615.652.652,0,0,0,.333.568,3.428,3.428,0,0,0,1.124.374,9.183,9.183,0,0,1,1.333.355,2.19,2.19,0,0,1,1.677,2.131,2.067,2.067,0,0,1-.93,1.754,4.013,4.013,0,0,1-2.4.67,4.191,4.191,0,0,1-1.769-.355,2.968,2.968,0,0,1-1.212-.974,2.263,2.263,0,0,1-.439-1.337h2.007a1.105,1.105,0,0,0,.417.864,1.656,1.656,0,0,0,1.04.3,1.533,1.533,0,0,0,.919-.231A.718.718,0,0,0,150.836,11.81Z" transform="translate(1045 1933)" fill="#12263f"/>
    <path id="Trazado_720478" data-name="Trazado 720478" d="M0,0V73" transform="translate(580 1839)" fill="none" stroke="#707070" stroke-width="1"/>
    <path id="Trazado_720479" data-name="Trazado 720479" d="M0,0V73" transform="translate(790 1839)" fill="none" stroke="#707070" stroke-width="1"/>
    <path id="Trazado_720480" data-name="Trazado 720480" d="M0,0V73" transform="translate(999 1839)" fill="none" stroke="#707070" stroke-width="1"/>
    <path id="Trazado_712762" data-name="Trazado 712762" d="M-5943-9624h1009.3" transform="translate(6238 11659.499)" fill="none" stroke="#707070" stroke-width="1"/>
    <path id="Trazado_712773" data-name="Trazado 712773" d="M-5943-9624h1009.3" transform="translate(6238 11619.499)" fill="none" stroke="#707070" stroke-width="1"/>
    <path id="Trazado_712763" data-name="Trazado 712763" d="M-5943-9624h1009.3" transform="translate(6238 11699.499)" fill="none" stroke="#707070" stroke-width="1"/>
    <path id="Trazado_712766" data-name="Trazado 712766" d="M-5943-9624h1009.3" transform="translate(6238 11779.499)" fill="none" stroke="#707070" stroke-width="1"/>
    <path id="Trazado_712768" data-name="Trazado 712768" d="M-5943-9624h1009.3" transform="translate(6238 11859.499)" fill="none" stroke="#707070" stroke-width="1"/>
    <path id="Trazado_712764" data-name="Trazado 712764" d="M-5943-9624h1009.3" transform="translate(6238 11739.499)" fill="none" stroke="#707070" stroke-width="1"/>
    <path id="Trazado_712765" data-name="Trazado 712765" d="M-5943-9624h1009.3" transform="translate(6238 11819.499)" fill="none" stroke="#707070" stroke-width="1"/>
    <path id="Trazado_712767" data-name="Trazado 712767" d="M-5943-9624h1009.3" transform="translate(6238 11899.499)" fill="none" stroke="#707070" stroke-width="1"/>
    <path id="Trazado_720481" data-name="Trazado 720481" d="M0,0H95V73H0Z" transform="translate(295 1922)" fill="#e8e8e8"/>
    <path id="Trazado_720482" data-name="Trazado 720482" d="M0,0H259V40H0Z" transform="translate(295 2315)" fill="#e8e8e8"/>
    <path id="Trazado_720483" data-name="Trazado 720483" d="M0,0H81V40H0Z" transform="translate(719 2315)" fill="#e8e8e8"/>
    <path id="Trazado_720484" data-name="Trazado 720484" d="M0,0H83V40H0Z" transform="translate(963 2315)" fill="#e8e8e8"/>
    <path id="Trazado_720485" data-name="Trazado 720485" d="M0,0H99V40H0Z" transform="translate(1206 2315)" fill="#e8e8e8"/>
    <path id="Trazado_720486" data-name="Trazado 720486" d="M34.653,9.642H30.435V14h-2.2V3.336h6.943v1.78H30.435V7.87h4.219Zm5.156,4.5a3.89,3.89,0,0,1-2.838-1.069,3.8,3.8,0,0,1-1.095-2.849v-.205a4.787,4.787,0,0,1,.461-2.135,3.386,3.386,0,0,1,1.307-1.45,3.669,3.669,0,0,1,1.93-.509,3.289,3.289,0,0,1,2.56,1.025,4.167,4.167,0,0,1,.934,2.908v.864H38.022a1.966,1.966,0,0,0,.619,1.245,1.871,1.871,0,0,0,1.307.469,2.285,2.285,0,0,0,1.912-.886l1.04,1.165a3.178,3.178,0,0,1-1.289,1.051A4.229,4.229,0,0,1,39.81,14.146Zm-.242-6.511a1.323,1.323,0,0,0-1.022.427,2.209,2.209,0,0,0-.5,1.221h2.944V9.114a1.576,1.576,0,0,0-.381-1.092A1.365,1.365,0,0,0,39.568,7.635Zm8,4.8a1.388,1.388,0,0,0,.952-.322,1.129,1.129,0,0,0,.381-.857h1.985a2.715,2.715,0,0,1-.439,1.476,2.9,2.9,0,0,1-1.183,1.04,3.7,3.7,0,0,1-1.659.37,3.44,3.44,0,0,1-2.681-1.08,4.275,4.275,0,0,1-.981-2.985V9.942a4.226,4.226,0,0,1,.974-2.922,3.4,3.4,0,0,1,2.673-1.091,3.333,3.333,0,0,1,2.384.846,3,3,0,0,1,.912,2.252H48.9a1.455,1.455,0,0,0-.381-1.005,1.416,1.416,0,0,0-2.084.153,3.125,3.125,0,0,0-.377,1.749v.22a3.164,3.164,0,0,0,.374,1.761A1.291,1.291,0,0,0,47.566,12.44Zm6.592-5.5a2.642,2.642,0,0,1,2.117-1.011q2.578,0,2.615,3V14H56.772V8.971a1.478,1.478,0,0,0-.293-1.009,1.254,1.254,0,0,0-.974-.327,1.44,1.44,0,0,0-1.348.719V14H52.041V2.75h2.117ZM65.078,14a2.351,2.351,0,0,1-.212-.71,2.561,2.561,0,0,1-2,.857,2.814,2.814,0,0,1-1.93-.674,2.167,2.167,0,0,1-.765-1.7A2.24,2.24,0,0,1,61.1,9.84a4.608,4.608,0,0,1,2.7-.681h.974V8.7a1.306,1.306,0,0,0-.282-.879,1.109,1.109,0,0,0-.89-.33,1.261,1.261,0,0,0-.839.256.871.871,0,0,0-.3.7H60.347a2.126,2.126,0,0,1,.425-1.274,2.808,2.808,0,0,1,1.2-.919,4.378,4.378,0,0,1,1.743-.333,3.459,3.459,0,0,1,2.325.736A2.575,2.575,0,0,1,66.9,8.734v3.435a3.789,3.789,0,0,0,.315,1.707V14Zm-1.75-1.472a1.823,1.823,0,0,0,.864-.209,1.371,1.371,0,0,0,.586-.56V10.4h-.791q-1.589,0-1.692,1.1l-.007.125a.847.847,0,0,0,.278.652A1.081,1.081,0,0,0,63.328,12.528Z" transform="translate(295 1950)" fill="#12263f"/>
    <path id="Trazado_720487" data-name="Trazado 720487" d="M33.3,10.448a3.774,3.774,0,0,1-1.271,2.71,4.463,4.463,0,0,1-3.021.989,4.013,4.013,0,0,1-3.226-1.381A5.661,5.661,0,0,1,24.6,8.976V8.324a6.393,6.393,0,0,1,.542-2.71,4.062,4.062,0,0,1,1.549-1.8,4.339,4.339,0,0,1,2.34-.626,4.348,4.348,0,0,1,2.974.989,4.055,4.055,0,0,1,1.3,2.776h-2.2a2.227,2.227,0,0,0-.575-1.5,2.129,2.129,0,0,0-1.505-.465,1.867,1.867,0,0,0-1.644.787,4.413,4.413,0,0,0-.56,2.443v.806a4.723,4.723,0,0,0,.524,2.527,1.832,1.832,0,0,0,1.652.8,2.169,2.169,0,0,0,1.52-.465,2.1,2.1,0,0,0,.575-1.439Zm.974-.483a4.7,4.7,0,0,1,.454-2.1,3.324,3.324,0,0,1,1.307-1.428,3.814,3.814,0,0,1,1.981-.505,3.609,3.609,0,0,1,2.618.981,3.939,3.939,0,0,1,1.132,2.666l.015.542a4.142,4.142,0,0,1-1.018,2.926,3.946,3.946,0,0,1-5.468,0,4.215,4.215,0,0,1-1.022-2.988Zm2.117.15a2.962,2.962,0,0,0,.425,1.727,1.526,1.526,0,0,0,2.417.007,3.241,3.241,0,0,0,.432-1.889,2.933,2.933,0,0,0-.432-1.716,1.4,1.4,0,0,0-1.216-.609,1.382,1.382,0,0,0-1.2.605A3.3,3.3,0,0,0,36.389,10.115Zm10.986,1.7a.682.682,0,0,0-.385-.612,4.368,4.368,0,0,0-1.234-.4q-2.827-.593-2.827-2.4A2.178,2.178,0,0,1,43.8,6.635a3.531,3.531,0,0,1,2.289-.707,3.8,3.8,0,0,1,2.413.71,2.239,2.239,0,0,1,.9,1.846H47.295A1.024,1.024,0,0,0,47,7.734a1.24,1.24,0,0,0-.916-.3,1.267,1.267,0,0,0-.828.242.763.763,0,0,0-.293.615.652.652,0,0,0,.333.568,3.428,3.428,0,0,0,1.124.374,9.183,9.183,0,0,1,1.333.355,2.19,2.19,0,0,1,1.677,2.131,2.067,2.067,0,0,1-.93,1.754,4.013,4.013,0,0,1-2.4.67,4.191,4.191,0,0,1-1.769-.355,2.968,2.968,0,0,1-1.212-.974,2.263,2.263,0,0,1-.439-1.337h2.007a1.105,1.105,0,0,0,.417.864,1.656,1.656,0,0,0,1.04.3,1.533,1.533,0,0,0,.919-.231A.718.718,0,0,0,47.375,11.81ZM53.33,4.127V6.075h1.355V7.628H53.33v3.955a.944.944,0,0,0,.168.63.846.846,0,0,0,.645.19,3.376,3.376,0,0,0,.623-.051v1.6a4.358,4.358,0,0,1-1.282.19A2.021,2.021,0,0,1,51.213,11.9V7.628H50.056V6.075h1.157V4.127Zm1.985,5.837a4.7,4.7,0,0,1,.454-2.1,3.324,3.324,0,0,1,1.307-1.428,3.814,3.814,0,0,1,1.981-.505,3.609,3.609,0,0,1,2.618.981,3.939,3.939,0,0,1,1.132,2.666l.015.542A4.142,4.142,0,0,1,61.8,13.044a3.946,3.946,0,0,1-5.468,0,4.215,4.215,0,0,1-1.022-2.988Zm2.117.15a2.962,2.962,0,0,0,.425,1.727,1.526,1.526,0,0,0,2.417.007,3.241,3.241,0,0,0,.432-1.889,2.933,2.933,0,0,0-.432-1.716,1.4,1.4,0,0,0-1.216-.609,1.382,1.382,0,0,0-1.2.605A3.3,3.3,0,0,0,57.432,10.115Zm10.986,1.7a.682.682,0,0,0-.385-.612,4.368,4.368,0,0,0-1.234-.4q-2.827-.593-2.827-2.4a2.178,2.178,0,0,1,.875-1.761,3.531,3.531,0,0,1,2.289-.707,3.8,3.8,0,0,1,2.413.71,2.239,2.239,0,0,1,.9,1.846H68.337a1.024,1.024,0,0,0-.293-.751,1.24,1.24,0,0,0-.916-.3,1.267,1.267,0,0,0-.828.242.763.763,0,0,0-.293.615.652.652,0,0,0,.333.568,3.428,3.428,0,0,0,1.124.374,9.183,9.183,0,0,1,1.333.355,2.19,2.19,0,0,1,1.677,2.131,2.067,2.067,0,0,1-.93,1.754,4.013,4.013,0,0,1-2.4.67,4.191,4.191,0,0,1-1.769-.355,2.968,2.968,0,0,1-1.212-.974,2.263,2.263,0,0,1-.439-1.337H65.73a1.105,1.105,0,0,0,.417.864,1.656,1.656,0,0,0,1.04.3,1.533,1.533,0,0,0,.919-.231A.718.718,0,0,0,68.418,11.81Z" transform="translate(295 2327)" fill="#12263f"/>
    <path id="Trazado_720488" data-name="Trazado 720488" d="M5.786,11.195a1.341,1.341,0,0,0-.333-.956,3.021,3.021,0,0,0-1.132-.656,13.35,13.35,0,0,1-1.377-.6,4.387,4.387,0,0,1-.992-.681,2.737,2.737,0,0,1-.645-.9,3.036,3.036,0,0,1-.231-1.238,2.747,2.747,0,0,1,.791-2.029,3.338,3.338,0,0,1,2.1-.923V1.644H5.142V3.233A3.059,3.059,0,0,1,7.17,4.314,3.56,3.56,0,0,1,7.9,6.639H5.786a2.021,2.021,0,0,0-.363-1.315,1.2,1.2,0,0,0-.97-.436,1.234,1.234,0,0,0-.93.341,1.3,1.3,0,0,0-.33.941,1.239,1.239,0,0,0,.322.894,3.551,3.551,0,0,0,1.2.688,13.3,13.3,0,0,1,1.439.663,4.154,4.154,0,0,1,.952.7,2.723,2.723,0,0,1,.593.894A3.072,3.072,0,0,1,7.9,11.18,2.734,2.734,0,0,1,7.126,13.2a3.4,3.4,0,0,1-2.139.916v1.458H3.823v-1.45A3.523,3.523,0,0,1,1.5,13.059a3.435,3.435,0,0,1-.824-2.406H2.791A1.947,1.947,0,0,0,3.2,11.99a1.51,1.51,0,0,0,1.19.465,1.454,1.454,0,0,0,1.018-.341A1.183,1.183,0,0,0,5.786,11.195Z" transform="translate(727 2327)" fill="#12263f"/>
    <path id="Trazado_720489" data-name="Trazado 720489" d="M5.786,11.195a1.341,1.341,0,0,0-.333-.956,3.021,3.021,0,0,0-1.132-.656,13.35,13.35,0,0,1-1.377-.6,4.387,4.387,0,0,1-.992-.681,2.737,2.737,0,0,1-.645-.9,3.036,3.036,0,0,1-.231-1.238,2.747,2.747,0,0,1,.791-2.029,3.338,3.338,0,0,1,2.1-.923V1.644H5.142V3.233A3.059,3.059,0,0,1,7.17,4.314,3.56,3.56,0,0,1,7.9,6.639H5.786a2.021,2.021,0,0,0-.363-1.315,1.2,1.2,0,0,0-.97-.436,1.234,1.234,0,0,0-.93.341,1.3,1.3,0,0,0-.33.941,1.239,1.239,0,0,0,.322.894,3.551,3.551,0,0,0,1.2.688,13.3,13.3,0,0,1,1.439.663,4.154,4.154,0,0,1,.952.7,2.723,2.723,0,0,1,.593.894A3.072,3.072,0,0,1,7.9,11.18,2.734,2.734,0,0,1,7.126,13.2a3.4,3.4,0,0,1-2.139.916v1.458H3.823v-1.45A3.523,3.523,0,0,1,1.5,13.059a3.435,3.435,0,0,1-.824-2.406H2.791A1.947,1.947,0,0,0,3.2,11.99a1.51,1.51,0,0,0,1.19.465,1.454,1.454,0,0,0,1.018-.341A1.183,1.183,0,0,0,5.786,11.195Z" transform="translate(972 2327)" fill="#12263f"/>
    <path id="Trazado_720490" data-name="Trazado 720490" d="M5.786,11.195a1.341,1.341,0,0,0-.333-.956,3.021,3.021,0,0,0-1.132-.656,13.35,13.35,0,0,1-1.377-.6,4.387,4.387,0,0,1-.992-.681,2.737,2.737,0,0,1-.645-.9,3.036,3.036,0,0,1-.231-1.238,2.747,2.747,0,0,1,.791-2.029,3.338,3.338,0,0,1,2.1-.923V1.644H5.142V3.233A3.059,3.059,0,0,1,7.17,4.314,3.56,3.56,0,0,1,7.9,6.639H5.786a2.021,2.021,0,0,0-.363-1.315,1.2,1.2,0,0,0-.97-.436,1.234,1.234,0,0,0-.93.341,1.3,1.3,0,0,0-.33.941,1.239,1.239,0,0,0,.322.894,3.551,3.551,0,0,0,1.2.688,13.3,13.3,0,0,1,1.439.663,4.154,4.154,0,0,1,.952.7,2.723,2.723,0,0,1,.593.894A3.072,3.072,0,0,1,7.9,11.18,2.734,2.734,0,0,1,7.126,13.2a3.4,3.4,0,0,1-2.139.916v1.458H3.823v-1.45A3.523,3.523,0,0,1,1.5,13.059a3.435,3.435,0,0,1-.824-2.406H2.791A1.947,1.947,0,0,0,3.2,11.99a1.51,1.51,0,0,0,1.19.465,1.454,1.454,0,0,0,1.018-.341A1.183,1.183,0,0,0,5.786,11.195Z" transform="translate(1215 2327)" fill="#12263f"/>
    <path id="Trazado_720491" data-name="Trazado 720491" d="M21.116,8.991A3.337,3.337,0,0,1,20.024,11.3a3.722,3.722,0,0,1-2.533.828,3.6,3.6,0,0,1-1.946-.524,3.437,3.437,0,0,1-1.3-1.489,5.372,5.372,0,0,1-.476-2.241V7.011a5.411,5.411,0,0,1,.463-2.3,3.492,3.492,0,0,1,1.33-1.536,3.709,3.709,0,0,1,2-.54,3.572,3.572,0,0,1,2.463.828A3.461,3.461,0,0,1,21.116,5.8h-1.6a2.283,2.283,0,0,0-.581-1.438,1.92,1.92,0,0,0-1.368-.441,1.875,1.875,0,0,0-1.609.766,3.826,3.826,0,0,0-.574,2.246v.82a4.059,4.059,0,0,0,.536,2.287,1.78,1.78,0,0,0,1.571.788,2.076,2.076,0,0,0,1.422-.425,2.218,2.218,0,0,0,.6-1.416Zm1-.489a4.05,4.05,0,0,1,.4-1.819A2.921,2.921,0,0,1,23.636,5.44,3.166,3.166,0,0,1,25.3,5a3,3,0,0,1,2.257.9,3.52,3.52,0,0,1,.936,2.374l.006.362a4.086,4.086,0,0,1-.39,1.815,2.886,2.886,0,0,1-1.117,1.238,3.189,3.189,0,0,1-1.679.438,2.979,2.979,0,0,1-2.326-.968,3.707,3.707,0,0,1-.873-2.58Zm1.542.133a2.767,2.767,0,0,0,.438,1.66,1.424,1.424,0,0,0,1.219.6,1.408,1.408,0,0,0,1.216-.609A3.057,3.057,0,0,0,26.962,8.5a2.732,2.732,0,0,0-.448-1.65,1.508,1.508,0,0,0-2.415-.01A3,3,0,0,0,23.655,8.636Zm7.579-3.5.044.793a2.469,2.469,0,0,1,2-.92q2.146,0,2.184,2.457V12H33.919V7.55a1.414,1.414,0,0,0-.282-.968,1.188,1.188,0,0,0-.924-.314,1.486,1.486,0,0,0-1.39.844V12H29.781V5.132Zm8.62,5.764a1.4,1.4,0,0,0,.958-.336,1.149,1.149,0,0,0,.406-.832h1.454a2.266,2.266,0,0,1-.4,1.2,2.623,2.623,0,0,1-1.016.879,3.027,3.027,0,0,1-1.384.324,2.928,2.928,0,0,1-2.285-.933,3.7,3.7,0,0,1-.844-2.577V8.458a3.639,3.639,0,0,1,.838-2.51A2.9,2.9,0,0,1,39.867,5a2.822,2.822,0,0,1,2,.714,2.558,2.558,0,0,1,.809,1.876H41.219a1.412,1.412,0,0,0-.4-.971,1.3,1.3,0,0,0-.962-.381,1.357,1.357,0,0,0-1.155.543,2.769,2.769,0,0,0-.413,1.647V8.68a2.815,2.815,0,0,0,.4,1.666A1.356,1.356,0,0,0,39.854,10.9Zm7.008,1.231a3.191,3.191,0,0,1-2.377-.924,3.35,3.35,0,0,1-.911-2.46v-.19a4.121,4.121,0,0,1,.4-1.838,3.02,3.02,0,0,1,1.114-1.26A2.945,2.945,0,0,1,46.684,5a2.7,2.7,0,0,1,2.168.9,3.785,3.785,0,0,1,.765,2.533v.622H45.129A2.063,2.063,0,0,0,45.7,10.4a1.706,1.706,0,0,0,1.254.5,2.089,2.089,0,0,0,1.727-.857l.832.793a2.777,2.777,0,0,1-1.1.955A3.448,3.448,0,0,1,46.862,12.127Zm-.184-5.884a1.3,1.3,0,0,0-1.025.444,2.3,2.3,0,0,0-.5,1.238h2.939V7.811a1.875,1.875,0,0,0-.413-1.171A1.289,1.289,0,0,0,46.678,6.243Zm10.15,2.393a4.089,4.089,0,0,1-.724,2.542,2.514,2.514,0,0,1-3.751.206v3.256H50.81V5.132h1.422l.063.7A2.266,2.266,0,0,1,54.143,5a2.341,2.341,0,0,1,1.971.936,4.2,4.2,0,0,1,.714,2.6ZM55.292,8.5a2.865,2.865,0,0,0-.409-1.631,1.331,1.331,0,0,0-1.171-.6,1.419,1.419,0,0,0-1.358.781V10.1a1.433,1.433,0,0,0,1.371.8,1.329,1.329,0,0,0,1.152-.594A3.153,3.153,0,0,0,55.292,8.5Zm4.773-5.04V5.132h1.212V6.274H60.065v3.834a.844.844,0,0,0,.156.568.721.721,0,0,0,.555.175,2.376,2.376,0,0,0,.54-.063v1.193a3.8,3.8,0,0,1-1.016.146q-1.777,0-1.777-1.961V6.274h-1.13V5.132h1.13V3.462ZM61.976,8.5a4.05,4.05,0,0,1,.4-1.819A2.921,2.921,0,0,1,63.5,5.44,3.166,3.166,0,0,1,65.162,5a3,3,0,0,1,2.257.9,3.52,3.52,0,0,1,.936,2.374l.006.362a4.086,4.086,0,0,1-.39,1.815,2.886,2.886,0,0,1-1.117,1.238,3.189,3.189,0,0,1-1.679.438,2.979,2.979,0,0,1-2.326-.968,3.707,3.707,0,0,1-.873-2.58Zm1.542.133a2.767,2.767,0,0,0,.438,1.66,1.424,1.424,0,0,0,1.219.6,1.408,1.408,0,0,0,1.216-.609A3.057,3.057,0,0,0,66.825,8.5a2.732,2.732,0,0,0-.448-1.65,1.508,1.508,0,0,0-2.415-.01A3,3,0,0,0,63.518,8.636Z" transform="translate(390 1969)" fill="#12263f"/>
    <path id="Trazado_720492" data-name="Trazado 720492" d="M13.654,8.1H9.935V12H8.329V2.758H14.2V4.053H9.935V6.8h3.72ZM19.208,12a2.38,2.38,0,0,1-.178-.641,2.595,2.595,0,0,1-3.491.178,1.889,1.889,0,0,1-.654-1.46A1.95,1.95,0,0,1,15.7,8.391,3.953,3.953,0,0,1,18.034,7.8h.946V7.354a1.2,1.2,0,0,0-.3-.854,1.183,1.183,0,0,0-.908-.321,1.359,1.359,0,0,0-.863.263.815.815,0,0,0-.336.67H15.032a1.712,1.712,0,0,1,.375-1.057,2.5,2.5,0,0,1,1.019-.771A3.579,3.579,0,0,1,17.863,5a2.882,2.882,0,0,1,1.923.606,2.162,2.162,0,0,1,.736,1.7v3.1a3.511,3.511,0,0,0,.26,1.479V12Zm-1.695-1.111a1.755,1.755,0,0,0,.86-.222,1.484,1.484,0,0,0,.606-.6V8.775h-.832a2.274,2.274,0,0,0-1.289.3.966.966,0,0,0-.432.844.9.9,0,0,0,.3.708A1.143,1.143,0,0,0,17.514,10.889Zm7.446.006a1.4,1.4,0,0,0,.958-.336,1.149,1.149,0,0,0,.406-.832h1.454a2.266,2.266,0,0,1-.4,1.2,2.623,2.623,0,0,1-1.016.879,3.027,3.027,0,0,1-1.384.324,2.928,2.928,0,0,1-2.285-.933,3.7,3.7,0,0,1-.844-2.577V8.458a3.639,3.639,0,0,1,.838-2.51A2.9,2.9,0,0,1,24.972,5a2.822,2.822,0,0,1,2,.714,2.558,2.558,0,0,1,.809,1.876H26.324a1.412,1.412,0,0,0-.4-.971,1.3,1.3,0,0,0-.962-.381,1.357,1.357,0,0,0-1.155.543,2.769,2.769,0,0,0-.413,1.647V8.68a2.815,2.815,0,0,0,.4,1.666A1.356,1.356,0,0,0,24.959,10.9Zm5.916-7.433V5.132h1.212V6.274H30.875v3.834a.844.844,0,0,0,.156.568.721.721,0,0,0,.555.175,2.376,2.376,0,0,0,.54-.063v1.193a3.8,3.8,0,0,1-1.016.146q-1.777,0-1.777-1.961V6.274H28.2V5.132h1.13V3.462Zm6.551,7.865a2.392,2.392,0,0,1-1.93.8,2.132,2.132,0,0,1-1.692-.654,2.781,2.781,0,0,1-.574-1.892V5.132h1.542V9.563q0,1.308,1.085,1.308a1.524,1.524,0,0,0,1.517-.806V5.132h1.542V12H37.464Zm6.659-4.786a3.817,3.817,0,0,0-.628-.051,1.415,1.415,0,0,0-1.428.813V12H40.486V5.132h1.473L42,5.9A1.738,1.738,0,0,1,43.545,5a1.444,1.444,0,0,1,.546.089ZM48.973,12a2.381,2.381,0,0,1-.178-.641,2.595,2.595,0,0,1-3.491.178,1.889,1.889,0,0,1-.654-1.46,1.95,1.95,0,0,1,.816-1.685A3.953,3.953,0,0,1,47.8,7.8h.946V7.354a1.2,1.2,0,0,0-.3-.854,1.183,1.183,0,0,0-.908-.321,1.359,1.359,0,0,0-.863.263.815.815,0,0,0-.336.67H44.8a1.712,1.712,0,0,1,.375-1.057,2.5,2.5,0,0,1,1.019-.771A3.579,3.579,0,0,1,47.627,5a2.882,2.882,0,0,1,1.923.606,2.162,2.162,0,0,1,.736,1.7v3.1a3.511,3.511,0,0,0,.26,1.479V12Zm-1.695-1.111a1.755,1.755,0,0,0,.86-.222,1.484,1.484,0,0,0,.606-.6V8.775h-.832a2.274,2.274,0,0,0-1.289.3.966.966,0,0,0-.432.844.9.9,0,0,0,.3.708A1.143,1.143,0,0,0,47.278,10.889ZM62.62,12H61.014l-4.12-6.557V12H55.289V2.758h1.606L61.027,9.34V2.758H62.62Zm1.46-3.5a4.05,4.05,0,0,1,.4-1.819A2.921,2.921,0,0,1,65.6,5.44,3.166,3.166,0,0,1,67.267,5a3,3,0,0,1,2.257.9,3.52,3.52,0,0,1,.936,2.374l.006.362a4.086,4.086,0,0,1-.39,1.815,2.886,2.886,0,0,1-1.117,1.238,3.189,3.189,0,0,1-1.679.438,2.979,2.979,0,0,1-2.326-.968,3.707,3.707,0,0,1-.873-2.58Zm1.542.133a2.767,2.767,0,0,0,.438,1.66,1.424,1.424,0,0,0,1.219.6,1.408,1.408,0,0,0,1.216-.609A3.057,3.057,0,0,0,68.93,8.5a2.732,2.732,0,0,0-.448-1.65,1.508,1.508,0,0,0-2.415-.01A3,3,0,0,0,65.623,8.636Zm7.109,1.739a.881.881,0,0,1,.667.244.849.849,0,0,1,.235.613.819.819,0,0,1-.235.6,1.04,1.04,0,0,1-1.32,0,.8.8,0,0,1-.241-.6.849.849,0,0,1,.235-.613A.873.873,0,0,1,72.732,10.375Z" transform="translate(472 1969)" fill="#12263f"/>
    <path id="Trazado_720493" data-name="Trazado 720493" d="M23.941,8.991A3.337,3.337,0,0,1,22.849,11.3a3.722,3.722,0,0,1-2.533.828,3.6,3.6,0,0,1-1.946-.524,3.437,3.437,0,0,1-1.3-1.489A5.372,5.372,0,0,1,16.6,7.874V7.011a5.411,5.411,0,0,1,.463-2.3A3.492,3.492,0,0,1,18.39,3.17a3.709,3.709,0,0,1,2-.54,3.572,3.572,0,0,1,2.463.828A3.461,3.461,0,0,1,23.941,5.8h-1.6a2.283,2.283,0,0,0-.581-1.438,1.92,1.92,0,0,0-1.368-.441,1.875,1.875,0,0,0-1.609.766,3.826,3.826,0,0,0-.574,2.246v.82a4.059,4.059,0,0,0,.536,2.287,1.78,1.78,0,0,0,1.571.788,2.076,2.076,0,0,0,1.422-.425,2.218,2.218,0,0,0,.6-1.416ZM29.33,12a2.38,2.38,0,0,1-.178-.641,2.595,2.595,0,0,1-3.491.178,1.889,1.889,0,0,1-.654-1.46,1.95,1.95,0,0,1,.816-1.685A3.953,3.953,0,0,1,28.156,7.8H29.1V7.354a1.2,1.2,0,0,0-.3-.854,1.183,1.183,0,0,0-.908-.321,1.359,1.359,0,0,0-.863.263.815.815,0,0,0-.336.67H25.153a1.712,1.712,0,0,1,.375-1.057,2.5,2.5,0,0,1,1.019-.771A3.579,3.579,0,0,1,27.984,5a2.882,2.882,0,0,1,1.923.606,2.162,2.162,0,0,1,.736,1.7v3.1a3.511,3.511,0,0,0,.26,1.479V12Zm-1.695-1.111a1.755,1.755,0,0,0,.86-.222,1.484,1.484,0,0,0,.606-.6V8.775H28.27a2.274,2.274,0,0,0-1.289.3.966.966,0,0,0-.432.844.9.9,0,0,0,.3.708A1.143,1.143,0,0,0,27.635,10.889Zm6.056-5.757.044.793a2.469,2.469,0,0,1,2-.92q2.146,0,2.184,2.457V12H36.376V7.55a1.414,1.414,0,0,0-.282-.968,1.188,1.188,0,0,0-.924-.314,1.486,1.486,0,0,0-1.39.844V12H32.237V5.132Zm7.731-1.669V5.132h1.212V6.274H41.422v3.834a.844.844,0,0,0,.156.568.721.721,0,0,0,.555.175,2.376,2.376,0,0,0,.54-.063v1.193a3.8,3.8,0,0,1-1.016.146q-1.777,0-1.777-1.961V6.274H38.75V5.132h1.13V3.462ZM45.453,12H43.911V5.132h1.542ZM43.815,3.342a.828.828,0,0,1,.225-.595.847.847,0,0,1,.644-.237.858.858,0,0,1,.647.237.822.822,0,0,1,.229.595.8.8,0,0,1-.229.585.865.865,0,0,1-.647.233.854.854,0,0,1-.644-.233A.809.809,0,0,1,43.815,3.342Zm3.028,5.173a4.083,4.083,0,0,1,.736-2.549A2.359,2.359,0,0,1,49.554,5a2.242,2.242,0,0,1,1.765.762V2.25h1.542V12h-1.4l-.076-.711a2.274,2.274,0,0,1-1.847.838,2.346,2.346,0,0,1-1.952-.971A4.233,4.233,0,0,1,46.843,8.515Zm1.542.133a2.859,2.859,0,0,0,.4,1.635,1.308,1.308,0,0,0,1.146.587,1.457,1.457,0,0,0,1.384-.844V7.093a1.435,1.435,0,0,0-1.371-.825,1.318,1.318,0,0,0-1.155.594A3.184,3.184,0,0,0,48.386,8.648ZM58.574,12a2.381,2.381,0,0,1-.178-.641,2.595,2.595,0,0,1-3.491.178,1.889,1.889,0,0,1-.654-1.46,1.95,1.95,0,0,1,.816-1.685A3.953,3.953,0,0,1,57.4,7.8h.946V7.354a1.2,1.2,0,0,0-.3-.854,1.183,1.183,0,0,0-.908-.321,1.359,1.359,0,0,0-.863.263.815.815,0,0,0-.336.67H54.4a1.712,1.712,0,0,1,.375-1.057,2.5,2.5,0,0,1,1.019-.771A3.579,3.579,0,0,1,57.228,5a2.882,2.882,0,0,1,1.923.606,2.162,2.162,0,0,1,.736,1.7v3.1a3.511,3.511,0,0,0,.26,1.479V12Zm-1.695-1.111a1.755,1.755,0,0,0,.86-.222,1.484,1.484,0,0,0,.606-.6V8.775h-.832a2.274,2.274,0,0,0-1.289.3.966.966,0,0,0-.432.844.9.9,0,0,0,.3.708A1.143,1.143,0,0,0,56.879,10.889Zm4.335-2.374a4.083,4.083,0,0,1,.736-2.549A2.359,2.359,0,0,1,63.925,5a2.242,2.242,0,0,1,1.765.762V2.25h1.542V12h-1.4l-.076-.711a2.274,2.274,0,0,1-1.847.838,2.346,2.346,0,0,1-1.952-.971A4.233,4.233,0,0,1,61.214,8.515Zm1.542.133a2.859,2.859,0,0,0,.4,1.635,1.308,1.308,0,0,0,1.146.587,1.457,1.457,0,0,0,1.384-.844V7.093a1.435,1.435,0,0,0-1.371-.825,1.318,1.318,0,0,0-1.155.594A3.184,3.184,0,0,0,62.757,8.648Z" transform="translate(554 1969)" fill="#12263f"/>
    <path id="Trazado_720494" data-name="Trazado 720494" d="M23.941,8.991A3.337,3.337,0,0,1,22.849,11.3a3.722,3.722,0,0,1-2.533.828,3.6,3.6,0,0,1-1.946-.524,3.437,3.437,0,0,1-1.3-1.489A5.372,5.372,0,0,1,16.6,7.874V7.011a5.411,5.411,0,0,1,.463-2.3A3.492,3.492,0,0,1,18.39,3.17a3.709,3.709,0,0,1,2-.54,3.572,3.572,0,0,1,2.463.828A3.461,3.461,0,0,1,23.941,5.8h-1.6a2.283,2.283,0,0,0-.581-1.438,1.92,1.92,0,0,0-1.368-.441,1.875,1.875,0,0,0-1.609.766,3.826,3.826,0,0,0-.574,2.246v.82a4.059,4.059,0,0,0,.536,2.287,1.78,1.78,0,0,0,1.571.788,2.076,2.076,0,0,0,1.422-.425,2.218,2.218,0,0,0,.6-1.416ZM29.33,12a2.38,2.38,0,0,1-.178-.641,2.595,2.595,0,0,1-3.491.178,1.889,1.889,0,0,1-.654-1.46,1.95,1.95,0,0,1,.816-1.685A3.953,3.953,0,0,1,28.156,7.8H29.1V7.354a1.2,1.2,0,0,0-.3-.854,1.183,1.183,0,0,0-.908-.321,1.359,1.359,0,0,0-.863.263.815.815,0,0,0-.336.67H25.153a1.712,1.712,0,0,1,.375-1.057,2.5,2.5,0,0,1,1.019-.771A3.579,3.579,0,0,1,27.984,5a2.882,2.882,0,0,1,1.923.606,2.162,2.162,0,0,1,.736,1.7v3.1a3.511,3.511,0,0,0,.26,1.479V12Zm-1.695-1.111a1.755,1.755,0,0,0,.86-.222,1.484,1.484,0,0,0,.606-.6V8.775H28.27a2.274,2.274,0,0,0-1.289.3.966.966,0,0,0-.432.844.9.9,0,0,0,.3.708A1.143,1.143,0,0,0,27.635,10.889Zm6.056-5.757.044.793a2.469,2.469,0,0,1,2-.92q2.146,0,2.184,2.457V12H36.376V7.55a1.414,1.414,0,0,0-.282-.968,1.188,1.188,0,0,0-.924-.314,1.486,1.486,0,0,0-1.39.844V12H32.237V5.132Zm7.731-1.669V5.132h1.212V6.274H41.422v3.834a.844.844,0,0,0,.156.568.721.721,0,0,0,.555.175,2.376,2.376,0,0,0,.54-.063v1.193a3.8,3.8,0,0,1-1.016.146q-1.777,0-1.777-1.961V6.274H38.75V5.132h1.13V3.462ZM45.453,12H43.911V5.132h1.542ZM43.815,3.342a.828.828,0,0,1,.225-.595.847.847,0,0,1,.644-.237.858.858,0,0,1,.647.237.822.822,0,0,1,.229.595.8.8,0,0,1-.229.585.865.865,0,0,1-.647.233.854.854,0,0,1-.644-.233A.809.809,0,0,1,43.815,3.342Zm3.028,5.173a4.083,4.083,0,0,1,.736-2.549A2.359,2.359,0,0,1,49.554,5a2.242,2.242,0,0,1,1.765.762V2.25h1.542V12h-1.4l-.076-.711a2.274,2.274,0,0,1-1.847.838,2.346,2.346,0,0,1-1.952-.971A4.233,4.233,0,0,1,46.843,8.515Zm1.542.133a2.859,2.859,0,0,0,.4,1.635,1.308,1.308,0,0,0,1.146.587,1.457,1.457,0,0,0,1.384-.844V7.093a1.435,1.435,0,0,0-1.371-.825,1.318,1.318,0,0,0-1.155.594A3.184,3.184,0,0,0,48.386,8.648ZM58.574,12a2.381,2.381,0,0,1-.178-.641,2.595,2.595,0,0,1-3.491.178,1.889,1.889,0,0,1-.654-1.46,1.95,1.95,0,0,1,.816-1.685A3.953,3.953,0,0,1,57.4,7.8h.946V7.354a1.2,1.2,0,0,0-.3-.854,1.183,1.183,0,0,0-.908-.321,1.359,1.359,0,0,0-.863.263.815.815,0,0,0-.336.67H54.4a1.712,1.712,0,0,1,.375-1.057,2.5,2.5,0,0,1,1.019-.771A3.579,3.579,0,0,1,57.228,5a2.882,2.882,0,0,1,1.923.606,2.162,2.162,0,0,1,.736,1.7v3.1a3.511,3.511,0,0,0,.26,1.479V12Zm-1.695-1.111a1.755,1.755,0,0,0,.86-.222,1.484,1.484,0,0,0,.606-.6V8.775h-.832a2.274,2.274,0,0,0-1.289.3.966.966,0,0,0-.432.844.9.9,0,0,0,.3.708A1.143,1.143,0,0,0,56.879,10.889Zm4.335-2.374a4.083,4.083,0,0,1,.736-2.549A2.359,2.359,0,0,1,63.925,5a2.242,2.242,0,0,1,1.765.762V2.25h1.542V12h-1.4l-.076-.711a2.274,2.274,0,0,1-1.847.838,2.346,2.346,0,0,1-1.952-.971A4.233,4.233,0,0,1,61.214,8.515Zm1.542.133a2.859,2.859,0,0,0,.4,1.635,1.308,1.308,0,0,0,1.146.587,1.457,1.457,0,0,0,1.384-.844V7.093a1.435,1.435,0,0,0-1.371-.825,1.318,1.318,0,0,0-1.155.594A3.184,3.184,0,0,0,62.757,8.648Z" transform="translate(800 1969)" fill="#12263f"/>
    <path id="Trazado_720495" data-name="Trazado 720495" d="M23.941,8.991A3.337,3.337,0,0,1,22.849,11.3a3.722,3.722,0,0,1-2.533.828,3.6,3.6,0,0,1-1.946-.524,3.437,3.437,0,0,1-1.3-1.489A5.372,5.372,0,0,1,16.6,7.874V7.011a5.411,5.411,0,0,1,.463-2.3A3.492,3.492,0,0,1,18.39,3.17a3.709,3.709,0,0,1,2-.54,3.572,3.572,0,0,1,2.463.828A3.461,3.461,0,0,1,23.941,5.8h-1.6a2.283,2.283,0,0,0-.581-1.438,1.92,1.92,0,0,0-1.368-.441,1.875,1.875,0,0,0-1.609.766,3.826,3.826,0,0,0-.574,2.246v.82a4.059,4.059,0,0,0,.536,2.287,1.78,1.78,0,0,0,1.571.788,2.076,2.076,0,0,0,1.422-.425,2.218,2.218,0,0,0,.6-1.416ZM29.33,12a2.38,2.38,0,0,1-.178-.641,2.595,2.595,0,0,1-3.491.178,1.889,1.889,0,0,1-.654-1.46,1.95,1.95,0,0,1,.816-1.685A3.953,3.953,0,0,1,28.156,7.8H29.1V7.354a1.2,1.2,0,0,0-.3-.854,1.183,1.183,0,0,0-.908-.321,1.359,1.359,0,0,0-.863.263.815.815,0,0,0-.336.67H25.153a1.712,1.712,0,0,1,.375-1.057,2.5,2.5,0,0,1,1.019-.771A3.579,3.579,0,0,1,27.984,5a2.882,2.882,0,0,1,1.923.606,2.162,2.162,0,0,1,.736,1.7v3.1a3.511,3.511,0,0,0,.26,1.479V12Zm-1.695-1.111a1.755,1.755,0,0,0,.86-.222,1.484,1.484,0,0,0,.606-.6V8.775H28.27a2.274,2.274,0,0,0-1.289.3.966.966,0,0,0-.432.844.9.9,0,0,0,.3.708A1.143,1.143,0,0,0,27.635,10.889Zm6.056-5.757.044.793a2.469,2.469,0,0,1,2-.92q2.146,0,2.184,2.457V12H36.376V7.55a1.414,1.414,0,0,0-.282-.968,1.188,1.188,0,0,0-.924-.314,1.486,1.486,0,0,0-1.39.844V12H32.237V5.132Zm7.731-1.669V5.132h1.212V6.274H41.422v3.834a.844.844,0,0,0,.156.568.721.721,0,0,0,.555.175,2.376,2.376,0,0,0,.54-.063v1.193a3.8,3.8,0,0,1-1.016.146q-1.777,0-1.777-1.961V6.274H38.75V5.132h1.13V3.462ZM45.453,12H43.911V5.132h1.542ZM43.815,3.342a.828.828,0,0,1,.225-.595.847.847,0,0,1,.644-.237.858.858,0,0,1,.647.237.822.822,0,0,1,.229.595.8.8,0,0,1-.229.585.865.865,0,0,1-.647.233.854.854,0,0,1-.644-.233A.809.809,0,0,1,43.815,3.342Zm3.028,5.173a4.083,4.083,0,0,1,.736-2.549A2.359,2.359,0,0,1,49.554,5a2.242,2.242,0,0,1,1.765.762V2.25h1.542V12h-1.4l-.076-.711a2.274,2.274,0,0,1-1.847.838,2.346,2.346,0,0,1-1.952-.971A4.233,4.233,0,0,1,46.843,8.515Zm1.542.133a2.859,2.859,0,0,0,.4,1.635,1.308,1.308,0,0,0,1.146.587,1.457,1.457,0,0,0,1.384-.844V7.093a1.435,1.435,0,0,0-1.371-.825,1.318,1.318,0,0,0-1.155.594A3.184,3.184,0,0,0,48.386,8.648ZM58.574,12a2.381,2.381,0,0,1-.178-.641,2.595,2.595,0,0,1-3.491.178,1.889,1.889,0,0,1-.654-1.46,1.95,1.95,0,0,1,.816-1.685A3.953,3.953,0,0,1,57.4,7.8h.946V7.354a1.2,1.2,0,0,0-.3-.854,1.183,1.183,0,0,0-.908-.321,1.359,1.359,0,0,0-.863.263.815.815,0,0,0-.336.67H54.4a1.712,1.712,0,0,1,.375-1.057,2.5,2.5,0,0,1,1.019-.771A3.579,3.579,0,0,1,57.228,5a2.882,2.882,0,0,1,1.923.606,2.162,2.162,0,0,1,.736,1.7v3.1a3.511,3.511,0,0,0,.26,1.479V12Zm-1.695-1.111a1.755,1.755,0,0,0,.86-.222,1.484,1.484,0,0,0,.606-.6V8.775h-.832a2.274,2.274,0,0,0-1.289.3.966.966,0,0,0-.432.844.9.9,0,0,0,.3.708A1.143,1.143,0,0,0,56.879,10.889Zm4.335-2.374a4.083,4.083,0,0,1,.736-2.549A2.359,2.359,0,0,1,63.925,5a2.242,2.242,0,0,1,1.765.762V2.25h1.542V12h-1.4l-.076-.711a2.274,2.274,0,0,1-1.847.838,2.346,2.346,0,0,1-1.952-.971A4.233,4.233,0,0,1,61.214,8.515Zm1.542.133a2.859,2.859,0,0,0,.4,1.635,1.308,1.308,0,0,0,1.146.587,1.457,1.457,0,0,0,1.384-.844V7.093a1.435,1.435,0,0,0-1.371-.825,1.318,1.318,0,0,0-1.155.594A3.184,3.184,0,0,0,62.757,8.648Z" transform="translate(1045 1969)" fill="#12263f"/>
    <path id="Trazado_720496" data-name="Trazado 720496" d="M30.974,9.988l2.349-7.23h1.765L31.761,12H30.206L26.893,2.758h1.758ZM39.791,12a2.381,2.381,0,0,1-.178-.641,2.595,2.595,0,0,1-3.491.178,1.889,1.889,0,0,1-.654-1.46,1.95,1.95,0,0,1,.816-1.685A3.953,3.953,0,0,1,38.617,7.8h.946V7.354a1.2,1.2,0,0,0-.3-.854,1.183,1.183,0,0,0-.908-.321,1.359,1.359,0,0,0-.863.263.815.815,0,0,0-.336.67H35.614a1.712,1.712,0,0,1,.375-1.057,2.5,2.5,0,0,1,1.019-.771A3.579,3.579,0,0,1,38.445,5a2.882,2.882,0,0,1,1.923.606,2.162,2.162,0,0,1,.736,1.7v3.1a3.511,3.511,0,0,0,.26,1.479V12ZM38.1,10.889a1.755,1.755,0,0,0,.86-.222,1.484,1.484,0,0,0,.606-.6V8.775h-.832a2.274,2.274,0,0,0-1.289.3.966.966,0,0,0-.432.844.9.9,0,0,0,.3.708A1.143,1.143,0,0,0,38.1,10.889ZM44.361,12H42.819V2.25h1.542Zm1.39-3.5a4.05,4.05,0,0,1,.4-1.819A2.921,2.921,0,0,1,47.275,5.44,3.166,3.166,0,0,1,48.938,5a3,3,0,0,1,2.257.9,3.52,3.52,0,0,1,.936,2.374l.006.362a4.086,4.086,0,0,1-.39,1.815,2.886,2.886,0,0,1-1.117,1.238,3.189,3.189,0,0,1-1.679.438,2.979,2.979,0,0,1-2.326-.968,3.707,3.707,0,0,1-.873-2.58Zm1.542.133a2.767,2.767,0,0,0,.438,1.66,1.424,1.424,0,0,0,1.219.6,1.408,1.408,0,0,0,1.216-.609A3.057,3.057,0,0,0,50.6,8.5a2.732,2.732,0,0,0-.448-1.65,1.508,1.508,0,0,0-2.415-.01A3,3,0,0,0,47.294,8.636Zm9.744-2.095a3.817,3.817,0,0,0-.628-.051,1.415,1.415,0,0,0-1.428.813V12H53.438V5.132h1.473l.038.768A1.738,1.738,0,0,1,56.5,5a1.444,1.444,0,0,1,.546.089Zm-32.3,18.786a2.392,2.392,0,0,1-1.93.8,2.132,2.132,0,0,1-1.692-.654,2.781,2.781,0,0,1-.574-1.892v-4.45h1.542v4.431q0,1.308,1.085,1.308a1.524,1.524,0,0,0,1.517-.806V19.132h1.542V26H24.779Zm4.494-6.2.044.793a2.469,2.469,0,0,1,2-.92q2.146,0,2.184,2.457V26H31.92V21.55a1.414,1.414,0,0,0-.282-.968,1.188,1.188,0,0,0-.924-.314,1.486,1.486,0,0,0-1.39.844V26H27.781V19.132ZM36.674,26H35.132V19.132h1.542Zm-1.638-8.658a.828.828,0,0,1,.225-.595.847.847,0,0,1,.644-.237.858.858,0,0,1,.647.237.822.822,0,0,1,.229.595.8.8,0,0,1-.229.585.865.865,0,0,1-.647.233.854.854,0,0,1-.644-.233A.809.809,0,0,1,35.037,17.342Zm5.25.121v1.669H41.5v1.143H40.286v3.834a.844.844,0,0,0,.156.568.721.721,0,0,0,.555.175,2.376,2.376,0,0,0,.54-.063v1.193a3.8,3.8,0,0,1-1.016.146q-1.777,0-1.777-1.961V20.274h-1.13V19.132h1.13V17.462ZM46.78,26a2.381,2.381,0,0,1-.178-.641,2.595,2.595,0,0,1-3.491.178,1.889,1.889,0,0,1-.654-1.46,1.95,1.95,0,0,1,.816-1.685,3.953,3.953,0,0,1,2.333-.587h.946v-.451a1.2,1.2,0,0,0-.3-.854,1.183,1.183,0,0,0-.908-.321,1.359,1.359,0,0,0-.863.263.815.815,0,0,0-.336.67H42.6a1.712,1.712,0,0,1,.375-1.057A2.5,2.5,0,0,1,44,19.284,3.579,3.579,0,0,1,45.434,19a2.882,2.882,0,0,1,1.923.606,2.162,2.162,0,0,1,.736,1.7v3.1a3.511,3.511,0,0,0,.26,1.479V26Zm-1.695-1.111a1.755,1.755,0,0,0,.86-.222,1.484,1.484,0,0,0,.606-.6V22.775H45.72a2.274,2.274,0,0,0-1.289.3.966.966,0,0,0-.432.844.9.9,0,0,0,.3.708A1.143,1.143,0,0,0,45.085,24.889Zm8.22-4.348a3.817,3.817,0,0,0-.628-.051,1.415,1.415,0,0,0-1.428.813V26H49.706V19.132h1.473l.038.768a1.738,1.738,0,0,1,1.549-.9,1.444,1.444,0,0,1,.546.089ZM55.92,26H54.378V19.132H55.92Zm-1.638-8.658a.828.828,0,0,1,.225-.595.847.847,0,0,1,.644-.237.858.858,0,0,1,.647.237.822.822,0,0,1,.229.595.8.8,0,0,1-.229.585.865.865,0,0,1-.647.233.854.854,0,0,1-.644-.233A.809.809,0,0,1,54.283,17.342ZM57.311,22.5a4.05,4.05,0,0,1,.4-1.819,2.921,2.921,0,0,1,1.124-1.244A3.166,3.166,0,0,1,60.5,19a3,3,0,0,1,2.257.9,3.52,3.52,0,0,1,.936,2.374l.006.362a4.086,4.086,0,0,1-.39,1.815,2.886,2.886,0,0,1-1.117,1.238,3.189,3.189,0,0,1-1.679.438,2.979,2.979,0,0,1-2.326-.968,3.707,3.707,0,0,1-.873-2.58Zm1.542.133a2.767,2.767,0,0,0,.438,1.66,1.424,1.424,0,0,0,1.219.6,1.408,1.408,0,0,0,1.216-.609A3.057,3.057,0,0,0,62.16,22.5a2.732,2.732,0,0,0-.448-1.65,1.508,1.508,0,0,0-2.415-.01A3,3,0,0,0,58.853,22.636Z" transform="translate(636 1963)" fill="#12263f"/>
    <path id="Trazado_720497" data-name="Trazado 720497" d="M30.974,9.988l2.349-7.23h1.765L31.761,12H30.206L26.893,2.758h1.758ZM39.791,12a2.381,2.381,0,0,1-.178-.641,2.595,2.595,0,0,1-3.491.178,1.889,1.889,0,0,1-.654-1.46,1.95,1.95,0,0,1,.816-1.685A3.953,3.953,0,0,1,38.617,7.8h.946V7.354a1.2,1.2,0,0,0-.3-.854,1.183,1.183,0,0,0-.908-.321,1.359,1.359,0,0,0-.863.263.815.815,0,0,0-.336.67H35.614a1.712,1.712,0,0,1,.375-1.057,2.5,2.5,0,0,1,1.019-.771A3.579,3.579,0,0,1,38.445,5a2.882,2.882,0,0,1,1.923.606,2.162,2.162,0,0,1,.736,1.7v3.1a3.511,3.511,0,0,0,.26,1.479V12ZM38.1,10.889a1.755,1.755,0,0,0,.86-.222,1.484,1.484,0,0,0,.606-.6V8.775h-.832a2.274,2.274,0,0,0-1.289.3.966.966,0,0,0-.432.844.9.9,0,0,0,.3.708A1.143,1.143,0,0,0,38.1,10.889ZM44.361,12H42.819V2.25h1.542Zm1.39-3.5a4.05,4.05,0,0,1,.4-1.819A2.921,2.921,0,0,1,47.275,5.44,3.166,3.166,0,0,1,48.938,5a3,3,0,0,1,2.257.9,3.52,3.52,0,0,1,.936,2.374l.006.362a4.086,4.086,0,0,1-.39,1.815,2.886,2.886,0,0,1-1.117,1.238,3.189,3.189,0,0,1-1.679.438,2.979,2.979,0,0,1-2.326-.968,3.707,3.707,0,0,1-.873-2.58Zm1.542.133a2.767,2.767,0,0,0,.438,1.66,1.424,1.424,0,0,0,1.219.6,1.408,1.408,0,0,0,1.216-.609A3.057,3.057,0,0,0,50.6,8.5a2.732,2.732,0,0,0-.448-1.65,1.508,1.508,0,0,0-2.415-.01A3,3,0,0,0,47.294,8.636Zm9.744-2.095a3.817,3.817,0,0,0-.628-.051,1.415,1.415,0,0,0-1.428.813V12H53.438V5.132h1.473l.038.768A1.738,1.738,0,0,1,56.5,5a1.444,1.444,0,0,1,.546.089Zm-32.3,18.786a2.392,2.392,0,0,1-1.93.8,2.132,2.132,0,0,1-1.692-.654,2.781,2.781,0,0,1-.574-1.892v-4.45h1.542v4.431q0,1.308,1.085,1.308a1.524,1.524,0,0,0,1.517-.806V19.132h1.542V26H24.779Zm4.494-6.2.044.793a2.469,2.469,0,0,1,2-.92q2.146,0,2.184,2.457V26H31.92V21.55a1.414,1.414,0,0,0-.282-.968,1.188,1.188,0,0,0-.924-.314,1.486,1.486,0,0,0-1.39.844V26H27.781V19.132ZM36.674,26H35.132V19.132h1.542Zm-1.638-8.658a.828.828,0,0,1,.225-.595.847.847,0,0,1,.644-.237.858.858,0,0,1,.647.237.822.822,0,0,1,.229.595.8.8,0,0,1-.229.585.865.865,0,0,1-.647.233.854.854,0,0,1-.644-.233A.809.809,0,0,1,35.037,17.342Zm5.25.121v1.669H41.5v1.143H40.286v3.834a.844.844,0,0,0,.156.568.721.721,0,0,0,.555.175,2.376,2.376,0,0,0,.54-.063v1.193a3.8,3.8,0,0,1-1.016.146q-1.777,0-1.777-1.961V20.274h-1.13V19.132h1.13V17.462ZM46.78,26a2.381,2.381,0,0,1-.178-.641,2.595,2.595,0,0,1-3.491.178,1.889,1.889,0,0,1-.654-1.46,1.95,1.95,0,0,1,.816-1.685,3.953,3.953,0,0,1,2.333-.587h.946v-.451a1.2,1.2,0,0,0-.3-.854,1.183,1.183,0,0,0-.908-.321,1.359,1.359,0,0,0-.863.263.815.815,0,0,0-.336.67H42.6a1.712,1.712,0,0,1,.375-1.057A2.5,2.5,0,0,1,44,19.284,3.579,3.579,0,0,1,45.434,19a2.882,2.882,0,0,1,1.923.606,2.162,2.162,0,0,1,.736,1.7v3.1a3.511,3.511,0,0,0,.26,1.479V26Zm-1.695-1.111a1.755,1.755,0,0,0,.86-.222,1.484,1.484,0,0,0,.606-.6V22.775H45.72a2.274,2.274,0,0,0-1.289.3.966.966,0,0,0-.432.844.9.9,0,0,0,.3.708A1.143,1.143,0,0,0,45.085,24.889Zm8.22-4.348a3.817,3.817,0,0,0-.628-.051,1.415,1.415,0,0,0-1.428.813V26H49.706V19.132h1.473l.038.768a1.738,1.738,0,0,1,1.549-.9,1.444,1.444,0,0,1,.546.089ZM55.92,26H54.378V19.132H55.92Zm-1.638-8.658a.828.828,0,0,1,.225-.595.847.847,0,0,1,.644-.237.858.858,0,0,1,.647.237.822.822,0,0,1,.229.595.8.8,0,0,1-.229.585.865.865,0,0,1-.647.233.854.854,0,0,1-.644-.233A.809.809,0,0,1,54.283,17.342ZM57.311,22.5a4.05,4.05,0,0,1,.4-1.819,2.921,2.921,0,0,1,1.124-1.244A3.166,3.166,0,0,1,60.5,19a3,3,0,0,1,2.257.9,3.52,3.52,0,0,1,.936,2.374l.006.362a4.086,4.086,0,0,1-.39,1.815,2.886,2.886,0,0,1-1.117,1.238,3.189,3.189,0,0,1-1.679.438,2.979,2.979,0,0,1-2.326-.968,3.707,3.707,0,0,1-.873-2.58Zm1.542.133a2.767,2.767,0,0,0,.438,1.66,1.424,1.424,0,0,0,1.219.6,1.408,1.408,0,0,0,1.216-.609A3.057,3.057,0,0,0,62.16,22.5a2.732,2.732,0,0,0-.448-1.65,1.508,1.508,0,0,0-2.415-.01A3,3,0,0,0,58.853,22.636Z" transform="translate(882 1963)" fill="#12263f"/>
    <path id="Trazado_720498" data-name="Trazado 720498" d="M30.974,9.988l2.349-7.23h1.765L31.761,12H30.206L26.893,2.758h1.758ZM39.791,12a2.381,2.381,0,0,1-.178-.641,2.595,2.595,0,0,1-3.491.178,1.889,1.889,0,0,1-.654-1.46,1.95,1.95,0,0,1,.816-1.685A3.953,3.953,0,0,1,38.617,7.8h.946V7.354a1.2,1.2,0,0,0-.3-.854,1.183,1.183,0,0,0-.908-.321,1.359,1.359,0,0,0-.863.263.815.815,0,0,0-.336.67H35.614a1.712,1.712,0,0,1,.375-1.057,2.5,2.5,0,0,1,1.019-.771A3.579,3.579,0,0,1,38.445,5a2.882,2.882,0,0,1,1.923.606,2.162,2.162,0,0,1,.736,1.7v3.1a3.511,3.511,0,0,0,.26,1.479V12ZM38.1,10.889a1.755,1.755,0,0,0,.86-.222,1.484,1.484,0,0,0,.606-.6V8.775h-.832a2.274,2.274,0,0,0-1.289.3.966.966,0,0,0-.432.844.9.9,0,0,0,.3.708A1.143,1.143,0,0,0,38.1,10.889ZM44.361,12H42.819V2.25h1.542Zm1.39-3.5a4.05,4.05,0,0,1,.4-1.819A2.921,2.921,0,0,1,47.275,5.44,3.166,3.166,0,0,1,48.938,5a3,3,0,0,1,2.257.9,3.52,3.52,0,0,1,.936,2.374l.006.362a4.086,4.086,0,0,1-.39,1.815,2.886,2.886,0,0,1-1.117,1.238,3.189,3.189,0,0,1-1.679.438,2.979,2.979,0,0,1-2.326-.968,3.707,3.707,0,0,1-.873-2.58Zm1.542.133a2.767,2.767,0,0,0,.438,1.66,1.424,1.424,0,0,0,1.219.6,1.408,1.408,0,0,0,1.216-.609A3.057,3.057,0,0,0,50.6,8.5a2.732,2.732,0,0,0-.448-1.65,1.508,1.508,0,0,0-2.415-.01A3,3,0,0,0,47.294,8.636Zm9.744-2.095a3.817,3.817,0,0,0-.628-.051,1.415,1.415,0,0,0-1.428.813V12H53.438V5.132h1.473l.038.768A1.738,1.738,0,0,1,56.5,5a1.444,1.444,0,0,1,.546.089Zm-32.3,18.786a2.392,2.392,0,0,1-1.93.8,2.132,2.132,0,0,1-1.692-.654,2.781,2.781,0,0,1-.574-1.892v-4.45h1.542v4.431q0,1.308,1.085,1.308a1.524,1.524,0,0,0,1.517-.806V19.132h1.542V26H24.779Zm4.494-6.2.044.793a2.469,2.469,0,0,1,2-.92q2.146,0,2.184,2.457V26H31.92V21.55a1.414,1.414,0,0,0-.282-.968,1.188,1.188,0,0,0-.924-.314,1.486,1.486,0,0,0-1.39.844V26H27.781V19.132ZM36.674,26H35.132V19.132h1.542Zm-1.638-8.658a.828.828,0,0,1,.225-.595.847.847,0,0,1,.644-.237.858.858,0,0,1,.647.237.822.822,0,0,1,.229.595.8.8,0,0,1-.229.585.865.865,0,0,1-.647.233.854.854,0,0,1-.644-.233A.809.809,0,0,1,35.037,17.342Zm5.25.121v1.669H41.5v1.143H40.286v3.834a.844.844,0,0,0,.156.568.721.721,0,0,0,.555.175,2.376,2.376,0,0,0,.54-.063v1.193a3.8,3.8,0,0,1-1.016.146q-1.777,0-1.777-1.961V20.274h-1.13V19.132h1.13V17.462ZM46.78,26a2.381,2.381,0,0,1-.178-.641,2.595,2.595,0,0,1-3.491.178,1.889,1.889,0,0,1-.654-1.46,1.95,1.95,0,0,1,.816-1.685,3.953,3.953,0,0,1,2.333-.587h.946v-.451a1.2,1.2,0,0,0-.3-.854,1.183,1.183,0,0,0-.908-.321,1.359,1.359,0,0,0-.863.263.815.815,0,0,0-.336.67H42.6a1.712,1.712,0,0,1,.375-1.057A2.5,2.5,0,0,1,44,19.284,3.579,3.579,0,0,1,45.434,19a2.882,2.882,0,0,1,1.923.606,2.162,2.162,0,0,1,.736,1.7v3.1a3.511,3.511,0,0,0,.26,1.479V26Zm-1.695-1.111a1.755,1.755,0,0,0,.86-.222,1.484,1.484,0,0,0,.606-.6V22.775H45.72a2.274,2.274,0,0,0-1.289.3.966.966,0,0,0-.432.844.9.9,0,0,0,.3.708A1.143,1.143,0,0,0,45.085,24.889Zm8.22-4.348a3.817,3.817,0,0,0-.628-.051,1.415,1.415,0,0,0-1.428.813V26H49.706V19.132h1.473l.038.768a1.738,1.738,0,0,1,1.549-.9,1.444,1.444,0,0,1,.546.089ZM55.92,26H54.378V19.132H55.92Zm-1.638-8.658a.828.828,0,0,1,.225-.595.847.847,0,0,1,.644-.237.858.858,0,0,1,.647.237.822.822,0,0,1,.229.595.8.8,0,0,1-.229.585.865.865,0,0,1-.647.233.854.854,0,0,1-.644-.233A.809.809,0,0,1,54.283,17.342ZM57.311,22.5a4.05,4.05,0,0,1,.4-1.819,2.921,2.921,0,0,1,1.124-1.244A3.166,3.166,0,0,1,60.5,19a3,3,0,0,1,2.257.9,3.52,3.52,0,0,1,.936,2.374l.006.362a4.086,4.086,0,0,1-.39,1.815,2.886,2.886,0,0,1-1.117,1.238,3.189,3.189,0,0,1-1.679.438,2.979,2.979,0,0,1-2.326-.968,3.707,3.707,0,0,1-.873-2.58Zm1.542.133a2.767,2.767,0,0,0,.438,1.66,1.424,1.424,0,0,0,1.219.6,1.408,1.408,0,0,0,1.216-.609A3.057,3.057,0,0,0,62.16,22.5a2.732,2.732,0,0,0-.448-1.65,1.508,1.508,0,0,0-2.415-.01A3,3,0,0,0,58.853,22.636Z" transform="translate(1127 1963)" fill="#12263f"/>
    <path id="Trazado_720499" data-name="Trazado 720499" d="M29.474,9.988l2.349-7.23h1.765L30.261,12H28.706L25.393,2.758h1.758ZM38.291,12a2.381,2.381,0,0,1-.178-.641,2.595,2.595,0,0,1-3.491.178,1.889,1.889,0,0,1-.654-1.46,1.95,1.95,0,0,1,.816-1.685A3.953,3.953,0,0,1,37.117,7.8h.946V7.354a1.2,1.2,0,0,0-.3-.854,1.183,1.183,0,0,0-.908-.321,1.359,1.359,0,0,0-.863.263.815.815,0,0,0-.336.67H34.114a1.712,1.712,0,0,1,.375-1.057,2.5,2.5,0,0,1,1.019-.771A3.579,3.579,0,0,1,36.945,5a2.882,2.882,0,0,1,1.923.606,2.162,2.162,0,0,1,.736,1.7v3.1a3.511,3.511,0,0,0,.26,1.479V12ZM36.6,10.889a1.755,1.755,0,0,0,.86-.222,1.484,1.484,0,0,0,.606-.6V8.775h-.832a2.274,2.274,0,0,0-1.289.3.966.966,0,0,0-.432.844.9.9,0,0,0,.3.708A1.143,1.143,0,0,0,36.6,10.889ZM42.861,12H41.319V2.25h1.542Zm1.39-3.5a4.05,4.05,0,0,1,.4-1.819A2.921,2.921,0,0,1,45.775,5.44,3.166,3.166,0,0,1,47.438,5a3,3,0,0,1,2.257.9,3.52,3.52,0,0,1,.936,2.374l.006.362a4.086,4.086,0,0,1-.39,1.815,2.886,2.886,0,0,1-1.117,1.238,3.189,3.189,0,0,1-1.679.438,2.979,2.979,0,0,1-2.326-.968,3.707,3.707,0,0,1-.873-2.58Zm1.542.133a2.767,2.767,0,0,0,.438,1.66,1.424,1.424,0,0,0,1.219.6,1.408,1.408,0,0,0,1.216-.609A3.057,3.057,0,0,0,49.1,8.5a2.732,2.732,0,0,0-.448-1.65,1.508,1.508,0,0,0-2.415-.01A3,3,0,0,0,45.794,8.636Zm9.744-2.095a3.817,3.817,0,0,0-.628-.051,1.415,1.415,0,0,0-1.428.813V12H51.938V5.132h1.473l.038.768A1.738,1.738,0,0,1,55,5a1.444,1.444,0,0,1,.546.089ZM30.118,17.462v1.669h1.212v1.143H30.118v3.834a.844.844,0,0,0,.156.568.721.721,0,0,0,.555.175,2.376,2.376,0,0,0,.54-.063v1.193a3.8,3.8,0,0,1-1.016.146q-1.777,0-1.777-1.961V20.274h-1.13V19.132h1.13V17.462Zm1.911,5.04a4.05,4.05,0,0,1,.4-1.819,2.921,2.921,0,0,1,1.124-1.244A3.166,3.166,0,0,1,35.216,19a3,3,0,0,1,2.257.9,3.52,3.52,0,0,1,.936,2.374l.006.362a4.086,4.086,0,0,1-.39,1.815,2.886,2.886,0,0,1-1.117,1.238,3.189,3.189,0,0,1-1.679.438,2.979,2.979,0,0,1-2.326-.968,3.707,3.707,0,0,1-.873-2.58Zm1.542.133a2.767,2.767,0,0,0,.438,1.66,1.424,1.424,0,0,0,1.219.6,1.408,1.408,0,0,0,1.216-.609,3.057,3.057,0,0,0,.435-1.784,2.732,2.732,0,0,0-.448-1.65,1.508,1.508,0,0,0-2.415-.01A3,3,0,0,0,33.572,22.636Zm8.081-5.173v1.669h1.212v1.143H41.652v3.834a.844.844,0,0,0,.156.568.721.721,0,0,0,.555.175,2.376,2.376,0,0,0,.54-.063v1.193a3.8,3.8,0,0,1-1.016.146q-1.777,0-1.777-1.961V20.274H38.98V19.132h1.13V17.462ZM48.146,26a2.381,2.381,0,0,1-.178-.641,2.595,2.595,0,0,1-3.491.178,1.889,1.889,0,0,1-.654-1.46,1.95,1.95,0,0,1,.816-1.685,3.953,3.953,0,0,1,2.333-.587h.946v-.451a1.2,1.2,0,0,0-.3-.854,1.183,1.183,0,0,0-.908-.321,1.359,1.359,0,0,0-.863.263.815.815,0,0,0-.336.67H43.969a1.712,1.712,0,0,1,.375-1.057,2.5,2.5,0,0,1,1.019-.771A3.579,3.579,0,0,1,46.8,19a2.882,2.882,0,0,1,1.923.606,2.162,2.162,0,0,1,.736,1.7v3.1a3.511,3.511,0,0,0,.26,1.479V26Zm-1.695-1.111a1.755,1.755,0,0,0,.86-.222,1.484,1.484,0,0,0,.606-.6V22.775h-.832a2.274,2.274,0,0,0-1.289.3.966.966,0,0,0-.432.844.9.9,0,0,0,.3.708A1.143,1.143,0,0,0,46.451,24.889ZM52.716,26H51.174V16.25h1.542Z" transform="translate(719 1963)" fill="#12263f"/>
    <path id="Trazado_720500" data-name="Trazado 720500" d="M29.474,9.988l2.349-7.23h1.765L30.261,12H28.706L25.393,2.758h1.758ZM38.291,12a2.381,2.381,0,0,1-.178-.641,2.595,2.595,0,0,1-3.491.178,1.889,1.889,0,0,1-.654-1.46,1.95,1.95,0,0,1,.816-1.685A3.953,3.953,0,0,1,37.117,7.8h.946V7.354a1.2,1.2,0,0,0-.3-.854,1.183,1.183,0,0,0-.908-.321,1.359,1.359,0,0,0-.863.263.815.815,0,0,0-.336.67H34.114a1.712,1.712,0,0,1,.375-1.057,2.5,2.5,0,0,1,1.019-.771A3.579,3.579,0,0,1,36.945,5a2.882,2.882,0,0,1,1.923.606,2.162,2.162,0,0,1,.736,1.7v3.1a3.511,3.511,0,0,0,.26,1.479V12ZM36.6,10.889a1.755,1.755,0,0,0,.86-.222,1.484,1.484,0,0,0,.606-.6V8.775h-.832a2.274,2.274,0,0,0-1.289.3.966.966,0,0,0-.432.844.9.9,0,0,0,.3.708A1.143,1.143,0,0,0,36.6,10.889ZM42.861,12H41.319V2.25h1.542Zm1.39-3.5a4.05,4.05,0,0,1,.4-1.819A2.921,2.921,0,0,1,45.775,5.44,3.166,3.166,0,0,1,47.438,5a3,3,0,0,1,2.257.9,3.52,3.52,0,0,1,.936,2.374l.006.362a4.086,4.086,0,0,1-.39,1.815,2.886,2.886,0,0,1-1.117,1.238,3.189,3.189,0,0,1-1.679.438,2.979,2.979,0,0,1-2.326-.968,3.707,3.707,0,0,1-.873-2.58Zm1.542.133a2.767,2.767,0,0,0,.438,1.66,1.424,1.424,0,0,0,1.219.6,1.408,1.408,0,0,0,1.216-.609A3.057,3.057,0,0,0,49.1,8.5a2.732,2.732,0,0,0-.448-1.65,1.508,1.508,0,0,0-2.415-.01A3,3,0,0,0,45.794,8.636Zm9.744-2.095a3.817,3.817,0,0,0-.628-.051,1.415,1.415,0,0,0-1.428.813V12H51.938V5.132h1.473l.038.768A1.738,1.738,0,0,1,55,5a1.444,1.444,0,0,1,.546.089ZM30.118,17.462v1.669h1.212v1.143H30.118v3.834a.844.844,0,0,0,.156.568.721.721,0,0,0,.555.175,2.376,2.376,0,0,0,.54-.063v1.193a3.8,3.8,0,0,1-1.016.146q-1.777,0-1.777-1.961V20.274h-1.13V19.132h1.13V17.462Zm1.911,5.04a4.05,4.05,0,0,1,.4-1.819,2.921,2.921,0,0,1,1.124-1.244A3.166,3.166,0,0,1,35.216,19a3,3,0,0,1,2.257.9,3.52,3.52,0,0,1,.936,2.374l.006.362a4.086,4.086,0,0,1-.39,1.815,2.886,2.886,0,0,1-1.117,1.238,3.189,3.189,0,0,1-1.679.438,2.979,2.979,0,0,1-2.326-.968,3.707,3.707,0,0,1-.873-2.58Zm1.542.133a2.767,2.767,0,0,0,.438,1.66,1.424,1.424,0,0,0,1.219.6,1.408,1.408,0,0,0,1.216-.609,3.057,3.057,0,0,0,.435-1.784,2.732,2.732,0,0,0-.448-1.65,1.508,1.508,0,0,0-2.415-.01A3,3,0,0,0,33.572,22.636Zm8.081-5.173v1.669h1.212v1.143H41.652v3.834a.844.844,0,0,0,.156.568.721.721,0,0,0,.555.175,2.376,2.376,0,0,0,.54-.063v1.193a3.8,3.8,0,0,1-1.016.146q-1.777,0-1.777-1.961V20.274H38.98V19.132h1.13V17.462ZM48.146,26a2.381,2.381,0,0,1-.178-.641,2.595,2.595,0,0,1-3.491.178,1.889,1.889,0,0,1-.654-1.46,1.95,1.95,0,0,1,.816-1.685,3.953,3.953,0,0,1,2.333-.587h.946v-.451a1.2,1.2,0,0,0-.3-.854,1.183,1.183,0,0,0-.908-.321,1.359,1.359,0,0,0-.863.263.815.815,0,0,0-.336.67H43.969a1.712,1.712,0,0,1,.375-1.057,2.5,2.5,0,0,1,1.019-.771A3.579,3.579,0,0,1,46.8,19a2.882,2.882,0,0,1,1.923.606,2.162,2.162,0,0,1,.736,1.7v3.1a3.511,3.511,0,0,0,.26,1.479V26Zm-1.695-1.111a1.755,1.755,0,0,0,.86-.222,1.484,1.484,0,0,0,.606-.6V22.775h-.832a2.274,2.274,0,0,0-1.289.3.966.966,0,0,0-.432.844.9.9,0,0,0,.3.708A1.143,1.143,0,0,0,46.451,24.889ZM52.716,26H51.174V16.25h1.542Z" transform="translate(965 1963)" fill="#12263f"/>
    <path id="Trazado_720501" data-name="Trazado 720501" d="M42.294,4.053H39.412V12H37.819V4.053H34.962V2.758h7.332ZM41.748,8.5a4.05,4.05,0,0,1,.4-1.819A2.921,2.921,0,0,1,43.271,5.44,3.166,3.166,0,0,1,44.934,5a3,3,0,0,1,2.257.9,3.52,3.52,0,0,1,.936,2.374l.006.362a4.086,4.086,0,0,1-.39,1.815,2.886,2.886,0,0,1-1.117,1.238,3.189,3.189,0,0,1-1.679.438,2.979,2.979,0,0,1-2.326-.968,3.707,3.707,0,0,1-.873-2.58Zm1.542.133a2.767,2.767,0,0,0,.438,1.66,1.424,1.424,0,0,0,1.219.6,1.408,1.408,0,0,0,1.216-.609A3.057,3.057,0,0,0,46.6,8.5a2.732,2.732,0,0,0-.448-1.65,1.508,1.508,0,0,0-2.415-.01A3,3,0,0,0,43.29,8.636Zm8.081-5.173V5.132h1.212V6.274H51.371v3.834a.844.844,0,0,0,.156.568.721.721,0,0,0,.555.175,2.376,2.376,0,0,0,.54-.063v1.193a3.8,3.8,0,0,1-1.016.146q-1.777,0-1.777-1.961V6.274H48.7V5.132h1.13V3.462ZM57.865,12a2.381,2.381,0,0,1-.178-.641,2.595,2.595,0,0,1-3.491.178,1.889,1.889,0,0,1-.654-1.46,1.95,1.95,0,0,1,.816-1.685A3.953,3.953,0,0,1,56.69,7.8h.946V7.354a1.2,1.2,0,0,0-.3-.854,1.183,1.183,0,0,0-.908-.321,1.359,1.359,0,0,0-.863.263.815.815,0,0,0-.336.67H53.688a1.712,1.712,0,0,1,.375-1.057,2.5,2.5,0,0,1,1.019-.771A3.579,3.579,0,0,1,56.519,5a2.882,2.882,0,0,1,1.923.606,2.162,2.162,0,0,1,.736,1.7v3.1a3.511,3.511,0,0,0,.26,1.479V12ZM56.17,10.889a1.755,1.755,0,0,0,.86-.222,1.484,1.484,0,0,0,.606-.6V8.775H56.8a2.274,2.274,0,0,0-1.289.3.966.966,0,0,0-.432.844.9.9,0,0,0,.3.708A1.143,1.143,0,0,0,56.17,10.889ZM62.435,12H60.892V2.25h1.542Z" transform="translate(1206 1968)" fill="#12263f"/>
    <path id="Trazado_720502" data-name="Trazado 720502" d="M0,0V393" transform="translate(390 1922)" fill="none" stroke="#707070" stroke-width="1"/>
    <path id="Trazado_720503" data-name="Trazado 720503" d="M0,0V356" transform="translate(472 1959)" fill="none" stroke="#707070" stroke-width="1"/>
    <path id="Trazado_720504" data-name="Trazado 720504" d="M0,0V433" transform="translate(554 1922)" fill="none" stroke="#707070" stroke-width="1"/>
    <path id="Trazado_720505" data-name="Trazado 720505" d="M0,0V396" transform="translate(637 1959)" fill="none" stroke="#707070" stroke-width="1"/>
    <path id="Trazado_720506" data-name="Trazado 720506" d="M0,0V396" transform="translate(719 1959)" fill="none" stroke="#707070" stroke-width="1"/>
    <path id="Trazado_720507" data-name="Trazado 720507" d="M0,0V433" transform="translate(800 1922)" fill="none" stroke="#707070" stroke-width="1"/>
    <path id="Trazado_720508" data-name="Trazado 720508" d="M0,0V396" transform="translate(882 1959)" fill="none" stroke="#707070" stroke-width="1"/>
    <path id="Trazado_720509" data-name="Trazado 720509" d="M0,0V396" transform="translate(963 1959)" fill="none" stroke="#707070" stroke-width="1"/>
    <path id="Trazado_720510" data-name="Trazado 720510" d="M0,0V433" transform="translate(1045 1922)" fill="none" stroke="#707070" stroke-width="1"/>
    <path id="Trazado_720511" data-name="Trazado 720511" d="M0,0V396" transform="translate(1125 1959)" fill="none" stroke="#707070" stroke-width="1"/>
    <path id="Trazado_720512" data-name="Trazado 720512" d="M0,0V396" transform="translate(1206 1959)" fill="none" stroke="#707070" stroke-width="1"/>
    <path id="Trazado_712770" data-name="Trazado 712770" d="M-5943-9624h1009.3" transform="translate(6238 11939.499)" fill="none" stroke="#707070" stroke-width="1"/>
    <path id="Trazado_712772" data-name="Trazado 712772" d="M-5943-9624h914.3" transform="translate(6333 11580.499)" fill="none" stroke="#707070" stroke-width="1"/>
    <g id="Trazado_720513" data-name="Trazado 720513" transform="translate(295 1922)" fill="none">
      <path d="M0,0H1011V433H0Z" stroke="none"/>
      <path d="M 1 1 L 1 432 L 1010 432 L 1010 1 L 1 1 M 0 0 L 1011 0 L 1011 433 L 0 433 L 0 0 Z" stroke="none" fill="#707070"/>
    </g>
  </g>
</svg>
