<svg xmlns="http://www.w3.org/2000/svg" xmlns:xlink="http://www.w3.org/1999/xlink" width="283" height="223.5" viewBox="0 0 283 223.5">
  <defs>
    <clipPath id="clip-path">
      <rect id="Rectángulo_350648" data-name="Rectángulo 350648" width="239.446" height="159.881" fill="none"/>
    </clipPath>
    <clipPath id="clip-path-3">
      <rect id="Rectángulo_350524" data-name="Rectángulo 350524" width="35.49" height="33.794" transform="translate(87.363 40.621)" fill="none"/>
    </clipPath>
    <clipPath id="clip-path-4">
      <rect id="Rectángulo_350646" data-name="Rectángulo 350646" width="56.096" height="45.808" transform="translate(8.468 21.788)" fill="none"/>
    </clipPath>
  </defs>
  <g id="Grupo_1008224" data-name="Grupo 1008224" transform="translate(-1207 9784)">
    <path id="Trazado_707671" data-name="Trazado 707671" d="M13,0H270c7.18,0,13,4.946,13,11.048v201.4c0,6.1-5.82,11.048-13,11.048H13c-7.18,0-13-4.946-13-11.048V11.048C0,4.946,5.82,0,13,0Z" transform="translate(1207 -9784)" fill="none"/>
    <g id="Grupo_1008205" data-name="Grupo 1008205" transform="translate(1229 -9752)">
      <g id="Grupo_1008204" data-name="Grupo 1008204" clip-path="url(#clip-path)">
        <g id="Grupo_1008203" data-name="Grupo 1008203">
          <g id="Grupo_1008202" data-name="Grupo 1008202" clip-path="url(#clip-path)">
            <path id="Trazado_719828" data-name="Trazado 719828" d="M222.427,110.369H72.253A17.019,17.019,0,0,1,55.234,93.35v-.344A17.019,17.019,0,0,1,72.253,75.988H222.427a17.019,17.019,0,0,1,17.019,17.018v.344a17.019,17.019,0,0,1-17.019,17.019" fill="#212121"/>
            <path id="Trazado_719829" data-name="Trazado 719829" d="M221.829,108.319H72.473a14.99,14.99,0,0,1-14.99-14.99v-.3a14.99,14.99,0,0,1,14.99-14.989H221.829a14.99,14.99,0,0,1,14.99,14.989v.3a14.99,14.99,0,0,1-14.99,14.99" fill="#4b6b2d"/>
            <path id="Trazado_719830" data-name="Trazado 719830" d="M221.829,86.408H72.473c-8.278,0-14.99,15.2-14.99,6.922v-.3a14.989,14.989,0,0,1,14.99-14.989H221.829a14.989,14.989,0,0,1,14.99,14.989v.3c0,8.279-6.712-6.922-14.99-6.922" fill="#3d5725"/>
            <path id="Trazado_719831" data-name="Trazado 719831" d="M221.829,100.033H72.473c-8.278,0-14.99-15.2-14.99-6.922v.3A14.99,14.99,0,0,0,72.473,108.4H221.829a14.99,14.99,0,0,0,14.99-14.989v-.3c0-8.279-6.712,6.922-14.99,6.922" fill="#618a3a"/>
            <path id="Trazado_719832" data-name="Trazado 719832" d="M234.028,93.178a13.815,13.815,0,1,1-13.815-13.815,13.815,13.815,0,0,1,13.815,13.815" fill="#112418"/>
            <path id="Trazado_719833" data-name="Trazado 719833" d="M230.7,93.213a10.484,10.484,0,1,1-10.484-10.484A10.484,10.484,0,0,1,230.7,93.213" fill="#446b53"/>
            <path id="Trazado_719834" data-name="Trazado 719834" d="M229.232,93.178a9.019,9.019,0,1,1-9.019-9.019,9.019,9.019,0,0,1,9.019,9.019" fill="#adadad"/>
            <path id="Trazado_719835" data-name="Trazado 719835" d="M225.665,98.631a7.711,7.711,0,0,1-10.9-10.9Z" fill="#757575"/>
            <path id="Trazado_719836" data-name="Trazado 719836" d="M87.777,93.178A13.815,13.815,0,1,1,73.962,79.363,13.815,13.815,0,0,1,87.777,93.178" fill="#112418"/>
            <path id="Trazado_719837" data-name="Trazado 719837" d="M84.446,93.213A10.484,10.484,0,1,1,73.962,82.729,10.484,10.484,0,0,1,84.446,93.213" fill="#446b53"/>
            <path id="Trazado_719838" data-name="Trazado 719838" d="M82.981,93.178a9.019,9.019,0,1,1-9.019-9.019,9.019,9.019,0,0,1,9.019,9.019" fill="#adadad"/>
            <path id="Trazado_719839" data-name="Trazado 719839" d="M79.415,98.631a7.711,7.711,0,0,1-10.9-10.9Z" fill="#757575"/>
            <path id="Trazado_719840" data-name="Trazado 719840" d="M185.607,93.178a6.345,6.345,0,1,1-6.345-6.345,6.345,6.345,0,0,1,6.345,6.345" fill="#112418"/>
            <path id="Trazado_719841" data-name="Trazado 719841" d="M184.077,93.194a4.815,4.815,0,1,1-4.815-4.815,4.815,4.815,0,0,1,4.815,4.815" fill="#446b53"/>
            <path id="Trazado_719842" data-name="Trazado 719842" d="M183.4,93.178a4.142,4.142,0,1,1-4.142-4.142,4.142,4.142,0,0,1,4.142,4.142" fill="#adadad"/>
            <path id="Trazado_719843" data-name="Trazado 719843" d="M181.766,95.682a3.541,3.541,0,0,1-5.008-5.008Z" fill="#757575"/>
            <path id="Trazado_719844" data-name="Trazado 719844" d="M163.935,93.178a6.345,6.345,0,1,1-6.345-6.345,6.345,6.345,0,0,1,6.345,6.345" fill="#112418"/>
            <path id="Trazado_719845" data-name="Trazado 719845" d="M162.4,93.194a4.815,4.815,0,1,1-4.815-4.815,4.815,4.815,0,0,1,4.815,4.815" fill="#446b53"/>
            <path id="Trazado_719846" data-name="Trazado 719846" d="M161.732,93.178a4.142,4.142,0,1,1-4.142-4.142,4.142,4.142,0,0,1,4.142,4.142" fill="#adadad"/>
            <path id="Trazado_719847" data-name="Trazado 719847" d="M160.094,95.682a3.541,3.541,0,0,1-5.008-5.008Z" fill="#757575"/>
            <path id="Trazado_719848" data-name="Trazado 719848" d="M142.263,93.178a6.345,6.345,0,1,1-6.345-6.345,6.345,6.345,0,0,1,6.345,6.345" fill="#112418"/>
            <path id="Trazado_719849" data-name="Trazado 719849" d="M140.733,93.194a4.815,4.815,0,1,1-4.815-4.815,4.815,4.815,0,0,1,4.815,4.815" fill="#446b53"/>
            <path id="Trazado_719850" data-name="Trazado 719850" d="M140.06,93.178a4.142,4.142,0,1,1-4.142-4.142,4.141,4.141,0,0,1,4.142,4.142" fill="#adadad"/>
            <path id="Trazado_719851" data-name="Trazado 719851" d="M138.422,95.682a3.541,3.541,0,0,1-5.008-5.008Z" fill="#757575"/>
            <path id="Trazado_719852" data-name="Trazado 719852" d="M120.591,93.178a6.345,6.345,0,1,1-6.345-6.345,6.345,6.345,0,0,1,6.345,6.345" fill="#112418"/>
            <path id="Trazado_719853" data-name="Trazado 719853" d="M119.061,93.194a4.815,4.815,0,1,1-4.815-4.815,4.815,4.815,0,0,1,4.815,4.815" fill="#446b53"/>
            <path id="Trazado_719854" data-name="Trazado 719854" d="M118.388,93.178a4.142,4.142,0,1,1-4.142-4.142,4.142,4.142,0,0,1,4.142,4.142" fill="#adadad"/>
            <path id="Trazado_719855" data-name="Trazado 719855" d="M116.75,95.682a3.541,3.541,0,0,1-5.008-5.008Z" fill="#757575"/>
            <rect id="Rectángulo_350523" data-name="Rectángulo 350523" width="35.489" height="33.794" transform="translate(87.364 40.621)" fill="#ff9040"/>
            <path id="Trazado_719856" data-name="Trazado 719856" d="M121.157,72.373h-32.1V42.663h32.1Z" fill="#ab602a"/>
            <g id="Grupo_1008198" data-name="Grupo 1008198" opacity="0.2">
              <g id="Grupo_1008197" data-name="Grupo 1008197">
                <g id="Grupo_1008196" data-name="Grupo 1008196" clip-path="url(#clip-path-3)">
                  <path id="Trazado_719857" data-name="Trazado 719857" d="M122.853,74.415H87.363V40.621l1.693,2.04,0,2.044,32.1,26.174-.053,1.536Z"/>
                </g>
              </g>
            </g>
            <rect id="Rectángulo_350525" data-name="Rectángulo 350525" width="16.428" height="10.85" transform="translate(90.734 45.928)" fill="#ebebeb"/>
            <rect id="Rectángulo_350526" data-name="Rectángulo 350526" width="12.502" height="1.004" transform="translate(92.332 47.299)" fill="#9e9e9e"/>
            <rect id="Rectángulo_350527" data-name="Rectángulo 350527" width="12.502" height="1.004" transform="translate(92.332 49.966)" fill="#9e9e9e"/>
            <rect id="Rectángulo_350528" data-name="Rectángulo 350528" width="12.502" height="1.004" transform="translate(92.332 52.632)" fill="#9e9e9e"/>
            <rect id="Rectángulo_350529" data-name="Rectángulo 350529" width="7.103" height="1.004" transform="translate(92.332 54.091)" fill="#9e9e9e"/>
            <rect id="Rectángulo_350530" data-name="Rectángulo 350530" width="7.434" height="1.081" transform="translate(109.658 62.383)" fill="#401818"/>
            <rect id="Rectángulo_350531" data-name="Rectángulo 350531" width="7.434" height="1.082" transform="translate(109.658 66.051)" fill="#401818"/>
            <rect id="Rectángulo_350532" data-name="Rectángulo 350532" width="7.434" height="1.082" transform="translate(109.658 67.921)" fill="#401818"/>
            <rect id="Rectángulo_350533" data-name="Rectángulo 350533" width="9.833" height="1.081" transform="translate(109.658 64.254)" fill="#401818"/>
            <rect id="Rectángulo_350534" data-name="Rectángulo 350534" width="15.29" height="6.771" transform="translate(90.733 60.173)" fill="#ebebeb"/>
            <rect id="Rectángulo_350535" data-name="Rectángulo 350535" width="0.375" height="3.156" transform="translate(96.333 61.334)" fill="#424242"/>
            <rect id="Rectángulo_350536" data-name="Rectángulo 350536" width="0.375" height="3.156" transform="translate(92.63 61.334)" fill="#424242"/>
            <rect id="Rectángulo_350537" data-name="Rectángulo 350537" width="0.375" height="3.156" transform="translate(101.372 61.334)" fill="#424242"/>
            <rect id="Rectángulo_350538" data-name="Rectángulo 350538" width="0.375" height="3.156" transform="translate(102.336 61.334)" fill="#424242"/>
            <rect id="Rectángulo_350539" data-name="Rectángulo 350539" width="0.604" height="3.156" transform="translate(91.376 61.334)" fill="#424242"/>
            <rect id="Rectángulo_350540" data-name="Rectángulo 350540" width="0.604" height="3.156" transform="translate(95.302 61.334)" fill="#424242"/>
            <rect id="Rectángulo_350541" data-name="Rectángulo 350541" width="0.146" height="3.156" transform="translate(97.667 61.334)" fill="#424242"/>
            <rect id="Rectángulo_350542" data-name="Rectángulo 350542" width="0.146" height="3.156" transform="translate(94.088 61.334)" fill="#424242"/>
            <rect id="Rectángulo_350543" data-name="Rectángulo 350543" width="0.146" height="3.156" transform="translate(98.286 61.334)" fill="#424242"/>
            <rect id="Rectángulo_350544" data-name="Rectángulo 350544" width="0.146" height="3.156" transform="translate(98.832 61.334)" fill="#424242"/>
            <rect id="Rectángulo_350545" data-name="Rectángulo 350545" width="0.146" height="3.156" transform="translate(93.547 61.334)" fill="#424242"/>
            <rect id="Rectángulo_350546" data-name="Rectángulo 350546" width="0.146" height="3.156" transform="translate(100.646 61.334)" fill="#424242"/>
            <rect id="Rectángulo_350547" data-name="Rectángulo 350547" width="0.146" height="3.156" transform="translate(103.237 61.334)" fill="#424242"/>
            <rect id="Rectángulo_350548" data-name="Rectángulo 350548" width="0.187" height="3.156" transform="translate(97.065 61.334)" fill="#424242"/>
            <rect id="Rectángulo_350549" data-name="Rectángulo 350549" width="0.187" height="3.156" transform="translate(94.66 61.334)" fill="#424242"/>
            <rect id="Rectángulo_350550" data-name="Rectángulo 350550" width="0.604" height="3.156" transform="translate(99.455 61.334)" fill="#424242"/>
            <rect id="Rectángulo_350551" data-name="Rectángulo 350551" width="0.604" height="3.156" transform="translate(104.099 61.334)" fill="#424242"/>
            <rect id="Rectángulo_350552" data-name="Rectángulo 350552" width="36.59" height="1.572" transform="translate(86.896 39.049)" fill="#404040"/>
            <rect id="Rectángulo_350553" data-name="Rectángulo 350553" width="36.59" height="1.572" transform="translate(86.896 74.415)" fill="#404040"/>
            <path id="Trazado_719858" data-name="Trazado 719858" d="M171.5,75.987H133.385V10.563H171.5Z" fill="#f5cb95"/>
            <path id="Trazado_719859" data-name="Trazado 719859" d="M171.5,75.987H133.385V10.563Z" fill="#bd9c73"/>
            <rect id="Rectángulo_350554" data-name="Rectángulo 350554" width="7.777" height="14.652" transform="translate(148.552 10.5)" fill="#9c805f"/>
            <rect id="Rectángulo_350555" data-name="Rectángulo 350555" width="8.896" height="13.563" transform="translate(159.24 15.1)" fill="#ebebeb"/>
            <rect id="Rectángulo_350556" data-name="Rectángulo 350556" width="6.77" height="1.255" transform="translate(160.106 16.815)" fill="#9e9e9e"/>
            <rect id="Rectángulo_350557" data-name="Rectángulo 350557" width="6.77" height="1.255" transform="translate(160.106 20.148)" fill="#9e9e9e"/>
            <rect id="Rectángulo_350558" data-name="Rectángulo 350558" width="6.77" height="1.255" transform="translate(160.106 23.482)" fill="#9e9e9e"/>
            <rect id="Rectángulo_350559" data-name="Rectángulo 350559" width="3.846" height="1.255" transform="translate(160.106 25.305)" fill="#9e9e9e"/>
            <rect id="Rectángulo_350560" data-name="Rectángulo 350560" width="7.796" height="1.655" transform="translate(158.869 62.518)" fill="#9c8469"/>
            <rect id="Rectángulo_350561" data-name="Rectángulo 350561" width="7.796" height="1.656" transform="translate(158.869 68.133)" fill="#9c8469"/>
            <rect id="Rectángulo_350562" data-name="Rectángulo 350562" width="7.796" height="1.656" transform="translate(158.869 70.996)" fill="#9c8469"/>
            <rect id="Rectángulo_350563" data-name="Rectángulo 350563" width="10.312" height="1.655" transform="translate(158.869 65.381)" fill="#9c8469"/>
            <rect id="Rectángulo_350564" data-name="Rectángulo 350564" width="14.585" height="6.459" transform="translate(135.423 27.683)" fill="#ebebeb"/>
            <rect id="Rectángulo_350565" data-name="Rectángulo 350565" width="0.358" height="3.01" transform="translate(140.765 28.792)" fill="#424242"/>
            <rect id="Rectángulo_350566" data-name="Rectángulo 350566" width="0.358" height="3.01" transform="translate(137.232 28.792)" fill="#424242"/>
            <rect id="Rectángulo_350567" data-name="Rectángulo 350567" width="0.358" height="3.01" transform="translate(145.571 28.792)" fill="#424242"/>
            <rect id="Rectángulo_350568" data-name="Rectángulo 350568" width="0.358" height="3.01" transform="translate(146.491 28.792)" fill="#424242"/>
            <rect id="Rectángulo_350569" data-name="Rectángulo 350569" width="0.576" height="3.01" transform="translate(136.036 28.792)" fill="#424242"/>
            <rect id="Rectángulo_350570" data-name="Rectángulo 350570" width="0.576" height="3.01" transform="translate(139.782 28.792)" fill="#424242"/>
            <rect id="Rectángulo_350571" data-name="Rectángulo 350571" width="0.139" height="3.01" transform="translate(142.037 28.792)" fill="#424242"/>
            <rect id="Rectángulo_350572" data-name="Rectángulo 350572" width="0.139" height="3.01" transform="translate(138.624 28.792)" fill="#424242"/>
            <rect id="Rectángulo_350573" data-name="Rectángulo 350573" width="0.139" height="3.01" transform="translate(142.628 28.792)" fill="#424242"/>
            <rect id="Rectángulo_350574" data-name="Rectángulo 350574" width="0.139" height="3.01" transform="translate(143.149 28.792)" fill="#424242"/>
            <rect id="Rectángulo_350575" data-name="Rectángulo 350575" width="0.139" height="3.01" transform="translate(138.108 28.792)" fill="#424242"/>
            <rect id="Rectángulo_350576" data-name="Rectángulo 350576" width="0.139" height="3.01" transform="translate(144.879 28.792)" fill="#424242"/>
            <rect id="Rectángulo_350577" data-name="Rectángulo 350577" width="0.139" height="3.01" transform="translate(147.35 28.792)" fill="#424242"/>
            <rect id="Rectángulo_350578" data-name="Rectángulo 350578" width="0.179" height="3.01" transform="translate(141.462 28.792)" fill="#424242"/>
            <rect id="Rectángulo_350579" data-name="Rectángulo 350579" width="0.179" height="3.01" transform="translate(139.169 28.792)" fill="#424242"/>
            <rect id="Rectángulo_350580" data-name="Rectángulo 350580" width="0.576" height="3.01" transform="translate(143.743 28.792)" fill="#424242"/>
            <rect id="Rectángulo_350581" data-name="Rectángulo 350581" width="0.576" height="3.01" transform="translate(148.173 28.792)" fill="#424242"/>
            <path id="Trazado_719860" data-name="Trazado 719860" d="M207.189,76.076H177.9V48.341h29.287Z" fill="#f5cb95"/>
            <path id="Trazado_719861" data-name="Trazado 719861" d="M207.189,76.075H177.9V48.34Z" fill="#d1ad7f"/>
            <rect id="Rectángulo_350582" data-name="Rectángulo 350582" width="4.472" height="8.424" transform="translate(190.299 48.304)" fill="#9c805f"/>
            <rect id="Rectángulo_350583" data-name="Rectángulo 350583" width="8.386" height="7.798" transform="translate(196.864 51.46)" fill="#ebebeb"/>
            <rect id="Rectángulo_350584" data-name="Rectángulo 350584" width="6.382" height="1.458" transform="translate(197.68 53.117)" fill="#9e9e9e"/>
            <rect id="Rectángulo_350585" data-name="Rectángulo 350585" width="6.382" height="1.458" transform="translate(197.68 55.998)" fill="#9e9e9e"/>
            <rect id="Rectángulo_350586" data-name="Rectángulo 350586" width="11.857" height="0.952" transform="translate(192.555 71.559)" fill="#9c8469"/>
            <rect id="Rectángulo_350587" data-name="Rectángulo 350587" width="11.857" height="0.952" transform="translate(192.555 73.206)" fill="#9c8469"/>
            <rect id="Rectángulo_350588" data-name="Rectángulo 350588" width="5.929" height="0.952" transform="translate(192.554 69.977)" fill="#9c8469"/>
            <rect id="Rectángulo_350589" data-name="Rectángulo 350589" width="9.885" height="4.377" transform="translate(179.464 52.387)" fill="#ebebeb"/>
            <rect id="Rectángulo_350590" data-name="Rectángulo 350590" width="0.242" height="2.04" transform="translate(183.085 53.138)" fill="#424242"/>
            <rect id="Rectángulo_350591" data-name="Rectángulo 350591" width="0.242" height="2.04" transform="translate(180.691 53.138)" fill="#424242"/>
            <rect id="Rectángulo_350592" data-name="Rectángulo 350592" width="0.242" height="2.04" transform="translate(186.343 53.138)" fill="#424242"/>
            <rect id="Rectángulo_350593" data-name="Rectángulo 350593" width="0.242" height="2.04" transform="translate(186.966 53.138)" fill="#424242"/>
            <rect id="Rectángulo_350594" data-name="Rectángulo 350594" width="0.391" height="2.04" transform="translate(179.879 53.138)" fill="#424242"/>
            <rect id="Rectángulo_350595" data-name="Rectángulo 350595" width="0.39" height="2.04" transform="translate(182.418 53.138)" fill="#424242"/>
            <rect id="Rectángulo_350596" data-name="Rectángulo 350596" width="0.094" height="2.04" transform="translate(183.947 53.138)" fill="#424242"/>
            <rect id="Rectángulo_350597" data-name="Rectángulo 350597" width="0.094" height="2.04" transform="translate(181.633 53.138)" fill="#424242"/>
            <rect id="Rectángulo_350598" data-name="Rectángulo 350598" width="0.094" height="2.04" transform="translate(184.347 53.138)" fill="#424242"/>
            <rect id="Rectángulo_350599" data-name="Rectángulo 350599" width="0.094" height="2.04" transform="translate(184.7 53.138)" fill="#424242"/>
            <rect id="Rectángulo_350600" data-name="Rectángulo 350600" width="0.094" height="2.04" transform="translate(181.284 53.138)" fill="#424242"/>
            <rect id="Rectángulo_350601" data-name="Rectángulo 350601" width="0.094" height="2.04" transform="translate(185.873 53.138)" fill="#424242"/>
            <rect id="Rectángulo_350602" data-name="Rectángulo 350602" width="0.094" height="2.04" transform="translate(187.548 53.138)" fill="#424242"/>
            <rect id="Rectángulo_350603" data-name="Rectángulo 350603" width="0.121" height="2.04" transform="translate(183.557 53.138)" fill="#424242"/>
            <rect id="Rectángulo_350604" data-name="Rectángulo 350604" width="0.121" height="2.04" transform="translate(182.003 53.138)" fill="#424242"/>
            <rect id="Rectángulo_350605" data-name="Rectángulo 350605" width="0.391" height="2.04" transform="translate(185.102 53.138)" fill="#424242"/>
            <rect id="Rectángulo_350606" data-name="Rectángulo 350606" width="0.39" height="2.04" transform="translate(188.105 53.138)" fill="#424242"/>
            <rect id="Rectángulo_350607" data-name="Rectángulo 350607" width="78.19" height="102.238" transform="translate(45.62 32.674)" fill="#949494"/>
            <rect id="Rectángulo_350608" data-name="Rectángulo 350608" width="76.012" height="98.445" transform="translate(46.708 34.366)" fill="#ebebeb"/>
            <rect id="Rectángulo_350609" data-name="Rectángulo 350609" width="1.408" height="11.857" transform="translate(70.621 42.695)" fill="#424242"/>
            <rect id="Rectángulo_350610" data-name="Rectángulo 350610" width="1.408" height="11.857" transform="translate(56.706 42.695)" fill="#424242"/>
            <rect id="Rectángulo_350611" data-name="Rectángulo 350611" width="1.408" height="11.857" transform="translate(89.555 42.695)" fill="#424242"/>
            <rect id="Rectángulo_350612" data-name="Rectángulo 350612" width="1.408" height="11.857" transform="translate(93.175 42.695)" fill="#424242"/>
            <rect id="Rectángulo_350613" data-name="Rectángulo 350613" width="2.269" height="11.857" transform="translate(51.993 42.695)" fill="#424242"/>
            <rect id="Rectángulo_350614" data-name="Rectángulo 350614" width="2.269" height="11.857" transform="translate(66.746 42.695)" fill="#424242"/>
            <rect id="Rectángulo_350615" data-name="Rectángulo 350615" width="0.548" height="11.857" transform="translate(75.63 42.695)" fill="#424242"/>
            <rect id="Rectángulo_350616" data-name="Rectángulo 350616" width="0.548" height="11.857" transform="translate(62.183 42.695)" fill="#424242"/>
            <rect id="Rectángulo_350617" data-name="Rectángulo 350617" width="0.548" height="11.857" transform="translate(77.956 42.695)" fill="#424242"/>
            <rect id="Rectángulo_350618" data-name="Rectángulo 350618" width="0.548" height="11.857" transform="translate(80.01 42.695)" fill="#424242"/>
            <rect id="Rectángulo_350619" data-name="Rectángulo 350619" width="0.548" height="11.857" transform="translate(60.152 42.695)" fill="#424242"/>
            <rect id="Rectángulo_350620" data-name="Rectángulo 350620" width="0.548" height="11.857" transform="translate(86.824 42.695)" fill="#424242"/>
            <rect id="Rectángulo_350621" data-name="Rectángulo 350621" width="0.548" height="11.857" transform="translate(96.558 42.695)" fill="#424242"/>
            <rect id="Rectángulo_350622" data-name="Rectángulo 350622" width="0.704" height="11.857" transform="translate(73.368 42.695)" fill="#424242"/>
            <rect id="Rectángulo_350623" data-name="Rectángulo 350623" width="0.704" height="11.857" transform="translate(64.333 42.695)" fill="#424242"/>
            <rect id="Rectángulo_350624" data-name="Rectángulo 350624" width="2.269" height="11.857" transform="translate(82.351 42.695)" fill="#424242"/>
            <rect id="Rectángulo_350625" data-name="Rectángulo 350625" width="2.269" height="11.857" transform="translate(99.799 42.695)" fill="#424242"/>
            <rect id="Rectángulo_350626" data-name="Rectángulo 350626" width="65.394" height="4.177" transform="translate(51.993 59.405)" fill="#9e9e9e"/>
            <rect id="Rectángulo_350627" data-name="Rectángulo 350627" width="65.394" height="4.177" transform="translate(51.993 69.125)" fill="#9e9e9e"/>
            <rect id="Rectángulo_350628" data-name="Rectángulo 350628" width="65.394" height="4.178" transform="translate(51.993 78.844)" fill="#9e9e9e"/>
            <rect id="Rectángulo_350629" data-name="Rectángulo 350629" width="65.394" height="4.177" transform="translate(51.993 110.435)" fill="#9e9e9e"/>
            <rect id="Rectángulo_350630" data-name="Rectángulo 350630" width="65.394" height="4.178" transform="translate(51.993 120.154)" fill="#9e9e9e"/>
            <rect id="Rectángulo_350631" data-name="Rectángulo 350631" width="39.727" height="4.178" transform="translate(51.993 90.994)" fill="#9e9e9e"/>
            <path id="Trazado_719862" data-name="Trazado 719862" d="M63.893,76.485H8.82A8.82,8.82,0,0,1,0,67.665V22.5a8.82,8.82,0,0,1,8.82-8.821H63.893a8.82,8.82,0,0,1,8.82,8.821V67.665a8.82,8.82,0,0,1-8.82,8.82" fill="#363636"/>
            <rect id="Rectángulo_350632" data-name="Rectángulo 350632" width="59.433" height="48.533" transform="translate(6.8 20.425)" fill="#1a1a1a"/>
            <rect id="Rectángulo_350633" data-name="Rectángulo 350633" width="56.096" height="45.807" transform="translate(8.468 21.789)" fill="#99bebf"/>
            <rect id="Rectángulo_350634" data-name="Rectángulo 350634" width="39.362" height="6.229" transform="translate(10.953 58.577)" fill="#262626"/>
            <rect id="Rectángulo_350635" data-name="Rectángulo 350635" width="46.802" height="16.869" transform="translate(10.953 39.891)" fill="#607878"/>
            <rect id="Rectángulo_350636" data-name="Rectángulo 350636" width="4.758" height="8.564" transform="translate(15.365 27.78)" fill="#262626"/>
            <rect id="Rectángulo_350637" data-name="Rectángulo 350637" width="23.185" height="1.125" transform="translate(27.13 27.779)" fill="#262626"/>
            <rect id="Rectángulo_350638" data-name="Rectángulo 350638" width="23.185" height="1.125" transform="translate(27.13 31.499)" fill="#262626"/>
            <rect id="Rectángulo_350639" data-name="Rectángulo 350639" width="30.625" height="1.124" transform="translate(27.13 35.22)" fill="#262626"/>
            <path id="Trazado_719863" data-name="Trazado 719863" d="M61.079,0H12.305A3.485,3.485,0,0,0,8.82,3.485V13.678H64.564V3.485A3.485,3.485,0,0,0,61.079,0" fill="#363636"/>
            <rect id="Rectángulo_350640" data-name="Rectángulo 350640" width="55.744" height="2.595" transform="translate(8.82 11.082)" fill="#1a1a1a"/>
            <path id="Trazado_719864" data-name="Trazado 719864" d="M61.281,5.082v.062a2.277,2.277,0,0,1-.145.831A3.779,3.779,0,0,0,57.4,3.525H15.312a3.778,3.778,0,0,0-3.737,2.45,2.277,2.277,0,0,1-.145-.831V5.082A3.613,3.613,0,0,1,15.312,1.8H57.4c2.16,0,3.883,1.474,3.883,3.28" fill="#6e2020"/>
            <path id="Trazado_719865" data-name="Trazado 719865" d="M61.135,5.975A3.777,3.777,0,0,1,57.4,8.425H15.312a3.777,3.777,0,0,1-3.737-2.45,3.777,3.777,0,0,1,3.737-2.45H57.4a3.777,3.777,0,0,1,3.737,2.45" fill="#ad3232"/>
            <path id="Trazado_719866" data-name="Trazado 719866" d="M53.982,159.881H19.4A10.582,10.582,0,0,1,8.82,149.3V76.485H64.564V149.3a10.582,10.582,0,0,1-10.582,10.582" fill="#363636"/>
            <rect id="Rectángulo_350641" data-name="Rectángulo 350641" width="55.744" height="7.094" transform="translate(8.82 76.484)" fill="#262626"/>
            <path id="Trazado_719867" data-name="Trazado 719867" d="M5.372,75.785A9.509,9.509,0,0,1,1.254,72.2V17.981a8.818,8.818,0,0,1,4.118-3.6Z" fill="#080808"/>
            <path id="Trazado_719868" data-name="Trazado 719868" d="M105.84,88.208a2.02,2.02,0,0,1-.145.366l-2.972,5.764-.654-.188.532-6.463a2.008,2.008,0,0,1,.07-.385l21.4-74.772,3.168.907Z" fill="#454545"/>
            <path id="Trazado_719869" data-name="Trazado 719869" d="M127.76,7.11l-.777-.223a1.243,1.243,0,0,0-1.538.854l-1.371,4.789,3.168.907,1.372-4.789a1.244,1.244,0,0,0-.854-1.538" fill="#a6a6a6"/>
            <rect id="Rectángulo_350642" data-name="Rectángulo 350642" width="0.563" height="3.296" transform="translate(103.491 84.434) rotate(-74.028)" fill="#1c1c1c"/>
            <rect id="Rectángulo_350643" data-name="Rectángulo 350643" width="73.366" height="0.891" transform="translate(105.692 84.101) rotate(-74.046)" fill="#919191"/>
            <path id="Trazado_719870" data-name="Trazado 719870" d="M127.661,10.546c-.349,1.217-.823,2.149-1.059,2.081s-.146-1.109.2-2.326.823-2.149,1.06-2.082.145,1.11-.2,2.327" fill="#fff"/>
            <rect id="Rectángulo_350644" data-name="Rectángulo 350644" width="56.813" height="0.639" transform="translate(8.468 75.037)" fill="#171717"/>
            <path id="Trazado_719871" data-name="Trazado 719871" d="M8.468,14.379s55.1-.411,56.4,0a10.3,10.3,0,0,1,6.986,8.253c-.008.973-.347,44.964-.347,44.964l-.216-44.7s-1-6.458-6.729-7.916c-1.428-.908-56.1-.6-56.1-.6" fill="#bababa"/>
            <path id="Trazado_719872" data-name="Trazado 719872" d="M63.122,1.259c.454.461.646,1.008.429,1.222s-.761.013-1.215-.448S61.69,1.025,61.907.811s.761-.013,1.215.448" fill="#fff"/>
            <path id="Trazado_719873" data-name="Trazado 719873" d="M63.483,3.3c.262.266.373.582.248.706s-.44.008-.7-.259-.373-.582-.248-.706.44-.007.7.259" fill="#fff"/>
            <path id="Trazado_719874" data-name="Trazado 719874" d="M62.6,151.49V83.579H61.172Z" fill="#fff"/>
            <path id="Trazado_719875" data-name="Trazado 719875" d="M66.233,69.153c0,.108-13.3.195-29.717.195S6.8,69.261,6.8,69.153s13.3-.194,29.716-.194,29.717.087,29.717.194" fill="#fff"/>
            <path id="Trazado_719876" data-name="Trazado 719876" d="M9.876,92.749v57.357c.558,8.694,9.036,9.083,9.036,9.083H54.727l-35.6-.995a9.687,9.687,0,0,1-8.175-8.78c-.019-1-1.077-56.665-1.077-56.665" fill="#141414"/>
            <path id="Trazado_719877" data-name="Trazado 719877" d="M23.228,95.062H14.941a1.816,1.816,0,0,1-1.815-1.815V89.222a1.816,1.816,0,0,1,1.815-1.815h8.287a1.816,1.816,0,0,1,1.815,1.815v4.025a1.816,1.816,0,0,1-1.815,1.815" fill="#1f1f1f"/>
            <path id="Trazado_719878" data-name="Trazado 719878" d="M22.934,94.791h-7.7A1.687,1.687,0,0,1,13.547,93.1v-3.74a1.687,1.687,0,0,1,1.687-1.686h7.7a1.687,1.687,0,0,1,1.687,1.686V93.1a1.687,1.687,0,0,1-1.687,1.687" fill="#949494"/>
            <path id="Trazado_719879" data-name="Trazado 719879" d="M14.4,88.52a1.538,1.538,0,0,1,1.092-.453h7.058a1.545,1.545,0,0,1,1.545,1.546v3.428a1.536,1.536,0,0,1-.424,1.064c-.281.3-3.332-3.511-9.271-5.585" fill="#6e6e6e"/>
            <path id="Trazado_719880" data-name="Trazado 719880" d="M40.108,95.062H31.821a1.816,1.816,0,0,1-1.815-1.815V89.222a1.816,1.816,0,0,1,1.815-1.815h8.287a1.816,1.816,0,0,1,1.815,1.815v4.025a1.816,1.816,0,0,1-1.815,1.815" fill="#1f1f1f"/>
            <path id="Trazado_719881" data-name="Trazado 719881" d="M39.815,94.791h-7.7A1.687,1.687,0,0,1,30.428,93.1v-3.74a1.687,1.687,0,0,1,1.687-1.686h7.7A1.687,1.687,0,0,1,41.5,89.364V93.1a1.687,1.687,0,0,1-1.687,1.687" fill="#949494"/>
            <path id="Trazado_719882" data-name="Trazado 719882" d="M31.279,88.52a1.54,1.54,0,0,1,1.093-.453h7.057a1.546,1.546,0,0,1,1.546,1.546v3.428a1.541,1.541,0,0,1-.424,1.064c-.282.3-3.332-3.511-9.272-5.585" fill="#6e6e6e"/>
            <path id="Trazado_719883" data-name="Trazado 719883" d="M56.459,95.062H48.172a1.816,1.816,0,0,1-1.815-1.815V89.222a1.816,1.816,0,0,1,1.815-1.815h8.287a1.816,1.816,0,0,1,1.815,1.815v4.025a1.816,1.816,0,0,1-1.815,1.815" fill="#1f1f1f"/>
            <path id="Trazado_719884" data-name="Trazado 719884" d="M56.165,94.791h-7.7A1.687,1.687,0,0,1,46.778,93.1v-3.74a1.687,1.687,0,0,1,1.687-1.686h7.7a1.687,1.687,0,0,1,1.687,1.686V93.1a1.687,1.687,0,0,1-1.687,1.687" fill="#949494"/>
            <path id="Trazado_719885" data-name="Trazado 719885" d="M47.63,88.52a1.538,1.538,0,0,1,1.092-.453h7.057a1.547,1.547,0,0,1,1.547,1.546v3.428a1.541,1.541,0,0,1-.424,1.064c-.283.3-3.333-3.511-9.272-5.585" fill="#6e6e6e"/>
            <path id="Trazado_719886" data-name="Trazado 719886" d="M23.228,107.52H14.941a1.816,1.816,0,0,1-1.815-1.815V101.68a1.816,1.816,0,0,1,1.815-1.815h8.287a1.816,1.816,0,0,1,1.815,1.815v4.025a1.816,1.816,0,0,1-1.815,1.815" fill="#1f1f1f"/>
            <path id="Trazado_719887" data-name="Trazado 719887" d="M22.934,107.249h-7.7a1.687,1.687,0,0,1-1.687-1.687v-3.74a1.687,1.687,0,0,1,1.687-1.686h7.7a1.687,1.687,0,0,1,1.687,1.686v3.74a1.687,1.687,0,0,1-1.687,1.687" fill="#949494"/>
            <path id="Trazado_719888" data-name="Trazado 719888" d="M14.4,100.978a1.538,1.538,0,0,1,1.092-.453h7.058a1.545,1.545,0,0,1,1.545,1.546V105.5a1.536,1.536,0,0,1-.424,1.064c-.281.3-3.332-3.511-9.271-5.585" fill="#6e6e6e"/>
            <path id="Trazado_719889" data-name="Trazado 719889" d="M40.108,107.52H31.821a1.816,1.816,0,0,1-1.815-1.815V101.68a1.816,1.816,0,0,1,1.815-1.815h8.287a1.816,1.816,0,0,1,1.815,1.815v4.025a1.816,1.816,0,0,1-1.815,1.815" fill="#1f1f1f"/>
            <path id="Trazado_719890" data-name="Trazado 719890" d="M39.815,107.249h-7.7a1.687,1.687,0,0,1-1.687-1.687v-3.74a1.687,1.687,0,0,1,1.687-1.686h7.7a1.687,1.687,0,0,1,1.687,1.686v3.74a1.687,1.687,0,0,1-1.687,1.687" fill="#949494"/>
            <path id="Trazado_719891" data-name="Trazado 719891" d="M31.279,100.978a1.54,1.54,0,0,1,1.093-.453h7.057a1.546,1.546,0,0,1,1.546,1.546V105.5a1.541,1.541,0,0,1-.424,1.064c-.282.3-3.332-3.511-9.272-5.585" fill="#6e6e6e"/>
            <path id="Trazado_719892" data-name="Trazado 719892" d="M56.459,107.52H48.172a1.816,1.816,0,0,1-1.815-1.815V101.68a1.816,1.816,0,0,1,1.815-1.815h8.287a1.816,1.816,0,0,1,1.815,1.815v4.025a1.816,1.816,0,0,1-1.815,1.815" fill="#1f1f1f"/>
            <path id="Trazado_719893" data-name="Trazado 719893" d="M56.165,107.249h-7.7a1.687,1.687,0,0,1-1.687-1.687v-3.74a1.687,1.687,0,0,1,1.687-1.686h7.7a1.687,1.687,0,0,1,1.687,1.686v3.74a1.687,1.687,0,0,1-1.687,1.687" fill="#949494"/>
            <path id="Trazado_719894" data-name="Trazado 719894" d="M47.63,100.978a1.538,1.538,0,0,1,1.092-.453h7.057a1.547,1.547,0,0,1,1.547,1.546V105.5a1.541,1.541,0,0,1-.424,1.064c-.283.3-3.333-3.511-9.272-5.585" fill="#6e6e6e"/>
            <path id="Trazado_719895" data-name="Trazado 719895" d="M23.228,119.977H14.941a1.815,1.815,0,0,1-1.815-1.815v-4.025a1.816,1.816,0,0,1,1.815-1.815h8.287a1.816,1.816,0,0,1,1.815,1.815v4.025a1.815,1.815,0,0,1-1.815,1.815" fill="#1f1f1f"/>
            <path id="Trazado_719896" data-name="Trazado 719896" d="M22.934,119.706h-7.7a1.687,1.687,0,0,1-1.687-1.687V114.28a1.687,1.687,0,0,1,1.687-1.687h7.7a1.687,1.687,0,0,1,1.687,1.687v3.739a1.687,1.687,0,0,1-1.687,1.687" fill="#949494"/>
            <path id="Trazado_719897" data-name="Trazado 719897" d="M14.4,113.435a1.538,1.538,0,0,1,1.092-.453h7.058a1.546,1.546,0,0,1,1.545,1.546v3.428a1.536,1.536,0,0,1-.424,1.064c-.281.3-3.332-3.511-9.271-5.585" fill="#6e6e6e"/>
            <path id="Trazado_719898" data-name="Trazado 719898" d="M40.108,119.977H31.821a1.815,1.815,0,0,1-1.815-1.815v-4.025a1.816,1.816,0,0,1,1.815-1.815h8.287a1.816,1.816,0,0,1,1.815,1.815v4.025a1.815,1.815,0,0,1-1.815,1.815" fill="#1f1f1f"/>
            <path id="Trazado_719899" data-name="Trazado 719899" d="M39.815,119.706h-7.7a1.687,1.687,0,0,1-1.687-1.687V114.28a1.687,1.687,0,0,1,1.687-1.687h7.7A1.687,1.687,0,0,1,41.5,114.28v3.739a1.687,1.687,0,0,1-1.687,1.687" fill="#949494"/>
            <path id="Trazado_719900" data-name="Trazado 719900" d="M31.279,113.435a1.54,1.54,0,0,1,1.093-.453h7.057a1.546,1.546,0,0,1,1.546,1.546v3.428a1.541,1.541,0,0,1-.424,1.064c-.282.3-3.332-3.511-9.272-5.585" fill="#6e6e6e"/>
            <path id="Trazado_719901" data-name="Trazado 719901" d="M56.459,119.977H48.172a1.815,1.815,0,0,1-1.815-1.815v-4.025a1.816,1.816,0,0,1,1.815-1.815h8.287a1.816,1.816,0,0,1,1.815,1.815v4.025a1.815,1.815,0,0,1-1.815,1.815" fill="#1f1f1f"/>
            <path id="Trazado_719902" data-name="Trazado 719902" d="M56.165,119.706h-7.7a1.687,1.687,0,0,1-1.687-1.687V114.28a1.687,1.687,0,0,1,1.687-1.687h7.7a1.687,1.687,0,0,1,1.687,1.687v3.739a1.687,1.687,0,0,1-1.687,1.687" fill="#949494"/>
            <path id="Trazado_719903" data-name="Trazado 719903" d="M47.63,113.435a1.538,1.538,0,0,1,1.092-.453h7.057a1.547,1.547,0,0,1,1.547,1.546v3.428a1.541,1.541,0,0,1-.424,1.064c-.283.3-3.333-3.511-9.272-5.585" fill="#6e6e6e"/>
            <path id="Trazado_719904" data-name="Trazado 719904" d="M23.228,132.435H14.941a1.816,1.816,0,0,1-1.815-1.815V126.6a1.816,1.816,0,0,1,1.815-1.815h8.287a1.816,1.816,0,0,1,1.815,1.815v4.025a1.816,1.816,0,0,1-1.815,1.815" fill="#1f1f1f"/>
            <path id="Trazado_719905" data-name="Trazado 719905" d="M22.934,132.164h-7.7a1.687,1.687,0,0,1-1.687-1.687v-3.74a1.687,1.687,0,0,1,1.687-1.686h7.7a1.687,1.687,0,0,1,1.687,1.686v3.74a1.687,1.687,0,0,1-1.687,1.687" fill="#d92e2e"/>
            <path id="Trazado_719906" data-name="Trazado 719906" d="M14.4,125.893a1.538,1.538,0,0,1,1.092-.453h7.058a1.545,1.545,0,0,1,1.545,1.546v3.428a1.536,1.536,0,0,1-.424,1.064c-.281.3-3.332-3.511-9.271-5.585" fill="#992020"/>
            <path id="Trazado_719907" data-name="Trazado 719907" d="M40.108,132.435H31.821a1.816,1.816,0,0,1-1.815-1.815V126.6a1.816,1.816,0,0,1,1.815-1.815h8.287a1.816,1.816,0,0,1,1.815,1.815v4.025a1.816,1.816,0,0,1-1.815,1.815" fill="#1f1f1f"/>
            <path id="Trazado_719908" data-name="Trazado 719908" d="M39.815,132.164h-7.7a1.687,1.687,0,0,1-1.687-1.687v-3.74a1.687,1.687,0,0,1,1.687-1.686h7.7a1.687,1.687,0,0,1,1.687,1.686v3.74a1.687,1.687,0,0,1-1.687,1.687" fill="#949494"/>
            <path id="Trazado_719909" data-name="Trazado 719909" d="M31.279,125.893a1.54,1.54,0,0,1,1.093-.453h7.057a1.546,1.546,0,0,1,1.546,1.546v3.428a1.541,1.541,0,0,1-.424,1.064c-.282.3-3.332-3.511-9.272-5.585" fill="#6e6e6e"/>
            <path id="Trazado_719910" data-name="Trazado 719910" d="M56.459,132.435H48.172a1.816,1.816,0,0,1-1.815-1.815V126.6a1.816,1.816,0,0,1,1.815-1.815h8.287a1.816,1.816,0,0,1,1.815,1.815v4.025a1.816,1.816,0,0,1-1.815,1.815" fill="#1f1f1f"/>
            <path id="Trazado_719911" data-name="Trazado 719911" d="M56.165,132.164h-7.7a1.687,1.687,0,0,1-1.687-1.687v-3.74a1.687,1.687,0,0,1,1.687-1.686h7.7a1.687,1.687,0,0,1,1.687,1.686v3.74a1.687,1.687,0,0,1-1.687,1.687" fill="#2ed950"/>
            <path id="Trazado_719912" data-name="Trazado 719912" d="M47.63,125.893a1.538,1.538,0,0,1,1.092-.453h7.057a1.547,1.547,0,0,1,1.547,1.546v3.428a1.541,1.541,0,0,1-.424,1.064c-.283.3-3.333-3.511-9.272-5.585" fill="#1f9437"/>
            <rect id="Rectángulo_350645" data-name="Rectángulo 350645" width="44.304" height="13.15" transform="translate(13.548 134.619)" fill="#575757"/>
            <g id="Grupo_1008201" data-name="Grupo 1008201" opacity="0.2">
              <g id="Grupo_1008200" data-name="Grupo 1008200">
                <g id="Grupo_1008199" data-name="Grupo 1008199" clip-path="url(#clip-path-4)">
                  <path id="Trazado_719913" data-name="Trazado 719913" d="M64.564,67.6,8.468,21.789h56.1Z" fill="#fff"/>
                </g>
              </g>
            </g>
          </g>
        </g>
      </g>
    </g>
  </g>
</svg>
