<svg id="Grupo_1008267" data-name="Grupo 1008267" xmlns="http://www.w3.org/2000/svg" xmlns:xlink="http://www.w3.org/1999/xlink" width="399.667" height="241.381" viewBox="0 0 399.667 241.381">
  <defs>
    <clipPath id="clip-path">
      <rect id="Rectángulo_350898" data-name="Rectángulo 350898" width="399.667" height="241.381" fill="none"/>
    </clipPath>
    <clipPath id="clip-path-3">
      <rect id="Rectángulo_350891" data-name="Rectángulo 350891" width="20.205" height="6.271" fill="none"/>
    </clipPath>
    <clipPath id="clip-path-4">
      <rect id="Rectángulo_350892" data-name="Rectángulo 350892" width="43.107" height="21.496" fill="none"/>
    </clipPath>
    <clipPath id="clip-path-5">
      <rect id="Rectángulo_350893" data-name="Rectángulo 350893" width="30.356" height="7.347" fill="none"/>
    </clipPath>
    <clipPath id="clip-path-6">
      <rect id="Rectángulo_350894" data-name="Rectángulo 350894" width="32.029" height="26.591" fill="none"/>
    </clipPath>
    <clipPath id="clip-path-7">
      <rect id="Rectángulo_350895" data-name="Rectángulo 350895" width="21.391" height="8.154" fill="none"/>
    </clipPath>
    <clipPath id="clip-path-8">
      <rect id="Rectángulo_350896" data-name="Rectángulo 350896" width="18.196" height="14.985" fill="none"/>
    </clipPath>
  </defs>
  <g id="Grupo_1008266" data-name="Grupo 1008266" clip-path="url(#clip-path)">
    <g id="Grupo_1008265" data-name="Grupo 1008265">
      <g id="Grupo_1008264" data-name="Grupo 1008264" clip-path="url(#clip-path)">
        <path id="Trazado_719988" data-name="Trazado 719988" d="M569.437,336.693c-14.305-8.762-18.494-26.374-18.916-42.408-.071-2.676-.534-5.474.595-7.9s4-4.2,6.457-3.219c2.039.814,3.043,3.069,4.268,4.91a15.655,15.655,0,0,0,6.625,5.6c1.754.78,3.891,1.193,5.514.165,2.227-1.41,2.306-4.61,2.13-7.265q-.495-7.424-.989-14.847a24.823,24.823,0,0,1,.326-7.939c.674-2.571,2.359-5.023,4.843-5.884s5.7.408,6.388,2.976a24.628,24.628,0,0,1,.275,3.3,2.8,2.8,0,0,0,1.794,2.532c1.079.247,2.1-.57,2.844-1.4,2.58-2.848,4.232-6.415,5.763-9.956s3.007-7.161,5.319-10.237,5.613-5.6,9.4-6.047,7.987,1.659,9.173,5.335-.766,7.619-2.96,10.793a59.405,59.405,0,0,1-11.636,12.514,4.887,4.887,0,0,0-1.931,2.345c-.47,1.806,1.314,3.463,3.1,3.94,2.019.54,4.156.2,6.242.324s4.385.9,5.286,2.807c1.252,2.649-.847,5.632-2.969,7.631a50.883,50.883,0,0,1-14.51,9.585,17.174,17.174,0,0,0-5.423,3.052c-1.493,1.469-2.3,3.914-1.235,5.726s3.545,2.267,5.569,1.764,3.789-1.725,5.7-2.579c3.567-1.6,8.3-1.631,10.826,1.383a8.42,8.42,0,0,1,1.343,7.38,19.4,19.4,0,0,1-3.631,6.808,51.165,51.165,0,0,1-20.885,16.644c-8.291,3.447-16.089,4.716-24.692,2.146" transform="translate(-223.973 -97.276)" fill="#f5f5f5"/>
        <path id="Trazado_719989" data-name="Trazado 719989" d="M588.467,327.773a238.347,238.347,0,0,1,7.9-26.2q1.229-3.424,2.424-6.761c.8-2.217,1.595-4.416,2.5-6.518a119.006,119.006,0,0,1,5.919-11.783c2.063-3.657,4.155-7.051,6.134-10.211s3.893-6.065,5.744-8.641a94.53,94.53,0,0,1,9.631-11.493c1.239-1.263,2.232-2.211,2.914-2.845l.78-.716a2.008,2.008,0,0,1,.277-.231,1.818,1.818,0,0,1-.243.268l-.746.751c-.659.657-1.63,1.626-2.847,2.908a99.952,99.952,0,0,0-9.486,11.564c-1.828,2.582-3.714,5.493-5.681,8.656s-4.039,6.564-6.087,10.218a120.41,120.41,0,0,0-5.868,11.749c-.9,2.092-1.686,4.272-2.487,6.5s-1.6,4.477-2.421,6.758a244.324,244.324,0,0,0-7.924,26.134" transform="translate(-239.478 -98.636)" fill="#e1e1e1"/>
        <path id="Trazado_719990" data-name="Trazado 719990" d="M606.458,299.867a5.423,5.423,0,0,1-.328-1.117c-.184-.726-.415-1.784-.681-3.1-.535-2.622-1.151-6.269-1.814-10.291s-1.329-7.653-1.9-10.259c-.283-1.3-.523-2.358-.7-3.084a5.314,5.314,0,0,1-.218-1.144,5.353,5.353,0,0,1,.4,1.093c.232.712.524,1.756.851,3.054.663,2.6,1.385,6.229,2.049,10.257l1.673,10.31c.209,1.239.385,2.283.528,3.121a5.287,5.287,0,0,1,.141,1.157" transform="translate(-244.5 -110.233)" fill="#e1e1e1"/>
        <path id="Trazado_719991" data-name="Trazado 719991" d="M644.1,305.511a7.278,7.278,0,0,1-1.353.246c-.871.131-2.134.313-3.685.589-3.108.527-7.376,1.4-12.041,2.578s-8.842,2.433-11.836,3.425c-1.5.485-2.706.91-3.54,1.2a7.46,7.46,0,0,1-1.313.408,7.244,7.244,0,0,1,1.245-.588c.815-.345,2-.821,3.5-1.351,2.974-1.079,7.15-2.386,11.828-3.574A120.6,120.6,0,0,1,639.012,306c1.564-.232,2.837-.363,3.718-.435a7.366,7.366,0,0,1,1.374-.055" transform="translate(-248.377 -124.322)" fill="#e1e1e1"/>
        <path id="Trazado_719992" data-name="Trazado 719992" d="M575.5,356.05a1.733,1.733,0,0,1-.259-.4l-.659-1.2c-.567-1.044-1.349-2.578-2.289-4.485-1.884-3.813-4.32-9.162-6.929-15.1s-4.994-11.306-6.8-15.153l-2.147-4.55-.578-1.242a1.734,1.734,0,0,1-.171-.448,1.809,1.809,0,0,1,.26.4l.658,1.2c.567,1.045,1.349,2.579,2.289,4.485,1.884,3.813,4.32,9.163,6.93,15.1s4.993,11.3,6.795,15.151c.882,1.869,1.608,3.407,2.147,4.549.231.5.421.907.578,1.242a1.768,1.768,0,0,1,.171.448" transform="translate(-226.132 -127.566)" fill="#e1e1e1"/>
        <path id="Trazado_719993" data-name="Trazado 719993" d="M633.614,355.986a1.856,1.856,0,0,1-.439.213l-1.291.521-4.765,1.868c-4.023,1.579-9.555,3.822-15.664,6.31s-11.668,4.684-15.725,6.18c-2.028.748-3.676,1.337-4.822,1.721l-1.323.434a1.8,1.8,0,0,1-.473.119,1.866,1.866,0,0,1,.439-.214l1.292-.52,4.764-1.868c4.023-1.578,9.556-3.822,15.666-6.311s11.666-4.683,15.723-6.178c2.028-.748,3.676-1.337,4.823-1.721l1.323-.434a1.786,1.786,0,0,1,.473-.119" transform="translate(-239.74 -144.868)" fill="#e1e1e1"/>
        <path id="Trazado_719994" data-name="Trazado 719994" d="M588.786,92.453c-2.44,6.108-6.346,15.983-8.139,20.518a2.609,2.609,0,0,0,1.462,3.383L598.8,123a2.609,2.609,0,0,0,3.39-1.459l8.1-20.328a5.793,5.793,0,0,0-3.239-7.526l1.191-2.99-10.928-4.352-1.126,2.827-.04-.015a5.793,5.793,0,0,0-7.354,3.3" transform="translate(-236.221 -35.138)" fill="#f5f5f5"/>
        <path id="Trazado_719995" data-name="Trazado 719995" d="M608.238,86.986l-.542,1.36,10.773,4.74.7-1.748Z" transform="translate(-247.303 -35.399)" fill="#e1e1e1"/>
        <path id="Trazado_719996" data-name="Trazado 719996" d="M618.561,89.2l-11.354-4.522a1.144,1.144,0,0,1-.64-1.487l1.08-2.713a1.775,1.775,0,0,1,2.305-.992l10.186,4.057a1.774,1.774,0,0,1,.992,2.3l-1.081,2.713a1.145,1.145,0,0,1-1.488.64" transform="translate(-246.81 -32.297)" fill="#ececec"/>
        <path id="Trazado_719997" data-name="Trazado 719997" d="M608.8,85.1a13.7,13.7,0,0,1,.932-2.757,13.865,13.865,0,0,1,1.219-2.643,13.839,13.839,0,0,1-.932,2.757A13.825,13.825,0,0,1,608.8,85.1" transform="translate(-247.747 -32.436)" fill="#e1e1e1"/>
        <path id="Trazado_719998" data-name="Trazado 719998" d="M611.225,86.072a13.806,13.806,0,0,1,.932-2.757,13.793,13.793,0,0,1,1.219-2.643,13.835,13.835,0,0,1-.932,2.758,13.819,13.819,0,0,1-1.219,2.643" transform="translate(-248.735 -32.829)" fill="#e1e1e1"/>
        <path id="Trazado_719999" data-name="Trazado 719999" d="M613.653,87.039a13.8,13.8,0,0,1,.932-2.757,13.8,13.8,0,0,1,1.219-2.643,13.826,13.826,0,0,1-.932,2.757,13.821,13.821,0,0,1-1.219,2.643" transform="translate(-249.723 -33.223)" fill="#e1e1e1"/>
        <path id="Trazado_720000" data-name="Trazado 720000" d="M616.081,88.006a13.816,13.816,0,0,1,.932-2.756,13.779,13.779,0,0,1,1.219-2.643,13.848,13.848,0,0,1-.932,2.758,13.745,13.745,0,0,1-1.219,2.642" transform="translate(-250.712 -33.617)" fill="#e1e1e1"/>
        <path id="Trazado_720001" data-name="Trazado 720001" d="M618.51,88.974a13.787,13.787,0,0,1,.932-2.757,13.806,13.806,0,0,1,1.219-2.643,13.821,13.821,0,0,1-.932,2.757,13.786,13.786,0,0,1-1.219,2.643" transform="translate(-251.7 -34.01)" fill="#e1e1e1"/>
        <path id="Trazado_720002" data-name="Trazado 720002" d="M620.938,89.941a13.8,13.8,0,0,1,.932-2.757,13.8,13.8,0,0,1,1.219-2.643,13.841,13.841,0,0,1-.932,2.758,13.833,13.833,0,0,1-1.219,2.643" transform="translate(-252.688 -34.404)" fill="#e1e1e1"/>
        <path id="Trazado_720003" data-name="Trazado 720003" d="M623.366,90.908a13.8,13.8,0,0,1,.932-2.757,13.8,13.8,0,0,1,1.219-2.643,13.845,13.845,0,0,1-.932,2.758,13.824,13.824,0,0,1-1.219,2.643" transform="translate(-253.676 -34.797)" fill="#e1e1e1"/>
        <path id="Trazado_720004" data-name="Trazado 720004" d="M625.8,91.875a13.726,13.726,0,0,1,.931-2.757,13.836,13.836,0,0,1,1.219-2.643,13.88,13.88,0,0,1-.932,2.758,13.882,13.882,0,0,1-1.219,2.643" transform="translate(-254.665 -35.191)" fill="#e1e1e1"/>
        <path id="Trazado_720005" data-name="Trazado 720005" d="M605.734,120.107l-14.024-5.585a.879.879,0,0,1-.492-1.142l3.474-8.724a.879.879,0,0,1,1.142-.491l14.024,5.585a.879.879,0,0,1,.491,1.142l-3.474,8.723a.879.879,0,0,1-1.142.492" transform="translate(-240.572 -42.365)" fill="#ececec"/>
        <path id="Trazado_720006" data-name="Trazado 720006" d="M606.278,119.717a1.169,1.169,0,0,1,.057-.178l.179-.488.7-1.828c.615-1.588,1.482-3.823,2.536-6.541l.068.16L596.078,105.4c-.045.018.378-.164.2-.086v0l0,0,0,.009-.007.018-.015.038-.03.075-.059.149-.119.3-.237.594-.469,1.175-.917,2.3-1.732,4.325-.079-.184,9.823,3.988,2.825,1.166.757.32a2.155,2.155,0,0,1,.268.125,1.455,1.455,0,0,1-.25-.081l-.743-.278-2.824-1.083-9.961-3.892-.132-.052.052-.133,1.716-4.332q.448-1.129.912-2.3l.467-1.175.237-.594.119-.3.059-.149.03-.075.015-.037.007-.019,0-.009,0,0v0c-.178.076.245-.107.2-.087l13.712,5.5.115.046-.046.113c-1.115,2.728-2.032,4.972-2.684,6.564-.313.75-.56,1.344-.743,1.78l-.2.457a.658.658,0,0,1-.072.144" transform="translate(-241.066 -42.777)" fill="#e1e1e1"/>
        <path id="Trazado_720007" data-name="Trazado 720007" d="M609.925,115.5a40.813,40.813,0,0,1-4.72-1.714,40.874,40.874,0,0,1-4.607-2,81.918,81.918,0,0,1,9.327,3.715" transform="translate(-244.414 -45.49)" fill="#e1e1e1"/>
        <path id="Trazado_720008" data-name="Trazado 720008" d="M608.86,118.176a40.823,40.823,0,0,1-4.72-1.714,40.891,40.891,0,0,1-4.607-2,81.618,81.618,0,0,1,9.327,3.715" transform="translate(-243.981 -46.578)" fill="#e1e1e1"/>
        <path id="Trazado_720009" data-name="Trazado 720009" d="M607.837,120.745a40.807,40.807,0,0,1-4.72-1.714,40.875,40.875,0,0,1-4.607-2,81.625,81.625,0,0,1,9.327,3.715" transform="translate(-243.565 -47.623)" fill="#e1e1e1"/>
        <path id="Trazado_720010" data-name="Trazado 720010" d="M617.308,95.363a48.737,48.737,0,0,1-5.146-1.884,48.837,48.837,0,0,1-5.033-2.171,97.088,97.088,0,0,1,10.18,4.054" transform="translate(-247.072 -37.156)" fill="#e1e1e1"/>
        <path id="Trazado_720011" data-name="Trazado 720011" d="M583.082,114.8a6.723,6.723,0,0,1,.33-.983l1.006-2.638c.863-2.223,2.075-5.285,3.43-8.66l1.924-4.755a10.247,10.247,0,0,1,2.167-3.606,4.561,4.561,0,0,1,2.52-1.287,3.19,3.19,0,0,1,.777,0,.89.89,0,0,1,.263.063,6.316,6.316,0,0,0-1.022.059,4.6,4.6,0,0,0-2.385,1.324,10.322,10.322,0,0,0-2.056,3.558l-1.9,4.763c-1.356,3.375-2.6,6.424-3.514,8.626-.448,1.063-.819,1.94-1.1,2.6a6.709,6.709,0,0,1-.442.938" transform="translate(-237.285 -37.782)" fill="#fff"/>
        <path id="Trazado_720012" data-name="Trazado 720012" d="M601.377,142.611a4.409,4.409,0,0,1-.656-.531c-.2-.18-.451-.4-.755-.635s-.632-.526-1.027-.8a28.707,28.707,0,0,0-2.827-1.873,28.195,28.195,0,0,0-7.688-3.061,28.839,28.839,0,0,0-3.341-.583c-.479-.07-.916-.088-1.3-.122s-.713-.05-.984-.058a4.463,4.463,0,0,1-.842-.065,4.4,4.4,0,0,1,.844-.055c.272-.011.6-.015.992.005s.828.021,1.312.077a25.572,25.572,0,0,1,3.383.523,26.471,26.471,0,0,1,7.768,3.093,25.527,25.527,0,0,1,2.816,1.945c.39.292.713.594,1.006.846s.534.483.724.678a4.408,4.408,0,0,1,.575.62" transform="translate(-236.828 -54.863)" fill="#fff"/>
        <path id="Trazado_720013" data-name="Trazado 720013" d="M88.225,206.86,42.3,228.965A1.428,1.428,0,0,1,40.4,228.3L9.569,164.254a1.428,1.428,0,0,1,.668-1.906l45.923-22.1a1.428,1.428,0,0,1,1.906.668l30.827,64.043a1.428,1.428,0,0,1-.667,1.906" transform="translate(-3.836 -57.014)" fill="#e1e1e1"/>
        <rect id="Rectángulo_350888" data-name="Rectángulo 350888" width="47.811" height="68.819" transform="translate(8.504 106.068) rotate(-25.704)" fill="#fafafa"/>
        <path id="Trazado_720014" data-name="Trazado 720014" d="M54.156,152.042a5.858,5.858,0,0,0-6.128-.64l-1.321-2.621a4.024,4.024,0,1,0-7.252,3.491l1.324,2.751-.917.46a5.859,5.859,0,0,0-3.232,5.16l-.018,1.363,18.756-9.029Zm-10.011.427a2.166,2.166,0,1,1,1.012-2.891,2.166,2.166,0,0,1-1.012,2.891" transform="translate(-14.899 -59.619)" fill="#ececec"/>
        <path id="Trazado_720015" data-name="Trazado 720015" d="M40.379,180.7c.037.078-2.548,1.4-5.773,2.951s-5.871,2.749-5.908,2.672,2.548-1.4,5.774-2.95,5.871-2.749,5.907-2.673" transform="translate(-11.678 -73.536)" fill="#e1e1e1"/>
        <path id="Trazado_720016" data-name="Trazado 720016" d="M35.926,188.936a15.9,15.9,0,0,1-2.748,1.494,15.921,15.921,0,0,1-2.882,1.216,15.935,15.935,0,0,1,2.748-1.494,15.9,15.9,0,0,1,2.882-1.216" transform="translate(-12.329 -76.885)" fill="#e1e1e1"/>
        <path id="Trazado_720017" data-name="Trazado 720017" d="M68.212,175.92c.037.077-7.211,3.642-16.188,7.963s-16.286,7.762-16.322,7.685,7.21-3.642,16.189-7.964,16.285-7.762,16.321-7.685" transform="translate(-14.529 -71.591)" fill="#e1e1e1"/>
        <path id="Trazado_720018" data-name="Trazado 720018" d="M70.728,181.148c.037.077-7.211,3.643-16.188,7.963s-16.286,7.762-16.322,7.685,7.21-3.642,16.189-7.964,16.285-7.762,16.321-7.685" transform="translate(-15.553 -73.718)" fill="#e1e1e1"/>
        <path id="Trazado_720019" data-name="Trazado 720019" d="M73.244,186.375c.037.077-7.211,3.643-16.188,7.963s-16.286,7.762-16.322,7.685,7.21-3.642,16.189-7.964,16.285-7.762,16.321-7.685" transform="translate(-16.577 -75.845)" fill="#e1e1e1"/>
        <path id="Trazado_720020" data-name="Trazado 720020" d="M75.76,191.6c.037.077-7.211,3.642-16.188,7.963s-16.286,7.762-16.322,7.685,7.21-3.642,16.189-7.964,16.285-7.762,16.321-7.685" transform="translate(-17.601 -77.973)" fill="#e1e1e1"/>
        <path id="Trazado_720021" data-name="Trazado 720021" d="M78.276,196.83c.037.077-7.211,3.643-16.188,7.963s-16.286,7.762-16.322,7.685,7.21-3.642,16.189-7.964,16.285-7.762,16.321-7.685" transform="translate(-18.624 -80.1)" fill="#e1e1e1"/>
        <path id="Trazado_720022" data-name="Trazado 720022" d="M80.793,202.058c.037.077-7.211,3.642-16.188,7.963s-16.286,7.763-16.323,7.686,7.21-3.642,16.19-7.964,16.285-7.762,16.321-7.685" transform="translate(-19.648 -82.227)" fill="#e1e1e1"/>
        <path id="Trazado_720023" data-name="Trazado 720023" d="M66.806,219.964a3.151,3.151,0,0,1-.613.362l-1.72.882c-1.459.733-3.483,1.727-5.727,2.807s-4.285,2.043-5.767,2.726l-1.763.795a3.193,3.193,0,0,1-.665.253,3.141,3.141,0,0,1,.613-.362l1.72-.882c1.459-.734,3.484-1.727,5.728-2.807s4.284-2.042,5.766-2.726l1.763-.794a3.151,3.151,0,0,1,.665-.253" transform="translate(-20.572 -89.514)" fill="#e1e1e1"/>
        <path id="Trazado_720024" data-name="Trazado 720024" d="M83.037,161.722a13.648,13.648,0,0,1-2.536,1.392,13.683,13.683,0,0,1-2.671,1.114,13.643,13.643,0,0,1,2.537-1.392,13.643,13.643,0,0,1,2.67-1.114" transform="translate(-31.672 -65.81)" fill="#e1e1e1"/>
        <path id="Trazado_720025" data-name="Trazado 720025" d="M65.19,237.351a35.658,35.658,0,0,1-4.155,2.171,35.758,35.758,0,0,1-4.29,1.894,35.635,35.635,0,0,1,4.155-2.172,35.669,35.669,0,0,1,4.289-1.893" transform="translate(-23.093 -96.588)" fill="#e1e1e1"/>
        <path id="Trazado_720026" data-name="Trazado 720026" d="M67.853,241.869a36.786,36.786,0,0,1-4.225,2.2A36.806,36.806,0,0,1,59.268,246a36.891,36.891,0,0,1,4.225-2.206,36.817,36.817,0,0,1,4.359-1.927" transform="translate(-24.119 -98.427)" fill="#e1e1e1"/>
        <path id="Trazado_720027" data-name="Trazado 720027" d="M109.134,216.759a16.691,16.691,0,0,1-4.081,1.965,16.689,16.689,0,0,1,4.081-1.965" transform="translate(-42.751 -88.207)" fill="#e1e1e1"/>
        <path id="Trazado_720028" data-name="Trazado 720028" d="M111.427,220.916a16.692,16.692,0,0,1-4.081,1.965,16.692,16.692,0,0,1,4.081-1.965" transform="translate(-43.684 -89.898)" fill="#e1e1e1"/>
        <path id="Trazado_720029" data-name="Trazado 720029" d="M66.793,250.047a7.875,7.875,0,0,1-1.9,1.088,7.858,7.858,0,0,1-2.038.809,7.915,7.915,0,0,1,1.9-1.088,7.866,7.866,0,0,1,2.037-.809" transform="translate(-25.577 -101.753)" fill="#e1e1e1"/>
        <path id="Trazado_720030" data-name="Trazado 720030" d="M114.835,225.784a8.791,8.791,0,0,1-2.956,1.423,8.791,8.791,0,0,1,2.956-1.423" transform="translate(-45.529 -91.877)" fill="#e1e1e1"/>
        <path id="Trazado_720031" data-name="Trazado 720031" d="M67.832,260.535a.805.805,0,0,1,.164-.126l.5-.333,1.918-1.229,6.884-4.323.135-.085.059.149a3.878,3.878,0,0,1,.075,2.613,3.2,3.2,0,0,1-1.895,2.054,3.162,3.162,0,0,1-2.934-.33,2.758,2.758,0,0,1-.982-2.888,2.5,2.5,0,0,1,.567-1.076,1.534,1.534,0,0,1,.222-.212,1.047,1.047,0,0,1,.269-.184.441.441,0,0,1,.414.014.7.7,0,0,1,.235.272,5.323,5.323,0,0,1,.265,4.363,3.307,3.307,0,0,1-1.276,1.69,1.9,1.9,0,0,1-2-.044,2.863,2.863,0,0,1-1.189-1.489,6.885,6.885,0,0,1,.019-3.348l.037-.226.152.17a4.645,4.645,0,0,1,1.13,2.557,4.941,4.941,0,0,1-.2,2.1,4.381,4.381,0,0,1-.6,1.194c-.09.123-.17.208-.221.268s-.08.087-.084.083a5.544,5.544,0,0,0,.786-1.58,4.929,4.929,0,0,0,.142-2.046,4.5,4.5,0,0,0-1.119-2.43l.189-.056a6.727,6.727,0,0,0,.008,3.227,2.6,2.6,0,0,0,1.086,1.339,1.614,1.614,0,0,0,1.716.034,3.033,3.033,0,0,0,1.147-1.551,5.034,5.034,0,0,0-.258-4.11.419.419,0,0,0-.125-.157.131.131,0,0,0-.13,0,1.529,1.529,0,0,0-.388.322,2.2,2.2,0,0,0-.5.944,2.454,2.454,0,0,0,.863,2.566,2.866,2.866,0,0,0,2.649.3,2.911,2.911,0,0,0,1.731-1.864,3.616,3.616,0,0,0-.053-2.426l.194.064L70.5,258.979l-1.956,1.167-.521.3a.785.785,0,0,1-.186.091" transform="translate(-27.604 -103.544)" fill="#e1e1e1"/>
        <path id="Trazado_720032" data-name="Trazado 720032" d="M114.78,237.394a1.921,1.921,0,0,1-.1.556,2.286,2.286,0,0,1-.269.629,1.326,1.326,0,0,1-.744.566.922.922,0,0,1-.578-.019,1.167,1.167,0,0,1-.493-.384,11.223,11.223,0,0,1-.665-1.131l-1.474-2.69.27-.063c-.048,1.36-.1,2.844-.155,4.4q-.02.556-.042,1.1l-.024.613-.268-.552-2.227-4.578.246-.024a15.759,15.759,0,0,0-.564,4.137c0,1.012.069,1.589.034,1.593a1.571,1.571,0,0,1-.085-.41,11.82,11.82,0,0,1-.1-1.18,14.516,14.516,0,0,1,.463-4.208l.089-.341.157.317c.672,1.352,1.442,2.9,2.266,4.56l-.291.062c.013-.359.027-.726.04-1.1.062-1.554.122-3.038.176-4.4l.021-.533.249.47,1.434,2.712a12,12,0,0,0,.619,1.117.794.794,0,0,0,.859.362,1.51,1.51,0,0,0,.968-1.054,3.772,3.772,0,0,1,.188-.528" transform="translate(-43.76 -95.355)" fill="#e1e1e1"/>
        <path id="Trazado_720033" data-name="Trazado 720033" d="M112.026,235.759c.048.071-2.4,1.819-5.466,3.9s-5.592,3.72-5.64,3.649,2.4-1.818,5.466-3.9,5.591-3.72,5.639-3.649" transform="translate(-41.07 -95.942)" fill="#e1e1e1"/>
        <path id="Trazado_720034" data-name="Trazado 720034" d="M119.078,236.636a47.386,47.386,0,0,1-4.008,3.649,47.807,47.807,0,0,1-4.209,3.415,47.457,47.457,0,0,1,4.008-3.649,47.783,47.783,0,0,1,4.209-3.415" transform="translate(-45.115 -96.299)" fill="#e1e1e1"/>
        <path id="Trazado_720035" data-name="Trazado 720035" d="M146.85,12.573h-2.5l-5.447-7.59V0s-3.857-.237-3.4,6.286-.037,4.862-.037,4.862-8.191.031-8.871.743c-.5.517-.719,8.653-.8,13.066a4.776,4.776,0,0,0,3.385,4.812,3.559,3.559,0,0,0,.881.119c2.043,0,12.481-1.661,12.481-1.661h4.311Z" transform="translate(-51.191 0)" fill="#f5f5f5"/>
        <path id="Trazado_720036" data-name="Trazado 720036" d="M169.362,18.895l-1.535,17.07h-4.274V19.238Z" transform="translate(-66.558 -7.689)" fill="#f5f5f5"/>
        <rect id="Rectángulo_350889" data-name="Rectángulo 350889" width="3.916" height="17.548" transform="translate(155.494 46.512)" fill="#81d4fa"/>
        <rect id="Rectángulo_350890" data-name="Rectángulo 350890" width="17.548" height="3.916" transform="translate(148.678 53.328)" fill="#81d4fa"/>
        <path id="Trazado_720037" data-name="Trazado 720037" d="M269.891,83.177a1.341,1.341,0,0,1-.028-.237c-.012-.171-.029-.4-.05-.693-.01-.154-.021-.324-.033-.511s-.062-.39-.1-.61a10.6,10.6,0,0,0-.309-1.506,13.96,13.96,0,0,0-1.626-3.868,14.5,14.5,0,0,0-17.42-6.179,13.3,13.3,0,0,0-3.663,1.972,13.244,13.244,0,0,0-3.06,3.075,14.045,14.045,0,0,0-2.069,3.988,14.347,14.347,0,0,0,0,9.134,14.021,14.021,0,0,0,2.069,3.989,13.233,13.233,0,0,0,3.06,3.076,13.3,13.3,0,0,0,3.664,1.973,14.539,14.539,0,0,0,17.42-6.18,13.965,13.965,0,0,0,1.626-3.868,10.706,10.706,0,0,0,.31-1.506c.033-.22.074-.423.095-.61s.023-.356.033-.511c.021-.292.038-.522.05-.693a1.341,1.341,0,0,1,.028-.237,1.365,1.365,0,0,1,0,.237c-.005.172-.012.4-.02.7-.005.155-.012.326-.018.514s-.052.393-.081.615a10.347,10.347,0,0,1-.283,1.522A13.862,13.862,0,0,1,267.9,90.69a14.724,14.724,0,0,1-9.91,6.981,14.776,14.776,0,0,1-7.755-.622,13.561,13.561,0,0,1-3.743-2,13.511,13.511,0,0,1-3.128-3.134,14.305,14.305,0,0,1-2.117-4.072,14.621,14.621,0,0,1,0-9.328,14.285,14.285,0,0,1,2.116-4.07,13.523,13.523,0,0,1,3.128-3.133,13.566,13.566,0,0,1,3.742-2,14.772,14.772,0,0,1,7.753-.622,14.724,14.724,0,0,1,9.911,6.98,13.855,13.855,0,0,1,1.594,3.927,10.439,10.439,0,0,1,.283,1.523c.029.222.065.426.081.615s.013.359.018.514c.008.294.015.525.02.7a1.365,1.365,0,0,1,0,.237" transform="translate(-97.865 -27.849)" fill="#81d4fa"/>
        <path id="Trazado_720038" data-name="Trazado 720038" d="M524.888,254.719s17.356-4.137,17.928-4.868L528.543,213.09A26.895,26.895,0,0,0,511.9,196.865a47.2,47.2,0,0,0-16.857-2.6l-24.1-1.279a47.709,47.709,0,0,0-19.01,5.262,38.349,38.349,0,0,0-17.848,19.671l-10.8,26.993,27.254,5.7,1.035,29-4.11,40.014h75.263L522.2,256.2Z" transform="translate(-172.256 -78.535)" fill="#81d4fa"/>
        <g id="Grupo_1008248" data-name="Grupo 1008248" transform="translate(347.387 166.511)" opacity="0.3">
          <g id="Grupo_1008247" data-name="Grupo 1008247">
            <g id="Grupo_1008246" data-name="Grupo 1008246" clip-path="url(#clip-path-3)">
              <path id="Trazado_720039" data-name="Trazado 720039" d="M605.97,280.776c.026.081-4.477,1.55-10.056,3.28s-10.123,3.067-10.148,2.985,4.476-1.55,10.057-3.28,10.122-3.066,10.147-2.985" transform="translate(-585.766 -280.772)" fill="#fff"/>
            </g>
          </g>
        </g>
        <path id="Trazado_720040" data-name="Trazado 720040" d="M476.666,228.8a3.8,3.8,0,0,1-.463-.632c-.276-.42-.7-1.012-1.242-1.723a30.312,30.312,0,0,0-2.044-2.391,29.167,29.167,0,0,0-5.975-4.823,30.147,30.147,0,0,0-2.768-1.493c-.81-.383-1.478-.67-1.946-.85a3.885,3.885,0,0,1-.715-.32,3.786,3.786,0,0,1,.756.206,19.667,19.667,0,0,1,2,.765,26.006,26.006,0,0,1,2.825,1.448,26.951,26.951,0,0,1,6.034,4.872,25.935,25.935,0,0,1,2.011,2.455,19.778,19.778,0,0,1,1.168,1.79,3.88,3.88,0,0,1,.362.7" transform="translate(-187.814 -88.132)" fill="#1a2e35"/>
        <path id="Trazado_720041" data-name="Trazado 720041" d="M478.278,251.992c.085.009-.756,8.863-1.877,19.775s-2.1,19.754-2.184,19.746.756-8.862,1.877-19.777,2.1-19.752,2.184-19.743" transform="translate(-192.981 -102.549)" fill="#1a2e35"/>
        <path id="Trazado_720042" data-name="Trazado 720042" d="M578.093,216.282a16.618,16.618,0,0,1-.388-1.8,31.649,31.649,0,0,0-2.973-8.288,16.6,16.6,0,0,1-.842-1.633c.018-.012.128.126.312.387s.433.649.722,1.14a24.743,24.743,0,0,1,3,8.353c.09.563.146,1.021.167,1.34a1.526,1.526,0,0,1,.006.5" transform="translate(-233.544 -83.248)" fill="#1a2e35"/>
        <path id="Trazado_720043" data-name="Trazado 720043" d="M582.831,261.179a4.851,4.851,0,0,1-.146-.87c-.075-.562-.165-1.378-.263-2.387-.2-2.019-.4-4.814-.512-7.907s-.1-5.9-.044-7.925c.027-1.014.06-1.833.095-2.4a4.931,4.931,0,0,1,.084-.878,4.807,4.807,0,0,1,.036.881c0,.624,0,1.43,0,2.4,0,2.025.027,4.823.135,7.911s.28,5.879.421,7.9c.067.967.122,1.771.165,2.393a4.83,4.83,0,0,1,.026.882" transform="translate(-236.775 -97.185)" fill="#1a2e35"/>
        <path id="Trazado_720044" data-name="Trazado 720044" d="M509.058,267.553a123.918,123.918,0,0,1-18.982-.354v2.465h18.982Z" transform="translate(-199.437 -108.737)" fill="#fff"/>
        <g id="Grupo_1008251" data-name="Grupo 1008251" transform="translate(286.675 116.767)" opacity="0.3">
          <g id="Grupo_1008250" data-name="Grupo 1008250">
            <g id="Grupo_1008249" data-name="Grupo 1008249" clip-path="url(#clip-path-4)">
              <path id="Trazado_720045" data-name="Trazado 720045" d="M525.215,197.936a2.341,2.341,0,0,1,.073.374c.041.268.1.632.165,1.094.12.959.286,2.364.423,4.147.285,3.565.532,8.63.619,14.61l0,.228-.205-.1c-3.784-1.84-8.029-3.845-12.443-6.052l-21.569-10.794-6.519-3.3L484,197.23l-.455-.244a.089.089,0,1,1,.015-.028l.47.216,1.792.861,6.565,3.215,21.607,10.712c4.415,2.207,8.649,4.218,12.424,6.072l-.2.129c-.063-5.973-.271-11.037-.506-14.6-.112-1.782-.251-3.187-.343-4.149-.052-.464-.092-.828-.122-1.1a2.419,2.419,0,0,1-.027-.381" transform="translate(-483.393 -196.893)" fill="#fff"/>
            </g>
          </g>
        </g>
        <g id="Grupo_1008254" data-name="Grupo 1008254" transform="translate(252.832 161.698)" opacity="0.3">
          <g id="Grupo_1008253" data-name="Grupo 1008253">
            <g id="Grupo_1008252" data-name="Grupo 1008252" clip-path="url(#clip-path-5)">
              <path id="Trazado_720046" data-name="Trazado 720046" d="M456.682,280a1.236,1.236,0,0,1-.314-.054l-.885-.212-3.244-.824c-2.737-.7-6.521-1.661-10.711-2.674s-8-1.889-10.751-2.516l-3.262-.749-.884-.215a1.224,1.224,0,0,1-.3-.1,1.254,1.254,0,0,1,.317.035l.9.159c.777.144,1.9.366,3.284.653,2.768.573,6.583,1.416,10.777,2.429s7.97,2.008,10.694,2.764c1.362.377,2.462.691,3.22.919l.87.269a1.243,1.243,0,0,1,.3.114" transform="translate(-426.326 -272.656)" fill="#fff"/>
            </g>
          </g>
        </g>
        <path id="Trazado_720047" data-name="Trazado 720047" d="M548.328,191.08c.028-.088,1.63.769,3.2,3.1a29.026,29.026,0,0,1,3.815,10.065,41.306,41.306,0,0,1,.691,5.9c.013.913.04,1.782.012,2.592-.044.811-.053,1.567-.125,2.254s-.139,1.3-.2,1.849c-.075.542-.167,1.005-.234,1.384a4.457,4.457,0,0,1-.281,1.165,4.547,4.547,0,0,1,.042-1.2q.056-.593.129-1.388c.032-.55.068-1.165.107-1.841s.027-1.43.049-2.232c.005-.8-.04-1.658-.068-2.558a46.362,46.362,0,0,0-.729-5.809,31.805,31.805,0,0,0-3.575-9.947,13.964,13.964,0,0,0-1.977-2.515c-.537-.537-.887-.776-.861-.818" transform="translate(-223.143 -77.758)" fill="#1a2e35"/>
        <path id="Trazado_720048" data-name="Trazado 720048" d="M497.327,191.368a13.266,13.266,0,0,1-1.254,1.8,25.028,25.028,0,0,0-2.792,5.214,35.668,35.668,0,0,0-2.073,8.523c-.432,3.29-.617,6.966-.858,10.812-.2,3.839-.209,7.514-.215,10.857s0,6.351,0,8.89c-.019,2.532-.065,4.582-.141,6a9.694,9.694,0,0,1-.218,2.2,10.493,10.493,0,0,1-.143-2.2c-.037-1.441-.09-3.479-.154-5.988-.064-2.529-.149-5.541-.195-8.89s-.059-7.037.143-10.912c.243-3.859.452-7.538.938-10.879a33.9,33.9,0,0,1,2.313-8.656,21.755,21.755,0,0,1,3.109-5.18,8.172,8.172,0,0,1,1.541-1.587" transform="translate(-199.104 -77.877)" fill="#1a2e35"/>
        <path id="Trazado_720049" data-name="Trazado 720049" d="M559.661,259.913a11.929,11.929,0,0,1-.117-1.959c-.035-1.261-.065-3.086-.089-5.342-.01-1.13-.02-2.364-.031-3.688s.024-2.753-.08-4.209a6.938,6.938,0,0,0-1.513-4.142,5.7,5.7,0,0,0-4.182-1.977,6.538,6.538,0,0,0-4.369,1.695,7.509,7.509,0,0,0-2.209,3.848c-.367,1.411-.522,2.829-.741,4.136s-.4,2.527-.578,3.643c-.358,2.227-.658,4.027-.879,5.269a11.951,11.951,0,0,1-.406,1.92,11.987,11.987,0,0,1,.168-1.955c.148-1.253.383-3.062.685-5.3.154-1.12.322-2.343.5-3.654.2-1.309.331-2.721.7-4.2a8.03,8.03,0,0,1,2.356-4.156,7.1,7.1,0,0,1,4.783-1.861,6.277,6.277,0,0,1,4.629,2.2,7.459,7.459,0,0,1,1.623,4.494c.092,1.52.023,2.927.025,4.255-.016,1.323-.031,2.558-.044,3.688-.032,2.255-.068,4.08-.107,5.341a11.94,11.94,0,0,1-.123,1.958" transform="translate(-221.567 -96.845)" fill="#1a2e35"/>
        <path id="Trazado_720050" data-name="Trazado 720050" d="M558.868,229.242a10.049,10.049,0,0,1-2.3,5.914,8.323,8.323,0,0,1,3.828.074,13.155,13.155,0,0,1-1.019-5.988" transform="translate(-226.496 -93.29)" fill="#1a2e35"/>
        <path id="Trazado_720051" data-name="Trazado 720051" d="M561.4,247.532a18.845,18.845,0,0,0-.941-2.353,7.3,7.3,0,0,0-1.723-2.061,6.392,6.392,0,0,0-2.919-1.389,6.259,6.259,0,0,0-3.212.321,7.058,7.058,0,0,0-2.3,1.388,17.548,17.548,0,0,0-1.631,1.937A4.257,4.257,0,0,1,550,243.122a6.886,6.886,0,0,1,2.394-1.6,6.516,6.516,0,0,1,3.525-.4,6.629,6.629,0,0,1,3.181,1.564,7.066,7.066,0,0,1,1.741,2.293,4.316,4.316,0,0,1,.554,2.554" transform="translate(-223.282 -98.088)" fill="#1a2e35"/>
        <path id="Trazado_720052" data-name="Trazado 720052" d="M591.214,335.344c3.532-.012,6.687-2.545,8.351-5.66s2.083-6.735,2.248-10.263a83.368,83.368,0,0,0-3.4-27.7l-15.479,2.7,4.215,41.683Z" transform="translate(-237.228 -118.717)" fill="#ffc09d"/>
        <path id="Trazado_720053" data-name="Trazado 720053" d="M491.331,332.247l50.394-1.837,12.223-59.054-53.079,2.949Z" transform="translate(-199.948 -110.429)" fill="#1a2e35"/>
        <path id="Trazado_720054" data-name="Trazado 720054" d="M535.073,271.377l.759-1.506,4.021-.3s1.021-2.638,6.768-2.908c5.152-.241,5.362,2.35,5.362,2.35h2.778v1.264Z" transform="translate(-217.749 -108.515)" fill="#375a64"/>
        <path id="Trazado_720055" data-name="Trazado 720055" d="M572.218,341.048l3.82-1.114a4.67,4.67,0,0,1,4.583,1.155,31.681,31.681,0,0,1,3.593,3.916,3.709,3.709,0,0,1,0,3.022c-.428.572.938,3.512.767,4.492a6.025,6.025,0,0,1-.767,2.369c-.342.409,0,1.806-.854,2.863a13.981,13.981,0,0,1-1.621,1.711s-10.492.49-11.516,0a15.138,15.138,0,0,1-2.815-2.369s-.938-1.715.512-1.878l-5.973-2.287a1.418,1.418,0,0,1-.866-1.79.989.989,0,0,1,.527-.578s-2.681-.848-3.3-1.121c-1.239-.547-1.707-3.431.857-3.062,1.355.195,3.185.59,3.185.59a1.9,1.9,0,0,1,.39-2.541c.83-.575,4.568.126,4.568.126Z" transform="translate(-226.796 -138.261)" fill="#ffc09d"/>
        <path id="Trazado_720056" data-name="Trazado 720056" d="M580.6,367.288a8.828,8.828,0,0,1-3.1-.463,7.677,7.677,0,0,1-2.859-1.291c.042-.074,1.29.54,2.944.994,1.646.474,3.028.671,3.018.76" transform="translate(-233.85 -148.752)" fill="#ff9b6c"/>
        <path id="Trazado_720057" data-name="Trazado 720057" d="M574.213,360.509a80.722,80.722,0,0,1-9.665-2.467,80.706,80.706,0,0,1,9.665,2.467" transform="translate(-229.744 -145.702)" fill="#ff9b6c"/>
        <path id="Trazado_720058" data-name="Trazado 720058" d="M575.792,354.269a92.5,92.5,0,0,1-10.416-2.436,92.868,92.868,0,0,1,10.416,2.436" transform="translate(-230.081 -143.175)" fill="#ff9b6c"/>
        <path id="Trazado_720059" data-name="Trazado 720059" d="M583.023,347.88a6.423,6.423,0,0,1-1.347.429l-1.48.382-.88.218a3.228,3.228,0,0,1-1.008.1,5.461,5.461,0,0,1-.983-.161l-.881-.2-1.487-.357a6.468,6.468,0,0,1-1.355-.406,6.466,6.466,0,0,1,1.4.193l1.5.294a17.656,17.656,0,0,0,1.818.33,6.708,6.708,0,0,0,1.8-.281l1.5-.319a6.464,6.464,0,0,1,1.4-.217" transform="translate(-233.428 -141.566)" fill="#ff9b6c"/>
        <path id="Trazado_720060" data-name="Trazado 720060" d="M590.052,351.274c.032-.021.174.108.289.388a1.769,1.769,0,0,1-.662,2.112c-.256.165-.445.19-.46.154-.046-.074.622-.4.867-1.186a3.39,3.39,0,0,0-.035-1.468" transform="translate(-239.783 -142.951)" fill="#ff9b6c"/>
        <path id="Trazado_720061" data-name="Trazado 720061" d="M590.167,358.112c.074-.034.312.388.278.963s-.313.97-.383.927.05-.441.075-.944-.053-.916.03-.946" transform="translate(-240.116 -145.733)" fill="#ff9b6c"/>
        <path id="Trazado_720062" data-name="Trazado 720062" d="M590.187,365.537c.078-.029.236.256.161.628s-.33.575-.39.518.033-.289.087-.579.058-.543.142-.568" transform="translate(-240.075 -148.755)" fill="#ff9b6c"/>
        <path id="Trazado_720063" data-name="Trazado 720063" d="M587.915,347.076a3.333,3.333,0,0,1-1.009-.052l-1.079-.139a4.1,4.1,0,0,0-1.284-.063,3.142,3.142,0,0,0-1.141.513c-.328.222-.615.466-.891.629a1.69,1.69,0,0,1-.967.332c-.017-.052.359-.156.845-.513a5.177,5.177,0,0,1,2.114-1.267,3.6,3.6,0,0,1,.721-.017c.242.024.439.071.646.1l1.073.206a3.3,3.3,0,0,1,.973.267" transform="translate(-236.66 -141.004)" fill="#ff9b6c"/>
        <path id="Trazado_720064" data-name="Trazado 720064" d="M597.1,355.032a5.22,5.22,0,0,1,.268-.754,5.8,5.8,0,0,0,.422-2.092,5.982,5.982,0,0,0-.224-1.456c-.123-.521-.362-1.04-.5-1.664a5.34,5.34,0,0,1,.129-1.939,3.419,3.419,0,0,0-.342-1.908,9.1,9.1,0,0,0-1.092-1.69c-.409-.517-.808-1.018-1.206-1.47a7.016,7.016,0,0,0-2.482-1.941,4.024,4.024,0,0,0-2.085-.316c-.5.066-.761.2-.773.173,0-.01.057-.046.18-.109a2.586,2.586,0,0,1,.573-.183,3.925,3.925,0,0,1,2.187.231,7.01,7.01,0,0,1,2.612,1.955c.413.457.816.952,1.232,1.473a9.12,9.12,0,0,1,1.134,1.747,3.686,3.686,0,0,1,.362,2.075,5.229,5.229,0,0,0-.15,1.847c.112.57.348,1.119.464,1.656a5.972,5.972,0,0,1,.194,1.519,5.41,5.41,0,0,1-.528,2.136,3.239,3.239,0,0,1-.379.709" transform="translate(-239.785 -138.208)" fill="#ff9b6c"/>
        <path id="Trazado_720065" data-name="Trazado 720065" d="M497.827,302.994l-41.378,6.573,1.838-21.6-23.011-4.446-2.8,31.974-.484,7.328A14.306,14.306,0,0,0,450.7,337.372l8.892-2.9,43.364-15.427" transform="translate(-175.788 -115.381)" fill="#ffc09d"/>
        <path id="Trazado_720066" data-name="Trazado 720066" d="M568.061,307.9a1.175,1.175,0,0,0-1.18-1.382c-2.333-.01-8.63.025-10.854.656-2.752.781-13,5.179-13,5.179l4.345,16.046,15.734.167s5.748-2.642,5.819-3.784a19.538,19.538,0,0,0-.142-2.142l1.734-.929c2.585-1.641.928-4.788.928-4.788a3.826,3.826,0,0,0,1.873-2.8,2.811,2.811,0,0,0-1.388-2.653s.713-2.538-.611-3.22-3.567.2-3.567.2a.949.949,0,0,0,.313-.543" transform="translate(-220.985 -124.736)" fill="#ffc09d"/>
        <path id="Trazado_720067" data-name="Trazado 720067" d="M578.076,309.284a1.642,1.642,0,0,1-.483.169c-.317.089-.781.193-1.359.292-1.156.206-2.765.38-4.536.57A37.3,37.3,0,0,0,567.2,311c-1.132.265-1.765.617-1.791.57-.011-.019.142-.116.431-.279a7.9,7.9,0,0,1,1.3-.5,27.347,27.347,0,0,1,4.517-.781c1.776-.191,3.382-.329,4.537-.479s1.862-.292,1.875-.245" transform="translate(-230.096 -125.86)" fill="#ff9b6c"/>
        <path id="Trazado_720068" data-name="Trazado 720068" d="M586.168,314.7a3.742,3.742,0,0,1-1.1.566,17.81,17.81,0,0,1-2.869.834c-1.142.24-2.184.392-2.938.49a5.02,5.02,0,0,1-1.232.1,37.213,37.213,0,0,1,4.106-.889c1.13-.238,2.14-.506,2.859-.738a7.274,7.274,0,0,1,1.177-.36" transform="translate(-235.229 -128.065)" fill="#ff9b6c"/>
        <path id="Trazado_720069" data-name="Trazado 720069" d="M586.263,324.1a17.01,17.01,0,0,1-6.9,1.565c-.009-.091,1.565-.286,3.466-.721s3.407-.929,3.438-.844" transform="translate(-235.771 -131.888)" fill="#ff9b6c"/>
        <path id="Trazado_720070" data-name="Trazado 720070" d="M585.726,332.122a11.93,11.93,0,0,1-5.323,1.285,26.019,26.019,0,0,1,2.663-.633,25.72,25.72,0,0,1,2.659-.652" transform="translate(-236.196 -135.153)" fill="#ff9b6c"/>
        <path id="Trazado_720071" data-name="Trazado 720071" d="M573.884,326.177c.012.036-.161.141-.48.171A1.814,1.814,0,0,1,571.51,325c-.077-.311-.035-.509,0-.509.084-.021.171.769.879,1.273a3.217,3.217,0,0,0,1.491.41" transform="translate(-232.56 -132.053)" fill="#ff9b6c"/>
        <path id="Trazado_720072" data-name="Trazado 720072" d="M573.835,334.709c.014.084-.616.122-1.153-.362s-.576-1.107-.492-1.1c.087-.019.24.476.7.874s.956.5.947.592" transform="translate(-232.84 -135.614)" fill="#ff9b6c"/>
        <path id="Trazado_720073" data-name="Trazado 720073" d="M571.121,318.112c.033.082-.4.219-.8-.086s-.391-.76-.3-.75c.086-.01.192.289.489.5s.6.247.617.333" transform="translate(-231.948 -129.116)" fill="#ff9b6c"/>
        <path id="Trazado_720074" data-name="Trazado 720074" d="M543.024,312.249a.569.569,0,0,1,.123-.068l.374-.174,1.459-.645c1.276-.555,3.138-1.355,5.488-2.318,1.176-.48,2.472-1,3.89-1.531a14.876,14.876,0,0,1,2.258-.7,24.2,24.2,0,0,1,2.5-.309c1.721-.133,3.542-.193,5.445-.221l1.443-.012h.732a1.509,1.509,0,0,1,.783.162,1.266,1.266,0,0,1,.673,1.429.465.465,0,0,1-.182.206,1.789,1.789,0,0,1-.177.109c-.118.064-.237.117-.358.168a5.643,5.643,0,0,1-.747.259.149.149,0,0,1-.183-.107.152.152,0,0,1,.1-.183,16.138,16.138,0,0,1,1.962-.437,7.157,7.157,0,0,1,2.075-.073,1.876,1.876,0,0,1,1.016.441,1.844,1.844,0,0,1,.5,1,5.174,5.174,0,0,1-.133,2.165l-.079-.18a2.871,2.871,0,0,1,.871.767,3.084,3.084,0,0,1,.453,2.807,4.146,4.146,0,0,1-1.8,2.15l.06-.2a4.941,4.941,0,0,1,.5,2.74,3.156,3.156,0,0,1-1.483,2.244l-.01.005-1.735.928.076-.145c.046.416.084.826.114,1.236.014.205.026.41.03.616,0,.1,0,.208,0,.314a.8.8,0,0,1-.129.343,3.73,3.73,0,0,1-.894.852c-.321.235-.65.447-.98.649a41.369,41.369,0,0,1-3.906,2.045.121.121,0,0,1-.053.012l-11.451-.176-3.168-.068-.83-.027a1.539,1.539,0,0,1-.283-.022,1.585,1.585,0,0,1,.284-.016l.83-.009h3.169l11.452.068-.053.011a41.773,41.773,0,0,0,3.867-2.051c.324-.2.647-.411.958-.64a3.521,3.521,0,0,0,.82-.777.54.54,0,0,0,.085-.212c0-.094,0-.192,0-.291,0-.2-.017-.4-.031-.6-.03-.4-.071-.813-.117-1.223a.147.147,0,0,1,.076-.145l1.732-.932-.009.005a2.854,2.854,0,0,0,1.343-2.036,4.667,4.667,0,0,0-.471-2.555.16.16,0,0,1,.06-.2,3.855,3.855,0,0,0,1.66-1.979,2.779,2.779,0,0,0-.406-2.523,2.6,2.6,0,0,0-.764-.679.162.162,0,0,1-.079-.18,4.9,4.9,0,0,0,.128-2.022,1.544,1.544,0,0,0-.413-.836,1.581,1.581,0,0,0-.852-.361,6.889,6.889,0,0,0-1.982.07,15.833,15.833,0,0,0-1.921.425l-.077-.289a5.459,5.459,0,0,0,.7-.241c.114-.047.227-.1.331-.154.1-.041.2-.155.246-.145a1.211,1.211,0,0,0-.1-.622,1.063,1.063,0,0,0-.455-.458,1.208,1.208,0,0,0-.647-.13l-.731,0-1.44.008c-1.9.021-3.716.073-5.429.2a24.183,24.183,0,0,0-2.474.291,14.768,14.768,0,0,0-2.227.675c-1.417.514-2.717,1.027-3.9,1.495l-5.519,2.235-1.479.6-.384.15a.588.588,0,0,1-.134.043" transform="translate(-220.985 -124.636)" fill="#ff9b6c"/>
        <path id="Trazado_720075" data-name="Trazado 720075" d="M470.032,327.367a12.269,12.269,0,0,0-5.1,6.124,3.34,3.34,0,0,1,.308-1.17,9.251,9.251,0,0,1,3.694-4.438,3.319,3.319,0,0,1,1.095-.516" transform="translate(-189.203 -133.221)" fill="#ff9b6c"/>
        <path id="Trazado_720076" data-name="Trazado 720076" d="M538.129,98.409a20.9,20.9,0,0,0-20.8-19.263l-1.082,0c-11.672.658-17.634,10.938-16.654,22.589l2.014,46.7a2.107,2.107,0,0,0,1.21,1.817l26.2,12.294-.81-24.511s11.224-1.721,11.385-12.939c.078-5.417-.67-16.586-1.463-26.687" transform="translate(-203.269 -32.207)" fill="#ffc09d"/>
        <path id="Trazado_720077" data-name="Trazado 720077" d="M537.988,175.447a27.209,27.209,0,0,1-14.69-4.332s3.44,8.08,14.636,7.093Z" transform="translate(-212.957 -69.636)" fill="#ff9b6c"/>
        <path id="Trazado_720078" data-name="Trazado 720078" d="M555.741,122.38a1.6,1.6,0,0,1-1.548,1.613,1.532,1.532,0,0,1-1.648-1.448,1.6,1.6,0,0,1,1.546-1.614,1.533,1.533,0,0,1,1.65,1.449" transform="translate(-224.859 -49.212)" fill="#1a2e35"/>
        <path id="Trazado_720079" data-name="Trazado 720079" d="M556.212,119.716c-.2.208-1.41-.692-3.135-.691-1.722-.024-2.989.861-3.175.649-.092-.094.112-.47.663-.871a4.395,4.395,0,0,1,2.542-.777,4.219,4.219,0,0,1,2.495.811c.529.408.708.786.61.879" transform="translate(-223.775 -48.031)" fill="#1a2e35"/>
        <path id="Trazado_720080" data-name="Trazado 720080" d="M527.168,123.263a1.6,1.6,0,0,1-1.548,1.613,1.533,1.533,0,0,1-1.649-1.448,1.6,1.6,0,0,1,1.547-1.614,1.534,1.534,0,0,1,1.65,1.449" transform="translate(-213.23 -49.572)" fill="#1a2e35"/>
        <path id="Trazado_720081" data-name="Trazado 720081" d="M527.639,120.2c-.2.209-1.413-.692-3.135-.691-1.722-.024-2.989.861-3.175.649-.091-.094.11-.47.663-.87a4.4,4.4,0,0,1,2.542-.778,4.225,4.225,0,0,1,2.495.811c.528.408.708.786.61.879" transform="translate(-212.147 -48.227)" fill="#1a2e35"/>
        <path id="Trazado_720082" data-name="Trazado 720082" d="M541.955,133.08a11.41,11.41,0,0,1,2.8-.5c.44-.044.857-.131.932-.432a2.242,2.242,0,0,0-.291-1.305L544.1,127.49c-1.8-4.776-3.1-8.7-2.906-8.774s1.807,3.743,3.605,8.52q.648,1.766,1.24,3.374a2.549,2.549,0,0,1,.225,1.728,1.1,1.1,0,0,1-.725.642,2.96,2.96,0,0,1-.748.1,11.245,11.245,0,0,1-2.838,0" transform="translate(-220.233 -48.311)" fill="#1a2e35"/>
        <path id="Trazado_720083" data-name="Trazado 720083" d="M533.737,144.931c.28-.015.28,1.856,1.879,3.187s3.592,1.13,3.605,1.391c.026.117-.445.362-1.287.384a4.661,4.661,0,0,1-3.01-1.056,4.06,4.06,0,0,1-1.455-2.672c-.069-.783.14-1.246.268-1.235" transform="translate(-217.09 -58.98)" fill="#1a2e35"/>
        <path id="Trazado_720084" data-name="Trazado 720084" d="M527.359,109.079c-.171.469-1.892.243-3.915.482-2.028.2-3.66.788-3.927.367-.119-.2.166-.642.826-1.094a6.857,6.857,0,0,1,5.974-.647c.742.3,1.115.67,1.041.892" transform="translate(-211.408 -43.861)" fill="#1a2e35"/>
        <path id="Trazado_720085" data-name="Trazado 720085" d="M555.479,111.231c-.3.391-1.491-.018-2.919-.04-1.427-.072-2.637.257-2.915-.153-.122-.2.069-.591.6-.96a4.225,4.225,0,0,1,4.7.155c.5.4.668.807.534,1" transform="translate(-223.665 -44.536)" fill="#1a2e35"/>
        <path id="Trazado_720086" data-name="Trazado 720086" d="M497.367,131c-.192-.083-7.7-2.3-7.474,5.374s7.882,5.858,7.889,5.637S497.367,131,497.367,131" transform="translate(-199.361 -53.163)" fill="#ffc09d"/>
        <path id="Trazado_720087" data-name="Trazado 720087" d="M497.829,140.891c-.034-.024-.131.1-.354.208a1.333,1.333,0,0,1-1,.05c-.819-.273-1.54-1.539-1.618-2.92a4.416,4.416,0,0,1,.317-1.924,1.545,1.545,0,0,1,.974-1.056.68.68,0,0,1,.8.343c.109.211.065.365.106.378.022.018.161-.133.09-.448a.851.851,0,0,0-.316-.471,1,1,0,0,0-.745-.173,1.877,1.877,0,0,0-1.36,1.231,4.538,4.538,0,0,0-.4,2.152c.1,1.544.93,2.966,2.048,3.253a1.43,1.43,0,0,0,1.216-.239c.232-.2.267-.369.24-.383" transform="translate(-201.163 -54.884)" fill="#ff9b6c"/>
        <path id="Trazado_720088" data-name="Trazado 720088" d="M504.2,85.975l31.982.705a14.641,14.641,0,0,0-4.7-5.435A24.991,24.991,0,0,0,517,76.033c-5.216-.091-15.834,6.261-19.612,9.858-3.023,2.878-3,5.368-3,5.368-.48,4.147,1.841,8.861,2.764,12.931.476,2.1,1.394,8.453,1.394,8.453h0c1.762-.007,2.417-1.409,2.149-3.151l-.33-6.835A10.321,10.321,0,0,0,503.513,90.6c-.456-.62-1.428-3.469.683-4.629" transform="translate(-201.163 -30.942)" fill="#1a2e35"/>
        <path id="Trazado_720089" data-name="Trazado 720089" d="M522.141,133.416a.209.209,0,1,1,.146-.241.2.2,0,0,1-.146.241" transform="translate(-212.392 -54.126)" fill="#ff9b6c"/>
        <path id="Trazado_720090" data-name="Trazado 720090" d="M527.693,132.126a.245.245,0,1,1,.141-.27.218.218,0,0,1-.141.27" transform="translate(-214.649 -53.577)" fill="#ff9b6c"/>
        <path id="Trazado_720091" data-name="Trazado 720091" d="M531.438,131.941c-.1.013-.206-.115-.227-.285s.046-.319.15-.332.206.114.227.285-.046.319-.151.332" transform="translate(-216.176 -53.442)" fill="#ff9b6c"/>
        <path id="Trazado_720092" data-name="Trazado 720092" d="M524.893,137.022c-.1,0-.19-.055-.19-.122s.085-.121.19-.121.19.055.19.122-.085.121-.19.121" transform="translate(-213.529 -55.662)" fill="#ff9b6c"/>
        <path id="Trazado_720093" data-name="Trazado 720093" d="M529.976,135.723a.217.217,0,1,1,.171-.231.2.2,0,0,1-.171.231" transform="translate(-215.59 -55.057)" fill="#ff9b6c"/>
        <path id="Trazado_720094" data-name="Trazado 720094" d="M556.472,132.617a.216.216,0,1,1,.145-.247.2.2,0,0,1-.145.247" transform="translate(-226.363 -53.796)" fill="#ff9b6c"/>
        <path id="Trazado_720095" data-name="Trazado 720095" d="M560.271,132.242a.246.246,0,1,1,.166-.256.218.218,0,0,1-.166.256" transform="translate(-227.917 -53.622)" fill="#ff9b6c"/>
        <path id="Trazado_720096" data-name="Trazado 720096" d="M553.137,132.767a.168.168,0,1,1,.154-.2.18.18,0,0,1-.154.2" transform="translate(-225.01 -53.895)" fill="#ff9b6c"/>
        <path id="Trazado_720097" data-name="Trazado 720097" d="M555.893,136.5a.222.222,0,1,1,.085-.278.206.206,0,0,1-.085.278" transform="translate(-226.107 -55.379)" fill="#ff9b6c"/>
        <path id="Trazado_720098" data-name="Trazado 720098" d="M559.222,135.93a.162.162,0,1,1,.225-.1.177.177,0,0,1-.225.1" transform="translate(-227.517 -55.188)" fill="#ff9b6c"/>
        <path id="Trazado_720099" data-name="Trazado 720099" d="M498.919,82.613a9.457,9.457,0,0,1,9.447-11.755,30.051,30.051,0,0,0,4.464.322c2.767-.3,4.9-2.521,7.468-3.6a9.746,9.746,0,0,1,11.5,3.45c.973,1.452,1.612,3.248,3.1,4.162,1.289.791,2.912.725,4.361,1.161a7.118,7.118,0,0,1,4.781,7.045,8.386,8.386,0,0,1-5.106,7.047,10.243,10.243,0,0,1-8.838-.624c-2.413-1.343-4.574-3.634-7.334-3.552-2.859.084-5.358,2.78-8.163,2.221a7.926,7.926,0,0,1-3.68-2.469,6.411,6.411,0,0,0-3.813-2.195c-1.5-.088-2.277,1.968-1.741,3.369Z" transform="translate(-202.907 -27.225)" fill="#1a2e35"/>
        <path id="Trazado_720100" data-name="Trazado 720100" d="M539.925,84.022s-.012.04-.051.112a3.015,3.015,0,0,1-.186.309,5.221,5.221,0,0,1-.917,1.041,5.68,5.68,0,0,1-1.9,1.1,5.427,5.427,0,0,1-2.9.173,5.738,5.738,0,0,1-3.061-1.741,37.837,37.837,0,0,1-2.206-3.37,4.152,4.152,0,0,0-3.67-1.868,4.825,4.825,0,0,0-2.176.587,4.074,4.074,0,0,0-1.6,1.65c-.386.7-.663,1.474-1.128,2.158a2.652,2.652,0,0,1-2.048,1.246,3.978,3.978,0,0,1-2.232-.645,8.39,8.39,0,0,1-1.7-1.406,7.116,7.116,0,0,0-3.172-2.259,4.026,4.026,0,0,0-3.212.755A5.527,5.527,0,0,0,506,84.052a9.085,9.085,0,0,0-.659,2.056c-.119.584-.174,1.046-.212,1.358a3.162,3.162,0,0,1-.068.477.363.363,0,0,1-.007-.123c0-.081,0-.2.013-.359a12.024,12.024,0,0,1,.155-1.375,8.848,8.848,0,0,1,.621-2.106,5.661,5.661,0,0,1,1.793-2.29,4.237,4.237,0,0,1,3.4-.827,7.3,7.3,0,0,1,3.315,2.306,8.163,8.163,0,0,0,1.649,1.354,3.705,3.705,0,0,0,2.062.6A2.347,2.347,0,0,0,519.871,84c.434-.638.711-1.4,1.11-2.132a4.384,4.384,0,0,1,1.725-1.77,5.117,5.117,0,0,1,2.32-.621,4.435,4.435,0,0,1,3.906,2,39.889,39.889,0,0,0,2.167,3.367,5.54,5.54,0,0,0,2.915,1.7,5.293,5.293,0,0,0,2.8-.123,5.71,5.71,0,0,0,1.878-1.029,7.269,7.269,0,0,0,1.231-1.371" transform="translate(-205.531 -32.343)" fill="#375a64"/>
        <path id="Trazado_720101" data-name="Trazado 720101" d="M565.664,87.333a1.744,1.744,0,0,1,.13.616,4.911,4.911,0,0,1-.162,1.714,5.956,5.956,0,0,1-1.2,2.258,7,7,0,0,1-2.529,1.841,10.385,10.385,0,0,1-5.579.631,14.966,14.966,0,0,1-1.676-.334,2.268,2.268,0,0,1-.595-.2c.011-.052.877.165,2.3.315a10.838,10.838,0,0,0,5.429-.7,6.947,6.947,0,0,0,2.437-1.744,6.007,6.007,0,0,0,1.205-2.133,6.791,6.791,0,0,0,.241-2.269" transform="translate(-225.474 -35.54)" fill="#375a64"/>
        <path id="Trazado_720102" data-name="Trazado 720102" d="M481.6,288.748a6.416,6.416,0,0,0,1.343,3.323,4.375,4.375,0,0,0,3.2,1.7,4.881,4.881,0,0,0,4.31-2.162c1.366-2.175,1.7-6.7.607-9.374-.753-1.839-2.446-3.549-4.433-3.6a4.9,4.9,0,0,0-4.8,3.732" transform="translate(-195.987 -113.392)" fill="#e1e1e1"/>
        <path id="Trazado_720103" data-name="Trazado 720103" d="M481.822,282.289a4,4,0,0,1,.483-1.279,5.258,5.258,0,0,1,.979-1.283,4.559,4.559,0,0,1,1.847-1.085,4.664,4.664,0,0,1,1.241-.2,3.766,3.766,0,0,1,1.357.179,5.345,5.345,0,0,1,2.422,1.737,6.992,6.992,0,0,1,1.424,2.966,12.782,12.782,0,0,1,.264,3.514,9.714,9.714,0,0,1-1.513,5.118,4.583,4.583,0,0,1-1.969,1.484,5.353,5.353,0,0,1-2.229.375h.018a3.354,3.354,0,0,1-1.6-.4,5.259,5.259,0,0,1-1.2-.837,5.97,5.97,0,0,1-1.308-1.95,5.724,5.724,0,0,1-.415-1.44,3.717,3.717,0,0,1-.037-.391c0-.089,0-.135.005-.135a7.969,7.969,0,0,0,.578,1.907,6.021,6.021,0,0,0,1.314,1.858,5.136,5.136,0,0,0,1.165.782,3.142,3.142,0,0,0,1.481.35h.018a4.743,4.743,0,0,0,3.942-1.786,9.531,9.531,0,0,0,1.439-4.957c.128-2.346-.266-4.71-1.6-6.283a5.115,5.115,0,0,0-2.282-1.673,3.521,3.521,0,0,0-1.271-.184,4.448,4.448,0,0,0-2.976,1.171,5.376,5.376,0,0,0-.992,1.216,11.075,11.075,0,0,0-.587,1.219" transform="translate(-195.983 -113.311)" fill="#1a2e35"/>
        <path id="Trazado_720104" data-name="Trazado 720104" d="M479.257,288.945a6.415,6.415,0,0,0,1.343,3.323,4.373,4.373,0,0,0,3.2,1.7,4.881,4.881,0,0,0,4.31-2.162c1.366-2.175,1.7-6.7.607-9.374-.753-1.839-2.446-3.549-4.433-3.6a4.9,4.9,0,0,0-4.8,3.732" transform="translate(-195.035 -113.472)" fill="#e1e1e1"/>
        <path id="Trazado_720105" data-name="Trazado 720105" d="M479.481,282.487a4,4,0,0,1,.483-1.279,5.249,5.249,0,0,1,.979-1.283,4.552,4.552,0,0,1,1.847-1.084,4.639,4.639,0,0,1,1.241-.2,3.766,3.766,0,0,1,1.357.179,5.344,5.344,0,0,1,2.422,1.737,6.992,6.992,0,0,1,1.425,2.966,12.782,12.782,0,0,1,.264,3.514,9.711,9.711,0,0,1-1.513,5.117,4.58,4.58,0,0,1-1.969,1.484,5.353,5.353,0,0,1-2.229.375h.018a3.354,3.354,0,0,1-1.6-.4,5.261,5.261,0,0,1-1.2-.837,5.97,5.97,0,0,1-1.308-1.95,5.722,5.722,0,0,1-.415-1.44,3.719,3.719,0,0,1-.037-.391c0-.089,0-.135.005-.135a7.978,7.978,0,0,0,.578,1.907,6.02,6.02,0,0,0,1.314,1.858,5.137,5.137,0,0,0,1.165.782,3.143,3.143,0,0,0,1.481.35h.018a4.743,4.743,0,0,0,3.942-1.786,9.529,9.529,0,0,0,1.439-4.957c.128-2.346-.266-4.71-1.6-6.283a5.118,5.118,0,0,0-2.282-1.673,3.519,3.519,0,0,0-1.271-.184,4.448,4.448,0,0,0-2.976,1.171,5.379,5.379,0,0,0-.992,1.216,11.065,11.065,0,0,0-.587,1.219" transform="translate(-195.03 -113.392)" fill="#1a2e35"/>
        <path id="Trazado_720106" data-name="Trazado 720106" d="M481.064,283.973a3.054,3.054,0,0,0-3.185,1.835,5.265,5.265,0,0,0,.007,3.87,4.794,4.794,0,0,0,.987,1.744,2.606,2.606,0,0,0,1.77.861,3.08,3.08,0,0,0,2.448-1.447,5.52,5.52,0,0,0,.836-4.549c-.27-1.028-1.027-2.082-2.09-2.11" transform="translate(-194.325 -115.545)" fill="#e1e1e1"/>
        <path id="Trazado_720107" data-name="Trazado 720107" d="M481.747,284.145a.567.567,0,0,1,.236-.006,1.648,1.648,0,0,1,.643.218,3.159,3.159,0,0,1,1.356,2.042,5.605,5.605,0,0,1-.366,3.63,4.741,4.741,0,0,1-1.33,1.745,2.571,2.571,0,0,1-2.289.547,3.191,3.191,0,0,1-1.828-1.494,6.68,6.68,0,0,1-.761-2.049A4.561,4.561,0,0,1,478,285.2a3.189,3.189,0,0,1,2.069-1.316,2.3,2.3,0,0,1,.677,0,.678.678,0,0,1,.227.064,4.365,4.365,0,0,0-.882.056,3.15,3.15,0,0,0-1.912,1.323,4.394,4.394,0,0,0-.492,3.4,6.5,6.5,0,0,0,.742,1.95,2.91,2.91,0,0,0,1.652,1.353,2.278,2.278,0,0,0,2.02-.489,4.5,4.5,0,0,0,1.258-1.627,5.48,5.48,0,0,0,.411-3.461,3.118,3.118,0,0,0-1.207-1.988,2.522,2.522,0,0,0-.816-.314" transform="translate(-194.233 -115.515)" fill="#1a2e35"/>
        <path id="Trazado_720108" data-name="Trazado 720108" d="M486.408,299.411c-.047.012-.112-.186-.315-.425a2.2,2.2,0,0,0-1.012-.649,5.557,5.557,0,0,0-1.245-.193c-.331-.024-.541-.051-.542-.094s.2-.092.54-.124a3.508,3.508,0,0,1,1.34.117,1.972,1.972,0,0,1,1.1.817c.186.313.173.547.138.552" transform="translate(-196.677 -121.234)" fill="#1a2e35"/>
        <path id="Trazado_720109" data-name="Trazado 720109" d="M486.945,282.638c.027.026-.091.212-.368.43a2.951,2.951,0,0,1-2.612.472c-.335-.108-.511-.24-.495-.275a4.455,4.455,0,0,0,3.474-.628" transform="translate(-196.749 -115.018)" fill="#1a2e35"/>
        <path id="Trazado_720110" data-name="Trazado 720110" d="M183.694,95.464c.074-2.583-2.315-4.58-4.721-5.526s-5.078-1.3-7.222-2.746c-1.9-1.278-3.175-3.271-4.782-4.9a15.908,15.908,0,0,0-26.755,7.3c-.923,3.679-.293,8.029,2.607,10.474,3.366,2.838,8.356,2.207,12.669,1.325s9.195-1.753,12.8.779c2.172,1.528,3.417,4.012,4.744,6.312s2.994,4.647,5.5,5.511,5.919-.628,6.017-3.281" transform="translate(-56.9 -31.573)" fill="#1a2e35"/>
        <path id="Trazado_720111" data-name="Trazado 720111" d="M177.924,102.2c-.284,2.165,1.283,4.1,2.842,5.633s3.322,3.15,3.6,5.317c.322,2.531-1.526,5.023-.99,7.517.34,1.583,1.572,2.8,2.318,4.24a9.008,9.008,0,0,1,.46,6.639c-.643,2.181-1.667,7.051-3.183,8.746a35,35,0,0,1-16.995,10.139c-6.128,1.408-12.493,1.416-18.769,1.03-5.138-.316-11.046-.08-15.327-7.148-2.217-3.661-3.316-8.529-4.494-12.643-1.015-3.543-1.892-7.337-.837-10.868.614-2.057,1.852-3.886,2.458-5.946.757-2.573.481-5.325.786-7.99a18.332,18.332,0,0,1,26.082-14.475" transform="translate(-51.304 -36.893)" fill="#1a2e35"/>
        <path id="Trazado_720112" data-name="Trazado 720112" d="M136.134,114.347c.481-7.373,5.387-16.409,12.732-15.616l22.929,5.85a4.323,4.323,0,0,1,3.858,4.393l-2.577,55.317.158.034s-5.226,15.6-20.388,10.836c-3.007-.945-4.379-4.234-4.975-7.616l-.155.02c-.006-.4-.011-.776-.016-1.159a36.209,36.209,0,0,1-.09-7.6c-.043-4.466-.038-6.3-.041-6.256,0,0-9.417-1.585-11.341-13.881-.957-6.114-.628-16.136-.094-24.327" transform="translate(-55.19 -40.159)" fill="#ffc09d"/>
        <path id="Trazado_720113" data-name="Trazado 720113" d="M142.715,136.611a1.576,1.576,0,0,0,1.516,1.594,1.508,1.508,0,0,0,1.628-1.418,1.577,1.577,0,0,0-1.515-1.595,1.509,1.509,0,0,0-1.63,1.419" transform="translate(-58.078 -55.016)" fill="#1a2e35"/>
        <path id="Trazado_720114" data-name="Trazado 720114" d="M140.118,132.762c.2.206,1.391-.675,3.087-.667,1.694-.016,2.937.86,3.122.652.091-.092-.108-.463-.649-.859a4.329,4.329,0,0,0-2.5-.776,4.156,4.156,0,0,0-2.458.788c-.522.4-.7.77-.6.863" transform="translate(-57.011 -53.356)" fill="#1a2e35"/>
        <path id="Trazado_720115" data-name="Trazado 720115" d="M170.829,136.611a1.576,1.576,0,0,0,1.516,1.594,1.508,1.508,0,0,0,1.628-1.417,1.577,1.577,0,0,0-1.515-1.595,1.508,1.508,0,0,0-1.629,1.419" transform="translate(-69.519 -55.016)" fill="#1a2e35"/>
        <path id="Trazado_720116" data-name="Trazado 720116" d="M168.231,133.358c.2.206,1.393-.675,3.088-.667,1.694-.017,2.937.859,3.122.652.09-.092-.106-.463-.649-.859a4.322,4.322,0,0,0-2.5-.777,4.159,4.159,0,0,0-2.458.788c-.521.4-.7.771-.6.863" transform="translate(-68.452 -53.599)" fill="#1a2e35"/>
        <path id="Trazado_720117" data-name="Trazado 720117" d="M154.858,145.982a11.291,11.291,0,0,0-2.755-.5c-.433-.046-.842-.133-.915-.429a2.207,2.207,0,0,1,.292-1.283l1.289-3.3c1.789-4.692,3.085-8.551,2.9-8.621s-1.793,3.675-3.583,8.367c-.431,1.157-.843,2.26-1.234,3.315a2.509,2.509,0,0,0-.229,1.7,1.088,1.088,0,0,0,.711.635,2.924,2.924,0,0,0,.735.1,11.011,11.011,0,0,0,2.793.01" transform="translate(-61.262 -53.657)" fill="#1a2e35"/>
        <path id="Trazado_720118" data-name="Trazado 720118" d="M155.771,186.533a31.27,31.27,0,0,0,16.471-4.354s-4.158,8.5-16.457,7.322Z" transform="translate(-63.391 -74.138)" fill="#ff9b6c"/>
        <path id="Trazado_720119" data-name="Trazado 720119" d="M158.9,161.787a3.056,3.056,0,0,1,2.743-1.129,2.791,2.791,0,0,1,1.924,1.038,1.768,1.768,0,0,1,.13,2.022,2.051,2.051,0,0,1-2.225.557,6.414,6.414,0,0,1-2.165-1.3,1.872,1.872,0,0,1-.483-.5.566.566,0,0,1,0-.631" transform="translate(-64.595 -65.373)" fill="#ff9b6c"/>
        <path id="Trazado_720120" data-name="Trazado 720120" d="M162.517,157.676c-.276-.017-.283,1.825-1.862,3.128s-3.538,1.1-3.553,1.354c-.026.116.436.359,1.264.383a4.586,4.586,0,0,0,2.966-1.026,3.994,3.994,0,0,0,1.443-2.623c.072-.769-.133-1.226-.259-1.216" transform="translate(-63.933 -64.166)" fill="#1a2e35"/>
        <path id="Trazado_720121" data-name="Trazado 720121" d="M166.967,128.612c.166.461,1.86.247,3.849.491,2,.2,3.6.791,3.863.377.119-.2-.16-.632-.808-1.08a6.749,6.749,0,0,0-5.876-.662c-.731.293-1.1.655-1.028.874" transform="translate(-67.944 -51.825)" fill="#1a2e35"/>
        <path id="Trazado_720122" data-name="Trazado 720122" d="M141.175,124.419c.3.385,1.467-.011,2.872-.027,1.4-.065,2.595.264,2.869-.138.12-.2-.066-.582-.585-.948a4.159,4.159,0,0,0-4.626.133c-.5.395-.661.791-.53.98" transform="translate(-57.434 -49.92)" fill="#1a2e35"/>
        <path id="Trazado_720123" data-name="Trazado 720123" d="M187.519,143.22a10.914,10.914,0,0,1-12.984-12.07c.383-3.019,2.01-6.09.963-8.947-1.384-3.777-6.679-4.939-8.084-8.709-.817-2.191-.084-4.754-1.009-6.9-.871-2.019-2.995-3.182-5.062-3.93s-4.285-1.264-6.021-2.613-2.819-3.9-1.7-5.788a116.475,116.475,0,0,1,26.859,6.526c2.006.749,4.113,1.649,5.3,3.433,1.255,1.886,1.194,4.324,1.089,6.587q-.772,16.555-1.545,33.109" transform="translate(-62.331 -38.361)" fill="#1a2e35"/>
        <path id="Trazado_720124" data-name="Trazado 720124" d="M186.211,143.151a.783.783,0,0,0,.2-.127l.547-.416c.476-.372,1.174-.926,2.036-1.687a21.63,21.63,0,0,0,2.89-3.041,11.338,11.338,0,0,0,2.3-5.059,7.7,7.7,0,0,0-1.585-6.468,24.963,24.963,0,0,0-2.864-2.442,6.682,6.682,0,0,1-2.234-3.047c-.909-2.506-.5-5.407-.855-8.372a16.662,16.662,0,0,0-3.484-8.469,11.488,11.488,0,0,0-3.645-2.979,22.429,22.429,0,0,0-4.3-1.452,10.015,10.015,0,0,1-3.774-1.86,14.833,14.833,0,0,1-2.74-3.022c-1.544-2.192-2.685-4.529-4.156-6.477a14.067,14.067,0,0,0-2.422-2.571,9.261,9.261,0,0,0-2.872-1.564,6.12,6.12,0,0,0-5.459.544,5.027,5.027,0,0,0-1.939,3.679,3.667,3.667,0,0,0,.739,2.532,2.285,2.285,0,0,0,.5.48c.125.094.191.138.2.13s-.05-.066-.161-.173a2.687,2.687,0,0,1-.45-.5,3.641,3.641,0,0,1-.617-2.451,4.836,4.836,0,0,1,1.9-3.449,5.818,5.818,0,0,1,5.161-.428,8.909,8.909,0,0,1,2.732,1.527,13.722,13.722,0,0,1,2.324,2.514c1.425,1.917,2.545,4.247,4.109,6.5a15.274,15.274,0,0,0,2.823,3.135,10.514,10.514,0,0,0,3.949,1.966,22.247,22.247,0,0,1,4.205,1.422,10.991,10.991,0,0,1,3.473,2.844,16.209,16.209,0,0,1,3.376,8.192c.358,2.866-.057,5.811.913,8.476a7.163,7.163,0,0,0,2.4,3.242,24.974,24.974,0,0,1,2.833,2.375,7.317,7.317,0,0,1,1.542,6.107,11.116,11.116,0,0,1-2.163,4.94,22.621,22.621,0,0,1-2.789,3.067c-.836.78-1.512,1.359-1.964,1.758a6.014,6.014,0,0,0-.675.627" transform="translate(-61.793 -34.066)" fill="#375a64"/>
        <path id="Trazado_720125" data-name="Trazado 720125" d="M209,185.776c2.526-2.442,6.843-.319,8.963,2.484s3.623,6.414,6.841,7.823,7.407.2,10.109,2.442c3.725,3.095,1.633,10.266,5.661,12.956,1.6,1.068,3.708,1.03,5.417,1.911,4.027,2.077,3.979,7.758,3.357,12.246-.873,6.3-1.83,12.828-5.305,18.152s-10.242,9.071-16.26,7.016c-5.783-1.974-8.751-8.214-11.1-13.854q-4.881-11.7-9.763-23.409c-1.883-4.514-3.784-9.1-4.4-13.948s.212-10.093,3.3-13.887" transform="translate(-82.338 -75.166)" fill="#1a2e35"/>
        <path id="Trazado_720126" data-name="Trazado 720126" d="M211.72,177.426c1.837-.221,3.237,2.028,2.754,3.814s-2.2,2.977-3.944,3.586a5.882,5.882,0,0,1-3.046.352,3,3,0,0,1-2.306-1.856,1.747,1.747,0,0,1,.844-2.306c1.207-.755,1.916-1.349,2.869-1.874,1.458-.8,1.371-.912,2.829-1.716" transform="translate(-83.439 -72.198)" fill="#81d4fa"/>
        <path id="Trazado_720127" data-name="Trazado 720127" d="M142.16,205.9l7.132-5.4,26.869-1.717,1.081,3.6-8.74,54.539,6.895,65.068H137.911Z" transform="translate(-56.123 -80.894)" fill="#81d4fa"/>
        <g id="Grupo_1008257" data-name="Grupo 1008257" transform="translate(83.454 214.517)" opacity="0.3">
          <g id="Grupo_1008256" data-name="Grupo 1008256">
            <g id="Grupo_1008255" data-name="Grupo 1008255" clip-path="url(#clip-path-6)">
              <path id="Trazado_720128" data-name="Trazado 720128" d="M172.073,365.214c-.857-.915-2.263-2.175-3.516-2.2-8.975-.2-18.143-1.095-27.118-1.293l-.719,26.591c2.147-3.785,4.179-7.724,4.744-12.039.247-1.885.563-4.137,2.284-4.944a5.144,5.144,0,0,1,3.169-.069,74.533,74.533,0,0,0,9.76,1.684,15.658,15.658,0,0,0,9.52-2.078,5.809,5.809,0,0,0,2.277-2.46,3.012,3.012,0,0,0-.4-3.189" transform="translate(-140.721 -361.719)"/>
            </g>
          </g>
        </g>
        <path id="Trazado_720129" data-name="Trazado 720129" d="M154.181,203.884l-.831-7.8a2.473,2.473,0,0,1,2.236-2.724l24.736-2.235a1.168,1.168,0,0,1,1.272,1.128l.279,9.278-7.162,12.154-7.363,2.343h-9l-5.178-5.529Z" transform="translate(-62.332 -77.777)" fill="#81d4fa"/>
        <path id="Trazado_720130" data-name="Trazado 720130" d="M178.5,203.4c-.005.026-.355-.037-.989-.1a17.425,17.425,0,0,0-2.7-.046,26.567,26.567,0,0,0-3.96.57c-1.478.31-3.083.745-4.785,1.159a31.343,31.343,0,0,1-4.87.868,12.585,12.585,0,0,1-4.037-.273,8.53,8.53,0,0,1-2.519-1.047,6.059,6.059,0,0,1-.6-.435c-.129-.11-.193-.172-.187-.18s.3.2.85.512a9.251,9.251,0,0,0,2.508.938,12.874,12.874,0,0,0,3.965.2,33.235,33.235,0,0,0,4.821-.884c1.7-.412,3.308-.84,4.8-1.137a24.6,24.6,0,0,1,4.007-.509,14.7,14.7,0,0,1,2.721.145c.318.052.563.1.727.143a.817.817,0,0,1,.247.078" transform="translate(-62.612 -82.622)" fill="#1a2e35"/>
        <g id="Grupo_1008260" data-name="Grupo 1008260" transform="translate(91.998 120.551)" opacity="0.3">
          <g id="Grupo_1008259" data-name="Grupo 1008259">
            <g id="Grupo_1008258" data-name="Grupo 1008258" clip-path="url(#clip-path-7)">
              <path id="Trazado_720131" data-name="Trazado 720131" d="M155.568,204.727c-.662,1.821-.681,4.076.662,5.471a4.823,4.823,0,0,0,4.4,1.113,13.976,13.976,0,0,0,4.3-1.932c3.405-2.026,6.865-4.125,10.734-4.984a1.4,1.4,0,0,0,.7-.289.459.459,0,0,0,.022-.67.633.633,0,0,0-.32-.092c-3.421-.343-6.817.624-10.172,1.377s-6.937,1.286-10.171.119" transform="translate(-155.128 -203.274)"/>
            </g>
          </g>
        </g>
        <path id="Trazado_720132" data-name="Trazado 720132" d="M162.807,194.469a2.267,2.267,0,0,0-.846.809,5.689,5.689,0,0,0-.338,2.842c.063,2.309.445,4.154.354,4.172a4.1,4.1,0,0,1-.334-1.193,18.389,18.389,0,0,1-.329-2.97,13.687,13.687,0,0,1,.034-1.653,2.886,2.886,0,0,1,.428-1.312,1.711,1.711,0,0,1,.7-.622c.2-.091.33-.09.334-.073" transform="translate(-65.644 -79.136)" fill="#1a2e35"/>
        <path id="Trazado_720133" data-name="Trazado 720133" d="M174.128,200.794a36.539,36.539,0,0,0-.177-3.775,36.42,36.42,0,0,0-.88-3.676,3.263,3.263,0,0,1,.506,1,12.157,12.157,0,0,1,.758,5.342,3.26,3.26,0,0,1-.207,1.105" transform="translate(-70.428 -78.681)" fill="#1a2e35"/>
        <path id="Trazado_720134" data-name="Trazado 720134" d="M187.978,192.241a2.361,2.361,0,0,1,.471.918,6.392,6.392,0,0,1-.325,4.883,2.373,2.373,0,0,1-.589.848,8.176,8.176,0,0,0,.442-6.649" transform="translate(-76.316 -78.232)" fill="#1a2e35"/>
        <path id="Trazado_720135" data-name="Trazado 720135" d="M112.3,216.7s-8.432,5.648-10.648,15.849c-1.743,8.019-6.514,50.372-6.514,50.372l-8.354,16.266,5.454,12.975a19.918,19.918,0,0,0,13.105-3.747l3.672-2.663,6.73-9.986Z" transform="translate(-35.317 -88.187)" fill="#ececec"/>
        <path id="Trazado_720136" data-name="Trazado 720136" d="M136.8,204.09l-14.3,7.479-3.373,11.088-3.007,32.136,5.661,37.676-9.928,31.567,17.121.128.406-18.5,1.71-59.9,1.68-38.156Z" transform="translate(-45.518 -83.055)" fill="#ececec"/>
        <path id="Trazado_720137" data-name="Trazado 720137" d="M138.8,256.3a3.235,3.235,0,0,1-.266-.446l-.71-1.312c-.3-.576-.583-1.317-.954-2.159-.176-.425-.32-.9-.5-1.388s-.362-1.012-.505-1.574a59.239,59.239,0,0,1-2.049-17.918c.019-.547.04-1.089.077-1.628l.007-.093.087-.037,2.5-1.051-.036.259-2.5-2.008-.052-.042,0-.061a21.731,21.731,0,0,1,1.139-7.149c.629-2.092,1.318-3.894,1.921-5.375s1.131-2.639,1.507-3.426c.188-.394.336-.7.441-.9a1.7,1.7,0,0,1,.172-.3,1.934,1.934,0,0,1-.126.323l-.4.915c-.347.8-.846,1.967-1.426,3.453s-1.243,3.292-1.851,5.378a21.84,21.84,0,0,0-1.086,7.054l-.055-.1,2.505,2,.2.16-.235.1-2.5,1.055.094-.13c-.036.529-.057,1.07-.075,1.614a61.262,61.262,0,0,0,1.95,17.849c.135.561.319,1.078.482,1.572s.3.963.472,1.388c.354.844.623,1.588.9,2.169l.657,1.333a3.316,3.316,0,0,1,.211.476" transform="translate(-54.449 -85.336)" fill="#1a2e35"/>
        <path id="Trazado_720138" data-name="Trazado 720138" d="M121.291,293.827a2.835,2.835,0,0,1-.138-.465l-.337-1.348c-.148-.585-.318-1.3-.483-2.146s-.384-1.794-.553-2.86c-.187-1.063-.386-2.229-.546-3.489-.192-1.256-.322-2.606-.474-4.026-.257-2.844-.429-5.981-.432-9.278.015-3.3.2-6.435.467-9.278.157-1.42.292-2.77.488-4.025.165-1.26.369-2.424.56-3.487.173-1.066.392-2.019.564-2.858s.34-1.559.49-2.144q.214-.844.343-1.347a2.89,2.89,0,0,1,.139-.464,2.82,2.82,0,0,1-.079.479l-.286,1.359c-.132.588-.287,1.309-.439,2.152s-.359,1.8-.518,2.861c-.177,1.063-.368,2.227-.521,3.484-.184,1.254-.31,2.6-.459,4.017-.251,2.837-.426,5.965-.441,9.252,0,3.286.167,6.414.407,9.252.144,1.416.265,2.764.444,4.019.149,1.258.334,2.423.508,3.486.155,1.067.355,2.021.507,2.863s.3,1.565.431,2.153c.117.569.211,1.021.281,1.36a2.879,2.879,0,0,1,.078.479" transform="translate(-48.153 -100.358)" fill="#1a2e35"/>
        <path id="Trazado_720139" data-name="Trazado 720139" d="M125.152,375.009a6.474,6.474,0,0,1-.694,1.438,23.5,23.5,0,0,1-4.87,5.945,6.512,6.512,0,0,1-1.273.964,11.126,11.126,0,0,1,1.126-1.124,32.576,32.576,0,0,0,4.832-5.9,11.106,11.106,0,0,1,.881-1.325" transform="translate(-48.148 -152.61)" fill="#1a2e35"/>
        <path id="Trazado_720140" data-name="Trazado 720140" d="M213.409,214.525a19.674,19.674,0,0,1,12.087,14c4.676,20.618,12.679,48.042,12.8,56.889.16,11.269-4.768,18.982-11.2,20.4-5.087,1.125-51.194-1.4-51.194-1.4l-2.156-17.179,37.337-5.5-5.113-28.567,5.06-39.566Z" transform="translate(-70.708 -86.927)" fill="#ececec"/>
        <path id="Trazado_720141" data-name="Trazado 720141" d="M216.695,206.336l-10.323-4.218-10.884-6.376-.068,1.865a10.93,10.93,0,0,1,1.295,7.566l-9.056,47.247,2.055,34.518,4.214,33.828H226.67l-15.035-35.377,5.307-47.672Z" transform="translate(-76.368 -79.657)" fill="#ececec"/>
        <path id="Trazado_720142" data-name="Trazado 720142" d="M220.484,352.6a1.227,1.227,0,0,1-.222.031l-.659.063c-.581.063-1.441.058-2.552.087-2.222.011-5.447-.048-9.459-.179-8.024-.268-19.2-.805-31.806-1.537l-.128-.007-.015-.126c-.257-2.047-.529-4.205-.8-6.4-.464-3.707-.917-7.322-1.35-10.782l-.018-.147.146-.021,28.511-4.145,8.371-1.187,2.25-.306.583-.072a1.162,1.162,0,0,1,.2-.017,1.078,1.078,0,0,1-.2.043l-.579.1-2.242.356-8.358,1.277-28.5,4.25.128-.168c.435,3.46.89,7.074,1.356,10.782.275,2.191.546,4.35.8,6.4l-.143-.133c12.607.741,23.777,1.314,31.8,1.636,4.01.159,7.232.249,9.451.273,1.108-.012,1.97.012,2.548-.033l.66-.034a1.325,1.325,0,0,1,.226,0" transform="translate(-70.594 -133.42)" fill="#1a2e35"/>
        <path id="Trazado_720143" data-name="Trazado 720143" d="M227.58,275.456a1.385,1.385,0,0,1,.08.317c.048.243.107.546.18.914.154.84.363,1.983.618,3.375.5,2.893,1.187,6.816,1.942,11.15.724,4.341,1.378,8.269,1.861,11.166.218,1.4.4,2.546.53,3.39.052.373.095.678.129.925a1.292,1.292,0,0,1,.024.326,1.287,1.287,0,0,1-.085-.315c-.05-.243-.111-.545-.186-.914-.156-.84-.368-1.981-.626-3.373-.516-2.851-1.207-6.793-1.951-11.152s-1.4-8.3-1.853-11.166c-.215-1.4-.391-2.547-.521-3.391-.05-.374-.09-.68-.123-.926a1.275,1.275,0,0,1-.018-.326" transform="translate(-92.612 -112.097)" fill="#1a2e35"/>
        <path id="Trazado_720144" data-name="Trazado 720144" d="M200.941,201.351a.412.412,0,0,1,.041.115c.026.093.058.206.1.345.075.305.209.753.331,1.343a42.131,42.131,0,0,1,.788,5.085,57.646,57.646,0,0,1,.2,7.758c-.1,2.949-.413,6.21-.858,9.666l-.014.11-.109.02-3.374.626.115-.208c.192.518.392,1.076.546,1.652a21.038,21.038,0,0,1-.385,11.454,36.1,36.1,0,0,1-3.965,8.541c-1.408,2.285-2.683,4.043-3.558,5.259l-1.024,1.388-.273.356a.559.559,0,0,1-.1.115.584.584,0,0,1,.076-.134l.248-.374.976-1.422c.844-1.237,2.09-3.012,3.469-5.3a36.711,36.711,0,0,0,3.879-8.508,20.909,20.909,0,0,0,.361-11.292c-.151-.566-.347-1.112-.534-1.621l-.065-.175.18-.033,3.376-.622-.123.13c.451-3.449.775-6.7.893-9.638a60.011,60.011,0,0,0-.128-7.729,47.283,47.283,0,0,0-.7-5.081c-.1-.592-.221-1.043-.279-1.352-.028-.141-.05-.256-.069-.352a.417.417,0,0,1-.014-.122" transform="translate(-77.072 -81.94)" fill="#1a2e35"/>
        <path id="Trazado_720145" data-name="Trazado 720145" d="M206.941,276.851v-7.537s.1-1.86-1.468-1.468-1.273,3.328-1.273,3.328-.294,11.453.392,11.355.948-.979.948-.979v-4.406Z" transform="translate(-83.074 -108.978)" fill="#81d4fa"/>
        <path id="Trazado_720146" data-name="Trazado 720146" d="M214.309,283.754a52.958,52.958,0,0,1-8.076,0,52.958,52.958,0,0,1,8.076,0" transform="translate(-83.927 -115.412)" fill="#1a2e35"/>
        <path id="Trazado_720147" data-name="Trazado 720147" d="M236.827,222.694a5.642,5.642,0,0,1-.844.313,19.634,19.634,0,0,0-2.24.97,17.418,17.418,0,0,0-6.059,5.162,12.811,12.811,0,0,0-1.191,1.94,12.25,12.25,0,0,0-.716,2,20.046,20.046,0,0,0-.6,3.562c-.088,1.028-.1,1.866-.111,2.444a7.156,7.156,0,0,1-.021.9,3.9,3.9,0,0,1-.1-.9,22.511,22.511,0,0,1,.014-2.462A18.685,18.685,0,0,1,225.5,233a12.176,12.176,0,0,1,.718-2.052,12.706,12.706,0,0,1,1.215-1.993,16.784,16.784,0,0,1,6.211-5.176,15.572,15.572,0,0,1,2.3-.888,4.559,4.559,0,0,1,.882-.2" transform="translate(-91.53 -90.624)" fill="#1a2e35"/>
        <path id="Trazado_720148" data-name="Trazado 720148" d="M20.9,328.362l53.941,19.979,45.471,6.951L66.245,328.936Z" transform="translate(-8.504 -133.628)" fill="#1a2e35"/>
        <path id="Trazado_720149" data-name="Trazado 720149" d="M57.3,356.621a22.982,22.982,0,0,0-2.873-8.172,6.122,6.122,0,0,1-.736-1.535A1.759,1.759,0,0,1,54,345.3c.693-.754,1.958-.419,2.809.151a9.9,9.9,0,0,1,3.632,5.085,29.473,29.473,0,0,1,1.187,6.236" transform="translate(-21.821 -140.344)" fill="#ffc09d"/>
        <path id="Trazado_720150" data-name="Trazado 720150" d="M79.285,349.459H76.6a5.226,5.226,0,0,0-2.352-1.352,1.868,1.868,0,0,0-1.774.691c1.2-1.975,2.491-4.15,2.74-4.746.483-1.159-.579-2.028-2.317-2.028s-9.364,10.812-9.364,10.812,4.74-8.7,5.2-10.025c1.148-3.321-2.482-3.569-3.8-1.967-1.636,1.988-8.252,11.991-8.252,11.991a4.659,4.659,0,0,0-.386,3.959c.869,1.931,3.379,1.158,3.379,1.158a3.238,3.238,0,0,0,1.77,2.684c1.937,1.076,4.486-.172,4.486-.172l9.866,2.219s1.566-.158,3.571-.358a10.952,10.952,0,0,0,9.751-9.3Z" transform="translate(-22.785 -138.318)" fill="#ffc09d"/>
        <path id="Trazado_720151" data-name="Trazado 720151" d="M79.85,354.661a32.871,32.871,0,0,1-2.907,4.609c-.853,1.239-1.642,2.35-2.226,3.144a8.141,8.141,0,0,1-1,1.248,8.322,8.322,0,0,1,.82-1.373c.538-.826,1.3-1.956,2.152-3.195s1.634-2.353,2.207-3.154l.684-.945a2.018,2.018,0,0,1,.269-.335" transform="translate(-29.999 -144.33)" fill="#ff9b6c"/>
        <path id="Trazado_720152" data-name="Trazado 720152" d="M83.062,365.768a8.995,8.995,0,0,1,.875-1.616c.583-.972,1.414-2.3,2.327-3.764.454-.734.892-1.433,1.25-2.079a2.394,2.394,0,0,0,.217-1.831,4.548,4.548,0,0,0-.842-1.571c.011-.013.164.082.383.32a3.17,3.17,0,0,1,.67,1.192,2.571,2.571,0,0,1-.176,2.022c-.355.671-.785,1.373-1.24,2.11-.914,1.468-1.775,2.776-2.4,3.718a13.6,13.6,0,0,1-1.06,1.5" transform="translate(-33.801 -144.43)" fill="#ff9b6c"/>
        <path id="Trazado_720153" data-name="Trazado 720153" d="M90.942,369.393a5.683,5.683,0,0,1,.524-1.54l.706-1.608a12.775,12.775,0,0,0,.724-1.992,2.323,2.323,0,0,0-.311-1.928,1.849,1.849,0,0,0-.7-.5,1.969,1.969,0,0,0-.735-.2,2.912,2.912,0,0,0-1.063.371c-.25.125-.4.184-.406.165s.113-.112.346-.27a5.088,5.088,0,0,1,.442-.266,1.64,1.64,0,0,1,.679-.219,2.1,2.1,0,0,1,.841.189,2.057,2.057,0,0,1,.823.558,2.552,2.552,0,0,1,.391,2.175,11.445,11.445,0,0,1-.765,2.04c-.279.6-.547,1.134-.767,1.583-.448.893-.682,1.461-.723,1.448" transform="translate(-36.493 -147.072)" fill="#ff9b6c"/>
        <path id="Trazado_720154" data-name="Trazado 720154" d="M94.877,359.13a1.082,1.082,0,0,1,.42.127,4.871,4.871,0,0,1,1.031.606,5.627,5.627,0,0,1,1.6,7.153,4.858,4.858,0,0,1-.675.987c-.19.209-.313.306-.326.294-.044-.037.395-.486.806-1.376a5.717,5.717,0,0,0-1.537-6.886c-.751-.632-1.339-.851-1.314-.9" transform="translate(-38.61 -146.147)" fill="#ff9b6c"/>
        <path id="Trazado_720155" data-name="Trazado 720155" d="M62.338,349.567a28.823,28.823,0,0,1-2.233,3.575,28.691,28.691,0,0,1-2.49,3.4,28.886,28.886,0,0,1,2.234-3.575,28.786,28.786,0,0,1,2.489-3.4" transform="translate(-23.445 -142.257)" fill="#ff9b6c"/>
        <path id="Trazado_720156" data-name="Trazado 720156" d="M148.661,332.852l-6.167-1.4-5.922-5.578a4.208,4.208,0,0,0-2.641-1.137l-10.777-.62a4.208,4.208,0,0,0-2.955.986l-7.705,6.51L146.1,348l4.613.407Z" transform="translate(-45.779 -131.898)" fill="#ffc09d"/>
        <path id="Trazado_720157" data-name="Trazado 720157" d="M133.766,333.547c-.009.049-.8-.1-2.076-.259a9,9,0,0,0-4.88.506,12.681,12.681,0,0,0-2.326,1.454c-.681.511-1.293.986-1.833,1.349a10.029,10.029,0,0,1-1.333.776,1.846,1.846,0,0,1-.533.193c-.021-.047.71-.374,1.739-1.148.518-.382,1.11-.87,1.787-1.4a11.953,11.953,0,0,1,2.372-1.508,6.957,6.957,0,0,1,2.752-.616,12.19,12.19,0,0,1,2.285.174c.642.1,1.154.222,1.506.308a1.948,1.948,0,0,1,.54.167" transform="translate(-49.154 -135.472)" fill="#ff9b6c"/>
        <path id="Trazado_720158" data-name="Trazado 720158" d="M141.238,343.764c-.02.049-.442-.144-1.162-.221a6.274,6.274,0,0,0-2.772.386,14.555,14.555,0,0,0-2.538,1.3,5.094,5.094,0,0,1-1.048.585,4.343,4.343,0,0,1,.928-.767,10.931,10.931,0,0,1,2.553-1.41,5.674,5.674,0,0,1,2.909-.312,2.275,2.275,0,0,1,1.132.436" transform="translate(-54.416 -139.688)" fill="#ff9b6c"/>
        <path id="Trazado_720159" data-name="Trazado 720159" d="M166.94,341.972a34.619,34.619,0,0,1-2.089-2.772,34.47,34.47,0,0,1-2.06-2.795,20.9,20.9,0,0,1,4.15,5.567" transform="translate(-66.247 -136.9)" fill="#ff9b6c"/>
        <path id="Trazado_720160" data-name="Trazado 720160" d="M138.347,314.916l13.662-12.726a1.3,1.3,0,0,0-1.76-1.926l-16.021,14.367" transform="translate(-54.624 -122.058)" fill="#81d4fa"/>
        <g id="Grupo_1008263" data-name="Grupo 1008263" transform="translate(79.604 177.874)" opacity="0.3">
          <g id="Grupo_1008262" data-name="Grupo 1008262">
            <g id="Grupo_1008261" data-name="Grupo 1008261" clip-path="url(#clip-path-8)">
              <path id="Trazado_720161" data-name="Trazado 720161" d="M138.347,314.916l13.662-12.726a1.3,1.3,0,0,0-1.76-1.926l-16.021,14.367" transform="translate(-134.228 -299.931)"/>
            </g>
          </g>
        </g>
        <path id="Trazado_720162" data-name="Trazado 720162" d="M323.9,118.245c-.212-.085-8.484-2.255-7.984,6.111s8.8,6.137,8.8,5.9-.812-12.007-.812-12.007" transform="translate(-128.555 -47.992)" fill="#c78976"/>
        <path id="Trazado_720163" data-name="Trazado 720163" d="M323.439,129.142c-.039-.024-.14.11-.379.238a1.46,1.46,0,0,1-1.088.087c-.9-.271-1.731-1.63-1.862-3.135a4.822,4.822,0,0,1,.282-2.111,1.686,1.686,0,0,1,1.03-1.184.743.743,0,0,1,.884.348c.126.227.083.4.128.409.024.02.171-.151.083-.492a.93.93,0,0,0-.361-.5,1.1,1.1,0,0,0-.819-.165,2.052,2.052,0,0,0-1.444,1.388,4.952,4.952,0,0,0-.366,2.362c.154,1.683,1.112,3.208,2.342,3.486a1.565,1.565,0,0,0,1.32-.3c.247-.222.279-.412.25-.425" transform="translate(-130.025 -49.898)" fill="#bf654e"/>
        <path id="Trazado_720164" data-name="Trazado 720164" d="M364.621,68.066c4.25,0,8.578,0,13.9,2.778,3.355,1.752,5.448,4.53,7.2,7.887A18.157,18.157,0,0,1,387.7,87.56c-.154,2.893-.164,4.916-1.32,7.573" transform="translate(-148.383 -27.7)" fill="#1a2e35"/>
        <path id="Trazado_720165" data-name="Trazado 720165" d="M347.351,69.135a22.555,22.555,0,0,1,24.1,21.313c.548,10.48,1.03,21.815.914,27.523-.249,12.251-12.518,14.058-12.518,14.058s.27,3.633.573,8.14A16.136,16.136,0,1,1,328.2,141.85l-1.822-49.375a22.562,22.562,0,0,1,20.975-23.339" transform="translate(-132.813 -28.112)" fill="#c78976"/>
        <path id="Trazado_720166" data-name="Trazado 720166" d="M372.045,171.9a29.149,29.149,0,0,1-15.718-4.843s3.706,8.913,15.939,7.907Z" transform="translate(-145.008 -67.985)" fill="#bf654e"/>
        <path id="Trazado_720167" data-name="Trazado 720167" d="M392.088,115.51a1.75,1.75,0,0,1-1.7,1.752,1.673,1.673,0,0,1-1.79-1.592,1.75,1.75,0,0,1,1.7-1.754,1.675,1.675,0,0,1,1.793,1.594" transform="translate(-158.14 -46.358)" fill="#1a2e35"/>
        <path id="Trazado_720168" data-name="Trazado 720168" d="M392.6,111.148c-.219.227-1.537-.766-3.419-.776-1.88-.037-3.269.92-3.472.689-.1-.1.125-.513.73-.946a4.8,4.8,0,0,1,2.782-.833,4.609,4.609,0,0,1,2.719.9c.576.449.769.863.661.965" transform="translate(-156.956 -44.472)" fill="#1a2e35"/>
        <path id="Trazado_720169" data-name="Trazado 720169" d="M360.954,115.511a1.749,1.749,0,0,1-1.7,1.751,1.673,1.673,0,0,1-1.791-1.591,1.75,1.75,0,0,1,1.7-1.753,1.675,1.675,0,0,1,1.792,1.593" transform="translate(-145.47 -46.358)" fill="#1a2e35"/>
        <path id="Trazado_720170" data-name="Trazado 720170" d="M361.391,111.49c-.219.227-1.538-.765-3.42-.775-1.881-.037-3.27.921-3.473.689-.1-.1.123-.513.731-.946a4.793,4.793,0,0,1,2.782-.833,4.609,4.609,0,0,1,2.719.9c.574.449.768.863.661.964" transform="translate(-144.255 -44.612)" fill="#1a2e35"/>
        <path id="Trazado_720171" data-name="Trazado 720171" d="M376.95,125.637a12.445,12.445,0,0,1,3.063-.527c.481-.046.937-.138,1.021-.465a2.445,2.445,0,0,0-.31-1.428q-.665-1.75-1.392-3.672c-1.933-5.228-3.328-9.526-3.117-9.6s1.949,4.1,3.882,9.328q.7,1.934,1.333,3.694a2.78,2.78,0,0,1,.235,1.888,1.206,1.206,0,0,1-.8.7,3.278,3.278,0,0,1-.817.107,12.278,12.278,0,0,1-3.1-.021" transform="translate(-153.092 -44.741)" fill="#1a2e35"/>
        <path id="Trazado_720172" data-name="Trazado 720172" d="M367.894,138.529c.307-.015.294,2.028,2.032,3.493s3.915,1.257,3.928,1.543c.027.129-.489.393-1.408.411a5.086,5.086,0,0,1-3.28-1.172,4.433,4.433,0,0,1-1.573-2.928c-.071-.855.161-1.359.3-1.346" transform="translate(-149.587 -56.374)" fill="#1a2e35"/>
        <path id="Trazado_720173" data-name="Trazado 720173" d="M361.154,99.348c-.19.51-2.068.253-4.278.5-2.217.2-4,.837-4.292.375-.129-.221.186-.7.91-1.19a7.491,7.491,0,0,1,6.53-.668c.808.334,1.213.739,1.132.981" transform="translate(-143.473 -39.844)" fill="#1a2e35"/>
        <path id="Trazado_720174" data-name="Trazado 720174" d="M392.5,99.77c-.335.425-1.628-.03-3.188-.062-1.559-.088-2.882.264-3.183-.186-.132-.218.079-.645.661-1.046a4.618,4.618,0,0,1,5.133.2c.547.444.725.886.577,1.094" transform="translate(-157.122 -39.797)" fill="#1a2e35"/>
        <path id="Trazado_720175" data-name="Trazado 720175" d="M326.316,95.885s.533,2.832.676,4.112c.052.467-.009,5.658,1.252,5.917,1.084.223,3.24-.764,4.2-2.911s2.786-7.3,2.588-9.641a33.9,33.9,0,0,1,.22-9.584,13.758,13.758,0,0,1,4.667-8.183,8.723,8.723,0,0,1,9.033-1.229c1.769.888,3.093,2.46,4.741,3.555a7.356,7.356,0,0,0,5.052,1.315,4.756,4.756,0,0,0,3.906-3.2,5.18,5.18,0,0,0-1.935-5.157,11.832,11.832,0,0,0-5.335-2.185A28.7,28.7,0,0,0,339.475,69.8a20.737,20.737,0,0,0-11.622,10.639c-2.481,5.713-2.192,9.217-1.537,15.444" transform="translate(-132.609 -27.7)" fill="#1a2e35"/>
        <path id="Trazado_720176" data-name="Trazado 720176" d="M362.321,110.941a14.792,14.792,0,0,0-.319-2.018,8.3,8.3,0,0,0-3.035-4.513,8.189,8.189,0,0,0-7.758-1.155,8.194,8.194,0,0,0-3.8,2.854,8.141,8.141,0,0,0,0,9.663,8.2,8.2,0,0,0,3.8,2.854A8.253,8.253,0,0,0,362,112.959a14.778,14.778,0,0,0,.319-2.018.484.484,0,0,1,.008.135c0,.108,0,.238,0,.4a3.784,3.784,0,0,1-.05.645,5.89,5.89,0,0,1-.156.87,8.38,8.38,0,0,1-6.563,6.256,8.455,8.455,0,0,1-4.444-.35,8.474,8.474,0,0,1-3.943-2.943,8.422,8.422,0,0,1,0-10.021,8.462,8.462,0,0,1,3.943-2.942,8.453,8.453,0,0,1,4.444-.351,8.383,8.383,0,0,1,6.564,6.257,5.876,5.876,0,0,1,.156.87,3.776,3.776,0,0,1,.05.645c0,.159,0,.289,0,.4a.484.484,0,0,1-.008.135" transform="translate(-140.608 -41.709)" fill="#1a2e35"/>
        <path id="Trazado_720177" data-name="Trazado 720177" d="M398.683,110.941a14.591,14.591,0,0,0-.318-2.018,8.3,8.3,0,0,0-3.036-4.513,8.189,8.189,0,0,0-7.759-1.155,8.2,8.2,0,0,0-3.795,2.854,8.144,8.144,0,0,0,0,9.663,8.206,8.206,0,0,0,3.8,2.854,8.253,8.253,0,0,0,10.795-5.668,14.578,14.578,0,0,0,.318-2.018.439.439,0,0,1,.009.135c0,.108,0,.238,0,.4a3.793,3.793,0,0,1-.05.645,5.807,5.807,0,0,1-.156.87,8.38,8.38,0,0,1-6.563,6.256,8.457,8.457,0,0,1-4.445-.35,8.469,8.469,0,0,1-3.943-2.943,8.419,8.419,0,0,1,0-10.021,8.457,8.457,0,0,1,3.942-2.942,8.455,8.455,0,0,1,4.444-.351,8.381,8.381,0,0,1,6.563,6.257,5.793,5.793,0,0,1,.156.87,3.784,3.784,0,0,1,.05.645c0,.159,0,.289,0,.4a.439.439,0,0,1-.009.135" transform="translate(-155.406 -41.709)" fill="#1a2e35"/>
        <path id="Trazado_720178" data-name="Trazado 720178" d="M378.886,114.676a4.171,4.171,0,0,1-.769-.266,4.959,4.959,0,0,0-3.726.248c-.443.216-.694.4-.727.365s.181-.278.621-.556a4.27,4.27,0,0,1,3.911-.26c.473.218.71.441.69.469" transform="translate(-152.063 -46.333)" fill="#1a2e35"/>
        <path id="Trazado_720179" data-name="Trazado 720179" d="M387.317,78.146c.12-.636-.089-.992.269-1.252.409-.3,1.18.483,1.463.793.09.1.378-.288.489-.362a2.128,2.128,0,0,0,.215-.813c-.053-.442-.748-.562-1.076-.864a3.294,3.294,0,0,0-1.154-.655,1.1,1.1,0,0,0-1.106.065,1.065,1.065,0,0,0-.247.828,2.328,2.328,0,0,0,.167.863,1.216,1.216,0,0,0,.589.632" transform="translate(-157.152 -30.471)" fill="#1a2e35"/>
        <path id="Trazado_720180" data-name="Trazado 720180" d="M325.861,101.936s6.006,2.2,9.133,3.527l-.177-3.071-8.739-3.457s-.222,2.283-.218,3" transform="translate(-132.61 -40.262)" fill="#ececec"/>
        <path id="Trazado_720181" data-name="Trazado 720181" d="M326.807,95.944a67.164,67.164,0,0,1,8.384,3.545,33.6,33.6,0,0,1-4.253-1.63,33.768,33.768,0,0,1-4.132-1.915" transform="translate(-132.994 -39.042)" fill="#ececec"/>
        <path id="Trazado_720182" data-name="Trazado 720182" d="M328.13,195.094l-.464-14.539s2.888,13.306,18.016,13.132c14.458-.166,14.193-11.722,14.193-11.722l.516,5.859V211.5l-9.431,38.615-12.042,1.528L325.61,198.853Z" transform="translate(-132.508 -73.477)" fill="#81d4fa"/>
        <path id="Trazado_720183" data-name="Trazado 720183" d="M360.267,196.124a1.511,1.511,0,0,1-.174.31,8.3,8.3,0,0,1-.573.843,12.428,12.428,0,0,1-2.693,2.606,15.491,15.491,0,0,1-5.03,2.362,17.771,17.771,0,0,1-6.786.47,22.127,22.127,0,0,1-6.519-1.962,28.258,28.258,0,0,1-4.761-2.87,32.905,32.905,0,0,1-2.884-2.388c-.327-.3-.565-.545-.731-.708a1.534,1.534,0,0,1-.238-.264,1.574,1.574,0,0,1,.281.218l.768.664c.667.575,1.652,1.387,2.932,2.3a29.554,29.554,0,0,0,4.753,2.789,22.349,22.349,0,0,0,6.438,1.913,17.8,17.8,0,0,0,6.674-.438,15.667,15.667,0,0,0,4.977-2.265,13.2,13.2,0,0,0,2.724-2.5c.551-.683.815-1.1.842-1.078" transform="translate(-134.244 -79.162)" fill="#1a2e35"/>
        <path id="Trazado_720184" data-name="Trazado 720184" d="M329.172,314.694l-.218-68.62-19.486-50.081-.655-15.072L296.939,189.9s-17.289,59.5-17.555,57.436-.007,67.356-.007,67.356Z" transform="translate(-113.647 -73.626)" fill="#ececec"/>
        <path id="Trazado_720185" data-name="Trazado 720185" d="M362.524,358.774c-.085,0-.154-15.463-.154-34.532s.069-34.535.154-34.535.154,15.459.154,34.535-.069,34.532-.154,34.532" transform="translate(-147.467 -117.897)" fill="#1a2e35"/>
        <path id="Trazado_720186" data-name="Trazado 720186" d="M309.361,212.591l2.41,1.824-1.694,11.1,28.445,29.794-25.835-33.925,2.2-8.794Z" transform="translate(-125.895 -86.514)" fill="#e1e1e1"/>
        <path id="Trazado_720187" data-name="Trazado 720187" d="M316.532,285.7l-43.652-12.8-1.446-33.157,11.972-43.683s-28.54,14.238-30.481,23.3-6.624,31.086-7.123,47.006c-.446,14.234-.511,23.751,2.74,28.294,9.309,13.012,70.653,15.336,95.161-.018" transform="translate(-99.94 -79.789)" fill="#ececec"/>
        <path id="Trazado_720188" data-name="Trazado 720188" d="M338.973,243.142a1.118,1.118,0,0,1-.142-.16l-.392-.489-1.483-1.9-5.407-7.019L313.8,210.344l-1.335-1.754-.045-.059.018-.072,2.207-8.793.144.184-5.527-.008h-.142V199.7c.008-3.591.016-6.883.023-9.8v-.059l.046-.035,8.579-6.52,2.355-1.767.619-.454a1.5,1.5,0,0,1,.218-.146,1.5,1.5,0,0,1-.2.173l-.6.481-2.316,1.818-8.516,6.6.046-.093c.007,2.917.015,6.21.023,9.8l-.141-.141,5.527-.007h.19l-.046.185c-.7,2.81-1.438,5.757-2.2,8.8l-.027-.131,1.336,1.754,17.675,23.285,5.329,7.079,1.437,1.934.367.508a1.144,1.144,0,0,1,.117.18" transform="translate(-125.798 -73.626)" fill="#1a2e35"/>
        <path id="Trazado_720189" data-name="Trazado 720189" d="M380.379,187.954c-3.482-6.089-5.288-5.455-5.288-5.455l.181,2.17,0,4.561-1.65,19.566-10.576,42.517.218,64.015h39.977l4.976-78.144-.452-33.664Z" transform="translate(-147.744 -74.26)" fill="#ececec"/>
        <path id="Trazado_720190" data-name="Trazado 720190" d="M394.215,217.959s10.348,7.639,11.244,19.928c.728,9.983,2.4,37.315,2.7,43.265.471,9.267-6.745,30.966-25.531,24.819-11.266-3.686-52.89-17.834-52.89-17.834l2.769-17.677,49.4,2.943.981-41.206Z" transform="translate(-134.188 -88.699)" fill="#ececec"/>
        <path id="Trazado_720191" data-name="Trazado 720191" d="M316.466,309.263s-13.983-1.512-17.222-.73c-3.112.751-7.544,4.559-7.544,4.559l.063,5.525,22.5,6.287Z" transform="translate(-118.708 -125.467)" fill="#c78976"/>
        <path id="Trazado_720192" data-name="Trazado 720192" d="M363.051,244.933a.982.982,0,0,1,.062-.19l.211-.546.836-2.09,3.129-7.662,4.677-11.349c.444-1.063.882-2.172,1.432-3.256.528-1.095,1.15-2.167,1.791-3.252a71.653,71.653,0,0,1,4.44-6.408c.807-1.041,1.62-2.054,2.46-3.025l-.027.157-1.742-4.429-.058-.147.149-.051,7.287-2.477-.075.2-8.262-13.795a10.856,10.856,0,0,0-2.759-3.56,3.637,3.637,0,0,0-1.105-.448,4.063,4.063,0,0,1-.4-.1,3.046,3.046,0,0,1,.414.054,3.438,3.438,0,0,1,1.142.416,5.011,5.011,0,0,1,1.4,1.359,24.742,24.742,0,0,1,1.453,2.185l8.361,13.743.09.147-.165.057-7.281,2.5.091-.2,1.748,4.427.034.087-.062.071c-.831.963-1.644,1.975-2.447,3.011a72.39,72.39,0,0,0-4.426,6.376c-.639,1.077-1.26,2.142-1.785,3.226-.547,1.072-.983,2.167-1.433,3.233l-4.738,11.325-3.22,7.625-.89,2.067-.238.535a.97.97,0,0,1-.091.178" transform="translate(-147.744 -74.273)" fill="#1a2e35"/>
        <path id="Trazado_720193" data-name="Trazado 720193" d="M384.542,346.38a1.582,1.582,0,0,1-.173.183l-.532.517a15.642,15.642,0,0,1-2.27,1.722,15.369,15.369,0,0,1-4.157,1.742,16.823,16.823,0,0,1-5.953.378,18.967,18.967,0,0,1-3.408-.722c-1.16-.37-2.321-.823-3.549-1.255-2.442-.886-5.059-1.808-7.815-2.775-5.512-1.93-11.593-4-18-6.1-12.812-4.209-24.493-7.756-32.96-10.283l-10.034-2.969-2.727-.81-.707-.218a1.461,1.461,0,0,1-.238-.085,1.628,1.628,0,0,1,.247.055l.715.189,2.743.754c2.38.664,5.82,1.641,10.063,2.875,8.484,2.475,20.178,5.99,32.995,10.2,6.406,2.1,12.485,4.177,17.995,6.123,2.754.974,5.369,1.906,7.807,2.8,1.221.435,2.4.9,3.533,1.268a18.809,18.809,0,0,0,3.361.732,16.757,16.757,0,0,0,5.887-.329A15.5,15.5,0,0,0,381.5,348.7a16.982,16.982,0,0,0,2.29-1.666l.551-.493a1.62,1.62,0,0,1,.2-.161" transform="translate(-118.838 -132.547)" fill="#1a2e35"/>
        <path id="Trazado_720194" data-name="Trazado 720194" d="M284.244,325.669c-.01.065-.785-.1-2.038-.055a9.4,9.4,0,0,0-2.16.356,9.965,9.965,0,0,0-2.431,1.109,11.329,11.329,0,0,0-3.382,3.475c-.664,1.068-.949,1.8-1,1.779a1.92,1.92,0,0,1,.165-.528,9.4,9.4,0,0,1,.652-1.363,10.6,10.6,0,0,1,3.4-3.623,9.627,9.627,0,0,1,2.521-1.123,8.745,8.745,0,0,1,2.232-.3,7.334,7.334,0,0,1,1.507.135,1.9,1.9,0,0,1,.537.139" transform="translate(-111.189 -132.421)" fill="#1a2e35"/>
        <path id="Trazado_720195" data-name="Trazado 720195" d="M268.616,317.58c-.009,0,.009-.058.056-.156a1.477,1.477,0,0,1,.274-.388,2.8,2.8,0,0,1,1.551-.77,7.893,7.893,0,0,1,2.564.006,14.7,14.7,0,0,1,3.041.739,13.334,13.334,0,0,1,4.823,2.952,10.227,10.227,0,0,1,1.118,1.309,2.44,2.44,0,0,1,.324.541c-.049.037-.538-.722-1.592-1.692A14.29,14.29,0,0,0,276,317.3a15.6,15.6,0,0,0-2.977-.748,8.214,8.214,0,0,0-2.485-.073,2.851,2.851,0,0,0-1.505.642c-.29.266-.388.473-.415.458" transform="translate(-109.313 -128.663)" fill="#1a2e35"/>
        <path id="Trazado_720196" data-name="Trazado 720196" d="M283.96,245.413a5.313,5.313,0,0,1-.2-.9c-.088-.281-.218-.62-.352-1.015-.19-.374-.375-.815-.646-1.267a17.929,17.929,0,0,0-2.225-2.96,23.862,23.862,0,0,0-3.409-3,20.51,20.51,0,0,0-7.454-3.424,15.446,15.446,0,0,0-2.482-.316,5.439,5.439,0,0,1-.923-.075,5.209,5.209,0,0,1,.926-.045,13.016,13.016,0,0,1,2.522.222,19.594,19.594,0,0,1,7.592,3.387,22.876,22.876,0,0,1,3.439,3.058,16.964,16.964,0,0,1,2.206,3.045c.264.467.439.925.617,1.311.122.41.237.76.308,1.051a5.24,5.24,0,0,1,.082.927" transform="translate(-108.359 -94.577)" fill="#1a2e35"/>
        <path id="Trazado_720197" data-name="Trazado 720197" d="M393.51,326.429a1.089,1.089,0,0,1-.015-.211c0-.155-.008-.361-.014-.62-.017-.546-.038-1.349-.117-2.38a33.117,33.117,0,0,0-1.755-8.546,12.1,12.1,0,0,0-1.2-2.611A5.115,5.115,0,0,0,388.1,310.1c-1.986-.856-4.377-.743-6.808-.88l-15.919-.669c-13.154-.573-24.856-1.067-32.207-1.459l.1-.08c-.444,2.7-.8,4.843-1.04,6.328q-.186,1.08-.289,1.678l-.081.431a.626.626,0,0,1-.036.145.677.677,0,0,1,.01-.148c.014-.112.033-.254.055-.435.057-.4.138-.962.24-1.684.224-1.49.547-3.638.954-6.346l.012-.083.086,0,32.21,1.339,15.919.694c1.223.061,2.415.089,3.579.184a10.423,10.423,0,0,1,3.32.745,5.37,5.37,0,0,1,2.41,2.066,12.283,12.283,0,0,1,1.2,2.669,32.14,32.14,0,0,1,1.669,8.61c.061,1.035.063,1.841.059,2.387-.007.26-.012.466-.017.622a1.076,1.076,0,0,1-.017.21" transform="translate(-135.032 -124.893)" fill="#1a2e35"/>
        <path id="Trazado_720198" data-name="Trazado 720198" d="M419.854,274.614c.085,0,.154,4.785.154,10.687s-.069,10.688-.154,10.688S419.7,291.2,419.7,285.3s.069-10.687.154-10.687" transform="translate(-170.798 -111.755)" fill="#1a2e35"/>
        <path id="Trazado_720199" data-name="Trazado 720199" d="M253.192,233.546s-.037.135-.122.394-.232.638-.357,1.156c-.288,1.027-.653,2.562-1.062,4.561-.826,4-1.843,9.842-2.984,17.162-.566,3.66-1.17,7.689-1.764,12.043-.3,2.174-.489,4.441-.646,6.788s-.281,4.769-.371,7.262c-.18,4.986-.286,10.253-.142,15.74.042,1.371.093,2.757.207,4.15.035.7.149,1.388.235,2.084a16.821,16.821,0,0,0,.506,2.047,11.646,11.646,0,0,0,1.965,3.756,8.473,8.473,0,0,0,3.372,2.6l.019.007.006,0a51.35,51.35,0,0,0,8.793,3.358c3.065.918,6.232,1.659,9.449,2.321a130.165,130.165,0,0,0,21.231,2.585,98.777,98.777,0,0,0,10.135-.265c3.3-.228,6.521-.573,9.635-1.035a101.636,101.636,0,0,0,17.294-4.02,88.7,88.7,0,0,0,13.983-6l.015.192-19.184-6.792-5.165-1.844-1.336-.485c-.3-.111-.451-.174-.451-.174s.158.044.461.146l1.346.457,5.184,1.792,19.215,6.7.226.079-.211.114a88.365,88.365,0,0,1-14,6.053,101.426,101.426,0,0,1-17.332,4.06c-3.121.468-6.346.817-9.655,1.05a98.941,98.941,0,0,1-10.165.273,129.938,129.938,0,0,1-21.284-2.585c-3.224-.663-6.4-1.406-9.475-2.329a51.544,51.544,0,0,1-8.849-3.386l.025.011a8.739,8.739,0,0,1-3.513-2.7,11.953,11.953,0,0,1-2.013-3.854,16.939,16.939,0,0,1-.514-2.088c-.088-.707-.2-1.41-.237-2.111-.113-1.4-.162-2.79-.2-4.164-.138-5.5-.024-10.769.165-15.758q.142-3.742.385-7.269c.163-2.348.356-4.623.665-6.8.6-4.355,1.221-8.382,1.8-12.042,1.167-7.318,2.215-13.161,3.074-17.153.426-2,.808-3.529,1.114-4.553.134-.517.3-.893.384-1.151s.148-.384.148-.384" transform="translate(-99.864 -95.042)" fill="#1a2e35"/>
        <path id="Trazado_720200" data-name="Trazado 720200" d="M291.7,296.542c7.3-8.082,6.978-22.453,2.79-32.651-.387,11.047-1.69,20.843-2.689,31.578" transform="translate(-118.708 -107.391)" fill="#e1e1e1"/>
        <path id="Trazado_720201" data-name="Trazado 720201" d="M294.539,267.381a1.515,1.515,0,0,1,0,.353c-.017.265-.039.6-.066,1.009-.072.916-.17,2.172-.291,3.706-.26,3.165-.615,7.468-1.006,12.222-.373,4.757-.71,9.061-.958,12.226-.116,1.534-.211,2.79-.279,3.707-.036.41-.065.743-.087,1.007a1.537,1.537,0,0,1-.052.35,1.5,1.5,0,0,1-.011-.353c.008-.264.017-.6.03-1.011.029-.878.093-2.146.181-3.714.18-3.134.479-7.462.868-12.237s.786-9.093,1.1-12.216c.161-1.531.293-2.784.39-3.7.05-.409.091-.741.123-1a1.5,1.5,0,0,1,.064-.348" transform="translate(-118.743 -108.811)" fill="#1a2e35"/>
        <path id="Trazado_720202" data-name="Trazado 720202" d="M326.667,242.758c.085,0,.154,2.806.154,6.266s-.069,6.267-.154,6.267-.154-2.806-.154-6.267.069-6.266.154-6.266" transform="translate(-132.875 -98.791)" fill="#1a2e35"/>
        <path id="Trazado_720203" data-name="Trazado 720203" d="M318.755,270.927a6.415,6.415,0,0,0,1.343,3.323,4.375,4.375,0,0,0,3.2,1.7,4.881,4.881,0,0,0,4.31-2.162c1.366-2.175,1.7-6.7.607-9.374-.753-1.839-2.446-3.549-4.433-3.6a4.9,4.9,0,0,0-4.8,3.732" transform="translate(-129.718 -106.139)" fill="#e1e1e1"/>
        <path id="Trazado_720204" data-name="Trazado 720204" d="M318.979,264.469a4,4,0,0,1,.483-1.279,5.257,5.257,0,0,1,.979-1.283,4.559,4.559,0,0,1,1.847-1.085,4.661,4.661,0,0,1,1.241-.2,3.765,3.765,0,0,1,1.357.178,5.345,5.345,0,0,1,2.422,1.737,6.985,6.985,0,0,1,1.425,2.966A12.758,12.758,0,0,1,329,269.02a9.71,9.71,0,0,1-1.513,5.117,4.58,4.58,0,0,1-1.969,1.484,5.353,5.353,0,0,1-2.229.375h.018a3.354,3.354,0,0,1-1.6-.4,5.274,5.274,0,0,1-1.2-.837,5.97,5.97,0,0,1-1.308-1.95,5.726,5.726,0,0,1-.415-1.44,3.728,3.728,0,0,1-.037-.391c0-.089,0-.135.005-.135a7.972,7.972,0,0,0,.578,1.907,6.02,6.02,0,0,0,1.314,1.858,5.137,5.137,0,0,0,1.165.782,3.143,3.143,0,0,0,1.481.35h.018a4.743,4.743,0,0,0,3.942-1.786A9.53,9.53,0,0,0,328.688,269c.128-2.346-.266-4.71-1.6-6.283a5.115,5.115,0,0,0-2.282-1.673,3.521,3.521,0,0,0-1.271-.184,4.448,4.448,0,0,0-2.976,1.171,5.377,5.377,0,0,0-.992,1.216,11.051,11.051,0,0,0-.587,1.219" transform="translate(-129.713 -106.059)" fill="#1a2e35"/>
        <path id="Trazado_720205" data-name="Trazado 720205" d="M316.414,271.125a6.409,6.409,0,0,0,1.343,3.323,4.374,4.374,0,0,0,3.2,1.7,4.881,4.881,0,0,0,4.31-2.162c1.366-2.175,1.7-6.7.607-9.374-.753-1.839-2.446-3.549-4.433-3.6a4.9,4.9,0,0,0-4.8,3.732" transform="translate(-128.765 -106.22)" fill="#e1e1e1"/>
        <path id="Trazado_720206" data-name="Trazado 720206" d="M316.638,264.667a4,4,0,0,1,.483-1.279,5.257,5.257,0,0,1,.979-1.283,4.556,4.556,0,0,1,1.847-1.084,4.637,4.637,0,0,1,1.241-.2,3.765,3.765,0,0,1,1.357.179,5.349,5.349,0,0,1,2.423,1.737,6.991,6.991,0,0,1,1.424,2.966,12.758,12.758,0,0,1,.264,3.514,9.712,9.712,0,0,1-1.513,5.117,4.586,4.586,0,0,1-1.969,1.485,5.359,5.359,0,0,1-2.229.375h.018a3.354,3.354,0,0,1-1.6-.4,5.275,5.275,0,0,1-1.2-.837,5.975,5.975,0,0,1-1.308-1.949,5.76,5.76,0,0,1-.415-1.441,3.727,3.727,0,0,1-.037-.391c0-.089,0-.135.005-.135a8.01,8.01,0,0,0,.578,1.907,6.02,6.02,0,0,0,1.314,1.858,5.136,5.136,0,0,0,1.165.782,3.144,3.144,0,0,0,1.481.35h.018a4.743,4.743,0,0,0,3.942-1.786,9.531,9.531,0,0,0,1.439-4.957c.128-2.346-.266-4.71-1.6-6.283a5.111,5.111,0,0,0-2.282-1.673,3.516,3.516,0,0,0-1.271-.184,4.448,4.448,0,0,0-2.976,1.171,5.377,5.377,0,0,0-.992,1.216,11.046,11.046,0,0,0-.587,1.219" transform="translate(-128.761 -106.14)" fill="#1a2e35"/>
        <path id="Trazado_720207" data-name="Trazado 720207" d="M318.221,266.153a3.054,3.054,0,0,0-3.185,1.835,5.264,5.264,0,0,0,.007,3.87,4.8,4.8,0,0,0,.987,1.744,2.606,2.606,0,0,0,1.77.861,3.08,3.08,0,0,0,2.448-1.447,5.522,5.522,0,0,0,.836-4.549c-.27-1.028-1.027-2.082-2.09-2.11" transform="translate(-128.056 -108.293)" fill="#e1e1e1"/>
        <path id="Trazado_720208" data-name="Trazado 720208" d="M318.9,266.325a.572.572,0,0,1,.236-.007,1.651,1.651,0,0,1,.643.218,3.157,3.157,0,0,1,1.356,2.041,5.606,5.606,0,0,1-.366,3.63,4.725,4.725,0,0,1-1.33,1.745,2.569,2.569,0,0,1-2.289.548,3.186,3.186,0,0,1-1.828-1.494,6.681,6.681,0,0,1-.762-2.049,4.563,4.563,0,0,1,.592-3.583,3.185,3.185,0,0,1,2.069-1.315,2.266,2.266,0,0,1,.677,0,.677.677,0,0,1,.227.064,4.422,4.422,0,0,0-.882.056,3.146,3.146,0,0,0-1.912,1.323,4.391,4.391,0,0,0-.492,3.4,6.491,6.491,0,0,0,.742,1.949,2.9,2.9,0,0,0,1.652,1.353,2.274,2.274,0,0,0,2.02-.489,4.488,4.488,0,0,0,1.258-1.627,5.478,5.478,0,0,0,.411-3.461,3.12,3.12,0,0,0-1.207-1.987,2.491,2.491,0,0,0-.816-.314" transform="translate(-127.964 -108.263)" fill="#1a2e35"/>
        <path id="Trazado_720209" data-name="Trazado 720209" d="M323.565,281.591c-.047.012-.112-.186-.315-.424a2.2,2.2,0,0,0-1.012-.649,5.56,5.56,0,0,0-1.245-.193c-.331-.024-.541-.052-.542-.095s.2-.091.54-.123a3.517,3.517,0,0,1,1.34.116,1.976,1.976,0,0,1,1.1.818c.186.313.173.547.138.551" transform="translate(-130.408 -113.982)" fill="#1a2e35"/>
        <path id="Trazado_720210" data-name="Trazado 720210" d="M324.1,264.818c.027.026-.091.212-.368.43a2.951,2.951,0,0,1-2.612.472c-.335-.108-.511-.24-.495-.275a4.456,4.456,0,0,0,3.474-.627" transform="translate(-130.48 -107.766)" fill="#1a2e35"/>
        <path id="Trazado_720211" data-name="Trazado 720211" d="M395.2,193.191c0-.009.072.015.2.072a5.625,5.625,0,0,1,.528.273,10.747,10.747,0,0,1,1.777,1.27,12.752,12.752,0,0,1,3.817,6.04,38.591,38.591,0,0,1,1.454,7.031c.1.913.159,1.654.193,2.166a3.939,3.939,0,0,1,.015.8,3.969,3.969,0,0,1-.135-.787c-.077-.568-.173-1.289-.289-2.151a45.393,45.393,0,0,0-1.533-6.971,13.137,13.137,0,0,0-3.667-5.965,20.233,20.233,0,0,0-2.354-1.777" transform="translate(-160.827 -78.618)" fill="#1a2e35"/>
        <path id="Trazado_720212" data-name="Trazado 720212" d="M382.591,302.107c1.719-.066,3.092-1.78,4.81-1.688a2.39,2.39,0,1,1-.4,4.76c-1.8-.209-2.86-2.325-4.631-2.731" transform="translate(-155.605 -122.255)" fill="#1a2e35"/>
        <path id="Trazado_720213" data-name="Trazado 720213" d="M394.186,271.81a10.228,10.228,0,0,1-1.61-.133l.094-.586a6.826,6.826,0,0,0,5.3-1.035c1.755-1.29,2.886-3.6,3.363-6.859l.018-.124c.194-1.292.462-26.658.463-31.474a8.213,8.213,0,0,0-6.883-8.589c-.267-.049-6.269-1.052-9.454,7.164-3.334,8.6-8.664,25.184-9.017,27.127-.043.238-.109.533-.184.875-.555,2.488-1.707,7.665,1.745,10.647,3.849,3.323,6.885,2.037,7.012,1.982l.243.541c-.142.062-3.491,1.511-7.643-2.074-3.721-3.213-2.516-8.624-1.937-11.225.074-.333.138-.62.18-.852.355-1.958,5.705-18.609,9.049-27.235,3.368-8.694,10.035-7.549,10.1-7.535a8.923,8.923,0,0,1,7.38,9.174c0,3.967-.263,30.189-.47,31.561l-.018.122c-.5,3.424-1.71,5.864-3.6,7.251a6.816,6.816,0,0,1-4.139,1.276" transform="translate(-152.625 -90.493)" fill="#1a2e35"/>
        <path id="Trazado_720214" data-name="Trazado 720214" d="M408.678,240.719a11.065,11.065,0,0,0-1.235-2.956,10.054,10.054,0,0,0-6.153-4.338,11.151,11.151,0,0,0-7.507.979,13.234,13.234,0,0,0-2.61,1.87c-.008-.007.039-.069.135-.182a5.17,5.17,0,0,1,.444-.473,8.949,8.949,0,0,1,1.928-1.407,11.02,11.02,0,0,1,7.681-1.087A10.124,10.124,0,0,1,405.274,235a9.85,9.85,0,0,1,2.356,2.649,7.855,7.855,0,0,1,.914,2.207,4.563,4.563,0,0,1,.119.638.62.62,0,0,1,.015.226" transform="translate(-159.188 -94.761)" fill="#1a2e35"/>
        <path id="Trazado_720215" data-name="Trazado 720215" d="M436.8,319.822a20.411,20.411,0,0,0-.814-2.53,11.05,11.05,0,0,0-4.023-4.827,8.689,8.689,0,0,0-3.264-1.178,28.792,28.792,0,0,0-2.872-.3l-1.953-.135a3.217,3.217,0,0,1-.714-.1,3.288,3.288,0,0,1,.719-.023l1.958.037a24.539,24.539,0,0,1,2.908.235,8.687,8.687,0,0,1,3.385,1.2,10.752,10.752,0,0,1,4.058,5,9.526,9.526,0,0,1,.541,1.895,2.729,2.729,0,0,1,.071.719" transform="translate(-172.205 -126.453)" fill="#1a2e35"/>
        <path id="Trazado_720216" data-name="Trazado 720216" d="M395.715,298.34s5.831-8.833,7.321-9.99,14.219-6.9,15.71-5.98.573,2.929.573,2.929,5.389-1.888,5.963-1.144a2.666,2.666,0,0,1,0,3.038s2.981-.458,2.981.459a3.775,3.775,0,0,1-1.72,3.1c-1.375,1.032-10.323,6.989-11.041,8.634l-2.9-.176Z" transform="translate(-161.037 -114.87)" fill="#c78976"/>
        <path id="Trazado_720217" data-name="Trazado 720217" d="M424.013,299.218a2.108,2.108,0,0,1,.266-.556,10.369,10.369,0,0,1,.958-1.381,16.056,16.056,0,0,1,4.23-3.561,31.923,31.923,0,0,1,5-2.351c.66-.251,1.2-.442,1.573-.567a2.382,2.382,0,0,1,.593-.165,2.365,2.365,0,0,1-.549.277l-1.535.657a40.514,40.514,0,0,0-4.925,2.413,17.713,17.713,0,0,0-4.222,3.437c-.924,1.053-1.343,1.825-1.391,1.8" transform="translate(-172.552 -118.274)" fill="#bf654e"/>
        <path id="Trazado_720218" data-name="Trazado 720218" d="M411.538,297.669a3.118,3.118,0,0,1,.283-.649c.2-.408.5-1,.9-1.707a16.293,16.293,0,0,1,1.608-2.38,7.5,7.5,0,0,1,1.222-1.21c.492-.332,1.01-.643,1.545-.961a42.6,42.6,0,0,1,5.694-2.84,16.707,16.707,0,0,1,1.832-.613,3.108,3.108,0,0,1,.7-.125c.012.052-.967.279-2.447.94a54.131,54.131,0,0,0-5.62,2.9c-.531.315-1.051.626-1.53.945a7.575,7.575,0,0,0-1.176,1.145,18,18,0,0,0-1.637,2.307l-.979,1.653a3.117,3.117,0,0,1-.388.592" transform="translate(-167.475 -116.868)" fill="#bf654e"/>
        <path id="Trazado_720219" data-name="Trazado 720219" d="M399.667,406.65c0,.085-89.475.154-199.824.154C89.457,406.8,0,406.736,0,406.65s89.457-.154,199.843-.154c110.348,0,199.824.069,199.824.154" transform="translate(0 -165.424)" fill="#1a2e35"/>
      </g>
    </g>
  </g>
</svg>
