<svg id="Grupo_1008218" data-name="Grupo 1008218" xmlns="http://www.w3.org/2000/svg" xmlns:xlink="http://www.w3.org/1999/xlink" width="169.914" height="183.303" viewBox="0 0 169.914 183.303">
  <defs>
    <clipPath id="clip-path">
      <rect id="Rectángulo_350857" data-name="Rectángulo 350857" width="169.914" height="183.303" fill="none"/>
    </clipPath>
    <clipPath id="clip-path-3">
      <rect id="Rectángulo_350711" data-name="Rectángulo 350711" width="43.833" height="41.738" transform="translate(106.371 22.893)" fill="none"/>
    </clipPath>
    <clipPath id="clip-path-4">
      <rect id="Rectángulo_350769" data-name="Rectángulo 350769" width="80.485" height="96.906" transform="translate(36.177 63.083)" fill="none"/>
    </clipPath>
    <clipPath id="clip-path-5">
      <rect id="Rectángulo_350799" data-name="Rectángulo 350799" width="88.847" height="53.683" transform="translate(4.589 107.897)" fill="none"/>
    </clipPath>
  </defs>
  <g id="Grupo_1008217" data-name="Grupo 1008217" clip-path="url(#clip-path)">
    <path id="Trazado_719914" data-name="Trazado 719914" d="M45.946.079V59.517h62.762V.079Z" fill="#f5cb95"/>
    <path id="Trazado_719915" data-name="Trazado 719915" d="M45.946,59.517h62.762L45.946.079Z" fill="#d1ad7f"/>
    <rect id="Rectángulo_350649" data-name="Rectángulo 350649" width="9.583" height="18.054" transform="translate(72.512)" fill="#9c805f"/>
    <rect id="Rectángulo_350650" data-name="Rectángulo 350650" width="17.971" height="16.711" transform="translate(50.42 6.766)" fill="#ebebeb"/>
    <rect id="Rectángulo_350651" data-name="Rectángulo 350651" width="13.676" height="1.546" transform="translate(52.17 8.877)" fill="#9e9e9e"/>
    <rect id="Rectángulo_350652" data-name="Rectángulo 350652" width="13.676" height="1.546" transform="translate(52.17 12.985)" fill="#9e9e9e"/>
    <rect id="Rectángulo_350653" data-name="Rectángulo 350653" width="13.676" height="1.546" transform="translate(52.17 17.092)" fill="#9e9e9e"/>
    <rect id="Rectángulo_350654" data-name="Rectángulo 350654" width="7.77" height="1.546" transform="translate(52.17 19.338)" fill="#9e9e9e"/>
    <rect id="Rectángulo_350655" data-name="Rectángulo 350655" width="25.41" height="2.039" transform="translate(77.345 42.92)" fill="#9c8469"/>
    <rect id="Rectángulo_350656" data-name="Rectángulo 350656" width="25.41" height="2.04" transform="translate(77.345 49.839)" fill="#9c8469"/>
    <rect id="Rectángulo_350657" data-name="Rectángulo 350657" width="25.41" height="2.04" transform="translate(77.345 53.367)" fill="#9c8469"/>
    <rect id="Rectángulo_350658" data-name="Rectángulo 350658" width="12.705" height="2.04" transform="translate(77.346 46.448)" fill="#9c8469"/>
    <rect id="Rectángulo_350659" data-name="Rectángulo 350659" width="17.971" height="7.958" transform="translate(50.42 26.505)" fill="#ebebeb"/>
    <rect id="Rectángulo_350660" data-name="Rectángulo 350660" width="0.441" height="3.709" transform="translate(57.002 27.87)" fill="#424242"/>
    <rect id="Rectángulo_350661" data-name="Rectángulo 350661" width="0.441" height="3.709" transform="translate(52.65 27.87)" fill="#424242"/>
    <rect id="Rectángulo_350662" data-name="Rectángulo 350662" width="0.44" height="3.709" transform="translate(62.925 27.87)" fill="#424242"/>
    <rect id="Rectángulo_350663" data-name="Rectángulo 350663" width="0.44" height="3.709" transform="translate(64.057 27.87)" fill="#424242"/>
    <rect id="Rectángulo_350664" data-name="Rectángulo 350664" width="0.71" height="3.709" transform="translate(51.176 27.87)" fill="#424242"/>
    <rect id="Rectángulo_350665" data-name="Rectángulo 350665" width="0.709" height="3.709" transform="translate(55.791 27.87)" fill="#424242"/>
    <rect id="Rectángulo_350666" data-name="Rectángulo 350666" width="0.171" height="3.709" transform="translate(58.57 27.87)" fill="#424242"/>
    <rect id="Rectángulo_350667" data-name="Rectángulo 350667" width="0.171" height="3.709" transform="translate(54.364 27.87)" fill="#424242"/>
    <rect id="Rectángulo_350668" data-name="Rectángulo 350668" width="0.171" height="3.709" transform="translate(59.297 27.87)" fill="#424242"/>
    <rect id="Rectángulo_350669" data-name="Rectángulo 350669" width="0.171" height="3.709" transform="translate(59.94 27.87)" fill="#424242"/>
    <rect id="Rectángulo_350670" data-name="Rectángulo 350670" width="0.171" height="3.709" transform="translate(53.728 27.87)" fill="#424242"/>
    <rect id="Rectángulo_350671" data-name="Rectángulo 350671" width="0.171" height="3.709" transform="translate(62.071 27.87)" fill="#424242"/>
    <rect id="Rectángulo_350672" data-name="Rectángulo 350672" width="0.171" height="3.709" transform="translate(65.116 27.87)" fill="#424242"/>
    <rect id="Rectángulo_350673" data-name="Rectángulo 350673" width="0.221" height="3.709" transform="translate(57.862 27.87)" fill="#424242"/>
    <rect id="Rectángulo_350674" data-name="Rectángulo 350674" width="0.221" height="3.709" transform="translate(55.036 27.87)" fill="#424242"/>
    <rect id="Rectángulo_350675" data-name="Rectángulo 350675" width="0.71" height="3.709" transform="translate(60.672 27.87)" fill="#424242"/>
    <rect id="Rectángulo_350676" data-name="Rectángulo 350676" width="0.71" height="3.709" transform="translate(66.129 27.87)" fill="#424242"/>
    <path id="Trazado_719916" data-name="Trazado 719916" d="M80.92,106.422H12.883V41.99H80.921v64.432Z" fill="#f5cb95"/>
    <path id="Trazado_719917" data-name="Trazado 719917" d="M80.92,106.422H12.883V41.99Z" fill="#d1ad7f"/>
    <rect id="Rectángulo_350677" data-name="Rectángulo 350677" width="10.388" height="19.571" transform="translate(41.682 41.904)" fill="#9c805f"/>
    <rect id="Rectángulo_350678" data-name="Rectángulo 350678" width="27.545" height="2.211" transform="translate(46.922 88.43)" fill="#9c8469"/>
    <rect id="Rectángulo_350679" data-name="Rectángulo 350679" width="27.545" height="2.212" transform="translate(46.922 95.931)" fill="#9c8469"/>
    <rect id="Rectángulo_350680" data-name="Rectángulo 350680" width="27.545" height="2.212" transform="translate(46.922 99.756)" fill="#9c8469"/>
    <rect id="Rectángulo_350681" data-name="Rectángulo 350681" width="13.773" height="2.211" transform="translate(46.922 92.256)" fill="#9c8469"/>
    <rect id="Rectángulo_350682" data-name="Rectángulo 350682" width="19.481" height="8.627" transform="translate(17.734 48.435)" fill="#ebebeb"/>
    <rect id="Rectángulo_350683" data-name="Rectángulo 350683" width="0.478" height="4.02" transform="translate(24.869 49.915)" fill="#424242"/>
    <rect id="Rectángulo_350684" data-name="Rectángulo 350684" width="0.477" height="4.02" transform="translate(20.151 49.915)" fill="#424242"/>
    <rect id="Rectángulo_350685" data-name="Rectángulo 350685" width="0.477" height="4.02" transform="translate(31.289 49.915)" fill="#424242"/>
    <rect id="Rectángulo_350686" data-name="Rectángulo 350686" width="0.477" height="4.02" transform="translate(32.517 49.915)" fill="#424242"/>
    <rect id="Rectángulo_350687" data-name="Rectángulo 350687" width="0.77" height="4.02" transform="translate(18.553 49.915)" fill="#424242"/>
    <rect id="Rectángulo_350688" data-name="Rectángulo 350688" width="0.77" height="4.02" transform="translate(23.555 49.915)" fill="#424242"/>
    <rect id="Rectángulo_350689" data-name="Rectángulo 350689" width="0.185" height="4.02" transform="translate(26.568 49.915)" fill="#424242"/>
    <rect id="Rectángulo_350690" data-name="Rectángulo 350690" width="0.185" height="4.02" transform="translate(22.009 49.915)" fill="#424242"/>
    <rect id="Rectángulo_350691" data-name="Rectángulo 350691" width="0.185" height="4.02" transform="translate(27.356 49.915)" fill="#424242"/>
    <rect id="Rectángulo_350692" data-name="Rectángulo 350692" width="0.185" height="4.02" transform="translate(28.053 49.915)" fill="#424242"/>
    <rect id="Rectángulo_350693" data-name="Rectángulo 350693" width="0.186" height="4.02" transform="translate(21.319 49.915)" fill="#424242"/>
    <rect id="Rectángulo_350694" data-name="Rectángulo 350694" width="0.186" height="4.02" transform="translate(30.363 49.915)" fill="#424242"/>
    <rect id="Rectángulo_350695" data-name="Rectángulo 350695" width="0.185" height="4.02" transform="translate(33.665 49.915)" fill="#424242"/>
    <rect id="Rectángulo_350696" data-name="Rectángulo 350696" width="0.239" height="4.02" transform="translate(25.8 49.915)" fill="#424242"/>
    <rect id="Rectángulo_350697" data-name="Rectángulo 350697" width="0.238" height="4.02" transform="translate(22.737 49.915)" fill="#424242"/>
    <rect id="Rectángulo_350698" data-name="Rectángulo 350698" width="0.77" height="4.02" transform="translate(28.847 49.915)" fill="#424242"/>
    <rect id="Rectángulo_350699" data-name="Rectángulo 350699" width="0.77" height="4.02" transform="translate(34.763 49.915)" fill="#424242"/>
    <rect id="Rectángulo_350700" data-name="Rectángulo 350700" width="169.914" height="2.767" transform="translate(0 180.536)" fill="#a17a3c"/>
    <rect id="Rectángulo_350701" data-name="Rectángulo 350701" width="169.914" height="2.766" transform="translate(0 163.48)" fill="#a17a3c"/>
    <rect id="Rectángulo_350702" data-name="Rectángulo 350702" width="9.875" height="14.29" transform="translate(2.586 166.246)" fill="#a17a3c"/>
    <rect id="Rectángulo_350703" data-name="Rectángulo 350703" width="9.875" height="1.699" transform="translate(2.586 178.838)" fill="#876632"/>
    <rect id="Rectángulo_350704" data-name="Rectángulo 350704" width="9.875" height="7.145" transform="translate(2.586 166.246)" fill="#806130"/>
    <rect id="Rectángulo_350705" data-name="Rectángulo 350705" width="9.875" height="14.29" transform="translate(156.121 166.246)" fill="#a17a3c"/>
    <rect id="Rectángulo_350706" data-name="Rectángulo 350706" width="9.875" height="7.145" transform="translate(156.121 166.246)" fill="#806130"/>
    <rect id="Rectángulo_350707" data-name="Rectángulo 350707" width="9.875" height="14.29" transform="translate(80.02 166.246)" fill="#a17a3c"/>
    <rect id="Rectángulo_350708" data-name="Rectángulo 350708" width="9.875" height="7.145" transform="translate(80.02 166.246)" fill="#806130"/>
    <rect id="Rectángulo_350709" data-name="Rectángulo 350709" width="9.875" height="1.699" transform="translate(80.02 178.838)" fill="#876632"/>
    <rect id="Rectángulo_350710" data-name="Rectángulo 350710" width="9.875" height="1.699" transform="translate(156.121 178.838)" fill="#876632"/>
    <path id="Trazado_719918" data-name="Trazado 719918" d="M150.2,64.631H106.372V22.893H150.2V64.631Z" fill="#ff9040"/>
    <g id="Grupo_1008216" data-name="Grupo 1008216">
      <g id="Grupo_1008215" data-name="Grupo 1008215" clip-path="url(#clip-path)">
        <path id="Trazado_719919" data-name="Trazado 719919" d="M148.109,62.11H108.465V25.415H148.11V62.11h0" fill="#ab602a"/>
        <g id="Grupo_1008208" data-name="Grupo 1008208" opacity="0.2">
          <g id="Grupo_1008207" data-name="Grupo 1008207">
            <g id="Grupo_1008206" data-name="Grupo 1008206" clip-path="url(#clip-path-3)">
              <path id="Trazado_719920" data-name="Trazado 719920" d="M150.2,64.631H106.371V22.893l2.092,2.519v2.524L148.11,60.264l-.066,1.9Z"/>
            </g>
          </g>
        </g>
        <rect id="Rectángulo_350712" data-name="Rectángulo 350712" width="20.29" height="13.4" transform="translate(110.534 29.447)" fill="#ebebeb"/>
        <rect id="Rectángulo_350713" data-name="Rectángulo 350713" width="15.441" height="1.239" transform="translate(112.509 31.141)" fill="#9e9e9e"/>
        <rect id="Rectángulo_350714" data-name="Rectángulo 350714" width="15.441" height="1.239" transform="translate(112.509 34.435)" fill="#9e9e9e"/>
        <rect id="Rectángulo_350715" data-name="Rectángulo 350715" width="15.441" height="1.24" transform="translate(112.509 37.728)" fill="#9e9e9e"/>
        <rect id="Rectángulo_350716" data-name="Rectángulo 350716" width="8.773" height="1.239" transform="translate(112.508 39.53)" fill="#9e9e9e"/>
        <rect id="Rectángulo_350717" data-name="Rectángulo 350717" width="9.181" height="1.335" transform="translate(133.907 49.771)" fill="#401818"/>
        <rect id="Rectángulo_350718" data-name="Rectángulo 350718" width="9.181" height="1.336" transform="translate(133.907 54.3)" fill="#401818"/>
        <rect id="Rectángulo_350719" data-name="Rectángulo 350719" width="9.181" height="1.336" transform="translate(133.907 56.611)" fill="#401818"/>
        <rect id="Rectángulo_350720" data-name="Rectángulo 350720" width="12.144" height="1.336" transform="translate(133.907 52.08)" fill="#401818"/>
        <rect id="Rectángulo_350721" data-name="Rectángulo 350721" width="18.885" height="8.363" transform="translate(110.533 47.041)" fill="#ebebeb"/>
        <rect id="Rectángulo_350722" data-name="Rectángulo 350722" width="0.463" height="3.898" transform="translate(117.45 48.475)" fill="#424242"/>
        <rect id="Rectángulo_350723" data-name="Rectángulo 350723" width="0.463" height="3.898" transform="translate(112.876 48.475)" fill="#424242"/>
        <rect id="Rectángulo_350724" data-name="Rectángulo 350724" width="0.463" height="3.898" transform="translate(123.674 48.475)" fill="#424242"/>
        <rect id="Rectángulo_350725" data-name="Rectángulo 350725" width="0.463" height="3.898" transform="translate(124.864 48.475)" fill="#424242"/>
        <rect id="Rectángulo_350726" data-name="Rectángulo 350726" width="0.746" height="3.898" transform="translate(111.327 48.475)" fill="#424242"/>
        <rect id="Rectángulo_350727" data-name="Rectángulo 350727" width="0.746" height="3.898" transform="translate(116.176 48.475)" fill="#424242"/>
        <rect id="Rectángulo_350728" data-name="Rectángulo 350728" width="0.18" height="3.898" transform="translate(119.097 48.475)" fill="#424242"/>
        <rect id="Rectángulo_350729" data-name="Rectángulo 350729" width="0.18" height="3.898" transform="translate(114.677 48.475)" fill="#424242"/>
        <rect id="Rectángulo_350730" data-name="Rectángulo 350730" width="0.18" height="3.898" transform="translate(119.861 48.475)" fill="#424242"/>
        <rect id="Rectángulo_350731" data-name="Rectángulo 350731" width="0.18" height="3.898" transform="translate(120.537 48.475)" fill="#424242"/>
        <rect id="Rectángulo_350732" data-name="Rectángulo 350732" width="0.18" height="3.898" transform="translate(114.009 48.475)" fill="#424242"/>
        <rect id="Rectángulo_350733" data-name="Rectángulo 350733" width="0.18" height="3.898" transform="translate(122.777 48.475)" fill="#424242"/>
        <rect id="Rectángulo_350734" data-name="Rectángulo 350734" width="0.18" height="3.898" transform="translate(125.976 48.475)" fill="#424242"/>
        <rect id="Rectángulo_350735" data-name="Rectángulo 350735" width="0.232" height="3.898" transform="translate(118.353 48.475)" fill="#424242"/>
        <rect id="Rectángulo_350736" data-name="Rectángulo 350736" width="0.231" height="3.898" transform="translate(115.384 48.475)" fill="#424242"/>
        <rect id="Rectángulo_350737" data-name="Rectángulo 350737" width="0.746" height="3.898" transform="translate(121.306 48.475)" fill="#424242"/>
        <rect id="Rectángulo_350738" data-name="Rectángulo 350738" width="0.746" height="3.898" transform="translate(127.041 48.475)" fill="#424242"/>
        <rect id="Rectángulo_350739" data-name="Rectángulo 350739" width="45.192" height="1.942" transform="translate(105.794 20.951)" fill="#404040"/>
        <rect id="Rectángulo_350740" data-name="Rectángulo 350740" width="45.192" height="1.942" transform="translate(105.794 64.631)" fill="#404040"/>
        <path id="Trazado_719921" data-name="Trazado 719921" d="M161.534,163.48h-56.45V66.574h56.451v96.906Z" fill="#f5cb95"/>
        <path id="Trazado_719922" data-name="Trazado 719922" d="M161.535,163.479H105.083V66.573Z" fill="#bd9c73"/>
        <rect id="Rectángulo_350741" data-name="Rectángulo 350741" width="11.519" height="21.703" transform="translate(127.55 66.478)" fill="#9c805f"/>
        <rect id="Rectángulo_350742" data-name="Rectángulo 350742" width="13.177" height="20.089" transform="translate(143.38 73.294)" fill="#ebebeb"/>
        <rect id="Rectángulo_350743" data-name="Rectángulo 350743" width="10.027" height="1.858" transform="translate(144.663 75.834)" fill="#9e9e9e"/>
        <rect id="Rectángulo_350744" data-name="Rectángulo 350744" width="10.027" height="1.858" transform="translate(144.663 80.771)" fill="#9e9e9e"/>
        <rect id="Rectángulo_350745" data-name="Rectángulo 350745" width="10.027" height="1.858" transform="translate(144.663 85.709)" fill="#9e9e9e"/>
        <rect id="Rectángulo_350746" data-name="Rectángulo 350746" width="5.697" height="1.858" transform="translate(144.663 88.409)" fill="#9e9e9e"/>
        <rect id="Rectángulo_350747" data-name="Rectángulo 350747" width="11.547" height="2.452" transform="translate(142.831 143.528)" fill="#9c8469"/>
        <rect id="Rectángulo_350748" data-name="Rectángulo 350748" width="11.547" height="2.453" transform="translate(142.831 151.845)" fill="#9c8469"/>
        <rect id="Rectángulo_350749" data-name="Rectángulo 350749" width="11.547" height="2.453" transform="translate(142.831 156.087)" fill="#9c8469"/>
        <rect id="Rectángulo_350750" data-name="Rectángulo 350750" width="15.274" height="2.452" transform="translate(142.831 147.77)" fill="#9c8469"/>
        <rect id="Rectángulo_350751" data-name="Rectángulo 350751" width="21.604" height="9.567" transform="translate(108.103 91.932)" fill="#ebebeb"/>
        <rect id="Rectángulo_350752" data-name="Rectángulo 350752" width="0.53" height="4.459" transform="translate(116.015 93.573)" fill="#424242"/>
        <rect id="Rectángulo_350753" data-name="Rectángulo 350753" width="0.53" height="4.459" transform="translate(110.783 93.573)" fill="#424242"/>
        <rect id="Rectángulo_350754" data-name="Rectángulo 350754" width="0.53" height="4.459" transform="translate(123.135 93.573)" fill="#424242"/>
        <rect id="Rectángulo_350755" data-name="Rectángulo 350755" width="0.53" height="4.459" transform="translate(124.496 93.573)" fill="#424242"/>
        <rect id="Rectángulo_350756" data-name="Rectángulo 350756" width="0.853" height="4.459" transform="translate(109.012 93.573)" fill="#424242"/>
        <rect id="Rectángulo_350757" data-name="Rectángulo 350757" width="0.853" height="4.459" transform="translate(114.559 93.573)" fill="#424242"/>
        <rect id="Rectángulo_350758" data-name="Rectángulo 350758" width="0.206" height="4.459" transform="translate(117.9 93.573)" fill="#424242"/>
        <rect id="Rectángulo_350759" data-name="Rectángulo 350759" width="0.206" height="4.459" transform="translate(112.843 93.573)" fill="#424242"/>
        <rect id="Rectángulo_350760" data-name="Rectángulo 350760" width="0.206" height="4.459" transform="translate(118.774 93.573)" fill="#424242"/>
        <rect id="Rectángulo_350761" data-name="Rectángulo 350761" width="0.206" height="4.459" transform="translate(119.547 93.573)" fill="#424242"/>
        <rect id="Rectángulo_350762" data-name="Rectángulo 350762" width="0.206" height="4.459" transform="translate(112.079 93.573)" fill="#424242"/>
        <rect id="Rectángulo_350763" data-name="Rectángulo 350763" width="0.206" height="4.459" transform="translate(122.109 93.573)" fill="#424242"/>
        <rect id="Rectángulo_350764" data-name="Rectángulo 350764" width="0.206" height="4.459" transform="translate(125.769 93.573)" fill="#424242"/>
        <rect id="Rectángulo_350765" data-name="Rectángulo 350765" width="0.265" height="4.459" transform="translate(117.049 93.573)" fill="#424242"/>
        <rect id="Rectángulo_350766" data-name="Rectángulo 350766" width="0.265" height="4.459" transform="translate(113.651 93.573)" fill="#424242"/>
        <rect id="Rectángulo_350767" data-name="Rectángulo 350767" width="0.853" height="4.459" transform="translate(120.427 93.573)" fill="#424242"/>
        <rect id="Rectángulo_350768" data-name="Rectángulo 350768" width="0.853" height="4.459" transform="translate(126.988 93.573)" fill="#424242"/>
        <path id="Trazado_719923" data-name="Trazado 719923" d="M116.66,159.989H36.176V63.083h80.485v96.906Z" fill="#f55b5b"/>
        <path id="Trazado_719924" data-name="Trazado 719924" d="M112.815,155.359H40.022V67.713h72.794v87.646Z" fill="#9e3b3b"/>
        <g id="Grupo_1008211" data-name="Grupo 1008211" opacity="0.2">
          <g id="Grupo_1008210" data-name="Grupo 1008210">
            <g id="Grupo_1008209" data-name="Grupo 1008209" clip-path="url(#clip-path-4)">
              <path id="Trazado_719925" data-name="Trazado 719925" d="M116.661,159.989H36.176V63.083l3.841,4.625,0,4.635,72.795,79.627-.121,3.484Z"/>
            </g>
          </g>
        </g>
        <rect id="Rectángulo_350770" data-name="Rectángulo 350770" width="30.419" height="20.089" transform="translate(76.419 73.103)" fill="#ebebeb"/>
        <rect id="Rectángulo_350771" data-name="Rectángulo 350771" width="23.149" height="1.858" transform="translate(79.379 75.642)" fill="#9e9e9e"/>
        <rect id="Rectángulo_350772" data-name="Rectángulo 350772" width="23.149" height="1.858" transform="translate(79.379 80.58)" fill="#9e9e9e"/>
        <rect id="Rectángulo_350773" data-name="Rectángulo 350773" width="23.149" height="1.858" transform="translate(79.379 85.517)" fill="#9e9e9e"/>
        <rect id="Rectángulo_350774" data-name="Rectángulo 350774" width="13.152" height="1.858" transform="translate(79.38 88.217)" fill="#9e9e9e"/>
        <rect id="Rectángulo_350775" data-name="Rectángulo 350775" width="16.859" height="2.452" transform="translate(84.154 135.565)" fill="#401818"/>
        <rect id="Rectángulo_350776" data-name="Rectángulo 350776" width="16.859" height="2.453" transform="translate(84.154 143.882)" fill="#401818"/>
        <rect id="Rectángulo_350777" data-name="Rectángulo 350777" width="16.859" height="2.453" transform="translate(84.154 148.124)" fill="#401818"/>
        <rect id="Rectángulo_350778" data-name="Rectángulo 350778" width="22.299" height="2.452" transform="translate(84.154 139.807)" fill="#401818"/>
        <rect id="Rectángulo_350779" data-name="Rectángulo 350779" width="21.603" height="9.567" transform="translate(76.419 94.982)" fill="#ebebeb"/>
        <rect id="Rectángulo_350780" data-name="Rectángulo 350780" width="0.53" height="4.459" transform="translate(84.331 96.623)" fill="#424242"/>
        <rect id="Rectángulo_350781" data-name="Rectángulo 350781" width="0.53" height="4.459" transform="translate(79.098 96.623)" fill="#424242"/>
        <rect id="Rectángulo_350782" data-name="Rectángulo 350782" width="0.53" height="4.459" transform="translate(91.451 96.623)" fill="#424242"/>
        <rect id="Rectángulo_350783" data-name="Rectángulo 350783" width="0.53" height="4.459" transform="translate(92.812 96.623)" fill="#424242"/>
        <rect id="Rectángulo_350784" data-name="Rectángulo 350784" width="0.853" height="4.459" transform="translate(77.327 96.623)" fill="#424242"/>
        <rect id="Rectángulo_350785" data-name="Rectángulo 350785" width="0.853" height="4.459" transform="translate(82.875 96.623)" fill="#424242"/>
        <rect id="Rectángulo_350786" data-name="Rectángulo 350786" width="0.206" height="4.459" transform="translate(86.215 96.623)" fill="#424242"/>
        <rect id="Rectángulo_350787" data-name="Rectángulo 350787" width="0.206" height="4.459" transform="translate(81.159 96.623)" fill="#424242"/>
        <rect id="Rectángulo_350788" data-name="Rectángulo 350788" width="0.206" height="4.459" transform="translate(87.09 96.623)" fill="#424242"/>
        <rect id="Rectángulo_350789" data-name="Rectángulo 350789" width="0.206" height="4.459" transform="translate(87.862 96.623)" fill="#424242"/>
        <rect id="Rectángulo_350790" data-name="Rectángulo 350790" width="0.206" height="4.459" transform="translate(80.395 96.623)" fill="#424242"/>
        <rect id="Rectángulo_350791" data-name="Rectángulo 350791" width="0.206" height="4.459" transform="translate(90.424 96.623)" fill="#424242"/>
        <rect id="Rectángulo_350792" data-name="Rectángulo 350792" width="0.206" height="4.459" transform="translate(94.085 96.623)" fill="#424242"/>
        <rect id="Rectángulo_350793" data-name="Rectángulo 350793" width="0.265" height="4.459" transform="translate(85.364 96.623)" fill="#424242"/>
        <rect id="Rectángulo_350794" data-name="Rectángulo 350794" width="0.265" height="4.459" transform="translate(81.967 96.623)" fill="#424242"/>
        <rect id="Rectángulo_350795" data-name="Rectángulo 350795" width="0.853" height="4.459" transform="translate(88.743 96.623)" fill="#424242"/>
        <rect id="Rectángulo_350796" data-name="Rectángulo 350796" width="0.853" height="4.459" transform="translate(95.304 96.623)" fill="#424242"/>
        <rect id="Rectángulo_350797" data-name="Rectángulo 350797" width="82.981" height="3.566" transform="translate(35.116 59.517)" fill="#404040"/>
        <rect id="Rectángulo_350798" data-name="Rectángulo 350798" width="82.981" height="3.566" transform="translate(35.116 159.989)" fill="#404040"/>
        <path id="Trazado_719926" data-name="Trazado 719926" d="M93.435,161.58H4.589V107.9H93.436V161.58Z" fill="#b7f567"/>
        <path id="Trazado_719927" data-name="Trazado 719927" d="M89.19,159.015H8.834V110.462H89.191v48.553Z" fill="#739e3a"/>
        <g id="Grupo_1008214" data-name="Grupo 1008214" opacity="0.2">
          <g id="Grupo_1008213" data-name="Grupo 1008213">
            <g id="Grupo_1008212" data-name="Grupo 1008212" clip-path="url(#clip-path-5)">
              <path id="Trazado_719928" data-name="Trazado 719928" d="M93.436,161.579H4.589V107.9l4.24,2.562,0,2.567,80.357,44.111-.133,1.929Z"/>
            </g>
          </g>
        </g>
        <rect id="Rectángulo_350800" data-name="Rectángulo 350800" width="30.419" height="16.093" transform="translate(56.407 112.906)" fill="#ebebeb"/>
        <rect id="Rectángulo_350801" data-name="Rectángulo 350801" width="23.149" height="1.858" transform="translate(59.367 116.398)" fill="#9e9e9e"/>
        <rect id="Rectángulo_350802" data-name="Rectángulo 350802" width="23.149" height="1.858" transform="translate(59.367 119.622)" fill="#9e9e9e"/>
        <rect id="Rectángulo_350803" data-name="Rectángulo 350803" width="13.152" height="1.858" transform="translate(59.368 122.918)" fill="#9e9e9e"/>
        <rect id="Rectángulo_350804" data-name="Rectángulo 350804" width="18.61" height="1.358" transform="translate(57.551 148.05)" fill="#425c22"/>
        <rect id="Rectángulo_350805" data-name="Rectángulo 350805" width="18.61" height="1.359" transform="translate(57.551 152.657)" fill="#425c22"/>
        <rect id="Rectángulo_350806" data-name="Rectángulo 350806" width="18.61" height="1.359" transform="translate(57.551 155.007)" fill="#425c22"/>
        <rect id="Rectángulo_350807" data-name="Rectángulo 350807" width="24.616" height="1.358" transform="translate(57.551 150.4)" fill="#425c22"/>
        <rect id="Rectángulo_350808" data-name="Rectángulo 350808" width="21.603" height="9.567" transform="translate(31.56 113.23)" fill="#ebebeb"/>
        <rect id="Rectángulo_350809" data-name="Rectángulo 350809" width="0.53" height="4.459" transform="translate(39.472 114.871)" fill="#424242"/>
        <rect id="Rectángulo_350810" data-name="Rectángulo 350810" width="0.53" height="4.459" transform="translate(34.239 114.871)" fill="#424242"/>
        <rect id="Rectángulo_350811" data-name="Rectángulo 350811" width="0.53" height="4.459" transform="translate(46.591 114.871)" fill="#424242"/>
        <rect id="Rectángulo_350812" data-name="Rectángulo 350812" width="0.53" height="4.459" transform="translate(47.953 114.871)" fill="#424242"/>
        <rect id="Rectángulo_350813" data-name="Rectángulo 350813" width="0.853" height="4.459" transform="translate(32.468 114.871)" fill="#424242"/>
        <rect id="Rectángulo_350814" data-name="Rectángulo 350814" width="0.853" height="4.459" transform="translate(38.015 114.871)" fill="#424242"/>
        <rect id="Rectángulo_350815" data-name="Rectángulo 350815" width="0.206" height="4.459" transform="translate(41.356 114.871)" fill="#424242"/>
        <rect id="Rectángulo_350816" data-name="Rectángulo 350816" width="0.206" height="4.459" transform="translate(36.3 114.871)" fill="#424242"/>
        <rect id="Rectángulo_350817" data-name="Rectángulo 350817" width="0.206" height="4.459" transform="translate(42.23 114.871)" fill="#424242"/>
        <rect id="Rectángulo_350818" data-name="Rectángulo 350818" width="0.206" height="4.459" transform="translate(43.003 114.871)" fill="#424242"/>
        <rect id="Rectángulo_350819" data-name="Rectángulo 350819" width="0.206" height="4.459" transform="translate(35.536 114.871)" fill="#424242"/>
        <rect id="Rectángulo_350820" data-name="Rectángulo 350820" width="0.206" height="4.459" transform="translate(45.565 114.871)" fill="#424242"/>
        <rect id="Rectángulo_350821" data-name="Rectángulo 350821" width="0.206" height="4.459" transform="translate(49.226 114.871)" fill="#424242"/>
        <rect id="Rectángulo_350822" data-name="Rectángulo 350822" width="0.265" height="4.459" transform="translate(40.505 114.871)" fill="#424242"/>
        <rect id="Rectángulo_350823" data-name="Rectángulo 350823" width="0.265" height="4.459" transform="translate(37.107 114.871)" fill="#424242"/>
        <rect id="Rectángulo_350824" data-name="Rectángulo 350824" width="0.853" height="4.459" transform="translate(43.883 114.871)" fill="#424242"/>
        <rect id="Rectángulo_350825" data-name="Rectángulo 350825" width="0.853" height="4.459" transform="translate(50.444 114.871)" fill="#424242"/>
        <rect id="Rectángulo_350826" data-name="Rectángulo 350826" width="91.603" height="1.975" transform="translate(3.418 105.922)" fill="#404040"/>
        <rect id="Rectángulo_350827" data-name="Rectángulo 350827" width="91.603" height="1.975" transform="translate(3.418 161.58)" fill="#404040"/>
        <path id="Trazado_719929" data-name="Trazado 719929" d="M127.728,163.555H76.606V115.141h51.123v48.414Z" fill="#f5cb95"/>
        <path id="Trazado_719930" data-name="Trazado 719930" d="M127.729,163.555H76.607V115.141Z" fill="#d1ad7f"/>
        <rect id="Rectángulo_350828" data-name="Rectángulo 350828" width="7.805" height="14.705" transform="translate(98.246 115.077)" fill="#9c805f"/>
        <rect id="Rectángulo_350829" data-name="Rectángulo 350829" width="14.638" height="13.612" transform="translate(80.251 120.587)" fill="#ebebeb"/>
        <rect id="Rectángulo_350830" data-name="Rectángulo 350830" width="11.139" height="1.259" transform="translate(81.676 122.308)" fill="#9e9e9e"/>
        <rect id="Rectángulo_350831" data-name="Rectángulo 350831" width="11.139" height="1.259" transform="translate(81.676 125.653)" fill="#9e9e9e"/>
        <rect id="Rectángulo_350832" data-name="Rectángulo 350832" width="11.139" height="1.259" transform="translate(81.676 128.999)" fill="#9e9e9e"/>
        <rect id="Rectángulo_350833" data-name="Rectángulo 350833" width="6.329" height="1.259" transform="translate(81.676 130.828)" fill="#9e9e9e"/>
        <rect id="Rectángulo_350834" data-name="Rectángulo 350834" width="20.697" height="1.661" transform="translate(102.183 150.036)" fill="#9c8469"/>
        <rect id="Rectángulo_350835" data-name="Rectángulo 350835" width="20.697" height="1.662" transform="translate(102.183 155.672)" fill="#9c8469"/>
        <rect id="Rectángulo_350836" data-name="Rectángulo 350836" width="20.697" height="1.662" transform="translate(102.183 158.546)" fill="#9c8469"/>
        <rect id="Rectángulo_350837" data-name="Rectángulo 350837" width="10.349" height="1.661" transform="translate(102.183 152.91)" fill="#9c8469"/>
        <rect id="Rectángulo_350838" data-name="Rectángulo 350838" width="14.638" height="6.482" transform="translate(80.251 136.666)" fill="#ebebeb"/>
        <rect id="Rectángulo_350839" data-name="Rectángulo 350839" width="0.359" height="3.021" transform="translate(85.612 137.778)" fill="#424242"/>
        <rect id="Rectángulo_350840" data-name="Rectángulo 350840" width="0.359" height="3.021" transform="translate(82.067 137.778)" fill="#424242"/>
        <rect id="Rectángulo_350841" data-name="Rectángulo 350841" width="0.359" height="3.021" transform="translate(90.437 137.778)" fill="#424242"/>
        <rect id="Rectángulo_350842" data-name="Rectángulo 350842" width="0.359" height="3.021" transform="translate(91.359 137.778)" fill="#424242"/>
        <rect id="Rectángulo_350843" data-name="Rectángulo 350843" width="0.578" height="3.021" transform="translate(80.867 137.778)" fill="#424242"/>
        <rect id="Rectángulo_350844" data-name="Rectángulo 350844" width="0.578" height="3.021" transform="translate(84.626 137.778)" fill="#424242"/>
        <rect id="Rectángulo_350845" data-name="Rectángulo 350845" width="0.14" height="3.021" transform="translate(86.889 137.778)" fill="#424242"/>
        <rect id="Rectángulo_350846" data-name="Rectángulo 350846" width="0.14" height="3.021" transform="translate(83.463 137.778)" fill="#424242"/>
        <rect id="Rectángulo_350847" data-name="Rectángulo 350847" width="0.14" height="3.021" transform="translate(87.481 137.778)" fill="#424242"/>
        <rect id="Rectángulo_350848" data-name="Rectángulo 350848" width="0.14" height="3.021" transform="translate(88.005 137.778)" fill="#424242"/>
        <rect id="Rectángulo_350849" data-name="Rectángulo 350849" width="0.14" height="3.021" transform="translate(82.945 137.778)" fill="#424242"/>
        <rect id="Rectángulo_350850" data-name="Rectángulo 350850" width="0.14" height="3.021" transform="translate(89.741 137.778)" fill="#424242"/>
        <rect id="Rectángulo_350851" data-name="Rectángulo 350851" width="0.139" height="3.021" transform="translate(92.222 137.778)" fill="#424242"/>
        <rect id="Rectángulo_350852" data-name="Rectángulo 350852" width="0.18" height="3.021" transform="translate(86.312 137.778)" fill="#424242"/>
        <rect id="Rectángulo_350853" data-name="Rectángulo 350853" width="0.18" height="3.021" transform="translate(84.01 137.778)" fill="#424242"/>
        <rect id="Rectángulo_350854" data-name="Rectángulo 350854" width="0.578" height="3.021" transform="translate(88.602 137.778)" fill="#424242"/>
        <rect id="Rectángulo_350855" data-name="Rectángulo 350855" width="0.578" height="3.021" transform="translate(93.047 137.778)" fill="#424242"/>
      </g>
    </g>
  </g>
</svg>
