<svg xmlns="http://www.w3.org/2000/svg" xmlns:xlink="http://www.w3.org/1999/xlink" width="112" height="104" viewBox="0 0 112 104">
  <defs>
    <clipPath id="clip-path">
      <rect id="Rect치ngulo_350901" data-name="Rect치ngulo 350901" width="104" height="104" fill="none"/>
    </clipPath>
  </defs>
  <g id="Grupo_1008283" data-name="Grupo 1008283" transform="translate(-504 -4288)">
    <rect id="Rect치ngulo_346202" data-name="Rect치ngulo 346202" width="112" height="104" transform="translate(504 4288)" fill="none"/>
    <g id="Grupo_1008274" data-name="Grupo 1008274" transform="translate(508 4288)">
      <g id="Grupo_1008273" data-name="Grupo 1008273" clip-path="url(#clip-path)">
        <path id="Trazado_720230" data-name="Trazado 720230" d="M69.179,44.06V34.1a5.6,5.6,0,0,0-5.6-5.6H40.42a5.6,5.6,0,0,0-5.6,5.6V44.06Z" fill="#ecf4f7"/>
        <path id="Trazado_720231" data-name="Trazado 720231" d="M65.732,14.772A13.732,13.732,0,1,1,52,1.04,13.733,13.733,0,0,1,65.732,14.772" fill="#fddf7f"/>
        <path id="Trazado_720232" data-name="Trazado 720232" d="M38.5,12.246H19.153a6.386,6.386,0,0,0-6.378,6.379V34.178h-5a2.668,2.668,0,0,0-2.065,4.357l7.671,9.375a2.666,2.666,0,0,0,4.129,0l7.67-9.375a2.668,2.668,0,0,0-2.064-4.357h-5V18.625a1.046,1.046,0,0,1,1.044-1.044h19.4a13.744,13.744,0,0,1-.052-5.335" fill="#81d4fa"/>
        <path id="Trazado_720233" data-name="Trazado 720233" d="M98.639,35.7a2.668,2.668,0,0,0-2.411-1.526h-5V18.625c0-3.518-2.862-6.38-7.97-6.38H65.5a13.744,13.744,0,0,1-.052,5.335h19.4a1.046,1.046,0,0,1,1.044,1.045V34.177h-5a2.668,2.668,0,0,0-2.064,4.357l7.67,9.375a2.666,2.666,0,0,0,4.129,0l7.671-9.375a2.669,2.669,0,0,0,.346-2.831" fill="#81d4fa"/>
        <path id="Trazado_720234" data-name="Trazado 720234" d="M55.07,44.06l-.74-15.555H49.669L48.93,44.06Z" fill="#81d4fa"/>
        <path id="Trazado_720235" data-name="Trazado 720235" d="M40.925,102.96V93.345a5.406,5.406,0,0,0-5.406-5.407H13.153a5.407,5.407,0,0,0-5.406,5.407v9.615Z" fill="#aab1ba"/>
        <path id="Trazado_720236" data-name="Trazado 720236" d="M37.6,74.677A13.262,13.262,0,1,1,24.337,61.416,13.261,13.261,0,0,1,37.6,74.677" fill="#fddf7f"/>
        <path id="Trazado_720237" data-name="Trazado 720237" d="M27.3,102.96l-.714-15.022h-4.5l-.714,15.022Z" fill="#81d4fa"/>
        <path id="Trazado_720238" data-name="Trazado 720238" d="M96.3,102.96V93.345A5.407,5.407,0,0,0,90.9,87.938H68.532a5.407,5.407,0,0,0-5.407,5.407v9.615Z" fill="#aab1ba"/>
        <path id="Trazado_720239" data-name="Trazado 720239" d="M92.977,74.677A13.262,13.262,0,1,1,79.715,61.416,13.262,13.262,0,0,1,92.977,74.677" fill="#fddf7f"/>
        <path id="Trazado_720240" data-name="Trazado 720240" d="M82.68,102.96l-.714-15.022h-4.5L76.75,102.96Z" fill="#81d4fa"/>
        <path id="Trazado_720241" data-name="Trazado 720241" d="M55.293,52a1.04,1.04,0,0,1-1.04,1.04H53.04v1.213a1.04,1.04,0,0,1-2.08,0V53.04H49.746a1.04,1.04,0,0,1,0-2.08H50.96V49.747a1.04,1.04,0,0,1,2.08,0V50.96h1.213A1.04,1.04,0,0,1,55.293,52m-1.04,9.152H53.04V59.94a1.04,1.04,0,1,0-2.08,0v1.212H49.746a1.04,1.04,0,0,0,0,2.08H50.96v1.214a1.04,1.04,0,0,0,2.08,0V63.232h1.213a1.04,1.04,0,1,0,0-2.08M12.613,48.568a3.707,3.707,0,0,0,5.74,0l7.67-9.376a3.708,3.708,0,0,0-2.869-6.055H19.191l0-14.517H33.339a1.04,1.04,0,1,0,0-2.08H19.194a2.087,2.087,0,0,0-2.084,2.084V34.178a1.04,1.04,0,0,0,1.04,1.04h5a1.628,1.628,0,0,1,1.259,2.659l-7.67,9.375a1.628,1.628,0,0,1-2.52,0L6.552,37.877a1.629,1.629,0,0,1,1.261-2.659h5a1.04,1.04,0,0,0,1.04-1.04V18.625a5.344,5.344,0,0,1,5.338-5.338H33.3a1.04,1.04,0,0,0,0-2.081H19.194a7.427,7.427,0,0,0-7.418,7.419V33.138H7.813a3.708,3.708,0,0,0-2.871,6.055Zm68.233-13.35h5a1.041,1.041,0,0,0,1.04-1.04V18.625a2.087,2.087,0,0,0-2.085-2.084H70.661a1.04,1.04,0,1,0,0,2.08l14.149,0V33.138H80.846a3.708,3.708,0,0,0-2.87,6.055l7.67,9.375a3.707,3.707,0,0,0,5.74,0l7.671-9.375a3.708,3.708,0,0,0-2.87-6.055H92.224V18.625a7.427,7.427,0,0,0-7.419-7.419H70.7a1.04,1.04,0,0,0,0,2.081H84.805a5.344,5.344,0,0,1,5.339,5.338V34.178a1.04,1.04,0,0,0,1.04,1.04h5a1.628,1.628,0,0,1,1.26,2.657l-7.671,9.377a1.627,1.627,0,0,1-2.519,0l-7.671-9.375a1.628,1.628,0,0,1,1.26-2.659m-37.73,4.954V36.283a1.04,1.04,0,0,0-2.08,0v3.889a1.04,1.04,0,1,0,2.08,0m19.846,0V36.283a1.04,1.04,0,1,0-2.08,0v3.889a1.04,1.04,0,0,0,2.08,0M40.419,27.465h4.033a14.773,14.773,0,1,1,15.1,0H63.58A6.647,6.647,0,0,1,70.219,34.1v6.067a1.04,1.04,0,1,1-2.08,0V34.1a4.564,4.564,0,0,0-4.559-4.559H55.421L55.932,40.3a1.038,1.038,0,0,1-.989,1.088l-.05,0a1.04,1.04,0,0,1-1.038-.991l-.516-10.858H50.661L50.144,40.4a1.04,1.04,0,0,1-2.077-.1l.511-10.759H40.419A4.564,4.564,0,0,0,35.861,34.1v6.067a1.04,1.04,0,1,1-2.08,0V34.1a6.646,6.646,0,0,1,6.638-6.639m11.581,0A12.693,12.693,0,1,0,39.308,14.772,12.707,12.707,0,0,0,52,27.465M13.714,95.449V99.8a1.04,1.04,0,1,0,2.08,0V95.449a1.04,1.04,0,1,0-2.08,0m19.164,0V99.8a1.04,1.04,0,0,0,2.08,0V95.449a1.04,1.04,0,0,0-2.08,0M39.885,99.8V93.344a4.371,4.371,0,0,0-4.366-4.366H27.677l.512,10.753a1.042,1.042,0,0,1-.99,1.089h-.05a1.04,1.04,0,0,1-1.038-.991l-.516-10.852H23.078L22.561,99.83a1.04,1.04,0,1,1-2.077-.1L21,88.978H13.153a4.371,4.371,0,0,0-4.366,4.366V99.8a1.04,1.04,0,1,1-2.08,0V93.344A6.453,6.453,0,0,1,13.153,86.9h3.762a14.3,14.3,0,1,1,14.842,0h3.762a6.454,6.454,0,0,1,6.447,6.446V99.8a1.041,1.041,0,0,1-2.081,0M24.328,86.9h.016a12.222,12.222,0,1,0-.016,0m44.765,8.551V99.8a1.04,1.04,0,1,0,2.08,0V95.449a1.04,1.04,0,1,0-2.08,0m19.165,0V99.8a1.039,1.039,0,1,0,2.079,0V95.449a1.039,1.039,0,1,0-2.079,0M95.264,99.8V93.344A4.371,4.371,0,0,0,90.9,88.978H83.057l.511,10.753a1.042,1.042,0,0,1-.99,1.089h-.05a1.04,1.04,0,0,1-1.038-.991l-.517-10.852H78.457L77.94,99.83a1.04,1.04,0,1,1-2.077-.1l.512-10.753H68.532a4.371,4.371,0,0,0-4.366,4.366V99.8a1.04,1.04,0,1,1-2.08,0V93.344A6.453,6.453,0,0,1,68.532,86.9h3.762a14.3,14.3,0,1,1,14.842,0H90.9a6.454,6.454,0,0,1,6.447,6.446V99.8a1.041,1.041,0,0,1-2.081,0M79.707,86.9h.016a12.222,12.222,0,1,0-.016,0M43.91,101.92H4.763a1.04,1.04,0,0,0,0,2.08H43.91a1.04,1.04,0,0,0,0-2.08m-42.339,0H1.04a1.04,1.04,0,0,0,0,2.08h.531a1.04,1.04,0,0,0,0-2.08m45.958,0H47A1.04,1.04,0,1,0,47,104h.53a1.04,1.04,0,0,0,0-2.08m51.812,0H60.193a1.04,1.04,0,0,0,0,2.08H99.341a1.04,1.04,0,0,0,0-2.08m-42.34,0h-.53a1.04,1.04,0,0,0,0,2.08H57a1.04,1.04,0,1,0,0-2.08m45.959,0h-.531a1.04,1.04,0,0,0,0,2.08h.531a1.04,1.04,0,0,0,0-2.08m-29.6-57.86a1.04,1.04,0,0,0-1.04-1.04H31.784a1.041,1.041,0,0,0,0,2.081H72.322a1.04,1.04,0,0,0,1.04-1.041M28.478,45.1a1.041,1.041,0,0,0,0-2.081h-.549a1.041,1.041,0,0,0,0,2.081Zm47.592,0a1.041,1.041,0,0,0,0-2.081h-.549a1.041,1.041,0,0,0,0,2.081Z" fill="#1c1d21"/>
      </g>
    </g>
  </g>
</svg>
