<svg xmlns="http://www.w3.org/2000/svg" xmlns:xlink="http://www.w3.org/1999/xlink" width="295" height="139" viewBox="0 0 295 139">
  <defs>
    <radialGradient id="radial-gradient" cx="0.5" cy="0.5" r="0.5" gradientTransform="translate(0 -0.525) scale(1 2.05)" gradientUnits="objectBoundingBox">
      <stop offset="0" stop-color="#fff"/>
      <stop offset="1" stop-color="#d2e1f1"/>
    </radialGradient>
    <clipPath id="clip-path">
      <rect id="Rectángulo_348789" data-name="Rectángulo 348789" width="116.426" height="82" fill="none"/>
    </clipPath>
    <clipPath id="clip-path-3">
      <rect id="Rectángulo_348773" data-name="Rectángulo 348773" width="7.661" height="1.307" transform="translate(30.521 14.798)" fill="none"/>
    </clipPath>
    <clipPath id="clip-path-4">
      <rect id="Rectángulo_348783" data-name="Rectángulo 348783" width="1.871" height="73.048" transform="translate(60.357 7.615)" fill="none"/>
    </clipPath>
    <clipPath id="clip-path-5">
      <rect id="Rectángulo_348786" data-name="Rectángulo 348786" width="1.87" height="76.216" transform="translate(86.473 4.447)" fill="none"/>
    </clipPath>
  </defs>
  <g id="Grupo_1008290" data-name="Grupo 1008290" transform="translate(-1123 -2049)">
    <path id="Trazado_720458" data-name="Trazado 720458" d="M11,0H284a11,11,0,0,1,11,11V128a11,11,0,0,1-11,11H11A11,11,0,0,1,0,128V11A11,11,0,0,1,11,0Z" transform="translate(1123 2049)" fill="url(#radial-gradient)"/>
    <path id="Trazado_720459" data-name="Trazado 720459" d="M99.169,17V4.2h4.122a6.064,6.064,0,0,1,3.05.769,5.406,5.406,0,0,1,2.114,2.171,6.554,6.554,0,0,1,.769,3.142v.589a6.592,6.592,0,0,1-.743,3.151,5.429,5.429,0,0,1-2.092,2.18,5.93,5.93,0,0,1-3.01.8Zm3.085-10.415v8.042h1.072a2.4,2.4,0,0,0,2.039-.945,4.63,4.63,0,0,0,.712-2.808V10.32a4.592,4.592,0,0,0-.712-2.795,2.442,2.442,0,0,0-2.074-.94ZM113.794,17h-2.971V7.49h2.971ZM110.647,5.029a1.334,1.334,0,0,1,.457-1.043,1.934,1.934,0,0,1,2.373,0,1.334,1.334,0,0,1,.457,1.043,1.334,1.334,0,0,1-.457,1.043,1.934,1.934,0,0,1-2.373,0A1.334,1.334,0,0,1,110.647,5.029Zm9.949,9.3a.684.684,0,0,0-.4-.606,6.016,6.016,0,0,0-1.5-.475,6.853,6.853,0,0,1-1.828-.646,3.062,3.062,0,0,1-1.1-.971,2.319,2.319,0,0,1-.378-1.31,2.628,2.628,0,0,1,1.081-2.158,4.453,4.453,0,0,1,2.83-.848,4.934,4.934,0,0,1,3.023.853,2.666,2.666,0,0,1,1.143,2.241H120.5q0-1.143-1.2-1.143a1.194,1.194,0,0,0-.782.259.8.8,0,0,0-.316.646.737.737,0,0,0,.387.642,3.654,3.654,0,0,0,1.235.4,10.671,10.671,0,0,1,1.49.378,2.706,2.706,0,0,1,2.145,2.646,2.491,2.491,0,0,1-1.156,2.118,5.068,5.068,0,0,1-2.993.817,5.172,5.172,0,0,1-2.18-.439,3.645,3.645,0,0,1-1.494-1.2,2.707,2.707,0,0,1-.536-1.591h2.769a1.145,1.145,0,0,0,.439.962,1.808,1.808,0,0,0,1.081.3,1.422,1.422,0,0,0,.91-.246A.787.787,0,0,0,120.6,14.328Zm7.69-9.2V7.49h1.564V9.547h-1.564V13.9a1.111,1.111,0,0,0,.193.747,1.037,1.037,0,0,0,.765.211,4.345,4.345,0,0,0,.738-.053v2.118a5.466,5.466,0,0,1-1.67.255,3.1,3.1,0,0,1-2.259-.721,2.954,2.954,0,0,1-.729-2.188V9.547h-1.213V7.49h1.213V5.126Zm8.481,5.045-.976-.07a1.752,1.752,0,0,0-1.793.879V17h-2.962V7.49h2.777l.1,1.222A2.294,2.294,0,0,1,136,7.314a2.888,2.888,0,0,1,.826.105ZM140.961,17H137.99V7.49h2.971ZM137.814,5.029a1.334,1.334,0,0,1,.457-1.043,1.934,1.934,0,0,1,2.373,0,1.334,1.334,0,0,1,.457,1.043,1.334,1.334,0,0,1-.457,1.043,1.934,1.934,0,0,1-2.373,0A1.334,1.334,0,0,1,137.814,5.029Zm13.8,7.295a5.8,5.8,0,0,1-.967,3.595,3.238,3.238,0,0,1-2.725,1.257,2.81,2.81,0,0,1-2.338-1.151l-.123.976h-2.654V3.5h2.962V8.255a2.711,2.711,0,0,1,2.136-.94,3.239,3.239,0,0,1,2.742,1.274,5.826,5.826,0,0,1,.967,3.586Zm-2.971-.189a3.866,3.866,0,0,0-.365-1.952,1.229,1.229,0,0,0-1.121-.584,1.418,1.418,0,0,0-1.389.763v3.773a1.426,1.426,0,0,0,1.406.755,1.258,1.258,0,0,0,1.327-1.018A7.309,7.309,0,0,0,148.643,12.135Zm9.94,3.836a3.054,3.054,0,0,1-2.54,1.2,3,3,0,0,1-2.369-.91,3.826,3.826,0,0,1-.8-2.615V7.49h2.962v6.179a1.065,1.065,0,0,0,1.187,1.222,1.548,1.548,0,0,0,1.45-.729V7.49h2.979V17h-2.777Zm8.508-1.081a1.317,1.317,0,0,0,.967-.338,1.241,1.241,0,0,0,.334-.945h2.777a3.288,3.288,0,0,1-1.121,2.566,4.168,4.168,0,0,1-2.887,1,4.22,4.22,0,0,1-3.27-1.3,5.125,5.125,0,0,1-1.2-3.6v-.123a5.792,5.792,0,0,1,.532-2.544,3.872,3.872,0,0,1,1.534-1.7,4.573,4.573,0,0,1,2.373-.593,4.116,4.116,0,0,1,2.944,1.028,3.647,3.647,0,0,1,1.09,2.786h-2.777a1.626,1.626,0,0,0-.36-1.134,1.244,1.244,0,0,0-.967-.4q-1.151,0-1.345,1.468a10.357,10.357,0,0,0-.062,1.283A4.068,4.068,0,0,0,166,14.337,1.187,1.187,0,0,0,167.091,14.891ZM175.546,17h-2.971V7.49h2.971ZM172.4,5.029a1.334,1.334,0,0,1,.457-1.043,1.934,1.934,0,0,1,2.373,0,1.334,1.334,0,0,1,.457,1.043,1.334,1.334,0,0,1-.457,1.043,1.934,1.934,0,0,1-2.373,0A1.334,1.334,0,0,1,172.4,5.029Zm4.6,7.128a5.613,5.613,0,0,1,.554-2.536,3.96,3.96,0,0,1,1.591-1.709,4.791,4.791,0,0,1,2.435-.6,4.373,4.373,0,0,1,3.366,1.323,5.076,5.076,0,0,1,1.23,3.6v.105a4.925,4.925,0,0,1-1.235,3.529,4.384,4.384,0,0,1-3.344,1.305,4.434,4.434,0,0,1-3.261-1.217,4.761,4.761,0,0,1-1.327-3.3Zm2.962.185a3.538,3.538,0,0,0,.413,1.934,1.376,1.376,0,0,0,1.222.615q1.582,0,1.617-2.435v-.3q0-2.558-1.635-2.558-1.485,0-1.608,2.206ZM181.979,3.5h3.129l-2.443,2.76-2.417,0ZM190.2,7.49l.1,1.116a3.225,3.225,0,0,1,2.716-1.292,2.713,2.713,0,0,1,2.219.888,4.226,4.226,0,0,1,.76,2.672V17h-2.971V11a1.6,1.6,0,0,0-.29-1.059,1.342,1.342,0,0,0-1.055-.338,1.413,1.413,0,0,0-1.292.686V17H187.42V7.49Z" transform="translate(1125 2154)" fill="#12263f"/>
    <g id="Grupo_1007382" data-name="Grupo 1007382">
      <rect id="Rectángulo_348756" data-name="Rectángulo 348756" width="138" height="82" transform="translate(1199 2064)" fill="none"/>
      <g id="Grupo_1007381" data-name="Grupo 1007381" transform="translate(1214 2064)">
        <g id="Grupo_1007380" data-name="Grupo 1007380" clip-path="url(#clip-path)">
          <path id="Trazado_715141" data-name="Trazado 715141" d="M.039,77.061,25.4,77l.29-16.163L0,60.682Z" fill="#ececec"/>
          <g id="Grupo_1007379" data-name="Grupo 1007379">
            <g id="Grupo_1007378" data-name="Grupo 1007378" clip-path="url(#clip-path)">
              <path id="Trazado_715142" data-name="Trazado 715142" d="M10.747,77.015c-.033,0,.005-3.608.085-8.057s.171-8.057.2-8.056-.005,3.607-.085,8.058-.171,8.056-.2,8.055" fill="#e1e1e1"/>
              <path id="Trazado_715143" data-name="Trazado 715143" d="M.038,77.061a1.279,1.279,0,0,1,.1-.17l.314-.474,1.176-1.728L5.546,69.01c1.529-2.218,2.905-4.232,3.885-5.7.491-.733.881-1.332,1.149-1.745l.3-.48A1.252,1.252,0,0,1,11,60.923a1.128,1.128,0,0,1-.092.174l-.286.493c-.256.422-.635,1.028-1.117,1.768-.964,1.48-2.328,3.5-3.858,5.72S2.716,73.293,1.7,74.737L.493,76.444c-.14.193-.25.347-.332.461a1.138,1.138,0,0,1-.123.156" fill="#e1e1e1"/>
              <path id="Trazado_715144" data-name="Trazado 715144" d="M10.747,77.015a1.3,1.3,0,0,1-.117-.159q-.115-.174-.314-.468L9.17,74.66c-.979-1.463-2.323-3.468-3.806-5.683s-2.83-4.233-3.779-5.7C1.11,62.537.729,61.94.471,61.524l-.3-.481a1.076,1.076,0,0,1-.1-.171,1.178,1.178,0,0,1,.116.159L.51,61.5c.276.418.666,1.006,1.145,1.729.98,1.462,2.323,3.468,3.807,5.684s2.829,4.231,3.779,5.7c.475.736.856,1.333,1.114,1.749l.3.48a1.38,1.38,0,0,1,.1.172" fill="#e1e1e1"/>
              <rect id="Rectángulo_348757" data-name="Rectángulo 348757" width="0.834" height="4.072" transform="translate(13.362 75.185) rotate(-88.973)" fill="#e1e1e1"/>
              <path id="Trazado_715145" data-name="Trazado 715145" d="M13.573,73.675a16.614,16.614,0,0,1,1.992-.071,16.771,16.771,0,0,1,1.992.048,16.6,16.6,0,0,1-1.992.071,16.772,16.772,0,0,1-1.992-.048" fill="#e1e1e1"/>
              <path id="Trazado_715146" data-name="Trazado 715146" d="M18.985,60.747l-.112,6.239-.878-.7-1.14.662.112-6.239Z" fill="#e1e1e1"/>
              <path id="Trazado_715147" data-name="Trazado 715147" d="M22.647,48.6l-.221,12.334-19.355.046-.029-12.5Z" fill="#f5f5f5"/>
              <path id="Trazado_715148" data-name="Trazado 715148" d="M11.244,60.944c-.025,0,0-2.754.065-6.149s.13-6.149.156-6.148,0,2.753-.065,6.15-.131,6.147-.156,6.147" fill="#e1e1e1"/>
              <path id="Trazado_715149" data-name="Trazado 715149" d="M3.071,60.979a.869.869,0,0,1,.078-.13q.09-.134.24-.362l.9-1.319,2.988-4.333c1.166-1.693,2.216-3.23,2.965-4.349.374-.56.671-1.017.876-1.333l.233-.366a.788.788,0,0,1,.086-.124,1.018,1.018,0,0,1-.071.134c-.054.092-.126.218-.218.375-.2.322-.485.784-.853,1.349-.735,1.128-1.777,2.672-2.944,4.365S5.115,58.1,4.34,59.205l-.922,1.3-.253.352a.849.849,0,0,1-.094.119" fill="#e1e1e1"/>
              <path id="Trazado_715150" data-name="Trazado 715150" d="M11.244,60.944a.883.883,0,0,1-.089-.121q-.089-.134-.24-.357l-.874-1.319L7.136,54.81C6,53.118,4.976,51.579,4.252,50.456,3.889,49.9,3.6,49.439,3.4,49.121l-.225-.366a.993.993,0,0,1-.074-.131.883.883,0,0,1,.089.121c.06.089.14.207.24.357L4.3,50.421l2.906,4.338c1.138,1.691,2.159,3.23,2.884,4.352.362.562.653,1.018.85,1.335.094.154.17.276.226.367a.9.9,0,0,1,.073.131" fill="#e1e1e1"/>
              <rect id="Rectángulo_348758" data-name="Rectángulo 348758" width="0.637" height="3.108" transform="matrix(0.018, -1, 1, 0.018, 13.239, 59.547)" fill="#e1e1e1"/>
              <path id="Trazado_715151" data-name="Trazado 715151" d="M13.4,58.394a12.845,12.845,0,0,1,1.52-.054,12.839,12.839,0,0,1,1.521.036,12.475,12.475,0,0,1-1.52.055,12.7,12.7,0,0,1-1.521-.037" fill="#ececec"/>
              <path id="Trazado_715152" data-name="Trazado 715152" d="M18.733,48.528l-.085,4.761-.671-.532-.87.505.086-4.762Z" fill="#e1e1e1"/>
              <path id="Trazado_715153" data-name="Trazado 715153" d="M24.746,75.9A3.527,3.527,0,0,0,21.569,73.5l-.593-32.681h2.857v.488h.539v-1.17H19.93s.528,24.115.914,33.406a3.387,3.387,0,0,0-.565.136,3.527,3.527,0,0,0-2.4,3.407L7.753,76.953l.291,1.331,9.981-.275c.013.046.024.092.038.138A3.526,3.526,0,0,0,24.746,75.9" fill="#e1e1e1"/>
              <path id="Trazado_715154" data-name="Trazado 715154" d="M9.694,80.222h.536l1.032-2.027-.853.024Z" fill="#e1e1e1"/>
              <rect id="Rectángulo_348759" data-name="Rectángulo 348759" width="10.14" height="2.803" transform="translate(16.426 13.246)" fill="#ececec"/>
              <rect id="Rectángulo_348760" data-name="Rectángulo 348760" width="10.14" height="2.803" transform="translate(91.273 54.093)" fill="#ececec"/>
              <rect id="Rectángulo_348761" data-name="Rectángulo 348761" width="10.141" height="2.803" transform="translate(12.154 16.499)" fill="#f5f5f5"/>
              <rect id="Rectángulo_348762" data-name="Rectángulo 348762" width="7.285" height="2.803" transform="translate(87.674 56.985)" fill="#f5f5f5"/>
              <rect id="Rectángulo_348763" data-name="Rectángulo 348763" width="21.845" height="44.672" transform="translate(30.333 4.088)" fill="#ececec"/>
              <path id="Trazado_715155" data-name="Trazado 715155" d="M41.256,4.089S36.777,24.353,30.333,25.738c0,0,2.6,14.214,2.84,23.023h-2.84V4.089Z" fill="#e1e1e1"/>
              <path id="Trazado_715156" data-name="Trazado 715156" d="M41.33,4.089s4.479,20.264,10.922,21.649c0,0-2.6,14.214-2.839,23.023h2.839V4.089Z" fill="#e1e1e1"/>
              <rect id="Rectángulo_348764" data-name="Rectángulo 348764" width="0.796" height="44.756" transform="translate(40.858 4.004)" fill="#fafafa"/>
              <rect id="Rectángulo_348765" data-name="Rectángulo 348765" width="0.196" height="44.756" transform="translate(35.386 4.004)" fill="#fafafa"/>
              <rect id="Rectángulo_348766" data-name="Rectángulo 348766" width="0.196" height="44.756" transform="translate(47.178 4.004)" fill="#fafafa"/>
              <path id="Trazado_715157" data-name="Trazado 715157" d="M52.179,15.1v.179l-21.845.09v-.179Z" fill="#fafafa"/>
              <path id="Trazado_715158" data-name="Trazado 715158" d="M52.179,37.327V37.5l-21.845.087v-.175Z" fill="#fafafa"/>
              <rect id="Rectángulo_348767" data-name="Rectángulo 348767" width="21.845" height="0.745" transform="translate(30.333 25.976)" fill="#fafafa"/>
              <path id="Trazado_715159" data-name="Trazado 715159" d="M52.5,49.084H30.009V3.765H52.5Zm-21.845-.647h21.2V4.413h-21.2Z" fill="#f5f5f5"/>
              <rect id="Rectángulo_348768" data-name="Rectángulo 348768" width="21.845" height="44.672" transform="translate(94.257 4.088)" fill="#ececec"/>
              <path id="Trazado_715160" data-name="Trazado 715160" d="M105.179,4.089S100.7,24.353,94.256,25.738c0,0,2.6,14.214,2.84,23.023h-2.84V4.089Z" fill="#e1e1e1"/>
              <path id="Trazado_715161" data-name="Trazado 715161" d="M105.253,4.089s4.479,20.264,10.923,21.649c0,0-2.6,14.214-2.84,23.023h2.84V4.089Z" fill="#e1e1e1"/>
              <rect id="Rectángulo_348769" data-name="Rectángulo 348769" width="0.796" height="44.756" transform="translate(104.781 4.004)" fill="#fafafa"/>
              <rect id="Rectángulo_348770" data-name="Rectángulo 348770" width="0.196" height="44.756" transform="translate(99.309 4.004)" fill="#fafafa"/>
              <rect id="Rectángulo_348771" data-name="Rectángulo 348771" width="0.196" height="44.756" transform="translate(111.101 4.004)" fill="#fafafa"/>
              <path id="Trazado_715162" data-name="Trazado 715162" d="M116.1,15.1v.179l-21.845.09v-.179Z" fill="#fafafa"/>
              <path id="Trazado_715163" data-name="Trazado 715163" d="M116.1,37.327V37.5l-21.845.087v-.175Z" fill="#fafafa"/>
              <rect id="Rectángulo_348772" data-name="Rectángulo 348772" width="21.845" height="0.745" transform="translate(94.257 25.976)" fill="#fafafa"/>
              <path id="Trazado_715164" data-name="Trazado 715164" d="M116.426,49.084H93.933V3.765h22.493Zm-21.845-.647h21.2V4.413h-21.2Z" fill="#f5f5f5"/>
              <path id="Trazado_715165" data-name="Trazado 715165" d="M48.177,73.821a4.043,4.043,0,0,0-2.509-.305,2.082,2.082,0,0,0-1.239.553.893.893,0,0,0-.013,1.238,1.194,1.194,0,0,0,.782.2,3.074,3.074,0,0,1,1.928.274c.3.228.5.606.865.718a.853.853,0,0,0,.94-.418A1.461,1.461,0,0,0,49.038,75a1.644,1.644,0,0,0-.861-1.18" fill="#ececec"/>
              <path id="Trazado_715166" data-name="Trazado 715166" d="M49.925,70.446a1.2,1.2,0,0,1-1.794.039,3.4,3.4,0,0,1-.76-1.559,8.289,8.289,0,0,1-.467-3.94,2.185,2.185,0,0,1,.5-1.071,1.145,1.145,0,0,1,1.084-.361,1.672,1.672,0,0,1,.946,1,9.4,9.4,0,0,1,.929,4.031,3.262,3.262,0,0,1-.441,1.866" fill="#ececec"/>
              <path id="Trazado_715167" data-name="Trazado 715167" d="M51.207,71.4a2.421,2.421,0,0,1-.377-2.231,4.3,4.3,0,0,1,1.321-1.918,7.12,7.12,0,0,1,2.367-1.4,2.534,2.534,0,0,1,1.064-.181,1.118,1.118,0,0,1,.894.541,1.672,1.672,0,0,1-.248,1.521,18.079,18.079,0,0,1-1.555,2.367,4.206,4.206,0,0,1-1.71,1.465,1.551,1.551,0,0,1-1.824-.253" fill="#ececec"/>
              <path id="Trazado_715168" data-name="Trazado 715168" d="M49.957,80.5a1.383,1.383,0,0,1-.042-.3c-.022-.22-.049-.5-.081-.826a11.653,11.653,0,0,0-.186-1.212,9.334,9.334,0,0,0-.44-1.431,5.288,5.288,0,0,0-.731-1.295,2.717,2.717,0,0,0-.923-.767,2.6,2.6,0,0,0-.778-.243,1.479,1.479,0,0,1-.3-.043,1.4,1.4,0,0,1,.307,0,2.355,2.355,0,0,1,.811.211,2.73,2.73,0,0,1,.975.775,5.165,5.165,0,0,1,.757,1.32,8.748,8.748,0,0,1,.437,1.454,10.053,10.053,0,0,1,.161,1.228c.027.351.037.635.041.83a1.342,1.342,0,0,1-.006.306" fill="#e1e1e1"/>
              <path id="Trazado_715169" data-name="Trazado 715169" d="M49.9,79.863a.62.62,0,0,1-.008-.141c0-.105,0-.238,0-.4,0-.349,0-.854-.018-1.477-.031-1.246-.138-2.967-.345-4.857s-.486-3.593-.738-4.814c-.06-.306-.12-.582-.176-.823s-.1-.45-.145-.618l-.094-.391a.585.585,0,0,1-.024-.138.571.571,0,0,1,.049.131c.03.1.069.229.116.385s.1.374.166.615.129.515.194.82a45.567,45.567,0,0,1,.776,4.819c.208,1.895.3,3.62.309,4.87.008.624-.005,1.13-.021,1.479-.01.163-.018.3-.025.4a.626.626,0,0,1-.017.14" fill="#e1e1e1"/>
              <path id="Trazado_715170" data-name="Trazado 715170" d="M49.892,76.535a2.644,2.644,0,0,1,0-.42c.015-.269.052-.659.128-1.137a15.33,15.33,0,0,1,.37-1.657,14.583,14.583,0,0,1,.693-1.96,10.439,10.439,0,0,1,2.035-3.168,5.067,5.067,0,0,1,.478-.445c.074-.062.139-.124.205-.173l.186-.128a2.708,2.708,0,0,1,.353-.227,12.593,12.593,0,0,0-1.158,1.034A11,11,0,0,0,51.2,71.411a15.626,15.626,0,0,0-.7,1.942,16.758,16.758,0,0,0-.393,1.64c-.087.473-.137.859-.168,1.126a2.7,2.7,0,0,1-.051.416" fill="#e1e1e1"/>
              <path id="Trazado_715171" data-name="Trazado 715171" d="M113.048,80.663c0,.031-24.414.056-54.524.056s-54.529-.025-54.529-.056,24.409-.056,54.529-.056,54.524.025,54.524.056" fill="#1a2e35"/>
              <path id="Trazado_715172" data-name="Trazado 715172" d="M97.78,73.611c-3.14-2.055-3.937-5.99-3.9-9.544a3.814,3.814,0,0,1,.2-1.744,1.23,1.23,0,0,1,1.475-.662c.451.2.658.705.918,1.122a3.5,3.5,0,0,0,1.441,1.294,1.35,1.35,0,0,0,1.236.081c.512-.294.556-1,.537-1.592q-.051-1.649-.1-3.3a5.409,5.409,0,0,1,.137-1.756,1.835,1.835,0,0,1,1.135-1.264,1.127,1.127,0,0,1,1.409.71,5.419,5.419,0,0,1,.035.734.621.621,0,0,0,.382.575.729.729,0,0,0,.649-.286,7.868,7.868,0,0,0,1.375-2.16A10.784,10.784,0,0,1,105.98,53.6a3.239,3.239,0,0,1,2.16-1.264,1.935,1.935,0,0,1,2.015,1.255,2.839,2.839,0,0,1-.752,2.367,13.268,13.268,0,0,1-2.713,2.678,1.088,1.088,0,0,0-.452.5c-.12.4.267.778.663.9a6.988,6.988,0,0,0,1.4.122,1.347,1.347,0,0,1,1.163.664c.26.6-.236,1.241-.728,1.667A11.483,11.483,0,0,1,105.4,64.5a3.853,3.853,0,0,0-1.241.632,1.084,1.084,0,0,0-.324,1.259,1.133,1.133,0,0,0,1.235.435,7.936,7.936,0,0,0,1.3-.525,2.113,2.113,0,0,1,2.419.392,1.849,1.849,0,0,1,.242,1.646,4.324,4.324,0,0,1-.87,1.479,11.5,11.5,0,0,1-4.822,3.519,7.989,7.989,0,0,1-5.559.278" fill="#00bcd4"/>
              <path id="Trazado_715173" data-name="Trazado 715173" d="M109.272,52.8a.506.506,0,0,1-.057.058l-.173.16c-.154.14-.379.347-.662.621a22.24,22.24,0,0,0-2.223,2.486c-.431.557-.878,1.187-1.345,1.871s-.96,1.422-1.449,2.215a26.4,26.4,0,0,0-1.412,2.555c-.22.456-.413.933-.611,1.419s-.4.978-.6,1.477a53.882,53.882,0,0,0-1.99,5.725,26.006,26.006,0,0,0-.877,4.862,19.067,19.067,0,0,0,.025,3.332c.041.392.079.7.112.9.014.1.025.176.034.234a.369.369,0,0,1,.007.08.553.553,0,0,1-.018-.078c-.011-.058-.026-.135-.044-.233-.041-.2-.086-.507-.133-.9a18.168,18.168,0,0,1-.061-3.342,25.623,25.623,0,0,1,.857-4.883,52.461,52.461,0,0,1,1.986-5.739q.3-.75.6-1.479c.2-.484.393-.965.615-1.423a26.23,26.23,0,0,1,1.423-2.563c.493-.793.99-1.528,1.459-2.212s.923-1.312,1.36-1.868a21,21,0,0,1,2.254-2.468c.288-.27.519-.473.677-.608l.181-.152a.473.473,0,0,1,.064-.049" fill="#1a2e35"/>
              <path id="Trazado_715174" data-name="Trazado 715174" d="M101.885,62.716a1.236,1.236,0,0,1-.065-.25c-.035-.162-.078-.4-.128-.691-.1-.586-.207-1.4-.323-2.294s-.237-1.706-.344-2.288c-.053-.291-.1-.526-.132-.688a1.128,1.128,0,0,1-.039-.255,1.235,1.235,0,0,1,.081.245c.046.16.1.393.166.683.128.581.26,1.391.377,2.288s.214,1.686.291,2.3l.093.7a1.2,1.2,0,0,1,.023.257" fill="#1a2e35"/>
              <path id="Trazado_715175" data-name="Trazado 715175" d="M109.532,61.116a1.623,1.623,0,0,1-.305.044c-.2.022-.482.052-.832.1-.7.091-1.667.252-2.724.474s-2,.469-2.684.664c-.341.1-.614.18-.8.237a1.489,1.489,0,0,1-.3.08,1.759,1.759,0,0,1,.285-.12c.185-.07.456-.166.795-.271.676-.216,1.624-.472,2.684-.7a27.51,27.51,0,0,1,2.736-.445c.353-.038.64-.057.838-.066a1.594,1.594,0,0,1,.309,0" fill="#1a2e35"/>
              <path id="Trazado_715176" data-name="Trazado 715176" d="M98.746,71.22a.36.36,0,0,1-.055-.09c-.037-.074-.083-.163-.138-.271-.119-.236-.282-.582-.478-1.012-.391-.86-.895-2.064-1.432-3.4s-1.029-2.543-1.4-3.411l-.445-1.025c-.047-.111-.087-.2-.119-.278a.451.451,0,0,1-.035-.1.357.357,0,0,1,.055.091l.138.271c.119.236.282.582.477,1.012.392.86.9,2.064,1.434,3.4s1.028,2.543,1.4,3.409c.184.422.334.768.446,1.026l.119.279a.455.455,0,0,1,.035.1" fill="#1a2e35"/>
              <path id="Trazado_715177" data-name="Trazado 715177" d="M108.873,67.73a.4.4,0,0,1-.1.044l-.294.1-1.085.375c-.915.318-2.175.771-3.566,1.273s-2.657.944-3.579,1.243c-.462.15-.836.267-1.1.343l-.3.085a.491.491,0,0,1-.107.023.4.4,0,0,1,.1-.044l.294-.105,1.084-.376c.916-.317,2.175-.77,3.567-1.272s2.656-.944,3.578-1.243c.462-.15.836-.267,1.1-.343l.3-.085a.373.373,0,0,1,.107-.023" fill="#1a2e35"/>
              <path id="Trazado_715178" data-name="Trazado 715178" d="M26.181,79.914l.352-2.2L22.6,77.059l-.559,3.282.241.057a44.7,44.7,0,0,0,6.261.983c.853-.122-2.36-1.467-2.36-1.467" fill="#00bcd4"/>
              <path id="Trazado_715179" data-name="Trazado 715179" d="M28.667,81.194c-.006.037-1.484-.169-3.3-.46s-3.286-.556-3.28-.593,1.484.168,3.3.459,3.286.557,3.28.594" fill="#1a2e35"/>
              <path id="Trazado_715180" data-name="Trazado 715180" d="M26.178,80.374c-.03-.022.017-.134.12-.235s.215-.146.237-.116-.048.119-.142.213-.185.161-.215.138" fill="#1a2e35"/>
              <path id="Trazado_715181" data-name="Trazado 715181" d="M26.407,80.559c-.032-.018.006-.146.106-.27s.214-.191.239-.164-.041.132-.133.248-.179.205-.212.186" fill="#1a2e35"/>
              <path id="Trazado_715182" data-name="Trazado 715182" d="M23.274,80.316c-.017.008-.067-.059-.136-.169a2.658,2.658,0,0,0-.29-.4.922.922,0,0,0-.4-.254c-.117-.035-.2-.029-.2-.05s.077-.058.221-.044a.791.791,0,0,1,.476.255,1.453,1.453,0,0,1,.277.451c.049.124.068.205.051.213" fill="#1a2e35"/>
              <path id="Trazado_715183" data-name="Trazado 715183" d="M26.257,79.962c.014.034-.067.1-.186.123s-.217-.007-.217-.044.087-.068.191-.089.2-.025.212.01" fill="#1a2e35"/>
              <path id="Trazado_715184" data-name="Trazado 715184" d="M26.229,79.74c0,.038-.112.052-.246.033s-.234-.065-.226-.1.119-.051.246-.032.228.064.226.1" fill="#1a2e35"/>
              <path id="Trazado_715185" data-name="Trazado 715185" d="M40.106,79.439l-.082-2.225-3.988.121.09,3.328.248.009a44.489,44.489,0,0,0,6.332-.253c.813-.285-2.6-.98-2.6-.98" fill="#00bcd4"/>
              <path id="Trazado_715186" data-name="Trazado 715186" d="M42.793,80.212c0,.037-1.489.123-3.328.191s-3.332.092-3.333.055,1.488-.123,3.328-.191,3.332-.092,3.333-.055" fill="#1a2e35"/>
              <path id="Trazado_715187" data-name="Trazado 715187" d="M40.193,79.891c-.033-.016-.01-.135.072-.253s.183-.186.21-.16-.024.125-.1.236-.15.194-.184.177" fill="#1a2e35"/>
              <path id="Trazado_715188" data-name="Trazado 715188" d="M40.453,80.028c-.035-.012-.022-.144.051-.286s.174-.229.2-.207-.016.137-.083.269-.136.236-.172.224" fill="#1a2e35"/>
              <path id="Trazado_715189" data-name="Trazado 715189" d="M37.333,80.4c-.016.011-.078-.045-.166-.14a2.816,2.816,0,0,0-.364-.337.909.909,0,0,0-.438-.172c-.122-.012-.2.01-.209-.01s.066-.072.208-.086a.791.791,0,0,1,.518.158,1.436,1.436,0,0,1,.359.388c.072.112.106.188.092.2" fill="#1a2e35"/>
              <path id="Trazado_715190" data-name="Trazado 715190" d="M40.19,79.472c.021.031-.045.11-.157.156s-.215.036-.222,0,.072-.083.17-.124.188-.063.209-.031" fill="#1a2e35"/>
              <path id="Trazado_715191" data-name="Trazado 715191" d="M40.119,79.26c.005.037-.1.073-.235.08s-.242-.018-.241-.056.106-.073.235-.079.236.018.241.055" fill="#1a2e35"/>
              <path id="Trazado_715192" data-name="Trazado 715192" d="M45.514,24.07l-.224-.724a6.6,6.6,0,0,0-.352-1.225,1.919,1.919,0,0,0-.319-.548,2.93,2.93,0,0,0-.561-.556c-.207-.126-.161-.437.055-.455a2.052,2.052,0,0,1,1.241.961c.445.646.528-.57.566-1.013a7.267,7.267,0,0,1,.365-1.9c.213-.136.4.072.354.513s-.1,1.775.133,1.79.394-2.242.394-2.242-.042-.489.228-.481c.488.015.138,2.4.1,2.621-.027.157.227.183.247.013s.111-2.256.608-2.246c.381.008-.27,1.962-.05,2.41s.343-1.536.707-1.514c.136.009.236.034,0,1.159-.24,1.152-1.4,4.155-1.4,4.155l-2.121-.758" fill="#ffc09d"/>
              <path id="Trazado_715193" data-name="Trazado 715193" d="M30.926,23.475l3.588.265c.048-.415.118-2.028.118-2.028A1.783,1.783,0,0,0,36.24,20.09c.11-1.483.063-4.907.063-4.907a5.164,5.164,0,0,0-5.223.332l-.23.155Z" fill="#ffc09d"/>
              <path id="Trazado_715194" data-name="Trazado 715194" d="M35.8,17.712a.216.216,0,1,1,.305,0,.216.216,0,0,1-.305,0" fill="#1a2e35"/>
              <path id="Trazado_715195" data-name="Trazado 715195" d="M36.185,17.4c-.025.024-.164-.1-.368-.11s-.359.082-.38.055.016-.058.083-.1a.5.5,0,0,1,.6.044c.061.055.08.1.068.114" fill="#1a2e35"/>
              <path id="Trazado_715196" data-name="Trazado 715196" d="M33.819,17.428a.216.216,0,1,1-.3.052.215.215,0,0,1,.3-.052" fill="#1a2e35"/>
              <path id="Trazado_715197" data-name="Trazado 715197" d="M33.954,17.438c-.025.024-.164-.1-.368-.11s-.359.082-.38.055.016-.058.083-.1a.5.5,0,0,1,.6.044c.061.055.08.1.068.114" fill="#1a2e35"/>
              <path id="Trazado_715198" data-name="Trazado 715198" d="M34.669,19.175A1.041,1.041,0,0,1,35,19.127c.054,0,.1-.012.1-.042a.291.291,0,0,0-.029-.156l-.136-.426a5.822,5.822,0,0,1-.284-1.112,5.942,5.942,0,0,1,.392,1.079l.127.428a.345.345,0,0,1,.016.223.14.14,0,0,1-.1.079.339.339,0,0,1-.092.006,1.015,1.015,0,0,1-.337-.031" fill="#1a2e35"/>
              <path id="Trazado_715199" data-name="Trazado 715199" d="M33.991,19.36a3.948,3.948,0,0,0,.984.353.565.565,0,0,1-.68.184c-.434-.19-.3-.537-.3-.537" fill="#fff"/>
              <path id="Trazado_715200" data-name="Trazado 715200" d="M34.636,21.69a3.462,3.462,0,0,1-1.9-.669,1.833,1.833,0,0,0,1.881,1.054Z" fill="#ff9b6c"/>
              <path id="Trazado_715201" data-name="Trazado 715201" d="M30.872,17.184l.18,1.064.661-.013-.042-2.216s2.621.2,2.921-.848c0,0,.77,1.16,1.733,1.155,0,0,.839-.085.041-1.253-1.23-1.8-5.609-.353-5.609-.353a3.037,3.037,0,0,0-.159,1.019c-.018,1.14.274,1.445.274,1.445" fill="#1a2e35"/>
              <path id="Trazado_715202" data-name="Trazado 715202" d="M30.521,16.1l5.842-1.159s-.416-2.335-3.567-1.656c-3.068.66-2.275,2.815-2.275,2.815" fill="#00bcd4"/>
              <path id="Trazado_715203" data-name="Trazado 715203" d="M30.521,16.1c.082-.016,7.139.15,7.642-.826.24-.466-1.847-.479-1.847-.479l.047.146Z" fill="#00bcd4"/>
              <g id="Grupo_1007371" data-name="Grupo 1007371" opacity="0.2">
                <g id="Grupo_1007370" data-name="Grupo 1007370">
                  <g id="Grupo_1007369" data-name="Grupo 1007369" clip-path="url(#clip-path-3)">
                    <path id="Trazado_715204" data-name="Trazado 715204" d="M30.521,16.1c.082-.016,7.139.15,7.642-.826.24-.466-1.847-.479-1.847-.479l.047.146Z"/>
                  </g>
                </g>
              </g>
              <path id="Trazado_715205" data-name="Trazado 715205" d="M31.135,16.987c-.032-.012-1.1-.151-1,1.111s1.342.743,1.341.707-.341-1.818-.341-1.818" fill="#ffc09d"/>
              <path id="Trazado_715206" data-name="Trazado 715206" d="M31.054,18.392c-.006,0-.021.017-.057.037a.219.219,0,0,1-.164.017.545.545,0,0,1-.29-.468.713.713,0,0,1,.036-.32.255.255,0,0,1,.152-.182.112.112,0,0,1,.134.05c.02.034.014.06.021.061s.025-.023.011-.074a.138.138,0,0,0-.056-.076.166.166,0,0,0-.124-.022.311.311,0,0,0-.214.214.749.749,0,0,0-.048.358.573.573,0,0,0,.364.52.237.237,0,0,0,.2-.05c.036-.034.041-.063.036-.065" fill="#ff9b6c"/>
              <rect id="Rectángulo_348774" data-name="Rectángulo 348774" width="0.715" height="0.715" transform="translate(33.86 14.32) rotate(-1.122)" fill="#1a2e35"/>
              <rect id="Rectángulo_348775" data-name="Rectángulo 348775" width="0.357" height="0.357" transform="translate(34.211 13.918) rotate(-1.124)" fill="#1a2e35"/>
              <path id="Trazado_715207" data-name="Trazado 715207" d="M45.25,23.141s-1.1,7.024-1.881,7.06c-.887.042-3.616-3.828-3.616-3.828a6.528,6.528,0,0,0-4.892-3.2l.005-.333L30.737,22.5s.007.355,0,.664l-1.828,0s-3.275-.151-3.766,4.247L27.5,29.28l.965,3.591c.294,1.1-.155,2.5-.648,4.955l-.3-.069-.125,2.476c-.017.117-.034.234-.051.354h.033l-1,19.778-5.1,19.156,5.742.215,5.294-18.691s.459-14.942.925-14.952c.785-.015,1.286,33.241,1.586,33.166s6.2-.015,6.2-.015S39.068,40.5,39.082,40.5l-.506-7.334-.192-2.12c1.12,1.575,3.236,4.037,5.5,3.994,3.686-.072,4.2-11.5,4.2-11.5Z" fill="#375a64"/>
              <path id="Trazado_715208" data-name="Trazado 715208" d="M33.025,45.945a4.773,4.773,0,0,0,.342-.637,4.853,4.853,0,0,0,.279-1.714c0-.672,0-1.279,0-1.763a4.649,4.649,0,0,1,.028-.731,4.782,4.782,0,0,1,.051.73c.014.452.043,1.074.036,1.766a6.238,6.238,0,0,1-.086.975,3.365,3.365,0,0,1-.231.768,2.315,2.315,0,0,1-.278.464c-.083.1-.132.147-.138.142" fill="#1a2e35"/>
              <path id="Trazado_715209" data-name="Trazado 715209" d="M29.639,42.807a.719.719,0,0,1,.03.2c.012.131.025.321.029.557a3.693,3.693,0,0,1-.359,1.8,2.033,2.033,0,0,1-.686.763,1.638,1.638,0,0,1-.8.252,1.3,1.3,0,0,1-.557-.1.507.507,0,0,1-.177-.107,1.541,1.541,0,0,0,1.478-.136,1.983,1.983,0,0,0,.642-.73,3.906,3.906,0,0,0,.38-1.751,7.112,7.112,0,0,1,.02-.759" fill="#1a2e35"/>
              <path id="Trazado_715210" data-name="Trazado 715210" d="M39.5,46.246s-.035.063-.142.134a.914.914,0,0,1-.516.135,1.285,1.285,0,0,1-.741-.276,2.9,2.9,0,0,1-.65-.713,3.682,3.682,0,0,1-.6-1.627,3.218,3.218,0,0,1-.014-.528.633.633,0,0,1,.028-.191c.02,0,0,.275.065.708a3.949,3.949,0,0,0,.612,1.576,2.948,2.948,0,0,0,.618.692,1.249,1.249,0,0,0,.682.28.945.945,0,0,0,.491-.094c.107-.055.157-.1.164-.1" fill="#1a2e35"/>
              <path id="Trazado_715211" data-name="Trazado 715211" d="M27.28,78.464c0,.031-1.274.01-2.842-.047s-2.84-.128-2.839-.159,1.274-.01,2.843.047,2.839.128,2.838.159" fill="#1a2e35"/>
              <path id="Trazado_715212" data-name="Trazado 715212" d="M40.814,77.6a.971.971,0,0,1-.239.033l-.654.048c-.552.035-1.316.077-2.16.116s-1.609.067-2.163.082l-.656.012a1.032,1.032,0,0,1-.24-.01,1,1,0,0,1,.239-.033L35.6,77.8c.552-.036,1.316-.077,2.159-.116s1.608-.067,2.162-.083l.655-.012a1.009,1.009,0,0,1,.242.011" fill="#1a2e35"/>
              <path id="Trazado_715213" data-name="Trazado 715213" d="M30.222,46.4a.46.46,0,0,1,0,.085c0,.061,0,.143,0,.248,0,.224-.009.544-.017.954-.018.828-.056,2.027-.116,3.507s-.143,3.242-.259,5.2c-.059.978-.123,2-.211,3.067-.046.531-.087,1.074-.18,1.619s-.209,1.091-.327,1.644c-.985,4.417-2.092,8.362-2.955,11.2-.431,1.418-.821,2.553-1.093,3.335l-.331.9c-.037.1-.067.175-.089.232a.361.361,0,0,1-.034.077.468.468,0,0,1,.023-.081c.02-.058.046-.136.079-.235.073-.213.177-.515.311-.9.259-.787.637-1.924,1.058-3.344.843-2.838,1.937-6.785,2.921-11.2.118-.551.236-1.1.326-1.638s.135-1.08.181-1.61c.089-1.061.156-2.087.217-3.064.122-1.955.213-3.716.284-5.2s.116-2.671.152-3.505c.016-.409.029-.729.038-.953l.012-.248a.416.416,0,0,1,.008-.084" fill="#1a2e35"/>
              <path id="Trazado_715214" data-name="Trazado 715214" d="M38.146,77.744a.429.429,0,0,1-.01-.078c-.005-.057-.011-.133-.018-.229-.014-.208-.034-.5-.06-.88-.045-.772-.111-1.877-.192-3.241-.153-2.736-.345-6.518-.522-10.7s-.309-7.964-.392-10.7c-.038-1.365-.068-2.472-.089-3.244-.008-.378-.014-.674-.018-.883,0-.1,0-.172,0-.229s0-.079,0-.079a.408.408,0,0,1,.009.078c0,.058.007.133.013.229.009.209.022.5.038.882.03.773.073,1.879.125,3.243.109,2.744.259,6.525.425,10.7s.356,7.959.49,10.7c.065,1.364.119,2.47.156,3.242.016.378.029.674.038.882,0,.1.006.172.007.23a.423.423,0,0,1,0,.078" fill="#1a2e35"/>
              <path id="Trazado_715215" data-name="Trazado 715215" d="M33.4,22.721a3.517,3.517,0,0,1,.005.581,8.379,8.379,0,0,1-.141,1.445l-.014.071-.065-.034c-.137-.073-.279-.149-.421-.232-.6-.35-1.11-.715-1.486-.966a6.9,6.9,0,0,1-.6-.417,3.657,3.657,0,0,1,.646.35c.388.235.9.589,1.5.936.141.082.281.158.416.231l-.08.037a10.981,10.981,0,0,0,.177-1.425,3.285,3.285,0,0,1,.067-.577" fill="#1a2e35"/>
              <path id="Trazado_715216" data-name="Trazado 715216" d="M34.873,23.2a3.907,3.907,0,0,1-.118.539c-.04.165-.083.364-.154.581a3,3,0,0,1-.132.334.227.227,0,0,1-.078.095.124.124,0,0,1-.154-.018.712.712,0,0,1-.1-.19c-.2-.479-.377-.915-.5-1.232a2.638,2.638,0,0,1-.176-.524,2.761,2.761,0,0,1,.249.493c.141.31.329.741.53,1.22a.841.841,0,0,0,.072.154c.01.008.006.006.017,0a.134.134,0,0,0,.037-.048,3.384,3.384,0,0,0,.133-.319c.074-.209.125-.405.175-.568a2.128,2.128,0,0,1,.195-.519" fill="#1a2e35"/>
              <path id="Trazado_715217" data-name="Trazado 715217" d="M34.1,37.956a.79.79,0,0,1-.018-.154c-.007-.113-.017-.26-.029-.444-.021-.4-.05-.952-.086-1.631-.062-1.389-.146-3.287-.24-5.383s-.154-4-.208-5.386c-.021-.68-.038-1.234-.05-1.632,0-.184-.006-.332-.008-.445a.844.844,0,0,1,.005-.155.8.8,0,0,1,.018.155c.007.112.017.259.029.443.021.4.05.952.086,1.631.062,1.389.147,3.287.24,5.384s.154,4,.208,5.385c.021.68.038,1.235.05,1.633,0,.184.006.331.008.444a.844.844,0,0,1-.005.155" fill="#1a2e35"/>
              <rect id="Rectángulo_348776" data-name="Rectángulo 348776" width="1.983" height="0.41" transform="translate(34.743 27.235) rotate(-1.098)" fill="#fff"/>
              <path id="Trazado_715218" data-name="Trazado 715218" d="M38.614,33.9c-.031,0-.157-1.5-.28-3.351s-.2-3.358-.169-3.36.157,1.5.281,3.352.2,3.357.168,3.359" fill="#1a2e35"/>
              <path id="Trazado_715219" data-name="Trazado 715219" d="M48.031,24.968a10.21,10.21,0,0,1-1.489-.283,10.4,10.4,0,0,1-1.464-.393,10.374,10.374,0,0,1,1.489.283,10.3,10.3,0,0,1,1.464.393" fill="#1a2e35"/>
              <path id="Trazado_715220" data-name="Trazado 715220" d="M45.68,23.641a.2.2,0,1,1-.2.206.2.2,0,0,1,.2-.206" fill="#1a2e35"/>
              <rect id="Rectángulo_348777" data-name="Rectángulo 348777" width="0.715" height="0.715" transform="translate(35.993 26.293) rotate(-1.122)" fill="#00bcd4"/>
              <rect id="Rectángulo_348778" data-name="Rectángulo 348778" width="0.357" height="0.357" transform="translate(36.343 25.891) rotate(-1.124)" fill="#00bcd4"/>
              <path id="Trazado_715221" data-name="Trazado 715221" d="M47.407,29.942l-.292,11.53L29.02,41.38l.059-11.686Z" fill="#00bcd4"/>
              <path id="Trazado_715222" data-name="Trazado 715222" d="M36.661,41.4c-.031,0,.009-2.575.09-5.749s.17-5.747.2-5.746-.009,2.574-.089,5.749-.171,5.747-.2,5.746" fill="#1a2e35"/>
              <path id="Trazado_715223" data-name="Trazado 715223" d="M29.02,41.381a.728.728,0,0,1,.072-.122l.224-.338.845-1.23,2.82-4.033c1.1-1.574,2.1-3,2.806-4.043.355-.52.637-.944.832-1.237l.222-.339a.6.6,0,0,1,.084-.115.681.681,0,0,1-.065.127c-.053.09-.12.206-.2.351-.184.3-.457.731-.8,1.257-.694,1.053-1.677,2.489-2.78,4.064s-2.112,2.991-2.847,4.014l-.874,1.209-.241.326a.705.705,0,0,1-.091.109" fill="#1a2e35"/>
              <path id="Trazado_715224" data-name="Trazado 715224" d="M36.481,41.5c-.026.017-1.692-2.582-3.721-5.8s-3.652-5.847-3.626-5.864,1.692,2.582,3.721,5.8,3.652,5.847,3.626,5.863" fill="#1a2e35"/>
              <rect id="Rectángulo_348779" data-name="Rectángulo 348779" width="0.595" height="2.905" transform="translate(38.536 40.113) rotate(-88.54)" fill="#1a2e35"/>
              <path id="Trazado_715225" data-name="Trazado 715225" d="M38.694,39.036a9.075,9.075,0,0,1,1.421-.054,9.045,9.045,0,0,1,1.422.058,8.939,8.939,0,0,1-1.422.054,9.038,9.038,0,0,1-1.421-.058" fill="#1a2e35"/>
              <path id="Trazado_715226" data-name="Trazado 715226" d="M43.748,29.85,43.635,34.3l-.623-.5-.817.466.113-4.451Z" fill="#1a2e35"/>
              <path id="Trazado_715227" data-name="Trazado 715227" d="M28.715,28.674s-.878,6.12-.464,6.469a19.028,19.028,0,0,0,6.634,3.265c.166-.04.362-.093.587-.164a1.765,1.765,0,0,0,.537-.28,2.784,2.784,0,0,0,.554-.514.234.234,0,0,1,.436.078,1.932,1.932,0,0,1-.964,1.153,13.934,13.934,0,0,0,1.93,2.567c.466.212,1.8.814,1.577.93a7.556,7.556,0,0,1-1.853-.358l-3.295-.881s-10.9-1.709-10.175-6.71c.447-3.064.931-5.827,1.107-6.525Z" fill="#ffc09d"/>
              <path id="Trazado_715228" data-name="Trazado 715228" d="M25.141,27.42,24.163,34.1c-.226,2.056,1.151,3.688,3,4.607a40.4,40.4,0,0,0,6.973,2.388c-.057-.011.283-2.981.283-2.981s-5.87-2.543-6.054-3.635.746-5.66.746-5.66Z" fill="#375a64"/>
              <path id="Trazado_715229" data-name="Trazado 715229" d="M34.141,41.091a.2.2,0,0,1,0-.053c0-.041.006-.092.009-.154.012-.145.027-.344.046-.594.046-.525.11-1.268.19-2.183l.022.04-2.952-1.431L30.6,36.3c-.288-.152-.575-.318-.859-.5a8.492,8.492,0,0,1-.833-.611q-.2-.168-.392-.355a.713.713,0,0,1-.171-.225.614.614,0,0,1-.048-.134.825.825,0,0,1-.029-.136,7.171,7.171,0,0,1,.2-2.076c.114-.661.224-1.3.329-1.9l.564-3.223a6.875,6.875,0,0,0,.148-1.24,2.147,2.147,0,0,0-.19-.911,1.523,1.523,0,0,0-.345-.478c-.1-.091-.164-.127-.161-.132a.816.816,0,0,1,.176.115,1.458,1.458,0,0,1,.369.476,2.15,2.15,0,0,1,.214.928,6.652,6.652,0,0,1-.133,1.255c-.154.922-.337,2.015-.54,3.229l-.323,1.906c-.029.165-.057.332-.086.5s-.063.334-.086.5a3.8,3.8,0,0,0-.026,1.032.813.813,0,0,0,.026.125.485.485,0,0,0,.042.116.578.578,0,0,0,.148.193c.124.122.253.239.385.35a8.774,8.774,0,0,0,.821.6c.28.182.565.348.849.5l.851.418,2.938,1.451.025.013,0,.027c-.1.913-.171,1.655-.225,2.179q-.043.375-.067.592c-.008.061-.015.112-.02.153a.214.214,0,0,1-.011.052" fill="#1a2e35"/>
              <path id="Trazado_715230" data-name="Trazado 715230" d="M33.6,37.7a1.863,1.863,0,0,1-.035.456c-.036.279-.094.664-.174,1.086s-.166.8-.239,1.075a1.727,1.727,0,0,1-.145.434c-.03-.008.118-.687.274-1.53A12.509,12.509,0,0,1,33.6,37.7" fill="#1a2e35"/>
              <path id="Trazado_715231" data-name="Trazado 715231" d="M34.141,41.091a.347.347,0,0,1-.1-.017l-.29-.07-1.062-.277c-.894-.242-2.136-.558-3.468-1.047a14.452,14.452,0,0,1-1.825-.812,10.292,10.292,0,0,1-1.373-.884,7.59,7.59,0,0,1-.823-.73c-.09-.094-.157-.169-.2-.222s-.066-.08-.063-.083.106.1.3.273a9.051,9.051,0,0,0,.84.7,10.765,10.765,0,0,0,1.374.856,15.3,15.3,0,0,0,1.816.8c1.323.486,2.562.814,3.449,1.075l1.052.312.285.09a.374.374,0,0,1,.1.039" fill="#1a2e35"/>
              <path id="Trazado_715232" data-name="Trazado 715232" d="M34.214,38.418a.189.189,0,1,1-.193-.185.189.189,0,0,1,.193.185" fill="#1a2e35"/>
              <rect id="Rectángulo_348780" data-name="Rectángulo 348780" width="23.832" height="73.612" transform="translate(61.268 7.051)" fill="#e1e1e1"/>
              <path id="Trazado_715233" data-name="Trazado 715233" d="M76.905,7.615V77.37l11.4,3.292.037-73.048Z" fill="#375a64"/>
              <path id="Trazado_715234" data-name="Trazado 715234" d="M78.311,41.432c.022.546-.187,1-.468,1.009s-.527-.421-.549-.967.187-1,.468-1.01.527.422.549.968" fill="#fff"/>
              <path id="Trazado_715235" data-name="Trazado 715235" d="M77.785,41.025l2.245.3a.249.249,0,1,1-.075.492L77.8,41.453Z" fill="#fff"/>
              <path id="Trazado_715236" data-name="Trazado 715236" d="M58.486,4.447V80.663h3.741V7.615H84.189V80.663h4.117V4.447Z" fill="#1a2e35"/>
              <rect id="Rectángulo_348781" data-name="Rectángulo 348781" width="1.871" height="73.048" transform="translate(60.357 7.615)" fill="#1a2e35"/>
              <g id="Grupo_1007374" data-name="Grupo 1007374" opacity="0.5">
                <g id="Grupo_1007373" data-name="Grupo 1007373">
                  <g id="Grupo_1007372" data-name="Grupo 1007372" clip-path="url(#clip-path-4)">
                    <rect id="Rectángulo_348782" data-name="Rectángulo 348782" width="1.871" height="73.048" transform="translate(60.357 7.615)"/>
                  </g>
                </g>
              </g>
              <rect id="Rectángulo_348784" data-name="Rectángulo 348784" width="1.87" height="76.216" transform="translate(86.474 4.447)" fill="#1a2e35"/>
              <g id="Grupo_1007377" data-name="Grupo 1007377" opacity="0.5">
                <g id="Grupo_1007376" data-name="Grupo 1007376">
                  <g id="Grupo_1007375" data-name="Grupo 1007375" clip-path="url(#clip-path-5)">
                    <rect id="Rectángulo_348785" data-name="Rectángulo 348785" width="1.87" height="76.216" transform="translate(86.474 4.447)"/>
                  </g>
                </g>
              </g>
              <rect id="Rectángulo_348787" data-name="Rectángulo 348787" width="6.146" height="1.372" transform="translate(69.814)" fill="#375a64"/>
              <path id="Trazado_715237" data-name="Trazado 715237" d="M73.6,19.075a3.11,3.11,0,0,0,2.355,2.846c.668.163,1.436.087,1.965.535.907.769.376,2.364.988,3.4.377.635,1.124.946,1.547,1.548a2.53,2.53,0,0,1-.729,3.26,5.3,5.3,0,0,1-3.44.856,10.717,10.717,0,0,1-7.266-2.784,9.3,9.3,0,0,1-2.488-9.056" fill="#1a2e35"/>
              <path id="Trazado_715238" data-name="Trazado 715238" d="M64.044,26.175S59.416,30.2,59.3,29.709a25.975,25.975,0,0,1-.362-7.365c.073-.112.156-.235.255-.371a1.709,1.709,0,0,1,.414-.4,2.662,2.662,0,0,1,.629-.353c.213-.06.248-.344.062-.413a1.87,1.87,0,0,0-1.326.543c-.549.46-.326-.631-.251-1.029a6.576,6.576,0,0,0,.141-1.758c-.154-.171-.371-.035-.436.365s-.344,1.586-.554,1.542.2-2.068.2-2.068.157-.42-.083-.479c-.433-.106-.705,2.074-.726,2.282-.014.145-.244.1-.22-.049s.452-2.012.012-2.124c-.337-.086-.24,1.792-.543,2.132s.073-1.435-.253-1.5c-.121-.026-.216-.028-.284,1.018a22.968,22.968,0,0,0,.092,2.527c-.288,2.873-.85,11.672,3.124,11.369a6.261,6.261,0,0,0,5.771-4.055Z" fill="#c78976"/>
              <path id="Trazado_715239" data-name="Trazado 715239" d="M67.74,24.866a15.834,15.834,0,0,0-.052-1.93,1.668,1.668,0,0,1-1.443-1.585c-.058-1.412.081-4.662.081-4.662l2.545-1.222,2.738,2.206-.475,7.17Z" fill="#c78976"/>
              <path id="Trazado_715240" data-name="Trazado 715240" d="M66.561,19.064a.176.176,0,1,0,.179-.177.177.177,0,0,0-.179.177" fill="#1a2e35"/>
              <path id="Trazado_715241" data-name="Trazado 715241" d="M66.395,18.865c.021.024.154-.087.343-.094s.33.088.35.063-.012-.055-.075-.1a.456.456,0,0,0-.553.025c-.058.05-.077.095-.065.106" fill="#1a2e35"/>
              <path id="Trazado_715242" data-name="Trazado 715242" d="M68.6,19.1a.176.176,0,1,0,.179-.176.178.178,0,0,0-.179.176" fill="#1a2e35"/>
              <path id="Trazado_715243" data-name="Trazado 715243" d="M68.493,18.9c.022.024.154-.087.344-.094s.33.088.35.063-.013-.055-.075-.1a.456.456,0,0,0-.553.025c-.058.05-.077.095-.066.106" fill="#1a2e35"/>
              <path id="Trazado_715244" data-name="Trazado 715244" d="M67.781,20.53a1.118,1.118,0,0,0-.309-.047c-.048,0-.094-.012-.1-.047a.288.288,0,0,1,.03-.155c.044-.127.089-.26.137-.4a7.17,7.17,0,0,0,.305-1.045,7.292,7.292,0,0,0-.382,1.018c-.046.14-.09.274-.131.4a.319.319,0,0,0-.022.2.116.116,0,0,0,.081.072.277.277,0,0,0,.082.009,1.153,1.153,0,0,0,.312-.012" fill="#1a2e35"/>
              <path id="Trazado_715245" data-name="Trazado 715245" d="M68.4,20.725a3.641,3.641,0,0,1-.922.307.518.518,0,0,0,.624.194.411.411,0,0,0,.3-.5" fill="#fff"/>
              <path id="Trazado_715246" data-name="Trazado 715246" d="M67.688,22.937a3.374,3.374,0,0,0,1.831-.6,1.77,1.77,0,0,1-1.807.945Z" fill="#b66955"/>
              <path id="Trazado_715247" data-name="Trazado 715247" d="M73.6,19.1c-.013-.1-.026-.251-.042-.409a5.165,5.165,0,0,0-.075-.573,4.42,4.42,0,0,0-3.7-3.554,2.935,2.935,0,0,0-2.851,1.1,2.777,2.777,0,0,0-.668,3l.232-.212,2.02-.5a2.646,2.646,0,0,1,.234-1.565l.013-.012a3.063,3.063,0,0,0,2.626,2.376l-.214,5.617c2.227-.448,2.4-4.059,2.4-5.281Z" fill="#1a2e35"/>
              <path id="Trazado_715248" data-name="Trazado 715248" d="M74.471,44.3l.008-.073c0,.013,0,.036-.008.073" fill="#c78976"/>
              <path id="Trazado_715249" data-name="Trazado 715249" d="M74.464,44.362l.007-.066c0,.034-.007.066-.007.066" fill="#c78976"/>
              <path id="Trazado_715250" data-name="Trazado 715250" d="M77.1,78.53S71.889,60.958,71.789,60.4c-.09-.508,2.325-12.836,2.675-16.034l-7.33.069,0,.054-3.541.1,1.772,35.112,3.88.1-.059-11.541c1.923,5.636,4.354,12,4.354,12Z" fill="#c78976"/>
              <path id="Trazado_715251" data-name="Trazado 715251" d="M74.48,44.215h0" fill="#c78976"/>
              <path id="Trazado_715252" data-name="Trazado 715252" d="M74.479,44.223v0" fill="#c78976"/>
              <path id="Trazado_715253" data-name="Trazado 715253" d="M66.854,59.6c.011,0-.01.137-.022.383a7.632,7.632,0,0,0,.018,1.043,9.628,9.628,0,0,0,.26,1.522,15.064,15.064,0,0,0,.621,1.791c.483,1.261.914,2.4,1.221,3.235.146.4.267.735.358.985a2.346,2.346,0,0,1,.116.367,2.547,2.547,0,0,1-.157-.351c-.1-.247-.232-.575-.391-.973-.326-.822-.769-1.962-1.252-3.223l-.35-.922a8.374,8.374,0,0,1-.267-.884,8.958,8.958,0,0,1-.238-1.542,6.326,6.326,0,0,1,.017-1.051,2.471,2.471,0,0,1,.042-.283.326.326,0,0,1,.024-.1" fill="#b66955"/>
              <path id="Trazado_715254" data-name="Trazado 715254" d="M69.205,72.443c.006-.107.068-3.914.068-3.914S68,65,67.963,65.107s1.242,7.336,1.242,7.336" fill="#b66955"/>
              <path id="Trazado_715255" data-name="Trazado 715255" d="M73.672,80.191h0L77.1,78.53l.4.736-1.212.685a32.981,32.981,0,0,1-4.3,2.042c-.74.134,1.69-1.8,1.69-1.8" fill="#00bcd4"/>
              <path id="Trazado_715256" data-name="Trazado 715256" d="M71.828,81.893c-.016-.026,1.236-.645,2.8-1.383s2.838-1.315,2.853-1.289-1.236.645-2.8,1.383-2.837,1.315-2.853,1.289" fill="#1a2e35"/>
              <path id="Trazado_715257" data-name="Trazado 715257" d="M76.6,79.661c-.016,0-.023-.066-.016-.168a1,1,0,0,1,.11-.4.668.668,0,0,1,.326-.3c.114-.046.193-.036.194-.023s-.065.034-.152.087a.79.79,0,0,0-.26.282,1.854,1.854,0,0,0-.134.362c-.028.1-.051.158-.068.155" fill="#1a2e35"/>
              <path id="Trazado_715258" data-name="Trazado 715258" d="M73.486,80.349c0,.031.107.073.242.117s.252.077.27.049-.077-.107-.226-.156-.281-.041-.286-.01" fill="#1a2e35"/>
              <path id="Trazado_715259" data-name="Trazado 715259" d="M73.251,80.535c-.009.03.091.089.224.131s.251.053.266.024-.086-.087-.224-.131-.257-.054-.266-.024" fill="#1a2e35"/>
              <path id="Trazado_715260" data-name="Trazado 715260" d="M73.058,80.7c-.013.029.059.084.155.133s.187.078.208.053-.04-.1-.144-.151-.206-.064-.219-.035" fill="#1a2e35"/>
              <path id="Trazado_715261" data-name="Trazado 715261" d="M73.5,80.378a.709.709,0,0,0-.036-.359,1.051,1.051,0,0,0-.179-.368.878.878,0,0,0-.185-.179.513.513,0,0,0-.132-.071.252.252,0,0,0-.187,0,.2.2,0,0,0-.065.293,1.39,1.39,0,0,0,.16.193,2.358,2.358,0,0,0,.319.273,1.06,1.06,0,0,0,.342.194c.011-.014-.106-.1-.282-.254a3.077,3.077,0,0,1-.288-.28,1.449,1.449,0,0,1-.14-.177c-.038-.057-.027-.125.012-.141s.118.008.184.055a.81.81,0,0,1,.166.152,1.131,1.131,0,0,1,.188.329,1.875,1.875,0,0,0,.123.337" fill="#1a2e35"/>
              <path id="Trazado_715262" data-name="Trazado 715262" d="M73.5,80.311a.934.934,0,0,0-.34-.209,1.812,1.812,0,0,0-.427-.133,1.384,1.384,0,0,0-.271-.022.606.606,0,0,0-.153.018.224.224,0,0,0-.086.041.122.122,0,0,0-.046.1.349.349,0,0,0,.207.228.894.894,0,0,0,.263.084,2.167,2.167,0,0,0,.453.015c.26-.017.4-.106.39-.119a3.032,3.032,0,0,1-.395.038,2.4,2.4,0,0,1-.424-.037.806.806,0,0,1-.223-.076c-.067-.034-.139-.1-.142-.14-.021-.013.077-.046.16-.043a1.416,1.416,0,0,1,.246.014,2.117,2.117,0,0,1,.411.1,2.589,2.589,0,0,0,.377.135" fill="#1a2e35"/>
              <path id="Trazado_715263" data-name="Trazado 715263" d="M73.739,80.156a9.938,9.938,0,0,0,1.743-.727,10.286,10.286,0,0,0,1.617-.9,15.262,15.262,0,0,0-1.7.783,17.7,17.7,0,0,0-1.658.843" fill="#1a2e35"/>
              <path id="Trazado_715264" data-name="Trazado 715264" d="M65.8,79.651h0l3.439.025-.057,1h-.224a49.274,49.274,0,0,1-5.733-.282c-.73-.232,2.575-.741,2.575-.741" fill="#00bcd4"/>
              <path id="Trazado_715265" data-name="Trazado 715265" d="M63.152,80.234c0-.03,1.353.022,3.017.116s3.012.193,3.009.223-1.352-.023-3.017-.116-3.011-.194-3.009-.223" fill="#1a2e35"/>
              <path id="Trazado_715266" data-name="Trazado 715266" d="M68.093,80.5c-.013-.009.02-.067.088-.15a1.2,1.2,0,0,1,.337-.285.811.811,0,0,1,.468-.1c.127.014.19.06.183.071s-.077,0-.186,0a.948.948,0,0,0-.4.117,2.279,2.279,0,0,0-.338.244c-.083.07-.141.111-.154.1" fill="#1a2e35"/>
              <path id="Trazado_715267" data-name="Trazado 715267" d="M65.543,79.7c-.024.024.05.111.142.212s.173.183.206.168,0-.127-.1-.238-.221-.166-.244-.142" fill="#1a2e35"/>
              <path id="Trazado_715268" data-name="Trazado 715268" d="M65.225,79.745c-.026.022.026.118.116.216s.189.162.219.145-.022-.114-.117-.216-.192-.166-.218-.145" fill="#1a2e35"/>
              <path id="Trazado_715269" data-name="Trazado 715269" d="M64.953,79.8c-.03.018,0,.1.055.186s.116.152.15.141.025-.1-.034-.195-.142-.15-.171-.132" fill="#1a2e35"/>
              <path id="Trazado_715270" data-name="Trazado 715270" d="M65.54,79.73a.772.772,0,0,0,.186-.322.972.972,0,0,0,.067-.395.723.723,0,0,0-.054-.238.441.441,0,0,0-.072-.123.246.246,0,0,0-.166-.084.223.223,0,0,0-.235.218,1.158,1.158,0,0,0,.023.238,1.992,1.992,0,0,0,.114.381.876.876,0,0,0,.182.324,1.359,1.359,0,0,0-.093-.347,2.6,2.6,0,0,1-.083-.372,1.207,1.207,0,0,1-.014-.216c0-.065.051-.118.1-.113s.1.061.127.132a.655.655,0,0,1,.054.206,1.036,1.036,0,0,1-.035.367,1.763,1.763,0,0,0-.1.344" fill="#1a2e35"/>
              <path id="Trazado_715271" data-name="Trazado 715271" d="M65.58,79.673c.015-.006-.033-.14-.17-.335a1.6,1.6,0,0,0-.294-.313,1.3,1.3,0,0,0-.225-.145.618.618,0,0,0-.144-.056.237.237,0,0,0-.1,0,.147.147,0,0,0-.1.064.3.3,0,0,0,.042.291.76.76,0,0,0,.18.194,1.939,1.939,0,0,0,.388.223.645.645,0,0,0,.414.082,2.905,2.905,0,0,1-.369-.152,2.262,2.262,0,0,1-.35-.229.671.671,0,0,1-.149-.17.225.225,0,0,1-.04-.184c-.009-.021.1,0,.167.038a1.372,1.372,0,0,1,.208.127,1.94,1.94,0,0,1,.3.28c.151.176.229.3.247.29" fill="#1a2e35"/>
              <path id="Trazado_715272" data-name="Trazado 715272" d="M65.882,79.651a9.2,9.2,0,0,0,1.651.109,10.293,10.293,0,0,0,1.654-.059,14.628,14.628,0,0,0-1.652-.054c-.912-.01-1.651-.028-1.653,0" fill="#1a2e35"/>
              <path id="Trazado_715273" data-name="Trazado 715273" d="M76.321,32.237a15.517,15.517,0,0,0-.258-3.755,3.7,3.7,0,0,0-2.155-2.813V25.65l-.09-.026a8.427,8.427,0,0,0-2.684-.78l-3.625-.059a5.477,5.477,0,0,0-4.345,1.509c-1.692,1.839-2.844,2.925-2.844,2.925l2.7,3.246.723-.716a5.31,5.31,0,0,0,.419,2.362c.493.87,1.166,2.055,1.166,2.055l-.773,3.624a27.527,27.527,0,0,0-1.44,11.426c.768,6.19.89,8,.89,8l8.754,1.2s3.5-13.107,2.3-18.314c-.823-3.578-1.452-3.411-1.653-4.186l.227-5.571Z" fill="#00bcd4"/>
              <path id="Trazado_715274" data-name="Trazado 715274" d="M64.435,30.546a4.563,4.563,0,0,1-.727,1.226,4.523,4.523,0,0,1,.727-1.226" fill="#1a2e35"/>
              <path id="Trazado_715275" data-name="Trazado 715275" d="M72.282,37.315a1.366,1.366,0,0,1-.279.056c-.181.029-.443.063-.769.1a22,22,0,0,1-2.555.1,21.7,21.7,0,0,1-2.55-.195c-.324-.046-.585-.088-.764-.124a1.485,1.485,0,0,1-.277-.066,1.386,1.386,0,0,1,.283.022l.768.089c.649.07,1.547.144,2.542.162s1.895-.024,2.546-.072L72,37.327a1.357,1.357,0,0,1,.284-.012" fill="#1a2e35"/>
              <path id="Trazado_715276" data-name="Trazado 715276" d="M75.232,47.125a1,1,0,0,1-.034.173c-.029.122-.069.285-.118.49-.027.107-.057.225-.089.354s-.085.265-.132.413c-.1.294-.2.637-.356,1l-.233.57c-.082.2-.188.393-.287.6-.191.421-.446.843-.7,1.293a16.988,16.988,0,0,1-4.543,4.936c-.427.294-.828.582-1.231.808-.2.115-.386.237-.576.336l-.549.279c-.344.188-.678.312-.963.437-.144.059-.276.119-.4.166l-.346.117-.479.159a1.127,1.127,0,0,1-.168.048.907.907,0,0,1,.161-.07l.471-.178L65,58.927c.123-.05.254-.112.4-.174.281-.13.611-.259.952-.45l.542-.284c.188-.1.373-.223.57-.34.4-.227.795-.518,1.218-.812a17.346,17.346,0,0,0,4.516-4.906c.258-.446.515-.864.708-1.28.1-.206.208-.4.292-.6s.163-.384.238-.564c.163-.356.264-.694.37-.986.05-.147.1-.282.141-.409s.068-.244.1-.35c.058-.2.1-.363.139-.484a1.013,1.013,0,0,1,.056-.167" fill="#1a2e35"/>
              <path id="Trazado_715277" data-name="Trazado 715277" d="M76.184,30.348a.851.851,0,0,1-.137.079c-.092.048-.227.118-.4.2a5.52,5.52,0,0,1-1.582.523,2.913,2.913,0,0,1-1.156-.064,2.1,2.1,0,0,1-.6-.26,2.249,2.249,0,0,1-.513-.464,10.214,10.214,0,0,1-.775-1.24A2.146,2.146,0,0,0,69.94,28.1a2.52,2.52,0,0,0-1.5.093,5.788,5.788,0,0,1-1.432.309,2.089,2.089,0,0,1-2.167-2.218,2.2,2.2,0,0,1,.162-.7,1.555,1.555,0,0,1,.326-.516,2.844,2.844,0,0,0-.286.533,2.209,2.209,0,0,0-.139.689,1.985,1.985,0,0,0,.887,1.753A2.013,2.013,0,0,0,67,28.4a5.8,5.8,0,0,0,1.4-.312,4.832,4.832,0,0,1,.76-.167,1.842,1.842,0,0,1,.808.073,1.7,1.7,0,0,1,.677.447,3.564,3.564,0,0,1,.461.63,10.177,10.177,0,0,0,.761,1.231,2,2,0,0,0,1.054.7,2.857,2.857,0,0,0,1.121.075,5.827,5.827,0,0,0,1.574-.484l.413-.183a.9.9,0,0,1,.147-.059" fill="#fff"/>
              <path id="Trazado_715278" data-name="Trazado 715278" d="M71.042,38a1.028,1.028,0,0,0,.154-.364,1.2,1.2,0,0,0-.337-.984,1.547,1.547,0,0,0-.624-.389,3.894,3.894,0,0,0-.843-.184c-.3-.041-.629-.065-.962-.137a2.327,2.327,0,0,1-.969-.417,1.487,1.487,0,0,1-.358-.41,2.746,2.746,0,0,1-.213-.476,5.146,5.146,0,0,0-.352-.889,1.593,1.593,0,0,0-1.313-.776,1.632,1.632,0,0,0-1.011.327,3.879,3.879,0,0,0-.3.27.337.337,0,0,1,.058-.088,1.433,1.433,0,0,1,.213-.216,1.632,1.632,0,0,1,1.039-.373,1.666,1.666,0,0,1,1.4.8,4.993,4.993,0,0,1,.366.9,1.732,1.732,0,0,0,.538.835,2.245,2.245,0,0,0,.922.4c.324.072.646.1.953.142a2.406,2.406,0,0,1,1.512.622,1.225,1.225,0,0,1,.321,1.046.773.773,0,0,1-.124.279c-.045.053-.07.08-.073.077" fill="#fff"/>
              <path id="Trazado_715279" data-name="Trazado 715279" d="M74.434,53.334a3.037,3.037,0,0,0-.863.037,9.538,9.538,0,0,0-.986.258,4.743,4.743,0,0,1-1.337.24,3.9,3.9,0,0,1-1.616-.316,3.357,3.357,0,0,1-1.463-1.189,3.033,3.033,0,0,1-.469-2.022,2.908,2.908,0,0,1,.333-1.064,2.6,2.6,0,0,1,.763-.857,2.462,2.462,0,0,0,.8-.748.826.826,0,0,0,.072-.506,1.9,1.9,0,0,0-.173-.5,2.952,2.952,0,0,1-.361-1.011,2.136,2.136,0,0,1,.151-1.023,2.492,2.492,0,0,1,1.325-1.325,3.682,3.682,0,0,1,1.619-.29,8.469,8.469,0,0,0,1.346-.039,2.214,2.214,0,0,0,.933-.364,1.381,1.381,0,0,0,.425-.468c.069-.129.085-.206.093-.2a.765.765,0,0,1-.073.214,1.327,1.327,0,0,1-.42.493,2.207,2.207,0,0,1-.947.391,8.065,8.065,0,0,1-1.357.056,3.639,3.639,0,0,0-1.581.3,2.4,2.4,0,0,0-1.267,1.278,2.037,2.037,0,0,0-.14.973,2.839,2.839,0,0,0,.354.976,2.019,2.019,0,0,1,.183.529.937.937,0,0,1-.082.574,2.534,2.534,0,0,1-.835.788,2.6,2.6,0,0,0-1.054,1.844,2.937,2.937,0,0,0,.446,1.952,3.276,3.276,0,0,0,1.414,1.16,3.838,3.838,0,0,0,1.578.323,4.737,4.737,0,0,0,1.321-.222,8.941,8.941,0,0,1,1-.24,2.552,2.552,0,0,1,.648-.03,1.2,1.2,0,0,1,.223.036" fill="#fff"/>
              <path id="Trazado_715280" data-name="Trazado 715280" d="M71.378,60.22c-.01,0,.01-.151.017-.421a2.494,2.494,0,0,0-.2-1.1,1.086,1.086,0,0,0-.525-.533,2.036,2.036,0,0,0-.873-.13,2.546,2.546,0,0,1-1.013-.126,1.187,1.187,0,0,1-.438-.339,2.614,2.614,0,0,1-.3-.473,3.9,3.9,0,0,0-.553-.909,2.768,2.768,0,0,0-.768-.612,2.618,2.618,0,0,0-1.622-.289,2.827,2.827,0,0,0-1.064.375c-.23.141-.342.242-.349.234s.024-.03.076-.078a2.242,2.242,0,0,1,.25-.193A2.714,2.714,0,0,1,65.1,55.2a2.668,2.668,0,0,1,1.682.276,2.844,2.844,0,0,1,.8.631,2.886,2.886,0,0,1,.316.441c.091.16.169.326.254.489a1.509,1.509,0,0,0,.68.763,2.507,2.507,0,0,0,.97.123,2.115,2.115,0,0,1,.912.15,1.165,1.165,0,0,1,.557.582,2.417,2.417,0,0,1,.168,1.142,3.1,3.1,0,0,1-.035.312.4.4,0,0,1-.025.107" fill="#fff"/>
              <path id="Trazado_715281" data-name="Trazado 715281" d="M66.2,42.363c.008,0-.062.133-.177.37a2.858,2.858,0,0,0-.322,1.049,1.374,1.374,0,0,0,.157.724,6.018,6.018,0,0,0,.492.727,2.61,2.61,0,0,1,.487,1.96,2.206,2.206,0,0,1-1.187,1.617,1.994,1.994,0,0,1-.876.213,1.9,1.9,0,0,1-1.6-.914,1.444,1.444,0,0,1-.125-.28.371.371,0,0,1-.025-.1c.011,0,.048.141.187.362a1.864,1.864,0,0,0,.832.694,1.76,1.76,0,0,0,.733.149,1.912,1.912,0,0,0,.83-.211,2.123,2.123,0,0,0,1.124-1.543,2.531,2.531,0,0,0-.462-1.882,5.9,5.9,0,0,1-.491-.746,1.447,1.447,0,0,1-.153-.77,2.732,2.732,0,0,1,.363-1.064c.064-.116.117-.2.154-.263a.379.379,0,0,1,.062-.087" fill="#fff"/>
              <path id="Trazado_715282" data-name="Trazado 715282" d="M72.705,35.117a1.105,1.105,0,0,1-.026-.257q-.015-.285-.036-.7c-.03-.618-.069-1.425-.112-2.317s-.072-1.725-.079-2.319c0-.3,0-.537,0-.7a1.155,1.155,0,0,1,.017-.258,1.137,1.137,0,0,1,.027.258c.009.189.021.424.035.7.03.618.069,1.424.112,2.316s.072,1.725.08,2.319c0,.3,0,.538,0,.7a1.11,1.11,0,0,1-.018.258" fill="#1a2e35"/>
              <path id="Trazado_715283" data-name="Trazado 715283" d="M72.63,32.381s.363,4.358-.054,4.65A17.35,17.35,0,0,1,66.1,39.483c-.152-.054-.329-.123-.535-.214a1.693,1.693,0,0,1-.48-.32,2.666,2.666,0,0,1-.476-.546.219.219,0,0,0-.415.032A1.891,1.891,0,0,0,65,39.63c.562.441-.545.465-.948.481a6.405,6.405,0,0,0-1.739.256c-.134.191.046.376.448.351s1.613-.016,1.615.2-2.052.268-2.052.268-.443-.062-.449.19c-.011.454,2.165.234,2.372.207.143-.018.153.219,0,.23s-2.051,0-2.066.466c-.014.355,1.791-.164,2.187.06s-1.41.251-1.41.59c0,.126.02.221,1.051.053a20.662,20.662,0,0,0,2.185-.582l0,.011s10.734-.921,10.465-5.761c-.181-3.275-.122-2.67-.322-4.392" fill="#c78976"/>
            </g>
          </g>
        </g>
      </g>
    </g>
  </g>
</svg>
