<svg xmlns="http://www.w3.org/2000/svg" xmlns:xlink="http://www.w3.org/1999/xlink" width="112" height="104" viewBox="0 0 112 104">
  <defs>
    <clipPath id="clip-path">
      <rect id="Rect치ngulo_350902" data-name="Rect치ngulo 350902" width="74.75" height="104" fill="none"/>
    </clipPath>
  </defs>
  <g id="Grupo_1008284" data-name="Grupo 1008284" transform="translate(-1002 -4440)">
    <rect id="Rect치ngulo_346200" data-name="Rect치ngulo 346200" width="112" height="104" transform="translate(1002 4440)" fill="none"/>
    <g id="Grupo_1008279" data-name="Grupo 1008279" transform="translate(1021 4440)">
      <g id="Grupo_1008276" data-name="Grupo 1008276">
        <g id="Grupo_1008275" data-name="Grupo 1008275" clip-path="url(#clip-path)">
          <path id="Trazado_720242" data-name="Trazado 720242" d="M41.195,47.014l2.014,1.95L63.356,34.1V11.911a2.2,2.2,0,0,0-2.2-2.2H14.136a2.2,2.2,0,0,0-2.2,2.2V34.1L32.082,48.964l2.014-1.95a5.1,5.1,0,0,1,7.1,0" fill="#ecf4f7"/>
          <path id="Trazado_720243" data-name="Trazado 720243" d="M41.243,2.335a5.642,5.642,0,0,0-7.194,0L25.13,9.71H50.163Z" fill="#aab1ba"/>
          <path id="Trazado_720244" data-name="Trazado 720244" d="M63.356,20.62V34.1l8.612-6.355Z" fill="#aab1ba"/>
          <path id="Trazado_720245" data-name="Trazado 720245" d="M3.324,27.742,11.936,34.1V20.621Z" fill="#aab1ba"/>
          <path id="Trazado_720246" data-name="Trazado 720246" d="M43.21,48.964,41.2,47.014a5.1,5.1,0,0,0-7.1,0l-2.014,1.951L16.828,37.708l-13.5-9.966v39.5a3.7,3.7,0,0,0,3.7,3.7H68.27a3.7,3.7,0,0,0,3.7-3.7v-39.5Z" fill="#fddf7f"/>
        </g>
      </g>
      <g id="Grupo_1008278" data-name="Grupo 1008278">
        <g id="Grupo_1008277" data-name="Grupo 1008277" clip-path="url(#clip-path)">
          <path id="Trazado_720247" data-name="Trazado 720247" d="M41.78,26.878a4.134,4.134,0,1,1-4.135-4.134,4.135,4.135,0,0,1,4.135,4.134" fill="#81d4fa"/>
          <path id="Trazado_720248" data-name="Trazado 720248" d="M6.617,93.669a1.04,1.04,0,0,1-1.04,1.04H4.364v1.213a1.041,1.041,0,0,1-2.081,0V94.709H1.071a1.04,1.04,0,0,1,0-2.08H2.283V91.415a1.041,1.041,0,0,1,2.081,0v1.214H5.577a1.04,1.04,0,0,1,1.04,1.04m67.063-1.04h-.975V91.415a1.04,1.04,0,0,0-2.08,0v1.214h-.974a1.04,1.04,0,0,0,0,2.08h.974v1.213a1.04,1.04,0,0,0,2.08,0V94.709h.975a1.04,1.04,0,0,0,0-2.08M3.324,88.3a1.04,1.04,0,0,0,1.04-1.04v-.762a1.041,1.041,0,0,0-2.081,0v.762A1.041,1.041,0,0,0,3.324,88.3m68.644-2.842a1.041,1.041,0,0,0-1.04,1.04v.762a1.041,1.041,0,0,0,2.081,0v-.762a1.042,1.042,0,0,0-1.041-1.04m-1.04-14.3a4.708,4.708,0,0,1-2.658.818H7.022a4.708,4.708,0,0,1-2.658-.818v11.26a1.041,1.041,0,0,1-2.081,0V27.741l0-.026v-.034a.618.618,0,0,1,.007-.062L2.3,27.57l.012-.058.007-.032c0-.014.007-.027.012-.041a.777.777,0,0,1,.033-.092l.011-.031,0-.009.007-.012c.016-.032.031-.064.049-.093l.02-.03c.009-.013.017-.026.026-.037l.007-.012,0,0c.007-.008.013-.017.021-.025s.02-.025.03-.037.038-.042.059-.061a.272.272,0,0,1,.024-.024l.017-.015.02-.018L10.9,20.13V11.911a3.245,3.245,0,0,1,3.24-3.241H24.755l8.632-7.137a6.69,6.69,0,0,1,8.518,0L50.537,8.67H61.156a3.245,3.245,0,0,1,3.24,3.241V20.13l8.235,6.809c.007.005.013.013.02.018l.017.015a.272.272,0,0,1,.024.024c.021.019.04.04.059.061s.021.024.03.037a.219.219,0,0,1,.02.025l0,0,.008.012.025.038a.181.181,0,0,1,.019.029,1.063,1.063,0,0,1,.051.094l.007.012,0,.009a.142.142,0,0,1,.011.031.782.782,0,0,1,.034.092c0,.013.008.027.011.041a.3.3,0,0,1,.008.032c0,.018.009.039.012.058l.006.049c0,.02,0,.041.007.062v.034c0,.008,0,.017,0,.025V82.417a1.041,1.041,0,0,1-2.081,0ZM11.954,69.895H63.338L42.486,49.711l-2.014-1.949a4.105,4.105,0,0,0-.633-.5,4.044,4.044,0,0,0-5.019.5l-2.014,1.95ZM28.019,8.67H47.273L40.58,3.135a4.613,4.613,0,0,0-5.869,0ZM5.012,27.695l7.541,5.564h0L31.991,47.6l1.383-1.337a6.117,6.117,0,0,1,8.545,0L43.3,47.6,62.739,33.259l7.541-5.564L64.4,22.829v6.278a1.04,1.04,0,0,1-2.08,0v-17.2a1.163,1.163,0,0,0-1.16-1.162H14.136a1.163,1.163,0,0,0-1.16,1.162v17.2a1.04,1.04,0,0,1-2.08,0V22.829Zm2.01,42.2H8.964L30.476,49.071,4.364,29.8V67.237a2.661,2.661,0,0,0,2.658,2.658m63.906-2.658V29.8L44.816,49.071,66.328,69.895H68.27a2.661,2.661,0,0,0,2.658-2.658m-48.707,33.83a1.04,1.04,0,0,0-1.04,1.04v.853a1.04,1.04,0,1,0,2.08,0v-.853a1.04,1.04,0,0,0-1.04-1.04m0-27.117a1.04,1.04,0,0,0-1.04,1.04V97.541a1.04,1.04,0,1,0,2.08,0V74.99a1.04,1.04,0,0,0-1.04-1.04m30.85,27.117a1.04,1.04,0,0,0-1.04,1.04v.853a1.04,1.04,0,1,0,2.08,0v-.853a1.04,1.04,0,0,0-1.04-1.04m0-2.486a1.04,1.04,0,0,0,1.04-1.04V74.99a1.04,1.04,0,0,0-2.08,0V97.541a1.04,1.04,0,0,0,1.04,1.04m-20.3,2.486a1.04,1.04,0,0,0-1.04,1.04v.853a1.04,1.04,0,1,0,2.08,0v-.853a1.04,1.04,0,0,0-1.04-1.04m0-27.117a1.04,1.04,0,0,0-1.04,1.04V97.541a1.04,1.04,0,1,0,2.08,0V74.99a1.04,1.04,0,0,0-1.04-1.04m9.747,27.117a1.041,1.041,0,0,0-1.041,1.04v.853a1.041,1.041,0,0,0,2.081,0v-.853a1.041,1.041,0,0,0-1.04-1.04m0-27.117a1.041,1.041,0,0,0-1.041,1.04V97.541a1.041,1.041,0,0,0,2.081,0V74.99a1.041,1.041,0,0,0-1.04-1.04M37.646,38.22h3.709a1.04,1.04,0,0,0,0-2.08H37.646a9.262,9.262,0,1,1,9.262-9.262v2.235a1.04,1.04,0,1,0,2.08,0V26.878A11.342,11.342,0,1,0,37.646,38.22m8.806-5.507a1.04,1.04,0,0,1-1.04,1.04H44.034a3.3,3.3,0,0,1-3.248-2.767,5.173,5.173,0,1,1-.045-8.253V22.36a1.039,1.039,0,0,1,2.079,0v8.1a1.215,1.215,0,0,0,1.214,1.214h1.377a1.041,1.041,0,0,1,1.041,1.04m-5.711-5.835a3.1,3.1,0,1,0-3.1,3.094,3.1,3.1,0,0,0,3.1-3.094m4.374,9.262h-.4a1.04,1.04,0,0,0,0,2.08h.4a1.04,1.04,0,0,0,0-2.08" fill="#1c1d21"/>
        </g>
      </g>
    </g>
  </g>
</svg>
