<svg xmlns="http://www.w3.org/2000/svg" xmlns:xlink="http://www.w3.org/1999/xlink" width="112" height="104" viewBox="0 0 112 104">
  <defs>
    <clipPath id="clip-path">
      <rect id="Rect치ngulo_350904" data-name="Rect치ngulo 350904" width="92.98" height="104" fill="none"/>
    </clipPath>
  </defs>
  <g id="Grupo_1008285" data-name="Grupo 1008285" transform="translate(-504 -4592)">
    <rect id="Rect치ngulo_346199" data-name="Rect치ngulo 346199" width="112" height="104" transform="translate(504 4592)" fill="none"/>
    <g id="Grupo_1008281" data-name="Grupo 1008281" transform="translate(514 4592)">
      <g id="Grupo_1008280" data-name="Grupo 1008280" clip-path="url(#clip-path)">
        <path id="Trazado_720249" data-name="Trazado 720249" d="M88.872,50.11H74.515v7.4a28.025,28.025,0,1,1-56.05,0v-7.4H4.108A3.068,3.068,0,0,0,1.04,53.178v8.663a3.069,3.069,0,0,0,3.068,3.068H10.83a36.225,36.225,0,0,0,5.215,12.58l-4.756,4.757a3.067,3.067,0,0,0,0,4.339l6.126,6.125a3.065,3.065,0,0,0,4.338,0l4.757-4.757A36.233,36.233,0,0,0,39.091,93.17v6.722a3.068,3.068,0,0,0,3.068,3.068h8.662a3.068,3.068,0,0,0,3.068-3.068V93.17a36.22,36.22,0,0,0,12.58-5.217l4.757,4.757a3.067,3.067,0,0,0,4.339,0l6.126-6.125a3.07,3.07,0,0,0,0-4.339l-4.757-4.757a36.226,36.226,0,0,0,5.216-12.58h6.722a3.069,3.069,0,0,0,3.068-3.068V53.178a3.068,3.068,0,0,0-3.068-3.068" fill="#aab1ba"/>
        <path id="Trazado_720250" data-name="Trazado 720250" d="M61.609,1.04H18.465V57.51a28.025,28.025,0,1,0,56.05,0V13.945Z" fill="#ecf4f7"/>
        <path id="Trazado_720251" data-name="Trazado 720251" d="M61.609,1.04V13.945H74.515Z" fill="#aab1ba"/>
        <path id="Trazado_720252" data-name="Trazado 720252" d="M46.49,85.535a28.093,28.093,0,0,0,2.842-.143l0,0-.794-21.1h-4.1l-.794,21.1,0,0a28.093,28.093,0,0,0,2.842.143" fill="#81d4fa"/>
        <path id="Trazado_720253" data-name="Trazado 720253" d="M58.536,52.244A12.046,12.046,0,1,1,46.49,40.2,12.047,12.047,0,0,1,58.536,52.244" fill="#fddf7f"/>
        <path id="Trazado_720254" data-name="Trazado 720254" d="M7.376,40.236a1.039,1.039,0,0,1,1.04-1.04H9.63V37.983a1.04,1.04,0,1,1,2.08,0V39.2h1.213a1.04,1.04,0,0,1,0,2.08H11.71v1.213a1.04,1.04,0,1,1-2.08,0V41.276H8.416a1.039,1.039,0,0,1-1.04-1.04m3.294-5.372a1.041,1.041,0,0,0,1.04-1.04v-.762a1.04,1.04,0,1,0-2.08,0v.762a1.04,1.04,0,0,0,1.04,1.04m0-4.84a1.04,1.04,0,0,0,1.04-1.04V1.04a1.04,1.04,0,0,0-2.08,0V28.984a1.04,1.04,0,0,0,1.04,1.04M79.641,4.334h1.214V5.547a1.04,1.04,0,0,0,2.081,0V4.334h1.212a1.04,1.04,0,1,0,0-2.08H82.936V1.04a1.04,1.04,0,0,0-2.081,0V2.254H79.641a1.04,1.04,0,0,0,0,2.08m3.295,5.372a1.04,1.04,0,0,0-2.081,0v.761a1.04,1.04,0,0,0,2.081,0Zm-1.04,3.8a1.04,1.04,0,0,0-1.041,1.04V42.489a1.04,1.04,0,0,0,2.081,0V14.546a1.041,1.041,0,0,0-1.04-1.04m6.976,35.565H78.445a1.04,1.04,0,0,0,0,2.08H88.872A2.03,2.03,0,0,1,90.9,53.179v8.662a2.029,2.029,0,0,1-2.028,2.028H82.15a1.039,1.039,0,0,0-1.018.831,35.056,35.056,0,0,1-5.068,12.218,1.04,1.04,0,0,0,.136,1.307l4.755,4.757a2.028,2.028,0,0,1,0,2.868L74.83,91.976a2.029,2.029,0,0,1-2.867,0L67.2,87.218a1.04,1.04,0,0,0-1.306-.133A35,35,0,0,1,53.68,92.151a1.041,1.041,0,0,0-.83,1.019v6.722a2.029,2.029,0,0,1-2.028,2.028H42.16a2.029,2.029,0,0,1-2.028-2.028V93.17a1.041,1.041,0,0,0-.83-1.019,35.03,35.03,0,0,1-12.219-5.066,1.041,1.041,0,0,0-1.307.133L21.02,91.976a2.033,2.033,0,0,1-2.869,0L12.025,85.85a2.032,2.032,0,0,1,0-2.868l4.757-4.756a1.041,1.041,0,0,0,.134-1.308A35.046,35.046,0,0,1,11.849,64.7a1.038,1.038,0,0,0-1.017-.831H4.109a2.031,2.031,0,0,1-2.03-2.028V53.179a2.032,2.032,0,0,1,2.03-2.028H14.528a1.04,1.04,0,0,0,0-2.08H4.109A4.112,4.112,0,0,0,0,53.179v8.662A4.112,4.112,0,0,0,4.109,65.95H9.994a37.066,37.066,0,0,0,4.725,11.4l-4.165,4.165a4.11,4.11,0,0,0,0,5.809l6.126,6.125a4.113,4.113,0,0,0,5.81,0l4.164-4.164a37.068,37.068,0,0,0,11.4,4.726v5.884A4.113,4.113,0,0,0,42.16,104h8.662a4.113,4.113,0,0,0,4.108-4.108V94.008a37.067,37.067,0,0,0,11.4-4.726l4.165,4.164a4.108,4.108,0,0,0,5.809,0l6.126-6.125a4.105,4.105,0,0,0,0-5.809l-4.165-4.165a37.093,37.093,0,0,0,4.726-11.4h5.884a4.113,4.113,0,0,0,4.109-4.109V53.179a4.113,4.113,0,0,0-4.108-4.108M18.467,23.2a1.041,1.041,0,0,0,1.04-1.041V21.042a1.04,1.04,0,0,0-2.08,0v1.114a1.04,1.04,0,0,0,1.04,1.041m18.25,48.424v7.793a1.04,1.04,0,0,0,2.08,0V71.621a1.04,1.04,0,0,0-2.08,0m17.467,0v7.793a1.04,1.04,0,1,0,2.08,0V71.621a1.04,1.04,0,1,0-2.08,0M36.3,63.25h3.127a13.085,13.085,0,1,1,14.13,0h3.125a5.976,5.976,0,0,1,5.969,5.968v6.719a1.041,1.041,0,0,1-2.081,0V69.218a3.893,3.893,0,0,0-3.888-3.888h-7.06l.58,15.454a1.038,1.038,0,0,1-1,1.078h-.038a1.039,1.039,0,0,1-1.039-1L47.54,65.33h-2.1l-.584,15.532a1.04,1.04,0,0,1-2.079-.078l.581-15.454H36.3a3.893,3.893,0,0,0-3.887,3.888v6.719a1.04,1.04,0,1,1-2.08,0V69.218A5.976,5.976,0,0,1,36.3,63.25m10.192,0A11.006,11.006,0,1,0,35.485,52.245,11.019,11.019,0,0,0,46.491,63.25m7.364-48.265a1.04,1.04,0,1,0,0-2.08H52.638a1.04,1.04,0,1,0,0,2.08Zm-19.41,0H48.489a1.04,1.04,0,0,0,0-2.08H34.445a1.04,1.04,0,1,0,0,2.08m0,6.451H58.536a1.04,1.04,0,1,0,0-2.079H34.445a1.04,1.04,0,1,0,0,2.079m0,6.451H58.536a1.04,1.04,0,1,0,0-2.08H34.445a1.04,1.04,0,1,0,0,2.08M17.427,57.51V26.059a1.04,1.04,0,1,1,2.08,0V57.51a26.983,26.983,0,1,0,53.967,0V14.985H61.61a1.041,1.041,0,0,1-1.041-1.04V2.08H19.507V17.14a1.04,1.04,0,1,1-2.08,0V1.04A1.04,1.04,0,0,1,18.467,0H61.61l.021,0a1.247,1.247,0,0,1,.182.018h0a1.068,1.068,0,0,1,.169.052c.018.007.034.015.05.023a1,1,0,0,1,.121.063c.014.01.03.018.044.028a1.143,1.143,0,0,1,.144.118l12.9,12.905a1.089,1.089,0,0,1,.118.144c.01.014.019.029.029.045a1.242,1.242,0,0,1,.063.12.41.41,0,0,1,.021.048.911.911,0,0,1,.054.173v0a1.247,1.247,0,0,1,.018.183V57.51a29.064,29.064,0,1,1-58.127,0M72,12.9,62.65,3.551V12.9Z" fill="#1c1d21"/>
      </g>
    </g>
  </g>
</svg>
